<svg width="279" height="279" viewBox="0 0 279 279" fill="none" xmlns="http://www.w3.org/2000/svg">
<g clip-path="url(#clip0_2236_47143)">
<rect width="278" height="278" transform="translate(0.5 0.5)" fill="#003050"/>
<path d="M372.305 346.051L372.306 346.061C372.456 347.605 372.604 349.131 372.624 350.743L-154.362 260.546C-143.516 255.852 -133.298 249.78 -124.234 242.239L-124.234 242.238C-117.395 236.533 -111.233 231.117 -105.513 226.091C-101.379 222.458 -97.4766 219.029 -93.7177 215.84C-84.7322 208.218 -76.5045 201.917 -67.6967 197.307C-50.1126 188.102 -30.147 185.6 2.87902 192.998L2.87972 192.998C13.0365 195.255 23.5215 198.316 34.204 201.435C35.249 201.74 36.2959 202.045 37.3446 202.351C49.1069 205.777 61.0874 209.184 73.0802 211.57C97.0655 216.341 121.155 217.041 143.744 205.622L143.744 205.622C155.121 199.853 164.707 191.339 174.223 182.789L174.896 182.183C184.199 173.821 193.475 165.484 204.382 159.594C226.352 147.788 251.773 148.157 275.253 156.663C298.735 165.17 320.244 181.806 334.354 202.475C362.604 243.854 368.705 296.022 372.305 346.051Z" fill="#0E6DAC" stroke="black" stroke-width="0.844985"/>
<g clip-path="url(#clip1_2236_47143)">
<path d="M255.885 208.201C257.423 207.987 259.431 207.218 259.089 205.808C239.735 205.253 220.381 204.911 200.985 204.783C191.286 204.74 181.631 204.697 171.932 204.783C164.926 204.825 152.963 202.903 146.682 205.552C150.613 210.166 162.148 209.568 167.916 210.08C177.871 210.978 187.868 211.533 197.908 211.661C217.305 211.96 236.744 210.807 255.885 208.201Z" fill="#1A5983"/>
</g>
<g clip-path="url(#clip2_2236_47143)">
<path d="M260.043 139.457C260.422 141.778 262.222 143.579 264.543 143.958C262.222 144.337 260.422 146.137 260.043 148.458C259.664 146.137 257.863 144.337 255.542 143.958C257.863 143.579 259.664 141.778 260.043 139.457Z" fill="white"/>
<path d="M244.598 36.2773C244.977 38.5987 246.778 40.3989 249.099 40.7779C246.778 41.1569 244.977 42.9571 244.598 45.2785C244.219 42.9571 242.419 41.1569 240.098 40.7779C242.419 40.3989 244.219 38.5987 244.598 36.2773Z" fill="white"/>
<path d="M158.329 14.8633C158.851 17.8479 161.172 20.1692 164.157 20.6903C161.219 21.1641 158.898 23.4381 158.424 26.4227C157.903 23.4381 155.582 21.1167 152.597 20.5956C155.534 20.1218 157.856 17.8005 158.329 14.8633Z" fill="white"/>
<path d="M175.526 18.5605C175.716 19.6502 176.569 20.4555 177.611 20.645C176.521 20.8345 175.716 21.6873 175.526 22.7295C175.337 21.6399 174.484 20.8345 173.442 20.645C174.484 20.4555 175.337 19.6028 175.526 18.5605Z" fill="white"/>
<path d="M250.757 148.84C250.947 149.929 251.799 150.735 252.842 150.924C251.752 151.114 250.947 151.967 250.757 153.009C250.568 151.919 249.715 151.114 248.673 150.924C249.762 150.782 250.568 149.929 250.757 148.84Z" fill="white"/>
<path d="M257.2 34.5234C257.39 35.6131 258.242 36.4184 259.285 36.6079C258.195 36.7974 257.39 37.6502 257.2 38.6924C257.011 37.6028 256.158 36.7974 255.116 36.6079C256.158 36.4184 257.011 35.6131 257.2 34.5234Z" fill="white"/>
<path d="M253.789 160.637C254.31 163.858 256.821 166.369 260.043 166.89C256.821 167.411 254.31 169.922 253.789 173.144C253.268 169.922 250.757 167.411 247.536 166.89C250.757 166.322 253.268 163.811 253.789 160.637Z" fill="white"/>
<path d="M158.377 34.5234C158.566 35.6131 159.419 36.4184 160.461 36.6079C159.372 36.7974 158.566 37.6502 158.377 38.6924C158.187 37.6028 157.335 36.7974 156.292 36.6079C157.335 36.4184 158.187 35.6131 158.377 34.5234Z" fill="white"/>
<path d="M172.589 27.1328C172.968 29.5489 174.911 31.4913 177.327 31.8703C174.911 32.2493 172.968 34.1916 172.589 36.6077C172.21 34.1916 170.268 32.2493 167.852 31.8703C170.268 31.4913 172.21 29.5489 172.589 27.1328Z" fill="white"/>
<path d="M194.192 49.115C191.634 47.9306 189.17 46.5094 186.517 45.6093C173.158 40.9192 166.904 54.8473 165.436 65.5539C161.504 94.5471 169.178 124.393 163.399 153.055C161.598 161.866 158.614 170.346 156.766 179.158C156.103 182.427 155.582 185.79 156.293 189.012C157.003 192.281 159.135 195.36 162.262 196.402C165.862 197.587 169.842 195.786 172.4 193.039C180.075 184.843 184.528 170.962 189.597 161.014C191.255 157.792 192.866 154.618 195.045 151.728C196.892 149.265 199.688 146.849 202.72 147.417C206.652 148.128 208.073 153.055 208.262 157.034C208.926 170.441 202.056 191.002 210.868 202.608C211.863 203.935 213.189 205.072 214.8 205.546C218.021 206.493 221.48 204.266 223.138 201.377C224.796 198.487 225.175 195.028 225.601 191.712C225.601 189.817 226.17 187.78 226.454 185.933C231.902 154.192 246.92 123.682 262.743 95.921C266.675 89.0043 270.749 81.3296 269.186 73.5602C267.907 67.0699 262.317 61.6218 255.826 60.4375C252.036 59.7742 248.152 60.3901 244.409 59.5847C239.719 58.5899 235.834 55.5105 231.523 53.3787C227.165 51.2468 222.333 50.1572 217.5 50.1572C211.01 50.1572 204.472 52.147 198.172 50.5362C196.798 50.252 195.471 49.7309 194.192 49.115Z" fill="white"/>
<path d="M231.902 158.645C227.97 167.693 225.317 177.216 222.048 186.548C221.338 188.633 220.485 190.812 218.732 192.186C213 196.639 211.01 186.975 210.584 183.28C209.778 175.605 210.347 167.456 212.337 159.971C213.474 155.708 215.226 151.539 217.69 147.843C220.153 144.148 222.759 142.348 226.217 139.837C226.88 139.363 227.544 138.748 227.496 137.942C227.402 136.379 225.08 136.426 223.564 136.9C217.595 138.842 211.105 139.6 204.946 138.463C198.74 137.326 192.818 134.294 188.697 129.557C188.223 128.988 187.512 128.325 186.802 128.609C185.759 129.036 186.375 130.552 187.039 131.452C191.681 137.895 189.265 147.891 186.612 154.713C183.438 162.861 178.274 170.109 173.726 177.547C172.542 179.49 170.979 181.621 168.705 181.574C166.952 181.527 165.483 180.058 164.915 178.4C164.346 176.742 164.488 174.894 164.725 173.189C165.767 164.093 167.947 155.044 167.899 145.854C167.852 139.316 166.62 132.873 165.625 126.383C165.673 135.337 165.152 144.243 163.399 153.055C161.598 161.866 158.614 170.346 156.766 179.158C156.103 182.427 155.582 185.79 156.293 189.012C157.003 192.281 159.135 195.36 162.262 196.402C165.862 197.587 169.842 195.786 172.4 193.039C178.037 187.022 181.922 177.974 185.617 169.636C185.712 169.399 185.854 169.162 185.949 168.878C186.044 168.736 186.091 168.546 186.186 168.404C186.281 168.12 186.423 167.883 186.517 167.599C186.565 167.456 186.66 167.314 186.707 167.172C186.849 166.841 186.991 166.509 187.181 166.177C187.228 166.13 187.228 166.035 187.275 165.988C187.465 165.609 187.607 165.23 187.797 164.851C187.844 164.756 187.891 164.614 187.939 164.519C188.081 164.235 188.176 163.951 188.318 163.714C188.365 163.572 188.46 163.477 188.507 163.335C188.649 163.051 188.744 162.814 188.886 162.53C188.934 162.435 188.981 162.293 189.076 162.198C189.265 161.819 189.455 161.487 189.644 161.108C191.302 157.887 192.913 154.713 195.092 151.823C195.234 151.633 195.424 151.444 195.566 151.207C195.613 151.16 195.613 151.16 195.661 151.112C195.803 150.923 195.992 150.733 196.182 150.544C197.982 148.601 200.256 147.085 202.767 147.512C206.699 148.222 208.12 153.149 208.31 157.129C208.357 157.697 208.357 158.313 208.357 158.929C208.357 159.071 208.357 159.213 208.357 159.308C208.357 159.545 208.357 159.782 208.357 160.019C208.357 160.161 208.357 160.303 208.357 160.492C208.357 160.635 208.357 160.824 208.357 160.966C208.357 161.203 208.357 161.44 208.31 161.677C208.31 161.819 208.31 161.961 208.31 162.056C208.31 162.245 208.31 162.387 208.262 162.577C208.262 162.672 208.262 162.719 208.262 162.814C208.262 163.145 208.215 163.524 208.168 163.856C208.168 163.951 208.168 163.998 208.168 164.093C208.12 164.519 208.12 164.898 208.073 165.325C208.073 165.325 208.073 165.325 208.073 165.372C206.983 177.974 203.809 193.276 210.963 202.703C211.958 204.03 213.284 205.167 214.895 205.64C218.116 206.588 221.575 204.361 223.233 201.471C224.891 198.582 225.27 195.123 225.696 191.807C227.638 176.647 232.139 161.866 237.871 147.559C235.503 151.065 233.56 154.808 231.902 158.645Z" fill="#EFEFEF"/>
<path d="M235.124 65.2219C228.586 61.3846 220.722 60.2002 213.094 60.1528C209.068 60.1528 204.946 60.4371 201.014 59.5369C197.792 58.8263 194.855 57.3577 191.918 55.8417C190.355 55.0364 185.617 53.6151 185.901 57.0261C186.091 58.9211 191.018 61.6688 192.439 62.5215C206.794 70.9542 224.227 72.4228 240.856 71.5227C247.299 71.1911 255.068 71.6648 254.784 80.1922C254.689 83.1294 253.505 85.9245 252.32 88.6723C250.899 91.9411 249.478 95.2099 248.057 98.4788C247.82 98.9999 247.583 99.6158 247.678 100.184C247.772 100.753 248.294 101.321 248.862 101.227C249.241 101.132 249.525 100.8 249.762 100.469C252.368 96.6785 254.831 91.9885 256.253 87.63C257.437 83.8401 257.721 79.6237 256.205 75.9285C254.358 71.5701 250.425 69.3908 245.878 69.154C242.04 68.9645 239.624 68.1117 236.403 65.9799C235.929 65.6956 235.503 65.4588 235.124 65.2219Z" fill="#EFEFEF"/>
<path opacity="0.5" d="M172.968 72.709C172.21 78.5361 173.584 84.4105 174.342 90.2376C175.1 96.112 175.053 101.939 174.768 107.813C174.674 109.519 174.389 111.793 176.521 112.314C178.795 112.835 179.885 110.23 180.264 108.477C181.164 104.26 180.975 99.9493 181.496 95.6856C181.922 91.8957 183.059 87.1108 186.091 84.5052C189.076 81.947 193.671 83.2261 197.082 84.4105C200.824 85.6896 204.804 87.632 208.641 88.3426C213.237 89.1953 218.827 87.0635 223.043 85.5001C227.496 83.842 232.281 81.8049 236.829 83.084C238.345 83.5104 239.766 84.2684 241.33 84.6474C242.893 85.0264 244.693 84.8842 245.783 83.6999C248.246 81.0469 244.03 78.1571 241.946 77.3991C239.577 76.5463 236.971 76.4516 234.46 76.5463C227.591 76.7358 220.674 77.8254 213.852 76.9727C206.699 76.12 199.972 73.2301 193.718 69.677C189.549 67.3083 185.191 64.2763 180.359 63.6605C175.384 63.0446 173.489 68.5874 172.968 72.709Z" fill="white"/>
<path opacity="0.5" d="M174.153 126.146C174.247 130.552 174.911 135.1 175.1 139.411C175.147 140.311 175.479 141.496 176.379 141.448C176.853 141.448 177.185 141.069 177.421 140.69C178.037 139.695 178.227 138.464 178.369 137.327C179.032 131.973 181.164 125.104 180.264 119.798C180.122 118.945 179.695 118.093 178.937 117.666C177.706 116.956 176.048 117.666 175.242 118.851C174.437 120.035 174.247 121.504 174.2 122.925C174.153 123.967 174.105 125.057 174.153 126.146Z" fill="white"/>
<path opacity="0.5" d="M175.811 155.187C176.427 155.329 177.042 154.903 177.374 154.382C178.179 153.055 179.648 146.376 176.474 147.465C174.721 148.081 173.584 154.714 175.811 155.187Z" fill="white"/>
<path opacity="0.5" d="M233.702 118.899C232.992 120.272 232.329 121.694 232.044 123.21C231.95 123.873 231.855 124.536 232.092 125.152C232.329 125.768 232.85 126.289 233.513 126.336C234.46 126.384 235.124 125.484 235.597 124.631C236.782 122.546 243.793 112.361 242.277 110.371C240.003 107.481 234.46 117.43 233.702 118.899Z" fill="white"/>
<path d="M176.284 65.4602C173.726 71.1452 173.11 77.3512 172.921 83.5099C172.826 86.8261 172.826 90.095 172.731 93.4112C172.637 96.8695 172.542 100.328 172.637 103.786C172.684 105.681 172.826 107.576 172.921 109.424C173.063 111.366 173.11 113.356 173.347 115.298C173.442 115.961 173.868 116.577 174.626 116.577C175.29 116.577 175.905 116.009 175.905 115.298C175.905 111.935 175.621 108.571 175.527 105.207C175.432 101.844 175.1 98.4802 174.863 95.0693C174.39 88.7211 174.011 82.2782 174.579 75.93C174.911 72.4243 175.621 69.0133 176.948 65.7445C177.09 65.3655 176.427 65.0812 176.284 65.4602Z" fill="#EFEFEF"/>
<path d="M174.247 127.427C174.247 127.569 174.247 127.711 174.247 127.854C174.247 128.09 174.295 128.28 174.389 128.469C174.437 128.659 174.579 128.848 174.721 128.99C174.863 129.133 175.053 129.275 175.242 129.322C175.432 129.417 175.621 129.464 175.858 129.464C176 129.464 176.142 129.417 176.284 129.417C176.569 129.322 176.806 129.227 176.995 128.99C177.09 128.896 177.185 128.754 177.232 128.659C177.374 128.422 177.469 128.138 177.469 127.854C177.469 127.711 177.469 127.569 177.469 127.427C177.469 127.19 177.421 127.001 177.327 126.811C177.279 126.622 177.137 126.432 176.995 126.29C176.853 126.148 176.663 126.006 176.474 125.959C176.284 125.864 176.095 125.816 175.858 125.816C175.716 125.816 175.574 125.864 175.432 125.864C175.147 125.959 174.911 126.053 174.721 126.29C174.626 126.385 174.579 126.527 174.484 126.622C174.295 126.859 174.247 127.143 174.247 127.427Z" fill="#EFEFEF"/>
<path d="M174.721 135.766C174.721 135.908 174.721 136.05 174.721 136.192C174.721 136.334 174.721 136.477 174.768 136.619C174.768 136.808 174.816 136.998 174.911 137.187C174.958 137.377 175.053 137.519 175.195 137.661C175.337 137.803 175.479 137.898 175.669 137.945C175.858 138.04 176.048 138.087 176.237 138.087C176.379 138.087 176.521 138.04 176.616 138.04C176.853 137.993 177.09 137.85 177.279 137.661C177.374 137.566 177.421 137.471 177.516 137.377C177.658 137.14 177.706 136.903 177.706 136.619C177.706 136.477 177.706 136.334 177.753 136.192C177.753 136.05 177.753 135.908 177.753 135.766C177.753 135.576 177.706 135.387 177.611 135.197C177.564 135.008 177.469 134.866 177.279 134.724C177.137 134.582 176.995 134.487 176.806 134.392C176.616 134.297 176.427 134.25 176.237 134.25C176.095 134.25 175.953 134.297 175.858 134.297C175.621 134.392 175.384 134.487 175.195 134.676C175.1 134.771 175.053 134.866 174.958 134.961C174.816 135.245 174.721 135.482 174.721 135.766Z" fill="#EFEFEF"/>
<path d="M174.674 145.622C174.816 145.906 174.958 146.19 175.1 146.475C175.195 146.617 175.29 146.759 175.432 146.854C175.574 146.948 175.716 147.043 175.858 147.091C176.048 147.138 176.19 147.138 176.379 147.091C176.569 147.091 176.711 147.043 176.853 146.948C176.948 146.901 177.042 146.806 177.137 146.759C177.279 146.617 177.421 146.38 177.469 146.19C177.469 146.096 177.516 145.954 177.516 145.859C177.516 145.622 177.469 145.385 177.327 145.196C177.185 144.911 177.042 144.627 176.9 144.343C176.806 144.201 176.711 144.059 176.569 143.964C176.427 143.869 176.284 143.774 176.142 143.727C175.953 143.68 175.811 143.68 175.621 143.727C175.432 143.727 175.29 143.774 175.147 143.869C175.053 143.916 174.958 144.011 174.863 144.059C174.721 144.201 174.579 144.438 174.532 144.627C174.532 144.722 174.484 144.864 174.484 144.959C174.532 145.196 174.579 145.385 174.674 145.622Z" fill="#EFEFEF"/>
<path d="M174.153 156.795C175.479 156.795 175.479 154.758 174.153 154.758C172.826 154.758 172.826 156.795 174.153 156.795Z" fill="#EFEFEF"/>
<path d="M173.3 162.392C174.816 162.392 174.816 160.023 173.3 160.023C171.831 160.023 171.831 162.392 173.3 162.392Z" fill="#EFEFEF"/>
<path d="M181.496 68.0656C180.027 71.0976 178.89 74.319 178.369 77.6352C177.848 80.9988 177.753 84.4098 178.18 87.7734C178.274 88.5788 178.843 89.242 179.696 89.0999C180.548 89.0051 180.975 88.1998 180.832 87.3944C179.79 81.2831 180.501 74.6033 182.964 68.871C183.154 68.4446 183.106 67.9708 182.633 67.6866C182.301 67.5445 181.733 67.6392 181.496 68.0656Z" fill="#EFEFEF"/>
<path d="M186.281 70.6743C184.717 73.6115 184.243 76.9277 184.717 80.1966C184.812 80.8598 185.665 81.2388 186.233 81.0493C186.896 80.8598 187.275 80.1966 187.086 79.5333C186.423 76.8804 186.66 74.0379 187.749 71.5271C187.939 71.1007 187.891 70.6269 187.465 70.3901C187.086 70.1058 186.517 70.2479 186.281 70.6743Z" fill="#EFEFEF"/>
<path d="M191.776 76.0263C191.397 76.2632 191.16 76.6896 191.16 77.1633C191.16 77.4002 191.208 77.6371 191.302 77.8265C191.397 78.0634 191.587 78.2055 191.776 78.3477C191.871 78.395 191.918 78.4424 192.013 78.4424C192.108 78.4424 192.202 78.4424 192.297 78.4424C192.439 78.395 192.629 78.3003 192.724 78.1108C192.818 77.9687 192.866 77.7792 192.771 77.5897C192.724 77.4002 192.629 77.2581 192.439 77.1633C192.392 77.1633 192.392 77.1159 192.345 77.1159C192.392 77.1633 192.439 77.1633 192.487 77.2107C192.439 77.1633 192.392 77.1633 192.392 77.1159C192.439 77.1633 192.439 77.2107 192.487 77.2581C192.439 77.2107 192.392 77.1633 192.392 77.0686C192.392 77.1159 192.439 77.1633 192.439 77.2107C192.392 77.1633 192.392 77.0686 192.392 77.0212C192.392 77.0686 192.392 77.1159 192.392 77.2107C192.392 77.1633 192.392 77.0686 192.392 77.0212C192.392 77.0686 192.392 77.1159 192.392 77.1633C192.392 77.1159 192.439 77.0212 192.439 76.9738C192.439 77.0212 192.392 77.0686 192.392 77.1159C192.392 77.0686 192.439 77.0212 192.487 76.9738C192.439 77.0212 192.439 77.0686 192.392 77.1159C192.439 77.0686 192.439 77.0686 192.487 77.0212C192.581 76.9264 192.676 76.7369 192.676 76.5948C192.676 76.4527 192.629 76.3579 192.534 76.2158C192.392 75.9316 192.06 75.8368 191.776 76.0263Z" fill="#EFEFEF"/>
<path d="M244.172 109.045C240.714 113.451 237.777 118.236 235.313 123.257C234.887 124.11 235.171 125.152 236.071 125.531C237.019 125.91 237.966 125.389 238.25 124.489C240.003 119.373 242.372 114.398 245.072 109.708C245.404 109.187 244.598 108.524 244.172 109.045Z" fill="#EFEFEF"/>
<path d="M227.733 147.889C223.612 155.185 220.532 162.955 218.922 171.198C218.732 172.145 219.253 173.093 220.295 173.235C221.385 173.377 222.048 172.619 222.143 171.624C223.185 163.713 225.459 155.801 229.012 148.647C229.486 147.795 228.207 147.037 227.733 147.889Z" fill="#EFEFEF"/>
<g filter="url(#filter0_d_2236_47143)">
<path d="M252.953 184.511C266.295 171.169 266.295 149.538 252.953 136.196C239.612 122.855 217.98 122.855 204.639 136.196C191.297 149.538 191.297 171.169 204.639 184.511C217.98 197.852 239.612 197.852 252.953 184.511Z" fill="#EFA614"/>
</g>
<path d="M207.581 157.278C206.941 157.278 206.355 157.156 205.824 156.913C205.301 156.679 204.868 156.341 204.526 155.899L205.715 154.439C206.229 155.133 206.811 155.48 207.459 155.48C208.361 155.48 208.811 154.957 208.811 153.911V148.057H205.499V146.3H211.002V153.79C211.002 154.952 210.713 155.822 210.136 156.399C209.56 156.985 208.708 157.278 207.581 157.278ZM220.344 148.49V155.764H218.343V154.898C218.064 155.214 217.73 155.457 217.343 155.628C216.955 155.791 216.536 155.872 216.086 155.872C215.13 155.872 214.373 155.597 213.814 155.047C213.255 154.497 212.976 153.682 212.976 152.6V148.49H215.085V152.289C215.085 153.461 215.576 154.047 216.559 154.047C217.064 154.047 217.469 153.884 217.776 153.56C218.082 153.226 218.235 152.735 218.235 152.086V148.49H220.344ZM224.745 155.872C224.141 155.872 223.551 155.8 222.974 155.656C222.397 155.502 221.938 155.313 221.595 155.088L222.298 153.573C222.623 153.781 223.015 153.952 223.474 154.087C223.934 154.213 224.385 154.276 224.826 154.276C225.719 154.276 226.165 154.056 226.165 153.614C226.165 153.407 226.043 153.258 225.8 153.168C225.556 153.078 225.182 153.001 224.678 152.938C224.083 152.848 223.592 152.744 223.204 152.627C222.816 152.51 222.478 152.303 222.19 152.005C221.911 151.708 221.771 151.284 221.771 150.734C221.771 150.275 221.902 149.869 222.163 149.518C222.433 149.157 222.821 148.878 223.326 148.679C223.839 148.481 224.443 148.382 225.137 148.382C225.651 148.382 226.16 148.44 226.665 148.558C227.179 148.666 227.602 148.819 227.936 149.017L227.233 150.518C226.593 150.157 225.894 149.977 225.137 149.977C224.687 149.977 224.349 150.04 224.123 150.166C223.898 150.293 223.785 150.455 223.785 150.653C223.785 150.879 223.907 151.036 224.15 151.126C224.394 151.217 224.781 151.302 225.313 151.383C225.908 151.482 226.395 151.591 226.773 151.708C227.152 151.816 227.481 152.019 227.76 152.316C228.04 152.614 228.179 153.028 228.179 153.56C228.179 154.011 228.044 154.412 227.774 154.763C227.503 155.115 227.107 155.39 226.584 155.588C226.07 155.777 225.457 155.872 224.745 155.872ZM233.861 155.412C233.654 155.565 233.397 155.683 233.09 155.764C232.793 155.836 232.482 155.872 232.158 155.872C231.283 155.872 230.612 155.651 230.143 155.209C229.674 154.768 229.44 154.119 229.44 153.263V146.881H231.549V148.652H233.347V150.275H231.549V153.235C231.549 153.542 231.626 153.781 231.779 153.952C231.932 154.114 232.153 154.195 232.441 154.195C232.766 154.195 233.054 154.105 233.307 153.925L233.861 155.412ZM243.288 146.138C244.163 146.138 244.924 146.309 245.573 146.651C246.222 146.994 246.727 147.499 247.088 148.166C247.448 148.833 247.628 149.639 247.628 150.586V155.764H245.438V153.492H241.112V155.764H238.949V150.586C238.949 149.639 239.129 148.833 239.489 148.166C239.85 147.499 240.355 146.994 241.004 146.651C241.653 146.309 242.414 146.138 243.288 146.138ZM245.438 151.735V150.383C245.438 149.599 245.244 149.008 244.857 148.612C244.469 148.206 243.942 148.003 243.275 148.003C242.599 148.003 242.067 148.206 241.68 148.612C241.301 149.008 241.112 149.599 241.112 150.383V151.735H245.438ZM254.022 155.412C253.815 155.565 253.558 155.683 253.251 155.764C252.954 155.836 252.643 155.872 252.318 155.872C251.444 155.872 250.773 155.651 250.304 155.209C249.835 154.768 249.601 154.119 249.601 153.263V146.881H251.71V148.652H253.508V150.275H251.71V153.235C251.71 153.542 251.787 153.781 251.94 153.952C252.093 154.114 252.314 154.195 252.602 154.195C252.927 154.195 253.215 154.105 253.468 153.925L254.022 155.412ZM215.849 166.422C216.047 166.62 216.214 166.868 216.349 167.166H217.769V168.288H216.62V168.463C216.62 169.148 216.44 169.739 216.079 170.235C215.727 170.73 215.223 171.1 214.565 171.343L216.809 174.764H214.457L212.442 171.668H209.779V169.91H212.293C213.005 169.91 213.533 169.761 213.875 169.464C214.227 169.166 214.407 168.774 214.416 168.288H209.224V167.166H214.105C213.745 166.661 213.114 166.413 212.212 166.422H209.224V165.3H217.769V166.422H215.849ZM222.71 165.3V174.764H220.52V167.057H218.627V165.3H222.71ZM227.68 165.138C229.005 165.138 230.041 165.543 230.789 166.354C231.538 167.157 231.912 168.315 231.912 169.829C231.912 170.902 231.709 171.821 231.303 172.587C230.907 173.353 230.343 173.934 229.613 174.331C228.883 174.728 228.04 174.926 227.085 174.926C226.58 174.926 226.098 174.872 225.638 174.764C225.179 174.647 224.787 174.484 224.462 174.277L225.273 172.668C225.733 172.984 226.323 173.141 227.044 173.141C227.847 173.141 228.482 172.907 228.951 172.438C229.419 171.961 229.672 171.276 229.708 170.383C229.14 170.951 228.356 171.235 227.355 171.235C226.752 171.235 226.202 171.113 225.706 170.87C225.21 170.627 224.818 170.284 224.53 169.842C224.241 169.392 224.097 168.874 224.097 168.288C224.097 167.657 224.255 167.102 224.57 166.625C224.886 166.147 225.314 165.782 225.855 165.53C226.405 165.268 227.013 165.138 227.68 165.138ZM227.842 169.599C228.32 169.599 228.707 169.468 229.005 169.207C229.311 168.937 229.464 168.594 229.464 168.18C229.464 167.765 229.316 167.427 229.018 167.166C228.73 166.904 228.329 166.773 227.815 166.773C227.346 166.773 226.963 166.9 226.666 167.152C226.377 167.404 226.233 167.747 226.233 168.18C226.233 168.612 226.377 168.959 226.666 169.221C226.963 169.473 227.355 169.599 227.842 169.599ZM236.288 165.138C237.613 165.138 238.65 165.543 239.398 166.354C240.146 167.157 240.52 168.315 240.52 169.829C240.52 170.902 240.317 171.821 239.911 172.587C239.515 173.353 238.952 173.934 238.221 174.331C237.491 174.728 236.649 174.926 235.693 174.926C235.189 174.926 234.706 174.872 234.247 174.764C233.787 174.647 233.395 174.484 233.07 174.277L233.882 172.668C234.341 172.984 234.932 173.141 235.653 173.141C236.455 173.141 237.09 172.907 237.559 172.438C238.028 171.961 238.28 171.276 238.316 170.383C237.748 170.951 236.964 171.235 235.964 171.235C235.36 171.235 234.81 171.113 234.314 170.87C233.819 170.627 233.426 170.284 233.138 169.842C232.85 169.392 232.705 168.874 232.705 168.288C232.705 167.657 232.863 167.102 233.179 166.625C233.494 166.147 233.922 165.782 234.463 165.53C235.013 165.268 235.621 165.138 236.288 165.138ZM236.45 169.599C236.928 169.599 237.316 169.468 237.613 169.207C237.92 168.937 238.073 168.594 238.073 168.18C238.073 167.765 237.924 167.427 237.627 167.166C237.338 166.904 236.937 166.773 236.423 166.773C235.955 166.773 235.572 166.9 235.274 167.152C234.986 167.404 234.842 167.747 234.842 168.18C234.842 168.612 234.986 168.959 235.274 169.221C235.572 169.473 235.964 169.599 236.45 169.599ZM244.795 163.38H246.674L242.212 176.116H240.333L244.795 163.38ZM245.813 170.113H249.639V171.803H245.813V170.113Z" fill="white"/>
</g>
<path d="M27.3433 57.56C25.7906 57.56 24.383 57.2263 23.1205 56.5587C21.8725 55.8767 20.8857 54.9407 20.1601 53.7508C19.4491 52.5463 19.0936 51.1895 19.0936 49.6803C19.0936 48.1711 19.4491 46.8215 20.1601 45.6316C20.8857 44.4271 21.8725 43.4912 23.1205 42.8236C24.383 42.1416 25.7979 41.8006 27.3651 41.8006C28.6856 41.8006 29.8756 42.0328 30.9349 42.4971C32.0088 42.9615 32.9085 43.629 33.6341 44.4997L31.3703 46.5894C30.3399 45.3994 29.0629 44.8044 27.5392 44.8044C26.596 44.8044 25.7543 45.0149 25.0142 45.4357C24.2741 45.842 23.6937 46.4152 23.2729 47.1553C22.8665 47.8954 22.6634 48.7371 22.6634 49.6803C22.6634 50.6235 22.8665 51.4652 23.2729 52.2053C23.6937 52.9454 24.2741 53.5258 25.0142 53.9467C25.7543 54.353 26.596 54.5562 27.5392 54.5562C29.0629 54.5562 30.3399 53.9539 31.3703 52.7495L33.6341 54.8391C32.9085 55.7243 32.0088 56.3991 30.9349 56.8635C29.8611 57.3279 28.6639 57.56 27.3433 57.56ZM40.9444 57.473C39.711 57.473 38.6008 57.219 37.614 56.7111C36.6418 56.1887 35.8799 55.4704 35.3285 54.5562C34.7771 53.6419 34.5013 52.6044 34.5013 51.4434C34.5013 50.2825 34.7771 49.245 35.3285 48.3307C35.8799 47.4165 36.6418 46.7054 37.614 46.1975C38.6008 45.6751 39.711 45.4139 40.9444 45.4139C42.1779 45.4139 43.2808 45.6751 44.2531 46.1975C45.2253 46.7054 45.9872 47.4165 46.5386 48.3307C47.09 49.245 47.3658 50.2825 47.3658 51.4434C47.3658 52.6044 47.09 53.6419 46.5386 54.5562C45.9872 55.4704 45.2253 56.1887 44.2531 56.7111C43.2808 57.219 42.1779 57.473 40.9444 57.473ZM40.9444 54.6868C41.8151 54.6868 42.5262 54.3965 43.0776 53.8161C43.6436 53.2211 43.9265 52.4302 43.9265 51.4434C43.9265 50.4567 43.6436 49.673 43.0776 49.0926C42.5262 48.4976 41.8151 48.2001 40.9444 48.2001C40.0737 48.2001 39.3554 48.4976 38.7895 49.0926C38.2235 49.673 37.9406 50.4567 37.9406 51.4434C37.9406 52.4302 38.2235 53.2211 38.7895 53.8161C39.3554 54.3965 40.0737 54.6868 40.9444 54.6868ZM64.6331 45.4139C66.0988 45.4139 67.2597 45.8493 68.1159 46.72C68.9866 47.5761 69.4219 48.8677 69.4219 50.5945V57.2988H66.0262V51.1169C66.0262 50.1882 65.8303 49.4989 65.4385 49.0491C65.0612 48.5847 64.517 48.3525 63.806 48.3525C63.0078 48.3525 62.3766 48.6137 61.9122 49.1361C61.4478 49.644 61.2157 50.4059 61.2157 51.4217V57.2988H57.82V51.1169C57.82 49.274 57.0799 48.3525 55.5997 48.3525C54.8161 48.3525 54.1921 48.6137 53.7277 49.1361C53.2634 49.644 53.0312 50.4059 53.0312 51.4217V57.2988H49.6355V45.5881H52.8788V46.9376C53.3142 46.4442 53.8438 46.0669 54.4678 45.8057C55.1063 45.5445 55.8029 45.4139 56.5575 45.4139C57.3846 45.4139 58.132 45.5808 58.7995 45.9146C59.467 46.2338 60.004 46.7054 60.4103 47.3294C60.8892 46.72 61.4914 46.2483 62.217 45.9146C62.957 45.5808 63.7624 45.4139 64.6331 45.4139ZM79.3875 45.4139C80.4759 45.4139 81.4627 45.6679 82.3479 46.1758C83.2476 46.6692 83.9514 47.373 84.4593 48.2872C84.9672 49.1869 85.2212 50.239 85.2212 51.4434C85.2212 52.6479 84.9672 53.7072 84.4593 54.6215C83.9514 55.5212 83.2476 56.225 82.3479 56.7329C81.4627 57.2263 80.4759 57.473 79.3875 57.473C77.8929 57.473 76.7174 57.0013 75.8613 56.0581V61.5217H72.4656V45.5881H75.7089V46.9376C76.5506 45.9218 77.7768 45.4139 79.3875 45.4139ZM78.7998 54.6868C79.6705 54.6868 80.3816 54.3965 80.933 53.8161C81.499 53.2211 81.7819 52.4302 81.7819 51.4434C81.7819 50.4567 81.499 49.673 80.933 49.0926C80.3816 48.4976 79.6705 48.2001 78.7998 48.2001C77.9291 48.2001 77.2108 48.4976 76.6449 49.0926C76.0934 49.673 75.8177 50.4567 75.8177 51.4434C75.8177 52.4302 76.0934 53.2211 76.6449 53.8161C77.2108 54.3965 77.9291 54.6868 78.7998 54.6868ZM91.6954 57.473C90.3748 57.473 89.3445 57.1247 88.6044 56.4281C87.8643 55.7171 87.4943 54.7158 87.4943 53.4243V41.1476H90.89V53.2284C90.89 53.7217 91.0133 54.1063 91.26 54.382C91.5212 54.6432 91.884 54.7738 92.3484 54.7738C92.5225 54.7738 92.6967 54.7521 92.8708 54.7085C93.0595 54.665 93.2046 54.6142 93.3061 54.5562L93.4585 57.19C92.8926 57.3786 92.3049 57.473 91.6954 57.473ZM100.812 54.7521C101.421 54.7521 101.958 54.665 102.423 54.4909C102.902 54.3022 103.344 54.012 103.751 53.6202L105.557 55.5792C104.454 56.8417 102.844 57.473 100.725 57.473C99.4043 57.473 98.2361 57.219 97.2203 56.7111C96.2045 56.1887 95.4209 55.4704 94.8695 54.5562C94.318 53.6419 94.0423 52.6044 94.0423 51.4434C94.0423 50.297 94.3108 49.2667 94.8477 48.3525C95.3991 47.4238 96.1465 46.7054 97.0897 46.1975C98.0475 45.6751 99.1213 45.4139 100.311 45.4139C101.429 45.4139 102.444 45.6534 103.359 46.1322C104.273 46.5966 104.998 47.2787 105.535 48.1784C106.087 49.0636 106.363 50.1156 106.363 51.3346L97.6992 53.0107C97.9459 53.5911 98.3305 54.0265 98.8529 54.3167C99.3898 54.6069 100.043 54.7521 100.812 54.7521ZM100.311 47.9825C99.4551 47.9825 98.7586 48.2582 98.2216 48.8096C97.6847 49.361 97.4017 50.1229 97.3727 51.0952L103.076 49.985C102.916 49.3756 102.59 48.8894 102.096 48.5266C101.603 48.1639 101.008 47.9825 100.311 47.9825ZM115.698 56.7329C115.364 56.9796 114.95 57.1682 114.457 57.2988C113.978 57.4149 113.477 57.473 112.955 57.473C111.547 57.473 110.466 57.1174 109.712 56.4064C108.957 55.6953 108.58 54.6505 108.58 53.2719V42.9978H111.975V45.8493H114.87V48.4613H111.975V53.2284C111.975 53.7217 112.099 54.1063 112.345 54.382C112.592 54.6432 112.948 54.7738 113.412 54.7738C113.935 54.7738 114.399 54.6287 114.805 54.3385L115.698 56.7329ZM123.153 54.7521C123.763 54.7521 124.299 54.665 124.764 54.4909C125.243 54.3022 125.685 54.012 126.092 53.6202L127.898 55.5792C126.795 56.8417 125.185 57.473 123.066 57.473C121.745 57.473 120.577 57.219 119.561 56.7111C118.546 56.1887 117.762 55.4704 117.211 54.5562C116.659 53.6419 116.383 52.6044 116.383 51.4434C116.383 50.297 116.652 49.2667 117.189 48.3525C117.74 47.4238 118.488 46.7054 119.431 46.1975C120.389 45.6751 121.462 45.4139 122.652 45.4139C123.77 45.4139 124.786 45.6534 125.7 46.1322C126.614 46.5966 127.34 47.2787 127.877 48.1784C128.428 49.0636 128.704 50.1156 128.704 51.3346L120.04 53.0107C120.287 53.5911 120.672 54.0265 121.194 54.3167C121.731 54.6069 122.384 54.7521 123.153 54.7521ZM122.652 47.9825C121.796 47.9825 121.1 48.2582 120.563 48.8096C120.026 49.361 119.743 50.1229 119.714 51.0952L125.417 49.985C125.257 49.3756 124.931 48.8894 124.437 48.5266C123.944 48.1639 123.349 47.9825 122.652 47.9825ZM20.0513 72.0618H26.9733C28.6276 72.0618 30.086 72.381 31.3485 73.0195C32.6255 73.6435 33.6123 74.5287 34.3088 75.6751C35.0199 76.8215 35.3754 78.1566 35.3754 79.6803C35.3754 81.204 35.0199 82.5391 34.3088 83.6855C33.6123 84.8319 32.6255 85.7243 31.3485 86.3628C30.086 86.9868 28.6276 87.2988 26.9733 87.2988H20.0513V72.0618ZM26.7991 84.4038C28.3229 84.4038 29.5346 83.983 30.4343 83.1413C31.3485 82.2851 31.8056 81.1315 31.8056 79.6803C31.8056 78.2292 31.3485 77.0827 30.4343 76.2411C29.5346 75.3849 28.3229 74.9568 26.7991 74.9568H23.5776V84.4038H26.7991ZM43.6942 84.7521C44.3037 84.7521 44.8407 84.665 45.305 84.4909C45.7839 84.3022 46.2265 84.012 46.6328 83.6202L48.4395 85.5792C47.3366 86.8417 45.7259 87.473 43.6072 87.473C42.2866 87.473 41.1185 87.219 40.1027 86.7111C39.0869 86.1887 38.3032 85.4704 37.7518 84.5562C37.2004 83.6419 36.9246 82.6044 36.9246 81.4434C36.9246 80.297 37.1931 79.2667 37.73 78.3525C38.2815 77.4238 39.0288 76.7054 39.9721 76.1975C40.9298 75.6751 42.0037 75.4139 43.1936 75.4139C44.311 75.4139 45.3268 75.6534 46.241 76.1322C47.1552 76.5966 47.8808 77.2787 48.4177 78.1784C48.9692 79.0636 49.2449 80.1156 49.2449 81.3346L40.5815 83.0107C40.8282 83.5911 41.2128 84.0265 41.7352 84.3167C42.2721 84.6069 42.9251 84.7521 43.6942 84.7521ZM43.1936 77.9825C42.3374 77.9825 41.6409 78.2582 41.1039 78.8096C40.567 79.361 40.284 80.1229 40.255 81.0952L45.958 79.985C45.7984 79.3756 45.4719 78.8894 44.9785 78.5266C44.4851 78.1639 43.8902 77.9825 43.1936 77.9825ZM58.6453 75.4139C60.0964 75.4139 61.2646 75.8493 62.1498 76.72C63.0495 77.5906 63.4994 78.8822 63.4994 80.5945V87.2988H60.1037V81.1169C60.1037 80.1882 59.9005 79.4989 59.4942 79.0491C59.0879 78.5847 58.5001 78.3525 57.731 78.3525C56.8749 78.3525 56.1928 78.621 55.6849 79.1579C55.177 79.6803 54.9231 80.4639 54.9231 81.5087V87.2988H51.5274V75.5881H54.7707V76.9594C55.2206 76.466 55.7792 76.0887 56.4468 75.8275C57.1143 75.5518 57.8471 75.4139 58.6453 75.4139ZM73.6299 86.7329C73.2962 86.9796 72.8826 87.1682 72.3892 87.2988C71.9103 87.4149 71.4097 87.473 70.8873 87.473C69.4797 87.473 68.3986 87.1174 67.644 86.4064C66.8894 85.6953 66.5121 84.6505 66.5121 83.2719V72.9978H69.9078V75.8493H72.8028V78.4613H69.9078V83.2284C69.9078 83.7217 70.0311 84.1063 70.2778 84.382C70.5245 84.6432 70.88 84.7738 71.3444 84.7738C71.8668 84.7738 72.3312 84.6287 72.7375 84.3385L73.6299 86.7329ZM87.0714 75.5881V87.2988H83.8281V85.9493C82.9864 86.9651 81.7674 87.473 80.1712 87.473C79.0683 87.473 78.067 87.2263 77.1673 86.7329C76.2821 86.2395 75.5855 85.5357 75.0776 84.6215C74.5697 83.7072 74.3158 82.6479 74.3158 81.4434C74.3158 80.239 74.5697 79.1797 75.0776 78.2654C75.5855 77.3512 76.2821 76.6474 77.1673 76.154C78.067 75.6606 79.0683 75.4139 80.1712 75.4139C81.6659 75.4139 82.834 75.8856 83.6757 76.8288V75.5881H87.0714ZM80.7589 84.6868C81.6151 84.6868 82.3261 84.3965 82.8921 83.8161C83.458 83.2211 83.741 82.4302 83.741 81.4434C83.741 80.4567 83.458 79.673 82.8921 79.0926C82.3261 78.4976 81.6151 78.2001 80.7589 78.2001C79.8882 78.2001 79.1699 78.4976 78.6039 79.0926C78.038 79.673 77.755 80.4567 77.755 81.4434C77.755 82.4302 78.038 83.2211 78.6039 83.8161C79.1699 84.3965 79.8882 84.6868 80.7589 84.6868ZM94.4163 87.473C93.0957 87.473 92.0654 87.1247 91.3253 86.4281C90.5852 85.7171 90.2152 84.7158 90.2152 83.4243V71.1476H93.6109V83.2284C93.6109 83.7217 93.7342 84.1063 93.9809 84.382C94.2421 84.6432 94.6049 84.7738 95.0693 84.7738C95.2434 84.7738 95.4176 84.7521 95.5917 84.7085C95.7804 84.665 95.9255 84.6142 96.0271 84.5562L96.1794 87.19C95.6135 87.3786 95.0258 87.473 94.4163 87.473ZM27.3433 117.56C25.7906 117.56 24.383 117.226 23.1205 116.559C21.8725 115.877 20.8857 114.941 20.1601 113.751C19.4491 112.546 19.0936 111.189 19.0936 109.68C19.0936 108.171 19.4491 106.822 20.1601 105.632C20.8857 104.427 21.8725 103.491 23.1205 102.824C24.383 102.142 25.7979 101.801 27.3651 101.801C28.6856 101.801 29.8756 102.033 30.9349 102.497C32.0088 102.961 32.9085 103.629 33.6341 104.5L31.3703 106.589C30.3399 105.399 29.0629 104.804 27.5392 104.804C26.596 104.804 25.7543 105.015 25.0142 105.436C24.2741 105.842 23.6937 106.415 23.2729 107.155C22.8665 107.895 22.6634 108.737 22.6634 109.68C22.6634 110.624 22.8665 111.465 23.2729 112.205C23.6937 112.945 24.2741 113.526 25.0142 113.947C25.7543 114.353 26.596 114.556 27.5392 114.556C29.0629 114.556 30.3399 113.954 31.3703 112.749L33.6341 114.839C32.9085 115.724 32.0088 116.399 30.9349 116.863C29.8611 117.328 28.6639 117.56 27.3433 117.56ZM42.8938 105.414C44.3449 105.414 45.5131 105.849 46.3983 106.72C47.298 107.591 47.7479 108.882 47.7479 110.595V117.299H44.3522V111.117C44.3522 110.188 44.149 109.499 43.7427 109.049C43.3364 108.585 42.7487 108.353 41.9796 108.353C41.1234 108.353 40.4414 108.621 39.9334 109.158C39.4255 109.68 39.1716 110.464 39.1716 111.509V117.299H35.7759V101.148H39.1716V106.807C39.6215 106.357 40.1656 106.016 40.8041 105.784C41.4426 105.537 42.1392 105.414 42.8938 105.414ZM56.8524 114.752C57.4618 114.752 57.9988 114.665 58.4631 114.491C58.942 114.302 59.3846 114.012 59.7909 113.62L61.5976 115.579C60.4947 116.842 58.884 117.473 56.7653 117.473C55.4447 117.473 54.2766 117.219 53.2608 116.711C52.245 116.189 51.4613 115.47 50.9099 114.556C50.3585 113.642 50.0828 112.604 50.0828 111.443C50.0828 110.297 50.3512 109.267 50.8881 108.353C51.4396 107.424 52.1869 106.705 53.1302 106.198C54.0879 105.675 55.1618 105.414 56.3517 105.414C57.4691 105.414 58.4849 105.653 59.3991 106.132C60.3133 106.597 61.0389 107.279 61.5758 108.178C62.1273 109.064 62.403 110.116 62.403 111.335L53.7396 113.011C53.9863 113.591 54.3709 114.026 54.8933 114.317C55.4302 114.607 56.0832 114.752 56.8524 114.752ZM56.3517 107.982C55.4955 107.982 54.799 108.258 54.2621 108.81C53.7251 109.361 53.4422 110.123 53.4131 111.095L59.1161 109.985C58.9565 109.376 58.63 108.889 58.1366 108.527C57.6432 108.164 57.0483 107.982 56.3517 107.982ZM70.345 117.473C69.097 117.473 67.9723 117.219 66.9711 116.711C65.9843 116.189 65.2079 115.47 64.642 114.556C64.0905 113.642 63.8148 112.604 63.8148 111.443C63.8148 110.283 64.0905 109.245 64.642 108.331C65.2079 107.417 65.9843 106.705 66.9711 106.198C67.9723 105.675 69.097 105.414 70.345 105.414C71.5784 105.414 72.6523 105.675 73.5665 106.198C74.4953 106.705 75.17 107.438 75.5909 108.396L72.957 109.811C72.3476 108.737 71.4696 108.2 70.3232 108.2C69.438 108.2 68.7052 108.49 68.1247 109.071C67.5443 109.651 67.254 110.442 67.254 111.443C67.254 112.445 67.5443 113.236 68.1247 113.816C68.7052 114.397 69.438 114.687 70.3232 114.687C71.4841 114.687 72.3621 114.15 72.957 113.076L75.5909 114.513C75.17 115.441 74.4953 116.167 73.5665 116.689C72.6523 117.212 71.5784 117.473 70.345 117.473ZM82.4892 112.706L80.8567 114.317V117.299H77.461V101.148H80.8567V110.29L85.8196 105.588H89.8683L84.9924 110.551L90.3036 117.299H86.1896L82.4892 112.706ZM103.416 105.588V117.299H100.194V115.906C99.7446 116.414 99.2077 116.805 98.5837 117.081C97.9597 117.342 97.2849 117.473 96.5593 117.473C95.0211 117.473 93.8022 117.03 92.9024 116.145C92.0027 115.26 91.5529 113.947 91.5529 112.205V105.588H94.9486V111.705C94.9486 113.591 95.7394 114.534 97.3212 114.534C98.1338 114.534 98.7868 114.273 99.2802 113.751C99.7736 113.214 100.02 112.423 100.02 111.378V105.588H103.416ZM113.484 105.414C114.572 105.414 115.559 105.668 116.444 106.176C117.344 106.669 118.048 107.373 118.556 108.287C119.064 109.187 119.317 110.239 119.317 111.443C119.317 112.648 119.064 113.707 118.556 114.621C118.048 115.521 117.344 116.225 116.444 116.733C115.559 117.226 114.572 117.473 113.484 117.473C111.989 117.473 110.814 117.001 109.958 116.058V121.522H106.562V105.588H109.805V106.938C110.647 105.922 111.873 105.414 113.484 105.414ZM112.896 114.687C113.767 114.687 114.478 114.397 115.029 113.816C115.595 113.221 115.878 112.43 115.878 111.443C115.878 110.457 115.595 109.673 115.029 109.093C114.478 108.498 113.767 108.2 112.896 108.2C112.025 108.2 111.307 108.498 110.741 109.093C110.19 109.673 109.914 110.457 109.914 111.443C109.914 112.43 110.19 113.221 110.741 113.816C111.307 114.397 112.025 114.687 112.896 114.687Z" fill="white"/>
<path d="M23.8197 175.715L21.5852 180.877H20.4053L18.1783 175.715H19.4688L21.0395 179.402L22.6324 175.715H23.8197ZM27.9007 176.91V180.877H26.8019V180.42C26.5168 180.764 26.1038 180.936 25.563 180.936C25.1894 180.936 24.8502 180.852 24.5454 180.685C24.2455 180.518 24.0095 180.28 23.8374 179.97C23.6654 179.66 23.5793 179.301 23.5793 178.893C23.5793 178.485 23.6654 178.126 23.8374 177.817C24.0095 177.507 24.2455 177.268 24.5454 177.101C24.8502 176.934 25.1894 176.851 25.563 176.851C26.0694 176.851 26.4652 177.01 26.7503 177.33V176.91H27.9007ZM25.7622 179.992C26.0522 179.992 26.2931 179.894 26.4848 179.697C26.6766 179.495 26.7724 179.228 26.7724 178.893C26.7724 178.559 26.6766 178.293 26.4848 178.097C26.2931 177.895 26.0522 177.794 25.7622 177.794C25.4672 177.794 25.2238 177.895 25.0321 178.097C24.8404 178.293 24.7445 178.559 24.7445 178.893C24.7445 179.228 24.8404 179.495 25.0321 179.697C25.2238 179.894 25.4672 179.992 25.7622 179.992ZM30.3891 180.936C29.9417 180.936 29.5926 180.818 29.3419 180.582C29.0912 180.341 28.9658 180.002 28.9658 179.564V175.405H30.1162V179.498C30.1162 179.665 30.158 179.795 30.2416 179.889C30.3301 179.977 30.453 180.022 30.6103 180.022C30.6693 180.022 30.7283 180.014 30.7873 179.999C30.8512 179.985 30.9004 179.967 30.9348 179.948L30.9864 180.84C30.7947 180.904 30.5956 180.936 30.3891 180.936ZM31.5512 176.91H32.7016V180.877H31.5512V176.91ZM32.1264 176.356C31.915 176.356 31.7429 176.295 31.6102 176.172C31.4774 176.049 31.4111 175.897 31.4111 175.715C31.4111 175.533 31.4774 175.381 31.6102 175.258C31.7429 175.135 31.915 175.073 32.1264 175.073C32.3378 175.073 32.5099 175.132 32.6426 175.25C32.7753 175.368 32.8417 175.516 32.8417 175.693C32.8417 175.884 32.7753 176.044 32.6426 176.172C32.5099 176.295 32.3378 176.356 32.1264 176.356ZM37.8104 175.405V180.877H36.7117V180.42C36.4265 180.764 36.0135 180.936 35.4728 180.936C35.0991 180.936 34.7599 180.852 34.4551 180.685C34.1552 180.518 33.9192 180.28 33.7471 179.97C33.5751 179.66 33.489 179.301 33.489 178.893C33.489 178.485 33.5751 178.126 33.7471 177.817C33.9192 177.507 34.1552 177.268 34.4551 177.101C34.7599 176.934 35.0991 176.851 35.4728 176.851C35.9791 176.851 36.3749 177.01 36.66 177.33V175.405H37.8104ZM35.6719 179.992C35.9619 179.992 36.2028 179.894 36.3946 179.697C36.5863 179.495 36.6822 179.228 36.6822 178.893C36.6822 178.559 36.5863 178.293 36.3946 178.097C36.2028 177.895 35.9619 177.794 35.6719 177.794C35.3769 177.794 35.1335 177.895 34.9418 178.097C34.7501 178.293 34.6542 178.559 34.6542 178.893C34.6542 179.228 34.7501 179.495 34.9418 179.697C35.1335 179.894 35.3769 179.992 35.6719 179.992ZM44.8057 177.16C44.3632 176.905 43.8888 176.74 43.3824 176.666V180.877H42.1878V176.666C41.6814 176.74 41.2045 176.905 40.7572 177.16L40.3516 176.268C40.7055 176.057 41.089 175.897 41.502 175.789C41.9149 175.68 42.3402 175.626 42.7777 175.626C43.2202 175.626 43.6479 175.68 44.0609 175.789C44.4788 175.897 44.8622 176.057 45.2113 176.268L44.8057 177.16ZM45.5943 176.91H46.7447V180.877H45.5943V176.91ZM46.1695 176.356C45.9581 176.356 45.786 176.295 45.6533 176.172C45.5205 176.049 45.4541 175.897 45.4541 175.715C45.4541 175.533 45.5205 175.381 45.6533 175.258C45.786 175.135 45.9581 175.073 46.1695 175.073C46.3809 175.073 46.5529 175.132 46.6857 175.25C46.8184 175.368 46.8848 175.516 46.8848 175.693C46.8848 175.884 46.8184 176.044 46.6857 176.172C46.5529 176.295 46.3809 176.356 46.1695 176.356ZM49.2356 180.936C48.7882 180.936 48.4392 180.818 48.1884 180.582C47.9377 180.341 47.8123 180.002 47.8123 179.564V175.405H48.9627V179.498C48.9627 179.665 49.0045 179.795 49.0881 179.889C49.1766 179.977 49.2995 180.022 49.4568 180.022C49.5158 180.022 49.5748 180.014 49.6338 179.999C49.6977 179.985 49.7469 179.967 49.7813 179.948L49.8329 180.84C49.6412 180.904 49.4421 180.936 49.2356 180.936ZM51.821 180.936C51.3736 180.936 51.0245 180.818 50.7738 180.582C50.5231 180.341 50.3977 180.002 50.3977 179.564V175.405H51.5481V179.498C51.5481 179.665 51.5899 179.795 51.6735 179.889C51.762 179.977 51.8849 180.022 52.0422 180.022C52.1012 180.022 52.1602 180.014 52.2192 179.999C52.2831 179.985 52.3323 179.967 52.3667 179.948L52.4183 180.84C52.2266 180.904 52.0275 180.936 51.821 180.936ZM55.1526 175.715H57.4977C58.0582 175.715 58.5523 175.823 58.98 176.039C59.4126 176.251 59.7469 176.551 59.9829 176.939C60.2238 177.327 60.3442 177.78 60.3442 178.296C60.3442 178.812 60.2238 179.264 59.9829 179.653C59.7469 180.041 59.4126 180.344 58.98 180.56C58.5523 180.771 58.0582 180.877 57.4977 180.877H55.1526V175.715ZM57.4387 179.896C57.9549 179.896 58.3654 179.754 58.6702 179.468C58.98 179.178 59.1348 178.788 59.1348 178.296C59.1348 177.804 58.98 177.416 58.6702 177.131C58.3654 176.841 57.9549 176.696 57.4387 176.696H56.3473V179.896H57.4387ZM63.1625 180.014C63.369 180.014 63.5509 179.985 63.7082 179.926C63.8705 179.862 64.0204 179.763 64.1581 179.631L64.7701 180.294C64.3965 180.722 63.8508 180.936 63.133 180.936C62.6856 180.936 62.2899 180.85 61.9457 180.678C61.6016 180.501 61.3361 180.258 61.1493 179.948C60.9625 179.638 60.8691 179.287 60.8691 178.893C60.8691 178.505 60.96 178.156 61.1419 177.846C61.3288 177.531 61.5819 177.288 61.9015 177.116C62.226 176.939 62.5898 176.851 62.9929 176.851C63.3715 176.851 63.7156 176.932 64.0253 177.094C64.3351 177.251 64.5809 177.482 64.7628 177.787C64.9496 178.087 65.043 178.443 65.043 178.856L62.108 179.424C62.1916 179.621 62.3218 179.768 62.4988 179.867C62.6807 179.965 62.902 180.014 63.1625 180.014ZM62.9929 177.721C62.7029 177.721 62.4669 177.814 62.285 178.001C62.1031 178.188 62.0072 178.446 61.9974 178.775L63.9295 178.399C63.8754 178.193 63.7648 178.028 63.5976 177.905C63.4305 177.782 63.2289 177.721 62.9929 177.721ZM67.7336 180.936C67.3108 180.936 66.9298 180.85 66.5906 180.678C66.2563 180.501 65.9933 180.258 65.8015 179.948C65.6147 179.638 65.5213 179.287 65.5213 178.893C65.5213 178.5 65.6147 178.148 65.8015 177.839C65.9933 177.529 66.2563 177.288 66.5906 177.116C66.9298 176.939 67.3108 176.851 67.7336 176.851C68.1515 176.851 68.5153 176.939 68.825 177.116C69.1397 177.288 69.3683 177.536 69.5109 177.861L68.6186 178.34C68.4121 177.976 68.1146 177.794 67.7263 177.794C67.4264 177.794 67.1781 177.893 66.9814 178.089C66.7848 178.286 66.6865 178.554 66.6865 178.893C66.6865 179.232 66.7848 179.5 66.9814 179.697C67.1781 179.894 67.4264 179.992 67.7263 179.992C68.1196 179.992 68.417 179.81 68.6186 179.446L69.5109 179.933C69.3683 180.248 69.1397 180.493 68.825 180.67C68.5153 180.847 68.1515 180.936 67.7336 180.936ZM74.4298 177.817C74.8821 177.89 75.2287 178.06 75.4696 178.325C75.7105 178.586 75.8309 178.91 75.8309 179.299C75.8309 179.599 75.7522 179.876 75.5949 180.132C75.4376 180.383 75.1967 180.584 74.8722 180.737C74.5527 180.889 74.1594 180.965 73.6923 180.965C73.3285 180.965 72.9696 180.919 72.6157 180.825C72.2666 180.727 71.9692 180.589 71.7234 180.412L72.1879 179.498C72.3846 179.645 72.6107 179.761 72.8664 179.845C73.127 179.923 73.3924 179.963 73.6628 179.963C73.9627 179.963 74.1987 179.906 74.3708 179.793C74.5428 179.675 74.6289 179.51 74.6289 179.299C74.6289 178.876 74.3069 178.665 73.6628 178.665H73.1171V177.876L74.179 176.674H71.9815V175.715H75.5949V176.489L74.4298 177.817ZM78.5948 180.965C78.1671 180.965 77.7861 180.86 77.4518 180.648C77.1175 180.437 76.8545 180.132 76.6627 179.734C76.4759 179.331 76.3825 178.851 76.3825 178.296C76.3825 177.74 76.4759 177.263 76.6627 176.865C76.8545 176.462 77.1175 176.155 77.4518 175.943C77.7861 175.732 78.1671 175.626 78.5948 175.626C79.0225 175.626 79.4035 175.732 79.7378 175.943C80.0722 176.155 80.3327 176.462 80.5195 176.865C80.7113 177.263 80.8071 177.74 80.8071 178.296C80.8071 178.851 80.7113 179.331 80.5195 179.734C80.3327 180.132 80.0722 180.437 79.7378 180.648C79.4035 180.86 79.0225 180.965 78.5948 180.965ZM78.5948 179.955C78.9095 179.955 79.1553 179.82 79.3323 179.55C79.5142 179.279 79.6051 178.861 79.6051 178.296C79.6051 177.731 79.5142 177.313 79.3323 177.042C79.1553 176.772 78.9095 176.637 78.5948 176.637C78.2851 176.637 78.0393 176.772 77.8574 177.042C77.6804 177.313 77.5919 177.731 77.5919 178.296C77.5919 178.861 77.6804 179.279 77.8574 179.55C78.0393 179.82 78.2851 179.955 78.5948 179.955Z" fill="white"/>
<path d="M22.5135 145.089C21.7969 145.089 21.1514 144.933 20.5768 144.622C20.0022 144.305 19.5493 143.869 19.2181 143.314C18.8936 142.76 18.7313 142.142 18.7313 141.459C18.7313 140.776 18.8936 140.158 19.2181 139.603C19.5493 139.049 20.0022 138.616 20.5768 138.305C21.1514 137.988 21.7969 137.829 22.5135 137.829C23.2233 137.829 23.8655 137.988 24.4401 138.305C25.0146 138.616 25.4642 139.049 25.7887 139.603C26.1131 140.151 26.2754 140.769 26.2754 141.459C26.2754 142.148 26.1131 142.77 25.7887 143.325C25.4642 143.872 25.0146 144.305 24.4401 144.622C23.8655 144.933 23.2233 145.089 22.5135 145.089ZM22.5135 144.186C23.034 144.186 23.5004 144.068 23.9128 143.832C24.3319 143.595 24.6598 143.271 24.8963 142.858C25.1397 142.439 25.2614 141.973 25.2614 141.459C25.2614 140.945 25.1397 140.482 24.8963 140.07C24.6598 139.651 24.3319 139.323 23.9128 139.086C23.5004 138.85 23.034 138.731 22.5135 138.731C21.993 138.731 21.5198 138.85 21.0939 139.086C20.6748 139.323 20.3436 139.651 20.1002 140.07C19.8636 140.482 19.7453 140.945 19.7453 141.459C19.7453 141.973 19.8636 142.439 20.1002 142.858C20.3436 143.271 20.6748 143.595 21.0939 143.832C21.5198 144.068 21.993 144.186 22.5135 144.186ZM32.6923 139.634V145.008H31.7696V144.197C31.5735 144.474 31.3133 144.69 30.9888 144.846C30.6711 144.994 30.3229 145.069 29.9444 145.069C29.2278 145.069 28.6634 144.873 28.251 144.481C27.8387 144.082 27.6325 143.497 27.6325 142.726V139.634H28.6059V142.615C28.6059 143.135 28.731 143.531 28.9811 143.801C29.2312 144.065 29.5895 144.197 30.0559 144.197C30.5697 144.197 30.9753 144.041 31.2727 143.73C31.5701 143.419 31.7189 142.98 31.7189 142.412V139.634H32.6923ZM35.4783 140.536C35.6473 140.225 35.8974 139.989 36.2286 139.826C36.5599 139.664 36.9621 139.583 37.4353 139.583V140.526C37.3812 140.519 37.3068 140.516 37.2122 140.516C36.6849 140.516 36.2692 140.675 35.965 140.992C35.6676 141.303 35.5188 141.75 35.5188 142.331V145.008H34.5454V139.634H35.4783V140.536ZM44.3375 137.91C45.2569 137.91 45.9802 138.13 46.5075 138.569C47.0347 139.008 47.2984 139.613 47.2984 140.384C47.2984 141.155 47.0347 141.76 46.5075 142.199C45.9802 142.638 45.2569 142.858 44.3375 142.858H42.5834V145.008H41.5694V137.91H44.3375ZM44.3071 141.976C44.9493 141.976 45.4394 141.841 45.7774 141.57C46.1154 141.293 46.2844 140.898 46.2844 140.384C46.2844 139.87 46.1154 139.478 45.7774 139.208C45.4394 138.931 44.9493 138.792 44.3071 138.792H42.5834V141.976H44.3071ZM49.4898 140.536C49.6588 140.225 49.909 139.989 50.2402 139.826C50.5714 139.664 50.9736 139.583 51.4468 139.583V140.526C51.3928 140.519 51.3184 140.516 51.2238 140.516C50.6965 140.516 50.2808 140.675 49.9766 140.992C49.6791 141.303 49.5304 141.75 49.5304 142.331V145.008H48.557V139.634H49.4898V140.536ZM52.6466 139.634H53.62V145.008H52.6466V139.634ZM53.1333 138.599C52.944 138.599 52.7852 138.539 52.6567 138.417C52.535 138.295 52.4742 138.147 52.4742 137.971C52.4742 137.795 52.535 137.646 52.6567 137.525C52.7852 137.396 52.944 137.332 53.1333 137.332C53.3226 137.332 53.478 137.393 53.5997 137.514C53.7282 137.629 53.7924 137.775 53.7924 137.95C53.7924 138.133 53.7282 138.288 53.5997 138.417C53.478 138.539 53.3226 138.599 53.1333 138.599ZM57.7803 145.069C57.2463 145.069 56.7664 144.95 56.3405 144.714C55.9146 144.477 55.58 144.153 55.3366 143.74C55.1 143.321 54.9817 142.848 54.9817 142.321C54.9817 141.793 55.1 141.324 55.3366 140.911C55.58 140.492 55.9146 140.168 56.3405 139.938C56.7664 139.701 57.2463 139.583 57.7803 139.583C58.3144 139.583 58.7909 139.701 59.21 139.938C59.6359 140.168 59.9672 140.492 60.2037 140.911C60.4471 141.324 60.5688 141.793 60.5688 142.321C60.5688 142.848 60.4471 143.321 60.2037 143.74C59.9672 144.153 59.6359 144.477 59.21 144.714C58.7909 144.95 58.3144 145.069 57.7803 145.069ZM57.7803 144.217C58.1251 144.217 58.4327 144.139 58.7031 143.984C58.9802 143.821 59.1965 143.598 59.352 143.314C59.5075 143.024 59.5852 142.693 59.5852 142.321C59.5852 141.949 59.5075 141.621 59.352 141.337C59.1965 141.047 58.9802 140.823 58.7031 140.668C58.4327 140.512 58.1251 140.435 57.7803 140.435C57.4356 140.435 57.1246 140.512 56.8475 140.668C56.5771 140.823 56.3608 141.047 56.1985 141.337C56.043 141.621 55.9653 141.949 55.9653 142.321C55.9653 142.693 56.043 143.024 56.1985 143.314C56.3608 143.598 56.5771 143.821 56.8475 143.984C57.1246 144.139 57.4356 144.217 57.7803 144.217ZM62.8479 140.536C63.0169 140.225 63.267 139.989 63.5982 139.826C63.9294 139.664 64.3317 139.583 64.8049 139.583V140.526C64.7508 140.519 64.6764 140.516 64.5818 140.516C64.0545 140.516 63.6388 140.675 63.3346 140.992C63.0371 141.303 62.8884 141.75 62.8884 142.331V145.008H61.915V139.634H62.8479V140.536ZM66.0046 139.634H66.978V145.008H66.0046V139.634ZM66.4913 138.599C66.302 138.599 66.1432 138.539 66.0147 138.417C65.8931 138.295 65.8322 138.147 65.8322 137.971C65.8322 137.795 65.8931 137.646 66.0147 137.525C66.1432 137.396 66.302 137.332 66.4913 137.332C66.6806 137.332 66.8361 137.393 66.9577 137.514C67.0862 137.629 67.1504 137.775 67.1504 137.95C67.1504 138.133 67.0862 138.288 66.9577 138.417C66.8361 138.539 66.6806 138.599 66.4913 138.599ZM71.6656 144.693C71.5237 144.815 71.3479 144.91 71.1384 144.977C70.9288 145.038 70.7125 145.069 70.4894 145.069C69.9486 145.069 69.5295 144.923 69.2321 144.633C68.9346 144.342 68.7859 143.926 68.7859 143.385V138.457H69.7593V139.634H71.3006V140.435H69.7593V143.345C69.7593 143.636 69.8303 143.859 69.9723 144.014C70.121 144.17 70.3306 144.247 70.6009 144.247C70.8984 144.247 71.1519 144.163 71.3614 143.994L71.6656 144.693ZM77.8462 139.634V144.278C77.8462 145.217 77.6265 145.91 77.1871 146.356C76.7477 146.809 76.0886 147.036 75.2098 147.036C74.7299 147.036 74.2702 146.965 73.8308 146.823C73.3982 146.688 73.0433 146.492 72.7661 146.235L73.2427 145.484C73.4793 145.701 73.7632 145.87 74.0944 145.991C74.4324 146.113 74.7873 146.174 75.1591 146.174C75.7472 146.174 76.1799 146.025 76.457 145.728C76.7342 145.437 76.8727 144.988 76.8727 144.379V143.984C76.6767 144.241 76.4232 144.44 76.1123 144.582C75.8013 144.717 75.4633 144.785 75.0983 144.785C74.3817 144.785 73.8173 144.589 73.4049 144.197C72.9926 143.805 72.7864 143.223 72.7864 142.453V139.634H73.7598V142.341C73.7598 142.855 73.8849 143.247 74.135 143.517C74.3851 143.781 74.7434 143.913 75.2098 143.913C75.7236 143.913 76.1292 143.757 76.4266 143.446C76.724 143.135 76.8727 142.696 76.8727 142.128V139.634H77.8462ZM84.3185 138.792V144.126H85.6874V145.008H81.9357V144.126H83.3046V138.792H81.9357V137.91H85.6874V138.792H84.3185ZM88.588 145.069C88.1486 145.069 87.7261 145.011 87.3205 144.896C86.9149 144.775 86.5972 144.622 86.3673 144.44L86.7729 143.669C87.0095 143.838 87.2968 143.974 87.6348 144.075C87.9728 144.176 88.3142 144.227 88.6589 144.227C89.5107 144.227 89.9365 143.984 89.9365 143.497C89.9365 143.335 89.8791 143.206 89.7642 143.112C89.6493 143.017 89.5039 142.949 89.3282 142.909C89.1592 142.862 88.9158 142.811 88.5981 142.757C88.1655 142.689 87.8106 142.611 87.5334 142.524C87.263 142.436 87.0298 142.287 86.8338 142.077C86.6377 141.868 86.5397 141.574 86.5397 141.195C86.5397 140.709 86.7425 140.32 87.1481 140.029C87.5537 139.732 88.0979 139.583 88.7806 139.583C89.1389 139.583 89.4972 139.627 89.8554 139.715C90.2137 139.803 90.5078 139.921 90.7376 140.07L90.3219 140.84C89.8825 140.556 89.3653 140.414 88.7705 140.414C88.3581 140.414 88.0438 140.482 87.8275 140.617C87.6112 140.752 87.503 140.932 87.503 141.155C87.503 141.33 87.5638 141.469 87.6855 141.57C87.8072 141.672 87.9559 141.746 88.1317 141.793C88.3142 141.841 88.5677 141.895 88.8921 141.956C89.3248 142.03 89.6729 142.111 89.9365 142.199C90.2069 142.28 90.4368 142.422 90.6261 142.625C90.8153 142.828 90.91 143.112 90.91 143.477C90.91 143.963 90.7004 144.352 90.2813 144.643C89.869 144.927 89.3045 145.069 88.588 145.069ZM100.903 137.91V142.899C100.903 143.926 100.629 144.714 100.082 145.261C99.5342 145.809 98.7771 146.083 97.8104 146.083C97.2291 146.083 96.6984 145.991 96.2185 145.809C95.7453 145.633 95.3465 145.38 95.022 145.048L95.458 144.257C96.0799 144.866 96.8641 145.17 97.8104 145.17C99.203 145.17 99.8992 144.426 99.8992 142.939V142.219C99.426 142.909 98.6926 143.254 97.6989 143.254C96.8066 143.254 96.1137 142.997 95.6202 142.483C95.1268 141.969 94.88 141.236 94.88 140.283V137.91H95.894V140.242C95.894 140.932 96.063 141.455 96.401 141.814C96.739 142.172 97.2088 142.351 97.8104 142.351C98.4594 142.351 98.9698 142.162 99.3416 141.783C99.7133 141.405 99.8992 140.84 99.8992 140.09V137.91H100.903ZM105.132 145.069C104.598 145.069 104.119 144.95 103.693 144.714C103.267 144.477 102.932 144.153 102.689 143.74C102.452 143.321 102.334 142.848 102.334 142.321C102.334 141.793 102.452 141.324 102.689 140.911C102.932 140.492 103.267 140.168 103.693 139.938C104.119 139.701 104.598 139.583 105.132 139.583C105.667 139.583 106.143 139.701 106.562 139.938C106.988 140.168 107.319 140.492 107.556 140.911C107.799 141.324 107.921 141.793 107.921 142.321C107.921 142.848 107.799 143.321 107.556 143.74C107.319 144.153 106.988 144.477 106.562 144.714C106.143 144.95 105.667 145.069 105.132 145.069ZM105.132 144.217C105.477 144.217 105.785 144.139 106.055 143.984C106.332 143.821 106.549 143.598 106.704 143.314C106.86 143.024 106.937 142.693 106.937 142.321C106.937 141.949 106.86 141.621 106.704 141.337C106.549 141.047 106.332 140.823 106.055 140.668C105.785 140.512 105.477 140.435 105.132 140.435C104.788 140.435 104.477 140.512 104.2 140.668C103.929 140.823 103.713 141.047 103.551 141.337C103.395 141.621 103.317 141.949 103.317 142.321C103.317 142.693 103.395 143.024 103.551 143.314C103.713 143.598 103.929 143.821 104.2 143.984C104.477 144.139 104.788 144.217 105.132 144.217ZM114.276 139.634V145.008H113.354V144.197C113.157 144.474 112.897 144.69 112.573 144.846C112.255 144.994 111.907 145.069 111.528 145.069C110.812 145.069 110.247 144.873 109.835 144.481C109.423 144.082 109.216 143.497 109.216 142.726V139.634H110.19V142.615C110.19 143.135 110.315 143.531 110.565 143.801C110.815 144.065 111.173 144.197 111.64 144.197C112.154 144.197 112.559 144.041 112.857 143.73C113.154 143.419 113.303 142.98 113.303 142.412V139.634H114.276ZM117.062 140.536C117.231 140.225 117.481 139.989 117.813 139.826C118.144 139.664 118.546 139.583 119.019 139.583V140.526C118.965 140.519 118.891 140.516 118.796 140.516C118.269 140.516 117.853 140.675 117.549 140.992C117.252 141.303 117.103 141.75 117.103 142.331V145.008H116.129V139.634H117.062V140.536ZM19.3093 151.91H22.3006C23.0509 151.91 23.7168 152.059 24.2981 152.356C24.8795 152.654 25.329 153.073 25.6467 153.613C25.9712 154.147 26.1334 154.763 26.1334 155.459C26.1334 156.155 25.9712 156.774 25.6467 157.314C25.329 157.848 24.8795 158.264 24.2981 158.562C23.7168 158.859 23.0509 159.008 22.3006 159.008H19.3093V151.91ZM22.2397 158.126C22.8143 158.126 23.3179 158.014 23.7506 157.791C24.1899 157.568 24.5279 157.257 24.7645 156.858C25.0011 156.453 25.1194 155.986 25.1194 155.459C25.1194 154.932 25.0011 154.469 24.7645 154.07C24.5279 153.664 24.1899 153.35 23.7506 153.127C23.3179 152.904 22.8143 152.792 22.2397 152.792H20.3233V158.126H22.2397ZM29.968 158.217C30.6102 158.217 31.1273 158.001 31.5194 157.568L32.0467 158.197C31.8101 158.481 31.5093 158.697 31.1442 158.846C30.7859 158.994 30.3837 159.069 29.9376 159.069C29.3698 159.069 28.8661 158.954 28.4267 158.724C27.9874 158.487 27.646 158.159 27.4026 157.74C27.166 157.321 27.0477 156.848 27.0477 156.321C27.0477 155.8 27.1627 155.33 27.3925 154.911C27.6291 154.492 27.9502 154.168 28.3558 153.938C28.7681 153.701 29.2312 153.583 29.7449 153.583C30.2316 153.583 30.6744 153.695 31.0732 153.918C31.4721 154.134 31.7898 154.442 32.0264 154.84C32.263 155.239 32.3847 155.699 32.3914 156.219L28.1226 157.051C28.2578 157.423 28.4842 157.71 28.8019 157.913C29.1264 158.116 29.5151 158.217 29.968 158.217ZM29.7449 154.404C29.4069 154.404 29.1027 154.482 28.8323 154.638C28.5687 154.793 28.3625 155.013 28.2138 155.297C28.0651 155.574 27.9907 155.898 27.9907 156.27V156.371L31.4281 155.723C31.3403 155.33 31.1442 155.013 30.84 154.769C30.5358 154.526 30.1708 154.404 29.7449 154.404ZM36.6228 153.583C37.3056 153.583 37.8464 153.782 38.2452 154.181C38.6508 154.573 38.8536 155.151 38.8536 155.915V159.008H37.8801V156.027C37.8801 155.506 37.7551 155.114 37.505 154.85C37.2549 154.587 36.8966 154.455 36.4302 154.455C35.9029 154.455 35.4872 154.611 35.183 154.921C34.8788 155.226 34.7267 155.665 34.7267 156.24V159.008H33.7532V153.634H34.6861V154.445C34.8821 154.168 35.1458 153.955 35.477 153.806C35.815 153.657 36.1969 153.583 36.6228 153.583ZM43.4841 158.693C43.3421 158.815 43.1663 158.91 42.9568 158.977C42.7472 159.038 42.5309 159.069 42.3078 159.069C41.7671 159.069 41.3479 158.923 41.0505 158.633C40.7531 158.342 40.6044 157.926 40.6044 157.385V152.457H41.5778V153.634H43.119V154.435H41.5778V157.345C41.5778 157.636 41.6488 157.859 41.7907 158.014C41.9394 158.17 42.149 158.247 42.4194 158.247C42.7168 158.247 42.9703 158.163 43.1799 157.994L43.4841 158.693ZM49.5472 153.634V159.008H48.6143V158.156C48.398 158.454 48.1242 158.68 47.793 158.835C47.4618 158.991 47.0967 159.069 46.6979 159.069C46.1774 159.069 45.711 158.954 45.2986 158.724C44.8863 158.494 44.5618 158.173 44.3252 157.761C44.0954 157.342 43.9804 156.862 43.9804 156.321C43.9804 155.78 44.0954 155.303 44.3252 154.891C44.5618 154.479 44.8863 154.158 45.2986 153.928C45.711 153.698 46.1774 153.583 46.6979 153.583C47.0832 153.583 47.4381 153.657 47.7626 153.806C48.0871 153.948 48.3575 154.161 48.5738 154.445V153.634H49.5472ZM46.779 158.217C47.117 158.217 47.4246 158.139 47.7018 157.984C47.9789 157.821 48.1952 157.598 48.3507 157.314C48.5062 157.024 48.5839 156.693 48.5839 156.321C48.5839 155.949 48.5062 155.621 48.3507 155.337C48.1952 155.047 47.9789 154.823 47.7018 154.668C47.4246 154.512 47.117 154.435 46.779 154.435C46.4343 154.435 46.1233 154.512 45.8462 154.668C45.5758 154.823 45.3595 155.047 45.1972 155.337C45.0417 155.621 44.964 155.949 44.964 156.321C44.964 156.693 45.0417 157.024 45.1972 157.314C45.3595 157.598 45.5758 157.821 45.8462 157.984C46.1233 158.139 46.4343 158.217 46.779 158.217ZM53.0215 159.069C52.501 159.069 52.0988 158.927 51.8149 158.643C51.531 158.352 51.389 157.947 51.389 157.426V151.484H52.3624V157.345C52.3624 157.636 52.43 157.859 52.5652 158.014C52.7072 158.17 52.9167 158.247 53.1939 158.247C53.3629 158.247 53.5217 158.214 53.6705 158.146L53.7212 158.947C53.4981 159.028 53.2649 159.069 53.0215 159.069ZM63.616 151.91V159.008H62.6021V155.844H58.5258V159.008H57.5119V151.91H58.5258V154.962H62.6021V151.91H63.616ZM68.022 158.217C68.6642 158.217 69.1813 158.001 69.5734 157.568L70.1007 158.197C69.8641 158.481 69.5633 158.697 69.1982 158.846C68.84 158.994 68.4378 159.069 67.9916 159.069C67.4238 159.069 66.9202 158.954 66.4808 158.724C66.0414 158.487 65.7 158.159 65.4567 157.74C65.2201 157.321 65.1018 156.848 65.1018 156.321C65.1018 155.8 65.2167 155.33 65.4465 154.911C65.6831 154.492 66.0042 154.168 66.4098 153.938C66.8221 153.701 67.2852 153.583 67.7989 153.583C68.2857 153.583 68.7284 153.695 69.1273 153.918C69.5261 154.134 69.8438 154.442 70.0804 154.84C70.317 155.239 70.4387 155.699 70.4454 156.219L66.1766 157.051C66.3118 157.423 66.5382 157.71 66.8559 157.913C67.1804 158.116 67.5691 158.217 68.022 158.217ZM67.7989 154.404C67.461 154.404 67.1568 154.482 66.8864 154.638C66.6227 154.793 66.4166 155.013 66.2678 155.297C66.1191 155.574 66.0448 155.898 66.0448 156.27V156.371L69.4822 155.723C69.3943 155.33 69.1982 155.013 68.894 154.769C68.5899 154.526 68.2248 154.404 67.7989 154.404ZM76.8772 153.634V159.008H75.9443V158.156C75.728 158.454 75.4542 158.68 75.123 158.835C74.7918 158.991 74.4267 159.069 74.0279 159.069C73.5074 159.069 73.0409 158.954 72.6286 158.724C72.2162 158.494 71.8918 158.173 71.6552 157.761C71.4253 157.342 71.3104 156.862 71.3104 156.321C71.3104 155.78 71.4253 155.303 71.6552 154.891C71.8918 154.479 72.2162 154.158 72.6286 153.928C73.0409 153.698 73.5074 153.583 74.0279 153.583C74.4132 153.583 74.7681 153.657 75.0926 153.806C75.417 153.948 75.6874 154.161 75.9038 154.445V153.634H76.8772ZM74.109 158.217C74.447 158.217 74.7546 158.139 75.0317 157.984C75.3089 157.821 75.5252 157.598 75.6807 157.314C75.8362 157.024 75.9139 156.693 75.9139 156.321C75.9139 155.949 75.8362 155.621 75.6807 155.337C75.5252 155.047 75.3089 154.823 75.0317 154.668C74.7546 154.512 74.447 154.435 74.109 154.435C73.7643 154.435 73.4533 154.512 73.1761 154.668C72.9057 154.823 72.6894 155.047 72.5272 155.337C72.3717 155.621 72.294 155.949 72.294 156.321C72.294 156.693 72.3717 157.024 72.5272 157.314C72.6894 157.598 72.9057 157.821 73.1761 157.984C73.4533 158.139 73.7643 158.217 74.109 158.217ZM80.3515 159.069C79.831 159.069 79.4288 158.927 79.1449 158.643C78.8609 158.352 78.719 157.947 78.719 157.426V151.484H79.6924V157.345C79.6924 157.636 79.76 157.859 79.8952 158.014C80.0372 158.17 80.2467 158.247 80.5239 158.247C80.6929 158.247 80.8517 158.214 81.0004 158.146L81.0511 158.947C80.8281 159.028 80.5948 159.069 80.3515 159.069ZM84.8058 158.693C84.6638 158.815 84.4881 158.91 84.2785 158.977C84.069 159.038 83.8527 159.069 83.6296 159.069C83.0888 159.069 82.6697 158.923 82.3722 158.633C82.0748 158.342 81.9261 157.926 81.9261 157.385V152.457H82.8995V153.634H84.4408V154.435H82.8995V157.345C82.8995 157.636 82.9705 157.859 83.1125 158.014C83.2612 158.17 83.4707 158.247 83.7411 158.247C84.0386 158.247 84.2921 158.163 84.5016 157.994L84.8058 158.693ZM88.8468 153.583C89.5296 153.583 90.0704 153.782 90.4692 154.181C90.8748 154.573 91.0776 155.151 91.0776 155.915V159.008H90.1042V156.027C90.1042 155.506 89.9791 155.114 89.729 154.85C89.4789 154.587 89.1206 154.455 88.6542 154.455C88.1269 154.455 87.7112 154.611 87.407 154.921C87.1028 155.226 86.9507 155.665 86.9507 156.24V159.008H85.9773V151.484H86.9507V154.394C87.1535 154.137 87.4171 153.938 87.7416 153.796C88.0728 153.654 88.4412 153.583 88.8468 153.583Z" fill="white" fill-opacity="0.6"/>
<path d="M29.4965 238.801V230.52H33.1164C35.8018 230.52 37.6354 232.176 37.6354 234.66C37.6354 237.145 35.8018 238.801 33.1164 238.801H29.4965ZM31.0344 237.5H33.0455C34.8909 237.5 36.0857 236.376 36.0857 234.66C36.0857 232.945 34.8909 231.821 33.0455 231.821H31.0344V237.5ZM45.0666 235.678C45.0666 235.796 45.0547 235.973 45.0429 236.115H40.0862C40.2637 237.038 41.0326 237.63 42.1328 237.63C42.8426 237.63 43.3986 237.405 43.8481 236.944L44.6407 237.854C44.0729 238.529 43.1856 238.884 42.0973 238.884C39.9797 238.884 38.6075 237.523 38.6075 235.642C38.6075 233.761 39.9916 232.413 41.8725 232.413C43.718 232.413 45.0666 233.702 45.0666 235.678ZM41.8725 233.596C40.9143 233.596 40.2163 234.211 40.0744 235.134H43.6588C43.5405 234.223 42.8426 233.596 41.8725 233.596ZM50.0714 232.413C51.5856 232.413 52.7094 233.276 52.7094 235.181V238.801H51.2307V235.37C51.2307 234.246 50.6747 233.702 49.7283 233.702C48.6755 233.702 47.9657 234.341 47.9657 235.607V238.801H46.487V232.484H47.8947V233.3C48.3797 232.72 49.1487 232.413 50.0714 232.413ZM57.9686 237.405L58.3826 238.458C58.0278 238.742 57.4954 238.884 56.9631 238.884C55.579 238.884 54.7864 238.15 54.7864 236.754V233.714H53.7454V232.531H54.7864V231.088H56.2651V232.531H57.9568V233.714H56.2651V236.719C56.2651 237.334 56.5727 237.665 57.1405 237.665C57.4481 237.665 57.7438 237.582 57.9686 237.405ZM62.0124 232.413C63.8341 232.413 64.887 233.276 64.887 235.098V238.801H63.4911V238.032C63.1362 238.576 62.4501 238.884 61.5037 238.884C60.0604 238.884 59.1495 238.091 59.1495 236.991C59.1495 235.938 59.8593 235.11 61.7758 235.11H63.4083V235.015C63.4083 234.152 62.8878 233.643 61.8349 233.643C61.1251 233.643 60.3917 233.88 59.9185 234.27L59.3388 233.193C60.0131 232.673 60.995 232.413 62.0124 232.413ZM61.8112 237.807C62.5329 237.807 63.1598 237.476 63.4083 236.825V236.092H61.8822C60.8767 236.092 60.6046 236.47 60.6046 236.932C60.6046 237.464 61.0541 237.807 61.8112 237.807ZM66.7848 238.801V230.023H68.2635V238.801H66.7848ZM33.3294 252.919C30.7978 252.919 28.905 251.133 28.905 248.66C28.905 246.188 30.7978 244.402 33.3412 244.402C34.6898 244.402 35.8491 244.887 36.6181 245.786L35.6244 246.72C35.021 246.07 34.2758 245.75 33.4122 245.75C31.6969 245.75 30.4547 246.957 30.4547 248.66C30.4547 250.364 31.6969 251.57 33.4122 251.57C34.2758 251.57 35.021 251.251 35.6244 250.589L36.6181 251.535C35.8491 252.434 34.6898 252.919 33.3294 252.919ZM41.5341 246.413C43.0483 246.413 44.1721 247.276 44.1721 249.181V252.801H42.6934V249.37C42.6934 248.246 42.1374 247.702 41.191 247.702C40.1382 247.702 39.4284 248.341 39.4284 249.607V252.801H37.9496V244.023H39.4284V247.217C39.9134 246.697 40.6587 246.413 41.5341 246.413ZM52.0443 249.678C52.0443 249.796 52.0325 249.973 52.0206 250.115H47.0639C47.2414 251.038 48.0103 251.63 49.1105 251.63C49.8203 251.63 50.3763 251.405 50.8258 250.944L51.6184 251.854C51.0506 252.529 50.1633 252.884 49.075 252.884C46.9575 252.884 45.5852 251.523 45.5852 249.642C45.5852 247.761 46.9693 246.413 48.8502 246.413C50.6957 246.413 52.0443 247.702 52.0443 249.678ZM48.8502 247.596C47.892 247.596 47.1941 248.211 47.0521 249.134H50.6365C50.5182 248.223 49.8203 247.596 48.8502 247.596ZM56.363 252.884C54.3638 252.884 52.9442 251.535 52.9442 249.642C52.9442 247.749 54.3638 246.413 56.363 246.413C57.5933 246.413 58.5752 246.921 59.0602 247.88L57.9245 248.542C57.546 247.939 56.9781 247.667 56.3512 247.667C55.2628 247.667 54.4347 248.424 54.4347 249.642C54.4347 250.873 55.2628 251.618 56.3512 251.618C56.9781 251.618 57.546 251.346 57.9245 250.742L59.0602 251.405C58.5752 252.351 57.5933 252.884 56.363 252.884ZM65.0481 252.801L62.8596 250.092L61.7594 251.133V252.801H60.2807V244.023H61.7594V249.323L64.8233 246.484H66.5978L63.9597 249.134L66.8462 252.801H65.0481ZM72.3231 246.484H73.8018V252.801H72.3941V251.996C71.9209 252.576 71.1756 252.884 70.3594 252.884C68.7387 252.884 67.6385 251.996 67.6385 250.092V246.484H69.1173V249.891C69.1173 251.038 69.6614 251.582 70.596 251.582C71.6252 251.582 72.3231 250.944 72.3231 249.678V246.484ZM79.2396 246.413C81.085 246.413 82.4454 247.69 82.4454 249.642C82.4454 251.606 81.085 252.884 79.2396 252.884C78.4351 252.884 77.7254 252.612 77.2167 252.032V255.096H75.738V246.484H77.1457V247.312C77.6426 246.708 78.376 246.413 79.2396 246.413ZM79.074 251.618C80.1386 251.618 80.9431 250.849 80.9431 249.642C80.9431 248.436 80.1386 247.667 79.074 247.667C78.0093 247.667 77.193 248.436 77.193 249.642C77.193 250.849 78.0093 251.618 79.074 251.618Z" fill="white"/>
<path d="M19.5127 236.24C19.0902 238.353 17.4975 240.342 15.2625 240.786C14.1724 241.003 13.0417 240.871 12.0312 240.408C11.0208 239.945 10.1822 239.175 9.63478 238.208C9.08738 237.24 8.8591 236.125 8.98246 235.021C9.10583 233.916 9.57453 232.878 10.3218 232.056C11.8546 230.367 14.4428 229.903 16.5553 230.748" stroke="#031D44" stroke-width="1.26748" stroke-linecap="round" stroke-linejoin="round"/>
<path d="M12.3304 235.396L14.4429 237.508L19.5128 232.016" stroke="#031D44" stroke-width="1.26748" stroke-linecap="round" stroke-linejoin="round"/>
<path d="M126.67 238.801V230.52H130.29C132.975 230.52 134.809 232.176 134.809 234.66C134.809 237.145 132.975 238.801 130.29 238.801H126.67ZM128.208 237.5H130.219C132.064 237.5 133.259 236.376 133.259 234.66C133.259 232.945 132.064 231.821 130.219 231.821H128.208V237.5ZM142.24 235.678C142.24 235.796 142.228 235.973 142.216 236.115H137.259C137.437 237.038 138.206 237.63 139.306 237.63C140.016 237.63 140.572 237.405 141.021 236.944L141.814 237.854C141.246 238.529 140.359 238.884 139.27 238.884C137.153 238.884 135.781 237.523 135.781 235.642C135.781 233.761 137.165 232.413 139.046 232.413C140.891 232.413 142.24 233.702 142.24 235.678ZM139.046 233.596C138.088 233.596 137.39 234.211 137.248 235.134H140.832C140.714 234.223 140.016 233.596 139.046 233.596ZM147.245 232.413C148.759 232.413 149.883 233.276 149.883 235.181V238.801H148.404V235.37C148.404 234.246 147.848 233.702 146.902 233.702C145.849 233.702 145.139 234.341 145.139 235.607V238.801H143.66V232.484H145.068V233.3C145.553 232.72 146.322 232.413 147.245 232.413ZM155.142 237.405L155.556 238.458C155.201 238.742 154.669 238.884 154.136 238.884C152.752 238.884 151.96 238.15 151.96 236.754V233.714H150.919V232.531H151.96V231.088H153.438V232.531H155.13V233.714H153.438V236.719C153.438 237.334 153.746 237.665 154.314 237.665C154.621 237.665 154.917 237.582 155.142 237.405ZM159.186 232.413C161.007 232.413 162.06 233.276 162.06 235.098V238.801H160.664V238.032C160.309 238.576 159.623 238.884 158.677 238.884C157.234 238.884 156.323 238.091 156.323 236.991C156.323 235.938 157.033 235.11 158.949 235.11H160.581V235.015C160.581 234.152 160.061 233.643 159.008 233.643C158.298 233.643 157.565 233.88 157.092 234.27L156.512 233.193C157.186 232.673 158.168 232.413 159.186 232.413ZM158.984 237.807C159.706 237.807 160.333 237.476 160.581 236.825V236.092H159.055C158.05 236.092 157.778 236.47 157.778 236.932C157.778 237.464 158.227 237.807 158.984 237.807ZM163.958 238.801V230.023H165.437V238.801H163.958ZM133.661 252.801H131.887L129.639 249.654L127.415 252.801H125.664L128.74 248.578L125.83 244.52H127.569L129.686 247.466L131.78 244.52H133.448L130.55 248.518L133.661 252.801ZM136.022 247.406C136.448 246.744 137.217 246.413 138.27 246.413V247.82C138.14 247.797 138.033 247.785 137.927 247.785C136.803 247.785 136.093 248.447 136.093 249.737V252.801H134.615V246.484H136.022V247.406ZM141.903 246.413C143.725 246.413 144.778 247.276 144.778 249.098V252.801H143.382V252.032C143.027 252.576 142.341 252.884 141.394 252.884C139.951 252.884 139.04 252.091 139.04 250.991C139.04 249.938 139.75 249.11 141.666 249.11H143.299V249.015C143.299 248.152 142.778 247.643 141.726 247.643C141.016 247.643 140.282 247.88 139.809 248.27L139.229 247.193C139.904 246.673 140.886 246.413 141.903 246.413ZM141.702 251.807C142.424 251.807 143.05 251.476 143.299 250.825V250.092H141.773C140.767 250.092 140.495 250.47 140.495 250.932C140.495 251.464 140.945 251.807 141.702 251.807ZM151.055 246.484H152.475L149.517 253.309C148.938 254.741 148.133 255.179 147.08 255.179C146.453 255.179 145.791 254.966 145.389 254.599L145.98 253.511C146.264 253.783 146.666 253.948 147.069 253.948C147.589 253.948 147.897 253.7 148.181 253.073L148.287 252.824L145.531 246.484H147.069L149.056 251.156L151.055 246.484Z" fill="white"/>
<path d="M116.686 236.24C116.263 238.353 114.671 240.342 112.436 240.786C111.346 241.003 110.215 240.871 109.204 240.408C108.194 239.945 107.355 239.175 106.808 238.208C106.261 237.24 106.032 236.125 106.156 235.021C106.279 233.916 106.748 232.878 107.495 232.056C109.028 230.367 111.616 229.903 113.729 230.748" stroke="#031D44" stroke-width="1.26748" stroke-linecap="round" stroke-linejoin="round"/>
<path d="M109.504 235.396L111.616 237.508L116.686 232.016" stroke="#031D44" stroke-width="1.26748" stroke-linecap="round" stroke-linejoin="round"/>
<path d="M214.548 238.801V230.52H218.168C220.853 230.52 222.687 232.176 222.687 234.66C222.687 237.145 220.853 238.801 218.168 238.801H214.548ZM216.086 237.5H218.097C219.943 237.5 221.137 236.376 221.137 234.66C221.137 232.945 219.943 231.821 218.097 231.821H216.086V237.5ZM230.118 235.678C230.118 235.796 230.106 235.973 230.095 236.115H225.138C225.315 237.038 226.084 237.63 227.184 237.63C227.894 237.63 228.45 237.405 228.9 236.944L229.692 237.854C229.124 238.529 228.237 238.884 227.149 238.884C225.031 238.884 223.659 237.523 223.659 235.642C223.659 233.761 225.043 232.413 226.924 232.413C228.77 232.413 230.118 233.702 230.118 235.678ZM226.924 233.596C225.966 233.596 225.268 234.211 225.126 235.134H228.71C228.592 234.223 227.894 233.596 226.924 233.596ZM235.123 232.413C236.637 232.413 237.761 233.276 237.761 235.181V238.801H236.282V235.37C236.282 234.246 235.726 233.702 234.78 233.702C233.727 233.702 233.017 234.341 233.017 235.607V238.801H231.539V232.484H232.946V233.3C233.431 232.72 234.2 232.413 235.123 232.413ZM243.02 237.405L243.434 238.458C243.079 238.742 242.547 238.884 242.015 238.884C240.631 238.884 239.838 238.15 239.838 236.754V233.714H238.797V232.531H239.838V231.088H241.317V232.531H243.008V233.714H241.317V236.719C241.317 237.334 241.624 237.665 242.192 237.665C242.5 237.665 242.795 237.582 243.02 237.405ZM247.064 232.413C248.886 232.413 249.939 233.276 249.939 235.098V238.801H248.543V238.032C248.188 238.576 247.502 238.884 246.555 238.884C245.112 238.884 244.201 238.091 244.201 236.991C244.201 235.938 244.911 235.11 246.827 235.11H248.46V235.015C248.46 234.152 247.939 233.643 246.887 233.643C246.177 233.643 245.443 233.88 244.97 234.27L244.39 233.193C245.065 232.673 246.047 232.413 247.064 232.413ZM246.863 237.807C247.585 237.807 248.211 237.476 248.46 236.825V236.092H246.934C245.928 236.092 245.656 236.47 245.656 236.932C245.656 237.464 246.106 237.807 246.863 237.807ZM251.836 238.801V230.023H253.315V238.801H251.836ZM218.381 252.919C215.849 252.919 213.957 251.133 213.957 248.66C213.957 246.188 215.849 244.402 218.393 244.402C219.741 244.402 220.901 244.887 221.67 245.786L220.676 246.72C220.073 246.07 219.327 245.75 218.464 245.75C216.748 245.75 215.506 246.957 215.506 248.66C215.506 250.364 216.748 251.57 218.464 251.57C219.327 251.57 220.073 251.251 220.676 250.589L221.67 251.535C220.901 252.434 219.741 252.919 218.381 252.919ZM223.001 252.801V244.023H224.48V252.801H223.001ZM232.359 249.678C232.359 249.796 232.348 249.973 232.336 250.115H227.379C227.556 251.038 228.325 251.63 229.426 251.63C230.135 251.63 230.691 251.405 231.141 250.944L231.934 251.854C231.366 252.529 230.478 252.884 229.39 252.884C227.273 252.884 225.9 251.523 225.9 249.642C225.9 247.761 227.284 246.413 229.165 246.413C231.011 246.413 232.359 247.702 232.359 249.678ZM229.165 247.596C228.207 247.596 227.509 248.211 227.367 249.134H230.952C230.833 248.223 230.135 247.596 229.165 247.596ZM236.02 246.413C237.842 246.413 238.894 247.276 238.894 249.098V252.801H237.498V252.032C237.144 252.576 236.457 252.884 235.511 252.884C234.068 252.884 233.157 252.091 233.157 250.991C233.157 249.938 233.867 249.11 235.783 249.11H237.416V249.015C237.416 248.152 236.895 247.643 235.842 247.643C235.133 247.643 234.399 247.88 233.926 248.27L233.346 247.193C234.021 246.673 235.002 246.413 236.02 246.413ZM235.819 251.807C236.54 251.807 237.167 251.476 237.416 250.825V250.092H235.89C234.884 250.092 234.612 250.47 234.612 250.932C234.612 251.464 235.062 251.807 235.819 251.807ZM244.377 246.413C245.891 246.413 247.015 247.276 247.015 249.181V252.801H245.536V249.37C245.536 248.246 244.98 247.702 244.034 247.702C242.981 247.702 242.271 248.341 242.271 249.607V252.801H240.792V246.484H242.2V247.3C242.685 246.72 243.454 246.413 244.377 246.413ZM249.636 245.443C249.092 245.443 248.689 245.052 248.689 244.555C248.689 244.059 249.092 243.668 249.636 243.668C250.18 243.668 250.582 244.035 250.582 244.52C250.582 245.04 250.192 245.443 249.636 245.443ZM248.89 252.801V246.484H250.369V252.801H248.89ZM255.894 246.413C257.409 246.413 258.533 247.276 258.533 249.181V252.801H257.054V249.37C257.054 248.246 256.498 247.702 255.551 247.702C254.499 247.702 253.789 248.341 253.789 249.607V252.801H252.31V246.484H253.718V247.3C254.203 246.72 254.972 246.413 255.894 246.413ZM265.328 246.484H266.736V251.843C266.736 254.138 265.541 255.179 263.329 255.179C262.146 255.179 260.975 254.871 260.253 254.28L260.916 253.168C261.472 253.629 262.371 253.925 263.246 253.925C264.642 253.925 265.257 253.286 265.257 252.008V251.677C264.737 252.245 263.991 252.517 263.14 252.517C261.33 252.517 259.946 251.287 259.946 249.453C259.946 247.619 261.33 246.413 263.14 246.413C264.027 246.413 264.808 246.697 265.328 247.324V246.484ZM263.364 251.263C264.476 251.263 265.281 250.529 265.281 249.453C265.281 248.388 264.476 247.667 263.364 247.667C262.241 247.667 261.436 248.388 261.436 249.453C261.436 250.529 262.241 251.263 263.364 251.263Z" fill="white"/>
<path d="M204.564 236.24C204.142 238.353 202.549 240.342 200.314 240.786C199.224 241.003 198.093 240.871 197.083 240.408C196.072 239.945 195.234 239.175 194.686 238.208C194.139 237.24 193.911 236.125 194.034 235.021C194.157 233.916 194.626 232.878 195.373 232.056C196.906 230.367 199.494 229.903 201.607 230.748" stroke="#031D44" stroke-width="1.26748" stroke-linecap="round" stroke-linejoin="round"/>
<path d="M197.382 235.396L199.495 237.508L204.564 232.016" stroke="#031D44" stroke-width="1.26748" stroke-linecap="round" stroke-linejoin="round"/>
<g clip-path="url(#clip3_2236_47143)">
<g opacity="0.48">
<path d="M212.067 273.494C210.677 271.733 209.565 269.694 208.546 267.702C207.109 264.921 205.58 262.048 203.124 260.01C199.742 257.183 193.023 255.237 185.099 259.083C180.234 261.4 176.249 265.153 172.403 268.814C171.708 269.462 171.059 270.065 170.364 270.713C167.213 273.633 164.109 276.228 161.004 278.544H161.792C164.757 276.32 167.723 273.818 170.688 271.038C171.383 270.389 172.032 269.787 172.727 269.138C176.573 265.524 180.558 261.77 185.331 259.5C193.023 255.793 199.556 257.646 202.846 260.38C205.209 262.373 206.692 265.199 208.129 267.933C209.194 269.926 210.26 272.011 211.697 273.818C213.318 275.811 215.311 277.34 217.442 278.544H218.415C216.052 277.247 213.828 275.625 212.067 273.494Z" fill="white"/>
<path d="M84.5945 258.249C84.8262 254.635 85.7529 251.021 86.6333 247.499C87.9308 242.448 89.2746 237.166 88.4868 231.93C87.1431 223.219 79.3585 215.527 69.535 213.21C61.4724 211.31 52.0197 212.607 42.1499 216.963C39.1843 218.307 36.2188 219.836 33.3922 221.365C28.5732 223.867 23.6151 226.508 18.3327 228.084C11.2895 230.169 5.40472 229.752 0.910034 228.084V228.594C2.25381 229.057 3.64391 229.428 5.12669 229.613C9.29702 230.215 14.0234 229.845 18.4717 228.547C23.8005 226.972 28.8049 224.331 33.6239 221.782C36.4505 220.299 39.416 218.724 42.3816 217.426C52.1587 213.071 61.5187 211.82 69.4423 213.719C79.0341 215.99 86.6797 223.543 88.0235 232.069C88.8112 237.212 87.5137 242.402 86.2163 247.453C85.2896 250.974 84.3628 254.635 84.1312 258.296C83.7141 265.431 86.1236 272.614 90.572 278.591H91.267C86.726 272.521 84.1775 265.292 84.5945 258.249Z" fill="white"/>
<path d="M9.80672 147.969C10.4554 150.24 11.1042 152.603 11.8455 154.874C13.004 158.349 14.4404 161.824 17.406 163.956C18.7498 164.929 20.4642 165.438 22.086 165.438C22.5494 165.438 23.0127 165.392 23.4761 165.299C25.0979 164.975 26.3953 164.141 27.1831 162.89C28.3415 161.036 28.2488 158.766 28.0635 156.403C27.4611 149.499 26.6734 142.455 25.9783 135.644C22.9201 106.544 19.7228 76.4252 24.9126 47.3256C25.0516 46.6769 25.1442 46.0281 25.2833 45.3794C26.1637 40.6531 27.0441 35.7877 26.3953 30.9687C25.7003 25.8253 22.4567 19.9405 16.8963 18.365C14.2551 17.6236 11.4749 17.948 8.83365 18.226C7.25819 18.4113 5.6364 18.5967 4.06095 18.5503C3.04153 18.5503 1.97578 18.4113 0.910034 18.1797V18.643C1.92945 18.8747 2.9952 18.9674 4.01461 19.0137C5.6364 19.0601 7.25819 18.8747 8.87999 18.6894C11.5212 18.4113 14.2551 18.087 16.8036 18.782C22.1787 20.3111 25.2833 26.0106 25.9783 30.9687C26.627 35.695 25.7466 40.5604 24.8662 45.2404C24.7272 45.8891 24.6345 46.5379 24.4955 47.1866C19.2595 76.3325 22.4567 106.451 25.5149 135.597C26.2563 142.409 26.9977 149.452 27.6001 156.31C27.7854 158.581 27.9245 160.805 26.8124 162.519C25.8856 163.956 24.4492 164.512 23.4298 164.697C21.4836 165.068 19.3058 164.604 17.684 163.4C14.8574 161.361 13.421 157.932 12.3089 154.549C11.5675 152.279 10.9188 149.962 10.2701 147.691C8.83365 142.641 7.35087 137.405 4.84867 132.678C3.82926 130.732 2.48549 128.74 0.910034 126.932V127.627C2.34648 129.296 3.5049 131.149 4.43164 132.91C6.8875 137.729 8.37028 142.965 9.80672 147.969Z" fill="white"/>
<path d="M284.631 148.85V148.201C276.893 155.754 271.981 164.187 270.081 173.316C268.32 181.61 269.34 190.738 272.908 199.033C275.595 205.335 279.673 210.941 284.677 215.297V214.695C279.905 210.385 275.966 204.918 273.371 198.847C269.849 190.646 268.876 181.61 270.591 173.408C272.398 164.512 277.124 156.264 284.631 148.85Z" fill="white"/>
</g>
</g>
</g>
<defs>
<filter id="filter0_d_2236_47143" x="194.633" y="126.189" width="71.0307" height="71.0321" filterUnits="userSpaceOnUse" color-interpolation-filters="sRGB">
<feFlood flood-opacity="0" result="BackgroundImageFix"/>
<feColorMatrix in="SourceAlpha" type="matrix" values="0 0 0 0 0 0 0 0 0 0 0 0 0 0 0 0 0 0 127 0" result="hardAlpha"/>
<feOffset dx="2.53495" dy="2.53495"/>
<feGaussianBlur stdDeviation="0.0844985"/>
<feComposite in2="hardAlpha" operator="out"/>
<feColorMatrix type="matrix" values="0 0 0 0 0 0 0 0 0 0 0 0 0 0 0 0 0 0 0.25 0"/>
<feBlend mode="normal" in2="BackgroundImageFix" result="effect1_dropShadow_2236_47143"/>
<feBlend mode="normal" in="SourceGraphic" in2="effect1_dropShadow_2236_47143" result="shape"/>
</filter>
<clipPath id="clip0_2236_47143">
<rect width="278" height="278" fill="white" transform="translate(0.5 0.5)"/>
</clipPath>
<clipPath id="clip1_2236_47143">
<rect width="112.449" height="7.60486" fill="white" transform="translate(146.682 204.141)"/>
</clipPath>
<clipPath id="clip2_2236_47143">
<rect width="116.92" height="190.967" fill="white" transform="translate(152.597 14.8652)"/>
</clipPath>
<clipPath id="clip3_2236_47143">
<rect width="283.721" height="397.988" fill="white" transform="translate(0.910156 -119.488)"/>
</clipPath>
</defs>
</svg>
