<svg width="188" height="170" viewBox="0 0 188 170" fill="none" xmlns="http://www.w3.org/2000/svg">
<g id="Group 48453">
<path id="Vector" opacity="0.7" d="M0.631072 103.072C0.631072 103.072 5.1792 135.911 34.9298 154.604C64.6804 173.297 102.86 170.293 133.82 168.665C164.781 167.038 186.562 146.759 187.313 119.888C188.064 93.058 163.738 88.0927 147.798 59.5521C131.859 31.0116 131.943 20.9974 102.985 5.72569C74.027 -9.546 33.0521 6.89402 14.2754 41.2345C-4.45949 75.6166 0.631072 103.072 0.631072 103.072Z" fill="#96E9FF"/>
<g id="Group 48414">
<g id="Group">
<g id="Group_2">
<path id="Vector_2" d="M151.08 129.364H148.648V165.176H151.08V129.364Z" fill="#0B2347"/>
</g>
<g id="Group_3">
<g id="Group_4">
<g id="Group_5">
<path id="Vector_3" d="M128.874 108.701H108.807V97.1109C108.807 95.8741 109.807 94.8735 111.044 94.8735H126.622C127.859 94.8735 128.86 95.8741 128.86 97.1109V108.701H128.874Z" fill="#FEFEFE"/>
</g>
<g id="Group_6">
<path id="Vector_4" d="M128.874 108.7H108.807V98.9586C108.807 97.9163 109.807 97.0686 111.044 97.0686H126.622C127.859 97.0686 128.86 97.9163 128.86 98.9586V108.7H128.874Z" fill="#A5DDEC"/>
</g>
<g id="Group_7">
<g id="Group_8">
<path id="Vector_5" d="M112.349 94.0935H111.654V94.7745H111.209V99.5689H111.654V104.822H112.349V99.5689H112.626V94.7745H112.349V94.0935Z" fill="#0B2347"/>
</g>
<g id="Group_9">
<path id="Vector_6" d="M118.95 94.0935H118.269V104.808H118.95V94.0935Z" fill="#0B2347"/>
</g>
<g id="Group_10">
<path id="Vector_7" d="M124.551 94.0935L124.885 104.822H125.566L125.913 94.0935H124.551Z" fill="#0B2347"/>
</g>
<g id="Group_11">
<path id="Vector_8" d="M114.446 95.9839H114.96V104.822H115.655V95.9839H115.988V93.5242H114.446V95.9839Z" fill="#0B2347"/>
</g>
<g id="Group_12">
<path id="Vector_9" d="M121.062 101.169H121.577V104.823H122.258V101.169H122.494V93.7615H121.062V101.169Z" fill="#0B2347"/>
</g>
</g>
</g>
<g id="Group_13">
<g id="Group_14">
<g id="Group_15">
<g id="Group_16">
<path id="Vector_10" d="M98.3978 105.575L133.96 105.589C134.099 107.382 132.751 109.021 131.125 109.786C129.499 110.55 127.651 110.62 125.844 110.689C119.313 110.911 112.781 111.134 106.236 111.356C104.86 111.398 103.442 111.439 102.136 110.995C99.8013 110.189 98.2727 108.049 98.3978 105.575Z" fill="#CCD9E2"/>
</g>
</g>
<g id="Group_17">
<g id="Group_18">
<path id="Vector_11" d="M98.3955 106.116C98.4094 106.533 98.4789 106.936 98.5901 107.339H133.638C133.819 106.95 133.93 106.547 133.958 106.116H98.3955Z" fill="#FEFEFE"/>
</g>
</g>
<g id="Group_19">
<path id="Vector_12" d="M148.288 123.708L136.475 111.854C135.947 111.326 135.211 111.021 134.46 111.021H116.77V109.881H134.46C135.516 109.881 136.545 110.312 137.281 111.048L149.094 122.902L148.288 123.708Z" fill="#0B2347"/>
</g>
</g>
<g id="Group_20">
<path id="Vector_13" d="M109.57 110.519V111.047C109.57 111.673 110.084 112.187 110.71 112.187H127.428C128.053 112.187 128.567 111.673 128.567 111.047V110.519H109.57Z" fill="#0B2347"/>
</g>
</g>
</g>
<g id="Group_21">
<path id="Vector_14" d="M153.204 119.481H146.964V132.711H153.204V119.481Z" fill="#0B2347"/>
</g>
<g id="Group_22">
<path id="Vector_15" d="M152.134 119.481H150.161V132.711H152.134V119.481Z" fill="#006BA2"/>
</g>
</g>
<g id="Group_23">
<g id="Clip path group">
<mask id="mask0_1_2896" style="mask-type:luminance" maskUnits="userSpaceOnUse" x="22" y="7" width="161" height="163">
<g id="SVGID_4_">
<path id="Vector_16" d="M182.867 7.08545H22.2329V169.29H182.867V7.08545Z" fill="white"/>
</g>
</mask>
<g mask="url(#mask0_1_2896)">
<g id="Group_24">
<g id="Group_25">
<g id="Group_26">
<g id="Group_27">
<path id="Vector_17" d="M95.8158 49.7875C95.4823 48.8286 95.0932 47.842 94.7041 46.5773C94.2455 45.0904 94.1899 43.4644 93.4256 42.1303C92.1888 39.9485 89.2009 38.9896 86.366 37.9196C85.8657 36.8356 85.5461 35.6683 85.3793 34.501C85.0875 32.3608 85.2681 30.179 85.4349 28.025C83.4893 27.9972 81.5299 27.9555 79.5843 27.9277C79.5426 30.582 78.945 33.2363 77.8472 35.6822C75.7905 36.8634 73.7198 38.0447 71.6631 39.2259C70.732 39.754 69.1061 41.0325 68.3556 41.8107C66.4101 43.8397 66.2989 46.9109 66.9243 49.7736L95.8158 49.7875Z" fill="#F4B19F"/>
</g>
<g id="Group_28">
<path id="Vector_18" d="M85.324 49.7873L95.8022 49.8012C95.4687 48.8423 95.0796 47.8556 94.6904 46.591C94.2318 45.104 94.1763 43.4781 93.4119 42.144C92.1751 39.9622 89.1873 39.0033 86.3523 37.9333C85.852 36.8493 85.5324 35.682 85.3656 34.5146C85.0738 32.3745 85.2545 30.1927 85.4212 28.0387C83.6007 28.0109 81.7664 27.9692 79.9459 27.9414C79.5429 29.4701 79.8347 31.1794 80.2794 32.5413C82.1694 38.2251 83.9204 43.9784 85.324 49.7873Z" fill="#E59A8C"/>
</g>
<g id="Group_29">
<path id="Vector_19" d="M86.1026 37.2801C85.7552 36.3907 85.5189 35.4457 85.3939 34.5007C85.102 32.3606 85.2827 30.1788 85.4495 28.0248C83.7957 27.997 82.1281 27.9692 80.4605 27.9414C80.1547 32.1244 82.5867 35.6403 86.1026 37.2801Z" fill="#542305"/>
</g>
</g>
<g id="Group_30">
<g id="Group_31">
<g id="Group_32">
<path id="Vector_20" d="M78.8517 24.6944C79.3103 24.5832 79.6994 24.2497 79.9912 23.8606C80.2692 23.4715 80.4637 23.0268 80.6583 22.5821C81.7561 20.0528 83.0624 17.6209 84.5494 15.3001C83.8129 13.8131 82.5344 12.5624 80.9362 12.0899C79.352 11.6313 77.4759 12.0621 76.4058 13.3129C75.4331 14.4524 75.2246 16.0505 75.1829 17.5514C75.1273 19.5109 75.3219 21.5537 76.3364 23.2213C76.6004 23.666 76.9339 24.0829 77.3647 24.3609C77.8094 24.6805 78.3514 24.8195 78.8517 24.6944Z" fill="#0B2347"/>
</g>
<g id="Group_33">
<path id="Vector_21" d="M78.2267 15.6216C78.1433 15.2742 78.2683 14.8989 78.5463 14.6766C78.8242 14.4542 79.2272 14.4126 79.5469 14.5654C79.5191 14.3292 79.6719 14.0651 79.8943 13.9818C80.1166 13.8984 80.4085 13.9818 80.5474 14.1902C80.7142 13.8428 81.1172 13.6482 81.4924 13.7316C81.8676 13.815 82.1456 14.1763 82.1456 14.5515C80.7837 14.7322 79.4913 15.4131 78.5741 16.4276C77.6569 17.4421 77.1149 18.804 77.0732 20.1659C76.9065 19.7906 76.7258 19.4015 76.7258 18.9985C76.7119 18.5955 76.9065 18.1508 77.2956 17.9979C77.1288 17.6227 77.1844 17.1641 77.4345 16.8306C77.3095 16.5666 77.3234 16.233 77.4901 15.9968C77.643 15.7467 77.9348 15.5938 78.2267 15.6216Z" fill="#FFD53F"/>
</g>
</g>
<g id="Group_34">
<g id="Group_35">
<path id="Vector_22" d="M84.8667 17.2078C86.3537 16.6936 88.0213 16.499 89.4805 17.0966C90.6895 17.5969 91.6345 18.6114 92.3294 19.737C93.0659 20.9321 93.5662 22.3218 93.3994 23.7115C93.2743 24.7677 92.788 25.7404 92.6212 26.7827C92.4822 27.6999 92.5934 28.6449 92.4544 29.5621C92.1487 31.591 90.6617 33.2309 89.2443 34.7178C88.7579 35.232 88.2159 35.774 87.521 35.8574C86.993 35.9269 86.4788 35.7184 86.0063 35.496C83.1574 34.1619 80.656 31.8829 79.4887 28.9645C78.3213 26.0462 78.627 22.4608 80.6282 20.0288C81.6983 18.7086 83.2269 17.7636 84.8667 17.2078Z" fill="#F4B19F"/>
</g>
<g id="Group_36">
<path id="Vector_23" d="M81.2661 28.3392C83.8092 26.3102 85.3379 24.2674 87.881 23.2529C89.5347 22.433 91.522 22.9472 93.3008 22.0717C93.1201 21.2518 92.7727 20.4596 92.328 19.737C91.6331 18.6114 90.702 17.5969 89.4791 17.0966C88.0338 16.499 86.3523 16.6936 84.8654 17.2078C83.2255 17.7636 81.6969 18.7086 80.599 20.0566C78.6118 22.5025 78.2921 26.074 79.4595 28.9923C79.6679 29.5065 79.9042 29.9929 80.1821 30.4515C80.2933 29.6177 80.5712 28.8811 81.2661 28.3392Z" fill="#E59A8C"/>
</g>
</g>
<g id="Group_37">
<g id="Group_38">
<path id="Vector_24" d="M93.5924 20.2479C92.9393 18.4691 91.4801 17.135 89.8403 16.2456C88.3811 15.4674 86.7551 15.0227 85.1431 14.6753C83.6561 14.3556 82.0441 14.1055 80.6405 14.7031C79.1258 15.3423 78.1391 16.8432 77.5693 18.3857C76.1101 22.3741 77.1246 27.1408 79.9874 30.2676C80.1124 30.1286 80.2236 30.0035 80.3487 29.8646C80.2931 29.0585 80.6266 28.183 81.1547 27.5577C82.0163 26.5571 83.2531 25.9873 84.351 25.2647C84.893 24.9034 85.4349 24.4448 85.838 23.9306C86.644 22.9022 87.8669 22.3047 89.1732 22.4019C89.9375 22.4575 90.688 22.4853 91.4523 22.5131C92.3139 22.5409 93.3006 22.4992 93.648 21.4847C93.7731 21.0678 93.7453 20.637 93.5924 20.2479Z" fill="#0B2347"/>
</g>
<g id="Group_39">
<path id="Vector_25" d="M80.7679 15.6912C79.6284 16.2053 78.8084 17.3727 78.6973 18.6095C79.3504 18.2204 80.0314 17.8869 80.7262 17.5811C80.9903 17.47 81.3099 17.3727 81.5322 17.5394C81.8102 17.7479 81.7129 18.2065 81.5461 18.5122C81.3794 18.818 81.157 19.1932 81.3099 19.5128C81.9352 19.5545 82.5745 19.6101 83.1999 19.6518C82.9636 19.624 82.8524 19.9575 82.9775 20.166C83.1026 20.3605 83.3388 20.4439 83.5612 20.5134C83.7835 20.5829 84.0198 20.6801 84.117 20.9025C84.2143 21.1109 84.1171 21.3611 83.992 21.5695C84.4645 21.6807 84.7146 22.32 84.4506 22.723C85.7013 22.0837 87.0215 21.6112 88.3973 21.3055C87.4106 21.0831 86.3822 21.097 85.4095 21.3472C85.8264 21.2499 85.7986 20.569 85.4372 20.3327C85.0759 20.0965 84.6034 20.1799 84.1865 20.2632C84.2977 20.027 84.395 19.7629 84.3394 19.4989C84.2699 19.2488 83.9364 19.0542 83.7418 19.221C83.7418 19.0264 83.7557 18.8319 83.7557 18.6512C83.3805 18.6929 82.9914 18.4983 82.8107 18.1648C82.6301 17.8313 82.6718 17.4005 82.908 17.1086C82.5606 17.067 82.1854 17.1364 81.8797 17.3032C81.7963 17.0531 81.7129 16.8029 81.6156 16.5389C81.3099 16.5806 81.0041 16.6084 80.6984 16.65C80.7123 16.3443 80.7401 16.0247 80.7679 15.6912Z" fill="#13A8B3"/>
</g>
</g>
<path id="Vector_26" d="M92.9969 26.346C92.7467 26.3321 92.4966 26.3321 92.302 26.3877C92.0797 26.4433 91.899 26.5684 91.7601 26.7351L90.3565 26.7768L90.2592 26.749C88.9112 26.3738 87.5215 26.1932 86.1179 26.1932H85.979C85.7566 26.1932 85.5065 26.2071 85.3258 26.3738C85.3119 26.3877 85.298 26.4016 85.2841 26.4155C84.1585 26.2488 83.0189 26.1376 81.8933 26.0542L81.8794 26.3599C82.9634 26.4294 84.0473 26.5406 85.1313 26.6935C85.0896 26.8463 85.0757 26.9992 85.0757 27.1521C85.0757 27.7496 85.1035 28.3333 85.4787 28.7641C85.7149 29.0281 86.0346 29.1671 86.2569 29.2505C86.6877 29.4033 87.1324 29.4867 87.5771 29.4867C88.0774 29.4867 88.5499 29.3756 88.9668 29.1671C89.7867 28.7502 90.3287 27.9164 90.3565 27.0826L91.5794 27.0409C91.5238 27.2076 91.496 27.3883 91.496 27.5273C91.4821 27.833 91.496 28.1387 91.5516 28.4306C91.5794 28.5834 91.635 28.7919 91.7462 28.9586C91.8573 29.1254 92.038 29.2366 92.2187 29.2366C92.2326 29.2366 92.2604 29.2366 92.2743 29.2366C92.5383 29.2088 92.719 28.9725 92.8162 28.7641C92.9135 28.5417 92.9413 28.3055 92.9552 28.097L93.1498 26.3599L92.9969 26.346ZM88.8278 28.9031C88.4526 29.0976 88.0357 29.181 87.5771 29.181C87.1741 29.181 86.7572 29.0976 86.3681 28.9586C86.0624 28.8475 85.8539 28.7224 85.7149 28.5556C85.4092 28.2082 85.3814 27.694 85.3814 27.1521C85.3814 26.9436 85.3953 26.7074 85.5204 26.5962C85.6316 26.4989 85.7983 26.4989 85.979 26.485H86.104C87.4381 26.485 88.7722 26.6657 90.0646 26.9992C90.0646 27.7635 89.5644 28.5278 88.8278 28.9031ZM92.6495 28.0692C92.6217 28.2638 92.6078 28.4723 92.5244 28.639C92.4549 28.8058 92.3298 28.917 92.2187 28.9309H92.1909C92.1214 28.9309 92.038 28.8753 91.9685 28.7919C91.8851 28.6668 91.8434 28.5139 91.8296 28.375C91.774 28.1109 91.7601 27.8191 91.774 27.5412C91.7879 27.3744 91.8018 27.1798 91.899 27.0131C91.9963 26.8463 92.1631 26.7212 92.3576 26.6796C92.4549 26.6518 92.5522 26.6379 92.6773 26.6379C92.719 26.6379 92.7467 26.6379 92.7884 26.6379L92.6495 28.0692Z" fill="#0B2347"/>
<g id="Group_40">
<g id="Group_41">
<path id="Vector_27" d="M81.7292 27.0398C81.6319 26.6228 81.4929 26.2198 81.2428 25.8724C80.9926 25.525 80.6035 25.261 80.1866 25.2471C79.7558 25.2332 79.325 25.525 79.2555 25.9419C79.1721 26.4283 79.5613 26.8869 79.5613 27.3733C79.5613 27.818 79.2416 28.1932 79.1305 28.624C78.9915 29.166 79.2138 29.7496 79.6029 30.1527C79.9921 30.5557 80.5201 30.778 81.0621 30.9031L81.7292 27.0398Z" fill="#F4B19F"/>
</g>
<g id="Group_42">
<path id="Vector_28" d="M81.1454 26.9848C81.0343 26.6513 80.8675 26.3317 80.6452 26.0676C80.5062 25.887 80.2838 25.7202 80.0615 25.8036C79.9225 25.8592 79.853 26.012 79.853 26.1649C79.853 26.3178 79.9086 26.4567 79.9642 26.5957C80.1032 26.9014 80.2699 27.1933 80.4645 27.4712C80.1727 27.4156 79.9225 27.7075 79.8947 27.9993C79.8669 28.2911 79.992 28.5691 80.1171 28.847C80.2421 29.111 80.3672 29.4029 80.3255 29.6947C80.5201 29.6252 80.6174 29.389 80.6035 29.1805C80.5896 28.9721 80.5062 28.7775 80.4784 28.5691C80.4367 28.3606 80.4784 28.1244 80.6313 27.9993C80.7424 27.9159 80.8953 27.8881 81.0204 27.8047C81.2566 27.638 81.2288 27.2628 81.1454 26.9848Z" fill="#0B2347"/>
</g>
</g>
<g id="Group_43">
<g id="Group_44">
<path id="Vector_29" d="M89.7163 31.792L89.6885 31.4862C90.2027 31.4306 90.7168 31.3334 91.2171 31.1944C91.4256 31.1388 91.6201 31.0693 91.7035 30.9164C91.7869 30.7497 91.7313 30.5273 91.6618 30.305L91.2032 28.957C91.0504 28.5262 90.8836 28.0259 90.9253 27.5256C90.9809 26.8447 91.4256 26.1915 92.0509 25.9136L92.176 26.1915C91.6479 26.4278 91.2727 26.9697 91.231 27.5534C91.2032 27.9981 91.3561 28.4567 91.4951 28.8736L91.9537 30.2216C92.0509 30.4856 92.1343 30.8053 91.9815 31.0693C91.8425 31.3195 91.5784 31.4167 91.3005 31.5001C90.7724 31.6252 90.2443 31.7364 89.7163 31.792Z" fill="#0B2347"/>
</g>
<g id="Group_45">
<path id="Vector_30" d="M89.9544 32.6817C89.0372 32.6261 88.1062 32.5844 87.189 32.5288C87.3418 33.1264 87.8977 33.5989 88.5231 33.6267C89.1345 33.6684 89.746 33.2653 89.9544 32.6817Z" fill="#FEFEFE"/>
</g>
<g id="Group_46">
<g id="Group_47">
<path id="Vector_31" d="M85.8265 25.9001L85.7432 25.6083C86.7854 25.3026 87.8694 25.1775 88.9533 25.247L88.9394 25.5527C87.8833 25.4832 86.841 25.6083 85.8265 25.9001Z" fill="#0B2347"/>
</g>
<g id="Group_48">
<path id="Vector_32" d="M87.6599 28.3884C87.8544 28.4162 88.049 28.2911 88.1602 28.1382C88.2713 27.9715 88.313 27.7769 88.3408 27.5823C88.3547 27.4851 88.3547 27.3739 88.313 27.2766C88.2713 27.1793 88.188 27.0959 88.0907 27.0959C87.9517 27.0959 87.8405 27.221 87.771 27.3461C87.646 27.5545 87.5487 27.7908 87.4931 28.027C87.4653 28.1104 87.4514 28.2077 87.4931 28.2911C87.507 28.3606 87.5904 28.3884 87.6599 28.3884Z" fill="#0B2347"/>
</g>
</g>
<g id="Group_49">
<g id="Group_50">
<path id="Vector_33" d="M92.7075 25.6924L92.4043 25.7935L92.501 26.0835L92.8042 25.9824L92.7075 25.6924Z" fill="#0B2347"/>
</g>
<g id="Group_51">
<path id="Vector_34" d="M91.857 28.0856C91.9682 28.0995 92.0793 28.0022 92.1488 27.8633C92.2183 27.7243 92.2461 27.5575 92.2461 27.3908C92.2461 27.3074 92.2461 27.2101 92.2322 27.1267C92.2044 27.0434 92.1627 26.9739 92.1071 26.9739C92.0237 26.9739 91.9682 27.0851 91.9265 27.1962C91.857 27.3769 91.8014 27.5714 91.7597 27.7799C91.7458 27.8494 91.7319 27.9328 91.7597 28.0022C91.7736 28.0439 91.8153 28.0717 91.857 28.0856Z" fill="#0B2347"/>
</g>
</g>
</g>
</g>
</g>
<g id="Group_52">
<g id="Group_53">
<g id="Group_54">
<path id="Vector_35" d="M111.756 172.417C107.017 170.332 102.751 167.08 99.4435 163.05C98.7765 137.452 98.1233 111.868 97.4563 86.27L82.4755 86.2561C80.9885 91.1478 80.919 96.373 82.3087 101.39C83.8929 107.101 87.3116 112.466 88.7013 118.219C90.2994 124.792 89.1599 131.477 89.2155 138.133C89.2988 147.402 93.3984 155.727 94.2461 165.718C94.1349 166.858 94.0377 168.011 93.9265 169.151C93.8709 169.693 93.8292 170.277 94.0933 170.777C94.538 171.625 95.6497 171.875 96.5808 171.805C97.5119 171.736 98.4569 171.472 99.3741 171.722C100.416 172 101.195 172.875 102.112 173.459C104.266 174.849 106.976 174.599 109.449 174.293C110.019 174.223 110.603 174.154 111.075 173.848C111.562 173.556 111.909 172.986 111.756 172.417Z" fill="#F4B19F"/>
</g>
<g id="Group_55">
<path id="Vector_36" d="M107.351 170.054C104.377 168.164 101.695 165.788 99.4572 163.05C98.7902 137.452 98.137 111.868 97.47 86.27L82.4891 86.2561C81.0022 91.1478 80.9327 96.373 82.3224 101.39C83.9066 107.101 87.3253 112.466 88.7149 118.219C90.3131 124.792 89.1735 131.477 89.2291 138.133C89.3125 147.402 93.4121 155.727 94.2598 165.718C94.1903 166.455 94.1208 167.191 94.0513 167.914C97.9008 170.235 102.987 171.18 107.351 170.054Z" fill="#E59A8C"/>
</g>
<g id="Group_56">
<path id="Vector_37" d="M107.352 170.05C103.002 171.176 97.9019 170.231 94.0525 167.896C94.0108 168.313 93.983 168.716 93.9413 169.133C93.8857 169.675 93.844 170.259 94.1081 170.759C94.5528 171.607 95.6645 171.857 96.5956 171.788C97.5267 171.718 98.4717 171.454 99.3889 171.704C100.431 171.982 101.209 172.858 102.127 173.441C104.281 174.831 106.99 174.581 109.464 174.275C110.034 174.206 110.618 174.136 111.09 173.83C111.563 173.539 111.91 172.955 111.757 172.399C110.228 171.746 108.755 170.954 107.352 170.05Z" fill="#0B2347"/>
</g>
<g id="Group_57">
<path id="Vector_38" d="M98.5548 128.596C98.6521 128.262 98.7494 127.915 98.8467 127.582C98.4853 113.768 98.1379 99.9407 97.7766 86.1272L82.7958 86.1133C81.3088 91.005 81.2393 96.2302 82.629 101.247C84.2133 106.959 87.6319 112.323 89.0216 118.076C90.6197 124.649 89.4802 131.334 89.5358 137.99C89.5636 140.895 89.8137 143.799 90.2306 146.69C91.662 141.562 92.9266 136.364 94.3441 131.223C94.6498 129.68 96.5815 129.096 98.5548 128.596Z" fill="#0B2347"/>
</g>
</g>
<g id="Group_58">
<g id="Group_59">
<path id="Vector_39" d="M91.3706 173.721C88.7163 172.525 86.1871 171.011 84.1165 168.954C83.1298 167.967 82.2404 166.856 81.5455 165.66C84.0192 138.061 86.4928 110.476 88.9665 82.8768C84.6862 84.0024 79.9335 83.6133 76.2091 81.8623L74.347 84.1553C71.6927 89.5612 70.7477 95.4534 71.6649 101.068C72.596 106.835 75.417 112.241 76.1536 118.036C76.9874 124.665 74.6249 131.377 74.347 138.117C74.0412 145.566 75.7227 153.056 75.8895 163.951C75.5004 165.313 75.1391 166.689 74.8195 168.065C74.5276 169.357 74.3053 170.858 75.153 171.886C76.0841 172.998 77.7795 172.956 79.1136 173.526C80.2114 173.999 81.0591 174.916 82.0736 175.555C84.5612 177.139 87.7296 176.972 90.6758 176.75C91.1622 176.708 91.6625 176.667 92.1072 176.458C92.5519 176.25 92.9271 175.833 92.941 175.333C92.9549 174.527 92.0933 174.04 91.3706 173.721Z" fill="#F4B19F"/>
</g>
<g id="Group_60">
<path id="Vector_40" d="M84.714 130.279C86.1315 114.478 87.549 98.6775 88.9665 82.8768C84.6862 84.0024 79.9335 83.6133 76.2091 81.8623L74.347 84.1553C71.6927 89.5612 70.7477 95.4534 71.6649 101.068C72.596 106.835 75.417 112.241 76.1536 118.036C76.9874 124.665 74.6249 131.377 74.347 138.117C74.1524 142.842 74.75 147.581 75.2642 153.195C76.2091 148.025 76.9874 142.786 77.8212 137.658C78.3771 134.643 80.8924 130.418 84.714 130.279Z" fill="#E59A8C"/>
</g>
</g>
</g>
<g id="Group_61">
<g id="Group_62">
<g id="Group_63">
<path id="Vector_41" d="M118.261 42.7019L115.106 47.1906C116.273 47.9827 117.663 48.4135 118.747 49.2751C118.914 48.9694 120.109 47.5519 120.442 47.4685C120.79 47.3851 121.109 47.6075 121.443 47.7465C122.11 48.0244 122.86 47.8993 123.486 47.5519C123.583 47.5797 123.694 47.6075 123.792 47.6353C123.972 47.677 124.153 47.7326 124.333 47.7187C124.514 47.7048 124.709 47.5936 124.764 47.4268C124.848 47.1767 124.695 46.8432 124.889 46.6764C125.098 46.4818 125.473 46.7181 125.709 46.5513C125.904 46.4124 125.862 46.1205 125.779 45.8982C125.695 45.6758 125.626 45.3979 125.793 45.2311C125.904 45.1199 126.098 45.106 126.237 45.0505C126.487 44.9393 126.626 44.6058 126.529 44.3417C126.46 44.175 126.321 44.0499 126.21 43.9109C126.307 43.758 126.39 43.5913 126.487 43.4384C128.794 42.8825 131.796 43.7858 132.157 42.3267C127.585 41.3122 122.777 41.4651 118.261 42.7019Z" fill="#E59A8C"/>
</g>
<g id="Group_64">
<path id="Vector_42" d="M124.918 43.857C124.57 43.6069 124.209 43.2456 123.778 43.315C123.389 43.3706 123.167 43.7597 122.847 43.996C121.819 44.7742 120.096 43.8431 119.151 44.7186C118.414 45.3996 118.595 46.8309 117.705 47.2895C117.247 47.6092 116.538 47.4146 116.218 46.956C115.885 46.4974 115.871 45.8721 116.052 45.3301C116.232 44.7881 116.58 44.3295 116.927 43.8848C117.372 43.3289 117.83 42.787 118.4 42.3701C119.97 41.2166 122.166 41.1888 123.736 40.0215C124.82 41.5501 126.21 42.8564 127.794 43.857C126.974 44.4407 125.765 44.4407 124.918 43.857Z" fill="#F4B19F"/>
</g>
</g>
<g id="Group_65">
<g id="Group_66">
<path id="Vector_43" d="M89.2427 55.1704C88.256 53.1831 87.3944 51.0847 87.1999 48.8751C87.0053 46.6655 87.5334 44.303 89.0203 42.6632C90.2294 41.3291 92.3973 40.5925 93.8426 41.6765C94.4401 42.1212 94.8015 42.8021 95.1489 43.4692C97.7476 48.4165 100.138 53.461 102.306 58.6029C106.378 53.7251 110.672 49.0418 115.174 44.5531C117.148 45.8872 119.135 47.2213 121.108 48.5693C115.327 55.3788 111.658 61.7436 105.502 68.2056C104.946 68.7893 101.972 69.6787 101.166 69.6231C100.555 69.5953 100.054 69.1784 99.5959 68.7615C95.3434 64.926 91.7997 60.2983 89.2427 55.1704Z" fill="#EAE6DC"/>
</g>
<g id="Group_67">
<path id="Vector_44" d="M102.306 58.5757C100.138 53.4339 97.7473 48.3893 95.1486 43.442C94.8012 42.7889 94.4399 42.1079 93.8423 41.6493C92.8834 40.9267 91.591 41.0101 90.4932 41.5521C96.7745 47.0413 99.8319 55.1988 102.361 63.1061C103.57 62.2028 103.876 60.9938 104.182 59.479C104.487 58.8676 105.391 58.5757 105.696 58.27C109.337 53.6007 113.465 49.8207 117.578 46.1519C116.786 45.61 115.98 45.068 115.188 44.526C110.685 49.0147 106.391 53.7118 102.306 58.5757Z" fill="#FEFEFE"/>
</g>
<g id="Group_68">
<path id="Vector_45" d="M120.041 49.5149C117.998 48.3475 115.983 47.0551 114.065 45.6793L114.246 45.4292C116.163 46.7911 118.165 48.0835 120.193 49.2508L120.041 49.5149Z" fill="#2D3538"/>
</g>
</g>
</g>
<g id="Group_69">
<path id="Vector_46" d="M74.2626 132.033C88.8126 135.965 92.0506 130.393 102.404 130.073C101.32 112.368 100.25 94.7194 95.2885 77.5568C88.2845 78.1266 79.1959 77.6541 72.3865 76.0837C70.1074 80.5029 69.5098 85.4919 69.6766 90.3558C69.8434 95.2197 70.7605 100.042 71.372 104.878C72.6227 114.453 75.3187 122.416 74.2626 132.033Z" fill="#0B2347"/>
</g>
<g id="Group_70">
<g id="Group_71">
<path id="Vector_47" d="M96.7765 53.6272C96.3596 50.7506 95.5536 49.3609 94.7059 46.5815C94.3862 45.5392 94.2612 44.4275 93.9415 43.3852L67.3012 43.3574C66.1061 45.8867 66.5925 49.208 67.5792 51.9735C69.3163 56.8652 73.0128 60.7841 72.9017 65.9954C72.8322 69.8171 71.0812 73.3608 69.9416 77.0017C69.4691 78.5026 69.1078 80.0174 68.8299 81.5599L96.6653 81.5877C96.5958 81.3376 96.5125 81.1013 96.443 80.8512C94.6225 74.945 92.8854 68.5941 94.6086 62.6602C95.4702 59.6723 97.2212 56.7401 96.7765 53.6272Z" fill="#13A8B3"/>
</g>
<g id="Group_72">
<path id="Vector_48" d="M96.443 80.8649C94.6226 74.9587 92.8854 68.6078 94.6087 62.6738C95.4842 59.6582 97.2352 56.7399 96.7905 53.627C96.3736 50.7503 95.5675 49.3606 94.7198 46.5813C94.4002 45.539 94.2751 44.4273 93.9555 43.385L85.7563 43.3711C85.7563 47.1232 87.0071 50.3195 87.8965 54.2662C89.5224 63.466 88.7025 72.6796 88.7998 81.5736L96.6793 81.5875C96.5959 81.3512 96.5125 81.1011 96.443 80.8649Z" fill="#178E8E"/>
</g>
<g id="Group_73">
<g id="Group_74">
<path id="Vector_49" d="M92.5892 43.9474L77.6987 44.7339L77.7119 44.9837L92.6024 44.1972L92.5892 43.9474Z" fill="#EAE6DC"/>
</g>
</g>
</g>
<g id="Group_75">
<g id="Group_76">
<path id="Vector_50" d="M75.4584 36.9497C74.0965 37.714 72.7346 38.4645 71.3727 39.2288C70.4277 39.7569 68.7462 41.0354 67.9819 41.8136C65.4665 44.3845 65.939 48.6092 67.1619 52C68.9546 56.8917 72.7346 60.8106 72.6234 66.022C72.5539 69.8436 70.7473 73.3873 69.58 77.0283C67.1619 84.5465 67.3982 92.6762 68.4543 100.5C74.43 100.042 80.4196 99.6802 86.4091 99.43C86.1312 91.4949 84.2412 83.5459 84.9499 75.5413C87.5625 46.1494 84.3246 47.5669 75.4584 36.9497Z" fill="#FEFEFE"/>
</g>
<g id="Group_77">
<path id="Vector_51" d="M77.571 52.806C78.5993 68.3427 77.4598 84.616 80.6978 99.6941C82.6155 99.5968 84.5194 99.4995 86.4372 99.4162C86.1592 91.481 84.2693 83.532 84.978 75.5274C87.5628 46.1633 84.3249 47.5669 75.4725 36.9497C74.5554 37.4639 73.6521 37.9642 72.7349 38.4784C72.7488 38.6173 72.7488 38.7563 72.7488 38.8814C74.2496 43.7175 77.2652 47.956 77.571 52.806Z" fill="#EAE6DC"/>
</g>
<g id="Group_78">
<path id="Vector_52" d="M84.9649 75.5274C87.5497 46.1633 84.3117 47.5669 75.4594 36.9497C75.0286 37.186 74.5978 37.4361 74.167 37.6723C74.2504 38.2977 74.5005 38.9509 74.8618 39.4928C76.9742 45.5519 80.2955 51.2913 80.2955 58.2536C80.2955 59.1569 83.6169 59.7684 83.325 60.9774C82.7136 63.0897 79.684 64.9102 80.6012 67.634C83.7141 78.2512 84.2422 88.8684 84.7703 99.4856C85.3262 99.4578 85.8959 99.43 86.4518 99.4022C86.1461 91.481 84.27 83.532 84.9649 75.5274Z" fill="#FEFEFE"/>
</g>
<g id="Group_79">
<path id="Vector_53" d="M73.192 87.675L73.0947 87.3831C76.3744 86.3547 79.6402 85.1735 82.8225 83.8811L82.9337 84.159C79.7513 85.4515 76.4717 86.6327 73.192 87.675Z" fill="#2D3538"/>
</g>
<g id="Group_80">
<path id="Vector_54" d="M83.1018 60.4259C82.3374 59.6754 81.2396 59.2863 80.1695 59.3836L80.0167 59.3975L80.0028 59.2446C79.3496 51.782 77.2234 44.2916 73.8604 37.5933L74.1244 37.4543C77.4874 44.1387 79.6137 51.6014 80.2946 59.064C81.4064 59.0084 82.5181 59.4253 83.3102 60.2035L83.1018 60.4259Z" fill="#2D3538"/>
</g>
</g>
<g id="Group_81">
<g id="Group_82">
<path id="Vector_55" d="M96.7924 80.8676C94.9302 74.9614 93.1514 68.6106 94.9024 62.6766C95.7918 59.661 97.5984 56.7426 97.1398 53.6297C96.7229 50.7531 95.8891 49.3634 95.0136 46.584C94.555 45.0971 94.4855 43.4711 93.7073 42.137C92.5816 40.2054 90.0524 39.2326 87.4676 38.2876C87.3425 44.4578 91.5671 49.8498 91.2614 55.8116C91.2614 57.6876 90.0107 59.5637 90.0107 61.1341C89.9968 73.9609 91.859 86.5375 92.9429 99.1837C95.0414 99.1281 97.1398 99.0725 99.2382 99.0308C100.628 92.9996 98.6545 86.7599 96.7924 80.8676Z" fill="#FEFEFE"/>
</g>
<g id="Group_83">
<path id="Vector_56" d="M94.8051 59.7839C96.6256 52.8215 91.1919 47.374 89.9829 40.7174C89.9829 40.1893 89.9829 39.7585 90.0524 39.3138C89.2325 38.9386 88.357 38.6189 87.4676 38.2993C87.3425 44.4695 91.5671 49.8615 91.2614 55.8233C91.2614 57.6994 90.0107 59.5754 90.0107 61.1458C89.9968 73.9726 91.859 86.5493 92.9429 99.1954C94.1798 99.1537 95.4027 99.1259 96.6395 99.0981C95.0969 86.0629 91.6088 72.9998 94.8051 59.7839Z" fill="#EAE6DC"/>
</g>
<g id="Group_84">
<path id="Vector_57" d="M94.5133 57.6598C93.9018 57.3541 93.61 56.7565 92.6928 56.7565C92.6928 55.2418 94.5133 54.6442 94.5133 54.3385C93.9157 49.1966 89.9829 45.2638 89.3853 39.8163C89.3853 39.5383 89.3297 39.2743 89.3159 38.9963C88.7183 38.7462 88.0929 38.5238 87.4676 38.2876C87.3425 44.4578 91.5671 49.8498 91.2614 55.8116C91.2614 57.6876 90.0107 59.5637 90.0107 61.1341C89.9968 73.9609 91.859 86.5375 92.9429 99.1837C93.61 99.1698 94.2909 99.142 94.958 99.1281C94.9024 96.3348 94.7078 93.4999 94.1936 90.6371C92.3732 79.4501 90.5666 68.2493 94.5133 57.6598Z" fill="#FEFEFE"/>
</g>
<g id="Group_85">
<path id="Vector_58" d="M94.9044 82.5578L94.8213 82.8521L98.0713 83.7696L98.1543 83.4753L94.9044 82.5578Z" fill="#2D3538"/>
</g>
<g id="Group_86">
<path id="Vector_59" d="M92.8294 57.0315L92.5376 56.9342C92.8989 55.9058 93.5938 54.9886 94.4832 54.3633L94.6638 54.6134C93.83 55.1971 93.1769 56.0587 92.8294 57.0315Z" fill="#2D3538"/>
</g>
</g>
<g id="Group_87">
<g id="Group_88">
<g id="Group_89">
<path id="Vector_60" d="M75.0556 45.863C74.5553 44.4317 73.6937 43.0976 72.4152 42.2915C71.1367 41.4994 69.3996 41.3327 68.1211 42.1387C66.3562 43.2365 65.981 45.5712 65.6613 47.6279C64.6191 54.5208 62.5207 61.233 59.4355 67.4866C62.5623 68.3065 65.6058 69.5155 68.4407 71.072C69.9972 67.153 71.5675 63.2341 73.124 59.3152C73.9856 57.1612 74.8472 54.9933 75.3058 52.7281C75.7783 50.449 75.82 48.0449 75.0556 45.863Z" fill="#FEFEFE"/>
</g>
<g id="Group_90">
<path id="Vector_61" d="M75.0556 45.8622C74.9861 45.6537 74.9028 45.4453 74.8055 45.2368C73.6242 54.0613 69.5247 62.2883 63.5073 68.792C65.2027 69.4313 66.8426 70.1956 68.4407 71.0572C69.9972 67.1383 71.5675 63.2194 73.124 59.3005C73.9856 57.1464 74.8472 54.9785 75.3058 52.7133C75.7783 50.4481 75.82 48.044 75.0556 45.8622Z" fill="#EAE6DC"/>
</g>
</g>
<g id="Group_91">
<g id="Group_92">
<path id="Vector_62" d="M63.16 57.0898C61.7564 53.7823 60.5196 50.4193 59.4495 46.9868C59.4634 46.9729 59.4634 46.959 59.4773 46.9451C59.4912 46.7644 60.0054 45.4303 60.0054 45.2358C60.0332 44.3047 59.9637 43.3736 60.1444 42.4703C60.2416 42.0117 60.3945 41.5809 60.5474 41.1362C60.6169 40.9416 60.6863 40.7471 60.6863 40.5386C60.6863 40.3302 60.5891 40.1217 60.4084 40.0244C60.1861 39.9133 59.8942 40.0106 59.6997 40.1773C59.3245 40.5108 59.1716 41.0111 59.0048 41.4836C58.8242 41.9561 58.5601 42.4425 58.0737 42.5954C57.8236 42.6788 57.5873 42.651 57.3372 42.5815C57.3233 42.5676 57.3094 42.5398 57.2816 42.512C56.3227 41.3724 55.1554 40.4275 54.0575 39.4269C53.2793 38.4819 52.515 37.5508 51.7368 36.6058C51.5978 36.4391 51.4032 36.2723 51.2226 36.3557C50.8752 36.5085 51.1948 37.2034 50.8474 37.3424C50.6667 37.4118 50.4721 37.2312 50.2776 37.2034C50.0413 37.1756 49.819 37.384 49.7634 37.6064C49.6939 37.8287 49.7356 38.0789 49.7912 38.3151C49.5411 38.204 49.2353 38.3985 49.1241 38.6626C49.013 38.9127 49.0269 39.2045 48.9991 39.4825C48.9852 39.677 48.9296 39.8855 48.9574 40.08C48.9852 40.358 49.1519 40.6081 49.2909 40.8444C49.8468 41.7893 50.2359 42.8177 50.7223 43.7905C50.8474 44.0545 51.0002 44.3186 51.1531 44.5687C51.3615 45.3608 51.6256 46.1252 52.0842 46.7922C52.6817 47.6538 53.5711 48.2931 54.5439 48.6822C54.5578 48.6961 54.5856 48.6961 54.5995 48.6961C55.878 52.1008 56.823 55.6167 57.4345 59.1882C59.2967 58.3822 61.2144 57.6596 63.16 57.0898Z" fill="#F4B19F"/>
</g>
<g id="Group_93">
<path id="Vector_63" d="M51.8345 43.5532C53.7383 43.984 55.4338 45.3181 56.2815 47.083C56.2537 45.8323 56.5316 44.5815 57.0736 43.4559C56.5316 42.761 55.9896 42.0801 55.4477 41.3853C54.5583 42.0801 53.5994 42.6777 52.571 43.1502L51.8345 43.5532Z" fill="#E59A8C"/>
</g>
</g>
<g id="Group_94">
<g id="Group_95">
<path id="Vector_64" d="M63.8985 73.3914C65.6217 73.85 67.4978 72.7521 68.3177 71.1818C69.1515 69.6114 69.082 67.6798 68.554 65.9843C68.0398 64.275 67.1087 62.7325 66.2471 61.176C64.1765 57.4378 62.4393 53.5188 61.0497 49.4749C58.8123 50.4198 56.4498 51.0174 54.0317 51.2398C55.6299 57.7157 57.2697 64.2889 60.5216 70.1117C61.3276 71.5153 62.3421 72.9745 63.8985 73.3914Z" fill="#EAE6DC"/>
</g>
<g id="Group_96">
<path id="Vector_65" d="M68.565 65.9843C68.0508 64.275 67.1198 62.7325 66.2581 61.176C64.1875 57.4378 62.4504 53.5188 61.0607 49.4749C60.4076 49.7528 59.7405 49.989 59.0596 50.2114C60.755 54.0608 63.4232 57.41 65.4521 60.9676C66.8835 63.6914 68.3288 66.832 68.7735 69.9588C69.0931 68.6664 68.9541 67.2628 68.565 65.9843Z" fill="#FEFEFE"/>
</g>
<g id="Group_97">
<path id="Vector_66" d="M54.2233 52.992L54.1816 52.6863C56.7665 52.3111 59.3235 51.6579 61.7832 50.7546L61.8944 51.0326C59.4069 51.9637 56.8359 52.6168 54.2233 52.992Z" fill="#2D3538"/>
</g>
</g>
</g>
</g>
</g>
</g>
<g id="Clip path group_2">
<mask id="mask1_1_2896" style="mask-type:luminance" maskUnits="userSpaceOnUse" x="22" y="7" width="161" height="163">
<g id="SVGID_4__2">
<path id="Vector_67" d="M182.867 7.08545H22.2329V169.29H182.867V7.08545Z" fill="white"/>
</g>
</mask>
<g mask="url(#mask1_1_2896)">
<g id="Group_98">
<g id="Group_99">
<path id="Vector_68" d="M39.5619 111.336C37.0326 106.986 34.823 102.428 32.9748 97.745C32.2799 95.994 31.6268 94.1874 31.4322 92.3113C31.2376 90.4352 31.5295 88.448 32.5995 86.8915C33.9058 84.9876 36.2405 83.9454 38.5474 83.8759C40.8543 83.7925 43.1195 84.5846 45.1206 85.7381C49.2619 88.1144 52.3331 91.9361 55.2931 95.6604C59.7679 101.289 64.2705 106.931 67.9393 113.115C68.6897 114.38 69.4262 115.7 69.7181 117.159C70.0099 118.604 69.7876 120.23 68.8148 121.342C67.5363 122.815 65.3545 123.037 63.4089 123.135C57.7112 123.399 51.6243 123.287 46.8855 120.119C43.717 117.965 41.4935 114.657 39.5619 111.336Z" fill="#0B2347"/>
<path id="Vector_69" d="M30.1955 61.1836C32.2105 60.461 34.4062 61.6422 36.0878 62.9624C40.9239 66.7423 44.5232 72.0509 46.2325 77.9432C46.5382 78.9716 46.7606 80.1667 46.1491 81.07C45.5099 82.015 44.2174 82.2096 43.0779 82.3068C40.2568 82.5153 37.4219 82.5848 34.6008 82.4875C33.4196 82.4458 32.155 82.3485 31.21 81.6398C30.0982 80.7921 29.7091 79.319 29.4034 77.9571C28.8336 75.3723 28.2916 72.7875 27.7635 70.1888C27.4161 68.5211 27.0826 66.8118 27.3327 65.1303C27.5968 63.4349 28.5974 61.7673 30.1955 61.1836Z" fill="#0B2347"/>
<g id="Group_100">
<g id="Group_101">
<g id="Group_102">
<path id="Vector_70" d="M151.193 128.195C156.321 129.46 161.547 130.752 166.049 133.504C166.883 134.004 167.759 134.574 168.731 134.49C169.94 134.379 170.816 133.239 171.219 132.086C171.622 130.933 171.719 129.682 172.192 128.57C172.789 127.18 173.929 126.124 174.804 124.887C176.319 122.747 177 120.051 176.666 117.453C175.916 117.453 175.291 117.981 174.735 118.495C173.262 119.843 171.83 121.233 170.19 122.372C168.565 123.512 166.702 124.415 164.729 124.637C162.728 124.86 160.713 124.401 158.753 123.929C155.724 123.206 152.819 121.649 150.082 120.176C149.498 122.511 148.233 125.11 146.997 126.916L151.193 128.195Z" fill="#F4BB91"/>
</g>
<g id="Group_103">
<path id="Vector_71" d="M132.252 109.804C128.82 107.984 125.331 106.136 121.538 105.344C114.77 103.926 107.835 105.983 101.054 107.331C94.2719 108.693 86.6703 109.207 80.9865 105.26C77.0676 108.846 73.1626 112.417 69.2437 116.002C70.4944 117.211 73.5378 122.478 73.5378 122.478C74.8302 126.87 76.8452 127.509 81.3895 128.051C85.9338 128.607 90.4781 127.342 94.8417 125.967C99.65 124.452 104.417 122.77 109.114 120.936C111.712 119.921 114.408 118.851 117.174 119.101C119.272 119.296 121.218 120.241 123.122 121.103C132.864 125.55 143.258 128.593 153.862 130.108C154.807 127.662 155.752 125.23 156.697 122.784C148.539 118.476 140.396 114.14 132.252 109.804Z" fill="#0B2347"/>
</g>
</g>
<g id="Group_104">
<g id="Group_105">
<g id="Group_106">
<path id="Vector_72" d="M149.708 130.111C154.808 131.487 159.991 132.905 164.452 135.754C165.272 136.282 166.134 136.865 167.107 136.796C168.329 136.713 169.219 135.601 169.65 134.447C170.08 133.308 170.192 132.057 170.706 130.945C171.331 129.57 172.499 128.541 173.402 127.318C174.958 125.22 175.695 122.524 175.431 119.925C174.68 119.911 174.041 120.425 173.471 120.926C171.97 122.246 170.497 123.594 168.844 124.706C167.19 125.817 165.314 126.665 163.327 126.846C161.325 127.026 159.324 126.512 157.365 125.998C154.349 125.206 151.486 123.594 148.777 122.051C148.151 124.372 146.817 126.943 145.539 128.722L149.708 130.111Z" fill="#FFC89F"/>
</g>
<g id="Group_107">
<path id="Vector_73" d="M131.183 111.311C127.792 109.407 124.346 107.489 120.566 106.614C113.826 105.043 106.85 106.933 100.04 108.142C93.2309 109.351 85.6155 109.699 80.0289 105.627C76.0405 109.115 72.0382 112.617 68.0498 116.105C69.2727 117.342 72.1911 122.678 72.1911 122.678C73.3862 127.098 75.3873 127.779 79.9177 128.432C84.4481 129.085 89.0202 127.931 93.4116 126.639C98.2477 125.222 103.056 123.651 107.795 121.928C110.407 120.969 113.131 119.955 115.897 120.274C117.981 120.511 119.913 121.497 121.803 122.414C131.447 127.07 141.759 130.349 152.334 132.114C153.335 129.696 154.335 127.278 155.336 124.86C147.29 120.344 139.23 115.827 131.183 111.311Z" fill="#1B1A2E"/>
</g>
<g id="Group_108">
<path id="Vector_74" d="M86.5885 112.772C97.4836 110.66 107.462 107.936 118.051 107.936C120.163 107.936 122.29 109.145 124.402 110.048C133.171 114.884 140.745 120.638 149.819 124.265C151.473 124.904 153.141 125.502 154.822 126.085C154.989 125.668 155.17 125.265 155.336 124.849C147.29 120.332 139.244 115.816 131.197 111.299C127.807 109.395 124.36 107.477 120.58 106.602C113.84 105.032 106.864 106.922 100.055 108.131C93.2451 109.34 85.6296 109.687 80.0431 105.615C78.9452 106.574 77.8474 107.533 76.7495 108.492C79.4038 111.132 82.6418 113.467 86.5885 112.772Z" fill="#0F5C98"/>
</g>
</g>
<g id="Group_109">
<g id="Group_110">
<g id="Group_111">
<path id="Vector_75" d="M49.4296 57.3877C50.6942 57.4294 51.9727 57.485 53.1679 57.888C54.363 58.291 55.4886 59.1109 55.9472 60.2782C56.3085 61.1954 56.2391 62.2377 56.0167 63.1966C55.5581 65.1005 54.5158 66.8098 53.96 68.672C53.4041 70.548 54.4881 75.2174 55.9055 76.5654C53.9044 78.4831 49.8187 76.8572 47.1505 76.1207C44.4823 75.3841 42.2588 73.1606 41.5362 70.4924C40.9247 68.2411 41.3138 65.7953 42.3561 63.6969C43.3844 61.6123 45.0104 59.8474 46.8309 58.3883L49.4296 57.3877Z" fill="#1B1A2E"/>
</g>
</g>
<g id="Group_112">
<g id="Group_113">
<path id="Vector_76" d="M52.9864 77.4978C52.7224 76.122 52.6946 74.7184 52.7085 73.3148C50.3877 73.1758 48.0808 73.023 45.8156 72.5088C46.6216 76.4277 46.2325 80.5829 44.7178 84.2794C48.0669 82.723 51.8191 82.0559 55.5017 82.3617C54.1121 81.111 53.3338 79.3183 52.9864 77.4978Z" fill="#FFC89F"/>
</g>
<g id="Group_114">
<path id="Vector_77" d="M55.4879 82.3464C54.1121 81.0957 53.3339 79.303 52.9865 77.4825C52.7224 76.1067 52.6946 74.7031 52.7085 73.2996C50.8742 73.1884 49.0398 73.0772 47.2471 72.7715C47.9419 76.3847 49.818 79.7755 52.4445 82.3186C53.459 82.2631 54.4734 82.263 55.4879 82.3464Z" fill="#F4BB91"/>
</g>
<g id="Group_115">
<path id="Vector_78" d="M52.793 75.994C52.7096 75.1046 52.7096 74.2152 52.7235 73.3119C50.7363 73.1868 48.749 73.0618 46.7896 72.7004C47.804 75.3131 50.1526 76.0079 52.793 75.994Z" fill="#1B1A2E"/>
</g>
</g>
<g id="Group_116">
<g id="Group_117">
<g id="Group_118">
<path id="Vector_79" d="M55.9912 66.6559C55.4631 65.9332 54.6849 65.4052 54.268 64.613C53.9901 64.0989 53.8928 63.5013 53.7121 62.9454C53.1284 61.2083 51.6554 59.8186 49.8905 59.3322C49.418 59.1933 48.9177 59.1377 48.4313 59.1377C46.319 58.8736 44.0816 59.5824 42.5668 61.0971C40.663 62.9732 39.9959 65.9888 40.927 68.5042C41.8442 71.0056 44.3178 72.8678 46.986 73.0623C47.125 73.0762 47.264 73.0762 47.4029 73.0762C47.8893 73.3264 48.3896 73.5487 48.9038 73.7294C51.1551 74.5493 53.587 74.8272 55.9634 74.5771C56.3942 74.5354 56.7277 74.1741 56.7416 73.7433C56.7555 72.6593 56.9223 71.5615 56.9501 70.4775C56.9779 69.1295 56.7833 67.7259 55.9912 66.6559Z" fill="#FFC89F"/>
</g>
<g id="Group_119">
<path id="Vector_80" d="M49.0706 65.5697C49.3207 63.5964 50.1684 61.623 50.3074 59.4829C50.1684 59.4273 50.0294 59.3856 49.8905 59.3439C49.418 59.205 48.9177 59.1494 48.4313 59.1494C46.319 58.8853 44.0816 59.5941 42.5668 61.1088C40.663 62.9849 39.9959 66.0005 40.927 68.5159C41.8442 71.0173 44.3178 72.8795 46.986 73.0741C47.125 73.0879 47.264 73.0879 47.4029 73.0879C47.8893 73.3381 48.3896 73.5604 48.9038 73.7411C50.2935 74.2414 51.7527 74.5332 53.2118 74.6305C50.6548 72.1708 48.8899 69.0718 49.0706 65.5697Z" fill="#F4BB91"/>
</g>
</g>
<g id="Group_120">
<g id="Group_121">
<path id="Vector_81" d="M53.6262 71.7576L53.5845 71.4519C54.5434 71.3268 55.4467 70.9655 56.2249 70.3818L56.4055 70.6181C55.5995 71.2434 54.6267 71.6326 53.6262 71.7576Z" fill="#2D3538"/>
</g>
<g id="Group_122">
<path id="Vector_82" d="M54.7108 69.2984L54.4745 69.1039L55.4612 67.867C55.5585 67.7559 55.6279 67.6586 55.6418 67.5474C55.6557 67.3806 55.5029 67.2278 55.3222 67.0749L54.2799 66.1855C53.9881 65.9354 53.6546 65.6574 53.4461 65.2961C53.196 64.8653 53.1821 64.3789 53.3767 64.0315L53.6407 64.1844C53.46 64.504 53.5573 64.8931 53.7102 65.1571C53.8908 65.4768 54.1827 65.7269 54.4745 65.9771L55.5168 66.8665C55.753 67.061 55.9615 67.2973 55.9337 67.5891C55.9198 67.7837 55.7947 67.9504 55.6974 68.0616L54.7108 69.2984Z" fill="#2D3538"/>
</g>
<g id="Group_123">
<g id="Group_124">
<path id="Vector_83" d="M49.4593 66.5447L49.1675 66.4474C49.4871 65.4886 50.0291 64.6131 50.7656 63.9182L50.9741 64.1406C50.2792 64.8076 49.765 65.6414 49.4593 66.5447Z" fill="#2D3538"/>
</g>
<g id="Group_125">
<path id="Vector_84" d="M51.4596 67.311C51.3763 67.0748 51.279 66.8524 51.14 66.6301C51.0705 66.505 50.9455 66.3799 50.8065 66.4077C50.6258 66.4494 50.6119 66.6996 50.6675 66.8663C50.7509 67.1165 50.9177 67.3388 51.1261 67.5056C51.2234 67.5751 51.3763 67.6306 51.4457 67.5473C51.5013 67.4778 51.4874 67.3805 51.4596 67.311Z" fill="#2D3538"/>
</g>
</g>
<g id="Group_126">
<g id="Group_127">
<path id="Vector_85" d="M53.6017 63.7239L53.3794 63.5154C53.5045 63.3765 53.6017 63.2097 53.6434 63.0151L53.9353 63.0846C53.8936 63.3209 53.7685 63.5432 53.6017 63.7239Z" fill="#2D3538"/>
</g>
<g id="Group_128">
<path id="Vector_86" d="M54.4339 65.3371C54.3922 65.1426 54.3088 64.948 54.2254 64.7535C54.1699 64.6562 54.0865 64.5311 53.9753 64.545C53.8224 64.5589 53.7946 64.7674 53.8363 64.9063C53.8919 65.1148 54.0031 65.3093 54.156 65.4622C54.2254 65.5317 54.3505 65.5873 54.42 65.5178C54.4617 65.4761 54.4478 65.4066 54.4339 65.3371Z" fill="#2D3538"/>
</g>
</g>
</g>
</g>
<g id="Group_129">
<g id="Group_130">
<g id="Group_131">
<path id="Vector_87" d="M50.4834 74.937C50.5807 74.937 50.678 74.9231 50.7752 74.9092C50.678 74.9092 50.5807 74.9092 50.4834 74.937Z" fill="#1B1A2E"/>
</g>
<g id="Group_132">
<path id="Vector_88" d="M47.8573 74.2975C47.3849 73.0467 47.4682 71.6293 47.5655 70.2813C47.6906 68.4747 47.8157 66.682 47.9546 64.8754C48.4688 64.2778 48.9135 63.6108 49.2748 62.8742C50.2337 60.9148 50.4561 58.4828 49.6084 56.4678C47.4682 57.107 45.2169 57.2182 43.1185 57.9964C41.5343 58.5801 39.9917 59.7057 39.1996 61.2344H39.1857V61.2483C38.9356 61.7347 38.7549 62.2628 38.6854 62.8325C38.5187 64.1111 38.8661 65.4035 39.0884 66.6959C39.005 67.4324 38.9217 68.1689 38.8522 68.9055C38.6298 71.4625 38.741 74.228 40.1446 76.3125C41.0618 77.6605 42.4793 78.6055 44.0218 78.8556C45.5505 79.1197 47.1764 78.6889 48.4271 77.7022C49.0803 77.188 49.7195 76.4932 50.4978 76.3264C49.3582 76.4237 48.2882 75.4509 47.8573 74.2975Z" fill="#1B1A2E"/>
</g>
</g>
</g>
</g>
<g id="Group_133">
<g id="Group_134">
<path id="Vector_89" d="M49.1366 91.5899C49.8871 93.0074 51.5547 93.605 53.0833 94.1053C60.4209 96.4539 67.8557 98.8302 75.5546 99.2471C77.4307 99.3444 79.6542 99.1637 80.6686 97.5656C81.4191 96.3983 81.1828 94.8001 80.4185 93.6467C79.6542 92.4932 78.4312 91.715 77.1805 91.1175C73.0531 89.1163 68.3282 88.6855 64.1036 86.9206C61.7828 85.9617 59.5732 84.5859 57.0856 84.2941C54.876 84.0439 52.5831 84.7249 50.8737 86.1285C49.2617 87.4348 48.1777 89.7694 49.1366 91.5899Z" fill="#0F5C98"/>
</g>
<g id="Group_135">
<g id="Group_136">
<g id="Group_137">
<path id="Vector_90" d="M54.6276 80.519C51.3202 81.5196 47.7764 81.7281 44.3856 81.1027C42.857 85.8276 42.2733 91.164 44.4273 95.6388C46.1366 99.1547 49.319 101.712 52.557 103.894C55.7949 106.089 59.2414 108.077 61.8679 110.981C64.55 113.941 66.2176 117.651 67.7324 121.334C68.1076 122.251 68.8302 123.349 69.7891 123.071C70.1087 122.974 70.3589 122.724 70.5951 122.488C75.4034 117.693 83.4775 111.189 90.009 109.286C88.4387 106.659 84.7838 106.909 82.4074 104.978C79.4335 102.546 75.4312 101.406 73.0271 98.4043C70.4283 95.1385 70.2616 90.2746 67.2321 87.398C63.7023 84.0627 57.3931 84.5074 54.6276 80.519Z" fill="#116EB6"/>
</g>
<g id="Group_138">
<path id="Vector_91" d="M83.6712 106.1C81.9758 106.295 80.9752 103.64 79.2937 103.849C78.6822 103.932 78.1958 104.391 77.7094 104.794C77.1119 105.308 76.4587 105.753 75.7778 106.142C72.6787 102.737 72.6649 102.265 70.6498 98.2484C65.9388 89.6602 51.9863 87.2143 43.3147 85.4077C42.7449 88.9097 42.8978 92.4812 44.4264 95.6358C46.1357 99.1517 49.3181 101.709 52.5561 103.891C55.7941 106.086 59.2405 108.074 61.867 110.978C64.5491 113.938 66.2167 117.648 67.7315 121.331C67.9955 121.984 68.4402 122.735 69.0239 122.999C69.2045 122.818 69.3852 122.637 69.5658 122.457C72.7899 119.163 76.1808 115.814 79.9468 113.076C79.8634 112.868 79.7939 112.673 79.7106 112.465C81.6422 110.825 83.0736 108.574 83.6712 106.1Z" fill="#0F5C98"/>
</g>
<path id="Vector_92" d="M77.6663 102.599C77.3466 103.461 76.5545 104.031 75.8597 104.628C75.1509 105.212 74.4422 105.934 74.3727 106.852C74.3032 107.727 74.8591 108.547 74.8035 109.422C74.7896 109.645 74.734 109.881 74.7479 110.103C74.7479 110.326 74.8174 110.576 74.9981 110.715C75.1648 110.84 75.4011 110.854 75.6095 110.854C76.6518 110.882 77.6941 110.896 78.7224 110.923C79.5007 110.937 80.3206 110.951 81.0015 110.576C81.8631 110.103 82.3356 109.131 82.5858 108.172C82.9749 106.726 83.0027 105.198 82.683 103.739C82.6553 103.614 82.6136 103.475 82.5163 103.391C82.419 103.308 82.2939 103.294 82.1828 103.28C81.1544 103.141 80.126 103.016 79.1116 102.877L77.6663 102.599Z" fill="#0B2347"/>
<g id="Group_139">
<path id="Vector_93" d="M69.4408 122.485L69.1768 122.221C74.8328 116.565 81.1837 111.617 88.0348 107.49L88.2294 107.824C81.3921 111.923 75.0829 116.856 69.4408 122.485Z" fill="#2D3538"/>
</g>
</g>
<g id="Group_140">
<path id="Vector_94" d="M45.9813 83.1992C45.2448 83.1992 44.4943 83.1714 43.7578 83.1019L43.7856 82.7962C47.5656 83.1297 51.4428 82.5878 55.0004 81.2537L55.1116 81.5316C52.2071 82.6433 49.0803 83.1992 45.9813 83.1992Z" fill="#2D3538"/>
</g>
</g>
<g id="Group_141">
<g id="Group_142">
<path id="Vector_95" d="M76.7071 92.6618C75.373 93.2871 74.9978 95.0243 75.1506 96.4973C75.4564 99.3879 77.0823 102.084 76.9016 104.974C78.9862 105.377 81.1402 105.336 83.2108 104.863C83.6416 103.098 84.0863 101.306 84.0585 99.4851C84.0446 97.6647 83.5166 95.7886 82.2658 94.4684C81.4737 93.6485 80.4453 93.0787 79.3753 92.7174C78.5137 92.4533 77.5409 92.2866 76.7071 92.6618Z" fill="#0F5C98"/>
</g>
<g id="Group_143">
<path id="Vector_96" d="M82.2799 94.4825C81.988 94.1629 81.6406 93.8988 81.2793 93.6626C82.5022 97.4564 81.1403 101.417 80.0425 105.253C81.1125 105.239 82.1687 105.114 83.211 104.877C83.6418 103.112 84.0865 101.32 84.0587 99.4993C84.0448 97.6788 83.5306 95.8027 82.2799 94.4825Z" fill="#116EB6"/>
</g>
<g id="Group_144">
<path id="Vector_97" d="M81.431 93.7734C80.8057 93.3287 80.1108 92.9813 79.3743 92.7311C78.5127 92.4393 77.526 92.2725 76.7061 92.6616C75.372 93.287 74.9968 95.0241 75.1497 96.4972C75.3442 98.3455 76.0808 100.124 76.5393 101.917C77.526 98.7624 78.8045 95.7884 81.431 93.7734Z" fill="#0B2347"/>
</g>
<g id="Group_145">
<path id="Vector_98" d="M81.6529 98.8181C79.7073 98.9571 77.9007 100.277 77.192 102.098C76.914 102.793 76.8306 103.654 77.3309 104.21C77.6367 104.558 78.1092 104.696 78.5678 104.794C79.346 104.947 80.152 104.988 80.9441 104.891C81.4722 104.835 82.0003 104.71 82.4311 104.405C83.1398 103.89 83.4317 102.945 83.3622 102.07C83.3066 101.208 82.0003 99.6241 81.6529 98.8181Z" fill="#0B2347"/>
</g>
<path id="Vector_99" d="M82.6676 102.387C82.0006 102.318 81.4308 101.929 80.8332 101.623C80.2357 101.331 79.513 101.123 78.9155 101.428C78.4152 101.679 78.1511 102.22 77.8593 102.707C77.2895 103.638 76.5252 104.444 75.608 105.055C75.0938 105.403 74.4685 105.778 74.4268 106.403C74.399 106.89 74.7742 107.335 74.7603 107.821C74.7464 108.113 74.6074 108.405 74.5379 108.683C74.4824 108.849 74.4407 109.016 74.4407 109.197C74.4268 109.53 74.5935 109.892 74.9132 109.989C75.2467 110.086 75.5941 109.85 75.9276 109.947C76.2334 110.031 76.4001 110.35 76.6642 110.531C76.8865 110.698 77.1783 110.767 77.4563 110.711C77.7064 110.656 77.9288 110.517 78.1789 110.517C78.568 110.503 78.9571 110.809 79.3185 110.656C79.5825 110.545 79.7215 110.197 79.9994 110.142C80.2496 110.086 80.4858 110.281 80.7359 110.253C80.9305 110.225 81.0834 110.044 81.1945 109.878C81.403 109.572 81.5836 109.238 81.7226 108.905C81.8199 108.724 81.9033 108.544 81.9728 108.363C82.7232 106.431 82.9594 104.374 82.6676 102.387Z" fill="#FFC89F"/>
<path id="Vector_100" d="M80.5414 108.518C80.4024 108.434 80.3051 108.309 80.2357 108.17C80.0272 108.323 79.7493 108.365 79.4574 108.198C79.2768 108.087 79.11 107.962 78.9432 107.837C78.8321 107.753 78.7348 107.642 78.6653 107.517C78.4707 107.684 78.2206 107.767 77.9844 107.67C77.5953 107.531 77.2478 107.337 76.9143 107.086C76.8726 107.059 76.8309 107.017 76.7892 106.975C76.4974 107.225 76.0388 107.225 75.7609 106.947L75.7331 106.92C75.5802 106.767 75.5107 106.558 75.5107 106.364C75.1633 106.294 74.8159 106.239 74.4546 106.197C74.4407 106.253 74.4268 106.308 74.4268 106.378C74.399 106.864 74.7742 107.309 74.7603 107.795C74.7464 108.087 74.6074 108.379 74.5379 108.657C74.4824 108.824 74.4407 108.99 74.4407 109.171C74.4268 109.504 74.5935 109.866 74.9132 109.963C75.2467 110.06 75.5941 109.824 75.9276 109.921C76.2334 110.005 76.4001 110.324 76.6642 110.505C76.8865 110.672 77.1783 110.741 77.4563 110.686C77.7064 110.63 77.9288 110.491 78.1789 110.491C78.568 110.477 78.9571 110.783 79.3185 110.63C79.5825 110.519 79.7215 110.172 79.9994 110.116C80.2496 110.06 80.4858 110.255 80.7359 110.227C80.9305 110.199 81.0834 110.019 81.1945 109.852C81.3613 109.616 81.4864 109.366 81.6114 109.101C81.2362 108.962 80.8888 108.74 80.5414 108.518Z" fill="#F4BB91"/>
</g>
<g id="Group_146">
<g id="Group_147">
<path id="Vector_101" d="M92.9129 73.3031C92.8712 73.1225 92.6628 73.0391 92.4821 73.053C92.3014 73.0669 92.1486 73.1781 91.9957 73.2753C89.4665 74.8874 86.6454 76.0408 83.6993 76.6384C82.115 76.4299 84.5748 75.7351 84.9222 75.1236C85.2418 74.5539 85.2279 73.8034 84.9222 73.2198C83.5464 74.7762 81.309 75.3043 79.8221 76.7496C79.3912 77.1665 79.0299 77.6807 78.891 78.2643C78.752 78.8202 78.8215 79.4178 78.8076 79.9875C78.7798 80.5712 78.6408 81.1966 78.1822 81.544L77.3623 83.2394L80.6003 84.5735C80.9477 82.8642 82.1984 81.405 83.6298 80.3628C85.2001 79.2371 87.0067 78.5006 88.7021 77.5556C90.3837 76.6106 92.0235 75.3877 92.8434 73.6367C92.899 73.5394 92.9407 73.4143 92.9129 73.3031Z" fill="#FFC89F"/>
</g>
<g id="Group_148">
<g id="Group_149">
<path id="Vector_102" d="M44.0639 91.145C44.1751 93.1044 45.4953 94.7721 46.9267 96.1062C50.6649 99.5387 55.5149 101.484 60.351 103.013C63.5751 104.027 66.8548 104.903 70.0372 106.056C72.6081 106.987 75.4291 105.542 76.2352 102.93C78.3197 96.2034 80.6266 89.5468 83.1419 82.9597C79.765 81.4172 81.113 82.0286 77.736 80.4861C74.6509 86.1282 72.7332 91.7842 68.5363 96.6481C64.395 93.8966 58.4889 90.8115 54.3476 88.0599C52.944 87.1288 51.4709 86.1699 49.8033 85.9753C48.3441 85.7947 46.8155 86.2533 45.7176 87.2261C44.6059 88.1988 43.9666 89.6858 44.0639 91.145Z" fill="#116EB6"/>
</g>
<g id="Group_150">
<path id="Vector_103" d="M82.1829 82.5291C78.8755 89.4636 77.6803 97.4404 71.7603 102.791C70.857 104 68.7308 102.791 66.9242 102.485C65.4094 101.873 63.8946 100.97 62.3799 100.373C57.0018 98.8579 51.7627 97.3987 46.6069 95.8145C46.7181 95.9117 46.8154 96.0229 46.9266 96.1202C50.6648 99.5527 55.5148 101.498 60.3509 103.027C63.575 104.041 66.8547 104.917 70.0371 106.07C72.608 107.001 75.429 105.556 76.2351 102.944C78.3196 96.2175 80.6265 89.5609 83.1418 82.9737C82.7666 82.7931 82.447 82.6541 82.1829 82.5291Z" fill="#0F5C98"/>
</g>
<g id="Group_151">
<path id="Vector_104" d="M71.7324 106.502C70.7041 106.502 69.6062 106.21 68.5084 105.863L57.5576 102.5L57.641 102.208L68.5917 105.571C70.2733 106.085 71.8853 106.502 73.3167 105.891C74.9982 105.168 75.8042 103.292 76.4852 101.416L76.7631 101.513C76.0682 103.445 75.2344 105.39 73.4417 106.155C72.8859 106.419 72.3161 106.502 71.7324 106.502Z" fill="#2D3538"/>
</g>
</g>
</g>
</g>
</g>
</g>
<g id="Group_152">
<path id="Vector_105" d="M70.7473 131.129C74.0965 133.742 79.1132 133.422 83.3935 132.45C93.5521 130.129 102.891 124.931 113.3 123.945C123.486 122.986 133.589 126.196 142.872 130.129C152.155 134.062 161.119 138.787 171.013 141.218C172.403 141.552 174.043 141.802 175.127 140.954C176.225 140.093 176.141 138.439 175.349 137.341C174.557 136.243 173.251 135.549 171.986 134.895C163.662 130.615 155.338 126.321 147.013 122.041C141.76 119.331 136.48 116.621 130.824 114.703C125.167 112.785 119.067 111.688 113.063 112.355C99.9724 113.786 89.0078 123.278 75.8336 123.861C73.4016 123.972 70.4694 123.986 69.2187 125.876C68.0652 127.558 69.0936 129.837 70.7473 131.129Z" fill="#006BA2"/>
</g>
<g id="Group_153">
<g id="Group_154">
<g id="Group_155">
<g id="Group_156">
<path id="Vector_106" d="M28.14 62.7827C26.9309 63.4914 27.0282 64.5615 27.1394 65.5482L28.807 80.6958C29.0433 82.8359 30.9193 84.4062 33.0595 84.2534L41.3698 83.6975C42.7456 83.6002 43.8017 82.419 43.7045 81.0293C43.3987 76.2905 41.6338 71.6489 38.6877 67.9106C36.6032 65.2563 33.8099 63.0051 30.4607 62.4075C29.6825 62.2824 28.8487 62.3797 28.14 62.7827Z" fill="#006BA2"/>
</g>
</g>
<g id="Group_157">
<g id="Group_158">
<path id="Vector_107" d="M28.3458 66.9084C27.4147 67.4504 27.4842 68.2842 27.5676 69.0486L28.86 80.7497C29.0406 82.4035 30.4859 83.6125 32.1535 83.5013L38.5739 83.0705C39.644 83.001 40.45 82.0838 40.3805 81.0138C40.1443 77.3589 38.7824 73.7735 36.5172 70.8829C34.9051 68.8401 32.7511 67.0891 30.1663 66.6305C29.5409 66.5054 28.8878 66.5888 28.3458 66.9084Z" fill="#0B2347"/>
</g>
</g>
<g id="Group_159">
<g id="Group_160">
<path id="Vector_108" d="M27.8329 68.9145C26.9713 69.4148 27.0407 70.1791 27.1102 70.8879L28.3054 81.7135C28.4721 83.2422 29.8201 84.3678 31.3488 84.2567L37.2966 83.8537C38.2833 83.7842 39.0337 82.9365 38.9643 81.9498C38.7419 78.5589 37.4912 75.2515 35.3789 72.5833C33.8919 70.6933 31.8908 69.0813 29.5005 68.6505C28.9307 68.5671 28.3332 68.6227 27.8329 68.9145Z" fill="#CCD9E2"/>
</g>
</g>
<path id="Vector_109" d="M27.9161 71.6607C28.2774 71.0075 29.0417 70.6323 29.7922 70.6323C30.5426 70.6462 31.2513 71.0075 31.7794 71.5356C32.5299 72.2999 32.9051 73.3561 33.2247 74.3845C34.1697 77.3584 34.9618 80.3879 35.615 83.4313C33.6416 83.2924 31.6405 83.4313 29.7088 83.8483C29.0834 80.6242 28.4581 77.414 27.8188 74.1899C27.6382 73.3422 27.4853 72.4111 27.9161 71.6607Z" fill="#AEC3CE"/>
<g id="Group_161">
<path id="Vector_110" d="M42.1749 82.7793C42.0777 83.0573 41.9526 83.2935 41.7997 83.5159C41.9387 83.4881 42.0777 83.4603 42.2166 83.4186C42.3139 83.2379 42.3973 83.0573 42.4668 82.8627C42.7725 81.9316 42.7169 80.9311 42.6057 80.0695C41.9387 74.4134 38.8814 69.0353 34.2398 65.2971C33.3643 64.5883 32.1692 63.7267 30.7656 63.3376C29.5427 62.9902 28.3059 63.0875 27.3192 63.5739C27.2775 63.6989 27.2358 63.8379 27.208 63.9769C28.153 63.421 29.4176 63.282 30.6822 63.6295C32.0302 64.0047 33.1837 64.8524 34.0453 65.5333C38.6312 69.216 41.633 74.5246 42.3 80.0973C42.3973 80.945 42.4529 81.9038 42.1749 82.7793Z" fill="#13A8B3"/>
</g>
</g>
<g id="Group_162">
<g id="Group_163">
<path id="Vector_111" d="M30.363 89.8939C29.8905 92.3397 31.1412 94.7578 32.3641 96.9257C36.2691 103.916 40.1742 110.906 44.0792 117.896C44.9686 119.494 45.9831 121.204 47.6924 121.857C48.8319 122.301 50.0826 122.204 51.3056 122.093C55.4051 121.732 59.4908 121.37 63.5904 121.009C66.2308 120.773 67.69 117.827 66.2725 115.589L55.697 98.8852C53.6541 95.6611 51.5974 92.4092 48.8597 89.741C46.1359 87.0728 42.6478 85.0022 38.854 84.6965C35.213 84.4185 31.0439 86.3363 30.363 89.8939Z" fill="#006BA2"/>
</g>
<g id="Group_164">
<path id="Vector_112" d="M31.1274 92.0483C30.7383 94.2718 31.7666 96.4536 32.7394 98.427C35.894 104.764 39.0625 111.101 42.2171 117.424C42.9397 118.869 43.7596 120.412 45.1354 121.023C46.0526 121.426 47.081 121.329 48.0538 121.232C51.3612 120.898 54.6826 120.579 57.99 120.245C60.1301 120.037 61.2975 117.368 60.1579 115.339L51.5975 100.206C49.9437 97.2875 48.2761 94.3413 46.0665 91.9233C43.8569 89.5052 41.0358 87.6291 37.9646 87.3512C35.0463 87.0733 31.6832 88.8104 31.1274 92.0483Z" fill="#0B2347"/>
</g>
<g id="Group_165">
<path id="Vector_113" d="M31.1137 93.7863C30.7524 95.8708 31.7113 97.9275 32.6423 99.7758C35.6163 105.738 38.5902 111.699 41.5641 117.647C42.2451 119.009 43.0233 120.468 44.3157 121.024C45.1773 121.399 46.1362 121.316 47.0673 121.219C50.1802 120.913 53.2931 120.607 56.406 120.288C58.421 120.093 59.5189 117.578 58.4488 115.674L50.4025 101.443C48.8461 98.6919 47.2757 95.9264 45.2051 93.6473C43.1345 91.3682 40.4802 89.6033 37.5896 89.3532C34.8103 89.1169 31.6418 90.7429 31.1137 93.7863Z" fill="#CCD9E2"/>
</g>
<g id="Group_166">
<path id="Vector_114" d="M43.3154 105.21C41.6478 102.723 37.2008 103.779 36.228 106.989C38.0068 110.547 39.7717 114.104 41.5505 117.662C42.2315 119.024 43.0097 120.483 44.3021 121.039C45.1637 121.414 46.1226 121.331 47.0537 121.234C48.6518 121.081 50.2361 120.914 51.8342 120.761C49.3189 115.48 46.6646 110.227 43.3154 105.21Z" fill="#2D3538"/>
</g>
<g id="Group_167">
<path id="Vector_115" d="M38.7987 89.5752C38.3956 89.4779 37.9787 89.4085 37.5618 89.3668C34.8103 89.1166 31.6418 90.7565 31.1137 93.786C30.7524 95.8705 31.7113 97.9273 32.6423 99.7755C35.6163 105.737 38.5902 111.699 41.5641 117.647C42.2451 119.009 43.0233 120.468 44.3157 121.024C45.1773 121.399 46.1362 121.316 47.0673 121.218C48.1374 121.107 49.2074 121.01 50.2775 120.899C47.3452 115.215 43.9544 109.809 41.2167 103.972C39.4935 99.9284 37.4785 94.05 38.7987 89.5752Z" fill="#AEC3CE"/>
</g>
<g id="Group_168">
<path id="Vector_116" d="M62.2422 112.84C58.1566 105.085 53.1954 96.2327 45.9551 89.465C44.2597 87.8807 41.9528 85.963 39.2012 85.2264C37.1584 84.6844 34.518 84.879 32.6558 86.3382C32.6002 86.5188 32.5585 86.6856 32.5029 86.8662C34.2956 85.2125 37.0333 84.9763 39.1178 85.5183C41.8138 86.227 44.0651 88.117 45.7466 89.6873C52.9452 96.4273 57.8925 105.238 61.9782 112.978C62.9927 114.91 63.8404 116.675 63.757 118.565C63.7153 119.399 63.4096 120.274 62.9093 120.983C63.0344 120.969 63.1594 120.969 63.2845 120.955C63.7431 120.233 64.0349 119.399 64.0627 118.579C64.1322 116.606 63.2845 114.813 62.2422 112.84Z" fill="#13A8B3"/>
</g>
</g>
<g id="Group_169">
<g id="Group_170">
<path id="Vector_117" d="M51.6396 130.2C50.1944 127.754 48.7908 125.28 47.4428 122.779C47.5957 121.973 47.9014 121.167 47.957 120.347C48.0265 119.207 47.6235 118.095 47.2343 117.025C46.2338 114.315 45.2193 111.592 44.2187 108.882C43.8018 107.742 43.3571 106.575 42.6067 105.63C41.8424 104.685 40.6889 103.962 39.4799 104.032C38.4098 104.101 37.3954 104.921 37.2147 105.949C36.5476 107.159 37.0757 108.882 37.6594 110.244C42.0091 120.291 46.3588 130.325 50.7086 140.372C51.3061 141.734 51.9037 143.124 52.8904 144.235C55.5169 147.195 60.7838 147.209 63.4242 144.249C58.3101 140.803 54.7803 135.494 51.6396 130.2Z" fill="#FEFEFE"/>
</g>
<g id="Group_171">
<path id="Vector_118" d="M63.4232 144.235C58.3092 140.802 54.7794 135.493 51.6387 130.199C50.1934 127.753 48.7898 125.279 47.4418 122.778C47.553 122.236 47.7197 121.694 47.8309 121.152C47.1917 122.389 46.4829 123.459 46.6358 124.279C48.3868 132.519 51.9861 141.358 58.9623 146.416C60.6716 146.236 62.2837 145.513 63.4232 144.235Z" fill="#2D3538"/>
</g>
<g id="Group_172">
<path id="Vector_119" d="M38.4244 105.255C38.077 105.922 38.3132 106.742 38.5634 107.465C40.2588 112.273 42.2182 116.984 44.4139 121.584C44.6502 122.07 44.942 122.612 45.4701 122.71C46.1788 122.849 46.7625 122.098 46.971 121.403C47.5546 119.472 46.8876 117.401 46.2205 115.497C45.4145 113.176 44.5946 110.856 43.7886 108.535C43.4828 107.645 43.1632 106.742 42.6212 105.964C42.0793 105.186 41.2732 104.546 40.3422 104.421C39.6056 104.31 38.7718 104.602 38.4244 105.255Z" fill="#CCD9E2"/>
</g>
<g id="Group_173">
<path id="Vector_120" d="M42.3055 106.894C42.4819 106.147 42.0193 105.399 41.2724 105.222C40.5255 105.046 39.777 105.509 39.6006 106.255C39.4242 107.002 39.8868 107.751 40.6337 107.927C41.3806 108.104 42.1291 107.641 42.3055 106.894Z" fill="#2D3538"/>
</g>
<g id="Group_174">
<path id="Vector_121" d="M47.1083 118.973C47.1083 119.487 46.6914 119.904 46.1772 119.904C45.663 119.904 45.2461 119.487 45.2461 118.973C45.2461 118.459 45.663 118.042 46.1772 118.042C46.6914 118.042 47.1083 118.459 47.1083 118.973Z" fill="#2D3538"/>
</g>
</g>
<g id="Group_175">
<g id="Group_176">
<g id="Group_177">
<path id="Vector_122" d="M136.119 173.805C132.033 171.136 112.23 169.33 107.45 167.871C104.101 166.856 100.571 165.939 97.9026 163.841C94.5952 161.242 93.1221 157.142 93.1082 153.196C93.0943 149.249 94.3589 145.399 95.7764 141.661C83.2136 142.926 70.6648 144.204 58.102 145.469L55.0586 146.608C53.6411 149.832 54.7668 153.487 56.1425 156.725C57.5183 159.963 59.1582 163.326 58.6857 166.773C58.3382 169.33 56.8652 171.651 55.3226 173.818C53.0574 177.029 50.4865 180.378 50.4448 184.186C51.8762 184.227 53.3076 184.269 54.739 184.311L145.36 184.325C143.651 180.058 140.191 176.473 136.119 173.805Z" fill="#CCD9E2"/>
</g>
<g id="Group_178">
<path id="Vector_123" d="M87.1883 159.672C89.6064 159.588 91.8159 158.963 93.8866 158.018C93.3724 156.462 93.1084 154.822 93.1084 153.21C93.0945 149.263 94.3591 145.414 95.7766 141.675C83.2138 142.94 70.6649 144.218 58.1021 145.483L55.0587 146.623C53.6413 149.847 54.7669 153.502 56.1427 156.74C56.3928 157.337 56.6569 157.935 56.9209 158.546C67.0517 159.491 77.0019 159.936 87.1883 159.672Z" fill="#AEC3CE"/>
</g>
<g id="Group_179">
<path id="Vector_124" d="M136.119 173.805C132.033 171.137 112.23 169.33 107.45 167.871C104.101 166.857 100.571 165.94 97.9026 163.841C95.9571 162.312 94.6369 160.242 93.8864 158.004C91.8158 158.963 89.6201 159.589 87.1882 159.658C77.0017 159.922 67.0377 159.477 56.9069 158.532C58.0464 161.215 59.0609 163.952 58.6857 166.773C58.3382 169.33 56.8652 171.651 55.3226 173.819C53.0574 177.029 50.4865 180.378 50.4448 184.186C51.8762 184.228 53.3076 184.269 54.739 184.311L145.36 184.325C143.651 180.059 140.191 176.473 136.119 173.805Z" fill="#CCD9E2"/>
</g>
<g id="Group_180">
<path id="Vector_125" d="M136.118 173.804C132.032 171.136 112.229 169.329 107.449 167.87C104.1 166.855 100.57 165.938 97.9015 163.84C94.5941 161.241 93.121 157.142 93.1071 153.195C93.0932 151.652 93.2878 150.11 93.6074 148.595C88.8824 149.804 84.0741 150.721 79.2241 151.221C80.447 157.35 82.9207 162.895 88.41 166.911C100.208 175.388 115.036 172.359 128.947 174.179C135.284 175.041 138.87 179.46 142.33 184.324H145.345C143.65 180.057 140.19 176.472 136.118 173.804Z" fill="#FEFEFE"/>
</g>
<g id="Group_181">
<path id="Vector_126" d="M66.0645 151.498C75.4449 152.151 84.6446 150.887 93.6081 148.594C94.1084 146.245 94.9144 143.924 95.776 141.645C83.2132 142.91 70.6644 144.188 58.1016 145.453L55.0582 146.593C55.0165 146.69 54.9748 146.801 54.9331 146.898C56.7536 151.498 62.2707 151.206 66.0645 151.498Z" fill="#2D3538"/>
</g>
</g>
<g id="Group_182">
<path id="Vector_127" d="M96.3453 162.605C95.1224 164.217 93.1907 165.482 90.8282 166.121C88.1739 166.844 85.3668 166.788 82.6569 166.718L58.8654 166.218C58.8515 166.315 58.8376 166.413 58.8237 166.524L82.643 167.024C83.3795 167.038 84.1299 167.052 84.8943 167.052C86.9093 167.052 88.9382 166.941 90.8977 166.413C93.288 165.76 95.2613 164.495 96.5259 162.869C96.4703 162.786 96.4148 162.688 96.3453 162.605Z" fill="#2D3538"/>
</g>
<g id="Group_183">
<path id="Vector_128" d="M93.0509 153.838C92.4533 154.199 91.8419 154.477 91.2443 154.672C89.1181 155.325 86.8668 155.241 84.685 155.172L58.5311 154.255C57.4332 154.213 56.1964 154.171 55.168 153.643C55.0708 153.588 54.9596 153.518 54.8623 153.449C54.9179 153.602 54.9735 153.754 55.0291 153.907C56.113 154.463 57.3915 154.519 58.5172 154.547L84.6711 155.464C85.3798 155.492 86.1025 155.519 86.839 155.519C88.3538 155.519 89.8685 155.408 91.3416 154.95C91.9531 154.755 92.5228 154.505 93.037 154.199C93.0509 154.088 93.0509 153.963 93.0509 153.838Z" fill="#2D3538"/>
</g>
</g>
<g id="Group_184">
<g id="Group_185">
<path id="Vector_129" d="M171.25 140.882C171.25 138.338 168.374 136.712 165.858 135.601C159.243 132.668 152.614 129.736 146 126.804C139.121 123.761 132.172 120.689 124.765 118.938C117.358 117.187 109.34 116.84 102.141 119.189C97.6663 120.648 93.664 123.094 89.4254 125.067C85.1869 127.026 80.4342 128.541 75.7231 127.916C73.8609 127.666 72.0543 127.096 70.2477 126.526H57.8795C55.531 127.999 53.8216 130.403 53.1129 132.946C52.0984 136.657 52.9045 140.59 54.3358 144.189C54.8222 145.426 55.4198 146.663 56.1285 147.844C85.2842 149.928 91.6072 144.078 109.909 140.617C128.906 136.865 146.931 141.646 165.094 145.412C166.067 145.342 167.012 145.162 167.915 144.828C169.708 144.161 171.25 142.633 171.25 140.882Z" fill="#CCD9E2"/>
</g>
<g id="Group_186">
<path id="Vector_130" d="M171.251 140.882C171.251 138.338 168.374 136.712 165.859 135.601C159.244 132.668 152.615 129.736 146 126.804C139.121 123.761 132.173 120.689 124.766 118.938C117.359 117.187 109.34 116.84 102.142 119.189C97.6667 120.648 93.6644 123.094 89.4259 125.067C85.1873 127.026 80.4346 128.541 75.7236 127.916C73.8614 127.666 72.0548 127.096 70.2482 126.526H62.73C67.2743 130.723 71.6657 136.17 78.7253 134.545C93.2475 130.917 106.866 125.178 121.986 127.29C136.814 129.403 149.822 136.365 163.746 141.507C165.789 142.285 167.874 142.966 169.986 143.536C170.75 142.813 171.251 141.882 171.251 140.882Z" fill="#0B2347"/>
</g>
<g id="Group_187">
<path id="Vector_131" d="M165.929 145.326C150.879 140.17 135.148 136.404 118.999 137.905C111.064 138.642 103.227 140.671 95.6249 142.63C93.0123 143.311 90.3024 144.006 87.6342 144.645C78.6707 146.785 66.9557 148.912 55.9494 146.368L55.8799 146.66C66.9557 149.217 78.6985 147.077 87.7037 144.937C90.3719 144.298 93.0818 143.603 95.7083 142.922C103.282 140.963 111.12 138.934 119.027 138.211C134.911 136.738 150.42 140.379 165.262 145.423C165.498 145.382 165.721 145.354 165.929 145.326Z" fill="#2D3538"/>
</g>
<g id="Group_188">
<path id="Vector_132" d="M169.778 143.618C163.288 142.2 157.076 139.518 151.073 136.906C147.418 135.321 143.638 133.681 139.816 132.333C122.334 126.191 107.923 126.177 90.0653 132.306C89.4817 132.5 88.9119 132.709 88.3282 132.917C83.6867 134.557 78.8784 136.252 74.209 135.043C71.6242 134.362 69.3451 132.834 67.1355 131.347C66.2322 130.735 65.315 130.11 64.37 129.554C62.9942 128.734 60.1315 127.275 57.1576 127.289C57.0603 127.386 56.963 127.497 56.8657 127.595C59.8674 127.483 62.8275 128.984 64.2172 129.818C65.1483 130.374 66.0793 130.999 66.9687 131.597C69.1922 133.098 71.4991 134.654 74.1395 135.335C78.8923 136.572 83.7423 134.863 88.4394 133.209C89.0231 133.001 89.6068 132.792 90.1765 132.598C107.965 126.497 122.32 126.497 139.719 132.625C143.527 133.959 147.293 135.599 150.948 137.183C156.909 139.768 163.066 142.437 169.5 143.868C169.583 143.785 169.681 143.701 169.778 143.618Z" fill="#FEFEFE"/>
</g>
<g id="Group_189">
<g id="Group_190">
<path id="Vector_133" d="M60.1817 132.869C61.0043 132.528 61.3949 131.585 61.0541 130.763C60.7134 129.94 59.7704 129.55 58.9479 129.89C58.1253 130.231 57.7347 131.174 58.0754 131.997C58.4161 132.819 59.3592 133.21 60.1817 132.869Z" fill="#2D3538"/>
</g>
<g id="Group_191">
<path id="Vector_134" d="M59.5623 134.2C58.0058 134.2 56.7412 132.935 56.7412 131.378C56.7412 129.822 58.0058 128.557 59.5623 128.557C61.1187 128.557 62.3833 129.822 62.3833 131.378C62.3833 132.935 61.1187 134.2 59.5623 134.2ZM59.5623 128.863C58.1726 128.863 57.0469 129.989 57.0469 131.378C57.0469 132.768 58.1726 133.894 59.5623 133.894C60.952 133.894 62.0776 132.768 62.0776 131.378C62.0776 129.989 60.952 128.863 59.5623 128.863Z" fill="#FEFEFE"/>
</g>
</g>
</g>
<g id="Group_192">
<g id="Group_193">
<path id="Vector_135" d="M31.7254 101.513C31.8366 101.554 31.9617 101.568 32.0729 101.582C33.5598 101.721 34.5604 100.081 33.8794 98.7471C32.0451 95.1895 31.3502 91.0622 31.0584 87.0321C30.711 82.0709 30.9194 77.0541 30.03 72.1763C29.6131 71.6482 28.7793 71.6065 28.2234 71.9679C27.6537 72.3292 27.3479 72.9823 27.2367 73.6355C27.1256 74.2886 27.1951 74.9696 27.2367 75.6366C27.5008 80.1392 26.4029 84.6418 26.6531 89.1583C26.8893 93.105 28.1817 96.9961 30.3774 100.29C30.7388 100.79 31.1418 101.332 31.7254 101.513Z" fill="#0B2347"/>
</g>
<g id="Group_194">
<path id="Vector_136" d="M29.4054 95.2173C30.003 97.4825 30.948 99.567 32.0041 101.568C32.0319 101.568 32.0597 101.582 32.0875 101.582C33.5745 101.721 34.5751 100.081 33.8941 98.7471C32.0597 95.1895 31.3649 91.0622 31.073 87.0321C30.7256 82.0709 30.9341 77.0541 30.0447 72.1763C29.6278 71.6482 28.794 71.6065 28.2381 71.9679C28.113 72.0373 28.0157 72.1346 27.9185 72.2319C30.4199 79.4444 27.1402 87.5879 29.4054 95.2173Z" fill="#13A8B3"/>
</g>
<path id="Vector_137" d="M29.3348 73.5936C29.7108 73.5936 30.0157 73.2887 30.0157 72.9126C30.0157 72.5366 29.7108 72.2317 29.3348 72.2317C28.9587 72.2317 28.6538 72.5366 28.6538 72.9126C28.6538 73.2887 28.9587 73.5936 29.3348 73.5936Z" fill="#0B2347"/>
</g>
<g id="Group_195">
<g id="Group_196">
<path id="Vector_138" d="M70.7478 131.128C74.097 133.741 79.1137 133.421 83.394 132.449C93.5526 130.128 102.891 124.93 113.3 123.944C123.486 122.985 133.589 126.195 142.873 130.128C152.156 134.061 161.119 138.786 171.014 141.218C172.403 141.551 174.043 141.801 175.127 140.953C176.225 140.092 176.142 138.438 175.35 137.34C174.557 136.242 173.251 135.548 171.987 134.894C163.662 130.614 155.338 126.32 147.014 122.04C141.761 119.33 136.48 116.62 130.824 114.702C125.168 112.785 119.067 111.687 113.064 112.354C99.9729 113.785 89.0083 123.277 75.8341 123.86C73.4021 123.971 70.4699 123.985 69.2192 125.875C68.0657 127.557 69.0941 129.836 70.7478 131.128Z" fill="#006BA2"/>
</g>
<g id="Group_197">
<path id="Vector_139" d="M130.812 114.702C125.156 112.785 119.056 111.687 113.052 112.354C99.9614 113.785 88.9967 123.277 75.8225 123.86C74.2383 123.93 72.4456 123.972 71.042 124.5C72.9181 124.764 74.7941 124.486 76.6563 124.486C91.9151 121.943 105.145 112.27 121.432 115.328C138.734 119.108 153.714 127.751 169.362 133.546C161.914 129.711 154.465 125.875 147.002 122.04C141.749 119.33 136.468 116.606 130.812 114.702Z" fill="#A5DDEC"/>
</g>
<g id="Group_198">
<path id="Vector_140" d="M174.712 136.41C174.101 136.119 173.489 135.882 172.92 135.66L143.291 124.112C133.883 120.443 123.21 116.288 112.357 117.122C106.34 117.58 100.489 119.595 94.833 121.527C88.9824 123.528 82.9234 125.613 76.6976 125.96C74.3351 126.099 71.9588 125.974 69.6936 125.807C69.6241 125.904 69.5685 126.002 69.499 126.099C71.8198 126.28 74.2795 126.405 76.7115 126.266C82.979 125.918 89.0519 123.834 94.9303 121.819C100.559 119.887 106.395 117.9 112.371 117.427C123.155 116.594 133.786 120.735 143.166 124.39L172.794 135.938C173.475 136.202 174.24 136.508 174.976 136.869C174.893 136.716 174.81 136.563 174.712 136.41Z" fill="#13A8B3"/>
</g>
</g>
</g>
<g id="Group_199">
<path id="Vector_141" d="M46.5521 84.1389C46.4548 84.0555 46.302 84.25 46.3853 84.3612C46.4687 84.4724 46.6216 84.4724 46.7606 84.4724L46.5521 84.1389Z" fill="#F4B19F"/>
</g>
</g>
</g>
</g>
</g>
</g>
<g id="Group_200">
<g id="Group_201">
<g id="Group_202">
<g id="Group_203">
<g id="Group_204">
<g id="Group_205">
<path id="Vector_142" d="M174.175 169.265H55.3711V170.001H174.175V169.265Z" fill="#0B2347"/>
</g>
<g id="Group_206">
<path id="Vector_143" d="M168.839 169.5H140.156L145.479 165.276H163.531L168.839 169.5Z" fill="#0B2347"/>
</g>
</g>
<g id="Group_207">
<path id="Vector_144" d="M148.524 18.8967H145.8V28.4717H148.524V18.8967Z" fill="#006BA2"/>
<g id="Group_208">
<path id="Vector_145" d="M153.138 11.8501H147.232V37.1563H153.138V11.8501Z" fill="#0B2347"/>
</g>
<g id="Group_209">
<path id="Vector_146" d="M151.651 31.6843H148.705V167.971H151.651V31.6843Z" fill="#0B2347"/>
</g>
</g>
</g>
<g id="Group_210">
<path id="Vector_147" d="M143.37 10.1484L131.96 12.5387V39.8183L144.037 42.3475H146.719V10.1484H143.37Z" fill="#0B2347"/>
</g>
<g id="Group_211">
<path id="Vector_148" d="M141.855 12.2583L132.836 14.1483V38.2177L141.855 40.1076V12.2583Z" fill="#13A8B3"/>
</g>
<g id="Group_212">
<path id="Vector_149" d="M132.836 14.1483V27.8784C134.101 29.1569 135.602 29.685 137.506 28.5593C139.034 27.6977 140.48 26.7527 141.869 25.7383V12.2583L132.836 14.1483Z" fill="#A5DDEC"/>
</g>
</g>
</g>
</g>
</g>
</g>
</svg>
