<svg width="181" height="147" viewBox="0 0 181 147" fill="none" xmlns="http://www.w3.org/2000/svg">
<g clip-path="url(#clip0_1_5547)">
<path d="M49.9619 127.867C39.2325 126.561 5.83128 118.258 4.52509 99.8776C3.21889 81.4977 21.1324 71.0481 22.4386 64.4705C23.7448 57.8929 6.15783 43.8047 15.8143 23.512C26.3105 1.40007 59.5718 -4.5711 77.9518 3.3127C96.3318 11.1965 131.132 -5.1309 148.626 15.395C166.12 35.9209 150.072 58.8259 155.764 69.3221C161.455 79.8183 176.803 102.117 157.163 122.176C138.456 141.256 75.3394 130.946 49.9619 127.867Z" fill="#96E9FF"/>
<path d="M77.9519 11.2432C106.642 16.8878 155.297 -5.87729 156.883 43.1049C157.536 34.2881 156.463 24.585 148.626 15.395C131.133 -5.1309 96.3319 11.1965 77.9519 3.3127C59.5719 -4.5711 26.3107 1.40007 15.8145 23.512C12.9688 29.5299 12.5024 34.9412 13.2021 39.8394C19.5465 2.23976 52.1546 6.15834 77.9519 11.2432Z" fill="#82DCF2"/>
<path d="M178.542 65.5284C181.771 61.3165 181.421 55.6275 177.761 52.8217C174.102 50.0159 168.517 51.1558 165.288 55.3678C162.059 59.5797 162.408 65.2687 166.068 68.0745C169.728 70.8803 175.313 69.7403 178.542 65.5284Z" fill="#96E9FF"/>
<path d="M9.64587 64.1558C10.28 61.5261 8.66219 58.8802 6.03246 58.2461C3.40272 57.612 0.756854 59.2298 0.122753 61.8595C-0.511349 64.4893 1.10643 67.1351 3.73617 67.7692C6.36591 68.4033 9.01177 66.7856 9.64587 64.1558Z" fill="#96E9FF"/>
<path d="M4.29215 40.5853C6.17292 40.5853 7.69758 39.0606 7.69758 37.1798C7.69758 35.2991 6.17292 33.7744 4.29215 33.7744C2.41138 33.7744 0.886719 35.2991 0.886719 37.1798C0.886719 39.0606 2.41138 40.5853 4.29215 40.5853Z" fill="#96E9FF"/>
<path d="M47.6294 50.5687C47.3961 50.522 47.1162 50.522 46.883 50.4754C46.8363 50.4754 46.7897 50.4754 46.743 50.4754C46.5098 50.4754 46.2299 50.4287 45.95 50.4287C44.5505 50.4287 43.1977 50.662 41.9848 51.1285C41.0984 51.455 40.2587 51.8749 39.4657 52.388C39.3257 52.4813 39.1391 52.6212 38.9992 52.7145C38.8592 52.8078 38.7193 52.9478 38.5793 53.0411C38.4394 53.181 38.2994 53.2743 38.1595 53.4143C37.7396 53.7875 37.3664 54.2073 36.9932 54.6272C36.76 54.9071 36.5267 55.2336 36.3402 55.5135C35.7337 56.4465 35.2206 57.4728 34.894 58.5458C34.5675 59.6187 34.3809 60.7849 34.3809 61.9978C34.3809 62.1844 34.3809 62.4177 34.3809 62.6043C34.3809 62.6976 34.3809 62.7909 34.4275 62.9308C34.4275 63.0241 34.4275 63.1174 34.4275 63.2107C34.4275 63.3507 34.4742 63.4906 34.4742 63.6306C34.4742 63.6772 34.4742 63.7239 34.4742 63.7705C34.5208 63.9571 34.5208 64.0971 34.5675 64.2837V64.3303C35.6404 69.6017 40.3054 73.6136 45.95 73.6136C52.341 73.6136 57.5658 68.4355 57.5658 61.9978C57.5658 56.2133 53.274 51.4084 47.6294 50.5687Z" fill="#82DCF2"/>
<path d="M66.5224 8.25856C66.3358 8.21191 66.1026 8.21191 65.916 8.21191C65.8693 8.21191 65.8227 8.21191 65.776 8.21191C65.5894 8.21191 65.3562 8.21191 65.1696 8.21191C64.05 8.21191 62.9304 8.39851 61.9507 8.77171C61.251 9.05161 60.5512 9.37816 59.9448 9.798C59.8048 9.8913 59.7115 9.9846 59.5716 10.0779C59.4316 10.1712 59.3383 10.2645 59.1984 10.3578C59.1051 10.4511 58.9651 10.5444 58.8719 10.6377C58.5453 10.9176 58.2188 11.2441 57.9389 11.6173C57.7523 11.8506 57.5657 12.0838 57.3791 12.3171C56.8659 13.0635 56.4927 13.9032 56.2128 14.7895C55.9329 15.6759 55.793 16.6089 55.793 17.5885C55.793 17.7285 55.793 17.9151 55.793 18.055C55.793 18.1483 55.793 18.2416 55.793 18.2883C55.793 18.3816 55.793 18.4282 55.793 18.5215C55.793 18.6615 55.8396 18.7548 55.8396 18.8481C55.8396 18.8947 55.8396 18.9413 55.8396 18.9413C55.8396 19.0813 55.8863 19.2212 55.9329 19.3612V19.4078C56.8193 23.6996 60.5979 26.9185 65.1229 26.9185C70.301 26.9185 74.4995 22.72 74.4995 17.5419C74.5462 12.8302 71.0474 8.91166 66.5224 8.25856Z" fill="#82DCF2"/>
<path d="M57.4531 57.2173C58.4628 50.8823 54.1459 44.9282 47.8108 43.9184C41.4758 42.9086 35.5217 47.2256 34.5119 53.5607C33.5022 59.8957 37.8191 65.8498 44.1542 66.8596C50.4892 67.8693 56.4433 63.5523 57.4531 57.2173Z" fill="#FFC200"/>
<path d="M45.9495 47.3977C51.0343 47.3977 55.1861 51.2696 55.6526 56.2145C55.6993 55.9346 55.6993 55.608 55.6993 55.3281C55.6993 49.9634 51.3608 45.625 45.9961 45.625C40.6314 45.625 36.293 49.9634 36.293 55.3281C36.293 55.608 36.293 55.9346 36.3396 56.2145C36.7595 51.2696 40.9113 47.3977 45.9495 47.3977Z" fill="#FFA100"/>
<path d="M45.9498 45.8124C51.2212 45.8124 55.4663 50.1041 55.4663 55.3289C55.4663 60.6003 51.1745 64.8454 45.9498 64.8454C40.725 64.8454 36.4332 60.5537 36.4332 55.3289C36.4332 50.1041 40.725 45.8124 45.9498 45.8124ZM45.9498 43.7598C39.5588 43.7598 34.334 48.9379 34.334 55.3755C34.334 61.7666 39.5121 66.9913 45.9498 66.9913C52.3874 66.9913 57.5656 61.8132 57.5656 55.3755C57.5656 48.9379 52.3874 43.7598 45.9498 43.7598Z" fill="#FFE450"/>
<path d="M45.9498 45.8124V43.7598C39.5588 43.7598 34.334 48.9379 34.334 55.3755H36.3866C36.4332 50.1041 40.725 45.8124 45.9498 45.8124Z" fill="#FAF582"/>
<g opacity="0.25">
<path d="M48.1427 61.9998L43.7576 56.0753H45.1571C46.6499 56.0753 47.9094 55.0023 48.1893 53.6028H48.8424L49.4489 52.2967H48.1893C48.096 51.8768 47.9094 51.457 47.6762 51.1304H48.8424L49.4489 49.8242H43.1045L42.498 51.1304H45.1571C45.9501 51.1304 46.6032 51.5969 46.8365 52.2967H43.1045L42.498 53.6028H46.8365C46.5566 54.2559 45.9035 54.7691 45.1571 54.7691H42.498V56.5884L46.5099 62.0464H48.1427V61.9998Z" fill="black"/>
</g>
<path d="M48.1407 61.2527L43.7556 55.3282H45.1551C46.6479 55.3282 47.9075 54.2553 48.1874 52.8558H48.8405L49.4469 51.5496H48.1874C48.0941 51.1297 47.9075 50.7099 47.6742 50.3833H48.8405L49.4469 49.0771H43.1025L42.4961 50.3833H45.1551C45.9482 50.3833 46.6013 50.8498 46.8345 51.5496H43.1025L42.4961 52.8558H46.8345C46.5546 53.5089 45.9015 54.022 45.1551 54.022H42.4961V55.8414L46.508 61.2994H48.1407V61.2527Z" fill="#FFE450"/>
<path opacity="0.2" d="M45.9498 43.7598C39.5588 43.7598 34.334 48.9379 34.334 55.3755C34.334 56.9616 34.6605 58.5011 35.2203 59.8539C36.06 60.0405 36.8997 60.1338 37.7861 60.1338C43.8972 60.1338 48.8887 55.1889 48.8887 49.0312C48.8887 47.1652 48.4222 45.3925 47.6292 43.8531C47.116 43.8064 46.5562 43.7598 45.9498 43.7598Z" fill="white"/>
<path d="M73.9319 15.7142C74.6871 11.0343 71.5055 6.6283 66.8256 5.87313C62.1457 5.11795 57.7397 8.29956 56.9845 12.9794C56.2294 17.6593 59.411 22.0653 64.0909 22.8205C68.7708 23.5757 73.1767 20.394 73.9319 15.7142Z" fill="#FFC200"/>
<path d="M65.4516 8.44486C69.1836 8.44486 72.2625 11.3371 72.589 14.9758C72.589 14.7426 72.6357 14.556 72.6357 14.3227C72.6357 10.3575 69.4169 7.13867 65.4516 7.13867C61.4864 7.13867 58.2676 10.3575 58.2676 14.3227C58.2676 14.556 58.2676 14.7426 58.3142 14.9758C58.6408 11.3371 61.7197 8.44486 65.4516 8.44486Z" fill="#FFA100"/>
<path d="M65.4507 7.27772C69.3227 7.27772 72.4948 10.4499 72.4948 14.3218C72.4948 18.1938 69.3227 21.3659 65.4507 21.3659C61.5788 21.3659 58.4066 18.1938 58.4066 14.3218C58.4066 10.4499 61.5788 7.27772 65.4507 7.27772ZM65.4507 5.73828C60.7391 5.73828 56.8672 9.56356 56.8672 14.3218C56.8672 19.0801 60.6925 22.9054 65.4507 22.9054C70.209 22.9054 74.0343 19.0801 74.0343 14.3218C74.0343 9.56356 70.209 5.73828 65.4507 5.73828Z" fill="#FFE450"/>
<path d="M65.4507 7.27772V5.73828C60.7391 5.73828 56.8672 9.56356 56.8672 14.3218H58.4066C58.4066 10.4499 61.5788 7.27772 65.4507 7.27772Z" fill="#FAF582"/>
<g opacity="0.25">
<path d="M67.0832 19.2202L63.8644 14.8351H64.8907C66.0103 14.8351 66.9433 14.0421 67.1299 13.0158H67.5964L68.0629 12.0361H67.1299C67.0832 11.7096 66.9433 11.4297 66.7567 11.1964H67.5964L68.0629 10.2168H63.3513L62.8848 11.1964H64.8441C65.4038 11.1964 65.917 11.5696 66.1036 12.0361H63.3513L62.8848 13.0158H66.1036C65.917 13.5289 65.4038 13.8555 64.8441 13.8555H62.8848V15.2083L65.8703 19.2202H67.0832Z" fill="black"/>
</g>
<path d="M67.0832 18.6606L63.8644 14.2755H64.8907C66.0103 14.2755 66.9433 13.4825 67.1299 12.4562H67.5964L68.0629 11.4766H67.1299C67.0832 11.15 66.9433 10.8701 66.7567 10.6369H67.5964L68.0629 9.65723H63.3513L62.8848 10.6369H64.8441C65.4038 10.6369 65.917 11.0101 66.1036 11.4766H63.3513L62.8848 12.4562H66.1036C65.917 12.9694 65.4038 13.2959 64.8441 13.2959H62.8848V14.6487L65.8703 18.6606H67.0832Z" fill="#FFE450"/>
<path opacity="0.2" d="M65.4507 5.73828C60.7391 5.73828 56.8672 9.56356 56.8672 14.3218C56.8672 15.4881 57.1004 16.6077 57.5203 17.634C58.1267 17.7739 58.7798 17.8672 59.3863 17.8672C63.9113 17.8672 67.5966 14.1819 67.5966 9.65686C67.5966 8.25737 67.2701 6.99782 66.6636 5.83158C66.2904 5.78493 65.8706 5.73828 65.4507 5.73828Z" fill="white"/>
<path d="M19.6855 104.403V129.407L87.9341 96.2855V71.2812L19.6855 104.403Z" fill="#00CCFF"/>
<path d="M133.512 30.041H112.893V76.4575H133.512V30.041Z" fill="#00BFEA"/>
<path d="M145.967 13.9014L112.939 29.9489V54.9531L145.967 38.9056V13.9014Z" fill="#00CCFF"/>
<path d="M115.366 59.5255C110.234 63.2575 114.013 65.9632 117.232 70.3949C120.451 74.8266 121.85 79.2583 126.981 75.5264C132.113 71.7944 135.425 63.9106 132.206 59.4788C129.034 55.0471 120.497 55.7935 115.366 59.5255Z" fill="#32AE95"/>
<path d="M119.097 61.7188C116.018 63.958 118.304 65.5907 120.217 68.2497C122.13 70.9088 123.016 73.5678 126.095 71.3286C129.174 69.0894 131.18 64.3778 129.22 61.7188C127.308 59.0131 122.176 59.4796 119.097 61.7188Z" fill="#169584"/>
<path d="M118.234 140.563C118.62 135.631 100.92 130.225 78.7015 128.488C56.4825 126.751 38.158 129.34 37.7724 134.272C37.3868 139.204 55.0862 144.61 77.3052 146.347C99.5241 148.085 117.849 145.495 118.234 140.563Z" fill="#BFE5EB"/>
<path d="M109.906 124.043C109.906 131.927 106.128 141.117 101.416 141.117C96.7044 141.117 92.9258 131.927 92.9258 124.043C92.9258 116.16 96.7044 109.769 101.416 109.769C106.128 109.769 109.906 116.16 109.906 124.043Z" fill="#32AE95"/>
<path d="M99.877 127.075C99.877 134.958 96.0984 144.148 91.3867 144.148C86.6751 144.148 82.8965 134.958 82.8965 127.075C82.8965 119.191 86.6751 112.8 91.3867 112.8C96.0984 112.8 99.877 119.191 99.877 127.075Z" fill="#4DC7A4"/>
<path d="M60.4121 119.89C60.4121 127.774 56.6335 136.964 51.9219 136.964C47.2103 136.964 43.4316 127.727 43.4316 119.89C43.4316 112.006 47.2103 105.615 51.9219 105.615C56.6335 105.615 60.4121 112.006 60.4121 119.89Z" fill="#4DC7A4"/>
<path d="M71.8418 120.17C71.8418 128.054 68.0632 137.244 63.3516 137.244C58.6866 137.244 54.8613 128.054 54.8613 120.17C54.8613 112.287 58.64 105.896 63.3516 105.896C68.0632 105.942 71.8418 112.287 71.8418 120.17Z" fill="#32AE95"/>
<path d="M84.9961 140.044C113.362 140.044 136.357 119.972 136.357 95.2132C136.357 70.4541 113.362 50.3828 84.9961 50.3828C56.63 50.3828 33.6348 70.4541 33.6348 95.2132C33.6348 119.972 56.63 140.044 84.9961 140.044Z" fill="#4DC7A4"/>
<path d="M107.295 58.2188C99.5979 54.2069 87.5623 50.9414 77.9525 50.9414L74.1738 52.9007C83.737 52.9007 95.726 56.1195 103.377 60.0848C104.869 59.2917 105.756 59.0118 107.295 58.2188Z" fill="#169584"/>
<path d="M106.083 86.2571C105.243 86.2571 104.59 85.6973 104.404 84.9042C103.797 82.4318 101.558 80.6125 98.9456 80.6125C96.2866 80.6125 94.094 82.4318 93.4876 84.9042C93.301 85.6973 92.6479 86.2571 91.8548 86.2571H91.8082C90.7352 86.2571 89.8956 85.2308 90.1754 84.1578C91.1084 80.1926 94.7005 77.207 98.9922 77.207C103.237 77.207 106.829 80.1926 107.809 84.1578C107.996 85.2308 107.203 86.2571 106.083 86.2571Z" fill="#169584"/>
<path d="M87.3283 59.5255C92.4597 63.2575 88.6811 65.9632 85.4623 70.3949C82.2435 74.8266 80.844 79.2583 75.7125 75.5264C70.581 71.7944 67.2222 63.9106 70.4411 59.4788C73.6599 55.0471 82.1968 55.7935 87.3283 59.5255Z" fill="#32AE95"/>
<path d="M87.0964 63.2115C90.5485 65.7306 87.9827 67.5499 85.8368 70.4889C83.691 73.4278 82.7113 76.4134 79.3059 73.9409C75.8538 71.4219 73.6613 66.1504 75.8072 63.2115C77.953 60.2259 83.6443 60.6924 87.0964 63.2115Z" fill="#169584"/>
<path d="M96.8457 107.622C96.8457 107.622 96.939 104.823 100.018 105.849C103.097 106.876 103.517 119.471 120.637 119.144" stroke="#169584" stroke-width="1.56976" stroke-miterlimit="10" stroke-linecap="round"/>
<path d="M149.46 100.612C150.666 87.7086 142.702 76.4124 131.671 75.3813C120.64 74.3502 110.72 83.9747 109.514 96.8783C108.308 109.782 116.272 121.078 127.303 122.109C138.334 123.14 148.254 113.516 149.46 100.612Z" fill="#32AE95"/>
<path d="M145.488 100.219C146.455 89.8808 141.956 81.0062 135.44 80.3972C128.924 79.7882 122.859 87.6752 121.892 98.0134C120.926 108.352 125.425 117.226 131.941 117.835C138.457 118.444 144.522 110.557 145.488 100.219Z" fill="#169584"/>
<path d="M131.341 96.7862C131.688 93.0665 130.972 89.9577 129.741 89.8426C128.509 89.7275 127.229 92.6497 126.882 96.3694C126.534 100.089 127.25 103.198 128.482 103.313C129.713 103.428 130.993 100.506 131.341 96.7862Z" fill="#295D5E"/>
<path d="M139.595 95.3184C139.942 91.5987 139.226 88.49 137.994 88.3749C136.763 88.2598 135.483 91.1819 135.135 94.9016C134.788 98.6213 135.504 101.73 136.735 101.845C137.967 101.96 139.247 99.0381 139.595 95.3184Z" fill="#295D5E"/>
<mask id="mask0_1_5547" style="mask-type:luminance" maskUnits="userSpaceOnUse" x="74" y="13" width="46" height="48">
<path d="M119.469 29.345C111.772 25.3331 87.5604 13.0176 77.9505 13.0176L74.1719 52.9497C83.7351 52.9497 95.7241 56.1686 103.375 60.1338C104.867 59.2941 117.976 30.138 119.469 29.345Z" fill="white"/>
</mask>
<g mask="url(#mask0_1_5547)">
<path d="M105.139 52.3268C111.806 45.6591 111.806 34.8487 105.139 28.181C98.4709 21.5133 87.6605 21.5133 80.9928 28.181C74.3251 34.8487 74.3251 45.6591 80.9928 52.3268C87.6605 58.9945 98.4709 58.9945 105.139 52.3268Z" fill="#FFC200"/>
<path d="M93.0634 28.5518C100.527 28.5518 106.639 34.2431 107.292 41.5671C107.338 41.1473 107.338 40.6808 107.338 40.2609C107.338 32.3771 100.947 25.9395 93.0168 25.9395C85.133 25.9395 78.6953 32.3305 78.6953 40.2609C78.6953 40.6808 78.6953 41.1473 78.742 41.5671C79.4884 34.2898 85.5995 28.5518 93.0634 28.5518Z" fill="#FFA100"/>
<path d="M93.064 26.2188C100.808 26.2188 107.059 32.5165 107.059 40.2137C107.059 47.9109 100.761 54.2086 93.064 54.2086C85.3668 54.2086 79.0691 47.9109 79.0691 40.2137C79.0691 32.5165 85.3202 26.2188 93.064 26.2188ZM93.064 23.1865C83.6408 23.1865 75.9902 30.8371 75.9902 40.2603C75.9902 49.6836 83.6408 57.3341 93.064 57.3341C102.487 57.3341 110.138 49.6836 110.138 40.2603C110.138 30.8371 102.487 23.1865 93.064 23.1865Z" fill="#FFE450"/>
<path d="M93.064 26.2188V23.1865C83.6408 23.1865 75.9902 30.8371 75.9902 40.2603H79.0225C79.0225 32.5165 85.3202 26.2188 93.064 26.2188Z" fill="#FAF582"/>
<g opacity="0.25">
<path d="M96.2372 50.0112L89.7996 41.2877H91.8522C94.0447 41.2877 95.9107 39.7482 96.3305 37.649H97.2635L98.1965 35.7363H96.3305C96.1906 35.0832 95.9107 34.5234 95.5841 34.0103H97.2635L98.1965 32.0977H88.8666L87.9336 34.0103H91.8522C92.9718 34.0103 93.9514 34.71 94.3246 35.7363H88.8666L87.9336 37.649H94.3246C93.9514 38.6286 92.9718 39.3284 91.8522 39.3284H87.9336V41.9874L93.8581 49.9645H96.2372V50.0112Z" fill="black"/>
</g>
<path d="M96.2372 48.8901L89.7996 40.1666H91.8522C94.0447 40.1666 95.9107 38.6271 96.3305 36.5279H97.2635L98.1965 34.6152H96.3305C96.1906 33.9621 95.9107 33.4023 95.5841 32.8892H97.2635L98.1965 30.9766H88.8666L87.9336 32.8892H91.8522C92.9718 32.8892 93.9514 33.5889 94.3246 34.6152H88.8666L87.9336 36.5279H94.3246C93.9514 37.5075 92.9718 38.2073 91.8522 38.2073H87.9336V40.8663L93.8581 48.8434H96.2372V48.8901Z" fill="#FFE450"/>
<path opacity="0.2" d="M93.064 23.1865C83.6408 23.1865 75.9902 30.8371 75.9902 40.2603C75.9902 42.5928 76.4567 44.832 77.2964 46.8379C78.5093 47.1178 79.7689 47.2578 81.0284 47.2578C90.0318 47.2578 97.3558 39.9338 97.3558 30.9304C97.3558 28.178 96.6561 25.6123 95.4898 23.3265C94.6968 23.2798 93.9037 23.1865 93.064 23.1865Z" fill="white"/>
</g>
<path d="M173.677 17.8211L136.637 8.67773L147.273 45.2978L173.677 17.8211Z" fill="#00CCFF"/>
<path d="M61.672 117.558L51.6423 99.9239L54.8611 100.81C58.3132 101.79 61.2055 99.9239 61.9519 96.6585L63.4447 97.0783L64.8908 94.186L61.9985 93.393C61.8119 92.2734 61.3921 91.1538 60.8323 90.1741L63.4913 90.9205L64.9375 88.0283L50.2894 83.9697L48.8433 86.862L54.9544 88.588C56.7271 89.1012 58.2665 90.7339 58.8263 92.5999L50.2428 90.2208L48.7966 93.1131L58.8263 95.9121C58.2199 97.4049 56.6805 98.1512 54.9078 97.6847L48.7966 95.9587L48.75 100.484L57.94 116.625L61.672 117.558Z" fill="#169584"/>
</g>
<defs>
<clipPath id="clip0_1_5547">
<rect width="180.721" height="146.9" fill="white"/>
</clipPath>
</defs>
</svg>
