<svg width="198" height="176" viewBox="0 0 198 176" fill="none" xmlns="http://www.w3.org/2000/svg">
<g style="mix-blend-mode:soft-light">
<path d="M123.825 157.77H107.844V162.215H123.825V157.77Z" fill="white"/>
</g>
<g style="mix-blend-mode:soft-light">
<path d="M114.919 151.688H98.9375V156.133H114.919V151.688Z" fill="white"/>
</g>
<g style="mix-blend-mode:soft-light">
<path d="M97.026 151.688H81.0449V156.133H97.026V151.688Z" fill="white"/>
</g>
<g style="mix-blend-mode:soft-light">
<path d="M87.9557 157.77H71.9746V162.215H87.9557V157.77Z" fill="white"/>
</g>
<g style="mix-blend-mode:soft-light">
<path d="M105.932 157.77H89.9512V162.215H105.932V157.77Z" fill="white"/>
</g>
<g style="mix-blend-mode:soft-light">
<path d="M97.026 163.851H81.0449V168.296H97.026V163.851Z" fill="white"/>
</g>
<g style="mix-blend-mode:soft-light">
<path d="M114.919 163.851H98.9375V168.296H114.919V163.851Z" fill="white"/>
</g>
<g style="mix-blend-mode:soft-light">
<path d="M105.932 169.929H89.9512V174.374H105.932V169.929Z" fill="white"/>
</g>
<g style="mix-blend-mode:soft-light">
<path d="M87.9557 169.929H71.9746V174.374H87.9557V169.929Z" fill="white"/>
</g>
<g style="mix-blend-mode:soft-light">
<path d="M123.825 169.929H107.844V174.374H123.825V169.929Z" fill="white"/>
</g>
<g style="mix-blend-mode:soft-light">
<path d="M97.026 139.527H81.0449V143.972H97.026V139.527Z" fill="white"/>
</g>
<g style="mix-blend-mode:soft-light">
<path d="M105.932 145.607H89.9512V150.052H105.932V145.607Z" fill="white"/>
</g>
<g style="mix-blend-mode:soft-light">
<path d="M114.919 139.527H98.9375V143.972H114.919V139.527Z" fill="white"/>
</g>
<g style="mix-blend-mode:multiply">
<path d="M31.0195 94.5584C40.3891 90.6773 44.8385 79.9356 40.9575 70.566C37.0765 61.1964 26.3347 56.7471 16.9651 60.6281C7.59555 64.5091 3.14618 75.2508 7.02719 84.6204C10.9082 93.99 21.6499 98.4394 31.0195 94.5584Z" stroke="#BFE2F8" stroke-width="0.838682" stroke-miterlimit="10"/>
</g>
<g style="mix-blend-mode:multiply">
<path d="M34.6909 88.2931C40.5995 82.3846 40.5995 72.8049 34.6909 66.8963C28.7823 60.9878 19.2027 60.9878 13.2941 66.8963C7.38554 72.8049 7.38554 82.3846 13.2941 88.2931C19.2027 94.2017 28.7823 94.2017 34.6909 88.2931Z" fill="#BFE2F8"/>
</g>
<g style="mix-blend-mode:multiply">
<path d="M61.7965 45.594C71.9381 45.594 80.1595 37.3727 80.1595 27.2311C80.1595 17.0895 71.9381 8.86816 61.7965 8.86816C51.655 8.86816 43.4336 17.0895 43.4336 27.2311C43.4336 37.3727 51.655 45.594 61.7965 45.594Z" stroke="#BFE2F8" stroke-width="0.838682" stroke-miterlimit="10"/>
</g>
<g style="mix-blend-mode:multiply">
<path d="M72.4956 37.9298C78.4041 32.0213 78.4041 22.4416 72.4956 16.5331C66.587 10.6245 57.0074 10.6245 51.0988 16.533C45.1902 22.4416 45.1902 32.0213 51.0988 37.9298C57.0073 43.8384 66.587 43.8384 72.4956 37.9298Z" fill="#BFE2F8"/>
</g>
<g style="mix-blend-mode:multiply">
<path d="M188.47 86.1558C193.192 77.1806 189.744 66.0768 180.769 61.3548C171.794 56.6327 160.69 60.0805 155.968 69.0557C151.246 78.0308 154.694 89.1346 163.669 93.8567C172.644 98.5787 183.748 95.1309 188.47 86.1558Z" stroke="#BFE2F8" stroke-width="0.838682" stroke-miterlimit="10"/>
</g>
<g style="mix-blend-mode:multiply">
<path d="M186.253 83.2673C189.382 75.5192 185.637 66.7017 177.889 63.5729C170.141 60.444 161.323 64.1887 158.195 71.9367C155.066 79.6848 158.81 88.5023 166.558 91.6311C174.306 94.7599 183.124 91.0153 186.253 83.2673Z" fill="#BFE2F8"/>
</g>
<g style="mix-blend-mode:multiply">
<path d="M134.83 45.594C144.971 45.594 153.193 37.3727 153.193 27.2311C153.193 17.0895 144.971 8.86816 134.83 8.86816C124.688 8.86816 116.467 17.0895 116.467 27.2311C116.467 37.3727 124.688 45.594 134.83 45.594Z" stroke="#BFE2F8" stroke-width="0.838682" stroke-miterlimit="10"/>
</g>
<g style="mix-blend-mode:multiply">
<path d="M138.253 41.9607C146.393 40.0696 151.458 31.9385 149.567 23.7993C147.676 15.6602 139.544 10.5951 131.405 12.4861C123.266 14.3772 118.201 22.5083 120.092 30.6474C121.983 38.7866 130.114 43.8517 138.253 41.9607Z" fill="#BFE2F8"/>
</g>
<g opacity="0.5">
<path d="M101.949 10.4751C104.841 10.4751 107.186 8.13019 107.186 5.23757C107.186 2.34494 104.841 0 101.949 0C99.0559 0 96.7109 2.34494 96.7109 5.23757C96.7109 8.13019 99.0559 10.4751 101.949 10.4751Z" fill="#BFE2F8"/>
<g style="mix-blend-mode:multiply">
<path d="M101.949 10.4751C104.841 10.4751 107.186 8.13019 107.186 5.23757C107.186 2.34494 104.841 0 101.949 0C99.0559 0 96.7109 2.34494 96.7109 5.23757C96.7109 8.13019 99.0559 10.4751 101.949 10.4751Z" fill="#1BADBC"/>
</g>
<path d="M104.812 4.12687H103.059V2.37402H100.837V4.12687H99.084V6.34937H100.837V8.10222H103.059V6.34937H104.812V4.12687Z" fill="white"/>
<path d="M56.0256 77.9609C59.1482 77.7628 61.5189 75.0709 61.3208 71.9483C61.1227 68.8257 58.4308 66.4549 55.3082 66.653C52.1856 66.8511 49.8149 69.5431 50.013 72.6657C50.2111 75.7882 52.903 78.159 56.0256 77.9609Z" fill="#BFE2F8"/>
<g style="mix-blend-mode:multiply">
<path d="M56.0256 77.9609C59.1482 77.7628 61.5189 75.0709 61.3208 71.9483C61.1227 68.8257 58.4308 66.4549 55.3082 66.653C52.1856 66.8511 49.8149 69.5431 50.013 72.6657C50.2111 75.7882 52.903 78.159 56.0256 77.9609Z" fill="#1BADBC"/>
</g>
<path d="M58.5119 70.5969L56.6458 70.9198L56.3229 69.0537L53.9536 69.4647L54.2765 71.3307L52.4062 71.6536L52.8172 74.0229L54.6833 73.7L55.0062 75.5661L57.3754 75.1551L57.0525 73.289L58.9186 72.9662L58.5119 70.5969Z" fill="white"/>
<path d="M136.073 78.7791C137.851 77.2915 138.087 74.6441 136.599 72.8661C135.111 71.0882 132.464 70.8528 130.686 72.3405C128.908 73.8282 128.673 76.4755 130.16 78.2535C131.648 80.0315 134.295 80.2668 136.073 78.7791Z" fill="#BFE2F8"/>
<g style="mix-blend-mode:multiply">
<path d="M136.073 78.7791C137.851 77.2915 138.087 74.6441 136.599 72.8661C135.111 71.0882 132.464 70.8528 130.686 72.3405C128.908 73.8282 128.673 76.4755 130.16 78.2535C131.648 80.0315 134.295 80.2668 136.073 78.7791Z" fill="#1BADBC"/>
</g>
<path d="M131.279 74.2826L132.659 74.53L132.906 73.1504L134.663 73.4649L134.416 74.8487L135.796 75.0961L135.481 76.849L134.097 76.6016L133.85 77.9812L132.097 77.6667L132.344 76.2871L130.965 76.0396L131.279 74.2826Z" fill="white"/>
<path d="M26.6426 29.7403C26.4977 30.6501 26.0862 31.4966 25.4603 32.1727C24.8344 32.8487 24.022 33.324 23.126 33.5385C22.23 33.7529 21.2905 33.6968 20.4263 33.3774C19.5621 33.0579 18.812 32.4894 18.2709 31.7437C17.7298 30.998 17.422 30.1086 17.3863 29.1879C17.3506 28.2673 17.5887 27.3567 18.0705 26.5714C18.5523 25.786 19.2561 25.1612 20.0929 24.7758C20.9298 24.3904 21.8621 24.2618 22.7721 24.4062C23.3765 24.5022 23.9561 24.7163 24.4778 25.0363C24.9995 25.3563 25.453 25.776 25.8124 26.2713C26.1719 26.7667 26.4302 27.328 26.5726 27.9232C26.7151 28.5184 26.7388 29.1359 26.6426 29.7403Z" fill="#BFE2F8"/>
<g style="mix-blend-mode:multiply">
<path d="M26.6426 29.7403C26.4977 30.6501 26.0862 31.4966 25.4603 32.1727C24.8344 32.8487 24.022 33.324 23.126 33.5385C22.23 33.7529 21.2905 33.6968 20.4263 33.3774C19.5621 33.0579 18.812 32.4894 18.2709 31.7437C17.7298 30.998 17.422 30.1086 17.3863 29.1879C17.3506 28.2673 17.5887 27.3567 18.0705 26.5714C18.5523 25.786 19.2561 25.1612 20.0929 24.7758C20.9298 24.3904 21.8621 24.2618 22.7721 24.4062C23.3765 24.5022 23.9561 24.7163 24.4778 25.0363C24.9995 25.3563 25.453 25.776 25.8124 26.2713C26.1719 26.7667 26.4302 27.328 26.5726 27.9232C26.7151 28.5184 26.7388 29.1359 26.6426 29.7403Z" fill="#1BADBC"/>
</g>
<path d="M24.7135 28.4314L23.1745 28.184L23.4177 26.645L21.4636 26.3389L21.2204 27.8778L19.6814 27.6304L19.3711 29.5888L20.9101 29.832L20.6669 31.371L22.621 31.6813L22.8642 30.1423L24.4032 30.3855L24.7135 28.4314Z" fill="white"/>
<path d="M179.619 30.6928C179.596 31.8105 179.243 32.8964 178.603 33.8132C177.963 34.7299 177.066 35.4365 176.025 35.8434C174.984 36.2503 173.845 36.3394 172.753 36.0993C171.661 35.8593 170.665 35.3009 169.891 34.4947C169.116 33.6886 168.598 32.6709 168.402 31.5703C168.206 30.4698 168.341 29.3357 168.789 28.3117C169.237 27.2876 169.979 26.4194 170.921 25.8169C171.862 25.2145 172.962 24.9047 174.079 24.9269C174.822 24.9411 175.554 25.1015 176.235 25.3991C176.915 25.6967 177.53 26.1255 178.045 26.6611C178.559 27.1966 178.963 27.8284 179.233 28.5202C179.503 29.212 179.634 29.9503 179.619 30.6928Z" fill="#BFE2F8"/>
<g style="mix-blend-mode:multiply">
<path d="M179.619 30.6928C179.596 31.8105 179.243 32.8964 178.603 33.8132C177.963 34.7299 177.066 35.4365 176.025 35.8434C174.984 36.2503 173.845 36.3394 172.753 36.0993C171.661 35.8593 170.665 35.3009 169.891 34.4947C169.116 33.6886 168.598 32.6709 168.402 31.5703C168.206 30.4698 168.341 29.3357 168.789 28.3117C169.237 27.2876 169.979 26.4194 170.921 25.8169C171.862 25.2145 172.962 24.9047 174.079 24.9269C174.822 24.9411 175.554 25.1015 176.235 25.3991C176.915 25.6967 177.53 26.1255 178.045 26.6611C178.559 27.1966 178.963 27.8284 179.233 28.5202C179.503 29.212 179.634 29.9503 179.619 30.6928Z" fill="#1BADBC"/>
</g>
<path d="M177.081 29.438L175.19 29.4002L175.228 27.5132L172.825 27.4629L172.791 29.3541L170.9 29.3164L170.85 31.7192L172.741 31.7569L172.703 33.644L175.106 33.6943L175.144 31.8031L177.035 31.8408L177.081 29.438Z" fill="white"/>
</g>
<path d="M159.491 8.51368C158.971 8.51285 158.462 8.66645 158.029 8.95504C157.596 9.24363 157.258 9.65422 157.058 10.1348C156.859 10.6154 156.806 11.1444 156.908 11.6549C157.009 12.1653 157.26 12.6341 157.628 13.0021C157.995 13.3701 158.464 13.6206 158.975 13.7219C159.485 13.8232 160.014 13.7708 160.495 13.5713C160.975 13.3717 161.386 13.0341 161.675 12.6011C161.963 12.168 162.117 11.6591 162.116 11.1387C162.116 10.794 162.048 10.4527 161.916 10.1342C161.784 9.81569 161.591 9.5263 161.347 9.28254C161.103 9.03878 160.814 8.84542 160.495 8.7135C160.177 8.58157 159.836 8.51368 159.491 8.51368Z" fill="white"/>
<path d="M36.4024 50.8449C37.8522 50.8449 39.0275 49.6696 39.0275 48.2198C39.0275 46.77 37.8522 45.5947 36.4024 45.5947C34.9526 45.5947 33.7773 46.77 33.7773 48.2198C33.7773 49.6696 34.9526 50.8449 36.4024 50.8449Z" fill="white"/>
<path d="M147.53 51.5039C146.18 51.5039 146.18 53.6006 147.53 53.6006C148.881 53.6006 148.881 51.5039 147.53 51.5039Z" fill="white"/>
<path d="M71.7022 57.5557C70.3519 57.5557 70.3519 59.6524 71.7022 59.6524C73.0524 59.6524 73.0524 57.5557 71.7022 57.5557Z" fill="white"/>
<path d="M180.022 47.2256C177.862 47.2256 177.858 50.5803 180.022 50.5803C182.185 50.5803 182.181 47.2256 180.022 47.2256Z" fill="white"/>
<path d="M97.9826 26.6787C95.823 26.6787 95.8188 30.0334 97.9826 30.0334C100.146 30.0334 100.146 26.6787 97.9826 26.6787Z" fill="white"/>
<path d="M40.0318 8.60156C37.8722 8.60156 37.8722 11.9563 40.0318 11.9563C42.1914 11.9563 42.2082 8.60156 40.0318 8.60156Z" fill="white"/>
<path d="M63.0973 35.3452C61.7135 36.0958 60.1116 33.1856 59.3988 33.5169C59.2017 33.6217 59.1346 34.0075 59.122 34.4688C59.122 34.6198 59.122 34.7833 59.122 34.9468C59.122 35.3955 59.1723 35.8484 59.1723 36.142V36.1839C59.1886 36.5512 59.1242 36.9177 58.9836 37.2574C58.9461 37.3414 58.8982 37.4203 58.841 37.4922C58.7565 37.597 58.6507 37.6828 58.5307 37.7438C57.1259 38.4609 54.5554 34.5736 53.9431 33.8817C53.5238 33.412 51.4774 32.8459 50.2907 31.3657C49.9948 31.0037 49.7687 30.5899 49.6239 30.1454C49.4709 29.6692 49.4083 29.1685 49.4394 28.6693C49.4522 28.2346 49.552 27.8068 49.7329 27.4113C49.9919 26.8711 50.3881 26.4084 50.8819 26.0694C50.9748 25.9998 51.0714 25.9354 51.1713 25.8765C51.5538 25.6503 51.9602 25.4675 52.3832 25.3314C52.8709 25.1732 53.372 25.0595 53.8802 24.9917C54.3885 24.9256 54.8582 24.6856 55.2095 24.3124C55.5237 23.9675 55.8644 23.6479 56.2285 23.3563C56.5468 23.103 56.888 22.8798 57.2475 22.6895C57.3223 22.6476 57.3993 22.6098 57.4782 22.5763C57.8615 22.3986 58.2705 22.2826 58.6901 22.2324H58.841H59.0339C59.5728 22.2395 60.1011 22.3838 60.5687 22.6518L60.6106 22.6727L60.7406 22.7482C62.6822 23.9391 62.7954 25.8933 62.6654 27.4113C62.6634 27.4378 62.6634 27.4644 62.6654 27.491C62.5983 28.1829 62.4893 28.7741 62.4851 29.1683C62.4806 29.2227 62.4806 29.2774 62.4851 29.3319C62.4828 29.364 62.4828 29.3962 62.4851 29.4283C62.5522 29.7009 62.7703 30.3047 62.9967 31.0302C63.2417 31.792 63.4281 32.5715 63.5544 33.3617C63.697 34.2507 63.6257 35.0642 63.0973 35.3452Z" fill="#FEFFFF"/>
<g style="mix-blend-mode:multiply" opacity="0.2">
<path d="M57.247 22.6904C56.4922 23.8856 55.0077 25.9655 53.322 26.909C53.322 26.909 54.2236 26.0703 54.2278 25.8439C54.232 25.6174 52.2527 26.4645 50.873 26.0955C50.9659 26.0259 51.0625 25.9615 51.1624 25.9026C51.5449 25.6764 51.9513 25.4936 52.3743 25.3574C52.862 25.1993 53.3631 25.0856 53.8713 25.0178C54.386 24.9468 54.8594 24.6975 55.209 24.3133C55.5232 23.9685 55.8639 23.6488 56.228 23.3572C56.5463 23.1039 56.8875 22.8807 57.247 22.6904Z" fill="#606060"/>
</g>
<g style="mix-blend-mode:multiply" opacity="0.2">
<path d="M59.1219 34.9527C59.1093 34.7936 59.1093 34.6337 59.1219 34.4746C59.1219 34.0134 59.2016 33.636 59.3987 33.5227C60.1116 33.1915 61.7134 36.1017 63.0973 35.3511C63.6256 35.0617 63.6969 34.2566 63.5669 33.3215C63.5669 33.3676 63.5669 34.7766 62.2586 34.2314C60.6357 33.5395 58.6019 31.3296 59.1219 34.9527Z" fill="#606060"/>
</g>
<g style="mix-blend-mode:multiply" opacity="0.2">
<path d="M53.9518 33.8902C54.564 34.5821 57.1345 38.4694 58.5393 37.7523C59.0426 37.4965 59.1809 36.8885 59.1809 36.1924C59.1105 36.3784 58.9939 36.5434 58.842 36.6718C58.6901 36.8002 58.508 36.8878 58.3129 36.9262C56.3252 37.182 55.0169 32.9592 54.3124 32.6405C53.4737 32.2673 49.1335 30.3719 49.7416 27.4365C49.5606 27.832 49.4608 28.2598 49.448 28.6945C49.2551 32.3177 53.3353 33.2025 53.9518 33.8902Z" fill="#606060"/>
</g>
<path d="M61.9193 3.71228C59.8729 2.45426 57.793 5.45674 57.793 5.45674C57.793 5.45674 60.46 3.22165 61.6341 4.5887C61.9444 4.95353 61.9906 6.03543 61.1645 8.23277C60.3384 10.4301 61.0093 11.6462 61.0093 11.6462L62.129 14.2461L65.6933 22.5491L66.1127 23.4758L67.052 22.6371L66.6956 21.8446C65.9827 20.2511 64.3305 16.5777 63.0305 13.6968C62.1289 11.6965 61.9696 11.3107 61.8396 11.0466C61.177 9.44467 63.9489 4.98707 61.9193 3.71228Z" fill="#606060"/>
<g style="mix-blend-mode:multiply" opacity="0.2">
<path d="M66.2591 22.1224L62.6906 13.8236L61.5709 11.2195C61.5709 11.2195 61.1809 10.2383 61.9064 7.999C62.657 5.68005 62.5018 4.52686 62.1915 4.16623C61.4828 3.32755 60.2793 3.5498 59.3945 4.06978C60.2332 3.61689 61.3151 3.51625 61.9315 4.313C62.2628 4.73234 62.4096 5.82682 61.6883 7.82707C60.7616 10.3934 61.3067 11.3663 61.3067 11.3663L62.4264 13.9704L65.995 22.2692L66.4143 23.2001L66.6491 22.9862L66.2591 22.1224Z" fill="#606060"/>
</g>
<path d="M71.5633 40.445L63.2352 20.3879C63.0104 19.9188 62.9008 19.4028 62.9153 18.8828C62.9299 18.3628 63.0683 17.8538 63.3191 17.398L63.361 17.3351C63.4024 17.2753 63.4472 17.2179 63.4952 17.1632L63.5749 17.0793L63.6126 17.0458L63.6881 16.9745L63.8013 16.8906C63.8349 16.8655 63.8726 16.8487 63.9061 16.8277L64.0026 16.7816L64.1326 16.7313H64.2039C64.3022 16.7043 64.4039 16.6916 64.5058 16.6936C65.139 16.6936 66.0028 17.1842 66.7283 18.6393L74.8258 38.0715C75.0942 38.688 75.6225 40.6169 74.5364 41.3466C73.1652 42.2566 71.8652 41.1914 71.5633 40.445Z" fill="#306BAC"/>
<g style="mix-blend-mode:multiply" opacity="0.2">
<path d="M73.7226 41.376C73.4894 41.4297 73.2463 41.4219 73.017 41.3536C72.7877 41.2852 72.58 41.1586 72.4143 40.986L63.52 19.8093C63.3014 19.1373 63.3117 18.4117 63.5494 17.7461C63.6081 17.5491 63.6626 17.4023 63.6878 17.3268V17.2891V17.3562C63.6832 17.6531 63.7099 17.9496 63.7675 18.241C63.8319 18.5901 63.9404 18.9297 64.0903 19.2516C64.2078 19.4696 71.6469 36.6878 73.7226 41.376Z" fill="#606060"/>
</g>
<g style="mix-blend-mode:soft-light">
<path d="M74.6417 38.6197C74.8307 39.0493 74.8633 39.5315 74.7339 39.9826L64.7578 16.9775C64.9277 17.0132 65.0776 17.1122 65.1772 17.2543L74.6417 38.6197Z" fill="white"/>
</g>
<path d="M172.042 57.4499C171.719 57.8692 171.945 58.7582 173.53 59.6346C174.889 60.5865 174.935 62.2555 174.457 63.4506C174.038 64.3732 173.287 65.2748 172.666 66.2183C172.046 67.1618 171.408 68.1347 170.863 69.1537L171.207 69.3088L171.685 69.5227C172.11 68.5047 172.64 67.5336 173.266 66.625C173.87 65.6899 174.197 65.2077 175.237 63.8029C177.518 60.1923 173.312 57.4289 172.885 57.2654C172.742 57.2057 172.585 57.1914 172.434 57.2244C172.283 57.2574 172.146 57.3361 172.042 57.4499Z" fill="#606060"/>
<g style="mix-blend-mode:multiply" opacity="0.3">
<path d="M172.042 57.4492C171.719 57.8686 171.945 58.7576 173.53 59.634C174.889 60.5859 174.935 62.2549 174.457 63.45C174.038 64.3725 173.287 65.2741 172.666 66.2176C172.046 67.1611 171.408 68.134 170.863 69.153L171.207 69.3082C171.4 68.8888 171.626 68.4695 171.836 68.0502C172.046 67.6308 172.318 67.2408 172.587 66.8508C173.191 65.9115 173.518 65.4293 174.558 64.0287C176.839 60.4182 172.637 57.6505 172.205 57.487C172.152 57.4683 172.097 57.4557 172.042 57.4492Z" fill="#606060"/>
</g>
<path d="M157.691 93.1696C157.426 93.0279 157.192 92.8346 157.002 92.6012C156.813 92.3677 156.672 92.0986 156.588 91.8099C156.504 91.5212 156.478 91.2186 156.513 90.9199C156.548 90.6213 156.642 90.3325 156.789 90.0707L168.565 69.7159C168.77 69.319 169.098 68.9993 169.5 68.8043C169.902 68.6093 170.357 68.5496 170.795 68.634H170.871L171.085 68.6969L171.198 68.743H171.248L171.349 68.7891C171.395 68.8118 171.44 68.837 171.483 68.8646L171.601 68.9443C171.633 68.9657 171.664 68.9895 171.693 69.0156C171.737 69.0482 171.779 69.0832 171.819 69.1204L171.877 69.1791C171.961 69.2644 172.037 69.357 172.104 69.4559C172.314 69.7604 172.438 70.116 172.462 70.4852C172.486 70.8543 172.41 71.2231 172.242 71.5526L160.677 92.2261C160.552 92.4928 160.374 92.7307 160.152 92.9248C159.931 93.1188 159.672 93.2648 159.391 93.3535C159.11 93.4422 158.814 93.4717 158.522 93.44C158.229 93.4084 157.946 93.3163 157.691 93.1696Z" fill="#FC821F"/>
<g style="mix-blend-mode:multiply" opacity="0.2">
<path d="M157.557 92.4482C157.234 92.042 157.084 91.5257 157.138 91.0099L169.185 69.7619C169.479 69.2125 170.225 69.0406 170.707 68.9861C170.837 68.9706 170.967 68.9622 171.097 68.9609H171.135L171.085 68.9861C170.87 69.0986 170.671 69.2396 170.494 69.4054C170.28 69.6069 170.102 69.8438 169.969 70.1057C169.877 70.2902 159.624 88.6448 157.557 92.4482Z" fill="#606060"/>
</g>
<g style="mix-blend-mode:soft-light">
<path d="M160.425 92.0656C160.331 92.2359 160.196 92.3806 160.033 92.4873C159.871 92.594 159.684 92.6594 159.49 92.6778L172.07 69.8447C172.163 70.0044 172.195 70.1916 172.163 70.3731L160.425 92.0656Z" fill="white"/>
</g>
<path d="M166.435 87.2317C166.412 87.5467 166.463 87.8627 166.585 88.1542C166.706 88.4456 166.895 88.7042 167.135 88.9091C167.349 89.0954 167.604 89.2265 167.88 89.2908C168.156 89.3552 168.443 89.3508 168.716 89.2781C169.03 89.1898 169.311 89.0121 169.526 88.7665C169.574 88.7144 169.617 88.6582 169.656 88.5988C171.04 86.5692 173.01 83.7093 174.319 81.7887L174.554 81.449C174.608 81.3735 174.654 81.298 174.709 81.231C174.763 81.1639 174.78 81.1219 174.818 81.0716C175.011 80.7906 175.187 80.5432 175.334 80.3336V80.3084L175.807 79.6417L175.896 79.5159C178.244 76.2114 180.064 73.8589 180.601 73.6828C182.513 73.0622 188.019 71.8545 188.019 71.8545H187.381H187.172H186.878H186.715H186.262H185.511C185.092 71.8545 184.597 71.8545 184.123 71.8545H183.947H183.456L182.903 71.8838H182.836H182.731C182.332 71.909 181.951 71.9426 181.594 71.9887H181.456H181.343L181.037 72.039H181.011L180.84 72.0726H180.798H180.731C180.422 72.127 180.128 72.244 179.867 72.4164H179.846L179.816 72.4416L179.72 72.5338L179.506 72.7393L179.464 72.7812L179.275 72.9699C177.384 74.8863 171.606 81.0213 166.909 86.0408C166.611 86.3666 166.442 86.7902 166.435 87.2317Z" fill="#606060"/>
<g style="mix-blend-mode:multiply" opacity="0.3">
<path d="M168.717 89.2898C169.031 89.2015 169.312 89.0238 169.526 88.7782C170.855 86.8283 172.914 83.8216 174.319 81.8004L174.554 81.4607C174.609 81.3852 174.655 81.3098 174.709 81.2427C174.764 81.1756 174.78 81.1336 174.818 81.0833C175.011 80.8024 175.187 80.555 175.334 80.3453V80.3201L175.808 79.6534L175.896 79.5276C178.244 76.2232 180.064 73.8707 180.601 73.6945C182.513 73.0739 188.019 71.8662 188.019 71.8662H187.382H187.071L186.925 71.8998C185.356 72.252 181.737 73.0823 180.257 73.5771C179.72 73.7532 177.9 76.0932 175.552 79.406L174.99 80.1985L174.722 80.5843C174.55 80.8359 174.374 81.0875 174.193 81.3433C173.124 82.8362 170.038 87.3399 168.717 89.2898Z" fill="#606060"/>
</g>
<g style="mix-blend-mode:soft-light">
<path d="M166.434 87.2314C167.801 85.7092 178.745 73.6028 179.903 72.718C181.06 71.8332 187.581 71.8793 188.013 71.8793H187.564H187.396H187.187H186.893H186.73H186.277H185.526C185.107 71.8793 184.612 71.8793 184.138 71.8793H183.945H183.455L182.901 71.9087H182.729C182.331 71.9338 181.949 71.9674 181.593 72.0135L181.341 72.0471L181.035 72.0974L180.838 72.1351L180.729 72.1603C180.421 72.2147 180.127 72.3317 179.865 72.5041H179.844L179.815 72.5293L179.718 72.6216L179.504 72.827L179.463 72.869C179.404 72.9235 179.341 72.9906 179.274 73.0577C177.383 74.9741 171.604 81.109 166.907 86.1285C166.628 86.4314 166.461 86.8205 166.434 87.2314Z" fill="white"/>
</g>
<path d="M166.44 87.5922C166.456 87.9002 166.549 88.1991 166.711 88.4614C166.873 88.7238 167.099 88.9412 167.367 89.0935C167.616 89.237 167.896 89.3187 168.184 89.3318C168.471 89.345 168.757 89.2891 169.019 89.169C169.327 89.0324 169.591 88.8133 169.782 88.5358C169.822 88.4749 169.858 88.4119 169.891 88.3471C171.036 86.1455 172.659 83.0508 173.766 80.9625L173.959 80.5935L174.089 80.3544L174.177 80.1825L174.596 79.3816C174.597 79.3718 174.597 79.362 174.596 79.3522L174.99 78.6267L175.066 78.4884C177.032 74.8946 178.584 72.3031 179.108 72.0389C180.974 71.1038 186.409 68.9609 186.409 68.9609H186.258H186.174H186.149H186.099H186.044H185.973H185.897H185.801L185.587 68.9903L185.289 69.0322H185.231H185.122L184.66 69.0993L184.354 69.1496L184.153 69.1832L183.977 69.2125H183.897C183.448 69.288 182.97 69.3761 182.488 69.4683L182.308 69.5061L181.813 69.6067L181.255 69.7283H181.188L181.083 69.7535C180.664 69.8499 180.295 69.9506 179.943 70.0554L179.804 70.0973L179.687 70.1351L179.385 70.2357H179.36L179.188 70.2986L179.146 70.3196L179.079 70.3448C178.771 70.4497 178.486 70.6135 178.24 70.827L178.215 70.8564C178.19 70.8857 178.16 70.9193 178.127 70.9654C178.093 71.0115 178.01 71.108 177.934 71.2002C177.924 71.2166 177.913 71.232 177.9 71.2463L177.729 71.4644C176.051 73.645 170.956 80.5767 166.826 86.2462C166.676 86.434 166.564 86.6496 166.498 86.8806C166.432 87.1117 166.412 87.3535 166.44 87.5922Z" fill="#606060"/>
<g style="mix-blend-mode:multiply" opacity="0.3">
<path d="M169.018 89.1592C169.326 89.0227 169.59 88.8035 169.781 88.526C170.879 86.4293 172.595 83.1501 173.765 80.9527L173.957 80.5837L174.087 80.3447L174.175 80.1727L174.595 79.3718C174.596 79.362 174.596 79.3522 174.595 79.3424L174.989 78.617L175.064 78.4786C177.031 74.8848 178.583 72.2933 179.107 72.0291C180.973 71.094 186.408 68.9512 186.408 68.9512H186.303H186.257H186.173H186.135H186.064H186.043H185.946H185.871H185.774L185.456 68.9973L185.313 69.056C183.766 69.6724 180.193 71.115 178.75 71.8404C178.23 72.1046 176.675 74.6919 174.708 78.2899L174.238 79.1537L174.016 79.5731C173.869 79.8456 173.723 80.1182 173.576 80.4118C172.683 82.173 170.108 87.0625 169.018 89.1592Z" fill="#606060"/>
</g>
<g style="mix-blend-mode:soft-light">
<path d="M166.438 87.5921C167.633 85.8854 177.219 72.2819 178.284 71.2378C179.349 70.1936 185.979 69.0488 186.415 68.9775H186.365H186.314H186.18H186.13H186.033H185.962L185.79 69.0027L185.576 69.0321L185.279 69.074L185.111 69.1033L184.65 69.1704L184.344 69.2208L184.142 69.2543L183.886 69.2962C183.438 69.3717 182.96 69.4598 182.477 69.552L182.297 69.5898L181.802 69.6904L181.245 69.812L181.073 69.854C180.653 69.9504 180.284 70.0511 179.932 70.1559C179.844 70.181 179.756 70.2062 179.676 70.2356L179.374 70.3362L179.177 70.4075L179.068 70.4536C178.76 70.5586 178.475 70.7224 178.23 70.9359L178.204 70.9652C178.179 70.9946 178.15 71.0281 178.116 71.0742C178.083 71.1204 177.999 71.2126 177.923 71.3091C177.914 71.3254 177.902 71.3409 177.89 71.3552L177.718 71.5733C176.041 73.7538 170.946 80.6855 166.815 86.355C166.542 86.7073 166.408 87.1474 166.438 87.5921Z" fill="white"/>
</g>
<path d="M16.5157 60.862C18.4531 60.3029 20.3974 59.7633 22.3488 59.2433C22.0217 58.0147 21.6988 56.7902 21.3759 55.5615C19.3938 56.0815 17.4215 56.6294 15.459 57.2053L16.5157 60.862Z" fill="white"/>
<g style="mix-blend-mode:multiply" opacity="0.2">
<path d="M17.1287 60.6878C17.7074 60.5159 18.2903 60.3523 18.869 60.1888C18.5293 58.9643 18.1855 57.744 17.8458 56.5195L16.0762 57.0269C16.4284 58.2486 16.7793 59.4689 17.1287 60.6878Z" fill="#606060"/>
</g>
<path d="M14.2491 55.1393L14.5007 55.978C16.8491 55.2791 19.2071 54.6235 21.575 54.0112L21.3486 53.1432L21.1137 53.2061L20.3715 50.3881C20.3023 50.1481 20.1407 49.9453 19.9221 49.8242C19.7036 49.7032 19.446 49.6737 19.2057 49.7424C17.5703 50.1617 15.9475 50.623 14.3246 51.0968C14.0858 51.1672 13.8839 51.3279 13.7617 51.5448C13.6395 51.7617 13.6068 52.0177 13.6704 52.2584C13.95 53.1893 14.2212 54.1203 14.484 55.0512L14.2491 55.1393Z" fill="#141B41"/>
<g style="mix-blend-mode:multiply" opacity="0.4">
<path d="M14.6416 55.0209L14.6668 55.0461C16.7104 54.4422 18.7623 53.8719 20.8227 53.3352C20.3363 53.4442 16.3022 54.4506 15.3042 51.0791L14.5787 51.2888C14.3527 51.3532 14.1615 51.5046 14.0467 51.7097C13.932 51.9148 13.9032 52.1569 13.9665 52.3833C14.2181 53.2555 14.4739 54.1277 14.7255 54.9957L14.6416 55.0209Z" fill="#606060"/>
</g>
<path d="M14.6303 57.5538C17.1632 56.7934 19.7086 56.0861 22.2665 55.4319C22.1785 54.8364 22.0904 54.241 22.0065 53.6455C19.3283 54.3276 16.6725 55.0671 14.0391 55.8638C14.2236 56.4257 14.4249 56.9919 14.6303 57.5538Z" fill="white"/>
<path d="M12.709 67.3264C13.1367 68.6907 13.563 70.0508 13.988 71.4066C14.9776 74.5601 15.9687 77.7121 16.9611 80.8628C17.7578 83.3984 18.5532 85.9354 19.3471 88.4738C23.1576 87.227 27.0043 86.1171 30.8874 85.1442C31.9637 84.8647 33.0442 84.6047 34.1289 84.3643C33.5055 81.7811 32.8821 79.1966 32.2587 76.6107C31.4843 73.3985 30.7099 70.1836 29.9355 66.9658C29.6 65.568 29.266 64.18 28.9333 62.8018C24.5749 63.8054 20.2613 64.9628 15.9924 66.2739C14.8979 66.622 13.7993 66.97 12.709 67.3264Z" fill="white"/>
<path d="M10.5373 66.3133C10.9021 67.4371 11.2627 68.5652 11.6276 69.6932C11.6841 69.8702 11.76 70.0403 11.854 70.2006C12.0663 70.5767 12.3774 70.8876 12.7536 71.0997C13.1297 71.3118 13.5568 71.4171 13.9884 71.4041C14.1898 71.4006 14.3894 71.3652 14.5797 71.2993C15.7623 70.9191 16.9476 70.5486 18.1357 70.188C21.8511 69.0698 25.6 68.0703 29.3824 67.1897C29.5763 67.1412 29.7636 67.0694 29.9402 66.9759C30.3163 66.7619 30.6275 66.4501 30.8409 66.0736C31.0542 65.6971 31.1618 65.2699 31.1521 64.8372C31.1522 64.6507 31.1297 64.4648 31.085 64.2837L30.2798 60.8241C30.1862 60.4256 30.032 60.0438 29.8228 59.6919C29.4128 58.9844 28.7865 58.4274 28.0361 58.1027C27.2856 57.7781 26.4508 57.7031 25.6545 57.8887C21.5841 58.87 17.5486 59.9882 13.5481 61.2435L12.9904 61.4154C12.2122 61.6664 11.5349 62.1602 11.0579 62.8243C10.581 63.4885 10.3294 64.288 10.3402 65.1056C10.3424 65.516 10.4089 65.9235 10.5373 66.3133Z" fill="white"/>
<path d="M15.9952 83.0915C16.0158 83.2781 16.0551 83.4622 16.1126 83.6409C16.476 84.7591 16.8381 85.8872 17.1987 87.025C17.3243 87.4108 17.5021 87.7776 17.7271 88.1152C18.6287 89.4613 20.1844 90.1365 21.6186 89.6878C25.3116 88.522 29.0423 87.4848 32.8108 86.5763C33.0053 86.5269 33.1948 86.4595 33.3769 86.375C33.9588 86.0766 34.4485 85.6255 34.7935 85.0699C35.1385 84.5144 35.3258 83.8754 35.3352 83.2215C35.3546 82.8159 35.3179 82.4095 35.2262 82.0138C34.9578 80.8607 34.6852 79.7075 34.4168 78.5543C34.3739 78.3728 34.3135 78.1958 34.2365 78.0259C34.0649 77.6341 33.791 77.2957 33.4434 77.0463C33.0959 76.7969 32.6876 76.6457 32.2614 76.6085C32.0685 76.5959 31.8747 76.6129 31.6869 76.6589C29.0702 77.2655 26.4703 77.935 23.8872 78.6675C21.7374 79.2769 19.5973 79.9227 17.4671 80.6049C17.2836 80.6645 17.1098 80.7507 16.9513 80.8607C16.6059 81.1121 16.3348 81.452 16.1665 81.8446C15.9982 82.2373 15.9391 82.6681 15.9952 83.0915Z" fill="white"/>
<path d="M13.1625 66.1977C16.6609 65.9284 20.1404 65.4537 23.5831 64.7761C25.5262 64.3929 27.448 63.9086 29.3407 63.3252C29.4413 63.7445 29.5461 64.1639 29.6468 64.6084C29.663 64.6728 29.6714 64.739 29.6719 64.8055C29.6768 64.9686 29.6363 65.1299 29.5548 65.2713C29.4734 65.4128 29.3542 65.5288 29.2107 65.6064L28.2168 66.1516C28.3133 66.5373 28.4055 66.9231 28.502 67.3089L30.888 76.9286L31.1774 78.0818L32.2593 78.1405C32.417 78.1575 32.5673 78.2162 32.6948 78.3105C32.8223 78.4049 32.9224 78.5314 32.9847 78.6773C33.0113 78.7367 33.0324 78.7985 33.0476 78.8618L33.8863 82.3171C33.9428 82.5546 33.9668 82.7987 33.9576 83.0426C33.9618 83.5033 33.8142 83.9525 33.5375 84.3209C33.2609 84.6892 32.8706 84.9562 32.427 85.0806C28.6362 85.9948 24.8803 87.0389 21.1593 88.2131C20.7165 88.3343 20.246 88.3069 19.8203 88.1349C19.3946 87.963 19.037 87.656 18.8026 87.2612C18.6671 87.0563 18.5612 86.8332 18.4881 86.5986C18.1359 85.4804 17.7808 84.3509 17.423 83.2103C17.4019 83.1478 17.3878 83.0831 17.3811 83.0174C17.3583 82.8584 17.3795 82.6962 17.4424 82.5484C17.5052 82.4006 17.6073 82.2728 17.7375 82.1788L18.6349 81.5707C18.5175 81.1891 18.4001 80.8117 18.2868 80.4301L15.3724 70.9614C15.2592 70.5798 15.1418 70.2024 15.0244 69.8208L13.8921 69.8669C13.7323 69.8712 13.5744 69.8316 13.4354 69.7525C13.2964 69.6734 13.1818 69.5578 13.1038 69.4182C13.0707 69.3612 13.044 69.3008 13.0241 69.2379C12.718 68.2566 12.4077 67.2796 12.1016 66.3025L13.1625 66.1977Z" fill="#1BADBC"/>
<path d="M16.7266 71.6158L17.6827 74.5218C17.7036 74.5931 17.7288 74.656 17.7498 74.7231L18.0014 75.4989C18.0475 75.6456 18.0978 75.7924 18.1481 75.9392C18.1984 76.0859 18.2194 76.1698 18.2613 76.2872L18.2865 76.3753C18.4794 76.9498 18.6681 77.5285 18.8526 78.103C18.9407 78.3546 19.0246 78.6146 19.1084 78.8662C22.424 77.8402 25.7689 76.9092 29.1432 76.0734C28.9755 75.3311 28.8078 74.5931 28.6358 73.8509C28.6107 73.725 28.5771 73.5867 28.5394 73.4315C28.5017 73.2764 28.4849 73.1967 28.4555 73.0751L28.3717 72.6138C28.3088 72.3454 28.25 72.0812 28.1871 71.8212C28.1871 71.7499 28.1578 71.6829 28.141 71.6116L27.4449 68.6133C23.8442 69.5107 20.2714 70.5115 16.7266 71.6158Z" fill="#FC821F"/>
<path d="M17.6816 74.5216C17.7026 74.5928 17.7278 74.6557 17.7487 74.7228L18.0003 75.4986C18.0465 75.6454 18.0968 75.7922 18.1471 75.9389C18.1974 76.0857 18.2184 76.1696 18.2603 76.287L18.2855 76.375C18.4784 76.9495 18.6671 77.5282 18.8516 78.1027C18.9397 78.3543 19.0235 78.6143 19.1074 78.8659C22.423 77.8399 25.7679 76.909 29.1422 76.0731C28.9745 75.3309 28.8068 74.5928 28.6348 73.8506C28.6097 73.7248 28.5761 73.5864 28.5384 73.4313C28.5006 73.2761 28.4839 73.1964 28.4545 73.0748L28.3706 72.6136C28.3077 72.3452 28.249 72.081 28.1861 71.821C28.1861 71.7497 28.1568 71.6826 28.14 71.6113C24.6287 72.5003 21.1426 73.4704 17.6816 74.5216Z" fill="white"/>
<path d="M19.1087 78.8673C22.4243 77.8413 25.7693 76.9103 29.1436 76.0745C28.9758 75.3322 28.8081 74.5942 28.6362 73.852C28.611 73.7262 28.5774 73.5878 28.5397 73.4326C28.502 73.2775 28.4852 73.1978 28.4558 73.0762C24.9977 73.9512 21.5619 74.9101 18.1484 75.9529C18.1862 76.0703 18.2197 76.1835 18.2617 76.3009L18.2868 76.389C18.4797 76.9635 18.6684 77.5422 18.8529 78.1167C18.941 78.3557 19.0249 78.6157 19.1087 78.8673Z" fill="#141B41"/>
<g style="mix-blend-mode:multiply" opacity="0.2">
<path d="M11.8535 70.2022C12.1134 70.6698 12.5258 71.034 13.0219 71.234C13.5181 71.4339 14.0678 71.4576 14.5792 71.3009C19.4576 69.7242 24.3918 68.3529 29.382 67.1872C29.901 67.0571 30.3597 66.753 30.6817 66.3257C31.0037 65.8984 31.1696 65.3736 31.1516 64.8389C24.6274 66.2793 18.1854 68.0697 11.8535 70.2022Z" fill="#606060"/>
</g>
<g style="mix-blend-mode:multiply" opacity="0.2">
<path d="M35.3369 83.2217C29.3834 84.5389 23.5043 86.1724 17.7246 88.1154C18.6304 89.4657 20.1819 90.1366 21.6161 89.6879C25.3091 88.5221 29.0398 87.485 32.8083 86.5764C34.2718 86.2242 35.2572 84.8445 35.3369 83.2217Z" fill="#606060"/>
</g>
<g style="mix-blend-mode:soft-light">
<path d="M10.3403 65.1066C16.7324 62.9578 23.2344 61.1507 29.8186 59.6929C29.4087 58.9854 28.7824 58.4283 28.032 58.1037C27.2815 57.7791 26.4467 57.7041 25.6504 57.8897C21.3899 58.9157 17.1685 60.0885 12.9863 61.408C12.2079 61.6607 11.5309 62.1562 11.0547 62.8219C10.5784 63.4875 10.3281 64.2882 10.3403 65.1066Z" fill="white"/>
<path d="M34.2431 78.0264C34.0413 77.5399 33.6779 77.1379 33.2142 76.8882C32.7506 76.6384 32.215 76.5561 31.6977 76.6551C26.9088 77.7734 22.1717 79.0901 17.4862 80.6053C16.992 80.7888 16.5755 81.1361 16.3061 81.5893C16.0368 82.0425 15.9308 82.5743 16.006 83.0962C21.9893 81.0792 28.0772 79.3868 34.2431 78.0264Z" fill="white"/>
</g>
<path d="M125.364 23.0177C125.251 23.4706 125.146 23.9277 125.05 24.3847C124.748 25.8021 124.517 27.253 124.324 28.7417C125.582 31.6771 128.656 34.1386 132.636 35.2499C135.34 36.0532 138.227 36.0004 140.901 35.0989C141.686 34.8153 142.428 34.4244 143.106 33.9373C143.702 32.52 144.272 31.1026 144.784 29.6097C144.914 29.2365 145.035 28.8633 145.153 28.4775C145.623 26.9511 145.618 25.4289 145.153 24.9802C140.175 20.0068 133.982 18.2917 127.167 20.0194C126.534 20.162 125.75 21.4661 125.364 23.0177Z" fill="#D61D64"/>
<g style="mix-blend-mode:multiply" opacity="0.7">
<path d="M125.364 23.0177C125.251 23.4706 125.146 23.9277 125.05 24.3847C124.748 25.8021 124.517 27.253 124.324 28.7417C125.582 31.6771 128.656 34.1386 132.636 35.2499C135.34 36.0532 138.227 36.0004 140.901 35.0989C141.686 34.8153 142.428 34.4244 143.106 33.9373C143.702 32.52 144.272 31.1026 144.784 29.6097C144.914 29.2365 145.035 28.8633 145.153 28.4775C145.623 26.9511 145.618 25.4289 145.153 24.9802C140.175 20.0068 133.982 18.2917 127.167 20.0194C126.534 20.162 125.75 21.4661 125.364 23.0177Z" fill="#606060"/>
</g>
<path d="M144.993 35.7322C145.019 35.5853 145.034 35.4367 145.039 35.2877C145.055 34.8003 145.002 34.3132 144.88 33.841C142.75 32.801 138.665 31.6268 133.977 30.3185C130.476 29.354 127.301 28.5111 124.936 28.0499C124.237 27.9065 123.53 27.8015 122.819 27.7354C122.472 28.1059 122.172 28.517 121.925 28.9598C121.867 29.0731 121.816 29.1863 121.766 29.3079C121.577 29.7817 121.888 30.4695 122.475 30.8636C128.644 35.1519 136.089 37.212 143.584 36.7051C144.293 36.6673 144.901 36.2396 144.993 35.7322Z" fill="#D61D64"/>
<g style="mix-blend-mode:multiply" opacity="0.4">
<path d="M145.04 35.2877C145.056 34.8003 145.002 34.3132 144.88 33.841C142.75 32.801 138.666 31.6268 133.978 30.3185C130.476 29.354 127.302 28.5111 124.937 28.0499C124.237 27.9065 123.53 27.8015 122.819 27.7354C122.473 28.1059 122.173 28.517 121.926 28.9598C125.073 30.9176 128.479 32.4251 132.044 33.4384C136.266 34.6707 140.642 35.2934 145.04 35.2877Z" fill="#606060"/>
</g>
<path d="M142.578 33.1236L142.88 31.1988C142.888 31.1838 142.898 31.1698 142.909 31.1569C143.081 30.9186 143.303 30.721 143.559 30.5782C143.906 30.3933 144.306 30.334 144.692 30.4104C145.363 30.7166 144.746 32.7168 144.226 33.9874C144.04 34.0884 143.828 34.1294 143.618 34.1048H143.593C142.914 34.0252 142.574 33.1278 142.578 33.1236Z" fill="white"/>
<g style="mix-blend-mode:multiply" opacity="0.2">
<path d="M142.578 33.1255L142.88 31.2007C142.888 31.1857 142.898 31.1717 142.909 31.1588C143.081 30.9205 143.303 30.7229 143.559 30.5801C143.29 31.7416 143.302 32.9506 143.593 34.1067C142.914 34.0271 142.574 33.1297 142.578 33.1255Z" fill="#606060"/>
</g>
<path d="M139.639 32.798C139.829 32.1383 140.016 31.4799 140.201 30.8229C140.595 30.4093 141.059 30.0686 141.572 29.8165C141.809 29.7038 142.073 29.6575 142.335 29.6823C143.249 29.8584 143.174 33.3767 142.004 33.9428C141.763 34.0606 141.49 34.0931 141.228 34.0351C140.335 33.8673 139.693 32.7938 139.639 32.798Z" fill="white"/>
<g style="mix-blend-mode:multiply" opacity="0.2">
<path d="M139.639 32.7979C139.829 32.1382 140.016 31.4798 140.201 30.8228C140.595 30.4092 141.059 30.0685 141.572 29.8164C140.456 32.1018 140.863 33.4898 141.228 34.035C140.335 33.8672 139.693 32.7937 139.639 32.7979Z" fill="#606060"/>
</g>
<path d="M137.434 30.3445C137.704 29.892 138.062 29.4984 138.487 29.1871C139.745 28.3233 141.028 29.0152 140.722 30.6674C140.722 30.6674 140.302 33.6992 138.357 33.544C138.25 33.5337 138.145 33.5126 138.042 33.4811C136.562 32.9696 137.442 30.3361 137.434 30.3445Z" fill="white"/>
<g style="mix-blend-mode:multiply" opacity="0.2">
<path d="M137.434 30.3439C137.704 29.8915 138.062 29.4979 138.487 29.1865C137.874 30.7045 137.954 32.7174 138.042 33.4806C136.562 32.969 137.442 30.3355 137.434 30.3439Z" fill="#606060"/>
</g>
<path d="M134.178 29.6144C134.244 29.3914 134.356 29.1845 134.506 29.0069C134.656 28.8293 134.841 28.6849 135.05 28.5828C136.275 27.958 138.262 28.4402 137.948 29.9037C137.726 30.9102 137.13 33.2836 135.231 33.2878C134.947 33.296 134.668 33.2106 134.438 33.0446C133.553 32.3862 133.926 30.5453 134.178 29.6144Z" fill="white"/>
<g style="mix-blend-mode:multiply" opacity="0.2">
<path d="M134.178 29.6146C134.244 29.3916 134.356 29.1847 134.506 29.0071C134.656 28.8295 134.841 28.6851 135.05 28.583C134.321 29.9497 134.104 31.5321 134.438 33.0448C133.553 32.3864 133.926 30.5455 134.178 29.6146Z" fill="#606060"/>
</g>
<path d="M125.186 28.3105C125.429 27.7151 125.668 27.1112 125.911 26.5074V26.457C125.888 26.161 125.798 25.8741 125.647 25.6184C125.446 25.2803 125.133 25.0235 124.762 24.8929C124.033 24.8132 123.534 26.8428 123.328 28.2015C123.436 28.3847 123.597 28.5308 123.789 28.6208C124.435 28.9102 125.186 28.3147 125.186 28.3105Z" fill="white"/>
<g style="mix-blend-mode:multiply" opacity="0.2">
<path d="M125.184 28.3094C125.427 27.7139 125.666 27.11 125.909 26.5062V26.4559C125.887 26.1598 125.796 25.8729 125.645 25.6172C125.28 26.751 124.651 27.7817 123.809 28.6239C124.433 28.909 125.184 28.3135 125.184 28.3094Z" fill="#606060"/>
</g>
<path d="M127.877 29.5376L128.405 27.5541C128.281 26.9991 128.061 26.4699 127.755 25.99C127.611 25.7692 127.407 25.5934 127.168 25.4826C126.296 25.1681 124.547 28.2167 125.264 29.3028C125.41 29.5294 125.629 29.6994 125.885 29.785C126.711 30.087 127.826 29.5041 127.877 29.5376Z" fill="white"/>
<g style="mix-blend-mode:multiply" opacity="0.2">
<path d="M127.877 29.5388L128.405 27.5554C128.28 27.0003 128.06 26.4711 127.755 25.9912C127.537 28.5073 126.476 29.5053 125.885 29.7653C126.711 30.0882 127.826 29.5053 127.877 29.5388Z" fill="#606060"/>
</g>
<path d="M131.026 28.569C131.026 28.0431 130.921 27.5225 130.715 27.0384C130.082 25.6504 128.619 25.5833 128.04 27.16C128.04 27.16 126.845 29.9738 128.589 30.8376C128.687 30.8862 128.789 30.9228 128.895 30.9466C130.43 31.2905 131.022 28.5564 131.026 28.569Z" fill="white"/>
<g style="mix-blend-mode:multiply" opacity="0.2">
<path d="M131.025 28.5706C131.025 28.0448 130.92 27.5242 130.714 27.04C130.463 28.6545 129.36 30.3403 128.895 30.9483C130.429 31.2922 131.021 28.5581 131.025 28.5706Z" fill="#606060"/>
</g>
<path d="M134.18 29.6152C134.241 29.3911 134.253 29.1567 134.216 28.9276C134.179 28.6985 134.094 28.4798 133.967 28.2859C133.233 27.1201 131.283 26.5121 130.801 27.9252C130.473 28.9065 129.765 31.2464 131.396 32.2277C131.635 32.3803 131.918 32.4496 132.201 32.4248C133.308 32.3157 133.929 30.5461 134.18 29.6152Z" fill="white"/>
<g style="mix-blend-mode:multiply" opacity="0.2">
<path d="M134.179 29.6135C134.239 29.3894 134.251 29.155 134.214 28.9259C134.177 28.6968 134.092 28.4781 133.965 28.2842C133.887 29.8298 133.261 31.2972 132.199 32.4231C133.306 32.314 133.927 30.5444 134.179 29.6135Z" fill="#606060"/>
</g>
<path d="M126.026 17.3016C127.754 16.9829 126.865 18.9789 131.142 17.8048C133.524 17.1338 135.701 17.6999 137.042 19.3438C139.194 18.5051 141.185 19.2557 142.884 21.0505C145.966 24.271 146.239 22.1575 147.568 23.3191C148.897 24.4807 147.534 26.3006 147.53 26.3216C147.283 26.7764 146.98 27.199 146.629 27.5796C145.912 27.5474 145.198 27.4718 144.49 27.3532C141.426 26.815 138.393 26.1151 135.403 25.2565C130.715 23.9523 126.672 22.6314 124.575 21.4824C124.456 21.0026 124.403 20.5089 124.416 20.0147C124.416 20.0147 124.416 19.9686 124.416 19.9434C124.416 19.9434 124.303 17.6203 126.026 17.3016Z" fill="#D61D64"/>
<g style="mix-blend-mode:multiply" opacity="0.4">
<path d="M124.4 20.0068C124.387 20.501 124.441 20.9947 124.56 21.4745C126.656 22.6193 130.699 23.9403 135.387 25.2486C138.377 26.1092 141.41 26.8091 144.474 27.3453C145.182 27.4639 145.896 27.5395 146.613 27.5717C146.964 27.1911 147.267 26.7686 147.514 26.3137C144.295 24.5167 140.873 23.109 137.32 22.1203C133.111 20.9123 128.775 20.2029 124.4 20.0068Z" fill="#606060"/>
</g>
<g style="mix-blend-mode:multiply" opacity="0.2">
<path d="M124.821 20.6533C125.012 20.5718 125.225 20.5527 125.429 20.5988H125.454C125.689 20.6948 125.903 20.837 126.082 21.0171C126.261 21.1972 126.403 21.4114 126.498 21.6471C126.539 21.5026 126.609 21.3681 126.704 21.252C126.8 21.1358 126.918 21.0405 127.051 20.972C127.302 20.8817 127.577 20.8817 127.827 20.972C128.515 21.1942 129.106 21.9616 129.358 22.3139C129.523 22.1182 129.741 21.9745 129.986 21.9001C130.23 21.8257 130.492 21.8238 130.737 21.8945C130.846 21.9235 130.951 21.9628 131.052 22.012C131.769 22.3684 131.958 23.1568 131.958 23.878C132.377 23.0393 133.073 22.3516 134.147 22.5403C134.445 22.5956 134.719 22.7422 134.931 22.9597C135.451 23.5006 135.472 24.4274 135.35 25.2744C135.673 24.4777 136.164 23.6935 136.889 23.4964C137.181 23.4216 137.489 23.4407 137.77 23.5509C138.789 23.9325 139.028 24.8886 138.961 25.8196C139.334 25.1989 139.9 24.6203 140.697 24.679C140.809 24.6881 140.92 24.7092 141.028 24.7419C141.276 24.8052 141.5 24.9399 141.672 25.1292C141.844 25.3185 141.957 25.5542 141.997 25.807C142.395 25.6351 143.297 25.2786 144.001 25.438C144.267 25.492 144.504 25.6411 144.668 25.8573C144.749 25.9851 144.802 26.1282 144.824 26.2777C144.847 26.4271 144.838 26.5795 144.798 26.7253C145.004 26.5751 145.239 26.468 145.487 26.4104C145.736 26.3527 145.993 26.3458 146.245 26.3899H146.266C146.465 26.4523 146.637 26.5792 146.756 26.7505C146.635 28.1637 145.544 30.2185 144.974 29.9501C144.604 29.8769 144.277 29.6616 144.064 29.3504C143.929 29.1415 143.849 28.9023 143.829 28.6543C143.347 29.2749 142.798 29.7362 142.433 29.644C142.191 29.5716 141.978 29.4249 141.825 29.2246C141.647 28.999 141.506 28.7472 141.405 28.4782C140.659 29.7362 139.309 29.774 138.701 28.6501C138.596 28.4487 138.519 28.2344 138.47 28.0127C137.841 29.1953 136 28.9185 135.237 27.9624C135.008 27.6815 134.89 27.3264 134.906 26.9644C134.732 27.2827 134.449 27.5272 134.109 27.6521C132.96 28.0714 131.241 27.3711 131.308 26.0334C131.153 26.196 130.976 26.337 130.784 26.4528C129.685 27.1069 128.548 26.3731 128.548 24.9222C128.318 25.0996 128.062 25.241 127.789 25.3415C127.556 25.4291 127.301 25.4423 127.06 25.3793C126.699 25.2702 126.464 24.5951 126.368 23.8151C126.223 24.0157 126.032 24.1783 125.81 24.289C125.467 24.4457 125.076 24.4637 124.72 24.3393C124.02 23.9116 124.401 21.8987 124.821 20.6533Z" fill="#606060"/>
</g>
<path d="M144.763 26.5471C144.47 27.1314 144.176 27.7212 143.883 28.3167V28.3544C143.893 28.6243 143.976 28.8864 144.122 29.1135C144.335 29.4259 144.661 29.6437 145.032 29.7215C145.602 29.9899 146.709 27.9435 146.814 26.5261C146.693 26.3556 146.521 26.2278 146.323 26.1613H146.298C145.619 25.9307 144.763 26.5429 144.763 26.5471Z" fill="white"/>
<g style="mix-blend-mode:multiply" opacity="0.2">
<path d="M144.763 26.5492C144.47 27.1335 144.176 27.7234 143.883 28.3188V28.3566C143.893 28.6264 143.976 28.8885 144.122 29.1156C144.601 27.9695 145.347 26.9545 146.298 26.155C145.619 25.9328 144.763 26.545 144.763 26.5492Z" fill="#606060"/>
</g>
<path d="M141.849 25.6557L141.225 27.6014C141.344 28.1084 141.566 28.5853 141.879 29.002C142.033 29.2018 142.245 29.3485 142.487 29.4213C143.397 29.61 145.473 26.5866 144.726 25.6473C144.562 25.4313 144.325 25.2823 144.059 25.2279C143.141 25.0015 141.9 25.6808 141.849 25.6557Z" fill="white"/>
<g style="mix-blend-mode:multiply" opacity="0.2">
<path d="M141.849 25.6557L141.225 27.6014C141.344 28.1084 141.566 28.5853 141.879 29.002C142.206 26.574 143.388 25.5299 144.059 25.2279C143.141 25.0015 141.9 25.6808 141.849 25.6557Z" fill="#606060"/>
</g>
<path d="M138.418 27.0085C138.41 27.4952 138.518 27.9768 138.733 28.4133C139.387 29.6294 140.918 29.491 141.605 27.9269C141.605 27.9269 142.998 25.1215 141.081 24.5093C140.973 24.4766 140.862 24.4555 140.75 24.4464C139.077 24.3248 138.423 27.0253 138.418 27.0085Z" fill="white"/>
<g style="mix-blend-mode:multiply" opacity="0.2">
<path d="M138.418 27.0085C138.41 27.4952 138.518 27.9768 138.733 28.4133C139.022 26.8408 140.23 25.0838 140.75 24.4464C139.077 24.3248 138.423 27.0253 138.418 27.0085Z" fill="#606060"/>
</g>
<path d="M134.971 26.4349C134.916 26.6572 134.913 26.8892 134.964 27.1127C135.014 27.3361 135.115 27.5448 135.26 27.7222C136.099 28.7412 138.128 28.9803 138.615 27.5126C138.934 26.481 139.642 24.0153 137.822 23.3192C137.54 23.2089 137.231 23.1898 136.938 23.2646C135.742 23.5833 135.185 25.4746 134.971 26.4349Z" fill="white"/>
<g style="mix-blend-mode:multiply" opacity="0.2">
<path d="M134.971 26.4364C134.916 26.6587 134.913 26.8908 134.964 27.1142C135.014 27.3377 135.115 27.5464 135.26 27.7238C135.296 26.0878 135.887 24.5126 136.938 23.2578C135.742 23.5849 135.185 25.4761 134.971 26.4364Z" fill="#606060"/>
</g>
<path d="M126.581 21.5371C126.535 22.1871 126.485 22.8412 126.434 23.4996L126.409 23.5415C126.26 23.7663 126.055 23.9484 125.814 24.0699C125.47 24.2266 125.08 24.2447 124.723 24.1202C124.048 23.7344 124.442 21.7216 124.828 20.4803C125.019 20.3943 125.232 20.3722 125.436 20.4174H125.461C126.166 20.5726 126.585 21.5371 126.581 21.5371Z" fill="white"/>
<g style="mix-blend-mode:multiply" opacity="0.2">
<path d="M126.581 21.5383C126.534 22.1883 126.484 22.8424 126.434 23.5008L126.409 23.5427C126.259 23.7675 126.054 23.9496 125.813 24.0711C125.988 22.8443 125.867 21.5936 125.461 20.4229C126.165 20.5738 126.585 21.5383 126.581 21.5383Z" fill="#606060"/>
</g>
<path d="M129.541 22.2634C129.386 22.9259 129.235 23.5885 129.084 24.251C128.718 24.6219 128.282 24.9156 127.801 25.1149C127.566 25.2026 127.31 25.2157 127.067 25.1526C126.19 24.8465 125.96 21.2024 127.092 20.7663C127.342 20.6742 127.617 20.6742 127.868 20.7663C128.769 21.0431 129.486 22.2592 129.541 22.2634Z" fill="white"/>
<g style="mix-blend-mode:multiply" opacity="0.2">
<path d="M129.541 22.2639C129.386 22.9265 129.235 23.5891 129.084 24.2516C128.718 24.6224 128.282 24.9162 127.801 25.1155C128.765 22.872 128.283 21.3707 127.868 20.7627C128.769 21.0437 129.487 22.2597 129.541 22.2639Z" fill="#606060"/>
</g>
<path d="M131.794 25.1823C131.55 25.6043 131.209 25.9623 130.8 26.2265C129.617 26.931 128.376 26.0252 128.586 24.3353C128.586 24.3353 128.829 21.2196 130.787 21.6766C130.896 21.7042 131.001 21.7421 131.102 21.7899C132.616 22.5489 131.781 25.1949 131.794 25.1823Z" fill="white"/>
<g style="mix-blend-mode:multiply" opacity="0.2">
<path d="M131.793 25.1825C131.549 25.6045 131.208 25.9624 130.799 26.2267C131.361 24.7296 131.218 22.6036 131.101 21.79C132.615 22.549 131.78 25.1951 131.793 25.1825Z" fill="#606060"/>
</g>
<path d="M135.048 26.4572C134.979 26.676 134.861 26.8759 134.702 27.0417C134.544 27.2075 134.349 27.3346 134.134 27.4133C132.909 27.8662 131.018 27.0359 131.366 25.5095C131.622 24.4653 132.276 21.987 134.201 22.3183C134.502 22.3706 134.778 22.5175 134.989 22.7377C135.845 23.6141 135.354 25.5221 135.048 26.4572Z" fill="white"/>
<g style="mix-blend-mode:multiply" opacity="0.2">
<path d="M135.047 26.4561C134.978 26.6748 134.86 26.8748 134.701 27.0406C134.543 27.2063 134.348 27.3335 134.133 27.4122C134.937 25.9887 135.233 24.3337 134.971 22.7197C135.844 23.6129 135.353 25.5209 135.047 26.4561Z" fill="#606060"/>
</g>
<path d="M121.02 155.176L121.011 155.042L120.378 145.745L75.9278 147.016L75.3952 155.587V155.612L73.0176 193.994H97.0919L98.3416 181.708L100.216 193.994H123.666L121.02 155.176Z" fill="#141B41"/>
<path d="M121.021 153.469C108.596 156.493 87.9515 156.602 75.3965 153.805L75.929 146.785L120.379 145.745L121.012 153.36L121.021 153.469Z" fill="#606060"/>
<path d="M103.064 157.663H93.6205L93.3438 149.205H103.341L103.064 157.663Z" fill="#606060"/>
<g style="mix-blend-mode:soft-light">
<path d="M93.9648 149.872L94.2081 157.139L102.314 156.963L94.7658 156.686V149.486L93.9648 149.872Z" fill="white"/>
</g>
<path d="M123.729 92.7498C123.729 92.7498 119.116 84.6062 108.348 81.0082C103.672 78.9325 103.169 79.0206 97.9816 78.4922C92.7902 79.0122 92.2912 78.9115 87.6113 81.0082C76.8301 84.602 72.2299 92.7498 72.2299 92.7498C72.2299 92.7498 70.6448 91.9111 72.9637 98.7338C73.2363 99.5179 73.4879 100.352 73.7186 101.216C74.0506 102.483 74.3151 103.767 74.5111 105.062C74.5122 105.084 74.5122 105.106 74.5111 105.129C74.5572 105.473 74.5992 105.816 74.6495 106.169C74.7417 106.81 74.7921 107.464 74.8424 108.135C74.8927 108.806 74.9221 109.393 74.9346 110.048C74.9346 110.53 74.1169 145.981 74.1169 145.981C78.1594 152.741 116.613 152.741 121.817 145.981C121.817 145.981 120.978 110.53 121.003 110.048C121.003 109.398 121.05 108.764 121.091 108.135C121.133 107.506 121.196 106.81 121.284 106.169C121.335 105.816 121.377 105.473 121.427 105.129C121.427 105.099 121.427 105.078 121.427 105.062C121.623 103.767 121.887 102.483 122.22 101.216C122.45 100.352 122.702 99.5179 122.979 98.7338C125.314 91.8985 123.729 92.7498 123.729 92.7498Z" fill="#306BAC"/>
<path d="M106.968 81.5323C106.968 81.5323 101.038 89.8563 97.742 90.4895C94.446 91.1227 87.6191 81.5323 87.6191 81.5323C88.8144 80.7496 89.6616 79.5359 89.9842 78.1441L90.0345 77.9428C90.0952 77.7181 90.1414 77.4898 90.1729 77.2593C90.2911 76.391 90.2911 75.5108 90.1729 74.6426H105.039C105.039 74.6426 105.039 74.7558 105.005 74.9571C105.005 75.0661 105.005 75.2087 105.005 75.3764C104.968 76.2321 105.031 77.0892 105.194 77.9302C105.194 77.9302 105.194 77.9554 105.194 77.9679C105.411 79.3082 106.029 80.551 106.968 81.5323Z" fill="#E5B7AC"/>
<g style="mix-blend-mode:multiply" opacity="0.5">
<path d="M97.6034 81.9852C94.7393 82.023 90.1307 77.4983 90.1642 77.2593C90.2824 76.391 90.2824 75.5108 90.1642 74.6426H105.03C105.03 74.6426 105.03 74.7558 104.996 74.9571C104.996 75.0661 104.996 75.2087 104.996 75.3764C104.996 75.7664 105.063 76.7141 105.126 77.3473C105.147 77.7038 100.409 81.9433 97.6034 81.9852Z" fill="#E5B7AC"/>
</g>
<path d="M103.718 132.797L97.1641 141.331L91.0879 132.525L95.5077 94.4571L95.6881 92.9307H99.286L99.4537 94.4319L103.718 132.797Z" fill="#1BADBC"/>
<g style="mix-blend-mode:multiply" opacity="0.2">
<path d="M99.4538 94.4319C98.7703 95.2916 98.0029 96.0422 97.4074 96.0422C96.812 96.0422 96.1494 95.3251 95.5078 94.4571L95.6881 92.9307H99.2861L99.4538 94.4319Z" fill="#606060"/>
</g>
<path d="M93.6719 89.9279C94.252 91.0418 94.918 92.1087 95.6637 93.1191C96.2634 93.8907 96.9008 94.4988 97.4082 94.4988C97.9156 94.4988 98.6872 93.8278 99.3414 93.0311C100.005 92.193 100.607 91.3072 101.14 90.3808C101.249 89.5421 99.6433 87.0261 97.5927 86.9045C96.3599 86.8332 94.976 87.9864 93.6719 89.9279Z" fill="#1BADBC"/>
<g style="mix-blend-mode:soft-light">
<path d="M102.413 121.054L91.179 131.73L91.1035 132.355L102.468 121.557L102.413 121.054Z" fill="white"/>
<path d="M92.8848 117.014L101.095 109.21L101.041 108.707L92.9602 116.385L92.8848 117.014Z" fill="white"/>
<path d="M94.668 101.671L99.7252 96.8697L99.6665 96.3623L94.7434 101.046L94.668 101.671Z" fill="white"/>
<path d="M94.2652 105.166L93.9004 108.307L100.316 102.205L100.035 99.6807L94.2652 105.166Z" fill="white"/>
<path d="M98.7679 87.2373L94.457 91.3301C94.8075 91.9193 95.1897 92.489 95.6018 93.0368L100.319 88.554C99.9019 88.0097 99.3729 87.5607 98.7679 87.2373Z" fill="white"/>
<path d="M103.064 126.893L102.783 124.364L92.3203 134.307L93.4819 135.993L103.064 126.893Z" fill="white"/>
<path d="M101.688 114.55L101.412 112.021L92.484 120.505L92.1191 123.646L101.688 114.55Z" fill="white"/>
</g>
<g style="mix-blend-mode:multiply" opacity="0.2">
<path d="M87.2012 81.4062C88.5724 84.9245 89.9227 90.4221 93.1307 94.7077L97.5924 86.9038L89.864 80.2656L87.2012 81.4062Z" fill="#606060"/>
<path d="M105.272 80.2656L97.5938 86.9038L102.127 94.9803C105.331 90.6988 106.496 84.5345 107.872 81.0121L105.272 80.2656Z" fill="#606060"/>
</g>
<path d="M87.2012 81.406C88.5724 84.9243 89.9227 88.8032 93.1307 93.0847L97.5631 86.8994L89.8598 78.6426L87.2012 81.406Z" fill="#306BAC"/>
<path d="M105.27 78.6426L97.5625 86.8994L102.125 93.3531C105.329 89.0674 106.612 84.3288 107.996 80.8106L105.27 78.6426Z" fill="#306BAC"/>
<g style="mix-blend-mode:soft-light" opacity="0.5">
<path d="M87.2012 81.4051C88.5724 84.9233 89.9227 88.8022 93.1307 93.0837L97.5631 86.8984L89.8598 78.6416L87.2012 81.4051Z" fill="white"/>
<path d="M105.27 78.6416L97.5625 86.8984L102.125 93.3521C105.329 89.0664 106.612 84.3279 107.996 80.8096L105.27 78.6416Z" fill="white"/>
</g>
<path d="M60.8915 133.644C61.0844 130.575 60.925 127.639 62.4011 124.759C62.588 124.394 62.801 124.044 63.0385 123.71L61.1808 124.062L30.7493 111.386C28.4177 112.514 27.6797 116.233 27.6797 116.233C27.6797 116.233 55.9139 134.563 60.5057 134.722H60.925C60.8774 134.365 60.8661 134.004 60.8915 133.644Z" fill="#E5B7AC"/>
<path d="M34.5607 116.351C31.0089 116.007 34.1708 111.91 34.1708 111.91C34.1708 111.91 32.8121 110.233 29.168 110.652C28.4538 110.821 27.7101 110.821 26.9958 110.652C26.5765 110.51 24.8488 108.363 22.7395 108.643C22.4648 108.675 22.2061 108.789 21.9973 108.971C20.7728 109.927 25.1046 113.382 26.1907 113.806C27.2768 114.229 31.1431 116.456 34.1582 116.38C34.2973 116.363 34.4373 116.353 34.5775 116.351H34.5607Z" fill="#E5B7AC"/>
<path d="M19.8998 107.435C19.8453 107.33 19.7237 106.357 19.3463 106.118C18.7215 105.67 17.5599 106.118 17.6144 108.085C17.6144 108.685 17.6438 109.142 17.6647 109.515C17.2747 108.58 16.7212 106.16 16.0209 105.766C15.22 105.326 13.9494 106.005 14.3436 108.282L14.5113 109.268C15.6519 109.842 16.9267 110.555 18.105 111.238C20.1053 112.396 21.8162 113.457 22.0678 113.57C22.2635 113.604 22.4644 113.593 22.6549 113.536C22.9987 113.469 23.4432 113.348 23.9129 113.205C23.0742 112.4 20.6337 110.106 20.4114 109.725C20.2227 109.44 20.1053 108.353 19.8998 107.435Z" fill="#E5B7AC"/>
<g style="mix-blend-mode:multiply" opacity="0.4">
<path d="M34.5588 116.352C31.007 116.008 34.1688 111.911 34.1688 111.911C34.1688 111.911 32.8101 110.234 29.1661 110.653C28.4518 110.822 27.7081 110.822 26.9939 110.653C26.5745 110.511 24.8469 108.364 22.7376 108.644C22.4628 108.676 22.2041 108.79 21.9953 108.972C20.7709 109.928 25.1027 113.383 26.1887 113.807C27.2748 114.23 31.1412 116.457 34.1562 116.381C34.2954 116.364 34.4353 116.354 34.5756 116.352H34.5588Z" fill="#E5B7AC"/>
<path d="M19.8998 107.436C19.8453 107.331 19.7237 106.358 19.3463 106.119C18.7215 105.671 17.5599 106.119 17.6144 108.086C17.6144 108.686 17.6438 109.143 17.6647 109.516C17.2747 108.581 16.7212 106.161 16.0209 105.767C15.22 105.327 13.9494 106.006 14.3436 108.283L14.5113 109.269C15.6519 109.843 16.9267 110.556 18.105 111.239C20.1053 112.397 21.8162 113.458 22.0678 113.571C22.2635 113.605 22.4644 113.594 22.6549 113.537C22.9987 113.47 23.4432 113.349 23.9129 113.206C23.0742 112.401 20.6337 110.107 20.4114 109.726C20.2227 109.44 20.1053 108.354 19.8998 107.436Z" fill="#E5B7AC"/>
</g>
<path d="M22.286 113.737C22.286 113.737 18.9606 112.898 18.0926 112.647C17.2245 112.395 15.0062 110.76 14.0501 110.76C13.5008 110.802 12.7166 111.741 13.9034 112.676C15.0901 113.611 20.0886 116.781 21.1076 117.125C22.1266 117.469 24.2695 116.236 24.2695 116.236L22.286 113.737Z" fill="#E5B7AC"/>
<path d="M34.9301 112.224C32.4602 109.628 26.0066 112.45 26.0066 112.45C25.3219 112.744 24.622 113 23.9099 113.218C23.4402 113.36 22.9957 113.482 22.6518 113.549C22.4614 113.606 22.2604 113.617 22.0648 113.583C21.8132 113.469 20.1022 112.408 18.102 111.251C16.9236 110.568 15.6488 109.855 14.5082 109.28C14.2315 109.138 13.9589 109.003 13.6989 108.882C10.8348 107.477 9.72356 108.936 11.6483 110.32C13.615 111.461 19.5319 116.883 21.5028 117.29C23.4737 117.696 30.0155 117.977 30.1455 117.986C30.0868 117.965 37.6433 116.782 37.6433 116.782C37.6433 116.782 36.402 113.532 34.9301 112.224Z" fill="#E5B7AC"/>
<g style="mix-blend-mode:multiply">
<path d="M13.3008 111.483C13.3008 111.483 13.7621 110.594 14.3701 110.812C14.9781 111.03 17.8003 112.54 17.8003 112.54C17.8003 112.54 21.2054 113.508 22.0524 113.567L17.9471 112.175C17.9471 112.175 14.7307 110.468 14.2611 110.388C13.7914 110.309 13.3134 111.273 13.3008 111.483Z" fill="#E5B7AC"/>
</g>
<path d="M87.9186 129.173C87.5202 143.368 88.4553 179.859 88.4553 179.859C81.3811 180.367 75.8164 179.784 70.2853 177.481L74.0258 135.434L74.68 120.657C74.6465 120.736 74.6171 120.816 74.5877 120.896C74.072 122.208 71.4972 128.679 68.6079 133.593C66.7251 136.793 64.7165 139.334 63.0559 139.372C54.1323 139.565 32.5488 125.533 32.5488 125.533C33.2156 121.969 37.2538 113.146 37.2538 113.146L59.2315 121.294L59.6844 119.474C62.4143 108.63 65.2826 99.2869 68.566 91.5711C69.6809 89.0821 71.7156 87.1211 74.2439 86.0987L83.9684 82.2072C84.6771 81.1337 86.5725 80.2405 87.8431 80.2531C88.7824 90.6695 88.4763 108.789 87.9186 129.173Z" fill="white"/>
<g style="mix-blend-mode:multiply" opacity="0.2">
<path d="M73.9009 156.375L84.4844 157.933L84.8738 155.286L74.2904 153.729L73.9009 156.375Z" fill="#606060"/>
</g>
<g style="mix-blend-mode:multiply" opacity="0.2">
<path d="M87.9173 129.174L81.6649 97.8364L85.439 93.643L80.6543 91.127L83.9503 82.216C84.659 81.1425 86.5544 80.2493 87.825 80.2619C88.7811 90.6699 88.475 108.79 87.9173 129.174Z" fill="#606060"/>
</g>
<g style="mix-blend-mode:multiply" opacity="0.2">
<path d="M76.1293 100.582L74.6658 120.656C74.6323 120.736 74.6029 120.815 74.5735 120.895C74.0578 122.207 71.483 128.678 68.5938 133.593C71.1433 124.682 76.1293 100.582 76.1293 100.582Z" fill="#606060"/>
</g>
<g style="mix-blend-mode:multiply" opacity="0.2">
<path d="M63.7812 126.394C62.6951 124.549 61.5377 122.725 59.2188 121.303L59.6716 119.487C64.8086 121.966 63.7812 126.394 63.7812 126.394Z" fill="#606060"/>
</g>
<path d="M135.127 133.644C134.939 130.575 135.094 127.639 133.618 124.759C133.431 124.394 133.218 124.044 132.98 123.71L134.838 124.062L165.27 111.386C167.601 112.514 168.339 116.233 168.339 116.233C168.339 116.233 140.105 134.563 135.513 134.722H135.094C135.144 134.365 135.155 134.004 135.127 133.644Z" fill="#E5B7AC"/>
<path d="M161.461 116.351C165.009 116.007 161.851 111.91 161.851 111.91C161.851 111.91 163.205 110.233 166.854 110.652C167.566 110.821 168.309 110.821 169.022 110.652C169.441 110.51 171.169 108.363 173.278 108.643C173.553 108.674 173.812 108.789 174.02 108.971C175.245 109.927 170.913 113.382 169.827 113.806C168.741 114.229 164.874 116.456 161.859 116.38C161.727 116.364 161.594 116.354 161.461 116.351Z" fill="#E5B7AC"/>
<path d="M176.116 107.435C176.171 107.33 176.292 106.357 176.67 106.118C177.295 105.67 178.456 106.118 178.402 108.085C178.402 108.685 178.372 109.142 178.356 109.515C178.746 108.58 179.295 106.16 179.995 105.766C180.796 105.326 182.067 106.005 181.673 108.282L181.505 109.268C180.364 109.842 179.089 110.555 177.911 111.238C175.911 112.396 174.2 113.457 173.948 113.57C173.754 113.605 173.554 113.593 173.365 113.536C173.022 113.469 172.573 113.348 172.107 113.205C172.946 112.4 175.387 110.106 175.613 109.725C175.793 109.44 175.911 108.353 176.116 107.435Z" fill="#E5B7AC"/>
<g style="mix-blend-mode:multiply" opacity="0.4">
<path d="M161.463 116.352C165.011 116.008 161.853 111.911 161.853 111.911C161.853 111.911 163.207 110.234 166.856 110.653C167.568 110.822 168.311 110.822 169.024 110.653C169.443 110.511 171.171 108.364 173.28 108.644C173.555 108.675 173.814 108.789 174.022 108.972C175.247 109.928 170.915 113.383 169.829 113.807C168.743 114.23 164.876 116.457 161.861 116.381C161.729 116.364 161.596 116.355 161.463 116.352Z" fill="#E5B7AC"/>
<path d="M176.118 107.436C176.173 107.331 176.294 106.358 176.672 106.119C177.297 105.671 178.458 106.119 178.404 108.086C178.404 108.686 178.374 109.143 178.358 109.516C178.748 108.581 179.297 106.161 179.997 105.767C180.798 105.327 182.069 106.006 181.675 108.283L181.507 109.269C180.366 109.843 179.091 110.556 177.913 111.239C175.913 112.397 174.202 113.458 173.95 113.571C173.756 113.606 173.556 113.594 173.367 113.537C173.024 113.47 172.575 113.349 172.109 113.206C172.948 112.401 175.389 110.107 175.615 109.726C175.795 109.44 175.913 108.354 176.118 107.436Z" fill="#E5B7AC"/>
</g>
<path d="M173.732 113.737C173.732 113.737 177.061 112.898 177.925 112.647C178.789 112.395 181.007 110.76 181.963 110.76C182.513 110.802 183.297 111.741 182.11 112.676C180.924 113.611 175.925 116.781 174.906 117.125C173.887 117.469 171.744 116.236 171.744 116.236L173.732 113.737Z" fill="#E5B7AC"/>
<path d="M161.088 112.224C163.563 109.628 170.012 112.45 170.012 112.45C170.696 112.744 171.396 113 172.109 113.218C172.574 113.36 173.023 113.482 173.367 113.549C173.556 113.606 173.755 113.617 173.95 113.583C174.201 113.469 175.912 112.408 177.912 111.251C179.091 110.568 180.366 109.855 181.506 109.28C181.783 109.138 182.055 109.003 182.315 108.882C185.18 107.477 186.291 108.936 184.366 110.32C182.399 111.461 176.482 116.883 174.512 117.29C172.541 117.696 165.999 117.977 165.869 117.986C165.932 117.965 158.371 116.782 158.371 116.782C158.371 116.782 159.625 113.532 161.088 112.224Z" fill="#E5B7AC"/>
<g style="mix-blend-mode:multiply">
<path d="M182.723 111.483C182.723 111.483 182.257 110.594 181.649 110.812C181.041 111.03 178.219 112.54 178.219 112.54C178.219 112.54 174.818 113.508 173.967 113.567L178.072 112.175C178.072 112.175 181.288 110.468 181.758 110.388C182.228 110.309 182.689 111.273 182.723 111.483Z" fill="#E5B7AC"/>
</g>
<path d="M108.113 129.175C108.511 143.37 107.576 179.861 107.576 179.861C114.655 180.368 120.215 179.785 125.746 177.483L122.01 135.44L121.352 120.662L121.444 120.901C121.96 122.214 124.534 128.684 127.424 133.599C129.306 136.799 131.315 139.34 132.976 139.378C141.903 139.57 163.483 125.539 163.483 125.539C162.816 121.975 158.778 113.152 158.778 113.152L136.8 121.3L136.347 119.48C133.621 108.636 130.749 99.2928 127.466 91.5769C126.351 89.088 124.316 87.127 121.788 86.1045L112.063 82.213C111.354 81.1395 109.459 80.2463 108.188 80.2589C107.241 90.6712 107.543 108.791 108.113 129.175Z" fill="white"/>
<g style="mix-blend-mode:multiply" opacity="0.2">
<path d="M122.22 153.726L111.637 155.283L112.026 157.93L122.61 156.373L122.22 153.726Z" fill="#606060"/>
</g>
<g style="mix-blend-mode:multiply" opacity="0.2">
<path d="M108.112 129.174L114.365 97.8364L110.59 93.643L115.375 91.127L112.079 82.216C111.37 81.1425 109.475 80.2493 108.204 80.2619C107.24 90.6699 107.542 108.79 108.112 129.174Z" fill="#606060"/>
</g>
<g style="mix-blend-mode:multiply" opacity="0.2">
<path d="M119.889 100.582L121.352 120.656L121.444 120.895C121.96 122.207 124.535 128.678 127.424 133.593C124.866 124.682 119.889 100.582 119.889 100.582Z" fill="#606060"/>
</g>
<g style="mix-blend-mode:multiply" opacity="0.2">
<path d="M132.238 126.394C133.324 124.549 134.482 122.725 136.801 121.303L136.348 119.487C131.211 121.966 132.238 126.394 132.238 126.394Z" fill="#606060"/>
</g>
<path d="M82.4923 108.646C82.4546 108.646 78.6344 107.979 78.1228 104.109C77.6364 100.423 78.2192 91.6962 78.2444 91.3271L78.8231 91.3649C78.8231 91.4529 78.2192 100.406 78.6973 104.033C79.1544 107.48 82.551 108.067 82.5846 108.076L82.4923 108.646Z" fill="#606060"/>
<path d="M84.6887 108.685C84.6384 109.033 84.043 109.23 83.3594 109.125C82.6759 109.021 82.1643 108.66 82.2188 108.316C82.2733 107.972 82.8646 107.771 83.5481 107.872C84.2317 107.972 84.7433 108.337 84.6887 108.685Z" fill="#141B41"/>
<path d="M78.9258 108.114C78.9635 108.114 82.8047 108.604 84.4317 105.057C85.9791 101.672 87.9794 93.1599 88.0632 92.7992L87.5013 92.665C87.5013 92.7531 85.4256 101.471 83.9034 104.826C82.4566 107.988 79.039 107.556 79.0055 107.552L78.9258 108.114Z" fill="#606060"/>
<path d="M76.8145 107.501C76.76 107.849 77.2716 108.214 77.9551 108.314C78.6387 108.415 79.2132 108.218 79.2844 107.874C79.3557 107.53 78.8274 107.161 78.1438 107.06C77.4603 106.96 76.8649 107.157 76.8145 107.501Z" fill="#141B41"/>
<path d="M84.6174 86.2243L84.9277 84.1276C84.9218 83.9919 84.868 83.8627 84.7759 83.7629C84.6838 83.6631 84.5593 83.5992 84.4245 83.5825C84.291 83.5613 84.1542 83.5868 84.0373 83.6548C83.9204 83.7228 83.8305 83.8291 83.7829 83.9557L83.4726 86.0524C80.8308 86.0943 78.3315 89.0465 77.7402 92.9883L78.8892 93.1602C79.4176 89.621 81.703 86.9078 83.8794 87.2349C86.0558 87.562 87.4438 90.8245 86.9154 94.3637L88.0602 94.5356C88.6515 90.5813 87.1293 87.0252 84.6174 86.2243Z" fill="#141B41"/>
<path d="M90.2573 75.9844C90.2573 76.1521 90.2573 76.3157 90.2573 76.4708C88.8519 77.2571 87.6245 78.3258 86.6523 79.6097C85.6802 80.8936 84.9844 82.3649 84.6088 83.9309L84.1895 83.8554C84.5896 82.1901 85.3369 80.6281 86.3826 79.2717C87.4283 77.9153 88.7487 76.7951 90.2573 75.9844Z" fill="#141B41"/>
<path d="M116.852 154.511L116.432 154.574C113.64 149.123 112.13 123.375 111.014 98.4917C110.864 95.116 110.754 92.6754 110.679 91.6312C110.654 91.2748 110.629 90.9016 110.604 90.5158C110.31 85.9995 109.903 79.8226 105.014 76.7488C105.014 76.5811 104.989 76.4218 104.984 76.2666C110.302 79.4452 110.734 86.0624 111.023 90.4865C111.048 90.8722 111.069 91.2455 111.098 91.6019C111.174 92.6503 111.283 95.0908 111.434 98.4749C112.122 113.81 113.69 148.892 116.852 154.511Z" fill="#141B41"/>
<path d="M84.6097 60.1173C84.7523 70.4499 90.3882 78.7948 97.3073 79.0506C97.447 79.0584 97.587 79.0584 97.7267 79.0506C103.627 78.9751 108.521 73.0372 109.938 65.0027C110.246 63.2786 110.386 61.5288 110.357 59.7777C110.219 49.2271 104.486 44.4885 97.387 44.5724C90.2876 44.6563 84.4755 49.5709 84.6097 60.1173Z" fill="#E5B7AC"/>
<g style="mix-blend-mode:multiply">
<path d="M105.355 64.4431C105.389 64.6569 105.942 64.7492 106.592 64.6486C107.242 64.5479 107.741 64.2921 107.708 64.0783C107.674 63.8644 107.121 63.7721 106.471 63.8728C105.821 63.9734 105.322 64.2292 105.355 64.4431Z" fill="#E5B7AC"/>
<path d="M105.259 65.7305C105.288 65.5167 105.838 65.4118 106.492 65.4957C107.146 65.5796 107.649 65.8228 107.62 66.0366C107.591 66.2505 107.041 66.3553 106.391 66.2715C105.741 66.1876 105.23 65.9444 105.259 65.7305Z" fill="#E5B7AC"/>
<path d="M89.2521 66.0704C89.2185 65.8566 88.665 65.7643 87.9941 65.865C87.3231 65.9656 86.8451 66.2214 86.8786 66.4353C86.9122 66.6491 87.4657 66.7414 88.1366 66.6407C88.8076 66.5401 89.2856 66.2843 89.2521 66.0704Z" fill="#E5B7AC"/>
<path d="M89.3484 64.7827C89.3191 64.9966 88.7697 65.1014 88.1155 65.0176C87.4614 64.9337 86.9582 64.6905 86.9833 64.4766C87.0085 64.2628 87.562 64.1579 88.2162 64.2418C88.8704 64.3257 89.3736 64.5689 89.3484 64.7827Z" fill="#E5B7AC"/>
<path d="M97.3457 68.3226H97.2618C96.9222 68.3226 96.1087 68.1171 95.8277 66.1126C95.3706 62.825 95.7271 60.9463 95.7438 60.8709C95.7659 60.8278 95.8014 60.7931 95.845 60.7721C95.8885 60.7511 95.9378 60.7448 95.9852 60.7543C96.0326 60.7638 96.0757 60.7885 96.1078 60.8247C96.1399 60.8609 96.1594 60.9065 96.1632 60.9547C96.1632 60.9757 95.8067 62.846 96.2554 66.0497C96.4441 67.4 96.8886 67.8781 97.2409 67.8781C97.7609 67.8781 98.4486 66.922 98.6331 65.3998C98.6404 65.3411 98.6704 65.2877 98.7167 65.2508C98.7629 65.214 98.8217 65.1967 98.8805 65.2027C98.9395 65.211 98.9929 65.2419 99.0297 65.2888C99.0664 65.3357 99.0836 65.395 99.0776 65.4543C98.9015 67.0603 98.1718 68.2429 97.3457 68.3226Z" fill="#E5B7AC"/>
</g>
<path d="M90.3828 58.3469C90.7727 58.1753 91.1933 58.0846 91.6193 58.0802C92.0453 58.0759 92.4677 58.1581 92.8611 58.3217C93.0212 58.3773 93.1969 58.367 93.3495 58.2931C93.502 58.2192 93.619 58.0877 93.6746 57.9275C93.7302 57.7674 93.7199 57.5917 93.646 57.4391C93.5721 57.2866 93.4405 57.1696 93.2804 57.114C92.7262 56.8932 92.1328 56.7878 91.5365 56.8044C90.9402 56.821 90.3535 56.9592 89.8125 57.2105C88.2231 58.0072 87.7157 60.4604 88.0554 60.5652C88.1141 60.5903 89.2883 58.8878 90.3828 58.3469Z" fill="#B87B6E"/>
<g style="mix-blend-mode:multiply">
<path d="M90.3828 58.3469C90.7727 58.1753 91.1933 58.0846 91.6193 58.0802C92.0453 58.0759 92.4677 58.1581 92.8611 58.3217C93.0212 58.3773 93.1969 58.367 93.3495 58.2931C93.502 58.2192 93.619 58.0877 93.6746 57.9275C93.7302 57.7674 93.7199 57.5917 93.646 57.4391C93.5721 57.2866 93.4405 57.1696 93.2804 57.114C92.7262 56.8932 92.1328 56.7878 91.5365 56.8044C90.9402 56.821 90.3535 56.9592 89.8125 57.2105C88.2231 58.0072 87.7157 60.4604 88.0554 60.5652C88.1141 60.5903 89.2883 58.8878 90.3828 58.3469Z" fill="#B87B6E"/>
</g>
<path d="M106.369 59.9899C106.7 59.8724 106.134 57.4319 104.528 56.6771C103.98 56.4398 103.389 56.3174 102.792 56.3174C102.195 56.3174 101.604 56.4398 101.056 56.6771C100.904 56.7404 100.783 56.8598 100.717 57.0105C100.651 57.1612 100.647 57.3314 100.703 57.4856C100.76 57.6399 100.874 57.7662 101.022 57.8382C101.17 57.9103 101.34 57.9224 101.496 57.8722C101.887 57.698 102.31 57.6049 102.738 57.5984C103.166 57.5919 103.591 57.6722 103.987 57.8344C105.111 58.3544 106.298 60.015 106.369 59.9899Z" fill="#B87B6E"/>
<g style="mix-blend-mode:multiply">
<path d="M106.369 59.9899C106.7 59.8724 106.134 57.4319 104.528 56.6771C103.98 56.4398 103.389 56.3174 102.792 56.3174C102.195 56.3174 101.604 56.4398 101.056 56.6771C100.904 56.7404 100.783 56.8598 100.717 57.0105C100.651 57.1612 100.647 57.3314 100.703 57.4856C100.76 57.6399 100.874 57.7662 101.022 57.8382C101.17 57.9103 101.34 57.9224 101.496 57.8722C101.887 57.698 102.31 57.6049 102.738 57.5984C103.166 57.5919 103.591 57.6722 103.987 57.8344C105.111 58.3544 106.298 60.015 106.369 59.9899Z" fill="#B87B6E"/>
</g>
<path d="M90.0777 63.2379C90.0585 62.6665 90.2152 62.1029 90.5264 61.6234C90.6945 61.3639 90.9179 61.1448 91.1806 60.9818C91.4685 60.8099 91.8023 60.7308 92.1367 60.7554C92.4503 60.7976 92.7489 60.9159 93.0062 61.1001C93.2635 61.2844 93.4718 61.5288 93.6128 61.8121C93.8914 62.3086 94.0196 62.8753 93.9818 63.4433C93.755 62.9704 93.4735 62.5256 93.1431 62.1182C92.8837 61.7602 92.4934 61.519 92.057 61.4473C91.8426 61.4416 91.6296 61.4847 91.4342 61.5733C91.2388 61.662 91.066 61.7938 90.929 61.9589C90.5899 62.3456 90.3036 62.7757 90.0777 63.2379Z" fill="#141B41"/>
<path d="M100.361 62.9438C100.344 62.3726 100.5 61.8097 100.809 61.3293C100.977 61.0698 101.201 60.8507 101.463 60.6877C101.751 60.5143 102.085 60.4338 102.42 60.4571C102.734 60.5008 103.033 60.6202 103.291 60.805C103.548 60.9898 103.758 61.2345 103.9 61.518C104.179 62.0189 104.309 62.5894 104.273 63.1618C104.052 62.6916 103.778 62.2484 103.455 61.8409C103.196 61.4803 102.804 61.2375 102.365 61.1658C102.15 61.1615 101.938 61.2057 101.742 61.295C101.547 61.3843 101.374 61.5164 101.237 61.6815C100.889 62.0609 100.595 62.4855 100.361 62.9438Z" fill="#141B41"/>
<path d="M93.0508 70.0587C93.5504 70.8372 94.2365 71.4786 95.0468 71.9248C95.1754 71.9988 95.3084 72.0646 95.4452 72.1219C96.0972 72.3963 96.8016 72.5238 97.5084 72.4951C98.331 72.4673 99.132 72.2244 99.8315 71.7906C99.9573 71.7151 100.071 71.6354 100.18 71.5557C100.842 71.0689 101.386 70.4399 101.773 69.7148C98.9961 70.8495 95.9085 70.9712 93.0508 70.0587Z" fill="white"/>
<path d="M86.1649 63.8313C86.1649 63.8313 87.2174 57.6838 86.9449 53.4904C86.9449 53.4904 86.1313 50.1859 89.8802 49.2634C89.8802 49.2634 92.2831 51.3307 94.9459 51.2762C97.6087 51.2217 104.498 48.8441 104.498 48.8441C104.498 48.8441 106.897 49.0537 107.262 51.8675C107.262 51.8675 106.914 60.7282 109.002 64.2129L109.862 63.8313C109.862 63.8313 115.129 47.3596 107.371 44.8939C107.371 44.8939 103.916 38.8889 98.439 40.3189C91.2054 42.2059 88.899 40.8598 88.4797 39.1279C88.4797 39.1279 84.9153 41.8536 86.6136 44.5794C86.6136 44.5794 83.6782 46.567 83.1498 50.1524C82.6215 53.7378 84.7182 63.4497 84.7182 63.4497L86.1649 63.8313Z" fill="#B87B6E"/>
<g style="mix-blend-mode:multiply">
<path d="M86.1649 63.8313C86.1649 63.8313 87.2174 57.6838 86.9449 53.4904C86.9449 53.4904 86.1313 50.1859 89.8802 49.2634C89.8802 49.2634 92.2831 51.3307 94.9459 51.2762C97.6087 51.2217 104.498 48.8441 104.498 48.8441C104.498 48.8441 106.897 49.0537 107.262 51.8675C107.262 51.8675 106.914 60.7282 109.002 64.2129L109.862 63.8313C109.862 63.8313 115.129 47.3596 107.371 44.8939C107.371 44.8939 103.916 38.8889 98.439 40.3189C91.2054 42.2059 88.899 40.8598 88.4797 39.1279C88.4797 39.1279 84.9153 41.8536 86.6136 44.5794C86.6136 44.5794 83.6782 46.567 83.1498 50.1524C82.6215 53.7378 84.7182 63.4497 84.7182 63.4497L86.1649 63.8313Z" fill="#B87B6E"/>
</g>
<path d="M86.3336 64.3065C86.3336 64.3065 84.8113 59.2283 81.3015 60.3437C77.7916 61.4592 80.8821 69.9382 86.2958 68.2902L86.3336 64.3065Z" fill="#E5B7AC"/>
<g style="mix-blend-mode:multiply">
<path d="M82.0216 62.6789C84.4286 62.7166 85.5147 64.851 85.5608 64.9433C85.5812 64.9924 85.5822 65.0475 85.5635 65.0974C85.5448 65.1472 85.5079 65.1881 85.4602 65.2117C85.4263 65.2284 85.3889 65.237 85.3511 65.2368C85.3185 65.2359 85.2867 65.2265 85.2587 65.2096C85.2308 65.1927 85.2077 65.1689 85.1918 65.1404C84.8814 64.5826 84.4518 64.1001 83.9338 63.7272C83.0364 64.2304 83.2754 65.6017 83.2796 65.6142C83.2863 65.6672 83.2734 65.7208 83.2432 65.7648C83.2131 65.8089 83.1678 65.8403 83.116 65.8533C83.0953 65.8573 83.0739 65.8573 83.0531 65.8533C83.0128 65.854 82.9735 65.8406 82.942 65.8153C82.9106 65.79 82.8891 65.7545 82.8812 65.7149C82.8812 65.6478 82.617 64.2053 83.5899 63.5008C83.1143 63.2274 82.5783 63.0761 82.03 63.0605H81.9671C81.9418 63.0613 81.9167 63.0567 81.8935 63.0468C81.8703 63.0369 81.8496 63.022 81.8328 63.0032C81.816 62.9844 81.8035 62.9621 81.7963 62.9379C81.7891 62.9138 81.7872 62.8883 81.7909 62.8634C81.8009 62.8101 81.8297 62.7622 81.872 62.7283C81.9143 62.6945 81.9674 62.6769 82.0216 62.6789Z" fill="#E5B7AC"/>
</g>
<path d="M108.246 64.3065C108.246 64.3065 109.764 59.2283 113.278 60.3437C116.792 61.4592 113.698 69.9382 108.284 68.2902L108.246 64.3065Z" fill="#E5B7AC"/>
<g style="mix-blend-mode:multiply">
<path d="M112.553 62.679C110.151 62.7168 109.06 64.8512 109.014 64.9434C108.994 64.9926 108.993 65.0477 109.011 65.0975C109.03 65.1474 109.067 65.1882 109.115 65.2118C109.15 65.2281 109.189 65.2367 109.228 65.237C109.26 65.2358 109.291 65.2262 109.318 65.2093C109.346 65.1924 109.368 65.1687 109.383 65.1405C109.697 64.5851 110.126 64.1033 110.641 63.7274C111.539 64.2306 111.3 65.6018 111.3 65.6144C111.291 65.6676 111.303 65.7222 111.333 65.7667C111.364 65.8112 111.41 65.8423 111.463 65.8534C111.484 65.8575 111.505 65.8575 111.526 65.8534C111.566 65.8542 111.606 65.8408 111.637 65.8155C111.668 65.7902 111.69 65.7546 111.698 65.715C111.698 65.6479 111.962 64.2054 110.989 63.5009C111.463 63.2271 111.998 63.0758 112.545 63.0606H112.608C112.633 63.0615 112.658 63.0568 112.681 63.0469C112.705 63.037 112.725 63.0222 112.742 63.0033C112.759 62.9845 112.771 62.9623 112.779 62.9381C112.786 62.9139 112.788 62.8885 112.784 62.8635C112.775 62.8099 112.746 62.7614 112.704 62.7274C112.661 62.6934 112.608 62.6762 112.553 62.679Z" fill="#E5B7AC"/>
</g>
</svg>
