<svg width="20" height="20" viewBox="0 0 20 20" fill="none" xmlns="http://www.w3.org/2000/svg">
<g id="mingcute:arrow-up-line" clip-path="url(#clip0_1102_2295)">
<g id="Group">
<path id="Vector" d="M3.37827 9.44035C3.22986 9.58881 3.14648 9.79013 3.14648 10.0001C3.14648 10.21 3.22986 10.4113 3.37827 10.5598L7.85673 15.0382C7.92976 15.1138 8.01712 15.1741 8.1137 15.2156C8.21029 15.2571 8.31417 15.279 8.41929 15.2799C8.52441 15.2808 8.62865 15.2608 8.72595 15.221C8.82324 15.1811 8.91163 15.1224 8.98596 15.048C9.06029 14.9737 9.11908 14.8853 9.15888 14.788C9.19869 14.6907 9.21872 14.5865 9.21781 14.4814C9.21689 14.3762 9.19505 14.2724 9.15356 14.1758C9.11207 14.0792 9.05176 13.9918 8.97615 13.9188L5.84907 10.7917H16.3331C16.5431 10.7917 16.7444 10.7083 16.8929 10.5598C17.0414 10.4114 17.1248 10.21 17.1248 10.0001C17.1248 9.79009 17.0414 9.58873 16.8929 9.44026C16.7444 9.2918 16.5431 9.20839 16.3331 9.20839H5.84907L8.97615 6.0813C9.12036 5.93199 9.20015 5.73202 9.19835 5.52445C9.19654 5.31687 9.11329 5.11831 8.9665 4.97153C8.81972 4.82475 8.62116 4.74149 8.41359 4.73969C8.20602 4.73788 8.00604 4.81768 7.85673 4.96189L3.37827 9.44035Z" fill="#444444"/>
</g>
</g>
<defs>
<clipPath id="clip0_1102_2295">
<rect width="19" height="19" fill="white" transform="matrix(0 -1 1 0 0.5 19.5)"/>
</clipPath>
</defs>
</svg>
