<svg width="21" height="14" viewBox="0 0 21 14" fill="none" xmlns="http://www.w3.org/2000/svg">
<path d="M6.80168 13C6.80168 12.7348 6.88947 12.4804 7.04575 12.2929C7.20203 12.1054 7.414 12 7.63501 12H12.635C12.856 12 13.068 12.1054 13.2243 12.2929C13.3805 12.4804 13.4683 12.7348 13.4683 13C13.4683 13.2652 13.3805 13.5196 13.2243 13.7071C13.068 13.8946 12.856 14 12.635 14H7.63501C7.414 14 7.20203 13.8946 7.04575 13.7071C6.88947 13.5196 6.80168 13.2652 6.80168 13ZM3.46834 7C3.46834 6.73478 3.55614 6.48043 3.71242 6.29289C3.8687 6.10536 4.08066 6 4.30168 6H15.9683C16.1894 6 16.4013 6.10536 16.5576 6.29289C16.7139 6.48043 16.8017 6.73478 16.8017 7C16.8017 7.26522 16.7139 7.51957 16.5576 7.70711C16.4013 7.89464 16.1894 8 15.9683 8H4.30168C4.08066 8 3.8687 7.89464 3.71242 7.70711C3.55614 7.51957 3.46834 7.26522 3.46834 7ZM0.13501 1C0.13501 0.734784 0.222807 0.48043 0.379088 0.292893C0.535368 0.105357 0.747329 0 0.968343 0H19.3017C19.5227 0 19.7347 0.105357 19.8909 0.292893C20.0472 0.48043 20.135 0.734784 20.135 1C20.135 1.26522 20.0472 1.51957 19.8909 1.70711C19.7347 1.89464 19.5227 2 19.3017 2H0.968343C0.747329 2 0.535368 1.89464 0.379088 1.70711C0.222807 1.51957 0.13501 1.26522 0.13501 1Z" fill="black"/>
</svg>
