<svg width="20" height="20" viewBox="0 0 20 20" fill="none" xmlns="http://www.w3.org/2000/svg">
<path id="Vector" d="M18.8333 20C16.5185 20 14.2315 19.4952 11.9722 18.4856C9.71296 17.4759 7.65741 16.0456 5.80556 14.1944C3.9537 12.3426 2.52333 10.287 1.51444 8.02778C0.505556 5.76852 0.000740741 3.48148 0 1.16667C0 0.833334 0.111111 0.555556 0.333333 0.333333C0.555556 0.111111 0.833334 0 1.16667 0H5.66667C5.92593 0 6.15741 0.0881481 6.36111 0.264444C6.56482 0.440741 6.68519 0.648889 6.72222 0.888889L7.44444 4.77778C7.48148 5.07407 7.47222 5.32407 7.41667 5.52778C7.36111 5.73148 7.25926 5.90741 7.11111 6.05556L4.41667 8.77778C4.78704 9.46296 5.22667 10.1248 5.73556 10.7633C6.24444 11.4019 6.80482 12.0178 7.41667 12.6111C7.99074 13.1852 8.59259 13.7178 9.22222 14.2089C9.85185 14.7 10.5185 15.1489 11.2222 15.5556L13.8333 12.9444C14 12.7778 14.2178 12.6526 14.4867 12.5689C14.7556 12.4852 15.0193 12.4622 15.2778 12.5L19.1111 13.2778C19.3704 13.3519 19.5833 13.4863 19.75 13.6811C19.9167 13.8759 20 14.0933 20 14.3333V18.8333C20 19.1667 19.8889 19.4444 19.6667 19.6667C19.4444 19.8889 19.1667 20 18.8333 20Z" fill="white"/>
</svg>
