<svg width="22" height="22" viewBox="0 0 22 22" fill="none" xmlns="http://www.w3.org/2000/svg">
<path id="Vector" d="M7.89979 8.89979C7.63457 8.89979 7.38022 9.00514 7.19268 9.19268C7.00514 9.38022 6.89979 9.63457 6.89979 9.89979V13.8998H8.89979V10.8998H11.8998V13.3998L15.3998 9.89979L11.8998 6.39979V8.89979H7.89979ZM11.6068 0.292786L21.5068 10.1928C21.6943 10.3803 21.7996 10.6346 21.7996 10.8998C21.7996 11.165 21.6943 11.4193 21.5068 11.6068L11.6068 21.5068C11.4193 21.6943 11.165 21.7996 10.8998 21.7996C10.6346 21.7996 10.3803 21.6943 10.1928 21.5068L0.292786 11.6068C0.105315 11.4193 0 11.165 0 10.8998C0 10.6346 0.105315 10.3803 0.292786 10.1928L10.1928 0.292786C10.3803 0.105315 10.6346 0 10.8998 0C11.165 0 11.4193 0.105315 11.6068 0.292786Z" fill="#116EB6"/>
</svg>
