<svg width="9" height="6" viewBox="0 0 9 6" fill="none" xmlns="http://www.w3.org/2000/svg">
<path id="Vector" d="M8.8219 1.18894L4.83245 5.84793C4.78496 5.90323 4.73351 5.9423 4.6781 5.96516C4.62269 5.98839 4.56332 6 4.5 6C4.43668 6 4.37731 5.98839 4.3219 5.96516C4.26649 5.9423 4.21504 5.90323 4.16755 5.84793L0.166227 1.18894C0.0554089 1.05991 0 0.898617 0 0.705069C0 0.51152 0.0593668 0.345623 0.1781 0.207374C0.296834 0.0691247 0.435356 0 0.593668 0C0.751979 0 0.890501 0.0691247 1.00923 0.207374L4.5 4.27189L7.99077 0.207374C8.10158 0.078341 8.23805 0.0138249 8.40016 0.0138249C8.56259 0.0138249 8.70317 0.0829492 8.8219 0.221198C8.94063 0.359447 9 0.520737 9 0.705069C9 0.8894 8.94063 1.05069 8.8219 1.18894Z" fill="#BFBFBF"/>
</svg>
