<svg width="6" height="11" viewBox="0 0 6 11" fill="none" xmlns="http://www.w3.org/2000/svg">
<path d="M0.229439 0.720115C0.0825295 0.861098 0 1.05229 0 1.25163C0 1.45098 0.0825295 1.64217 0.229439 1.78315L4.10846 5.50454L0.229439 9.22592C0.0866928 9.36771 0.00770617 9.55762 0.00949192 9.75474C0.0112772 9.95186 0.0936918 10.1404 0.238985 10.2798C0.384278 10.4192 0.580825 10.4983 0.786294 10.5C0.991761 10.5017 1.18971 10.4259 1.33751 10.289L5.77056 6.03606C5.91747 5.89508 6 5.70389 6 5.50454C6 5.30519 5.91747 5.114 5.77056 4.97302L1.33751 0.720115C1.19055 0.579176 0.991266 0.5 0.783473 0.5C0.57568 0.5 0.376394 0.579176 0.229439 0.720115Z" fill="white"/>
</svg>
