<svg width="16" height="16" viewBox="0 0 16 16" fill="none" xmlns="http://www.w3.org/2000/svg">
<path id="Vector" d="M7.46 12H8.66V7.2H7.46V12ZM7.99964 5.72C8.18655 5.72 8.34333 5.65867 8.47 5.536C8.59667 5.41333 8.66 5.26133 8.66 5.08C8.66 4.88733 8.59679 4.72583 8.47036 4.5955C8.34392 4.46517 8.18725 4.4 8.00036 4.4C7.81345 4.4 7.65667 4.46517 7.53 4.5955C7.40333 4.72583 7.34 4.88733 7.34 5.08C7.34 5.26133 7.40321 5.41333 7.52964 5.536C7.65608 5.65867 7.81275 5.72 7.99964 5.72ZM8.00532 16C6.9022 16 5.86553 15.79 4.89532 15.37C3.92511 14.95 3.07667 14.3767 2.35 13.65C1.62333 12.9233 1.05 12.0744 0.63 11.1032C0.21 10.132 0 9.09425 0 7.99C0 6.88575 0.21 5.84802 0.63 4.87682C1.05 3.90561 1.62333 3.06 2.35 2.34C3.07667 1.62 3.92561 1.05 4.89682 0.63C5.86802 0.21 6.90575 0 8.01 0C9.11425 0 10.152 0.21 11.1232 0.63C12.0944 1.05 12.94 1.62 13.66 2.34C14.38 3.06 14.95 3.90667 15.37 4.88C15.79 5.85333 16 6.89156 16 7.99468C16 9.0978 15.79 10.1345 15.37 11.1047C14.95 12.0749 14.38 12.9221 13.66 13.6463C12.94 14.3705 12.0933 14.9439 11.12 15.3663C10.1467 15.7888 9.10844 16 8.00532 16ZM8.01 14.8C9.89667 14.8 11.5 14.1367 12.82 12.81C14.14 11.4833 14.8 9.87667 14.8 7.99C14.8 6.10333 14.1413 4.5 12.8238 3.18C11.5063 1.86 9.89833 1.2 8 1.2C6.12 1.2 4.51667 1.85875 3.19 3.17624C1.86333 4.49375 1.2 6.10167 1.2 8C1.2 9.88 1.86333 11.4833 3.19 12.81C4.51667 14.1367 6.12333 14.8 8.01 14.8Z" fill="#E33629"/>
</svg>
