<svg width="9" height="14" viewBox="0 0 9 14" fill="none" xmlns="http://www.w3.org/2000/svg">
<path id="Vector" d="M4.5 6.675C4.07376 6.675 3.66498 6.5038 3.36358 6.19905C3.06218 5.8943 2.89286 5.48098 2.89286 5.05C2.89286 4.61902 3.06218 4.2057 3.36358 3.90095C3.66498 3.5962 4.07376 3.425 4.5 3.425C4.92624 3.425 5.33502 3.5962 5.63642 3.90095C5.93782 4.2057 6.10714 4.61902 6.10714 5.05C6.10714 5.2634 6.06557 5.47471 5.98481 5.67186C5.90404 5.86901 5.78566 6.04815 5.63642 6.19905C5.48718 6.34994 5.31001 6.46964 5.11503 6.5513C4.92004 6.63297 4.71105 6.675 4.5 6.675ZM4.5 0.5C3.30653 0.5 2.16193 0.979374 1.31802 1.83266C0.474106 2.68595 0 3.84326 0 5.05C0 8.4625 4.5 13.5 4.5 13.5C4.5 13.5 9 8.4625 9 5.05C9 3.84326 8.52589 2.68595 7.68198 1.83266C6.83807 0.979374 5.69347 0.5 4.5 0.5Z" fill="#888888"/>
</svg>
