<svg width="148" height="34" viewBox="0 0 148 34" fill="none" xmlns="http://www.w3.org/2000/svg">
<g id="Frame" clip-path="url(#clip0_682_5323)">
<g id="Group">
<path id="Vector" d="M47.7834 19.5264C43.1642 19.5264 40.49 16.609 40.49 12.012V10.1113C40.49 5.45903 43.1642 2.56378 47.7834 2.56378C52.4135 2.56378 55.0657 5.48113 55.0657 10.1113V12.0009C55.0657 16.609 52.4135 19.5264 47.7834 19.5264ZM47.7834 5.82369C45.8274 5.82369 44.5124 7.26026 44.5124 10.0671V12.0231C44.5124 14.852 45.8274 16.2775 47.7834 16.2775C49.7282 16.2775 51.0433 14.852 51.0433 12.0231V10.0671C51.0433 7.26026 49.7282 5.82369 47.7834 5.82369Z" fill="#116EB6"/>
<path id="Vector_2" d="M71.1558 8.23275C71.1558 10.7633 69.4982 12.3325 68.2274 12.8519L71.4873 19.228H67.1223L64.3486 13.4044H62.0833V19.228H58.2156V2.86218H65.1332C69.023 2.86218 71.1558 4.99494 71.1558 8.23275ZM64.5144 10.5755C66.0504 10.5755 67.1002 9.81298 67.1002 8.2438C67.1002 6.67462 65.9952 5.84583 64.5475 5.84583H62.0943V10.5755H64.5144Z" fill="#116EB6"/>
<path id="Vector_3" d="M72.8035 19.228L78.0746 2.86218H82.8705L88.1195 19.228H83.9314L82.8595 15.504H77.7983L76.7264 19.228H72.8035ZM80.2736 6.42046L78.5387 12.6088H82.1743L80.4615 6.42046H80.2736Z" fill="#116EB6"/>
</g>
<g id="Group_2">
<path id="Vector_4" d="M91.8397 15.0619C92.1492 16.609 93.6299 17.6035 95.7627 17.6035C98.0391 17.6035 99.4425 16.5095 99.4425 14.8078C99.4425 13.5038 98.6137 12.7413 96.7793 12.2772L93.9394 11.5478C91.4861 10.9069 90.0717 9.41509 90.0717 7.21603C90.0717 4.43129 92.4586 2.46429 95.7959 2.46429C99.0337 2.46429 101.233 4.27658 101.476 6.77401H99.2547C98.9563 5.33744 97.6634 4.42024 95.7516 4.42024C93.6852 4.42024 92.3149 5.51425 92.3149 7.10553C92.3149 8.25478 93.1216 9.05042 94.6134 9.41509L97.4092 10.1444C100.271 10.8848 101.675 12.233 101.675 14.6199C101.675 17.5925 99.3099 19.5484 95.5306 19.5484C92.0608 19.5484 89.8396 17.6919 89.6075 15.0509H91.8397V15.0619Z" fill="#9EC55B"/>
<path id="Vector_5" d="M115.434 13.4926V2.86194H117.655V13.581C117.655 17.1613 115.158 19.5593 111.412 19.5593C107.643 19.5593 105.168 17.1613 105.168 13.581V2.86194H107.378V13.4926C107.378 16.0231 108.947 17.5592 111.423 17.5592C113.865 17.5592 115.434 16.0231 115.434 13.4926Z" fill="#9EC55B"/>
<path id="Vector_6" d="M133.282 7.77943C133.282 10.0227 132.055 11.7024 130.232 12.3433L133.569 19.2278H131.06L128.055 12.7632H124.198V19.2278H121.999V2.86194H127.966C131.226 2.86194 133.282 4.78473 133.282 7.77943ZM127.59 10.8404C129.79 10.8404 130.994 9.83484 130.994 7.88994C130.994 5.91189 129.756 4.79578 127.668 4.79578H124.176V10.8404H127.59Z" fill="#9EC55B"/>
<path id="Vector_7" d="M147.124 19.2278H137.234V2.86194H147.124V4.83999H139.422V9.92324H146.694V11.846H139.422V17.2498H147.124V19.2278Z" fill="#9EC55B"/>
</g>
<g id="Group_3">
<path id="Vector_8" d="M40.6434 29.0626C40.2787 29.6925 39.9582 30.2892 39.7151 30.8307C39.6709 30.9412 39.5604 30.9412 39.4941 30.8528C39.3504 30.6539 39.2952 30.2892 39.5604 29.6041C39.6378 29.4163 39.7483 29.1731 39.8919 28.9079C39.6267 28.7643 39.5273 28.5764 39.4831 28.488C39.4167 28.3333 39.4499 28.278 39.6267 28.3001C39.8035 28.3222 39.9803 28.3444 40.1792 28.3665C41.1406 26.6978 42.8424 24.2667 44.1464 23.1948C44.3453 23.0401 44.4669 23.0401 44.5884 23.2058C44.71 23.3827 44.7431 23.4048 44.8757 23.7142C44.9973 24.0125 44.9862 24.2777 44.8757 24.6093C44.5553 25.5817 44.2127 26.8304 43.9806 28.1786C44.3453 28.3001 44.489 28.5433 44.5332 28.8085C44.5553 28.919 44.5111 28.9521 44.4005 28.919C44.2569 28.8858 44.0801 28.8527 43.8701 28.8416C43.7817 29.4826 43.7154 30.1566 43.6823 30.8086C43.6823 30.9302 43.6049 30.9633 43.4944 30.9191C43.2513 30.8086 43.0524 30.4992 43.0413 29.803C43.0413 29.5599 43.0524 29.2394 43.0855 28.8748C42.2236 28.93 41.229 29.0737 40.6434 29.0626ZM43.185 28.1123C43.3728 26.8304 43.7154 25.2833 44.0911 24.333C43.1629 25.3718 42.0357 26.8636 41.1075 28.3222C41.8589 28.267 42.6104 28.1344 43.185 28.1123Z" fill="#116EB6"/>
<path id="Vector_9" d="M52.4002 28.2892C52.7096 29.1069 51.925 30.0352 51.4056 30.3999C50.5326 31.0297 49.5049 31.0187 48.8419 30.654C48.2894 30.3557 47.8142 29.5932 47.7811 28.5876C47.7369 25.9796 49.9138 23.7585 51.2951 23.2281C51.9582 22.9739 52.5549 22.9186 52.9527 23.2612C53.2179 23.4933 53.5052 23.8469 53.6047 24.1563C53.7152 24.5099 53.6821 24.8525 53.4942 25.2393C53.3063 25.615 53.1406 26.1012 53.008 26.4548C52.9748 26.5543 52.8864 26.6316 52.7428 26.5322C52.4554 26.3443 52.2676 25.9686 52.4444 25.3498C52.6433 24.6978 53.0853 24.0016 52.798 23.7032C52.4554 23.3386 50.5879 24.3331 49.4828 26.1565C48.3999 27.9466 48.5214 29.77 49.1292 30.2562C49.9138 30.8971 51.2178 30.0683 52.146 28.245C52.2013 28.1345 52.3339 28.1345 52.4002 28.2892Z" fill="#116EB6"/>
<path id="Vector_10" d="M64.6774 29.7148C64.3349 30.3889 63.5503 31.0298 62.843 31.0188C61.7822 31.0077 61.4175 30.1679 61.8485 29.1733C62.2905 28.1456 63.3845 26.7864 63.1967 26.7201C63.0972 26.687 62.6662 26.8417 61.8816 27.6263C60.876 28.6319 60.2683 29.8032 59.7599 30.9414C59.6936 31.0851 59.5831 31.1293 59.4726 31.0188C59.2737 30.8199 59.1301 30.3557 59.4616 29.4827C59.8594 28.4661 61.1744 26.7864 60.9313 26.687C60.8097 26.6428 60.1909 26.9743 59.4063 27.8252C58.6991 28.5987 58.1024 29.7259 57.6161 30.8862C57.5719 30.9856 57.5056 31.0188 57.3841 30.9193C57.1299 30.7094 57.0636 30.2894 57.2625 29.6817C57.3841 29.2728 57.6935 28.654 58.0471 27.9578C57.7045 28.1898 57.3399 28.3003 56.9089 28.2672C56.6658 29.328 55.8922 30.5989 54.9861 30.8972C54.5441 31.0409 53.9142 31.0298 53.428 30.3668C52.8975 29.6596 53.0854 28.5766 53.6379 27.6042C54.1021 26.7864 54.8535 26.0571 55.5939 26.0129C55.9696 25.9908 56.1575 26.1013 56.4116 26.4328C56.71 26.8085 57.0746 26.8748 56.9973 27.781C56.9973 27.8473 56.9973 27.9136 56.9752 27.9799C57.7598 27.9688 58.5554 27.0627 59.1853 26.0681C59.2627 25.9466 59.3842 25.9466 59.4505 26.0681C59.6494 26.3886 59.6052 26.8638 59.4284 27.35C59.9809 26.7312 60.876 26.0129 61.3181 26.0239C61.738 26.035 61.9479 26.687 61.7932 27.2284C62.3679 26.6759 63.1967 26.1013 63.5834 26.1123C64.0254 26.1234 64.1249 26.8527 63.8818 27.4384C63.6497 27.9909 63.064 28.7976 62.7657 29.4054C62.4231 30.1016 62.5778 30.6873 63.0309 30.6541C63.5171 30.632 64.0696 29.8364 64.5448 28.9634C64.6111 28.8529 64.6885 28.875 64.7548 28.9634C64.8211 29.0297 64.8211 29.4164 64.6774 29.7148ZM55.3176 26.919C54.9861 27.2063 54.6435 27.6152 54.3673 28.0904C53.8258 29.0076 53.6711 30.1237 53.9915 30.411C54.3231 30.7094 55.0745 30.2563 55.6712 29.1512C55.8812 28.7755 56.0248 28.4108 56.1133 28.0904C55.6823 27.8473 55.3397 27.3942 55.3176 26.919ZM56.2901 26.919C56.2238 26.5212 55.9696 26.5875 55.9254 26.9522C55.8922 27.2063 55.9696 27.571 56.2238 27.7699C56.2901 27.4163 56.3232 27.14 56.2901 26.919Z" fill="#116EB6"/>
<path id="Vector_11" d="M69.2869 28.9522C69.3643 28.7754 69.4969 28.8306 69.519 28.9522C69.5411 29.0627 69.5632 29.3832 69.3643 29.7589C68.9002 30.6098 68.0603 31.0076 67.1763 31.0739C66.3917 31.1181 65.8723 31.0076 65.4413 30.6208C65.1872 30.3888 65.0656 30.1014 65.0214 29.8031C64.4468 30.8639 63.8169 32.1126 63.2312 33.4719C63.187 33.5824 63.0986 33.6045 63.0213 33.494C62.8334 33.2398 62.7782 32.8972 63.0102 32.1458C63.3749 30.9523 65.4413 27.0625 66.2149 26.0348C66.3364 25.8801 66.4469 25.9022 66.5132 26.0459C66.5795 26.2006 66.6016 26.3885 66.5906 26.5984C67.1321 26.1343 67.8504 25.7917 68.3808 26.3443C68.9665 26.9741 68.7012 28.0681 68.2482 29.0737C67.8835 29.8804 67.4304 30.4772 66.9553 30.7534C68.1487 30.6761 68.8891 29.792 69.2869 28.9522ZM65.6845 30.3667C66.0823 30.6871 66.8779 29.792 67.4525 28.6096C67.9277 27.6261 68.0714 26.6095 67.762 26.4658C67.4636 26.3222 66.7011 26.9299 66.1265 27.8803C65.9939 28.1013 65.8613 28.3223 65.7065 28.5765C65.3971 29.35 65.3419 30.0793 65.6845 30.3667Z" fill="#116EB6"/>
<path id="Vector_12" d="M70.2152 30.61C70.8009 30.6542 71.6628 29.7702 72.138 28.8309C72.2264 28.6762 72.359 28.6541 72.4032 28.8309C72.4695 29.0298 72.4143 29.295 72.2817 29.5934C72.1048 29.958 71.2098 30.9857 70.2263 30.9526C69.3754 30.9305 68.9223 30.3338 69.2096 29.0077C69.6627 26.8749 71.0661 24.6427 72.3148 23.3498C72.5027 23.1509 72.6684 23.1288 72.8452 23.2835C73.1989 23.604 73.2762 24.057 73.1325 24.6317C72.7568 26.1456 71.3755 27.6153 70.2815 28.3336C69.7953 29.5381 69.6627 30.5658 70.2152 30.61ZM72.7237 24.3886C72.569 24.2891 71.6518 25.6483 70.8119 27.2285C70.7014 27.4275 70.602 27.6264 70.5136 27.8142C72.1932 26.444 72.8784 24.477 72.7237 24.3886Z" fill="#116EB6"/>
<path id="Vector_13" d="M73.5831 30.6319C74.5997 30.6761 75.4948 29.7037 76.0252 28.8859C76.0915 28.7865 76.1799 28.7865 76.2352 28.897C76.2794 28.9964 76.2462 29.339 76.0252 29.6595C75.5059 30.4109 74.5666 30.9745 73.6162 30.9855C72.0581 31.0076 71.5166 29.4716 72.3122 27.8914C73.1079 26.3112 74.3676 25.6702 74.9754 26.0238C75.2848 26.2117 75.5059 26.3885 75.7048 26.6648C75.9258 26.9631 75.8263 27.7035 75.3069 28.3334C74.7102 29.0738 73.8814 29.3943 73.0195 28.687C72.6438 29.8252 72.9421 30.5988 73.5831 30.6319ZM74.6108 27.814C75.0086 27.2947 75.2738 26.6648 75.097 26.5211C74.8428 26.3112 73.8151 27.0515 73.2405 28.2118C73.2073 28.2892 73.1631 28.3555 73.141 28.4218C73.7488 28.8086 74.2461 28.2782 74.6108 27.814Z" fill="#116EB6"/>
<path id="Vector_14" d="M76.5558 25.7033C76.4343 25.5265 76.5116 25.4492 76.6884 25.4602C77.031 25.4713 77.3736 25.4492 77.7051 25.416C78.0808 24.7419 78.4344 24.1673 78.6333 23.891C78.7438 23.7363 78.8654 23.7474 78.9317 23.891C79.0643 24.2336 79.0643 24.6425 78.777 25.2834C79.2522 25.2724 79.44 25.4934 79.5395 25.6481C79.6279 25.7917 79.5726 25.8801 79.3958 25.8801C79.1306 25.847 78.7438 25.8801 78.4344 25.9243C77.9592 26.7421 77.252 27.9355 76.7879 28.9743C76.379 29.8694 76.5227 30.6319 77.031 30.654C77.5835 30.6761 78.2797 29.8031 78.7328 28.8859C78.8101 28.7422 78.9427 28.7091 78.9869 28.8859C79.0533 29.0848 78.987 29.3058 78.8654 29.5821C78.7107 29.9357 77.8929 31.0186 76.9094 30.9855C76.1028 30.9634 75.4508 30.0572 76.0365 28.6428C76.2906 28.0239 76.81 26.9962 77.3404 26.0238C76.9426 26.0127 76.6553 25.8359 76.5558 25.7033Z" fill="#116EB6"/>
<path id="Vector_15" d="M79.8832 30.6319C80.8999 30.6761 81.795 29.7037 82.3254 28.8859C82.3917 28.7865 82.4801 28.7865 82.5354 28.897C82.5796 28.9964 82.5464 29.339 82.3254 29.6595C81.806 30.4109 80.8667 30.9745 79.9164 30.9855C78.3583 31.0076 77.8168 29.4716 78.6124 27.8914C79.4081 26.3112 80.6678 25.6702 81.2756 26.0238C81.585 26.2117 81.806 26.3885 82.0049 26.6648C82.2259 26.9631 82.1265 27.7035 81.6071 28.3334C81.0104 29.0738 80.1816 29.3943 79.3196 28.687C78.9439 29.8252 79.2423 30.5988 79.8832 30.6319ZM80.9109 27.814C81.3088 27.2947 81.574 26.6648 81.3972 26.5211C81.143 26.3112 80.1153 27.0515 79.5407 28.2118C79.5075 28.2892 79.4633 28.3555 79.4412 28.4218C80.049 28.8086 80.5463 28.2782 80.9109 27.814Z" fill="#116EB6"/>
<path id="Vector_16" d="M86.6133 24.1233C86.5691 23.9907 86.5801 23.9134 86.7348 23.8913C87.5857 23.7808 88.1935 23.2945 88.9891 23.1619C89.7737 23.0404 90.3925 23.4492 90.8456 24.2449C91.9728 26.2119 89.7848 29.7923 86.5028 30.8863C86.1491 31.0078 85.9281 30.9747 85.7182 30.7979C85.5745 30.6763 85.3756 30.5105 85.1988 30.2674C84.9667 29.947 84.9004 29.7591 85.1656 28.9635C85.5414 27.8142 86.5691 25.8914 87.4089 24.6316C86.9337 24.6206 86.6906 24.3112 86.6133 24.1233ZM87.7515 25.8141C87.1326 26.9081 86.1381 28.5435 85.7845 29.6707C85.6298 30.1901 85.7071 30.3558 86.0828 30.2232C89.4312 28.9414 90.9782 25.4383 90.2599 24.278C89.829 23.5929 88.9339 24.2449 88.0719 24.5211C88.1272 24.8306 88.0498 25.2726 87.7515 25.8141Z" fill="#116EB6"/>
<path id="Vector_17" d="M92.4466 30.6319C93.4632 30.6761 94.3583 29.7037 94.8888 28.8859C94.9551 28.7865 95.0435 28.7865 95.0987 28.897C95.1429 28.9964 95.1098 29.339 94.8888 29.6595C94.3694 30.4109 93.4301 30.9745 92.4797 30.9855C90.9216 31.0076 90.3801 29.4716 91.1758 27.8914C91.9714 26.3112 93.2312 25.6702 93.839 26.0238C94.1484 26.2117 94.3694 26.3885 94.5683 26.6648C94.7893 26.9631 94.6898 27.7035 94.1705 28.3334C93.5737 29.0738 92.745 29.3943 91.883 28.687C91.4962 29.8252 91.7946 30.5988 92.4466 30.6319ZM93.4632 27.814C93.8611 27.2947 94.1263 26.6648 93.9495 26.5211C93.6953 26.3112 92.6676 27.0515 92.093 28.2118C92.0598 28.2892 92.0156 28.3555 91.9935 28.4218C92.6123 28.8086 93.1096 28.2782 93.4632 27.814Z" fill="#116EB6"/>
<path id="Vector_18" d="M98.4487 25.9797C98.8576 26.046 99.2333 26.6427 98.9239 27.2837C98.6697 27.8251 98.062 28.7313 97.7857 29.3722C97.4652 30.0794 97.5426 30.6651 97.9846 30.632C98.4929 30.6099 99.0897 29.7921 99.5538 28.9412C99.6201 28.8307 99.6974 28.8307 99.7638 28.9302C99.8522 29.0628 99.8301 29.3501 99.6532 29.7037C99.3217 30.3889 98.5482 31.0187 97.841 31.0187C96.8022 31.0187 96.548 30.2563 96.9127 29.1843C97.3216 27.9798 98.3935 26.6759 98.1725 26.5764C98.0509 26.5322 97.3326 26.8748 96.548 27.7257C95.8187 28.5103 95.2883 29.6927 94.7579 30.8419C94.7137 30.9524 94.6363 30.9966 94.5258 30.8861C94.2827 30.643 94.2053 30.2341 94.4042 29.6264C94.6473 28.8528 95.5977 27.151 96.3712 26.0018C96.4596 25.8692 96.5591 25.8802 96.6254 26.0018C96.8133 26.3112 96.8022 26.7311 96.6585 27.1731C97.2111 26.5985 98.0509 25.9244 98.4487 25.9797Z" fill="#116EB6"/>
<path id="Vector_19" d="M100.095 25.7033C99.9737 25.5265 100.051 25.4492 100.228 25.4602C100.57 25.4713 100.913 25.4492 101.245 25.416C101.62 24.7419 101.974 24.1673 102.173 23.891C102.283 23.7363 102.405 23.7474 102.471 23.891C102.604 24.2336 102.604 24.6425 102.316 25.2834C102.792 25.2724 102.979 25.4934 103.079 25.6481C103.167 25.7917 103.112 25.8801 102.935 25.8801C102.67 25.847 102.283 25.8801 101.974 25.9243C101.499 26.7421 100.791 27.9355 100.327 28.9743C99.9185 29.8694 100.062 30.6319 100.57 30.654C101.123 30.6761 101.819 29.8031 102.272 28.8859C102.35 28.7422 102.482 28.7091 102.526 28.8859C102.593 29.0848 102.526 29.3058 102.405 29.5821C102.25 29.9357 101.432 31.0186 100.449 30.9855C99.6422 30.9634 98.9902 30.0572 99.5759 28.6428C99.83 28.0239 100.349 26.9962 100.88 26.0238C100.482 26.0127 100.195 25.8359 100.095 25.7033Z" fill="#116EB6"/>
<path id="Vector_20" d="M106.403 26.0571C106.514 25.9024 106.613 25.8693 106.702 25.9798C106.89 26.2008 106.989 26.7312 106.691 27.339C106.425 27.8915 105.807 28.8087 105.508 29.4607C105.199 30.1458 105.188 30.6762 105.608 30.6541C106.116 30.632 106.79 29.7922 107.221 28.9413C107.287 28.8308 107.365 28.8197 107.42 28.9303C107.464 29.0408 107.464 29.3502 107.31 29.6927C106.989 30.3668 106.216 31.0409 105.541 31.0078C104.878 30.9746 104.536 30.5768 104.536 30.0022C104.138 30.5105 103.585 30.9636 103 30.9636C101.862 30.9636 101.618 29.4054 102.646 27.9136C103.641 26.466 104.613 25.9135 105.221 25.9135C105.751 25.9135 105.994 26.3223 105.972 26.7975C106.127 26.5102 106.271 26.256 106.403 26.0571ZM105.431 26.5544C105.033 26.5212 104.138 27.3169 103.464 28.4109C102.812 29.4717 102.657 30.5436 103.132 30.5547C103.641 30.5657 104.271 29.7811 104.9 28.6982C105.674 27.3611 105.785 26.5986 105.431 26.5544Z" fill="#116EB6"/>
<path id="Vector_21" d="M108.117 30.61C108.703 30.6542 109.565 29.7702 110.04 28.8309C110.128 28.6762 110.261 28.6541 110.305 28.8309C110.371 29.0298 110.316 29.295 110.184 29.5934C110.007 29.958 109.112 30.9857 108.128 30.9526C107.277 30.9305 106.824 30.3338 107.111 29.0077C107.565 26.8749 108.968 24.6427 110.217 23.3498C110.405 23.1509 110.57 23.1288 110.747 23.2835C111.101 23.604 111.178 24.057 111.034 24.6317C110.659 26.1456 109.277 27.6153 108.183 28.3336C107.697 29.5381 107.565 30.5658 108.117 30.61ZM110.626 24.3886C110.471 24.2891 109.554 25.6483 108.714 27.2285C108.603 27.4275 108.504 27.6264 108.415 27.8142C110.095 26.444 110.78 24.477 110.626 24.3886Z" fill="#116EB6"/>
<path id="Vector_22" d="M113.343 29.4055C113.829 29.8033 114.669 30.4332 115.465 30.4332C115.807 30.4332 116.062 30.3447 116.227 30.2121C116.437 29.9801 116.371 29.7259 116.205 29.5712C115.553 29.0187 113.619 28.2562 113.619 26.9964C113.619 25.3167 115.52 23.8802 116.614 23.4161C117.2 23.1729 117.796 23.0735 118.194 23.4382C118.504 23.7255 118.725 24.1233 118.813 24.4659C118.935 24.9521 118.636 25.4383 118.46 25.6925C118.139 26.1234 117.785 26.7533 117.609 27.0517C117.542 27.1622 117.476 27.2285 117.343 27.0848C117.111 26.8528 116.968 26.466 117.222 25.8914C117.476 25.3057 118.404 24.278 118.106 23.9796C117.686 23.5487 114.669 25.4273 114.603 26.9633C114.57 27.7589 116.139 28.4109 116.824 28.9082C117.288 29.2397 117.233 29.8033 116.691 30.4332C115.951 31.284 113.818 31.5161 112.083 29.4275C111.951 29.2728 111.995 29.1844 112.105 29.1402C112.514 29.0297 113.012 29.1402 113.343 29.4055Z" fill="#116EB6"/>
<path id="Vector_23" d="M123.091 30.6099C123.666 30.643 124.528 29.7701 124.992 28.8418C125.069 28.6871 125.202 28.665 125.246 28.8418C125.312 29.0407 125.246 29.2949 125.124 29.5932C124.981 29.9469 124.063 30.9856 123.102 30.9414C122.284 30.9083 121.809 30.3447 122.096 29.0297C122.13 28.8529 122.174 28.7092 122.218 28.5545C122.119 28.5655 122.03 28.5655 121.931 28.5655C121.787 28.5655 121.632 28.5545 121.5 28.5324C121.19 29.5269 120.472 30.632 119.632 30.8862C119.179 31.0298 118.538 31.0188 118.074 30.3668C117.544 29.6374 117.732 28.5655 118.284 27.6041C118.759 26.7643 119.489 26.0681 120.229 26.0129C120.594 25.9797 120.815 26.0902 121.069 26.4217C121.367 26.8196 121.71 26.8859 121.643 27.7699C121.632 27.9136 121.621 28.0683 121.577 28.234C121.688 28.2451 121.798 28.2561 121.92 28.2561C122.041 28.2561 122.174 28.2561 122.295 28.2451C122.881 26.3886 124.086 24.5431 125.18 23.4049C125.356 23.2171 125.544 23.1839 125.71 23.3386C126.042 23.6702 126.13 24.1122 125.975 24.6758C125.787 25.3609 125.29 26.2449 124.826 26.8196C124.318 27.4494 123.809 27.9688 123.168 28.2672C122.682 29.5159 122.539 30.5767 123.091 30.6099ZM119.964 26.9301C119.643 27.1842 119.268 27.6041 119.002 28.0683C118.483 28.9855 118.317 30.1347 118.638 30.3999C118.969 30.6873 119.732 30.2452 120.328 29.1402C120.516 28.7976 120.638 28.4882 120.748 28.1898C120.273 27.8694 119.964 27.3831 119.964 26.9301ZM120.947 26.8969C120.881 26.4991 120.638 26.5764 120.583 26.9301C120.538 27.2505 120.627 27.571 120.848 27.8141C120.947 27.4384 120.98 27.1179 120.947 26.8969ZM124.693 26.3996C125.235 25.615 125.721 24.5321 125.566 24.4216C125.434 24.3332 124.494 25.6593 123.666 27.2395C123.566 27.4273 123.478 27.6041 123.412 27.7699C123.975 27.3721 124.439 26.7643 124.693 26.3996Z" fill="#116EB6"/>
<path id="Vector_24" d="M125.158 30.9523C124.285 30.886 124.263 29.9799 124.528 29.1732C124.793 28.3665 125.423 27.162 126.219 26.0459C126.318 25.9133 126.44 25.9243 126.539 26.0348C126.804 26.4437 126.749 26.9962 126.307 27.6924C125.854 28.4217 125.611 28.908 125.346 29.4936C125.092 30.0904 125.125 30.5324 125.412 30.5655C125.887 30.5987 126.561 29.7478 127.224 28.6759C127.998 27.4272 128.352 26.5763 128.749 26.0459C128.871 25.8691 128.959 25.8469 129.059 25.9685C129.247 26.1895 129.346 26.731 129.048 27.3388C128.782 27.8913 128.164 28.8085 127.876 29.4384C127.556 30.1346 127.611 30.6539 128.053 30.6318C128.573 30.6097 129.191 29.792 129.678 28.9411C129.744 28.8306 129.854 28.8195 129.899 28.9301C129.943 29.0295 129.965 29.361 129.788 29.7036C129.434 30.3887 128.672 31.0186 127.943 31.0186C127.147 31.0186 126.827 30.5103 126.926 29.803C126.495 30.3777 125.843 31.0076 125.158 30.9523Z" fill="#116EB6"/>
<path id="Vector_25" d="M130.218 25.7033C130.096 25.5265 130.173 25.4492 130.35 25.4602C130.693 25.4713 131.035 25.4492 131.367 25.416C131.743 24.7419 132.096 24.1673 132.295 23.891C132.406 23.7363 132.527 23.7474 132.593 23.891C132.726 24.2336 132.726 24.6425 132.439 25.2834C132.914 25.2724 133.102 25.4934 133.201 25.6481C133.29 25.7917 133.234 25.8801 133.058 25.8801C132.792 25.847 132.406 25.8801 132.096 25.9243C131.621 26.7421 130.914 27.9355 130.45 28.9743C130.041 29.8694 130.184 30.6319 130.693 30.654C131.245 30.6761 131.941 29.8031 132.395 28.8859C132.472 28.7422 132.604 28.7091 132.649 28.8859C132.715 29.0848 132.649 29.3058 132.527 29.5821C132.372 29.9357 131.555 31.0186 130.571 30.9855C129.765 30.9634 129.113 30.0572 129.698 28.6428C129.952 28.0239 130.472 26.9962 131.002 26.0238C130.593 26.0127 130.317 25.8359 130.218 25.7033Z" fill="#116EB6"/>
<path id="Vector_26" d="M132.131 29.1844C132.441 28.2893 133.247 26.8417 133.7 26.2008C133.811 26.0571 133.899 26.0129 133.999 26.1234C134.187 26.3223 134.286 26.8528 133.988 27.4606C133.734 28.002 133.214 28.8308 132.96 29.4497C132.662 30.1569 132.695 30.6431 133.082 30.621C133.634 30.5989 134.308 29.7812 134.673 28.9413C134.739 28.8308 134.817 28.8419 134.872 28.9413C134.971 29.1402 134.938 29.3944 134.783 29.7038C134.419 30.4663 133.645 30.9857 132.949 30.9857C132.021 30.9746 131.789 30.19 132.131 29.1844ZM134.872 25.9798C134.717 26.1566 134.364 26.1124 134.187 25.7919C133.988 25.4604 134.054 25.0957 134.253 24.8858C134.452 24.6758 134.806 24.8195 134.96 25.151C135.115 25.4825 135.027 25.814 134.872 25.9798Z" fill="#116EB6"/>
<path id="Vector_27" d="M142.209 31.0077C141.193 31.0077 140.927 30.2452 141.292 29.2065C141.712 28.0019 142.773 26.698 142.574 26.6317C142.43 26.5875 141.734 26.8969 140.949 27.7588C140.242 28.5324 139.657 29.7148 139.159 30.864C139.126 30.9524 139.038 31.0187 138.927 30.8972C138.706 30.6541 138.618 30.2563 138.828 29.6485C138.96 29.2728 139.237 28.6318 139.601 27.9798C139.27 28.2009 138.894 28.3114 138.463 28.2893C138.22 29.328 137.435 30.5988 136.518 30.8972C136.076 31.0408 135.446 31.0298 134.971 30.3778C134.43 29.6485 134.617 28.5766 135.17 27.6152C135.645 26.7753 136.386 26.0791 137.126 26.0239C137.491 25.9907 137.701 26.1012 137.944 26.4328C138.242 26.8306 138.607 26.8969 138.529 27.7809C138.529 27.8472 138.529 27.9246 138.518 28.0019C139.292 27.9909 140.087 27.0958 140.751 26.0902C140.839 25.9576 140.938 25.9576 141.005 26.0681C141.193 26.3775 141.193 26.7974 141.049 27.2174C141.601 26.6427 142.408 25.9797 142.828 26.0239C143.237 26.0681 143.613 26.698 143.303 27.3279C143.038 27.8804 142.452 28.7644 142.165 29.4054C141.845 30.1015 141.911 30.6541 142.375 30.643C142.861 30.632 143.447 29.8363 143.922 28.9523C143.966 28.8528 144.099 28.8528 144.132 28.9523C144.198 29.0959 144.198 29.3501 144.01 29.7258C143.69 30.3889 142.939 31.0077 142.209 31.0077ZM136.861 26.8969C136.518 27.1842 136.176 27.6152 135.899 28.0682C135.358 28.9854 135.192 30.1347 135.524 30.3999C135.855 30.6651 136.618 30.2452 137.203 29.1402C137.413 28.7423 137.557 28.3998 137.656 28.0903C137.225 27.8583 136.872 27.3831 136.861 26.8969ZM137.822 26.8969C137.756 26.4991 137.502 26.5764 137.457 26.93C137.424 27.1953 137.502 27.5599 137.756 27.7478C137.822 27.4163 137.855 27.1179 137.822 26.8969Z" fill="#116EB6"/>
<path id="Vector_28" d="M145.667 26.665C145.733 26.1898 145.855 25.9577 146.109 25.7146C146.374 25.4715 146.661 25.4162 146.772 25.5268C146.893 25.6483 146.838 25.7809 146.672 26.0682C146.628 26.1456 146.584 26.2119 146.54 26.3003C146.451 27.4274 146.683 28.3888 146.65 29.2397C146.628 29.7149 146.54 30.2343 146.098 30.5326C146.915 30.2232 147.435 29.4939 147.744 28.8198C147.81 28.6872 147.932 28.7204 147.976 28.8198C148.02 28.9303 148.009 29.2508 147.799 29.6265C147.335 30.4774 146.495 30.9415 145.622 30.9747C144.915 30.9968 144.219 30.82 143.81 30.0575C143.512 29.5049 143.556 28.6983 143.965 28.3557C144.109 28.2341 144.208 28.2783 144.219 28.4772C144.23 28.5767 144.23 28.6762 144.241 28.7756C144.749 28.0905 145.302 27.2948 145.667 26.665ZM144.363 29.4386C144.551 30.1459 144.904 30.6542 145.313 30.5326C145.877 30.3558 145.689 28.433 145.645 27.4495C145.28 28.1015 144.827 28.7756 144.363 29.4386Z" fill="#116EB6"/>
</g>
<g id="Group_4">
<g id="Group_5">
<g id="Group_6">
<path id="Vector_29" d="M17.3121 33.1406C17.3121 17.3936 26.2962 15.1945 27.987 15.9349C29.6666 16.6753 23.2131 22.0348 23.9977 21.9574C27.2908 21.6149 28.9152 19.5595 32.8934 11.5478C33.1476 11.0947 33.9874 11.2053 33.9211 12.4098C33.4349 21.5044 29.9761 24.2339 25.5669 26.4771C20.8041 28.8972 19.688 29.9691 17.3121 33.1406Z" fill="#116EB6"/>
<path id="Vector_30" d="M16.6157 33.1406C16.6157 17.3936 7.63158 15.1945 5.94085 15.9349C4.26116 16.6753 10.7147 22.0348 9.93009 21.9574C6.63703 21.6149 5.0126 19.5595 1.04545 11.5478C0.791292 11.0947 -0.04855 11.2053 0.0177532 12.4098C0.503977 21.5044 3.9628 24.2339 8.37197 26.4771C13.1348 28.8972 14.2509 29.9691 16.6157 33.1406Z" fill="#116EB6"/>
</g>
<g id="Group_7">
<path id="Vector_31" d="M27.1575 9.14974C27.0028 9.11659 26.8592 9.09449 26.7045 9.06133C26.5719 9.03923 26.4282 8.99503 26.2956 8.98398C25.6878 8.90663 25.08 8.89558 24.5054 8.98398C23.8645 9.08344 23.323 9.28235 22.8589 9.51441C22.7263 10.8957 22.2621 12.708 21.577 14.454C21.5328 14.5756 21.4776 14.6861 21.4333 14.8076C21.8864 14.9181 22.3947 15.0176 22.9583 15.0839C28.5168 15.7138 30.8374 12.3875 31.4009 11.3819C29.9644 10.2437 28.5278 9.50336 27.1575 9.14974Z" fill="#9EC55B"/>
<path id="Vector_32" d="M11.066 9.62494C10.5688 9.34868 9.961 9.10556 9.23166 8.98401C8.76754 8.90665 8.29236 8.90665 7.80614 8.93981C7.71773 8.95086 7.64038 8.96191 7.55198 8.97296C7.34202 8.99506 7.13206 9.01716 6.92209 9.06136C5.45237 9.37078 3.9053 10.1443 2.34717 11.3709C2.91075 12.3765 5.23136 15.7027 10.7898 15.0729C11.4197 15.0066 11.9722 14.8961 12.4584 14.7634C12.4253 14.675 12.3811 14.5866 12.3479 14.4872C11.6628 12.8075 11.2097 11.0284 11.066 9.62494Z" fill="#9EC55B"/>
<path id="Vector_33" d="M15.8285 5.84562C15.9169 5.91192 16.0384 6.01138 16.16 6.11083C16.2042 6.15503 16.2594 6.18819 16.3036 6.23239C16.4473 6.34289 16.6352 6.4976 16.8562 6.64126C16.9556 6.70756 17.0661 6.78491 17.1987 6.84017C17.6739 7.06118 18.1933 7.18273 18.7127 7.18273C18.7458 7.09433 18.79 7.00593 18.8342 6.91752C18.5911 6.87332 18.3148 6.82912 18.0386 6.74071C17.7071 6.64126 17.3092 6.44235 17.3092 6.38709C17.3092 6.33184 17.7402 6.05558 17.8397 5.98928C18.348 5.67986 19.011 5.28204 19.6078 5.19364C18.9226 3.31504 17.7513 1.31489 16.8672 -0.00012207C15.95 1.29279 14.7124 3.27084 13.983 5.12733C14.0051 5.14943 14.0162 5.16048 14.0272 5.18259C14.0383 5.18259 14.0493 5.18259 14.0604 5.18259C14.5798 5.17153 15.2317 5.4257 15.8285 5.84562Z" fill="#9EC55B"/>
<path id="Vector_34" d="M22.9008 8.5972C23.3428 8.40934 23.8291 8.25463 24.3816 8.17728C25.0225 8.07782 25.8292 8.05572 26.7464 8.22148C27.8515 6.07768 27.6525 4.13278 27.5199 3.40344C24.8126 3.4587 22.6466 4.13278 21.1548 5.33729C21.1106 5.37044 21.0664 5.41464 21.0222 5.44779C22.1715 5.98927 22.8456 7.29324 22.9008 8.5972Z" fill="#9EC55B"/>
<path id="Vector_35" d="M13.0325 5.38143C12.8778 5.24883 12.712 5.11622 12.5352 5.00571C11.0655 4.00011 9.05431 3.44759 6.60108 3.39233C6.46848 4.12167 6.26957 6.04447 7.34147 8.16617C8.11501 8.06672 8.80014 8.08882 9.36372 8.17722C9.9936 8.27668 10.5461 8.46454 11.0213 8.68555C11.0545 7.29318 11.7838 5.88976 13.0325 5.38143Z" fill="#9EC55B"/>
</g>
</g>
<path id="Vector_36" d="M22.8997 8.59733C22.8334 7.28232 22.1593 5.9894 21.0211 5.43687C20.6675 5.27112 20.2807 5.17166 19.8387 5.17166C19.7614 5.17166 19.684 5.18271 19.6067 5.19376C19.0099 5.28217 18.3358 5.69104 17.8386 5.9894C17.7391 6.05571 17.3081 6.33197 17.3081 6.38722C17.3081 6.44247 17.706 6.64138 18.0375 6.74084C18.3027 6.81819 18.579 6.87345 18.8331 6.91765C19.2641 6.98395 19.5956 7.00605 19.6067 7.00605C19.6067 7.00605 19.684 7.00605 19.684 7.02815C19.684 7.05025 19.6067 7.07236 19.6067 7.07236C19.6067 7.07236 19.242 7.18286 18.7116 7.18286C18.1922 7.18286 17.6839 7.07236 17.1976 6.84029C17.0761 6.78504 16.9545 6.70769 16.8551 6.64138C16.6341 6.49773 16.4462 6.34302 16.3025 6.23251C16.2583 6.19936 16.2141 6.15516 16.1589 6.11096C16.0373 6.0115 15.9158 5.901 15.8274 5.84575C15.2306 5.42582 14.5676 5.18271 14.0703 5.18271C14.0593 5.18271 14.0482 5.18271 14.0372 5.18271C13.6725 5.18271 13.33 5.26007 13.0205 5.38162C11.7829 5.88995 11.0535 7.29337 11.0204 8.68574C11.0204 8.71889 11.0204 8.76309 11.0204 8.79624C11.0204 9.0504 11.0425 9.33772 11.0756 9.62503C11.2193 11.0174 11.6724 12.8076 12.3465 14.5094C12.3796 14.6088 12.4238 14.6972 12.457 14.7856C12.7885 15.5813 13.1421 16.2996 13.4626 16.8079C13.9819 17.6256 14.1808 17.6477 14.2361 17.6367C14.3024 17.6256 14.3024 17.5593 14.3356 17.4599C14.5345 16.8631 14.7223 16.0233 14.7665 15.9017C15.5622 13.8905 18.59 14.1226 19.1867 15.9238C19.2309 16.0565 19.5514 17.2941 19.6067 17.4599C19.6509 17.5814 19.6509 17.6146 19.7061 17.6256C19.7835 17.6477 20.0597 17.4488 20.4686 16.7858C20.778 16.2885 21.1206 15.5923 21.4521 14.8077C21.4963 14.6862 21.5516 14.5757 21.5958 14.4541C22.2809 12.7081 22.7561 10.8958 22.8776 9.51453C22.8997 9.26036 22.9218 9.0062 22.9218 8.78519C22.9108 8.72994 22.8997 8.66364 22.8997 8.59733Z" fill="white"/>
<g id="Group_8">
<path id="Vector_37" d="M14.2015 18.0565C13.881 18.0565 13.5495 17.7471 13.0964 17.0288C12.7207 16.4321 12.3118 15.5923 11.9472 14.664C11.1184 12.5644 10.599 10.3101 10.599 8.79618C10.599 6.81813 11.903 4.76273 14.0799 4.76273C14.6656 4.76273 15.3949 5.02794 16.069 5.50312C16.1685 5.56942 16.3011 5.67992 16.4337 5.79043L16.5663 5.90094C16.6657 5.97829 16.7873 6.08879 16.942 6.18825C17.0083 6.05564 17.1851 5.90094 17.6271 5.63572C18.246 5.26 19.0748 4.75168 19.8483 4.75168C22.0253 4.75168 23.3292 6.79603 23.3292 8.78513C23.3292 10.2549 22.8099 12.4871 21.97 14.6088C21.5943 15.5481 21.1854 16.399 20.8097 17.0067C20.1798 18.0123 19.8373 18.0786 19.6052 18.0344C19.3289 17.9681 19.2516 17.7361 19.2184 17.6256C19.1742 17.504 19.0858 17.1393 18.9864 16.7747C18.898 16.4432 18.8206 16.1227 18.7875 16.0564C18.5333 15.2829 17.7156 14.9182 17.0194 14.9071C16.3453 14.885 15.4944 15.1834 15.1408 16.0674C15.1297 16.1116 15.0966 16.2442 15.0524 16.41C14.964 16.7415 14.8424 17.2167 14.7209 17.6035C14.6767 17.7361 14.5993 18.0013 14.2899 18.0565C14.2678 18.0455 14.2346 18.0565 14.2015 18.0565ZM14.0799 5.59152C12.4223 5.59152 11.4278 7.227 11.4278 8.79618C11.4278 10.2106 11.9251 12.3434 12.7207 14.3546C13.0743 15.2497 13.4611 16.0343 13.8037 16.5868C13.9031 16.7415 13.9805 16.8631 14.0578 16.9515C14.1352 16.6863 14.2015 16.41 14.2567 16.189C14.312 15.9569 14.3562 15.7912 14.3783 15.747C14.8093 14.6751 15.8149 14.0341 17.0415 14.0673C18.2349 14.1004 19.2295 14.7745 19.572 15.7801C19.5941 15.8464 19.6826 16.2 19.782 16.5537C19.8152 16.6752 19.8483 16.7968 19.8704 16.9073C19.9367 16.8189 20.0141 16.7084 20.1025 16.5647C20.4561 16.0011 20.8429 15.2055 21.1965 14.2994C21.9921 12.2661 22.5004 10.1554 22.5004 8.78513C22.5004 7.2049 21.5059 5.58047 19.8483 5.58047C19.3289 5.58047 18.6217 6.00039 18.1023 6.32086C18.1244 6.33191 18.1465 6.33191 18.1686 6.34296C18.8096 6.53082 19.5278 6.57502 19.6273 6.58607C19.9257 6.59712 20.0804 6.78498 20.1025 6.98389C20.1135 7.05019 20.1246 7.35961 19.7268 7.47011C19.7047 7.48116 19.2847 7.59167 18.7212 7.59167C18.1355 7.59167 17.5719 7.47011 17.0304 7.21595C16.8868 7.14965 16.7542 7.06124 16.6437 6.99494C16.4005 6.84023 16.2016 6.67447 16.058 6.55292L15.9585 6.47556C15.8038 6.34296 15.6933 6.25455 15.6159 6.18825C15.0745 5.81253 14.4888 5.59152 14.0799 5.59152Z" fill="#116EB6"/>
</g>
</g>
</g>
<defs>
<clipPath id="clip0_682_5323">
<rect width="148" height="33.5716" fill="white"/>
</clipPath>
</defs>
</svg>
