<svg width="21" height="20" viewBox="0 0 21 20" fill="none" xmlns="http://www.w3.org/2000/svg">
<path d="M0.13501 4.74639V0H4.8814V1.42855H1.56356V4.74639H0.13501ZM0.13501 20V15.2536H1.56356V18.5715H4.8814V20H0.13501ZM15.3886 20V18.5715H18.7065V15.2536H20.135V20H15.3886ZM18.7065 4.74639V1.42855H15.3886V0H20.135V4.74639H18.7065ZM15.1033 14.9683H16.2635V16.1285H15.1033V14.9683ZM15.1033 12.6479H16.2635V13.8081H15.1033V12.6479ZM13.9431 13.8081H15.1033V14.9683H13.9431V13.8081ZM12.783 14.9683H13.9431V16.1285H12.783V14.9683ZM11.6228 13.8081H12.783V14.9683H11.6228V13.8081ZM13.9431 11.4878H15.1033V12.6479H13.9431V11.4878ZM12.783 12.6479H13.9431V13.8081H12.783V12.6479ZM11.6228 11.4878H12.783V12.6479H11.6228V11.4878ZM16.9228 3.21218V8.51225H11.6228V3.21218H16.9228ZM8.64726 11.4878V16.7878H3.34719V11.4878H8.64726ZM8.64726 3.21218V8.51225H3.34719V3.21218H8.64726ZM7.66671 15.8073V12.4683H4.32774V15.8073H7.66671ZM7.66671 7.5317V4.19273H4.32774V7.5317H7.66671ZM15.9423 7.5317V4.19273H12.6033V7.5317H15.9423Z" fill="black"/>
</svg>
