<svg width="6" height="20" viewBox="0 0 6 20" fill="none" xmlns="http://www.w3.org/2000/svg">
<path id="Vector" d="M2.96341 0C1.6693 0 0.610474 1 0.610474 2.22222C0.610474 3.44444 1.6693 4.44444 2.96341 4.44444C4.25753 4.44444 5.31636 3.44444 5.31636 2.22222C5.31636 1 4.25753 0 2.96341 0ZM2.96341 15.5556C1.6693 15.5556 0.610474 16.5556 0.610474 17.7778C0.610474 19 1.6693 20 2.96341 20C4.25753 20 5.31636 19 5.31636 17.7778C5.31636 16.5556 4.25753 15.5556 2.96341 15.5556ZM2.96341 7.77778C1.6693 7.77778 0.610474 8.77778 0.610474 10C0.610474 11.2222 1.6693 12.2222 2.96341 12.2222C4.25753 12.2222 5.31636 11.2222 5.31636 10C5.31636 8.77778 4.25753 7.77778 2.96341 7.77778Z" fill="black"/>
</svg>
