<svg width="32" height="32" viewBox="0 0 32 32" fill="none" xmlns="http://www.w3.org/2000/svg">
<g id="receipt_long_FILL0_wght400_GRAD0_opsz48 1">
<path id="Vector" d="M7.39999 29.3334C6.42777 29.3334 5.60138 28.9931 4.92083 28.3125C4.24027 27.632 3.89999 26.8056 3.89999 25.8334V21.6667H8.13333V2.66669L10.1267 4.66669L12.12 2.66669L14.1133 4.66669L16.1067 2.66669L18.1 4.66669L20.1 2.66669L22.1 4.66669L24.1 2.66669L26.1 4.66669L28.1 2.66669V25.8334C28.1 26.8056 27.7597 27.632 27.0792 28.3125C26.3986 28.9931 25.5722 29.3334 24.6 29.3334H7.39999ZM24.6 27.3334C25.0444 27.3334 25.4055 27.1945 25.6833 26.9167C25.9611 26.6389 26.1 26.2778 26.1 25.8334V6.00002H10.1333V21.6667H23.1V25.8334C23.1 26.2778 23.2389 26.6389 23.5167 26.9167C23.7944 27.1945 24.1555 27.3334 24.6 27.3334ZM11.9 11.2667V9.26669H19.9V11.2667H11.9ZM11.9 15.7334V13.7334H19.9V15.7334H11.9ZM23 11.2667C22.7333 11.2667 22.5 11.1667 22.3 10.9667C22.1 10.7667 22 10.5334 22 10.2667C22 10 22.1 9.76669 22.3 9.56669C22.5 9.36669 22.7333 9.26669 23 9.26669C23.2667 9.26669 23.5 9.36669 23.7 9.56669C23.9 9.76669 24 10 24 10.2667C24 10.5334 23.9 10.7667 23.7 10.9667C23.5 11.1667 23.2667 11.2667 23 11.2667ZM23 15.5667C22.7333 15.5667 22.5 15.4667 22.3 15.2667C22.1 15.0667 22 14.8334 22 14.5667C22 14.3 22.1 14.0667 22.3 13.8667C22.5 13.6667 22.7333 13.5667 23 13.5667C23.2667 13.5667 23.5 13.6667 23.7 13.8667C23.9 14.0667 24 14.3 24 14.5667C24 14.8334 23.9 15.0667 23.7 15.2667C23.5 15.4667 23.2667 15.5667 23 15.5667ZM7.36666 27.3334H21.1V23.6667H5.89999V25.8334C5.89999 26.2778 6.04055 26.6389 6.32166 26.9167C6.60277 27.1945 6.9511 27.3334 7.36666 27.3334Z" fill="#324969"/>
</g>
</svg>
