<svg width="12" height="12" viewBox="0 0 12 12" fill="none" xmlns="http://www.w3.org/2000/svg">
<path id="Vector" d="M11 11L7.66667 7.66667M1 4.88889C1 5.39959 1.10059 5.90528 1.29602 6.3771C1.49146 6.84892 1.77791 7.27763 2.13903 7.63875C2.50015 7.99987 2.92885 8.28632 3.40068 8.48175C3.8725 8.67719 4.37819 8.77778 4.88889 8.77778C5.39959 8.77778 5.90528 8.67719 6.3771 8.48175C6.84892 8.28632 7.27763 7.99987 7.63875 7.63875C7.99987 7.27763 8.28632 6.84892 8.48175 6.3771C8.67719 5.90528 8.77778 5.39959 8.77778 4.88889C8.77778 4.37819 8.67719 3.8725 8.48175 3.40068C8.28632 2.92885 7.99987 2.50015 7.63875 2.13903C7.27763 1.77791 6.84892 1.49146 6.3771 1.29602C5.90528 1.10059 5.39959 1 4.88889 1C4.37819 1 3.8725 1.10059 3.40068 1.29602C2.92885 1.49146 2.50015 1.77791 2.13903 2.13903C1.77791 2.50015 1.49146 2.92885 1.29602 3.40068C1.10059 3.8725 1 4.37819 1 4.88889Z" stroke="#888888" stroke-linecap="round" stroke-linejoin="round"/>
</svg>
