<svg width="21" height="30" viewBox="0 0 21 30" fill="none" xmlns="http://www.w3.org/2000/svg">
<path d="M13.6836 21.2539C15.0763 20.7308 16.5999 27.2965 19.3851 26.2502C22.0698 25.2092 19.2334 15.4457 18.9441 12.7577C18.6549 10.0697 18.725 2.97034 15.5463 1.22135C12.3713 -0.415198 10.9333 1.79973 8.24488 2.72829C5.65701 3.65161 3.21875 2.99032 1.6201 6.45255C0.0214506 9.91478 3.83135 15.5729 5.01794 17.9889C6.20453 20.4049 9.04097 30.1684 11.7257 29.1274C14.4104 28.0864 12.1905 21.7822 13.6836 21.2539Z" fill="white" stroke="#00203D" stroke-width="0.599787" stroke-miterlimit="10"/>
<path d="M3.77488 4.91161C3.77488 4.91161 4.7937 5.4154 8.75196 3.87484C12.7139 2.44539 12.7847 1.55127 12.7847 1.55127" stroke="#00203D" stroke-width="0.599787" stroke-miterlimit="10"/>
<path d="M14.5828 1.8251C14.9918 2.0214 15.4069 2.43912 15.8189 2.74613" stroke="#00203D" stroke-width="0.599787" stroke-miterlimit="10"/>
<path d="M16.248 3.55416C16.684 4.3154 17.0196 5.19542 17.145 5.97579C17.2641 6.53137 17.2765 6.98093 17.3956 7.53652" stroke="#00203D" stroke-width="0.599787" stroke-miterlimit="10" stroke-dasharray="0.56 0.56"/>
<path d="M17.4074 7.9061C17.4396 9.03271 17.4719 10.1593 17.6084 11.1669C17.7578 12.6251 18.1188 13.9579 18.483 15.4033" stroke="#00203D" stroke-width="0.599787" stroke-miterlimit="10" stroke-dasharray="2.24 2.24"/>
<path d="M18.5969 15.758C18.7162 16.3137 18.8355 16.8694 19.0584 17.4187" stroke="#00203D" stroke-width="0.599787" stroke-miterlimit="10"/>
</svg>
