<svg width="26" height="27" viewBox="0 0 26 27" fill="none" xmlns="http://www.w3.org/2000/svg">
<circle cx="13" cy="13" r="13" fill="#2F7CDA"/>
<g filter="url(#filter0_d_1033_4063)">
<path d="M17.9499 9.78345C17.7639 8.1706 16.7404 7.74523 15.5494 8.13515C14.3771 8.52507 13.8932 8.95044 13 8.95044C12.1068 8.95044 11.6416 8.52507 10.4506 8.13515C9.27824 7.74523 8.23614 8.1706 8.05006 9.78345C7.86397 11.3963 8.16171 12.4952 9.53876 13.9662C9.92955 14.3916 9.6318 15.2955 9.74346 16.4475C9.85511 17.6527 10.3389 18.9643 10.7297 18.9997C11.0275 19.0175 11.0089 18.149 11.0275 18.0249C11.0647 17.4401 11.0833 16.8552 11.2136 16.2703C11.3624 15.5436 11.6974 14.4448 12.4417 14.0726C12.5906 14.0017 12.7953 13.9308 12.9814 13.9308C13.8746 13.9308 14.3212 14.8879 14.5631 15.5791C14.7678 16.164 14.8609 16.7311 14.8981 17.3337C14.9353 17.7945 14.9167 18.2908 15.047 18.7339C15.0656 18.8048 15.14 18.9997 15.2517 18.982C15.6611 18.9466 16.1449 17.635 16.2565 16.4298C16.3682 15.2778 16.0705 14.3739 16.4612 13.9485C17.8383 12.4774 18.136 11.3963 17.9499 9.78345Z" fill="white"/>
</g>
<defs>
<filter id="filter0_d_1033_4063" x="4" y="8" width="18" height="19" filterUnits="userSpaceOnUse" color-interpolation-filters="sRGB">
<feFlood flood-opacity="0" result="BackgroundImageFix"/>
<feColorMatrix in="SourceAlpha" type="matrix" values="0 0 0 0 0 0 0 0 0 0 0 0 0 0 0 0 0 0 127 0" result="hardAlpha"/>
<feOffset dy="4"/>
<feGaussianBlur stdDeviation="2"/>
<feComposite in2="hardAlpha" operator="out"/>
<feColorMatrix type="matrix" values="0 0 0 0 0 0 0 0 0 0 0 0 0 0 0 0 0 0 0.25 0"/>
<feBlend mode="normal" in2="BackgroundImageFix" result="effect1_dropShadow_1033_4063"/>
<feBlend mode="normal" in="SourceGraphic" in2="effect1_dropShadow_1033_4063" result="shape"/>
</filter>
</defs>
</svg>
