<svg width="21" height="21" viewBox="0 0 21 21" fill="none" xmlns="http://www.w3.org/2000/svg">
<path id="Vector" d="M17.9397 3.05555C16.9722 2.08318 15.8198 1.31221 14.5498 0.787614C13.2797 0.263018 11.9174 -0.00470411 10.5422 6.25479e-05C4.7804 6.25479e-05 0.0844223 4.67255 0.0844223 10.4055C0.0844223 12.243 0.569849 14.028 1.47739 15.603L0 21L5.5402 19.551C7.07035 20.3805 8.79045 20.8215 10.5422 20.8215C16.304 20.8215 21 16.149 21 10.416C21 7.63354 19.9131 5.01905 17.9397 3.05555ZM10.5422 19.0575C8.9804 19.0575 7.45025 18.6375 6.11005 17.85L5.79347 17.661L2.501 18.522L3.37688 15.33L3.16583 15.0045C2.29812 13.6258 1.83738 12.0322 1.83618 10.4055C1.83618 5.63855 5.7407 1.75356 10.5317 1.75356C12.8533 1.75356 15.0377 2.65655 16.6734 4.29455C17.4833 5.09671 18.1251 6.05084 18.5617 7.10164C18.9982 8.15244 19.2208 9.279 19.2166 10.416C19.2377 15.183 15.3332 19.0575 10.5422 19.0575ZM15.3121 12.5895C15.0482 12.4635 13.7608 11.8335 13.5286 11.739C13.2859 11.655 13.1171 11.613 12.9377 11.865C12.7583 12.1275 12.2623 12.7155 12.1146 12.8835C11.9668 13.062 11.8085 13.083 11.5447 12.9465C11.2809 12.8205 10.4367 12.537 9.44472 11.655C8.66382 10.962 8.14673 10.1115 7.98844 9.84903C7.8407 9.58653 7.96734 9.45003 8.10452 9.31353C8.2206 9.19803 8.36834 9.00904 8.49497 8.86203C8.62161 8.71504 8.67437 8.59954 8.75879 8.43154C8.84321 8.25304 8.801 8.10604 8.73769 7.98004C8.67437 7.85404 8.14673 6.57304 7.93568 6.04804C7.72462 5.54405 7.50301 5.60705 7.34472 5.59655H6.83819C6.65879 5.59655 6.38442 5.65955 6.14171 5.92204C5.90955 6.18454 5.23417 6.81454 5.23417 8.09554C5.23417 9.37653 6.17337 10.6155 6.3 10.7835C6.42663 10.962 8.14673 13.587 10.7638 14.7105C11.3864 14.9835 11.8719 15.141 12.2518 15.2565C12.8744 15.456 13.4442 15.4245 13.898 15.3615C14.4045 15.288 15.4492 14.7315 15.6603 14.1225C15.8819 13.5135 15.8819 12.999 15.808 12.8835C15.7342 12.768 15.5759 12.7155 15.3121 12.5895Z" fill="#5F9601"/>
</svg>
