<svg width="17" height="18" viewBox="0 0 17 18" fill="none" xmlns="http://www.w3.org/2000/svg">
<path id="Vector" d="M13.5 18C12.75 18 12.1125 17.7375 11.5875 17.2125C11.0625 16.6875 10.8 16.05 10.8 15.3C10.8 15.195 10.8075 15.0861 10.8225 14.9733C10.8375 14.8605 10.86 14.7594 10.89 14.67L4.545 10.98C4.29 11.205 4.005 11.3814 3.69 11.5092C3.375 11.637 3.045 11.7006 2.7 11.7C1.95 11.7 1.3125 11.4375 0.7875 10.9125C0.2625 10.3875 0 9.75 0 9C0 8.25 0.2625 7.6125 0.7875 7.0875C1.3125 6.5625 1.95 6.3 2.7 6.3C3.045 6.3 3.375 6.3639 3.69 6.4917C4.005 6.6195 4.29 6.7956 4.545 7.02L10.89 3.33C10.86 3.24 10.8375 3.1389 10.8225 3.0267C10.8075 2.9145 10.8 2.8056 10.8 2.7C10.8 1.95 11.0625 1.3125 11.5875 0.7875C12.1125 0.2625 12.75 0 13.5 0C14.25 0 14.8875 0.2625 15.4125 0.7875C15.9375 1.3125 16.2 1.95 16.2 2.7C16.2 3.45 15.9375 4.0875 15.4125 4.6125C14.8875 5.1375 14.25 5.4 13.5 5.4C13.155 5.4 12.825 5.3364 12.51 5.2092C12.195 5.082 11.91 4.9056 11.655 4.68L5.31 8.37C5.34 8.46 5.3625 8.5614 5.3775 8.6742C5.3925 8.787 5.4 8.8956 5.4 9C5.4 9.105 5.3925 9.2139 5.3775 9.3267C5.3625 9.4395 5.34 9.5406 5.31 9.63L11.655 13.32C11.91 13.095 12.195 12.9189 12.51 12.7917C12.825 12.6645 13.155 12.6006 13.5 12.6C14.25 12.6 14.8875 12.8625 15.4125 13.3875C15.9375 13.9125 16.2 14.55 16.2 15.3C16.2 16.05 15.9375 16.6875 15.4125 17.2125C14.8875 17.7375 14.25 18 13.5 18ZM13.5 3.6C13.755 3.6 13.9689 3.5136 14.1417 3.3408C14.3145 3.168 14.4006 2.9544 14.4 2.7C14.4 2.445 14.3136 2.2311 14.1408 2.0583C13.968 1.8855 13.7544 1.7994 13.5 1.8C13.245 1.8 13.0311 1.8864 12.8583 2.0592C12.6855 2.232 12.5994 2.4456 12.6 2.7C12.6 2.955 12.6864 3.1689 12.8592 3.3417C13.032 3.5145 13.2456 3.6006 13.5 3.6ZM2.7 9.9C2.955 9.9 3.1689 9.8136 3.3417 9.6408C3.5145 9.468 3.6006 9.2544 3.6 9C3.6 8.745 3.5136 8.5311 3.3408 8.3583C3.168 8.1855 2.9544 8.0994 2.7 8.1C2.445 8.1 2.2311 8.1864 2.0583 8.3592C1.8855 8.532 1.7994 8.7456 1.8 9C1.8 9.255 1.8864 9.4689 2.0592 9.6417C2.232 9.8145 2.4456 9.9006 2.7 9.9ZM13.5 16.2C13.755 16.2 13.9689 16.1136 14.1417 15.9408C14.3145 15.768 14.4006 15.5544 14.4 15.3C14.4 15.045 14.3136 14.8311 14.1408 14.6583C13.968 14.4855 13.7544 14.3994 13.5 14.4C13.245 14.4 13.0311 14.4864 12.8583 14.6592C12.6855 14.832 12.5994 15.0456 12.6 15.3C12.6 15.555 12.6864 15.7689 12.8592 15.9417C13.032 16.1145 13.2456 16.2006 13.5 16.2Z" fill="#444444"/>
</svg>
