<svg width="309" height="417" viewBox="0 0 309 417" fill="none" xmlns="http://www.w3.org/2000/svg">
<g filter="url(#filter0_d_1_27887)">
<path d="M193.19 44.1963C185.817 52.5961 181.337 63.6092 181.337 75.6489H217.923L193.19 44.1963Z" stroke="#263238" stroke-width="0.933314" stroke-miterlimit="10" stroke-linecap="round" stroke-linejoin="round"/>
<path d="M261.601 40.4652L237.521 75.6511H277.094C277.001 61.7447 271.028 49.145 261.601 40.4652Z" stroke="#263238" stroke-width="0.933314" stroke-miterlimit="10" stroke-linecap="round" stroke-linejoin="round"/>
<path d="M195.804 41.3995L222.59 75.6521H225.764V27.9598C214.191 28.7998 203.737 33.7464 195.804 41.3995Z" stroke="#263238" stroke-width="0.933314" stroke-miterlimit="10" stroke-linecap="round" stroke-linejoin="round"/>
<path d="M223.336 208.368H180.403V262.033H223.336V208.368Z" stroke="#263238" stroke-width="0.933314" stroke-miterlimit="10" stroke-linecap="round" stroke-linejoin="round"/>
<path d="M229.496 27.8672V75.6528H232.949L258.709 38.0403C250.682 31.6938 240.509 27.8672 229.496 27.8672Z" stroke="#263238" stroke-width="0.933314" stroke-miterlimit="10" stroke-linecap="round" stroke-linejoin="round"/>
<path d="M277.002 83.4025H234.069V137.068H277.002V83.4025Z" stroke="#263238" stroke-width="0.933314" stroke-miterlimit="10" stroke-linecap="round" stroke-linejoin="round"/>
<path d="M223.336 145.837H180.403V199.502H223.336V145.837Z" stroke="#263238" stroke-width="0.933314" stroke-miterlimit="10" stroke-linecap="round" stroke-linejoin="round"/>
<path d="M277.002 145.837H234.069V199.502H277.002V145.837Z" stroke="#263238" stroke-width="0.933314" stroke-miterlimit="10" stroke-linecap="round" stroke-linejoin="round"/>
<path d="M277.002 208.368H234.069V262.033H277.002V208.368Z" stroke="#263238" stroke-width="0.933314" stroke-miterlimit="10" stroke-linecap="round" stroke-linejoin="round"/>
<path d="M223.336 83.4025H180.403V137.068H223.336V83.4025Z" stroke="#263238" stroke-width="0.933314" stroke-miterlimit="10" stroke-linecap="round" stroke-linejoin="round"/>
<path d="M149.001 404.497C231.094 404.497 297.643 394.539 297.643 382.254C297.643 369.97 231.094 360.012 149.001 360.012C66.9086 360.012 0.359375 369.97 0.359375 382.254C0.359375 394.539 66.9086 404.497 149.001 404.497Z" fill="#116EB6"/>
<path opacity="0.5" d="M149.001 404.497C231.094 404.497 297.643 394.539 297.643 382.254C297.643 369.97 231.094 360.012 149.001 360.012C66.9086 360.012 0.359375 369.97 0.359375 382.254C0.359375 394.539 66.9086 404.497 149.001 404.497Z" fill="white"/>
<path d="M37.1004 251.797C37.1004 251.797 37.1004 248.755 32.8286 244.483C28.5568 240.211 25.7736 237.752 25.7736 237.752C25.7736 237.752 23.6377 244.807 27.5859 249.078C31.5341 253.35 37.0357 257.298 37.0357 257.298V251.797H37.1004Z" fill="#C6FF00"/>
<path d="M30.8875 270.889C30.8875 270.889 30.8876 267.847 26.6157 263.575C22.3439 259.303 19.5607 256.843 19.5607 256.843C19.5607 256.843 17.4248 263.898 21.373 268.17C25.3212 272.442 30.8228 276.39 30.8228 276.39V270.889H30.8875Z" fill="#C6FF00"/>
<path d="M36.8418 256.972C36.8418 256.972 37.1654 253.93 41.8903 250.111C46.6152 246.293 49.5926 244.157 49.5926 244.157C49.5926 244.157 50.9518 251.341 46.5505 255.225C42.1492 259.043 36.2593 262.409 36.2593 262.409L36.8418 256.972Z" fill="#C6FF00"/>
<path d="M29.334 279.498C29.334 279.498 29.9812 276.521 35.0298 273.22C40.0783 269.919 43.3145 268.106 43.3145 268.106C43.3145 268.106 43.9618 275.42 39.1721 278.786C34.3825 282.152 28.1689 284.87 28.1689 284.87L29.334 279.498Z" fill="#C6FF00"/>
<path d="M30.7573 304.091C30.7573 304.091 30.7573 301.049 35.0292 296.777C39.301 292.505 42.0841 290.046 42.0841 290.046C42.0841 290.046 44.22 297.101 40.2718 301.373C36.3236 305.644 30.8221 309.593 30.8221 309.593V304.091H30.7573Z" fill="#C6FF00"/>
<path d="M30.6282 310.049C30.6282 310.049 31.0813 307.007 27.4567 302.217C23.8321 297.363 21.4373 294.579 21.4373 294.579C21.4373 294.579 18.3305 301.246 21.6315 306.036C24.9324 310.825 29.8515 315.55 29.8515 315.55L30.6282 310.049Z" fill="#C6FF00"/>
<path d="M26.4219 327.852C26.4219 327.852 26.4219 324.81 30.6937 320.538C34.9655 316.266 37.7487 313.806 37.7487 313.806C37.7487 313.806 39.8846 320.861 35.9364 325.133C31.9882 329.405 26.4866 333.353 26.4866 333.353V327.852H26.4219Z" fill="#C6FF00"/>
<path d="M29.2699 343.963C29.2699 343.963 28.4932 340.986 31.5353 335.808C34.5773 330.565 36.6485 327.523 36.6485 327.523C36.6485 327.523 40.4673 333.802 37.7488 338.915C34.9657 344.028 30.6938 349.271 30.6938 349.271L29.2699 343.963Z" fill="#C6FF00"/>
<path d="M37.4894 251.02C37.2305 254.256 36.8422 257.687 36.3244 260.47C34.6416 269.208 30.4345 274.839 28.7516 282.735C27.0688 290.632 31.9231 300.793 30.6286 310.89C29.3341 320.987 25.3859 326.683 26.4863 333.414C27.5866 340.146 33.5412 358.463 33.5412 358.463" stroke="#263238" stroke-width="0.323623" stroke-miterlimit="10" stroke-linecap="round" stroke-linejoin="round"/>
<path d="M36.7759 259.048L41.3713 255.489" stroke="#263238" stroke-width="0.323623" stroke-miterlimit="10" stroke-linecap="round" stroke-linejoin="round"/>
<path d="M36.973 254.968L35.0312 251.537" stroke="#263238" stroke-width="0.323623" stroke-miterlimit="10" stroke-linecap="round" stroke-linejoin="round"/>
<path d="M28.9463 282.413C28.9463 282.413 32.8298 279.5 36.778 276.652" stroke="#263238" stroke-width="0.323623" stroke-miterlimit="10" stroke-linecap="round" stroke-linejoin="round"/>
<path d="M30.8862 276.392C30.8862 276.392 27.65 270.114 24.0254 265.906" stroke="#263238" stroke-width="0.323623" stroke-miterlimit="10" stroke-linecap="round" stroke-linejoin="round"/>
<path d="M30.8872 308.43C30.8872 308.43 33.8645 302.54 39.1072 297.427" stroke="#263238" stroke-width="0.323623" stroke-miterlimit="10" stroke-linecap="round" stroke-linejoin="round"/>
<path d="M30.1115 312.7C30.1115 312.7 28.1698 308.105 25.9044 304.804C23.6391 301.503 23.3154 301.05 23.3154 301.05" stroke="#263238" stroke-width="0.323623" stroke-miterlimit="10" stroke-linecap="round" stroke-linejoin="round"/>
<path d="M26.4219 333.418C26.4219 333.418 27.9753 329.47 29.917 326.363C31.8587 323.256 34.4477 320.473 34.4477 320.473" stroke="#263238" stroke-width="0.323623" stroke-miterlimit="10" stroke-linecap="round" stroke-linejoin="round"/>
<path d="M30.6946 349.269C30.6946 349.269 30.2415 345.644 31.8597 342.538C33.4778 339.431 35.2901 335.353 36.0668 333.735" stroke="#263238" stroke-width="0.323623" stroke-miterlimit="10" stroke-linecap="round" stroke-linejoin="round"/>
<path d="M9.07726 292.578C9.07726 292.578 8.75364 290.636 10.9543 287.529C13.1549 284.358 14.6436 282.545 14.6436 282.545C14.6436 282.545 16.7148 286.688 14.7083 289.859C12.7018 292.966 9.65978 296.073 9.65978 296.073L9.07726 292.578Z" fill="#C6FF00"/>
<path d="M15.0319 303.902C15.0319 303.902 14.7082 301.961 16.9089 298.854C19.1095 295.682 20.5982 293.87 20.5982 293.87C20.5982 293.87 22.6694 298.012 20.6629 301.184C18.6564 304.291 15.6144 307.398 15.6144 307.398L15.0319 303.902Z" fill="#C6FF00"/>
<path d="M9.85392 295.81C9.85392 295.81 9.33612 293.933 5.97044 292.056C2.60476 290.179 0.468849 289.143 0.468849 289.143C0.468849 289.143 0.404137 293.804 3.57564 295.745C6.74715 297.687 10.8248 299.111 10.8248 299.111L9.85392 295.81Z" fill="#C6FF00"/>
<path d="M16.9718 309.147C16.9718 309.147 16.2598 307.335 12.7 305.846C9.14011 304.358 6.93945 303.516 6.93945 303.516C6.93945 303.516 7.32781 308.177 10.6935 309.73C14.0592 311.283 18.2663 312.319 18.2663 312.319L16.9718 309.147Z" fill="#C6FF00"/>
<path d="M18.7233 324.683C18.7233 324.683 18.3997 322.741 15.2282 320.54C12.0567 318.34 10.1149 317.11 10.1149 317.11C10.1149 317.11 9.53239 321.77 12.5097 323.971C15.4871 326.236 19.3705 328.113 19.3705 328.113L18.7233 324.683Z" fill="#C6FF00"/>
<path d="M19.434 328.437C19.434 328.437 18.8515 326.56 20.5991 323.129C22.3466 319.699 23.5117 317.692 23.5117 317.692C23.5117 317.692 26.1654 321.511 24.612 324.877C23.0586 328.242 20.5343 331.738 20.5343 331.738L19.434 328.437Z" fill="#C6FF00"/>
<path d="M24.8051 343.91C24.8051 343.91 24.9993 341.969 28.0413 339.574C31.0834 337.179 32.9604 335.82 32.9604 335.82C32.9604 335.82 33.8018 340.415 30.9539 342.81C28.1061 345.205 24.3521 347.341 24.3521 347.341L24.8051 343.91Z" fill="#C6FF00"/>
<path d="M24.0285 339.117C24.0285 339.117 23.7048 337.175 20.5333 334.975C17.3618 332.774 15.4201 331.544 15.4201 331.544C15.4201 331.544 14.8376 336.205 17.8149 338.405C20.7923 340.671 24.6757 342.548 24.6757 342.548L24.0285 339.117Z" fill="#C6FF00"/>
<path d="M23.9631 349.532C23.9631 349.532 24.1573 347.59 21.633 344.678C19.1735 341.765 17.5554 340.018 17.5554 340.018C17.5554 340.018 15.8078 344.354 18.1379 347.267C20.4033 350.179 23.7042 353.027 23.7042 353.027L23.9631 349.532Z" fill="#C6FF00"/>
<path d="M8.75293 292.125C9.27073 294.132 9.85324 296.203 10.5005 297.95C12.5069 303.258 15.7432 306.3 17.6849 311.089C19.6267 315.879 17.6849 322.74 19.5619 328.953C21.5037 335.167 24.5457 338.274 24.6105 342.61C24.6105 346.947 22.9276 359.115 22.9276 359.115" stroke="#263238" stroke-width="0.323623" stroke-miterlimit="10" stroke-linecap="round" stroke-linejoin="round"/>
<path d="M10.0473 297.11L6.81104 295.363" stroke="#263238" stroke-width="0.323623" stroke-miterlimit="10" stroke-linecap="round" stroke-linejoin="round"/>
<path d="M9.46484 294.582L10.3063 292.187" stroke="#263238" stroke-width="0.323623" stroke-miterlimit="10" stroke-linecap="round" stroke-linejoin="round"/>
<path d="M17.4899 310.894C17.4899 310.894 14.7714 309.47 11.9883 308.111" stroke="#263238" stroke-width="0.323623" stroke-miterlimit="10" stroke-linecap="round" stroke-linejoin="round"/>
<path d="M15.6792 307.334C15.6792 307.334 17.0384 303.062 18.8507 300.02" stroke="#263238" stroke-width="0.323623" stroke-miterlimit="10" stroke-linecap="round" stroke-linejoin="round"/>
<path d="M19.1086 327.404C19.1086 327.404 16.5844 324.038 12.7656 321.384" stroke="#263238" stroke-width="0.323623" stroke-miterlimit="10" stroke-linecap="round" stroke-linejoin="round"/>
<path d="M20.0776 330.054C20.0776 330.054 20.7896 326.947 21.8252 324.617C22.8608 322.287 23.055 321.963 23.055 321.963" stroke="#263238" stroke-width="0.323623" stroke-miterlimit="10" stroke-linecap="round" stroke-linejoin="round"/>
<path d="M24.4814 345.972C24.4814 345.972 26.6821 343.318 27.9766 342.347C29.3358 341.377 30.2419 340.341 30.2419 340.341" stroke="#263238" stroke-width="0.323623" stroke-miterlimit="10" stroke-linecap="round" stroke-linejoin="round"/>
<path d="M24.6111 342.613C24.6111 342.613 23.1871 340.347 21.6985 338.6C20.1451 336.852 18.2681 335.364 18.2681 335.364" stroke="#263238" stroke-width="0.323623" stroke-miterlimit="10" stroke-linecap="round" stroke-linejoin="round"/>
<path d="M23.7033 353.031C23.7033 353.031 23.5739 350.701 22.2146 348.889C20.8554 347.142 19.302 344.747 18.6548 343.841" stroke="#263238" stroke-width="0.323623" stroke-miterlimit="10" stroke-linecap="round" stroke-linejoin="round"/>
<path d="M40.2065 380.211H16.1937C15.0934 380.211 14.252 379.305 14.252 378.27V357.04H42.213V378.205C42.1482 379.305 41.3068 380.211 40.2065 380.211Z" fill="#263238"/>
<path d="M181.589 191.627C182.135 192.322 183.278 193.067 183.774 192.322C183.874 192.173 183.923 191.925 183.923 191.726C184.072 189.839 183.029 187.902 181.39 187.008C185.662 186.958 190.628 187.654 194.105 190.137C194.8 190.633 195.893 191.279 196.389 190.584C197.482 189.094 191.373 185.121 187.549 184.425C191.324 184.078 196.439 189.591 197.283 189.094C198.426 188.448 197.035 186.561 196.191 185.617C194.155 183.432 191.82 182.339 188.642 180.849C191.969 181.296 197.085 185.518 197.681 184.872C199.22 183.134 195.396 180.899 193.41 179.707C190.976 178.267 188.244 177.423 185.413 177.274C181.043 176.976 176.772 177.274 173.047 174.939C172.6 174.691 166.342 164.907 166.342 164.907C166.342 164.907 163.908 172.605 163.859 173.052C162.617 184.326 176.722 185.568 181.589 191.627Z" fill="#FFCCA9"/>
<path d="M224.553 76.3597C226.44 76.3597 257.729 71.9891 262.696 68.2145C267.712 64.44 256.438 25.9494 256.438 25.9494L267.712 21.9265C267.712 21.9265 287.727 65.7313 278.986 76.9556C270.245 88.2296 228.923 97.6164 228.923 97.6164L224.553 76.3597Z" fill="#FFBE8C"/>
<path d="M182.288 12.7856C179.16 18.9441 179.11 26.5926 182.189 32.7511C182.437 33.2974 182.735 33.7941 183.232 34.1417C183.729 34.4397 184.474 34.4894 184.821 34.0424C185.07 33.7444 185.119 33.3471 185.119 32.9994C185.368 29.8705 185.467 26.7416 186.212 23.712C187.056 20.4838 188.646 17.4542 190.831 14.9709L182.288 12.7856Z" fill="#774B42"/>
<path d="M231.557 339.934C231.557 339.934 242.335 352.499 240.1 356.175C237.815 359.899 230.365 370.031 226.988 374.253C223.611 378.474 221.376 382.199 223.511 382.497C225.647 382.795 238.262 375.594 241.888 371.918C245.513 368.243 259.469 361.042 258.973 358.608C258.476 356.175 247.649 336.01 247.649 336.01L231.557 339.934Z" fill="#D8B695"/>
<path d="M220.486 380.115C220.486 380.115 221.827 384.237 226.198 384.982C230.022 385.628 238.117 384.237 245.071 378.327C251.974 372.367 263.894 369.834 266.327 364.669C267.966 361.143 261.46 358.064 261.46 358.064C261.46 358.064 227.29 381.307 220.486 380.115Z" fill="#B6B7D3"/>
<path d="M236.973 358.46C234.242 359.95 234.639 366.357 230.566 369.436C226.494 372.515 221.875 373.707 220.732 376.489C219.59 379.319 220.186 381.207 222.123 382.349C224.06 383.491 235.781 380.71 241.642 375.297C247.552 369.933 261.905 364.172 263.544 360.397C264.488 358.112 259.074 350.464 256.79 350.365C254.555 350.265 250.78 358.013 247.9 360C245.069 361.986 239.357 357.169 236.973 358.46Z" fill="#7D8FB1"/>
<path d="M171.809 345.347C171.809 345.347 176.279 361.289 172.653 363.673C169.028 366.057 157.952 372.116 153.135 374.5C148.317 376.884 144.692 379.318 146.48 380.51C148.268 381.702 162.77 380.51 167.637 378.722C172.455 376.934 188.149 376.338 188.795 373.904C189.391 371.52 188.149 348.674 188.149 348.674L171.809 345.347Z" fill="#D8B695"/>
<path d="M170.964 168.532C170.964 168.532 155.121 223.164 158.448 274.865C161.677 324.978 168.878 358.253 168.878 358.253L192.668 357.856C192.668 357.856 189.738 270.693 200.167 224.852C200.167 224.852 201.012 290.758 234.784 354.131L254.402 345.787C254.402 345.787 235.629 277.001 239.801 231.11C243.227 193.663 233.543 168.582 233.543 168.582H170.964V168.532Z" fill="#53688C"/>
<path d="M159.392 88.322C159.392 88.322 147.919 134.312 144.641 140.967C141.363 147.622 121.596 175.534 121.596 175.534L127.06 184.822C127.06 184.822 155.021 154.824 158.101 148.367C165.004 133.964 175.633 102.079 175.633 102.079L159.392 88.322Z" fill="#FFBE8C"/>
<path d="M207.964 35.3864L209.504 69.705L223.758 73.5293C223.758 73.5293 210.497 92.0047 198.627 95.829C186.757 99.6532 184.224 73.2313 184.224 73.2313L192.022 71.344V51.0309L207.964 35.3864Z" fill="#FFB176"/>
<g opacity="0.24">
<path d="M208.811 54.3043L207.966 39.1564L192.024 54.7016V62.2507C196.345 62.946 204.837 61.9031 208.811 54.3043Z" fill="#994F49"/>
</g>
<path d="M212.034 37.3722C212.531 36.1306 213.425 34.9883 214.617 34.1937C215.461 33.5977 216.653 33.2004 217.646 33.5977C218.937 34.144 219.235 35.634 219.086 36.8259C218.838 39.5078 217.547 42.0408 215.461 43.9777C215.113 44.2757 214.716 44.6234 214.17 44.6234C213.276 44.673 212.68 43.8287 212.332 43.1334C212.034 42.3884 211.736 41.5441 210.991 41.1468L212.034 37.3722Z" fill="#FFBE8C"/>
<path d="M216.853 35.8826C216.704 36.5779 216.357 37.1739 215.86 37.7202C215.364 38.2665 214.768 38.6638 214.072 38.9121L214.122 38.3162C214.768 38.6638 215.264 39.2598 215.513 39.9551C215.761 40.6008 215.811 41.3954 215.513 41.9914C215.513 41.2961 215.364 40.7001 215.066 40.1538C214.768 39.6075 214.321 39.1605 213.824 38.9121L213.178 38.5645L213.874 38.3162C214.47 38.1175 215.016 37.7698 215.513 37.3725C216.009 36.9255 216.456 36.4289 216.853 35.8826Z" fill="#AD6C58"/>
<path d="M200.913 8.42007C214.869 9.95969 216.011 23.9653 215.068 28.6835C214.472 31.6137 213.826 33.65 212.833 38.6166C211.889 43.3844 206.972 59.9726 194.407 58.9793C181.544 57.9363 181.991 39.6595 181.891 34.1963C181.792 30.2728 182.189 28.1372 182.984 23.717C184.375 15.7209 188.447 7.02944 200.913 8.42007Z" fill="#FFBE8C"/>
<path d="M183.68 34.3391C183.531 32.9981 182.935 31.7068 181.991 30.6142C181.296 29.8195 180.303 29.1242 179.21 29.2732C177.819 29.4222 177.174 30.8128 176.975 32.0048C176.528 34.637 177.074 37.468 178.564 39.8519C178.813 40.2492 179.111 40.6465 179.607 40.8452C180.452 41.0935 181.246 40.4975 181.743 39.8519C182.24 39.2062 182.687 38.4613 183.531 38.3123L183.68 34.3391Z" fill="#FFBE8C"/>
<path d="M179.358 31.6125C179.606 32.2582 179.904 32.8542 180.252 33.4005C180.649 33.9468 181.096 34.3938 181.593 34.7415L182.189 35.1884L181.444 35.3374C180.848 35.4368 180.351 35.7844 179.904 36.2314C179.457 36.6784 179.159 37.2247 179.01 37.8704C178.911 37.1751 179.109 36.4797 179.556 35.8838C179.954 35.2878 180.599 34.8408 181.344 34.6918L181.245 35.2878C180.649 34.8905 180.152 34.2945 179.854 33.6985C179.556 33.0032 179.358 32.3079 179.358 31.6125Z" fill="#AD6C58"/>
<path d="M195.401 35.2834C195.649 37.9157 190.831 38.8097 191.03 41.4916C191.129 42.9319 193.017 43.7762 194.308 43.2299C195.649 42.6836 196.394 41.144 196.443 39.7037C196.493 38.2634 195.996 36.8727 195.549 35.4821L195.401 35.2834Z" fill="#FF9971"/>
<path d="M204.585 32.0983C202.847 31.7506 201.208 33.1909 200.711 34.9292L204.585 32.0983Z" fill="white"/>
<path d="M200.516 26.193C200.665 26.342 200.864 26.4413 201.112 26.4413C201.261 26.3916 205.085 25.8453 207.072 29.5206C207.221 29.8185 207.618 29.9675 207.966 29.7689C208.264 29.6199 208.413 29.2226 208.214 28.8749C205.83 24.3554 200.963 25.1003 200.913 25.15C200.566 25.1997 200.318 25.5473 200.367 25.895C200.417 25.9943 200.466 26.1433 200.516 26.193Z" fill="#774B42"/>
<path d="M192.022 25.8945C192.122 25.8449 192.221 25.7455 192.271 25.6462C192.42 25.3482 192.271 24.9509 191.973 24.8019C190.681 24.1563 188.049 23.5106 185.019 26.2422L184.92 26.2919C184.622 26.4905 184.572 26.8879 184.771 27.1858C184.97 27.4838 185.367 27.5335 185.665 27.3845C185.715 27.3845 185.764 27.3348 185.864 27.2355C187.751 25.5966 189.638 25.1496 191.377 25.9939C191.625 26.0435 191.873 26.0435 192.022 25.8945Z" fill="#774B42"/>
<path d="M200.117 34.1917C200.117 34.1917 199.919 36.3273 203.296 36.4763C206.673 36.6253 208.114 34.44 208.114 34.44C208.114 34.44 206.822 32.3044 204.091 32.2547C201.309 32.1554 200.117 34.1917 200.117 34.1917Z" fill="white"/>
<path d="M191.925 33.1519C191.925 33.1519 191.279 34.9398 187.952 34.4432C184.674 33.9465 184.475 31.2646 184.475 31.2646C184.475 31.2646 185.965 29.6753 188.647 30.3209C191.279 30.9169 191.925 33.1519 191.925 33.1519Z" fill="white"/>
<path d="M200.069 33.9402C200.069 33.9402 200.118 36.1255 202.204 36.3739C204.538 36.6718 204.737 32.4006 204.737 32.4006C204.737 32.4006 202.105 31.6556 200.069 33.9402Z" fill="#994F49"/>
<path d="M184.474 31.1681C184.474 31.1681 184.772 33.8003 186.56 34.0983C188.894 34.4956 189.093 30.3734 189.093 30.3734C189.093 30.3734 186.461 29.2808 184.474 31.1681Z" fill="#994F49"/>
<path d="M200.168 34.1015C200.367 34.1015 200.516 34.0519 200.615 33.8532C200.665 33.8035 201.509 32.2142 203.993 32.4129C206.625 32.6116 207.718 34.1512 207.767 34.2505C207.916 34.4492 208.164 34.4988 208.363 34.3498C208.562 34.2008 208.611 33.9525 208.462 33.7539C208.413 33.6545 207.122 31.8169 204.042 31.5686C200.963 31.3203 199.87 33.3565 199.821 33.4559C199.721 33.6545 199.771 33.9029 200.019 34.0518C200.069 34.1015 200.119 34.1015 200.168 34.1015Z" fill="#272C3A"/>
<path d="M191.873 33.0995C191.923 33.0995 192.022 33.0995 192.072 33.0995C192.271 33.0001 192.42 32.7518 192.32 32.5532C192.271 32.4538 191.476 30.2686 188.794 29.6726C185.715 28.9773 184.324 30.6659 184.225 30.7155C184.076 30.9142 184.076 31.1625 184.275 31.3115C184.473 31.4605 184.721 31.4605 184.87 31.2619C184.92 31.2122 186.062 29.9706 188.595 30.5169C190.781 31.0135 191.476 32.7518 191.526 32.8511C191.575 32.9505 191.724 33.0498 191.873 33.0995Z" fill="#272C3A"/>
<path d="M126.81 193.963C126.562 195.105 125.618 196.645 124.625 196.049C124.376 195.9 124.227 195.701 124.078 195.453C122.787 193.267 122.886 190.337 124.327 188.301C119.161 190.735 114.841 194.807 112.109 199.774C111.563 200.767 110.619 202.207 109.626 201.661C107.49 200.519 111.612 191.827 115.437 188.798C110.669 190.586 107.788 200.221 106.447 200.121C104.709 200.022 105.255 196.943 105.752 195.304C106.944 191.48 109.328 188.798 112.258 185.122C108.533 187.606 104.56 195.701 103.467 195.254C100.636 194.062 103.864 189.096 105.603 186.563C107.689 183.434 110.47 180.801 113.748 178.964C118.814 176.083 125.221 174.693 128.3 169.776C128.648 169.18 129.095 168.534 129.74 168.484C130.286 168.484 130.734 168.931 131.131 169.329C139.375 179.014 129.144 183.881 126.81 193.963Z" fill="#FFBE8C"/>
<path d="M168.877 77.6527C155.12 86.3938 145.534 115.895 145.534 115.895L172.255 124.338C172.255 124.338 176.476 104.621 175.085 94.7872C173.695 84.9038 168.877 77.6527 168.877 77.6527Z" fill="#74AAB7"/>
<path d="M199.275 86.3356C199.176 86.3356 199.077 86.3356 198.977 86.3356C189.491 86.1866 183.233 73.5219 182.985 72.9756L185.866 72.5286C185.915 72.6279 191.23 83.4053 198.977 83.5046C209.606 83.7033 214.374 70.989 214.423 70.8896L217.105 71.287C216.956 71.8829 211.692 86.3356 199.275 86.3356Z" fill="#D4F0FF"/>
<path d="M146.11 114.415L145.074 117.05L166.987 125.659L168.022 123.024L146.11 114.415Z" fill="#D4F0FF"/>
<path d="M144.742 377.025C144.742 377.025 144.195 381.346 147.871 383.829C151.049 386.014 158.996 388.249 167.787 385.766C176.577 383.283 188.447 386.064 192.818 382.389C195.798 379.906 191.179 374.343 191.179 374.343C191.179 374.343 150.404 380.998 144.742 377.025Z" fill="#B6B7D3"/>
<path d="M168.88 364.408C165.8 364.606 163.416 370.566 158.45 371.609C153.483 372.652 148.765 371.758 146.53 373.844C144.345 375.93 144.047 377.867 145.338 379.754C146.629 381.642 158.4 384.026 165.999 381.691C173.647 379.307 189.093 380.201 192.173 377.47C194.01 375.831 192.322 366.593 190.335 365.55C188.348 364.507 181.644 369.921 178.217 370.517C174.69 371.063 171.561 364.259 168.88 364.408Z" fill="#7D8FB1"/>
<path d="M188.348 18.9911C183.133 17.6999 178.464 12.8327 179.11 7.4688C179.209 6.62449 179.706 5.53186 180.55 5.63119C181.941 5.78018 181.99 8.56144 183.331 8.31312C182.735 6.82316 182.586 4.48889 184.176 4.1909C184.523 4.14123 184.921 4.24056 185.268 4.29023C187.801 4.93587 190.334 5.53186 192.817 6.17751C191.874 5.73052 190.88 5.1842 190.334 4.29023C189.838 3.34659 190.136 1.90629 191.129 1.65796C191.526 1.55863 191.923 1.65797 192.321 1.7573C195.45 2.50228 198.579 3.24726 201.757 3.99223C204.539 4.63788 207.419 5.3332 209.803 6.92249C212.187 8.51177 214.074 11.1937 213.876 14.0743C215.266 13.0313 217.352 13.4783 218.594 14.7199C219.836 15.9119 220.332 17.6998 220.531 19.3885C221.325 25.7456 218.346 32.4008 213.131 36.1257C212.882 36.3243 212.535 36.523 212.237 36.523C211.442 36.523 211.144 35.48 211.094 34.6854C210.896 32.1524 211.194 28.1792 211.541 26.9376C212.187 24.653 213.876 21.9711 212.187 21.0771C210.349 20.1334 209.257 21.9214 207.369 21.2757C203.992 20.1334 204.936 18.1965 201.41 17.8488C197.089 17.5012 193.115 20.1831 188.348 18.9911Z" fill="#774B42"/>
<path d="M167.736 126.067C167.389 126.067 167.14 125.818 167.091 125.471L166.346 97.9562C166.346 97.6085 166.594 97.3105 166.942 97.3105C167.289 97.3105 167.587 97.5589 167.587 97.9065L168.332 125.421C168.382 125.769 168.134 126.067 167.736 126.067C167.786 126.067 167.786 126.067 167.736 126.067Z" fill="#49516B"/>
<path d="M167.338 114.206C167.14 114.206 166.892 114.106 166.792 113.908L160.534 102.634C160.385 102.336 160.485 101.938 160.783 101.789C161.081 101.64 161.478 101.74 161.627 102.038L167.885 113.312C168.034 113.61 167.934 114.007 167.636 114.156C167.537 114.206 167.438 114.206 167.338 114.206Z" fill="#49516B"/>
<path d="M221.127 71.6828L255.843 70.1432C255.843 70.1432 259.618 90.8039 257.085 102.028L227.037 100.787L221.127 71.6828Z" fill="#74AAB7"/>
<path d="M257.219 70.0498L254.39 70.1608L255.642 102.07L258.47 101.959L257.219 70.0498Z" fill="#D4F0FF"/>
<path d="M238.609 101.932C238.262 101.932 238.013 101.634 237.964 101.336L237.666 81.4201C237.666 81.0724 237.914 80.7744 238.261 80.7744C238.609 80.7744 238.907 81.0227 238.907 81.3704L239.205 101.286C239.205 101.634 238.957 101.932 238.609 101.932Z" fill="#49516B"/>
<path d="M258.127 31.5091C258.127 31.5091 253.31 24.9533 248.939 23.2151C244.569 21.4768 240.794 18.5465 241.589 17.1062C242.383 15.7156 250.479 19.2915 250.479 19.2915C250.479 19.2915 247.35 13.9773 243.277 11.792C239.205 9.60677 237.963 8.51413 238.41 7.42149C238.857 6.32886 243.277 7.1235 246.059 9.30877C248.89 11.494 251.224 13.6297 251.224 13.6297C251.224 13.6297 248.691 9.60676 246.059 7.2725C243.575 5.08722 240.893 4.14358 241.688 2.90195C242.483 1.66032 246.059 3.05095 249.039 5.58388C252.019 8.06714 254.601 10.8981 254.601 10.8981C254.601 10.8981 253.658 7.62015 251.522 5.73287C248.84 3.39861 246.655 2.30597 247.3 0.865675C247.946 -0.524952 253.062 2.2563 255.098 5.08722C257.134 7.91814 258.922 9.85509 258.922 9.85509C258.922 9.85509 256.687 5.73287 254.502 3.5476C252.615 1.66032 252.168 0.418689 254.055 0.567685C255.942 0.71668 258.276 2.75296 260.313 6.32886C262.349 9.90475 265.875 16.3612 266.968 19.4405C268.061 22.5694 270.395 29.4729 270.395 29.4729L258.127 31.5091Z" fill="#FFBE8C"/>
<path d="M259.716 22.914C259.616 22.914 259.517 22.8644 259.467 22.8147C257.431 20.3314 254.054 19.0401 250.825 19.5368C250.676 19.5864 250.478 19.4375 250.478 19.2885C250.428 19.1395 250.577 18.9408 250.726 18.9408C254.153 18.4441 257.729 19.7851 259.914 22.467C260.014 22.616 260.013 22.8147 259.865 22.914C259.865 22.914 259.815 22.914 259.716 22.914Z" fill="#D16D54"/>
<path d="M249.437 16.5122C249.387 16.5122 249.338 16.5122 249.288 16.4625C249.139 16.3632 249.089 16.2142 249.139 16.0652C251.126 12.0423 255.347 9.11203 259.817 8.66504C259.966 8.66504 260.165 8.76437 260.165 8.96303C260.165 9.11202 260.065 9.31069 259.867 9.31069C255.595 9.75768 251.573 12.4893 249.685 16.3632C249.636 16.4625 249.536 16.5122 249.437 16.5122Z" fill="#D16D54"/>
<path d="M189.339 46.459C189.339 46.459 195.994 49.2899 201.209 46.0616C201.209 46.0616 200.563 52.6671 195.646 52.8658C190.183 53.0644 189.339 46.459 189.339 46.459Z" fill="#994F49"/>
<path d="M190.73 46.9043C190.78 47.3016 190.83 47.7486 190.879 48.1459C192.022 48.7915 193.213 48.7915 194.505 48.8909C194.952 48.9405 195.448 48.9902 195.895 48.9902C197.236 48.9902 198.478 48.4936 199.769 48.0466C199.769 47.6492 199.769 47.2519 199.72 46.8049C196.293 48.1459 192.618 47.4506 190.73 46.9043Z" fill="white"/>
<path d="M198.975 51.3722C198.627 50.9749 198.18 50.6769 197.683 50.4782C196.491 49.9319 195.15 49.6339 193.859 49.8822C192.965 50.0312 192.071 50.4782 191.376 51.0742C192.319 52.1172 193.66 52.9118 195.647 52.8621C197.087 52.7628 198.18 52.1668 198.975 51.3722Z" fill="#FD4E4C"/>
<path d="M193.068 38.4108C192.571 38.6591 192.174 39.0564 191.876 39.4538C191.578 39.9008 191.429 40.3477 191.429 40.8444C191.429 41.341 191.578 41.788 191.826 42.235C192.124 42.682 192.472 43.0297 193.018 43.278C192.422 43.278 191.826 42.98 191.429 42.533C190.982 42.086 190.733 41.4404 190.733 40.7947C190.733 40.1491 191.031 39.5034 191.429 39.1061C191.876 38.6591 192.472 38.3611 193.068 38.4108Z" fill="#D87B56"/>
<path d="M105.455 194.556C105.406 194.556 105.356 194.556 105.306 194.507C105.157 194.457 105.108 194.258 105.157 194.109C107.243 189.739 110.67 185.865 114.743 183.282C114.892 183.183 115.09 183.233 115.19 183.382C115.289 183.531 115.239 183.729 115.09 183.829C111.067 186.362 107.74 190.136 105.704 194.407C105.704 194.507 105.604 194.556 105.455 194.556Z" fill="#D16D54"/>
<path d="M110.174 195.359C110.124 195.359 110.074 195.359 110.074 195.309C109.925 195.26 109.826 195.061 109.925 194.912C110.919 192.628 112.657 190.84 114.644 188.952C116.332 187.313 118.17 185.724 120.455 185.525C120.653 185.525 120.802 185.625 120.802 185.823C120.802 185.972 120.703 186.171 120.504 186.171C118.418 186.37 116.779 187.81 115.091 189.449C113.154 191.336 111.465 193.025 110.521 195.21C110.372 195.309 110.273 195.359 110.174 195.359Z" fill="#D16D54"/>
<path d="M198.926 85.7353C211.59 84.1957 214.868 71.1833 214.868 71.1833L232.996 71.3323C232.996 71.3323 239.254 85.7353 238.956 94.4764C238.062 119.706 241.042 175.033 241.539 189.188C241.539 189.188 218.991 192.516 202.154 192.118C185.119 191.721 162.272 187.102 162.272 187.102C162.272 187.102 167.487 155.068 168.183 125.914C168.63 106.148 161.527 85.7849 166.693 79.4774C171.659 73.3686 185.069 72.7726 185.069 72.7726C185.069 72.7726 194.456 86.2816 198.926 85.7353Z" fill="#74AAB7"/>
<path d="M55.1409 380.942C55.1409 380.942 51.3663 389.683 59.5115 390.329C67.6566 390.974 70.7856 382.829 73.9145 379.7C77.0434 376.571 78.0367 372.896 76.2984 369.718C74.5601 366.539 66.415 369.072 66.415 369.072L55.1409 380.942Z" fill="black"/>
<path d="M67.4111 136.687L41.7837 180.244L48.3396 184.316C48.3396 184.316 73.0233 156.404 77.2449 142.796C81.4665 129.188 67.4111 136.687 67.4111 136.687Z" fill="#FFCCA9"/>
<path d="M127.354 158.785L96.0151 159.53C95.1211 131.867 82.655 88.36 82.655 88.36C82.655 88.36 102.174 82.3008 102.968 80.5129C104.508 76.9866 103.763 61.7891 103.763 61.7891L117.669 68.4939C117.669 68.4939 116.577 81.0592 118.514 81.9532C123.679 84.2874 132.122 86.572 132.122 86.572C134.705 95.5614 138.976 104.054 140.615 113.193C140.863 114.484 141.062 115.825 140.813 117.116C140.466 118.755 139.373 120.195 138.38 121.636C131.774 131.171 128.447 147.561 127.354 158.785Z" fill="#FFCCA9"/>
<g opacity="0.49">
<mask id="mask0_1_27887" style="mask-type:luminance" maskUnits="userSpaceOnUse" x="105" y="66" width="16" height="12">
<path d="M120.649 77.2317C120.649 77.2317 112.107 78.6223 106.246 72.8115L105.799 66.7026L120.401 70.8249L120.649 77.2317Z" fill="white"/>
</mask>
<g mask="url(#mask0_1_27887)">
<path d="M109.375 79.0774L106.942 77.0908L107.29 79.3754L109.375 79.0774Z" fill="#C77D4F"/>
</g>
<mask id="mask1_1_27887" style="mask-type:luminance" maskUnits="userSpaceOnUse" x="105" y="66" width="16" height="12">
<path d="M120.649 77.2317C120.649 77.2317 112.107 78.6223 106.246 72.8115L105.799 66.7026L120.401 70.8249L120.649 77.2317Z" fill="white"/>
</mask>
<g mask="url(#mask1_1_27887)">
<path d="M113.697 65.4614L120.352 70.8252L119.359 64.5674L113.697 65.4614Z" fill="#DE8B58"/>
</g>
</g>
<g opacity="0.24">
<path d="M116.429 74.6056C116.678 74.6056 117.075 74.5063 117.323 74.5063C117.423 72.3707 117.621 68.5961 117.621 68.5961L103.665 61.7423C103.665 61.7423 103.864 64.4739 103.914 67.9008C106.943 72.0727 111.413 75.0526 116.429 74.6056Z" fill="#994F49"/>
</g>
<path d="M33.6857 194.844C33.1394 195.539 31.9971 196.284 31.5005 195.539C31.4011 195.39 31.3514 195.142 31.3514 194.943C31.2024 193.056 32.2454 191.119 33.8844 190.225C29.6131 190.176 24.448 190.374 21.021 192.857C20.3257 193.354 19.233 194 18.7364 193.304C17.6437 191.815 23.3553 188.437 27.7755 187.643C24.001 187.295 18.8357 192.162 17.9417 191.715C16.7994 191.07 18.1901 189.182 19.0344 188.239C21.0707 186.053 23.4546 185.606 26.6332 184.116C23.3056 184.563 18.3888 189.53 17.7928 188.884C16.2531 187.146 19.8787 184.116 21.8653 182.974C24.2989 181.534 27.0305 180.689 29.8615 180.54C34.232 180.242 38.9503 181.434 42.6752 179.1C43.1222 178.852 43.6188 178.504 44.0658 178.703C44.4631 178.852 49.6284 177.561 49.7277 177.958C52.062 187.096 38.6026 188.785 33.6857 194.844Z" fill="#FFCCA9"/>
<path d="M147.918 133.464L171.856 173.345L164.357 178.013C164.357 178.013 142.305 153.181 138.084 139.572C133.862 125.964 147.918 133.464 147.918 133.464Z" fill="#FFCCA9"/>
<path d="M198.602 85.5756C211.266 84.036 214.544 71.0237 214.544 71.0237L232.672 71.1727C232.672 71.1727 238.93 85.5756 238.632 94.3167C237.738 119.547 240.718 174.874 241.215 189.028C241.215 189.028 218.667 192.356 201.83 191.959C184.795 191.561 161.948 186.942 161.948 186.942C161.948 186.942 167.163 154.908 167.859 125.755C168.306 105.988 161.204 85.6253 166.369 79.3178C171.335 73.209 184.745 72.613 184.745 72.613C184.745 72.613 194.132 86.1219 198.602 85.5756Z" fill="#74AAB7"/>
<path d="M95.3712 83.9897C95.3712 83.9897 101.629 97.8463 113.201 96.6543C124.773 95.4624 122.886 83.493 122.886 83.493L132.074 86.5226C132.074 86.5226 137.637 95.4624 140.17 102.515C142.752 109.567 142.305 111.306 136.594 121.04C132.173 128.539 127.306 158.786 127.306 158.786L95.9672 159.531L82.6072 88.3602L95.3712 83.9897Z" fill="#116EB6"/>
<path d="M82.7068 88.3646C82.7068 88.3646 77.79 89.8546 72.4261 114.538C68.6018 132.169 61.5493 145.43 61.5493 145.43C61.5493 145.43 67.0622 151.936 74.661 151.986C74.661 151.986 94.4279 117.071 94.7756 102.917C95.1232 88.7123 82.7068 88.3646 82.7068 88.3646Z" fill="#116EB6"/>
<path d="M132.075 86.5807C132.075 86.5807 138.582 88.915 144.045 114.542C147.819 132.223 154.922 145.434 154.922 145.434C154.922 145.434 149.409 151.94 141.81 151.99C141.81 151.99 122.043 117.075 121.695 102.921C121.348 88.7163 132.075 86.5807 132.075 86.5807Z" fill="#116EB6"/>
<path d="M88.5166 122.734C91.6952 116.179 92.5395 108.481 90.8509 101.378L88.5166 122.734Z" fill="#115D98"/>
<path d="M132.273 134.707C132.223 134.707 132.223 134.707 132.173 134.707C131.925 134.658 131.776 134.409 131.826 134.161L134.061 124.476C137.488 116.133 136.097 108.335 129.74 99.9913C129.591 99.7926 129.64 99.4947 129.839 99.3457C130.038 99.1967 130.336 99.2463 130.485 99.445C137.041 108.087 138.481 116.182 134.955 124.824L132.769 134.36C132.72 134.558 132.521 134.707 132.273 134.707Z" fill="#12507F"/>
<path d="M19.6321 191.471C19.5327 191.471 19.4831 191.421 19.4334 191.372C19.3341 191.272 19.3341 191.074 19.4334 190.925C21.6683 188.69 24.8966 187.398 29.2672 187.001C29.4162 187.001 29.6148 187.1 29.6148 187.299C29.6148 187.448 29.5155 187.647 29.3168 187.647C25.0953 188.044 22.016 189.286 19.8804 191.421C19.7811 191.471 19.6817 191.471 19.6321 191.471Z" fill="#D16D54"/>
<path d="M18.6876 188.697C18.5882 188.697 18.5386 188.647 18.4392 188.598C18.3399 188.449 18.3399 188.25 18.4392 188.151C20.7735 185.965 25.4421 184.177 28.3724 183.83C28.5214 183.83 28.72 183.929 28.72 184.128C28.72 184.277 28.6207 184.475 28.422 184.475C25.5414 184.823 20.9722 186.561 18.8366 188.598C18.8366 188.647 18.7372 188.697 18.6876 188.697Z" fill="#D16D54"/>
<path d="M141.261 366.778C141.261 366.778 153.578 371.149 156.011 374.923C157.601 377.357 156.955 382.125 155.068 382.721C150.052 384.41 144.141 382.423 136.791 380.436C132.321 379.244 128.199 377.953 126.609 378.003C126.411 378.003 120.749 377.258 120.65 377.059C120.203 375.867 119.557 368.964 120.948 367.672C122.636 366.182 141.261 366.778 141.261 366.778Z" fill="black"/>
<path d="M138.681 297C138.681 297 129.741 359.727 132.821 361.763C135.9 363.849 142.952 367.574 147.075 369.66C151.197 371.746 155.269 375.819 153.978 377.159C151.346 379.841 143.946 378.053 138.532 375.173C134.609 373.087 120.95 373.087 120.454 371.051C119.957 368.965 122.093 294.119 122.093 294.119L138.681 297Z" fill="#FFCCA9"/>
<path d="M95.273 300.879C95.273 300.879 76.2511 367.132 76.2511 369.715C76.2511 372.297 74.1651 375.426 71.5825 378.009C68.9999 380.591 65.126 384.068 62.593 385.359C57.4775 387.892 56.1365 383.025 55.0935 380.989C54.0506 378.903 63.8347 369.764 66.9139 365.096C69.9932 360.427 76.3504 302.617 76.3504 302.617L95.273 300.879Z" fill="#FFCCA9"/>
<path d="M125.322 365.098C122.293 365.098 120.356 363.906 120.207 363.807C119.76 363.509 119.66 362.963 119.909 362.516C120.207 362.069 120.753 361.969 121.2 362.218C121.399 362.317 126.117 365.148 132.524 360.678C132.971 360.38 133.517 360.479 133.815 360.926C134.113 361.373 134.014 361.92 133.567 362.218C130.438 364.453 127.607 365.098 125.322 365.098Z" fill="black"/>
<path d="M120.403 372.102C120.105 370.861 120.403 362.12 120.403 362.12C120.403 362.12 124.476 363.659 125.718 367.136C126.959 370.563 127.257 373.99 127.257 373.99L120.403 372.102Z" fill="black"/>
<path d="M138.531 378.955C138.531 378.955 140.617 366.042 143.994 367.185C147.769 368.426 156.51 375.33 156.659 377.714C156.858 380.843 138.531 378.955 138.531 378.955Z" fill="black"/>
<path d="M136.496 355.36C130.536 358.241 123.583 359.036 117.474 356.602C116.133 334.253 115.785 311.903 115.438 289.504C115.289 281.558 115.189 273.611 115.04 265.665C114.742 246.941 113.004 230.75 112.706 212.026C108.484 263.132 99.1969 309.271 84.5456 358.39C78.3374 358.986 71.7319 357.496 66.5667 353.97C70.2419 326.753 72.6258 303.212 76.3011 275.995C77.1951 269.241 78.1387 262.437 78.2381 255.583C78.3871 247.487 77.2944 239.442 77.0957 231.346C76.0527 197.127 80.771 170.854 95.0747 152.13C105.157 159.431 117.077 158.835 128.351 153.372C144.343 182.724 146.578 219.824 143.797 253.149C141.065 286.524 137.042 321.936 136.496 355.36Z" fill="#1B1A2E"/>
<path d="M108.882 236.116H108.832C108.534 236.067 108.286 235.818 108.335 235.52L108.385 234.875C110.272 217.939 113.65 197.675 119.312 197.328C119.61 197.328 119.858 197.526 119.908 197.824C119.908 198.122 119.709 198.371 119.411 198.42C115.736 198.619 112.011 212.277 109.527 234.974L109.478 235.62C109.428 235.918 109.18 236.116 108.882 236.116Z" fill="#49516B"/>
<path d="M112.655 158.282C102.076 158.282 94.5762 152.968 94.4769 152.869C94.1789 152.67 94.1293 152.273 94.328 151.975C94.5266 151.677 94.9239 151.627 95.2219 151.826C95.3709 151.925 110.519 162.653 128.051 152.819C128.349 152.67 128.746 152.77 128.895 153.068C129.044 153.366 128.945 153.763 128.647 153.912C122.985 157.19 117.472 158.282 112.655 158.282Z" fill="#49516B"/>
<path d="M58.2719 373.445C58.2719 373.445 61.4008 370.962 65.7714 372.799C70.142 374.687 71.6319 377.965 71.6319 377.965C71.6319 377.965 64.2318 389.288 58.2719 386.557C50.1268 382.832 58.2719 373.445 58.2719 373.445Z" fill="black"/>
<path d="M75.8028 375.033C75.7531 375.033 75.7531 375.033 75.7035 375.033C75.2068 374.983 74.8095 374.536 74.8591 373.99C75.2068 370.762 74.6108 368.328 73.1208 366.838C70.8859 364.603 67.2106 365.001 67.161 365.001C66.6643 365.05 66.1677 364.703 66.118 364.206C66.0683 363.709 66.416 363.213 66.9126 363.163C67.1113 363.163 71.4819 362.617 74.4122 365.497C76.3491 367.434 77.1438 370.364 76.6968 374.189C76.6471 374.685 76.2498 375.033 75.8028 375.033Z" fill="black"/>
<path d="M89.1146 123.476C88.8663 123.476 88.6676 123.327 88.6676 123.079L86.3333 105.1C86.2837 104.852 86.4823 104.603 86.7306 104.554C86.979 104.504 87.2273 104.703 87.2769 104.951L89.6113 122.93C89.6609 123.178 89.4622 123.427 89.2139 123.476C89.1642 123.476 89.1643 123.476 89.1146 123.476Z" fill="#12507F"/>
<path d="M130.311 66.2139C130.311 66.2139 134.62 69.3621 133.176 72.7944C133.176 72.7944 133.105 71.8239 132.679 71.4452C132.679 71.4452 133.01 73.6465 131.282 74.6407C131.282 74.6407 132.016 72.1316 129.791 70.8771C129.791 70.8771 129.01 72.4157 127.329 72.0133C127.329 72.0133 127.637 72.534 128.655 72.605C128.655 72.605 126.761 73.6465 124.678 72.392C124.678 72.392 122.524 74.0253 119.376 72.5814H98.4032C96.7226 67.3975 90.2368 41.9752 107.469 33.9745C107.469 33.9745 132.394 41.8568 131.424 52.698C130.477 63.5628 130.311 66.2139 130.311 66.2139Z" fill="#1B1A2E"/>
<path d="M112.772 74.7182C105.6 74.7182 99.8005 68.9189 99.8005 61.7466V45.8873C99.8005 38.7151 105.6 32.9158 112.772 32.9158C119.944 32.9158 125.744 38.7151 125.744 45.8873V61.7466C125.744 68.8952 119.944 74.7182 112.772 74.7182Z" fill="#FFCCA9"/>
<path d="M108.085 35.5619C108.085 35.5619 111.399 34.3547 116.298 38.3314C121.175 42.3317 124.559 49.3382 129.956 52.2734C129.956 52.2734 131.59 64.7952 125.861 68.3221C125.861 68.3221 130.335 69.1506 131.519 63.1856C131.519 63.1856 138.075 57.4573 126.737 37.2662C124.773 32.6504 111.043 22.188 96.7462 33.1238C96.7462 33.1238 89.7397 36.9111 87.704 50.1667C87.704 50.1667 81.6443 68.3458 96.2728 72.1568C96.2728 72.1568 100.51 76.3465 104.061 73.3166C104.061 73.3166 101.551 72.5355 100.676 71.3993C100.676 71.3993 105.481 73.6717 108.179 71.5887C108.179 71.5887 102.404 70.6892 100.794 67.9197C100.794 67.9197 103.398 70.5472 105.883 67.7777C105.883 67.7777 95.397 67.1149 97.0776 52.9125C97.0776 52.9125 104.581 56.4631 105.552 47.6576C106.451 39.1125 108.085 35.5619 108.085 35.5619Z" fill="#1B1A2E"/>
<path d="M131.47 63.1645C131.707 62.9988 131.92 62.7858 132.133 62.5727C132.346 62.3597 132.536 62.123 132.701 61.91C133.056 61.4365 133.364 60.9395 133.601 60.4187C133.838 59.898 134.027 59.3299 134.169 58.7618C134.287 58.1937 134.382 57.6019 134.429 57.0338C134.453 56.442 134.477 55.8503 134.429 55.2585C134.429 55.1165 134.406 54.9745 134.382 54.8088L134.335 54.359C134.287 54.075 134.24 53.7672 134.169 53.4832C133.909 52.3233 133.459 51.2108 132.962 50.1456C131.873 48.0389 130.784 45.9086 129.719 43.7546C128.677 41.6005 127.683 39.4465 126.689 37.2688L126.736 37.2451C127.352 38.263 127.92 39.3281 128.488 40.3696C129.056 41.4112 129.6 42.4763 130.145 43.5415C130.689 44.6067 131.186 45.6955 131.707 46.7607C131.968 47.3052 132.204 47.8496 132.465 48.394C132.583 48.6544 132.725 48.9384 132.843 49.1988L133.198 50.0273C133.648 51.1398 134.027 52.276 134.335 53.4359C134.642 54.5957 134.832 55.8029 134.832 57.0101C134.808 58.2173 134.524 59.4482 133.956 60.5371C133.388 61.6259 132.583 62.5727 131.518 63.1882L131.47 63.1645Z" fill="#1B1A2E"/>
<path d="M108.082 35.5657C107.514 37.625 107.135 39.708 106.78 41.8147C106.709 42.3355 106.591 42.8562 106.52 43.377L106.401 44.1581C106.354 44.4185 106.33 44.6789 106.283 44.9392C106.141 46.0044 106.07 47.0696 106.046 48.1348C106.022 48.6555 106.022 49.2 105.951 49.7444C105.88 50.2888 105.762 50.8096 105.596 51.3303C105.407 51.8511 105.147 52.3482 104.768 52.7742C104.579 52.9873 104.366 53.1766 104.129 53.3423C103.892 53.508 103.632 53.6264 103.371 53.7211C102.851 53.9104 102.283 53.9814 101.738 54.0051C101.194 54.0051 100.649 53.9578 100.105 53.8394C99.0396 53.6264 98.0218 53.295 97.0276 52.8689L97.0513 52.8216C98.0928 53.0819 99.1106 53.3423 100.176 53.4844C100.697 53.5554 101.217 53.579 101.738 53.5554C102.259 53.5317 102.756 53.437 103.229 53.2713C103.703 53.1056 104.129 52.8216 104.46 52.4665C104.815 52.1115 105.052 51.6617 105.265 51.1883C105.454 50.7149 105.596 50.1941 105.691 49.697C105.738 49.4367 105.786 49.1763 105.809 48.9159C105.833 48.6555 105.857 48.3952 105.88 48.1111L106.141 44.9156C106.165 44.6552 106.188 44.3711 106.188 44.1108L106.259 43.306C106.307 42.7615 106.354 42.2408 106.425 41.72C106.496 41.1993 106.591 40.6548 106.709 40.1341C106.804 39.6133 106.922 39.0926 107.064 38.5718C107.324 37.5303 107.632 36.5125 108.058 35.5183L108.082 35.5657Z" fill="#1B1A2E"/>
<path d="M125.74 48.9705C126.095 49.2545 126.426 49.5386 126.781 49.8226C127.113 50.1067 127.468 50.3907 127.799 50.6747C128.131 50.9588 128.486 51.2192 128.841 51.5032C129.196 51.7636 129.551 52.024 129.906 52.2844C129.48 52.1187 129.077 51.9056 128.699 51.6689C128.32 51.4322 127.941 51.1718 127.61 50.8878C127.255 50.6037 126.923 50.296 126.616 49.9883C126.308 49.6806 126.024 49.3492 125.74 48.9705Z" fill="#1F4068"/>
<path d="M108.058 35.5289C108.91 35.2922 109.834 35.2922 110.709 35.3869C111.585 35.5053 112.461 35.7183 113.29 36.0497C113.716 36.2154 114.094 36.4048 114.497 36.5941C114.686 36.6888 114.876 36.8072 115.089 36.9255L115.373 37.0912L115.657 37.2569L116.225 37.5883C116.414 37.7066 116.604 37.825 116.793 37.9433C116.888 37.9907 116.982 38.0617 117.077 38.1327L117.361 38.3221C117.55 38.4404 117.716 38.5825 117.905 38.7008C118.616 39.2216 119.326 39.766 119.988 40.3578C120.651 40.9495 121.29 41.5413 121.929 42.1567C123.208 43.3876 124.439 44.6421 125.764 45.802L125.74 45.8257C124.297 44.7842 122.995 43.577 121.716 42.3698C121.077 41.7543 120.438 41.1389 119.799 40.5471C119.16 39.9554 118.497 39.3636 117.811 38.7955C116.461 37.6593 114.899 36.7835 113.219 36.2391C112.39 35.955 111.562 35.6946 110.686 35.5763C109.834 35.4343 108.934 35.3632 108.058 35.5053V35.5289Z" fill="#1F4068"/>
<path d="M105.835 67.8053C105.03 67.7817 104.225 67.5923 103.444 67.3083C102.687 67.0242 101.929 66.6455 101.266 66.1721C100.604 65.675 100.012 65.1069 99.5148 64.4678C98.9941 63.8523 98.5443 63.1659 98.1419 62.4558C98.0472 62.2664 97.9526 62.1007 97.8579 61.9113C97.7632 61.722 97.6922 61.5326 97.6212 61.3433C97.5502 61.1539 97.4792 60.9645 97.4081 60.7752L97.3134 60.4911C97.2898 60.3964 97.2661 60.3017 97.2425 60.1834L97.0767 59.5916L96.9584 58.9999L96.9111 58.6921C96.8874 58.5975 96.8874 58.4791 96.8637 58.3844L96.7927 57.769C96.769 57.5559 96.769 57.3666 96.7453 57.1535L96.7217 56.5381C96.7217 56.1357 96.7217 55.7333 96.7453 55.3072C96.769 54.9048 96.8164 54.5024 96.84 54.1C96.8874 53.6976 96.9584 53.2952 97.0057 52.8928H97.0294C96.9347 54.5024 96.911 56.1357 97.0767 57.7216C97.2424 59.3076 97.5975 60.8935 98.2603 62.3611C98.5917 63.0949 99.0177 63.7813 99.5622 64.3968C100.083 65.0122 100.722 65.5093 101.385 65.959C102.71 66.8348 104.225 67.474 105.811 67.758L105.835 67.8053Z" fill="#1F4068"/>
<path d="M125.196 67.8046C125.93 67.8993 126.687 67.8993 127.397 67.7573C128.107 67.6153 128.794 67.3312 129.362 66.9051C129.646 66.6921 129.906 66.4317 130.143 66.1713C130.214 66.1003 130.261 66.0293 130.309 65.9583C130.356 65.8873 130.427 65.8163 130.474 65.7453C130.569 65.5796 130.664 65.4376 130.758 65.2719C131.09 64.6328 131.327 63.9226 131.516 63.1888C131.469 63.9226 131.279 64.6801 130.971 65.3665C130.664 66.053 130.19 66.6921 129.575 67.1418C129.267 67.3786 128.936 67.5679 128.581 67.7099C128.226 67.852 127.847 67.9466 127.468 67.994C126.687 68.065 125.906 68.0177 125.196 67.8046Z" fill="#1F4068"/>
<path d="M129.648 48.5359C129.932 50.2402 130.098 51.9918 130.169 53.7198C130.24 55.4714 130.192 57.1994 129.979 58.951C129.766 60.6789 129.387 62.4069 128.677 64.0165C128.322 64.8213 127.873 65.5788 127.304 66.2416C126.736 66.9043 126.026 67.4488 125.221 67.8038C125.979 67.4014 126.665 66.8333 127.186 66.1469C127.731 65.4841 128.133 64.703 128.464 63.9218C128.796 63.117 129.056 62.2885 129.245 61.4601C129.435 60.6316 129.577 59.7558 129.695 58.9036C129.908 57.1757 129.956 55.4477 129.956 53.7198C129.956 52.844 129.908 51.9918 129.861 51.116C129.79 50.2638 129.719 49.388 129.648 48.5359Z" fill="#1F4068"/>
<path d="M108.391 35.1419C108.628 34.9289 108.912 34.7632 109.196 34.6685C109.503 34.5501 109.811 34.4791 110.119 34.4555C110.758 34.3844 111.397 34.4791 112.012 34.6685C112.32 34.7632 112.604 34.8815 112.912 35.0236L113.03 35.0709L113.125 35.1182L113.338 35.2366C113.48 35.3076 113.622 35.3786 113.74 35.4733C114.001 35.6627 114.261 35.8284 114.498 36.0177C114.735 36.2308 114.971 36.4201 115.208 36.6332C114.948 36.4675 114.687 36.3018 114.427 36.1124C114.167 35.9467 113.882 35.8047 113.622 35.639L113.22 35.426L113.007 35.3313L112.912 35.2839L112.794 35.2366C112.51 35.1182 112.226 34.9999 111.941 34.9289C111.373 34.7395 110.758 34.6448 110.143 34.6685C109.835 34.6922 109.527 34.7158 109.243 34.8105C108.959 34.8579 108.651 34.9762 108.391 35.1419Z" fill="#1F4068"/>
<path d="M107.608 34.2066C107.277 33.9463 106.946 33.7096 106.59 33.4728C106.235 33.2361 105.88 33.0468 105.525 32.8337C104.791 32.455 104.034 32.1473 103.229 31.9343C102.827 31.8396 102.424 31.7449 102.022 31.7212C101.62 31.6739 101.194 31.6739 100.791 31.6975C100.696 31.6975 100.578 31.6975 100.483 31.7212L100.176 31.7449C99.9626 31.7686 99.7733 31.7922 99.5602 31.8632C99.1578 31.9343 98.7554 32.0763 98.353 32.2183C99.0868 31.8396 99.9153 31.5555 100.744 31.4845C101.596 31.3898 102.448 31.4608 103.277 31.6739C104.105 31.8869 104.886 32.2183 105.596 32.6444C106.354 33.0941 107.04 33.6149 107.608 34.2066Z" fill="#1F4068"/>
<path d="M97.6421 52.2117C98.2339 50.4838 98.8019 48.7558 99.3464 47.0279C99.9145 45.2999 100.483 43.5719 100.861 41.773C101.051 40.8735 101.216 39.974 101.429 39.0982C101.524 38.6484 101.642 38.2224 101.784 37.7726C101.903 37.3229 102.045 36.8968 102.187 36.4707C102.495 35.5949 102.85 34.7428 103.394 33.9853C103.678 33.6066 104.01 33.2752 104.436 33.0622C104.862 32.8491 105.359 32.8018 105.809 32.8965V32.9201C105.572 32.8965 105.359 32.8965 105.146 32.9438C104.933 32.9912 104.72 33.0622 104.53 33.1805C104.152 33.3936 103.844 33.7486 103.607 34.1037C103.347 34.4824 103.157 34.8848 102.968 35.2872C102.779 35.6896 102.637 36.1157 102.471 36.5418C102.163 37.3939 101.903 38.2697 101.666 39.1455C101.429 40.0213 101.169 40.8972 100.956 41.773L100.293 44.4241C100.08 45.2999 99.8435 46.1994 99.5831 47.0752C99.3227 47.951 99.015 48.8032 98.7073 49.6553C98.5416 50.0814 98.3759 50.5075 98.2102 50.9335C98.0445 51.3596 97.8551 51.7857 97.6658 52.1881L97.6421 52.2117Z" fill="#1F4068"/>
<path d="M99.4189 35.9414C98.9455 36.6042 98.5194 37.3143 98.1407 38.0244L97.8566 38.5689C97.7619 38.7582 97.6909 38.9476 97.5963 39.1133L97.3359 39.6577L97.0991 40.2258C96.4837 41.7407 95.963 43.2793 95.5842 44.8652C95.4896 45.2677 95.4185 45.6701 95.3238 46.0488C95.2765 46.2381 95.2292 46.4512 95.2055 46.6405L95.1108 47.2323C95.0398 47.6347 94.9688 48.0371 94.9214 48.4395L94.8031 49.6467L94.7321 50.2622L94.7084 50.8776L94.6374 52.1085C94.6137 52.3215 94.6137 52.5109 94.6137 52.7239V53.3393C94.6137 53.7418 94.6137 54.1678 94.6137 54.5702C94.59 54.1678 94.5664 53.7654 94.5427 53.3393L94.5191 52.7239C94.5191 52.5109 94.4954 52.3215 94.4954 52.1085L94.5191 50.8776L94.5427 50.2622L94.5901 49.6467L94.6847 48.4159C94.7321 48.0134 94.8031 47.611 94.8504 47.185L94.9451 46.5695C94.9688 46.3565 95.0161 46.1671 95.0635 45.9541C95.1581 45.5517 95.2292 45.1493 95.3238 44.7469C95.7262 43.161 96.247 41.575 96.9098 40.0838C97.5726 38.6635 98.3774 37.2196 99.4189 35.9414Z" fill="#1F4068"/>
<path d="M108.06 34.7817C107.871 34.7107 107.682 34.7343 107.492 34.8054C107.326 34.8764 107.184 35.0184 107.066 35.1604C106.829 35.4681 106.687 35.8232 106.569 36.2019C106.451 36.5807 106.356 36.9594 106.285 37.3618C106.214 37.7405 106.167 38.1429 106.072 38.5453C105.93 39.3265 105.741 40.1076 105.575 40.8887C105.409 41.6698 105.243 42.451 105.078 43.2321C104.912 44.0132 104.699 44.7944 104.462 45.5518C104.226 46.3093 103.942 47.0668 103.61 47.8006C102.947 49.2681 102.095 50.6647 101.03 51.8719L101.006 51.8482C101.93 50.5464 102.687 49.1261 103.326 47.6822C103.965 46.2383 104.486 44.7234 104.936 43.1848C105.149 42.4273 105.362 41.6462 105.504 40.8414C105.646 40.0602 105.741 39.2554 105.859 38.4743C105.977 37.6932 106.072 36.8884 106.356 36.1072C106.427 35.9179 106.498 35.7285 106.593 35.5391C106.687 35.3498 106.806 35.1841 106.948 35.0184C107.09 34.8527 107.255 34.7343 107.468 34.6633C107.658 34.5923 107.895 34.5923 108.084 34.7107L108.06 34.7817Z" fill="#1F4068"/>
<path d="M106.852 33.6019C106.923 33.3889 107.041 33.1995 107.16 33.0102C107.278 32.8208 107.444 32.6551 107.586 32.4894C107.917 32.1817 108.296 31.9213 108.698 31.732C109.124 31.5426 109.55 31.4479 110 31.4006C110.45 31.3532 110.9 31.3769 111.349 31.4242C111.799 31.4716 112.225 31.5663 112.675 31.6846C113.101 31.8266 113.527 31.9687 113.929 32.1344C114.758 32.4894 115.515 32.9155 116.249 33.4126C115.468 33.0102 114.663 32.6551 113.835 32.3474C113.006 32.0397 112.178 31.803 111.302 31.7083C110.45 31.5899 109.574 31.6609 108.769 31.945C108.012 32.2764 107.302 32.8208 106.852 33.6019Z" fill="#1F4068"/>
<path d="M117.103 33.979C117.766 34.4051 118.381 34.9021 118.973 35.4229C119.565 35.9673 120.109 36.5354 120.606 37.1509C121.103 37.7663 121.553 38.4291 121.979 39.0919C122.405 39.7546 122.831 40.4174 123.21 41.1039C123.305 41.2696 123.399 41.4589 123.494 41.6246C123.589 41.7903 123.66 41.9797 123.755 42.1454L124.015 42.6661C124.11 42.8318 124.181 43.0212 124.275 43.1869C124.465 43.5419 124.63 43.8733 124.843 44.2047C125.033 44.5361 125.246 44.8675 125.435 45.1989C125.861 45.8617 126.287 46.5008 126.784 47.1162C127.281 47.7317 127.802 48.2997 128.418 48.7968L128.394 48.8205C127.708 48.4181 127.139 47.85 126.619 47.2582C126.098 46.6665 125.625 46.0274 125.175 45.3646C124.749 44.7018 124.37 43.9917 124.039 43.2816C123.873 42.9265 123.707 42.5714 123.565 42.1927L123.328 41.6483C123.257 41.4589 123.163 41.2932 123.092 41.1039C122.76 40.3937 122.382 39.7073 121.932 39.0682C121.814 38.9025 121.695 38.7605 121.577 38.5948C121.458 38.4528 121.34 38.2871 121.222 38.145C120.985 37.8373 120.725 37.5533 120.464 37.2455C119.446 36.062 118.334 34.9495 117.127 33.9553L117.103 33.979Z" fill="#1F4068"/>
<path d="M101.004 31.9919C100.412 32.1103 99.8442 32.2997 99.3472 32.6074C99.2051 32.6784 99.0868 32.7494 98.9684 32.8441C98.8501 32.9151 98.7317 33.0098 98.6134 33.1045L98.282 33.3885C98.1636 33.4832 98.069 33.6015 97.9743 33.6962C97.1458 34.5247 96.4593 35.4952 95.8676 36.513L95.7492 36.7024L95.6545 36.8918L95.4415 37.2942L95.2285 37.6966L95.0391 38.099C94.9207 38.3594 94.7787 38.6197 94.6604 38.9038L94.3053 39.7086C94.2343 39.8506 94.1869 39.969 94.1159 40.111L93.9502 40.5134L93.6188 41.3419C93.4058 41.8863 93.1928 42.4544 92.9797 42.9988C93.0507 42.7148 93.1454 42.4307 93.2401 42.1467C93.3348 41.8626 93.4058 41.5786 93.5005 41.2945L93.7845 40.4424L93.9266 40.0163C93.9739 39.8743 94.0449 39.7323 94.0923 39.5902L94.4236 38.7618C94.542 38.4777 94.6604 38.2173 94.8024 37.9333L94.9918 37.5309L95.2048 37.1285L95.4178 36.7261L95.5125 36.5367L95.6309 36.3473C96.2226 35.3058 96.9328 34.3117 97.8323 33.5069C98.2583 33.0808 98.7791 32.7494 99.3235 32.489C99.8443 32.205 100.412 32.0393 101.004 31.9919Z" fill="#1F4068"/>
<path d="M92.1516 44.8231C91.9385 45.6516 91.6781 46.4801 91.3941 47.2849C91.11 48.0897 90.8023 48.8945 90.4473 49.6756C90.0922 50.4567 89.6898 51.2142 89.3347 51.9953C89.2401 52.1847 89.1454 52.3741 89.0507 52.5871C88.956 52.7765 88.8613 52.9658 88.7903 53.1789C88.6246 53.5813 88.4826 53.9837 88.3642 54.3861C88.1275 55.2145 87.9618 56.043 87.8435 56.8715C87.7488 57.7236 87.7251 58.5758 87.7488 59.4279C87.7725 60.2801 87.8671 61.1322 87.9855 61.9844C88.0565 62.4104 88.1039 62.8365 88.1749 63.2626C88.2459 63.6886 88.3169 64.1147 88.3169 64.5408H88.2932C88.2222 64.1147 88.1275 63.7123 88.0328 63.2862C87.9382 62.8602 87.8435 62.4578 87.7488 62.0317C87.5831 61.1796 87.4648 60.3274 87.4174 59.4516C87.3937 59.0255 87.3937 58.5758 87.4174 58.1497C87.4411 57.7236 87.4884 57.2739 87.5358 56.8478C87.6541 55.9957 87.8672 55.1435 88.1512 54.3387C88.2222 54.1257 88.2932 53.9363 88.3879 53.7233L88.5063 53.4156L88.6483 53.1315C88.8376 52.7291 89.027 52.3504 89.2164 51.9717C89.5951 51.1905 89.9028 50.4094 90.2105 49.6046C90.5183 48.7998 90.826 48.0187 91.1574 47.2139L92.1042 44.8231H92.1516Z" fill="#1F4068"/>
<path d="M97.4787 32.9109C96.816 33.5973 96.2242 34.3075 95.6561 35.0649C95.088 35.7987 94.5436 36.5798 94.0465 37.3846C93.5494 38.1658 93.0759 38.9942 92.6972 39.8464C92.3185 40.6985 91.9871 41.598 91.6557 42.4738C91.348 43.3733 91.0166 44.2491 90.7089 45.1486C90.3775 46.0244 90.0698 46.9239 89.7147 47.7997C89.3596 48.6756 89.0046 49.5514 88.6258 50.4272C88.4365 50.8533 88.2235 51.2793 88.0104 51.7054C87.7974 52.1315 87.537 52.5339 87.2766 52.9126L87.2529 52.8889C87.4896 52.4865 87.7027 52.0605 87.8921 51.6344C88.0814 51.2083 88.2708 50.7586 88.4365 50.3325L88.6968 49.6697L88.9572 49.0069L89.4543 47.6814L90.4722 45.0303C90.8035 44.1545 91.1586 43.2786 91.5373 42.4028L92.6262 39.7991C92.7209 39.586 92.8156 39.373 92.9103 39.1363L93.0523 38.8049C93.0996 38.6865 93.147 38.5918 93.1943 38.4735C93.4073 38.0474 93.6204 37.6214 93.8571 37.2189C94.3305 36.3905 94.8986 35.633 95.4904 34.8992C96.0822 34.1891 96.7213 33.5027 97.4787 32.9109Z" fill="#1F4068"/>
<path d="M95.5628 68.9181C95.042 68.6814 94.616 68.2553 94.2609 67.8055C94.0952 67.5688 93.9295 67.3321 93.7875 67.0954C93.6454 66.835 93.5271 66.5983 93.3851 66.338C93.1484 65.8172 92.959 65.2728 92.7933 64.7283C92.6276 64.1839 92.5093 63.6158 92.4619 63.0477C92.6513 63.5922 92.817 64.1129 93.0064 64.6573C93.1957 65.1781 93.4087 65.7225 93.6455 66.2196C93.8822 66.7404 94.1426 67.2374 94.4266 67.6872C94.758 68.1369 95.113 68.5867 95.5628 68.9181Z" fill="#1F4068"/>
<path d="M94.1899 64.0549C94.0479 64.2206 93.8585 64.3153 93.6218 64.339C93.3851 64.3627 93.1484 64.2916 92.9827 64.1496C92.888 64.0786 92.817 63.9839 92.746 63.9129C92.7223 63.8656 92.6986 63.8182 92.675 63.7709C92.6513 63.7235 92.6276 63.6762 92.6039 63.6289C92.5566 63.5342 92.5329 63.4395 92.5093 63.3211C92.4856 63.2265 92.4856 63.1081 92.4619 63.0134C92.5329 63.1081 92.5803 63.1791 92.6276 63.2738C92.675 63.3685 92.746 63.4395 92.7933 63.5105C92.8407 63.5815 92.9117 63.6525 92.959 63.7235C93.03 63.7946 93.0774 63.8656 93.1484 63.9129C93.2904 64.0313 93.4324 64.1023 93.6218 64.1023C93.8112 64.1496 94.0005 64.1259 94.1899 64.0549Z" fill="#1F4068"/>
<path d="M95.0869 46.5884C94.4478 47.9849 93.8797 49.4289 93.3589 50.8728C93.0986 51.5829 92.8382 52.3167 92.6252 53.0741C92.4358 53.8079 92.2938 54.5891 92.2227 55.3465C92.1517 56.104 92.1044 56.8851 92.128 57.6426C92.1517 58.4 92.2227 59.1812 92.3648 59.915C92.5068 60.6488 92.7198 61.4062 93.0276 62.0927C93.3353 62.7791 93.7377 63.4419 94.2111 64.0573L94.1874 64.081C93.643 63.5129 93.1932 62.8738 92.8382 62.1873C92.4831 61.5009 92.2464 60.7434 92.0807 59.9623C92.057 59.7729 92.0097 59.5836 91.986 59.3942L91.915 58.8024C91.8914 58.4237 91.8677 58.0213 91.8677 57.6426C91.8677 56.8614 91.9387 56.0803 92.0807 55.3228C92.2227 54.5654 92.3648 53.8079 92.5541 53.0505C92.7435 52.293 92.9092 51.5355 93.1459 50.8017C93.3826 50.068 93.6667 49.3342 93.998 48.624C94.3294 47.9139 94.6845 47.2275 95.0869 46.5647V46.5884Z" fill="#1F4068"/>
<path d="M100.65 71.4032C100.366 71.2849 100.082 71.1192 99.8218 70.9298C99.5614 70.7641 99.3011 70.5748 99.0643 70.3617C98.5673 69.9593 98.1175 69.5096 97.7151 69.0125C97.289 68.5391 96.934 68.0183 96.6026 67.4739C96.2712 66.9295 95.9871 66.3614 95.7268 65.7696C95.4664 65.1778 95.277 64.5861 95.1113 63.9706C95.0403 63.6629 94.9456 63.3552 94.8983 63.0475L94.8036 62.5741L94.7326 62.1007C94.5432 60.8461 94.4959 59.5679 94.5906 58.3134C94.6142 59.5679 94.7326 60.8224 94.9693 62.077L95.064 62.5504L95.1587 63.0001C95.2297 63.3079 95.3244 63.6156 95.3954 63.8996C95.5847 64.4914 95.7741 65.0832 96.0108 65.6749C96.4842 66.8348 97.1233 67.9236 97.9045 68.8941C98.2832 69.3912 98.7093 69.841 99.1827 70.267C99.6088 70.6931 100.106 71.0718 100.65 71.4032Z" fill="#1F4068"/>
<path d="M129.291 46.2465C128.96 45.1103 128.699 43.9741 128.439 42.8379L128.037 41.1336C127.895 40.5655 127.776 39.9974 127.634 39.4293C127.895 39.9501 128.084 40.5182 128.273 41.0863C128.463 41.6544 128.605 42.2225 128.723 42.7906C128.865 43.3587 128.984 43.9504 129.078 44.5185C129.173 45.0866 129.244 45.6784 129.291 46.2465Z" fill="#1F4068"/>
<path d="M104.769 32.3662C104.627 32.1532 104.58 31.9165 104.58 31.6561C104.58 31.3957 104.651 31.1353 104.793 30.9223C104.935 30.7093 105.124 30.5199 105.314 30.3542C105.408 30.2832 105.527 30.2122 105.621 30.1412C105.74 30.0702 105.834 30.0228 105.953 29.9518C106.402 29.7151 106.852 29.5494 107.326 29.4074C107.799 29.289 108.296 29.1943 108.77 29.1943C108.296 29.3364 107.846 29.4784 107.373 29.6441C106.923 29.8098 106.473 29.9991 106.071 30.2122C105.976 30.2595 105.858 30.3305 105.763 30.3779L105.456 30.5672C105.266 30.6856 105.101 30.8513 104.959 31.0406C104.817 31.23 104.722 31.443 104.698 31.6561C104.675 31.8928 104.698 32.1295 104.769 32.3662Z" fill="#1F4068"/>
<path d="M102.049 31.6091C101.954 31.4908 101.906 31.3251 101.883 31.1594C101.859 30.9937 101.883 30.8516 101.93 30.686C102.025 30.3782 102.238 30.0942 102.522 29.9758C102.475 30.1179 102.404 30.2362 102.356 30.3782C102.309 30.4966 102.262 30.6386 102.214 30.757C102.12 31.041 102.096 31.3014 102.049 31.6091Z" fill="#1F4068"/>
<path d="M89.4541 59.3541C89.5251 59.8749 89.6198 60.3956 89.7145 60.9401C89.8092 61.4608 89.9275 61.9816 90.0459 62.5023C90.2826 63.5202 90.5903 64.5617 90.9927 65.5322C91.1821 66.0293 91.4188 66.5027 91.7028 66.9287C91.9632 67.3785 92.2946 67.7809 92.6733 68.1359C93.0521 68.491 93.5018 68.7751 93.9989 68.8934C94.496 69.0354 95.0404 69.0354 95.5612 68.9408C95.0641 69.1064 94.496 69.1538 93.9516 69.0354C93.4071 68.9171 92.91 68.6567 92.5076 68.3016C92.0816 67.9466 91.7502 67.5205 91.4661 67.0708C91.1821 66.621 90.9454 66.1239 90.7323 65.6269C90.3299 64.6327 90.0459 63.5912 89.8328 62.5497C89.6198 61.4845 89.5014 60.4193 89.4541 59.3541Z" fill="#1F4068"/>
<path d="M127.919 67.7516C127.943 68.083 128.014 68.3907 128.108 68.6984C128.203 69.0061 128.321 69.2902 128.487 69.5506C128.511 69.6216 128.558 69.6926 128.605 69.7399C128.653 69.8109 128.7 69.8583 128.747 69.9293L128.889 70.1187C128.937 70.166 129.008 70.237 129.055 70.2843C129.15 70.4027 129.292 70.4974 129.41 70.6157C129.529 70.7104 129.671 70.8051 129.789 70.9235C129.623 70.8761 129.481 70.8051 129.339 70.7341C129.197 70.6394 129.055 70.5684 128.913 70.4737C128.629 70.2843 128.416 70.0003 128.25 69.7162C128.203 69.6452 128.156 69.5742 128.132 69.5032C128.108 69.4322 128.061 69.3375 128.037 69.2665L127.966 69.0298C127.943 68.9588 127.919 68.8641 127.919 68.7931C127.824 68.4144 127.824 68.083 127.919 67.7516Z" fill="#1F4068"/>
<path d="M123.302 70.0541L123.609 70.6695C123.704 70.8825 123.822 71.0719 123.917 71.2613C124.035 71.4506 124.154 71.64 124.272 71.8294C124.391 72.0187 124.533 72.1844 124.675 72.3738C124.462 72.2791 124.249 72.1371 124.083 71.9714C123.917 71.8057 123.775 71.6163 123.657 71.4033C123.538 71.1903 123.444 70.9772 123.373 70.7405C123.325 70.5512 123.278 70.3145 123.302 70.0541Z" fill="#1F4068"/>
<path d="M98.5699 61.1867H99.2327C100.558 61.1867 101.623 60.1215 101.623 58.796V54.5353C101.623 53.2097 100.558 52.1445 99.2327 52.1445H98.5699C97.2444 52.1445 96.1792 53.2097 96.1792 54.5353V58.796C96.1792 60.1215 97.2444 61.1867 98.5699 61.1867Z" fill="#FFC89F"/>
<path d="M99.6349 53.5549C99.3982 53.6022 99.1851 53.6496 98.9721 53.7206C98.7591 53.8153 98.5697 53.91 98.404 54.052C98.2383 54.194 98.0726 54.336 97.9543 54.5254C97.8359 54.6911 97.7175 54.8805 97.6465 55.0935C97.5755 55.3065 97.5282 55.4959 97.5282 55.7326C97.5045 55.9456 97.5045 56.1823 97.5045 56.419C97.4808 56.8688 97.4572 57.3422 97.3862 57.7919C97.3151 57.3422 97.2915 56.8688 97.2678 56.419C97.2441 56.1823 97.2441 55.9693 97.2441 55.7326C97.2441 55.4959 97.2915 55.2355 97.3625 55.0225C97.5282 54.5491 97.8359 54.1467 98.2383 53.91C98.4513 53.7916 98.6644 53.6733 98.9011 53.6259C99.1615 53.5312 99.3982 53.5312 99.6349 53.5549Z" fill="#FF9A6C"/>
<path d="M98.76 58.4368C98.8074 58.2948 98.8547 58.1764 98.9021 58.0581L99.0441 57.703L99.1624 57.348C99.2098 57.2296 99.2571 57.1113 99.3044 56.9692C99.3755 57.1113 99.3755 57.2533 99.3755 57.3716C99.3755 57.5137 99.3518 57.6557 99.3044 57.774C99.2571 57.9161 99.1861 58.0344 99.0914 58.1291C98.9967 58.2948 98.8784 58.3895 98.76 58.4368Z" fill="#FF9A6C"/>
<path d="M100.791 60.5614C100.791 61.4609 100.057 62.1947 99.158 62.1947C98.2585 62.1947 97.5247 61.4609 97.5247 60.5614C97.5247 59.6619 98.2585 58.9281 99.158 58.9281C100.057 58.9281 100.791 59.6619 100.791 60.5614Z" fill="#F9A21B"/>
<path d="M111.778 50.6209C111.626 50.6814 111.443 50.6656 111.303 50.5799C111.2 50.4974 108.834 48.8938 106.321 50.7025C106.122 50.8696 105.796 50.8046 105.666 50.6092C105.499 50.4107 105.564 50.0848 105.759 49.9544C108.822 47.7512 111.811 49.8135 111.845 49.8533C112.051 50.0184 112.099 50.3171 111.971 50.527C111.934 50.5239 111.858 50.5541 111.778 50.6209Z" fill="#774B42"/>
<path d="M117.896 50.1389C117.823 50.1326 117.716 50.0866 117.649 50.0072C117.443 49.842 117.431 49.5464 117.597 49.3397C118.29 48.5526 119.903 47.3659 122.764 48.3492L122.834 48.3921C123.087 48.4507 123.251 48.6858 123.192 48.9386C123.133 49.1913 122.862 49.352 122.606 49.3299C122.569 49.3268 122.533 49.3236 122.426 49.2776C120.673 48.6844 119.252 48.9302 118.277 49.9877C118.228 50.1307 118.039 50.1881 117.896 50.1389Z" fill="#774B42"/>
<path d="M119.514 62.5229C119.514 62.5229 114.436 64.184 110.802 61.4768C110.802 61.4768 110.858 66.3796 114.465 66.838C118.51 67.3343 119.514 62.5229 119.514 62.5229Z" fill="#994F49"/>
<path d="M118.5 62.768C118.438 63.0573 118.373 63.3831 118.311 63.6724C117.429 64.0751 116.552 63.9994 115.595 63.9905C115.263 63.9987 114.894 64.0037 114.565 63.9754C113.578 63.8902 112.696 63.4458 111.774 63.0349C111.799 62.7424 111.824 62.45 111.889 62.1241C114.327 63.3287 117.039 63.0471 118.5 62.768Z" fill="white"/>
<path d="M112.146 65.5353C112.427 65.265 112.775 65.074 113.154 64.9593C114.066 64.6329 115.071 64.4987 116.006 64.7635C116.655 64.9299 117.284 65.3157 117.758 65.7985C116.997 66.5062 115.96 67.006 114.501 66.8433C113.411 66.6756 112.681 66.1707 112.146 65.5353Z" fill="#FD4E4C"/>
<path d="M111.752 54.7567C111.752 54.7567 111.762 56.3412 109.27 56.1999C106.778 56.0586 105.893 54.3618 105.893 54.3618C105.893 54.3618 107.013 52.9117 109.027 53.0485C111.004 53.1823 111.752 54.7567 111.752 54.7567Z" fill="white"/>
<path d="M117.805 54.6306C117.805 54.6306 118.167 55.9876 120.645 55.8699C123.086 55.749 123.439 53.7908 123.439 53.7908C123.439 53.7908 122.446 52.4899 120.434 52.7582C118.462 52.9932 117.805 54.6306 117.805 54.6306Z" fill="white"/>
<path d="M111.805 54.577C111.805 54.577 111.593 56.1791 110.042 56.2295C108.305 56.3006 108.47 53.1108 108.47 53.1108C108.47 53.1108 110.455 52.7296 111.805 54.577Z" fill="#994F49"/>
<path d="M123.443 53.661C123.443 53.661 123.02 55.5764 121.721 55.6853C119.981 55.793 120.13 52.786 120.13 52.786C120.13 52.786 122.14 52.1124 123.443 53.661Z" fill="#994F49"/>
<path d="M111.689 54.6731C111.543 54.6605 111.437 54.6145 111.376 54.462C111.343 54.4223 110.822 53.1989 108.985 53.1509C107.035 53.13 106.1 54.1541 106.057 54.2241C105.934 54.3608 105.749 54.3816 105.612 54.2593C105.475 54.137 105.454 53.9511 105.576 53.8144C105.619 53.7444 106.723 52.477 109.002 52.5263C111.281 52.5756 111.916 54.1771 111.95 54.2168C112.01 54.3693 111.921 54.5458 111.766 54.6429C111.763 54.6794 111.726 54.6763 111.689 54.6731Z" fill="#272C3A"/>
<path d="M117.884 54.5568C117.847 54.5537 117.774 54.5474 117.741 54.5077C117.601 54.4219 117.507 54.2297 117.593 54.0898C117.635 54.0198 118.396 52.465 120.404 52.2332C122.712 51.9535 123.628 53.2846 123.661 53.3243C123.758 53.48 123.706 53.6596 123.587 53.7599C123.431 53.8569 123.252 53.8046 123.151 53.6855C123.118 53.6457 122.396 52.6259 120.497 52.8672C118.823 53.0543 118.201 54.2896 118.195 54.3627C118.109 54.5026 117.993 54.5663 117.884 54.5568Z" fill="#272C3A"/>
</g>
<defs>
<filter id="filter0_d_1_27887" x="0.359375" y="0.496094" width="307.727" height="416.471" filterUnits="userSpaceOnUse" color-interpolation-filters="sRGB">
<feFlood flood-opacity="0" result="BackgroundImageFix"/>
<feColorMatrix in="SourceAlpha" type="matrix" values="0 0 0 0 0 0 0 0 0 0 0 0 0 0 0 0 0 0 127 0" result="hardAlpha"/>
<feOffset dx="6.08308" dy="8.11077"/>
<feGaussianBlur stdDeviation="2.17977"/>
<feComposite in2="hardAlpha" operator="out"/>
<feColorMatrix type="matrix" values="0 0 0 0 0 0 0 0 0 0 0 0 0 0 0 0 0 0 0.17 0"/>
<feBlend mode="normal" in2="BackgroundImageFix" result="effect1_dropShadow_1_27887"/>
<feBlend mode="normal" in="SourceGraphic" in2="effect1_dropShadow_1_27887" result="shape"/>
</filter>
</defs>
</svg>
