<svg width="140" height="166" viewBox="0 0 140 166" fill="none" xmlns="http://www.w3.org/2000/svg">
<path d="M-29.2867 13.4315C-18.9999 12.3083 -7.88695 12.0604 1.66106 17.9033C14.0902 25.6282 20.4094 41.9683 21.3111 56.8421C22.0506 71.7485 18.523 85.9987 16.7577 100.462C14.8302 114.959 14.8897 130.854 22.0672 144.275C31.9996 163.013 52.848 172.263 64.8149 189.645C74.7429 204.122 77.1811 223.895 70.9444 238.879" stroke="#116EB6" stroke-width="0.714446" stroke-miterlimit="10"/>
<path d="M-29.9717 24.78C-20.2757 23.681 -9.7535 23.4573 -0.623601 29.0058C11.1783 36.2891 17.1004 51.7627 17.8715 65.8109C18.6426 79.8591 15.2511 93.3247 13.5643 107.11C11.7729 120.822 11.864 135.859 18.5292 148.626C27.8554 166.35 47.7055 175.044 58.9041 191.444C68.3775 205.162 70.5911 223.749 64.6996 238.096" stroke="#116EB6" stroke-width="0.714446" stroke-miterlimit="10"/>
<path d="M-30.7636 36.058C-21.5537 35.0568 -11.6223 34.8574 -3.17724 40.0704C7.99745 46.912 13.5223 61.519 14.2675 74.8153C15.0126 88.1116 11.8617 100.866 10.1019 113.72C8.4466 126.647 8.40708 140.859 14.7798 152.833C23.6618 169.51 42.1893 177.713 52.8288 193.279C61.6854 206.269 63.8836 223.818 58.2431 237.168" stroke="#116EB6" stroke-width="0.714446" stroke-miterlimit="10"/>
<path d="M-31.5521 47.3336C-22.9332 46.3567 -13.5928 46.1815 -5.56605 51.0999C4.92356 57.6058 10.1087 71.2395 10.8278 83.7835C11.547 96.3274 8.58973 108.191 6.90849 120.366C5.38937 132.508 5.38143 145.861 11.2992 157.074C19.5748 172.738 37.0459 180.49 47.0789 195.042C55.3761 207.197 57.4542 223.634 52.159 236.347" stroke="#116EB6" stroke-width="0.714446" stroke-miterlimit="10"/>
<path d="M-32.1784 58.5702C-24.1507 57.6175 -15.4015 57.4666 -7.89793 62.0166C1.85934 68.0069 6.85621 80.9205 7.50232 92.5318C8.14842 104.143 5.37443 115.401 3.88691 126.684C2.39939 137.967 2.42298 150.462 8.09497 161.061C15.8684 175.784 32.1782 183.012 41.5469 196.655C49.389 208.049 51.2895 223.48 46.3503 235.268" stroke="#116EB6" stroke-width="0.714446" stroke-miterlimit="10"/>
</svg>
