<svg width="289" height="418" viewBox="0 0 289 418" fill="none" xmlns="http://www.w3.org/2000/svg">
<g filter="url(#filter0_d_1_28290)">
<path d="M180.087 67.5079C173.201 75.3527 169.017 85.6381 169.017 96.8822H203.185L180.087 67.5079Z" stroke="#263238" stroke-width="0.979517" stroke-miterlimit="10" stroke-linecap="round" stroke-linejoin="round"/>
<path d="M243.978 64.025L221.49 96.8859H258.447C258.36 83.8985 252.781 72.1313 243.978 64.025Z" stroke="#263238" stroke-width="0.979517" stroke-miterlimit="10" stroke-linecap="round" stroke-linejoin="round"/>
<path d="M182.529 64.8971L207.545 96.8863H210.509V52.3455C199.7 53.1299 189.938 57.7496 182.529 64.8971Z" stroke="#263238" stroke-width="0.979517" stroke-miterlimit="10" stroke-linecap="round" stroke-linejoin="round"/>
<path d="M208.241 220.833H168.145V270.953H208.241V220.833Z" stroke="#263238" stroke-width="0.979517" stroke-miterlimit="10" stroke-linecap="round" stroke-linejoin="round"/>
<path d="M213.993 52.2585V96.8866H217.218L241.276 61.7594C233.78 55.8323 224.279 52.2585 213.993 52.2585Z" stroke="#263238" stroke-width="0.979517" stroke-miterlimit="10" stroke-linecap="round" stroke-linejoin="round"/>
<path d="M258.36 104.125H218.265V154.244H258.36V104.125Z" stroke="#263238" stroke-width="0.979517" stroke-miterlimit="10" stroke-linecap="round" stroke-linejoin="round"/>
<path d="M208.241 162.432H168.145V212.551H208.241V162.432Z" stroke="#263238" stroke-width="0.979517" stroke-miterlimit="10" stroke-linecap="round" stroke-linejoin="round"/>
<path d="M258.36 162.432H218.265V212.551H258.36V162.432Z" stroke="#263238" stroke-width="0.979517" stroke-miterlimit="10" stroke-linecap="round" stroke-linejoin="round"/>
<path d="M258.36 220.833H218.265V270.953H258.36V220.833Z" stroke="#263238" stroke-width="0.979517" stroke-miterlimit="10" stroke-linecap="round" stroke-linejoin="round"/>
<path d="M208.241 104.125H168.145V154.244H208.241V104.125Z" stroke="#263238" stroke-width="0.979517" stroke-miterlimit="10" stroke-linecap="round" stroke-linejoin="round"/>
<path d="M138.82 404.002C215.487 404.002 277.639 394.701 277.639 383.229C277.639 371.757 215.487 362.456 138.82 362.456C62.1516 362.456 0 371.757 0 383.229C0 394.701 62.1516 404.002 138.82 404.002Z" fill="#116EB6"/>
<path opacity="0.5" d="M138.82 404.002C215.487 404.002 277.639 394.701 277.639 383.229C277.639 371.757 215.487 362.456 138.82 362.456C62.1516 362.456 0 371.757 0 383.229C0 394.701 62.1516 404.002 138.82 404.002Z" fill="white"/>
<path d="M34.3124 261.39C34.3124 261.39 34.3124 258.549 30.3228 254.56C26.3333 250.57 23.734 248.273 23.734 248.273C23.734 248.273 21.7393 254.862 25.4266 258.852C29.1139 262.841 34.2519 266.528 34.2519 266.528V261.39H34.3124Z" fill="#C6FF00"/>
<path d="M28.5099 279.219C28.5099 279.219 28.5099 276.378 24.5203 272.388C20.5308 268.399 17.9315 266.102 17.9315 266.102C17.9315 266.102 15.9368 272.691 19.6241 276.68C23.3114 280.67 28.4494 284.357 28.4494 284.357V279.219H28.5099Z" fill="#C6FF00"/>
<path d="M34.0709 266.224C34.0709 266.224 34.3731 263.383 38.7858 259.817C43.1985 256.25 45.9791 254.256 45.9791 254.256C45.9791 254.256 47.2484 260.965 43.138 264.592C39.0276 268.159 33.5269 271.302 33.5269 271.302L34.0709 266.224Z" fill="#C6FF00"/>
<path d="M27.059 287.263C27.059 287.263 27.6635 284.482 32.3784 281.399C37.0933 278.317 40.1157 276.624 40.1157 276.624C40.1157 276.624 40.7202 283.455 36.247 286.598C31.7739 289.741 25.9709 292.28 25.9709 292.28L27.059 287.263Z" fill="#C6FF00"/>
<path d="M28.3884 310.229C28.3884 310.229 28.3884 307.388 32.378 303.398C36.3675 299.409 38.9668 297.112 38.9668 297.112C38.9668 297.112 40.9615 303.701 37.2742 307.69C33.5869 311.68 28.4489 315.367 28.4489 315.367V310.229H28.3884Z" fill="#C6FF00"/>
<path d="M28.268 315.793C28.268 315.793 28.6912 312.952 25.3061 308.479C21.921 303.945 19.6845 301.346 19.6845 301.346C19.6845 301.346 16.783 307.572 19.8658 312.045C22.9486 316.518 27.5427 320.931 27.5427 320.931L28.268 315.793Z" fill="#C6FF00"/>
<path d="M24.3396 332.42C24.3396 332.42 24.3396 329.579 28.3291 325.59C32.3187 321.6 34.9179 319.303 34.9179 319.303C34.9179 319.303 36.9127 325.892 33.2254 329.881C29.5381 333.871 24.4001 337.558 24.4001 337.558V332.42H24.3396Z" fill="#C6FF00"/>
<path d="M26.9991 347.466C26.9991 347.466 26.2738 344.685 29.1148 339.849C31.9558 334.953 33.8902 332.112 33.8902 332.112C33.8902 332.112 37.4566 337.976 34.9178 342.751C32.3185 347.526 28.329 352.423 28.329 352.423L26.9991 347.466Z" fill="#C6FF00"/>
<path d="M34.6764 260.665C34.4347 263.688 34.072 266.892 33.5884 269.491C32.0168 277.651 28.0877 282.91 26.516 290.285C24.9444 297.659 29.478 307.15 28.269 316.579C27.0601 326.009 23.3728 331.329 24.4004 337.615C25.428 343.902 30.9891 361.008 30.9891 361.008" stroke="#263238" stroke-width="0.339643" stroke-miterlimit="10" stroke-linecap="round" stroke-linejoin="round"/>
<path d="M34.0103 268.165L38.302 264.84" stroke="#263238" stroke-width="0.339643" stroke-miterlimit="10" stroke-linecap="round" stroke-linejoin="round"/>
<path d="M34.1936 264.352L32.3801 261.149" stroke="#263238" stroke-width="0.339643" stroke-miterlimit="10" stroke-linecap="round" stroke-linejoin="round"/>
<path d="M26.6975 289.985C26.6975 289.985 30.3244 287.265 34.0117 284.605" stroke="#263238" stroke-width="0.339643" stroke-miterlimit="10" stroke-linecap="round" stroke-linejoin="round"/>
<path d="M28.5097 284.362C28.5097 284.362 25.4874 278.499 22.1023 274.57" stroke="#263238" stroke-width="0.339643" stroke-miterlimit="10" stroke-linecap="round" stroke-linejoin="round"/>
<path d="M28.5103 314.281C28.5103 314.281 31.2908 308.78 36.1871 304.005" stroke="#263238" stroke-width="0.339643" stroke-miterlimit="10" stroke-linecap="round" stroke-linejoin="round"/>
<path d="M27.7862 318.271C27.7862 318.271 25.9728 313.979 23.8571 310.896C21.7414 307.814 21.4392 307.391 21.4392 307.391" stroke="#263238" stroke-width="0.339643" stroke-miterlimit="10" stroke-linecap="round" stroke-linejoin="round"/>
<path d="M24.3401 337.618C24.3401 337.618 25.7908 333.931 27.6043 331.029C29.4177 328.128 31.8356 325.529 31.8356 325.529" stroke="#263238" stroke-width="0.339643" stroke-miterlimit="10" stroke-linecap="round" stroke-linejoin="round"/>
<path d="M28.3302 352.421C28.3302 352.421 27.907 349.036 29.4182 346.135C30.9294 343.233 32.6219 339.425 33.3473 337.914" stroke="#263238" stroke-width="0.339643" stroke-miterlimit="10" stroke-linecap="round" stroke-linejoin="round"/>
<path d="M8.14257 299.471C8.14257 299.471 7.84032 297.658 9.89554 294.756C11.9508 291.794 13.3411 290.102 13.3411 290.102C13.3411 290.102 15.2754 293.97 13.4015 296.932C11.5276 299.834 8.68659 302.735 8.68659 302.735L8.14257 299.471Z" fill="#C6FF00"/>
<path d="M13.7034 310.049C13.7034 310.049 13.4011 308.235 15.4563 305.334C17.5116 302.372 18.9018 300.679 18.9018 300.679C18.9018 300.679 20.8362 304.548 18.9623 307.51C17.0884 310.411 14.2474 313.313 14.2474 313.313L13.7034 310.049Z" fill="#C6FF00"/>
<path d="M8.86753 302.491C8.86753 302.491 8.38395 300.738 5.24067 298.985C2.0974 297.232 0.102632 296.265 0.102632 296.265C0.102632 296.265 0.0421953 300.617 3.00413 302.43C5.96606 304.244 9.77424 305.574 9.77424 305.574L8.86753 302.491Z" fill="#C6FF00"/>
<path d="M15.5151 314.945C15.5151 314.945 14.8502 313.252 11.5256 311.862C8.20098 310.472 6.14575 309.686 6.14575 309.686C6.14575 309.686 6.50845 314.038 9.65172 315.489C12.795 316.94 16.7241 317.907 16.7241 317.907L15.5151 314.945Z" fill="#C6FF00"/>
<path d="M17.1507 329.456C17.1507 329.456 16.8484 327.643 13.8865 325.588C10.9246 323.532 9.11115 322.384 9.11115 322.384C9.11115 322.384 8.56711 326.736 11.3477 328.791C14.1283 330.907 17.7551 332.66 17.7551 332.66L17.1507 329.456Z" fill="#C6FF00"/>
<path d="M17.8141 332.96C17.8141 332.96 17.2701 331.207 18.9021 328.004C20.5342 324.8 21.6223 322.926 21.6223 322.926C21.6223 322.926 24.1006 326.492 22.6499 329.636C21.1992 332.779 18.8417 336.043 18.8417 336.043L17.8141 332.96Z" fill="#C6FF00"/>
<path d="M22.8306 347.41C22.8306 347.41 23.0119 345.597 25.853 343.36C28.694 341.124 30.447 339.854 30.447 339.854C30.447 339.854 31.2328 344.146 28.5731 346.383C25.9134 348.619 22.4075 350.614 22.4075 350.614L22.8306 347.41Z" fill="#C6FF00"/>
<path d="M22.1058 342.936C22.1058 342.936 21.8035 341.123 18.8416 339.068C15.8796 337.012 14.0662 335.864 14.0662 335.864C14.0662 335.864 13.5222 340.216 16.3028 342.271C19.0834 344.387 22.7102 346.14 22.7102 346.14L22.1058 342.936Z" fill="#C6FF00"/>
<path d="M22.0445 352.661C22.0445 352.661 22.2259 350.848 19.8684 348.128C17.5714 345.407 16.0602 343.775 16.0602 343.775C16.0602 343.775 14.4281 347.825 16.6042 350.546C18.7199 353.266 21.8027 355.925 21.8027 355.925L22.0445 352.661Z" fill="#C6FF00"/>
<path d="M7.83936 299.05C8.32294 300.924 8.86695 302.858 9.47143 304.491C11.3453 309.447 14.3677 312.288 16.1811 316.761C17.9945 321.235 16.1811 327.642 17.9341 333.445C19.7475 339.248 22.5886 342.149 22.649 346.199C22.649 350.249 21.0774 361.614 21.0774 361.614" stroke="#263238" stroke-width="0.339643" stroke-miterlimit="10" stroke-linecap="round" stroke-linejoin="round"/>
<path d="M9.04801 303.707L6.02563 302.074" stroke="#263238" stroke-width="0.339643" stroke-miterlimit="10" stroke-linecap="round" stroke-linejoin="round"/>
<path d="M8.50415 301.346L9.28996 299.109" stroke="#263238" stroke-width="0.339643" stroke-miterlimit="10" stroke-linecap="round" stroke-linejoin="round"/>
<path d="M15.9989 316.579C15.9989 316.579 13.4601 315.249 10.8608 313.98" stroke="#263238" stroke-width="0.339643" stroke-miterlimit="10" stroke-linecap="round" stroke-linejoin="round"/>
<path d="M14.3074 313.254C14.3074 313.254 15.5768 309.264 17.2693 306.423" stroke="#263238" stroke-width="0.339643" stroke-miterlimit="10" stroke-linecap="round" stroke-linejoin="round"/>
<path d="M17.5113 331.997C17.5113 331.997 15.1538 328.854 11.5874 326.375" stroke="#263238" stroke-width="0.339643" stroke-miterlimit="10" stroke-linecap="round" stroke-linejoin="round"/>
<path d="M18.416 334.474C18.416 334.474 19.0809 331.572 20.0481 329.396C21.0152 327.22 21.1966 326.918 21.1966 326.918" stroke="#263238" stroke-width="0.339643" stroke-miterlimit="10" stroke-linecap="round" stroke-linejoin="round"/>
<path d="M22.5283 349.341C22.5283 349.341 24.5835 346.863 25.7925 345.956C27.0619 345.05 27.9081 344.083 27.9081 344.083" stroke="#263238" stroke-width="0.339643" stroke-miterlimit="10" stroke-linecap="round" stroke-linejoin="round"/>
<path d="M22.6497 346.202C22.6497 346.202 21.3199 344.086 19.9296 342.454C18.4788 340.822 16.7258 339.432 16.7258 339.432" stroke="#263238" stroke-width="0.339643" stroke-miterlimit="10" stroke-linecap="round" stroke-linejoin="round"/>
<path d="M21.8023 355.934C21.8023 355.934 21.6814 353.757 20.412 352.065C19.1426 350.433 17.6919 348.196 17.0874 347.35" stroke="#263238" stroke-width="0.339643" stroke-miterlimit="10" stroke-linecap="round" stroke-linejoin="round"/>
<path d="M37.2143 381.322H14.7883C13.7607 381.322 12.9749 380.476 12.9749 379.509V359.682H39.0882V379.448C39.0277 380.476 38.2419 381.322 37.2143 381.322Z" fill="#263238"/>
<path d="M143.279 205.198C140.883 209.772 150.772 212.255 154.257 218.092C154.649 218.745 155.563 219.529 156.043 218.963C156.173 218.832 156.217 218.658 156.26 218.484C156.609 216.872 155.955 215.043 154.649 214.041C158.351 214.52 161.88 216.175 164.624 218.702C165.147 219.224 166.062 219.921 166.584 219.399C167.673 218.266 163.361 213.649 160.312 212.56C163.666 212.69 167.412 218.135 168.24 217.787C169.285 217.351 168.327 215.565 167.673 214.651C166.149 212.516 164.276 211.296 161.706 209.598C164.537 210.382 168.501 214.694 169.067 214.171C170.592 212.865 167.543 210.425 165.974 209.162C164.058 207.637 161.749 206.592 159.353 206.069C155.607 205.285 151.338 204.893 148.419 202.453L143.279 205.198Z" fill="#FFCCA9"/>
<path d="M158.707 113.4C158.707 113.4 126.777 140.19 121.07 143.805C115.364 147.421 86.0908 159.792 86.0908 159.792L87.3541 169.637C87.3541 169.637 122.334 161.056 127.779 157.484C139.932 149.556 164.805 133.612 164.805 133.612L158.707 113.4Z" fill="#FFBE8C"/>
<path d="M177.809 37.2958L176.154 48.8394L186.303 49.9285L187.393 36.3374L177.809 37.2958Z" fill="#FFCCA9"/>
<g opacity="0.24">
<path d="M177.81 37.2958L176.852 43.9606C179.379 45.0932 182.471 45.6595 186.305 45.1803C186.435 45.1803 186.523 45.1368 186.653 45.1368L187.35 36.3374L177.81 37.2958Z" fill="#994F49"/>
</g>
<path d="M169.098 32.1152C166.092 27.7156 163.74 24.3614 163.043 19.0469C162.346 13.776 164.132 7.85175 168.531 4.88961C170.796 3.36497 174.064 2.79868 176.242 4.454C173.802 13.2533 173.541 23.4901 174.194 32.5944C173.541 32.7251 169.751 32.0281 169.098 32.1152Z" fill="#804E43"/>
<path d="M180.772 7.28605C193.841 5.10801 195.452 8.54933 196.062 11.5986C196.541 13.9945 198.24 19.9623 198.545 25.4074C198.85 30.504 197.021 40.7844 186.653 42.0041C175.806 43.2674 170.84 36.1234 169.708 31.7673C168.575 27.4112 164.785 9.94327 180.772 7.28605Z" fill="#FFCCA9"/>
<path d="M187.436 27.0192C188.003 27.1934 188.525 27.4547 189.004 27.8032C189.135 27.8904 189.222 27.9775 189.353 28.1082C189.484 28.2389 189.571 28.3696 189.658 28.5438C189.832 28.8487 189.832 29.2407 189.745 29.5892C189.571 30.3298 189.004 30.8089 188.438 31.0268C187.872 31.2881 187.262 31.3752 186.652 31.2881C187.175 30.9832 187.654 30.7218 188.046 30.4169C188.438 30.112 188.787 29.7635 188.917 29.3714C189.048 28.9794 189.048 28.5438 188.656 28.1517C188.307 27.7597 187.915 27.3677 187.436 27.0192Z" fill="#D87B56"/>
<path d="M195.581 20.0951C195.93 18.919 191.138 16.6102 190.659 18.0478C190.398 18.9625 195.32 20.9663 195.581 20.0951Z" fill="#804E43"/>
<path d="M180.248 18.5293C181.032 19.5747 176.24 22.1884 175.587 21.3608C174.977 20.5767 179.464 17.4402 180.248 18.5293Z" fill="#804E43"/>
<path d="M178.376 13.6898C176.59 15.3887 174.282 16.5213 172.409 18.2201C169.446 20.9209 167.922 25.1028 168.401 29.0668C165.918 24.885 165.7 19.527 167.878 15.258C169.359 12.3394 173.193 8.20114 176.852 8.02689C181.382 7.80909 181.338 10.8584 178.376 13.6898Z" fill="#804E43"/>
<path d="M196.847 4.88951C200.158 6.06566 204.557 5.80428 206.3 2.75501C206.343 4.97662 204.949 7.15469 202.945 8.11304C204.731 8.02591 206.474 7.19824 207.694 5.89141C206.256 10.4218 202.205 13.8631 197.631 15.1699C193.057 16.4767 188.091 15.7798 183.735 13.9066C185.216 15.1699 186.654 16.4767 188.135 17.74C182.254 17.2173 168.271 10.7703 174.892 3.32133C181.252 -3.86623 190.269 2.49366 196.847 4.88951Z" fill="#804E43"/>
<path d="M169.837 29.8072C169.532 28.8488 168.879 28.0212 168.051 27.3677C167.441 26.9321 166.613 26.5837 165.829 26.845C164.871 27.1935 164.61 28.2825 164.653 29.1537C164.74 31.114 165.612 33.0742 167.049 34.5118C167.31 34.7731 167.572 34.9909 167.964 35.0345C168.617 35.078 169.096 34.5118 169.358 33.989C169.619 33.4663 169.837 32.8564 170.403 32.5951L169.837 29.8072Z" fill="#FFCCA9"/>
<path d="M166.351 28.5454C166.874 29.4166 167.571 30.07 168.442 30.4621L168.878 30.6363L168.486 30.8106C168.094 30.9848 167.745 31.3333 167.527 31.7253C167.31 32.1174 167.135 32.5965 167.135 33.0757C166.961 32.5965 167.005 32.0738 167.223 31.5947C167.44 31.1155 167.832 30.7234 168.312 30.4621V30.8106C167.31 30.4185 166.569 29.5473 166.351 28.5454Z" fill="#AD5858"/>
<path d="M191.14 33.2427C191.14 33.2427 185.52 35.8999 180.903 33.2862C180.903 33.2862 181.687 38.9492 185.956 38.9492C190.66 38.9492 191.14 33.2427 191.14 33.2427Z" fill="#994F49"/>
<path d="M190.007 33.6812C190.007 34.0296 189.964 34.3781 189.92 34.7266C188.962 35.3365 187.916 35.3365 186.827 35.5107C186.435 35.5543 186.043 35.6414 185.651 35.6414C184.519 35.685 183.386 35.2929 182.297 34.9444C182.297 34.5959 182.297 34.2474 182.297 33.899C185.259 34.9444 188.352 34.2474 190.007 33.6812Z" fill="white"/>
<path d="M183.038 37.8163C183.299 37.4678 183.691 37.2064 184.083 36.9886C185.085 36.4659 186.218 36.2045 187.35 36.3352C188.134 36.4223 188.918 36.7708 189.528 37.2936C188.744 38.2519 187.612 38.9488 185.913 38.9488C184.693 38.9488 183.778 38.4697 183.038 37.8163Z" fill="#FD4E4C"/>
<path d="M182.601 26.1841C182.601 26.1841 182.775 28.0572 179.856 28.1879C176.938 28.3186 175.631 26.4455 175.631 26.4455C175.631 26.4455 176.763 24.5724 179.159 24.5288C181.555 24.4417 182.601 26.1841 182.601 26.1841Z" fill="white"/>
<path d="M189.701 25.2868C189.701 25.2868 190.267 26.855 193.186 26.3758C196.018 25.9402 196.192 23.5879 196.192 23.5879C196.192 23.5879 194.885 22.1939 192.576 22.7602C190.267 23.3265 189.701 25.2868 189.701 25.2868Z" fill="white"/>
<path d="M182.643 25.9657C182.643 25.9657 182.6 27.8824 180.814 28.1002C178.766 28.3616 178.592 24.6154 178.592 24.6154C178.592 24.6154 180.857 24.0055 182.643 25.9657Z" fill="#507CA1"/>
<path d="M196.234 23.4911C196.234 23.4911 195.973 25.7998 194.448 26.0612C192.401 26.4097 192.227 22.8377 192.227 22.8377C192.227 22.8377 194.492 21.8358 196.234 23.4911Z" fill="#507CA1"/>
<path d="M182.558 26.1526C182.427 26.1526 182.253 26.1091 182.166 25.9348C182.122 25.8913 181.382 24.4973 179.204 24.7151C176.895 24.8893 175.937 26.2397 175.937 26.3268C175.806 26.5011 175.588 26.5447 175.414 26.414C175.24 26.2833 175.196 26.0655 175.327 25.8912C175.371 25.8041 176.503 24.1924 179.16 23.9746C181.818 23.7568 182.776 25.5427 182.819 25.6299C182.907 25.8041 182.863 26.0219 182.645 26.1526C182.602 26.1091 182.602 26.1526 182.558 26.1526Z" fill="#272C3A"/>
<path d="M189.79 25.1891C189.746 25.1891 189.659 25.1891 189.616 25.1891C189.441 25.1019 189.311 24.9277 189.398 24.7099C189.441 24.6228 190.138 22.7061 192.447 22.1834C195.104 21.5735 196.368 23.011 196.411 23.0546C196.542 23.2288 196.542 23.4467 196.368 23.5773C196.193 23.708 195.976 23.708 195.845 23.5338C195.801 23.4902 194.799 22.4012 192.621 22.8804C190.705 23.316 190.095 24.8406 190.095 24.9277C190.008 25.102 189.921 25.1891 189.79 25.1891Z" fill="#272C3A"/>
<path d="M172.32 46.3555L189.875 46.0941C189.875 46.0941 192.358 55.1548 183.036 55.9825C173.714 56.7666 172.32 46.3555 172.32 46.3555Z" fill="#FFCCA9"/>
<path d="M131.417 30.7173C131.417 30.7173 130.067 28.4522 129.849 26.1434C129.588 23.2684 130.677 20.9161 129.805 20.0885C128.804 19.1301 127.976 21.8745 127.758 24.1832C127.758 24.1832 125.406 22.7021 124.491 20.2627C123.576 17.8233 123.576 16.56 122.531 16.2115C121.485 15.863 121.877 18.8687 122.574 20.829C123.271 22.8328 123.794 23.5298 123.794 23.5298C123.794 23.5298 122.662 22.2229 121.877 20.5676C121.093 18.9994 120.179 16.5164 119.09 16.4293C118 16.3858 119.264 19.6093 120.004 21.4824C120.745 23.3555 121.616 24.8366 121.616 24.8366C121.616 24.8366 120.266 22.8763 119.612 21.7437C118.785 20.3498 118.523 19.0866 117.783 18.7816C117.042 18.4767 117.129 20.0449 117.957 22.0487C119.002 24.6188 120.222 26.1434 120.179 26.0563C118.959 25.2722 117.521 22.1358 116.911 22.4843C116.432 22.7457 116.999 24.1832 117.783 25.5336C118.654 27.1018 120.353 29.1927 122.095 30.4124C123.838 31.5885 125.188 32.5469 126.582 34.0715C128.019 35.5962 132.027 30.7609 132.027 30.7609L131.417 30.7173Z" fill="#FEC08F"/>
<path d="M127.888 24.0927C127.06 24.7896 126.537 25.7044 126.276 26.7063C126.015 27.7082 126.058 28.7537 126.45 29.7556C126.058 29.3635 125.84 28.8408 125.71 28.2745C125.579 27.7082 125.623 27.142 125.753 26.5757C125.884 26.0094 126.145 25.4866 126.494 25.051C126.886 24.6154 127.365 24.2669 127.888 24.0927Z" fill="#D87B56"/>
<path d="M124.448 22.3549C123.446 22.8776 122.575 23.531 121.878 24.3587C121.137 25.1428 120.571 26.1011 120.135 27.103C120.31 26.014 120.876 24.925 121.617 24.0973C122.357 23.2696 123.359 22.6162 124.448 22.3549Z" fill="#D87B56"/>
<path d="M230.955 31.7259C230.955 31.7259 232.305 29.4607 232.523 27.152C232.784 24.2769 231.695 21.9246 232.567 21.097C233.568 20.1386 234.396 22.883 234.614 25.1917C234.614 25.1917 236.966 23.7106 237.881 21.2712C238.796 18.8318 238.796 17.5686 239.841 17.2201C240.887 16.8716 240.495 19.8773 239.798 21.8375C239.101 23.8414 238.578 24.5383 238.578 24.5383C238.578 24.5383 239.711 23.2315 240.495 21.5762C241.279 20.008 242.194 17.525 243.283 17.4379C244.372 17.3943 243.108 20.6178 242.368 22.491C241.627 24.3641 240.756 25.8451 240.756 25.8451C240.756 25.8451 242.106 23.8849 242.76 22.7523C243.588 21.3584 243.849 20.0951 244.589 19.7901C245.33 19.4852 245.243 21.0534 244.415 23.0572C243.37 25.6273 242.15 27.152 242.194 27.0649C243.413 26.2808 244.851 23.1443 245.461 23.4928C245.94 23.7542 245.373 25.1917 244.589 26.5421C243.718 28.1103 242.019 30.2013 240.277 31.421C238.534 32.5971 237.184 33.5555 235.79 35.0801C234.353 36.6047 230.345 31.7694 230.345 31.7694L230.955 31.7259Z" fill="#FEC08F"/>
<path d="M234.482 25.1012C235.005 25.2754 235.484 25.6239 235.832 26.0595C236.181 26.4951 236.442 27.0179 236.573 27.5842C236.704 28.1504 236.747 28.7167 236.616 29.283C236.529 29.8493 236.268 30.3721 235.876 30.7641C236.268 29.7622 236.311 28.7168 236.05 27.7149C235.832 26.713 235.31 25.8417 234.482 25.1012Z" fill="#D87B56"/>
<path d="M237.926 23.3604C239.015 23.6217 240.017 24.2751 240.757 25.1028C241.498 25.9304 242.064 26.9759 242.238 28.1085C241.803 27.063 241.236 26.1482 240.496 25.3641C239.799 24.5365 238.928 23.8831 237.926 23.3604Z" fill="#D87B56"/>
<path d="M207.582 344.062C207.582 344.062 217.035 355.083 215.075 358.307C213.071 361.574 206.537 370.46 203.575 374.163C200.613 377.865 198.652 381.132 200.525 381.394C202.399 381.655 213.463 375.339 216.643 372.115C219.823 368.892 232.064 362.575 231.628 360.441C231.192 358.306 221.696 340.621 221.696 340.621L207.582 344.062Z" fill="#D8B695"/>
<path d="M197.91 379.295C197.91 379.295 199.086 382.911 202.919 383.564C206.274 384.131 213.374 382.911 219.473 377.727C225.528 372.5 235.982 370.278 238.117 365.748C239.554 362.655 233.848 359.954 233.848 359.954C233.848 359.954 203.878 380.341 197.91 379.295Z" fill="#DEAE9C"/>
<path d="M212.372 360.298C209.977 361.605 210.325 367.225 206.753 369.925C203.181 372.626 199.13 373.672 198.128 376.111C197.126 378.594 197.649 380.249 199.348 381.251C201.047 382.253 211.327 379.814 216.467 375.066C221.651 370.361 234.24 365.308 235.678 361.997C236.505 359.994 231.757 353.285 229.753 353.198C227.75 353.111 224.482 359.906 221.956 361.649C219.429 363.391 214.463 359.166 212.372 360.298Z" fill="#63759D"/>
<path d="M155.178 348.804C155.178 348.804 159.099 362.788 155.919 364.878C152.739 366.969 143.025 372.284 138.8 374.375C134.574 376.466 131.394 378.6 132.962 379.646C134.531 380.691 147.25 379.646 151.519 378.077C155.745 376.509 169.51 375.986 170.076 373.852C170.599 371.761 169.51 351.723 169.51 351.723L155.178 348.804Z" fill="#D8B695"/>
<path d="M154.439 193.729C154.439 193.729 140.543 241.646 143.461 286.993C146.293 330.946 152.609 360.131 152.609 360.131L173.475 359.783C173.475 359.783 170.905 283.333 180.052 243.127C180.052 243.127 180.793 300.932 210.414 356.516L227.621 349.198C227.621 349.198 211.155 288.866 214.814 248.615C217.82 215.77 209.325 193.772 209.325 193.772H154.439V193.729Z" fill="#49516B"/>
<path d="M131.481 376.592C131.481 376.592 131.002 380.382 134.226 382.56C137.014 384.477 143.983 386.437 151.694 384.259C159.404 382.125 169.815 384.52 173.649 381.297C176.262 379.119 172.211 374.24 172.211 374.24C172.211 374.24 136.447 380.077 131.481 376.592Z" fill="#DEAE9C"/>
<path d="M152.608 365.528C149.907 365.702 147.816 370.93 143.46 371.844C139.104 372.759 134.966 371.975 133.005 373.805C131.089 375.634 130.827 377.333 131.96 378.988C133.093 380.644 143.416 382.735 150.081 380.687C156.79 378.596 170.337 379.38 173.038 376.984C174.65 375.547 173.169 367.445 171.426 366.53C169.684 365.615 163.803 370.363 160.797 370.886C157.704 371.365 155.004 365.397 152.608 365.528Z" fill="#63759D"/>
<path d="M225.226 123.157C225.226 123.157 235.202 161.839 236.988 168.329C238.774 174.82 242.738 207.316 242.738 207.316L235.202 213.763C235.202 213.763 226.315 179.699 224.66 173.426C220.957 159.399 207.323 132.958 207.323 132.958L225.226 123.157Z" fill="#FFBE8C"/>
<path d="M231.239 224.13C230.847 225.089 230.76 226.657 231.805 226.744C232.023 226.744 232.284 226.657 232.502 226.57C234.506 225.655 235.9 223.477 235.9 221.255C238.426 225.568 239.515 230.664 238.993 235.63C238.905 236.632 238.862 238.113 239.82 238.244C241.955 238.505 243.305 230.142 242.042 226.047C244.612 229.706 241.911 238.113 242.87 238.68C244.176 239.464 245.309 236.981 245.788 235.543C246.834 232.189 246.616 229.227 246.311 225.132C247.748 228.791 246.441 236.458 247.443 236.676C250.101 237.242 250.188 232.058 250.231 229.358C250.275 226.091 249.578 222.78 248.14 219.818C245.919 215.2 241.998 211.018 242.216 205.922C242.26 205.312 242.26 204.615 241.78 204.266C241.388 203.962 240.822 204.049 240.343 204.179C236.858 205.138 234.027 208.579 234.027 208.579C234.027 208.579 233.504 218.424 231.239 224.13Z" fill="#FFBE8C"/>
<path d="M190.137 76.9373L191.488 107.953L203.815 112.047C203.815 112.047 192.315 126.597 181.904 129.907C171.493 133.262 169.271 110.087 169.271 110.087L176.111 108.432V90.6154L190.137 76.9373Z" fill="#FFBE8C"/>
<path d="M178.965 121.113C190.073 119.763 192.948 108.35 192.948 108.35L210.155 110.572C210.155 110.572 214.337 121.113 214.075 128.78C213.291 150.909 216.253 198.347 216.689 210.806C216.689 210.806 196.564 214.77 181.84 214.465C166.899 214.116 149.779 211.372 149.779 211.372C149.779 211.372 151.478 181.968 152.045 156.354C152.437 139.017 146.207 121.157 150.738 115.625C155.094 110.267 166.855 109.744 166.855 109.744C166.855 109.744 175.045 121.593 178.965 121.113Z" fill="#74AAB7"/>
<path d="M161.212 109.307C148.056 116.625 130.98 128.692 130.98 128.692L146.401 150.777C146.401 150.777 162.519 137.665 161.255 129.04C160.036 120.415 161.212 109.307 161.212 109.307Z" fill="#74AAB7"/>
<path d="M182.47 121.634C182.383 121.634 182.296 121.634 182.209 121.634C173.889 121.503 168.618 110.613 168.4 110.134L170.622 109.088C170.665 109.176 175.413 119.064 182.253 119.195C191.575 119.325 195.756 108.217 195.8 108.13L198.109 108.958C197.935 109.437 193.404 121.634 182.47 121.634Z" fill="#D4F0FF"/>
<path d="M131.976 128.007L129.98 129.484L146.444 151.713L148.44 150.235L131.976 128.007Z" fill="#D4F0FF"/>
<path d="M155.332 155.652C155.114 155.652 154.94 155.478 154.94 155.26L153.807 131.824C153.807 131.607 153.981 131.389 154.199 131.389C154.417 131.389 154.635 131.563 154.635 131.781L155.767 155.217C155.724 155.478 155.55 155.652 155.332 155.652Z" fill="#49516B"/>
<path d="M154.635 143.764C154.504 143.764 154.374 143.72 154.287 143.59L148.624 135.923C148.493 135.749 148.536 135.487 148.711 135.357C148.885 135.226 149.146 135.269 149.277 135.444L154.94 143.111C155.071 143.285 155.027 143.546 154.853 143.677C154.766 143.72 154.679 143.764 154.635 143.764Z" fill="#49516B"/>
<path d="M211.394 110.267C230.605 111.923 237.923 141.849 237.923 141.849L204.468 150.866C204.512 150.866 196.148 108.961 211.394 110.267Z" fill="#74AAB7"/>
<path d="M125.622 33.4172C133.812 42.7393 145.617 51.9306 157.465 55.6769C158.511 53.1939 160.863 49.4477 161.952 46.9211C151.236 43.959 137.689 36.8585 130.196 28.6691C127.495 30.4551 128.323 31.6312 125.622 33.4172Z" fill="#FEC08F"/>
<path d="M236.312 35.0771C228.123 44.3992 216.318 53.5905 204.469 57.3368C203.424 54.8538 201.071 51.1076 199.982 48.581C210.698 45.6189 224.246 38.5184 231.738 30.329C234.439 32.115 233.655 33.2476 236.312 35.0771Z" fill="#FEC08F"/>
<path d="M205.994 134.349L204.382 146.328L197.804 145.718L200.549 130.603L205.994 134.349Z" fill="#D8B695"/>
<path d="M168.445 134.484L168.967 146.551L162.39 147.117V131.74L168.445 134.484Z" fill="#D8B695"/>
<path d="M167.789 145.151C167.789 145.151 166.787 142.189 164.305 142.189C161.822 142.189 161.342 145.151 161.342 145.151C161.342 145.151 161.822 142.668 160.34 142.668C158.859 142.668 160.34 146.153 158.859 147.634C157.378 149.115 156.464 151.685 157.378 152.6C159.992 155.214 169.619 155.214 172.276 152.6C173.147 151.729 172.276 149.115 170.272 148.113C168.269 147.111 172.276 142.668 170.272 142.668C168.312 142.668 167.789 145.151 167.789 145.151Z" fill="#53688C"/>
<path d="M171.276 150.467C171.537 150.249 171.406 149.77 172.06 149.857C172.67 150.902 172.8 152.078 172.278 152.601C169.664 155.215 160.037 155.215 157.38 152.601C156.726 151.948 156.988 150.467 157.728 149.16C157.685 151.077 158.512 151.774 159.645 152.122C161.649 148.637 164.567 148.245 166.658 149.857C167.137 150.205 167.486 150.728 167.965 151.077C168.619 151.512 169.446 151.512 170.143 151.251C170.579 151.077 170.971 150.728 171.276 150.467Z" fill="#FAD2B8"/>
<path d="M163.913 92.9667C163.913 92.9667 155.55 112.656 156.203 120.672C156.813 128.643 157.858 140.622 157.858 140.622L170.186 137.878C170.186 137.878 168.226 124.287 168.531 118.624C168.836 112.961 181.512 105.12 181.512 105.12C181.512 105.12 195.887 115.27 196.497 118.624C197.107 121.978 197.325 139.229 197.325 139.229L208.041 141.276C208.041 141.276 211.351 118.406 211.351 115.836C211.351 113.266 196.976 91.6599 196.976 91.6599L163.913 92.9667Z" fill="#FD5553"/>
<path d="M173.672 46.0113C173.672 46.0113 175.85 51.1079 182.297 51.1079C188.744 51.1079 188.744 45.7063 188.744 45.7063L207.475 43.9203L210.786 59.5587L202.553 63.6535L204.208 92.4473C204.208 92.4473 194.364 96.542 183.56 96.542C172.757 96.542 159.776 93.2314 159.776 93.2314L161.432 62.7822L149.931 56.2046L157.337 42.2214L173.672 46.0113Z" fill="#FFB564"/>
<path d="M176.154 90.6576L175.413 112.22L189.396 113.048L191.051 97.4095L176.154 90.6576Z" fill="#FFBE8C"/>
<g opacity="0.24">
<path d="M175.893 95.1876L176.895 81.9015L191.401 94.7955L190.573 102.201C186.783 102.811 179.378 101.852 175.893 95.1876Z" fill="#994F49"/>
</g>
<path d="M196.672 56.9287C199.808 62.1125 200.331 68.7773 198.022 74.3967C197.805 74.8758 197.587 75.355 197.195 75.6599C196.803 75.9649 196.149 76.0084 195.801 75.6599C195.583 75.4421 195.496 75.0936 195.452 74.7452C195.017 72.0444 194.755 69.3 193.884 66.6864C192.969 63.8985 191.358 61.3719 189.267 59.3246L196.672 56.9287Z" fill="#774B42"/>
<path d="M172.233 80.3657C171.71 79.3202 170.839 78.4054 169.75 77.752C168.966 77.3164 167.92 77.0115 167.049 77.4471C165.96 77.9698 165.786 79.3202 165.96 80.3657C166.352 82.6744 167.615 84.8524 169.576 86.3771C169.881 86.6384 170.273 86.8998 170.752 86.8562C171.536 86.8127 172.015 86.0722 172.233 85.4187C172.451 84.7653 172.625 83.9812 173.278 83.5892L172.233 80.3657Z" fill="#FFCCA9"/>
<path d="M167.876 79.365C168.05 79.9313 168.399 80.4976 168.878 80.8896C169.314 81.3252 169.88 81.6302 170.49 81.8044L170.403 81.2817C169.836 81.6302 169.444 82.1965 169.27 82.8063C169.096 83.4162 169.139 84.0696 169.401 84.5923C169.357 83.9825 169.444 83.4597 169.662 82.937C169.88 82.4578 170.229 82.0222 170.664 81.7608L171.23 81.4123L170.621 81.2381C170.098 81.1075 169.575 80.8461 169.096 80.4976C168.704 80.2362 168.268 79.8442 167.876 79.365Z" fill="#AD6C58"/>
<path d="M180.118 54.3207C168.008 56.5859 167.921 68.9136 169.01 72.9648C169.707 75.4913 170.448 77.2338 171.58 81.5028C172.713 85.5975 178.114 99.7984 189.005 98.0995C200.2 96.357 198.632 80.4137 198.37 75.5785C198.196 72.1372 197.717 70.3076 196.758 66.4742C195.016 59.6351 190.921 52.2733 180.118 54.3207Z" fill="#FFCCA9"/>
<path d="M196.847 75.8821C196.891 74.7059 197.327 73.5297 198.067 72.4843C198.59 71.7437 199.461 71.0903 200.419 71.1339C201.639 71.1775 202.293 72.3536 202.554 73.3991C203.12 75.6643 202.815 78.1908 201.639 80.3689C201.465 80.7173 201.204 81.1094 200.768 81.2836C200.071 81.545 199.287 81.0658 198.808 80.5867C198.328 80.0639 197.893 79.4541 197.109 79.3234L196.847 75.8821Z" fill="#FFCCA9"/>
<path d="M200.419 73.2263C200.245 73.7926 200.027 74.3589 199.722 74.8381C199.417 75.3172 199.068 75.7528 198.633 76.1013L198.11 76.4934L198.764 76.5805C199.286 76.6676 199.765 76.8854 200.157 77.2775C200.55 77.6259 200.898 78.1051 201.072 78.6714C201.116 78.0616 200.898 77.4517 200.462 76.9726C200.07 76.4934 199.46 76.1449 198.851 76.0578L198.981 76.5369C199.46 76.1449 199.853 75.6222 200.114 75.0559C200.375 74.4896 200.462 73.8362 200.419 73.2263Z" fill="#AD6C58"/>
<path d="M186.654 77.4908C186.61 79.7996 190.879 80.2788 190.879 82.6311C190.879 83.8943 189.311 84.7656 188.091 84.3299C186.872 83.9379 186.131 82.6311 186 81.3678C185.87 80.1045 186.175 78.8413 186.523 77.6215L186.654 77.4908Z" fill="#FF9971"/>
<path d="M178.418 75.2675C179.943 74.8319 181.424 76.008 181.99 77.4891L178.418 75.2675Z" fill="white"/>
<path d="M181.557 69.8694C181.426 70.0437 181.252 70.1308 181.034 70.0872C180.903 70.0872 177.505 69.8259 176.024 73.1801C175.894 73.485 175.545 73.6157 175.284 73.485C174.979 73.3543 174.848 73.0059 174.979 72.7445C176.808 68.6498 181.078 68.9982 181.121 68.9982C181.426 69.0418 181.644 69.3032 181.644 69.6081C181.644 69.6952 181.6 69.7823 181.557 69.8694Z" fill="#774B42"/>
<path d="M188.962 69.0941C188.875 69.0506 188.788 68.9635 188.744 68.8763C188.57 68.615 188.701 68.2665 188.962 68.0922C190.051 67.4824 192.273 66.7418 195.148 68.8763L195.235 68.9199C195.496 69.0506 195.583 69.399 195.452 69.6604C195.322 69.9218 194.93 70.0089 194.668 69.8782C194.625 69.8782 194.581 69.8347 194.494 69.7476C192.752 68.4407 191.053 68.1794 189.572 69.0506C189.354 69.1813 189.136 69.1813 188.962 69.0941Z" fill="#774B42"/>
<path d="M182.428 76.8005C182.428 76.8005 182.733 78.6736 179.815 79.0221C176.896 79.3706 175.459 77.5411 175.459 77.5411C175.459 77.5411 176.461 75.5808 178.856 75.363C181.252 75.1452 182.428 76.8005 182.428 76.8005Z" fill="white"/>
<path d="M189.527 75.3975C189.527 75.3975 190.224 76.9221 193.099 76.2687C195.93 75.6153 195.93 73.263 195.93 73.263C195.93 73.263 194.493 71.9561 192.228 72.6967C189.919 73.3936 189.527 75.3975 189.527 75.3975Z" fill="white"/>
<path d="M182.471 76.6314C182.471 76.6314 182.559 78.5481 180.773 78.8966C178.725 79.3322 178.29 75.586 178.29 75.586C178.29 75.586 180.555 74.7583 182.471 76.6314Z" fill="#994F49"/>
<path d="M195.932 73.1842C195.932 73.1842 195.845 75.493 194.32 75.885C192.316 76.4077 191.881 72.7922 191.881 72.7922C191.881 72.7922 194.059 71.616 195.932 73.1842Z" fill="#994F49"/>
<path d="M182.384 76.7518C182.253 76.7954 182.079 76.7082 181.992 76.5776C181.948 76.534 181.121 75.1836 178.943 75.5321C176.634 75.8806 175.806 77.3181 175.763 77.3617C175.676 77.5359 175.414 77.623 175.24 77.4923C175.066 77.4052 174.979 77.1439 175.109 76.9696C175.153 76.8825 176.155 75.1836 178.856 74.748C181.513 74.3124 182.602 76.0548 182.645 76.1419C182.732 76.3162 182.689 76.534 182.515 76.6647C182.471 76.7518 182.428 76.7518 182.384 76.7518Z" fill="#272C3A"/>
<path d="M189.571 75.3256C189.527 75.3256 189.44 75.3256 189.396 75.3256C189.179 75.282 189.091 75.0642 189.135 74.8464C189.178 74.7593 189.745 72.7991 192.054 72.1021C194.667 71.318 196.061 72.6683 196.105 72.7119C196.235 72.8426 196.235 73.104 196.105 73.2347C195.974 73.3653 195.713 73.3653 195.582 73.2347C195.538 73.1911 194.449 72.1456 192.271 72.7991C190.355 73.3653 189.875 74.9335 189.875 75.0206C189.832 75.1949 189.701 75.3256 189.571 75.3256Z" fill="#272C3A"/>
<path d="M191.75 62.8098C196.237 61.3723 199.983 56.7984 199.112 52.1374C198.981 51.3968 198.458 50.4821 197.718 50.6127C196.541 50.8306 196.672 53.27 195.452 53.1393C195.844 51.7889 195.845 49.7415 194.451 49.6108C194.146 49.5673 193.797 49.698 193.492 49.7851C191.314 50.4821 189.18 51.179 187.002 51.9196C187.786 51.4404 188.657 50.9613 189.049 50.09C189.441 49.2624 189.093 47.9991 188.178 47.8684C187.829 47.8248 187.481 47.912 187.132 48.0426C184.432 48.8703 181.731 49.7415 179.03 50.5692C176.634 51.3097 174.151 52.0938 172.147 53.662C170.144 55.1867 168.662 57.6696 169.054 60.1526C167.791 59.325 165.962 59.8477 164.96 61.0238C163.958 62.1564 163.609 63.7246 163.566 65.2492C163.304 70.8686 166.31 76.488 171.102 79.4065C171.363 79.5372 171.625 79.7115 171.93 79.6679C172.626 79.6243 172.844 78.7096 172.844 78.0126C172.844 75.7474 172.365 72.3497 171.973 71.2607C171.276 69.3004 169.621 67.0788 171.058 66.2076C172.626 65.2493 173.672 66.7303 175.284 66.0769C178.202 64.8572 177.2 63.2455 180.25 62.7227C183.996 62.0257 187.655 64.1167 191.75 62.8098Z" fill="#774B42"/>
<path d="M192.622 86.8619C192.622 86.8619 186.96 89.7805 182.211 87.254C182.211 87.254 183.17 92.9605 187.526 92.8298C192.361 92.6991 192.622 86.8619 192.622 86.8619Z" fill="#994F49"/>
<path d="M191.49 87.3378C191.49 87.6863 191.49 88.0783 191.447 88.4268C190.488 89.0802 189.443 89.1238 188.354 89.3416C187.962 89.4287 187.57 89.4723 187.134 89.5158C185.958 89.6029 184.826 89.2544 183.693 88.9495C183.693 88.601 183.649 88.2525 183.649 87.8605C186.699 88.7753 189.835 87.9476 191.49 87.3378Z" fill="white"/>
<path d="M184.564 91.7822C184.826 91.4337 185.218 91.1288 185.61 90.911C186.612 90.3447 187.788 90.0398 188.921 90.1269C189.748 90.214 190.532 90.519 191.142 91.0417C190.402 92.0436 189.225 92.8277 187.527 92.8712C186.263 92.8712 185.305 92.4356 184.564 91.7822Z" fill="#FD4E4C"/>
<path d="M188.919 80.0707C189.442 80.0271 189.965 80.245 190.357 80.5935C190.749 80.942 191.054 81.4647 191.097 82.031C191.141 82.5972 190.967 83.1635 190.618 83.5991C190.27 84.0347 189.79 84.3397 189.268 84.3397C189.703 84.0783 190.008 83.7298 190.226 83.3378C190.444 82.9457 190.531 82.5102 190.487 82.1181C190.444 81.6825 190.27 81.2904 190.008 80.9419C189.747 80.5499 189.355 80.245 188.919 80.0707Z" fill="#D87B56"/>
<path d="M237.586 139.897L216.814 146.305L217.546 148.678L238.318 142.27L237.586 139.897Z" fill="#D4F0FF"/>
<path d="M217.144 152.781C216.927 152.781 216.752 152.606 216.752 152.388L215.533 129.475C215.533 129.258 215.707 129.04 215.925 129.04C216.143 129.04 216.36 129.214 216.36 129.432L217.58 152.345C217.58 152.606 217.406 152.781 217.144 152.781Z" fill="#49516B"/>
<path d="M216.883 147.461C216.84 147.461 216.796 147.461 216.753 147.417C216.535 147.33 216.404 147.112 216.491 146.894L221.022 134C221.109 133.783 221.327 133.652 221.544 133.739C221.762 133.826 221.893 134.044 221.806 134.262L217.276 147.156C217.232 147.33 217.058 147.461 216.883 147.461Z" fill="#49516B"/>
<path d="M197.367 141.579C196.801 143.975 195.842 146.327 194.579 148.418C194.274 148.897 194.1 149.464 194.144 150.073C194.361 152.905 198.892 152.251 204.206 154.212C209.216 156.041 216.708 157.174 217.013 154.299C217.362 151.424 215.837 151.25 211.307 149.333C209.39 148.549 207.952 147.765 206.907 146.153C206.21 145.107 206.079 144.106 205.905 142.581C205.644 142.189 205.339 141.753 204.293 142.058C203.858 142.189 203.422 142.32 202.986 142.45C201.593 142.886 200.068 142.668 198.935 141.753C198.674 141.535 198.413 141.361 198.108 141.231C197.803 141.1 197.454 141.274 197.367 141.579Z" fill="#53688C"/>
<path d="M194.58 148.116C195.408 148.988 196.453 150.643 199.154 151.384C202.334 152.298 205.471 152.952 208.476 153.91C211.395 154.868 214.488 154.999 214.967 153.213C215.185 152.342 215.882 151.95 216.535 151.819C217.624 152.429 218.103 153.474 217.537 154.563C216.012 157.656 209.173 156.001 204.164 154.171C199.154 152.342 194.842 152.777 194.188 150.512C194.014 149.772 194.232 148.944 194.58 148.116Z" fill="#FAD2B8"/>
<path d="M69.3203 61.7114C71.9776 59.8382 75.6367 59.4897 78.5553 60.8401C78.9909 61.0144 79.4265 61.2758 79.6443 61.6678C79.9057 62.0598 79.9056 62.6262 79.5572 62.9311C79.3394 63.1053 79.0344 63.1489 78.7295 63.1924C77.989 63.2796 77.2049 63.3667 76.595 62.9311C77.5534 63.1489 78.4681 63.5409 79.3394 64.1072C80.1235 64.5864 80.864 65.2834 81.0818 66.1982C81.1254 66.416 81.1254 66.6773 81.0382 66.8951C80.7769 67.3307 80.1235 67.2436 79.6443 67.1129C78.7295 66.8516 77.8583 66.5902 76.9435 66.3288C78.6424 67.2871 79.9057 68.9425 80.3848 70.8156C80.4719 71.2077 80.559 71.6432 80.4719 72.0353C80.3412 72.4273 79.9928 72.8194 79.6007 72.8194C79.1651 72.8194 78.8166 72.5145 78.5553 72.2095C77.1178 70.7285 75.7238 69.2474 74.2863 67.8099C75.0268 68.4633 75.506 69.3345 75.6802 70.2928C75.8109 70.9027 75.4624 71.8175 74.8526 71.6433C74.4605 71.5562 74.2863 71.077 74.1556 70.6849C73.4586 68.6811 71.0628 67.505 69.059 68.1584C67.0552 68.8118 65.8355 71.2077 66.4453 73.2115C65.7483 70.9027 65.0949 69.4216 65.7483 66.9822C66.2711 64.8913 67.5343 62.9746 69.3203 61.7114Z" fill="#E38D49"/>
<path d="M36.3445 77.9096C33.9922 78.6066 32.0756 79.6521 30.5074 81.6123C29.4183 83.0063 28.5471 84.923 28.5471 86.709C28.5471 86.8832 28.5907 87.101 28.7213 87.1881C28.8956 87.3188 29.157 87.2317 29.3748 87.1446C29.9846 86.8397 30.5509 86.3605 30.943 85.8378C30.3331 86.9703 29.7232 88.1029 29.5054 89.3662C29.2876 90.6295 29.5054 92.0234 30.3767 92.9382C30.638 93.1995 30.943 93.4174 31.2915 93.4174C31.6399 93.4174 31.9884 93.156 32.2498 92.8946C34.1229 91.0215 34.0793 87.9287 35.4733 85.62C35.0812 86.4476 34.8634 87.4059 34.9506 88.3207C34.9941 88.7563 35.1684 89.2791 35.604 89.2791C35.9525 89.2791 36.2138 88.9742 36.3445 88.6692C36.9108 87.5802 37.2593 86.3605 37.3464 85.1408C37.1722 86.012 37.1722 86.9703 37.3464 87.8416C37.39 87.9722 37.39 88.1029 37.5207 88.1901C37.7385 88.3643 38.087 88.1465 38.3048 87.9287C38.8711 87.2317 39.1324 86.3169 39.3502 85.4022C39.568 84.4874 39.6987 83.5726 40.1343 82.7885C40.5264 81.9608 41.2669 81.2638 42.1817 81.0896C43.0529 80.9589 45.9715 81.3074 46.1022 82.2222C44.534 78.7373 39.7858 76.9077 36.3445 77.9096Z" fill="#E38D49"/>
<path d="M90.0555 123C86.1785 124.568 81.6482 124.307 77.9891 126.31C78.2505 123.218 76.8565 118.818 76.8565 118.818C76.8565 118.818 76.0288 112.24 79.2524 112.981C82.563 113.721 84.5668 115.681 86.1786 117.293C86.5706 117.685 90.404 122.825 90.0555 123Z" fill="#FFB564"/>
<path d="M55.5548 381.06C55.5548 381.06 52.2442 388.726 59.3882 389.293C66.5322 389.859 69.2765 382.715 72.0209 379.971C74.7652 377.226 75.6364 374.003 74.1118 371.215C72.5871 368.427 65.4431 370.649 65.4431 370.649L55.5548 381.06Z" fill="black"/>
<path d="M118.893 186.158L91.4057 186.812C90.6216 162.548 79.6877 124.389 79.6877 124.389C79.6877 124.389 96.8072 119.074 97.5042 117.506C98.8546 114.413 98.114 101.345 98.114 101.345L110.18 106.877C110.18 106.877 109.44 117.942 111.139 118.726C115.669 120.773 121.681 122.995 121.681 122.995C123.946 130.879 129.042 138.11 130.523 146.169C130.741 147.302 130.915 148.478 130.698 149.611C130.393 151.048 129.434 152.311 128.563 153.575C122.77 161.938 119.851 176.313 118.893 186.158Z" fill="#FFCCA9"/>
<g opacity="0.49">
<mask id="mask0_1_28290" style="mask-type:luminance" maskUnits="userSpaceOnUse" x="99" y="105" width="14" height="10">
<path d="M112.968 114.681C112.968 114.681 105.475 115.901 100.335 110.805L99.9429 105.447L112.75 109.062L112.968 114.681Z" fill="white"/>
</mask>
<g mask="url(#mask0_1_28290)">
<path d="M103.08 116.253L100.946 114.554L101.294 116.558L103.08 116.253Z" fill="#C77D4F"/>
</g>
<mask id="mask1_1_28290" style="mask-type:luminance" maskUnits="userSpaceOnUse" x="99" y="105" width="14" height="10">
<path d="M112.968 114.681C112.968 114.681 105.475 115.901 100.335 110.805L99.9429 105.447L112.75 109.062L112.968 114.681Z" fill="white"/>
</mask>
<g mask="url(#mask1_1_28290)">
<path d="M106.868 104.317L112.749 109.065L111.878 103.533L106.868 104.317Z" fill="#DE8B58"/>
</g>
</g>
<path d="M132.918 165.032L149.863 204.89L144.549 208.549C144.549 208.549 125.643 181.454 123.596 169.127C121.592 156.842 132.918 165.032 132.918 165.032Z" fill="#FFCCA9"/>
<path d="M92.7554 119.559C92.7554 119.559 96.3274 132.714 106.477 131.712C116.627 130.667 113.055 119.385 113.055 119.385L125.862 123.959C125.862 123.959 127.909 130.667 130.131 136.853C132.396 143.038 132.004 144.563 126.994 153.101C123.117 159.679 118.848 186.207 118.848 186.207L91.3614 186.861L79.6436 124.438L92.7554 119.559Z" fill="#116EB6"/>
<path d="M79.6449 124.132C79.6449 124.132 73.9384 132.104 70.7149 147.394C67.4478 162.901 61.175 174.489 61.175 174.489C61.175 174.489 66.0103 180.195 72.6752 180.239C72.6752 180.239 90.0124 149.615 90.3174 137.2C90.6223 124.742 79.6449 124.132 79.6449 124.132Z" fill="#116EB6"/>
<path d="M125.862 124.134C125.862 124.134 130.611 128.839 131.7 144.433C132.832 160.246 137.493 176.32 137.493 176.32C137.493 176.32 131.917 181.286 125.296 180.458C125.296 180.458 112.315 147.744 113.753 135.373C115.19 123.001 125.862 124.134 125.862 124.134Z" fill="#116EB6"/>
<path d="M84.7837 154.54C87.5716 148.79 88.3121 142.038 86.8311 135.808L84.7837 154.54Z" fill="#115D98"/>
<path d="M131.046 368.593C131.046 368.593 141.849 372.427 143.983 375.737C145.377 377.872 144.811 382.054 143.156 382.576C138.756 384.057 133.572 382.315 127.125 380.572C123.205 379.527 119.589 378.394 118.195 378.438C118.021 378.438 113.055 377.785 112.968 377.61C112.576 376.565 112.01 370.51 113.229 369.377C114.754 368.114 131.046 368.593 131.046 368.593Z" fill="black"/>
<path d="M128.826 307.434C128.826 307.434 120.985 362.452 123.686 364.238C126.386 366.068 132.572 369.335 136.188 371.164C139.803 372.994 143.375 376.566 142.243 377.742C139.934 380.094 133.443 378.526 128.695 375.999C125.254 374.17 113.275 374.17 112.839 372.384C112.403 370.554 114.276 304.908 114.276 304.908L128.826 307.434Z" fill="#FFCCA9"/>
<path d="M90.7506 310.833C90.7506 310.833 74.0668 368.944 74.0668 371.209C74.0668 373.474 72.2372 376.218 69.9721 378.483C67.7069 380.749 64.3091 383.798 62.0875 384.93C57.6008 387.152 56.4246 382.883 55.5098 381.097C54.595 379.268 63.1765 371.252 65.8773 367.158C68.5781 363.063 74.1539 312.358 74.1539 312.358L90.7506 310.833Z" fill="#FFCCA9"/>
<path d="M116.975 367.071C114.318 367.071 112.706 365.938 112.619 365.851L113.577 364.544C113.708 364.631 117.411 367.202 122.943 363.281L123.901 364.632C121.201 366.505 118.848 367.071 116.975 367.071Z" fill="black"/>
<path d="M112.749 373.251C112.488 372.162 112.749 364.496 112.749 364.496C112.749 364.496 116.321 365.846 117.411 368.895C118.5 371.901 118.761 374.907 118.761 374.907L112.749 373.251Z" fill="black"/>
<path d="M128.649 379.317C128.649 379.317 130.479 367.991 133.441 368.993C136.752 370.082 144.418 376.137 144.549 378.228C144.767 380.972 128.649 379.317 128.649 379.317Z" fill="black"/>
<path d="M126.907 358.616C121.679 361.143 115.581 361.84 110.223 359.705C109.047 340.103 108.742 320.501 108.437 300.855C108.306 293.885 108.219 286.915 108.088 279.945C107.827 263.523 106.302 249.322 106.041 232.899C102.338 277.724 94.1923 318.192 81.3418 361.274C75.8967 361.796 70.1031 360.49 65.5728 357.397C68.7963 333.525 70.8872 312.877 74.1107 289.006C74.8948 283.082 75.7225 277.114 75.8096 271.102C75.9403 264.002 75.069 256.945 74.8077 249.845C73.8058 225.843 79.338 201.579 90.5767 180.365C99.4196 186.768 109.874 186.246 119.763 181.454C133.789 207.198 135.749 239.738 133.31 268.968C130.914 298.197 127.342 329.3 126.907 358.616Z" fill="#1B1A2E"/>
<path d="M106.303 240.832L105.214 240.701C105.257 240.266 105.301 239.743 105.388 239.264C106.085 232.991 107.087 223.495 111.53 220.053L112.184 220.925C108.132 224.061 107.087 233.644 106.477 239.351C106.434 239.874 106.39 240.353 106.303 240.832Z" fill="#49516B"/>
<path d="M106.17 185.727C96.8476 185.727 90.3134 180.935 90.2263 180.848L90.8797 179.977C91.0104 180.064 104.122 189.647 119.499 181.022L120.022 181.981C115.056 184.769 110.351 185.727 106.17 185.727Z" fill="#49516B"/>
<path d="M58.2991 374.474C58.2991 374.474 61.0435 372.296 64.8768 373.908C68.7102 375.563 70.017 378.438 70.017 378.438C70.017 378.438 63.5265 388.37 58.2991 385.974C51.1551 382.707 58.2991 374.474 58.2991 374.474Z" fill="black"/>
<path d="M74.46 375.088L72.8047 374.914C73.1096 372.083 72.5869 369.948 71.2801 368.641C69.3198 366.681 66.0963 367.03 66.0528 367.03L65.835 365.418C66.0092 365.418 69.8426 364.939 72.4127 367.465C74.1551 369.164 74.8521 371.734 74.46 375.088Z" fill="black"/>
<path d="M69.6681 180.849C69.6681 180.849 35.1242 179.847 41.9198 164.208C46.1016 154.625 58.4294 159.242 68.1435 162.074C77.8576 164.905 80.7762 168.477 80.7762 168.477L69.6681 180.849Z" fill="#FFBE8C"/>
<path d="M61.0305 155.859L60.48 157.922L81.861 163.629L82.4115 161.566L61.0305 155.859Z" fill="#D4F0FF"/>
<path d="M78.3366 188.821C78.3366 188.821 75.7664 190.738 75.2437 192.306C74.721 193.83 76.3763 197.228 77.596 199.319C78.8157 201.454 79.1207 204.503 81.3858 207.247C83.8252 210.209 86.134 211.647 89.3139 209.904C92.4068 208.206 90.9257 203.806 90.9257 203.806L78.3366 188.821Z" fill="#49516B"/>
<path d="M70.8002 155.28C70.8002 155.28 92.7113 161.379 99.8553 169.568C106.999 177.757 79.1203 195.313 79.1203 195.313L79.1638 188.256C79.1638 188.256 90.6639 175.318 89.9234 173.837C89.1829 172.356 72.6733 170.788 66.8361 165.952C60.9989 161.074 62.0008 155.629 70.8002 155.28Z" fill="#8D4059"/>
<path d="M86.4393 189.952C86.4393 189.952 87.6154 197.401 89.3143 200.232C91.0567 203.064 92.3636 206.2 88.7044 207.855C85.0453 209.511 80.9942 203.63 79.2953 198.795C77.5964 193.916 76.5509 190.997 78.3369 188.819C80.1665 186.641 83.7385 186.467 83.7385 186.467L86.4393 189.952Z" fill="#8D4059"/>
<path d="M82.5624 200.89C86.4394 206.292 89.3144 199.932 89.3144 199.932C89.3144 199.932 91.3182 202.85 91.1875 205.507C91.0568 208.165 88.2253 210.43 84.6969 208.47C81.1685 206.509 79.2953 199.888 78.1628 197.797C77.0302 195.706 75.3749 192.004 77.1609 189.825C78.9904 187.647 81.6476 186.689 81.6476 186.689C80.6893 187.865 78.9904 189.39 79.0775 191.829C79.1647 194.312 81.212 199.017 82.5624 200.89Z" fill="#FD5553"/>
<path d="M80.0354 197.793C80.0354 197.793 83.5203 193.175 87.92 195.048L88.1378 196.616C88.1378 196.616 83.0847 196.007 81.2116 199.666L80.0354 197.793Z" fill="#FD5553"/>
<path d="M23.4061 91.5018C23.4061 91.5018 23.1883 88.8446 24.016 86.7101C25.0615 84.0093 27.0653 82.354 26.6297 81.2215C26.1505 79.9146 24.1902 82.0055 22.9705 84.0093C22.9705 84.0093 21.4895 81.6571 21.7508 79.0434C22.0122 76.4297 22.5349 75.2971 21.7508 74.5131C20.9667 73.729 20.0084 76.604 19.747 78.6949C19.4857 80.7858 19.6599 81.6571 19.6599 81.6571C19.6599 81.6571 19.2243 80.0017 19.2243 78.1722C19.2243 76.4297 19.4857 73.7725 18.5273 73.2498C17.569 72.727 17.3076 76.1684 17.1334 78.1722C16.9591 80.176 17.1334 81.8749 17.1334 81.8749C17.1334 81.8749 16.7413 79.5226 16.6542 78.2157C16.5235 76.604 16.8284 75.3407 16.3057 74.7309C15.783 74.121 15.1731 75.5585 15.0424 77.7366C14.8682 80.5245 15.3038 82.3976 15.2603 82.3105C14.5197 81.0908 14.6068 77.6494 13.8663 77.693C13.3 77.7365 13.2129 79.2612 13.3 80.8294C13.3871 82.6154 13.997 85.2291 15.0424 87.1022C16.0879 88.9317 16.872 90.3692 17.4819 92.3731C18.0917 94.3769 23.8417 91.7632 23.8417 91.7632L23.4061 91.5018Z" fill="#FFCCA9"/>
<path d="M23.1009 84.0105C22.0555 84.3154 21.1842 84.8818 20.5308 85.6659C19.8774 86.45 19.4418 87.4083 19.3547 88.4973C19.1804 87.9746 19.224 87.3647 19.3547 86.842C19.4854 86.2757 19.7903 85.7966 20.1388 85.361C20.5308 84.9253 20.9664 84.5768 21.4892 84.3155C22.0119 84.0541 22.5782 83.9234 23.1009 84.0105Z" fill="#D87B56"/>
<path d="M20.7928 80.9131C19.6602 80.9567 18.6147 81.1745 17.6128 81.5666C16.6109 81.9586 15.6962 82.5685 14.825 83.2654C15.4784 82.3507 16.4367 81.6537 17.4822 81.2181C18.4841 80.8261 19.6602 80.6953 20.7928 80.9131Z" fill="#D87B56"/>
<path d="M68.4913 102.565C68.4913 102.565 67.4459 107.531 69.5368 112.715C69.5368 112.715 69.2754 115.59 64.5709 115.59C59.8663 115.59 58.2981 113.238 58.2981 113.238C58.2981 113.238 60.9117 109.317 60.389 102.304L68.4913 102.565Z" fill="#FFCCA9"/>
<path d="M77.4222 148.922C79.426 126.706 80.5151 113.333 80.5151 113.333C80.5151 113.333 71.9335 111.677 69.4506 110.937C69.407 110.937 68.1002 114.073 64.2232 114.073C60.3028 114.073 58.9959 110.675 58.9959 110.675C58.9959 110.675 47.5394 113.812 36.562 107.016C25.6282 100.221 23.7987 91.1166 23.7987 91.1166L17.0032 92.1621C17.0032 92.1621 18.5714 106.319 30.0715 115.424C41.528 124.528 50.458 125.66 50.458 125.66L51.2856 149.096C51.2856 149.096 61.2611 152.015 64.4411 151.971C67.7952 151.971 77.4222 148.922 77.4222 148.922Z" fill="#FFB564"/>
<path d="M69.4493 110.932C69.4493 110.932 68.3167 114.068 64.222 114.068C60.1273 114.068 58.9947 110.671 58.9947 110.671L56.7295 111.193C56.7295 111.193 57.775 116.421 64.0478 116.682C70.3205 116.943 71.6273 111.455 71.6273 111.455L69.4493 110.932Z" fill="#FD5553"/>
<path d="M23.8416 90.8912L17.0461 92.1545L17.4818 94.8117L24.4515 93.3306L23.8416 90.8912Z" fill="#FD5553"/>
<g opacity="0.24">
<path d="M68.448 108.577C67.9689 105.179 68.4916 102.565 68.4916 102.565L60.3893 102.304C60.5635 104.787 60.3457 106.878 60.0408 108.533C62.4802 109.361 65.3116 109.404 68.448 108.577Z" fill="#994F49"/>
</g>
<path d="M77.0303 85.2755C77.0303 85.2755 78.0758 76.9117 71.5416 71.7715C64.9203 66.5442 56.0775 72.3379 56.0775 72.3379C56.0775 72.3379 46.0585 74.1674 43.7062 82.836C41.3539 91.5047 52.6362 100.652 52.6362 100.652L77.0303 85.2755Z" fill="#E38D49"/>
<path d="M45.6219 76.5618C47.6692 77.2152 44.7071 80.0902 44.7071 80.0902C44.7071 80.0902 48.0177 78.3042 48.0177 80.4823C48.0177 82.5296 44.5764 81.3099 44.5764 81.3099C44.5764 81.3099 46.9723 84.0543 44.8813 84.5335C42.4855 85.0998 42.9646 81.702 42.9646 81.702C42.9646 81.702 41.4836 84.7948 39.8283 83.3137C38.1294 81.7455 41.7449 80.5258 41.7449 80.5258C41.7449 80.5258 37.3453 80.0467 38.6085 78.1736C39.8718 76.2569 42.3112 79.4368 42.3112 79.4368C42.3112 79.4368 40.4817 76.2569 41.9192 75.8213C43.3567 75.4292 43.6616 78.6527 43.6616 78.6527C43.6616 78.6527 44.0972 76.0826 45.6219 76.5618Z" fill="#B3E2FF"/>
<path d="M44.4031 80.2211C44.3595 79.6112 43.8368 79.132 43.2269 79.1756C42.6171 79.2192 42.1379 79.7419 42.1815 80.3518C42.225 80.9616 42.7478 81.4408 43.3576 81.3972C44.011 81.3536 44.4466 80.8309 44.4031 80.2211Z" fill="#FF4545"/>
<path d="M56.121 76.9949C66.7498 71.9418 71.3673 77.8225 72.7177 80.2619C73.7631 82.1786 74.9393 85.4457 76.4204 88.3643C78.337 92.1541 78.2499 103.088 68.8843 105.702C60.7384 107.967 54.727 104.046 51.5471 97.1636C49.0205 91.6314 45.7535 81.9172 56.121 76.9949Z" fill="#FFCCA9"/>
<path d="M64.7017 93.8102C64.8323 93.3311 65.0937 92.8519 65.4422 92.4599C65.5293 92.3727 65.6164 92.2421 65.7036 92.1549C65.8342 92.0678 65.9649 91.9807 66.0956 91.8936C66.357 91.7629 66.7055 91.7629 67.0104 91.8064C67.6202 91.9807 68.0558 92.5034 68.2736 92.9826C68.4914 93.5053 68.535 94.0281 68.4479 94.5508C68.1865 94.1152 67.9687 93.636 67.7074 93.2875C67.446 92.939 67.1411 92.6341 66.7926 92.5034C66.6183 92.4163 66.4441 92.4163 66.2698 92.4599C66.1827 92.4599 66.0521 92.5034 66.0085 92.547C65.9214 92.5906 65.8342 92.6777 65.7471 92.7648C65.3551 93.0697 65.0066 93.4182 64.7017 93.8102Z" fill="#D87B56"/>
<path d="M71.8451 83.3119C71.5402 82.2664 66.8791 82.8763 67.2712 84.1831C67.4454 84.9236 72.0629 84.0524 71.8451 83.3119Z" fill="#E38D49"/>
<path d="M58.5589 87.6712C59.2123 88.586 54.9869 90.8076 54.4206 90.1106C53.8979 89.3701 57.8619 86.7129 58.5589 87.6712Z" fill="#E38D49"/>
<path d="M67.4464 75.0814C69.1889 75.9962 71.2362 77.5209 72.4995 81.1364L68.7968 81.9205L65.5733 77.7387L67.5771 82.0948C67.5771 82.0948 64.0051 83.4452 60.0411 85.3619C59.6926 85.5361 57.5581 81.6156 57.5581 81.6156C57.5581 81.6156 58.56 85.7975 58.3857 85.8846C57.9937 86.1024 57.6016 86.2766 57.2096 86.4944C57.0353 86.5816 55.9899 84.7084 55.7721 84.8391C55.5978 84.9698 56.2512 87.0607 56.0334 87.1914C54.5088 88.1062 53.0277 89.1081 51.8951 89.9793C51.8951 89.9793 49.2815 85.8846 51.416 81.7898C53.594 77.7387 62.5676 72.5113 67.4464 75.0814Z" fill="#E38D49"/>
<path d="M73.153 80.5734C74.8519 83.1435 75.7667 86.1492 76.6379 89.0678C77.4656 85.5829 76.1152 81.9238 74.3727 78.8309C73.4579 77.2627 72.4125 75.7381 71.0186 74.5619C69.0147 72.9066 66.4011 72.079 63.7874 72.079C61.1738 72.079 58.6037 72.7759 56.2949 73.9085C56.8177 75.1718 57.2968 76.4786 57.8196 77.7419C57.5582 77.0885 65.3992 75.5638 66.3575 75.6945C69.1019 75.9994 71.672 78.3518 73.153 80.5734Z" fill="#E38D49"/>
<path d="M57.8621 77.6079C54.0287 79.0454 51.1973 82.8352 50.8488 86.8864C50.7181 88.4982 50.9359 90.1535 51.2844 91.7652C51.7635 94.0739 52.5041 96.3391 53.4624 98.5172C50.9359 97.1232 49.3241 94.466 48.4094 91.7652C47.1025 88.0625 46.8847 83.8371 48.4965 80.2651C50.1082 76.6931 52.8526 74.9071 56.5117 74.0795L57.8621 77.6079Z" fill="#E38D49"/>
<g opacity="0.23">
<path d="M53.8546 99.3002C53.811 99.2565 53.811 99.2128 53.7673 99.1255C53.811 99.1255 53.811 99.0819 53.8546 99.0382C53.8546 99.0819 53.811 99.2565 53.8546 99.3002Z" fill="#514247"/>
</g>
<path d="M53.4189 98.3913C52.8962 97.6944 52.1121 97.1716 51.2409 96.8667C50.5874 96.6489 49.8034 96.6053 49.2371 97.0409C48.5401 97.6072 48.6272 98.5656 48.8885 99.3062C49.4984 100.918 50.7617 102.312 52.3734 103.139C52.6348 103.27 52.9397 103.401 53.2882 103.314C53.8545 103.183 54.0723 102.573 54.1594 102.05C54.2466 101.528 54.2466 100.961 54.6386 100.569L53.4189 98.3913Z" fill="#FFCCA9"/>
<path d="M50.1094 98.2997C50.7628 98.866 51.5469 99.258 52.4181 99.3016L52.8101 99.3452L52.5052 99.6065C51.9389 100.129 51.7211 101.044 52.026 101.872C51.5033 101.175 51.5904 99.9986 52.2874 99.3452L52.3745 99.6501C51.4597 99.6065 50.5885 99.0838 50.1094 98.2997Z" fill="#AD5858"/>
<path d="M75.8534 88.7973C75.7228 87.926 75.8535 87.0113 76.2455 86.1836C76.5504 85.5738 77.0296 84.9639 77.7266 84.8332C78.5978 84.7025 79.2512 85.4431 79.5997 86.1401C80.3402 87.7083 80.4709 89.5814 79.9482 91.3238C79.8611 91.6288 79.7304 91.9337 79.469 92.1079C78.9898 92.4129 78.38 92.1951 77.9444 91.8901C77.5088 91.5852 77.1167 91.1932 76.5504 91.2367L75.8534 88.7973Z" fill="#FFCCA9"/>
<path d="M78.0757 86.3589C78.3371 87.2301 78.0757 88.232 77.5094 88.929L77.3788 88.6241C78.3371 88.5805 79.2519 89.2775 79.3826 90.1923C78.9905 89.4082 78.2064 88.9725 77.4223 89.0161H77.0303L77.2916 88.7112C77.7272 88.0578 78.0322 87.2301 78.0757 86.3589Z" fill="#AD5858"/>
<g opacity="0.14">
<path d="M55.6851 72.4196C57.2098 73.2037 58.6037 74.162 59.7798 75.7302C57.8632 74.6412 55.9029 73.5522 53.812 72.9859C54.6397 72.6809 55.2931 72.5067 55.6851 72.4196Z" fill="black"/>
</g>
<path d="M70.4957 65.9278C72.543 66.5812 69.5809 69.4562 69.5809 69.4562C69.5809 69.4562 72.8915 67.6702 72.8915 69.8482C72.8915 71.8956 69.4502 70.6759 69.4502 70.6759C69.4502 70.6759 71.846 73.4203 69.7551 73.8994C67.3593 74.4657 67.8384 71.068 67.8384 71.068C67.8384 71.068 66.3574 74.1608 64.7021 72.6797C63.0032 71.1115 66.6187 69.8918 66.6187 69.8918C66.6187 69.8918 62.2191 69.4127 63.4823 67.5395C64.7456 65.6229 67.185 68.8028 67.185 68.8028C67.185 68.8028 65.3555 65.6229 66.793 65.1872C68.2305 64.7952 68.5354 68.0187 68.5354 68.0187C68.5354 68.0187 68.971 65.4486 70.4957 65.9278Z" fill="#B3E2FF"/>
<path d="M69.2747 69.5465C69.2311 68.9367 68.7084 68.4575 68.0985 68.501C67.4887 68.5446 67.0095 69.0674 67.053 69.6772C67.0966 70.2871 67.6193 70.7662 68.2292 70.7226C68.8826 70.7226 69.3182 70.1999 69.2747 69.5465Z" fill="#FF4545"/>
<path d="M77.9869 144.956C77.7255 144.956 77.5512 144.738 77.5948 144.52C77.6819 141.427 79.2066 120.605 80.2956 117.382C80.3827 117.164 80.6005 117.033 80.8183 117.12C81.0361 117.207 81.1668 117.425 81.0797 117.643C80.0342 120.692 78.5096 140.817 78.4225 144.564C78.4225 144.782 78.2047 144.956 77.9869 144.956Z" fill="#D17742"/>
<path d="M50.6309 126.094C50.4131 126.094 50.2388 125.92 50.2388 125.746C49.8468 122.348 49.4112 120.823 47.5816 118.471C47.4509 118.297 47.4945 118.035 47.6687 117.905C47.843 117.774 48.1043 117.817 48.235 117.992C50.1517 120.475 50.6309 122.174 51.0665 125.702C51.11 125.92 50.9358 126.138 50.718 126.138C50.6744 126.094 50.6309 126.094 50.6309 126.094Z" fill="#D17742"/>
<path d="M68.3592 192.479C68.3592 192.479 66.0069 194.657 65.6584 196.269C65.3099 197.88 67.3137 201.017 68.7513 203.021C70.1888 205.024 70.7986 208.03 73.3687 210.513C76.113 213.214 78.5525 214.39 81.5146 212.299C84.3896 210.295 82.473 206.026 82.473 206.026L68.3592 192.479Z" fill="#49516B"/>
<path d="M57.5117 159.808C57.5117 159.808 81.5574 164.164 89.4855 171.613C97.4136 179.062 69.6217 198.839 69.6217 198.839L68.9683 191.782C68.9683 191.782 80.904 178.452 80.0327 177.058C79.1615 175.664 60.8224 175.011 54.5496 170.742C48.3204 166.516 48.7995 160.984 57.5117 159.808Z" fill="#8D4059"/>
<path d="M76.5478 192.744C76.5478 192.744 78.508 200.019 80.5118 202.676C82.5156 205.333 84.1709 208.295 80.6861 210.343C77.2012 212.39 72.5402 206.988 70.3621 202.327C68.1405 197.666 66.7901 194.879 68.3583 192.483C69.9265 190.13 73.4985 189.564 73.4985 189.564L76.5478 192.744Z" fill="#8D4059"/>
<path d="M73.8485 204.024C78.2917 208.99 80.4697 202.369 80.4697 202.369C80.4697 202.369 82.7784 205.07 82.9527 207.727C83.0834 210.384 80.5568 212.954 76.8106 211.386C73.0644 209.818 70.5378 203.414 69.1874 201.454C67.837 199.494 65.7897 196.009 67.3579 193.657C68.9261 191.304 70.0587 190.695 70.0587 190.695C69.2746 191.958 69.1439 193.047 69.4488 195.486C69.7973 197.795 72.3238 202.282 73.8485 204.024Z" fill="#FD5553"/>
<path d="M71.0183 201.191C71.0183 201.191 73.9804 196.225 78.5979 197.662L78.99 199.231C78.99 199.231 73.8933 199.143 72.4122 202.977L71.0183 201.191Z" fill="#FD5553"/>
<path d="M71.4523 201.283C71.0603 201.195 70.6682 201.457 70.5811 201.805C70.494 202.197 70.7553 202.589 71.1038 202.676C71.4959 202.764 71.8879 202.502 71.975 202.154C72.0621 201.762 71.8008 201.37 71.4523 201.283Z" fill="#FFC82D"/>
<path d="M58.1679 174.098L57.9065 173.052C59.1698 172.704 59.8667 171.223 59.7796 169.959C59.6925 168.435 58.7777 167.084 57.9936 166.039C57.7758 165.777 57.558 165.472 57.3402 165.211C56.5997 164.253 55.8156 163.251 55.2928 162.075C54.6394 160.681 54.3781 159.025 54.4216 156.978C54.5088 152.97 55.7285 148.919 57.9501 145.609L58.8649 146.219C56.7739 149.398 55.5978 153.232 55.5542 157.022C55.5107 158.895 55.772 160.419 56.3383 161.639C56.8175 162.685 57.5145 163.599 58.255 164.558C58.4728 164.863 58.6906 165.124 58.9084 165.429C59.7796 166.605 60.7815 168.13 60.9122 169.959C60.9558 171.571 60.041 173.618 58.1679 174.098Z" fill="#D17742"/>
<path d="M51.9823 166.122C49.7171 164.554 48.4974 161.461 48.8895 158.237C49.238 155.188 50.8062 152.487 52.1565 150.44L53.0713 151.05C51.8081 152.966 50.2834 155.58 49.9785 158.368C49.6736 161.2 50.6755 163.857 52.6357 165.207L51.9823 166.122Z" fill="#D17742"/>
<path d="M69.0147 174.918C69.0147 174.918 77.4656 175.528 80.3841 174.308C83.3027 173.045 86.5262 172.696 86.8312 173.742C87.1361 174.787 81.5167 176.922 81.5167 176.922C81.5167 176.922 85.5679 178.011 88.5736 177.096C91.5793 176.225 92.7119 176.138 92.9733 176.878C93.2782 177.619 90.7952 179.318 88.3994 179.623C86.0035 179.928 83.8254 180.015 83.8254 180.015C83.8254 180.015 86.9618 180.755 89.3577 180.625C91.5793 180.494 93.3217 179.666 93.5395 180.668C93.7573 181.626 91.3615 182.672 88.7478 182.89C86.1342 183.107 82.8236 182.759 82.8236 182.759C82.8236 182.759 85.5679 184.109 87.441 183.979C89.8369 183.848 91.4051 183.325 91.7971 184.284C92.1456 185.242 88.3558 186.375 86.0035 185.983C83.6948 185.591 81.9088 185.503 81.9088 185.503C81.9088 185.503 84.958 186.418 87.049 186.462C88.8785 186.462 89.6626 186.854 88.7043 187.681C87.7459 188.509 85.6115 188.64 82.9542 187.856C80.2535 187.072 75.5053 185.678 73.5015 184.719C71.4977 183.761 66.5317 180.407 66.5317 180.407L69.0147 174.918Z" fill="#FFBE8C"/>
<path d="M61.5208 91.6812C61.5208 91.6812 62.0871 93.4237 59.3428 94.1206C56.5985 94.8612 55.0303 93.293 55.0303 93.293C55.0303 93.293 55.7272 91.3327 57.9924 90.7664C60.1705 90.2437 61.5208 91.6812 61.5208 91.6812Z" fill="white"/>
<path d="M68.0571 89.4308C68.0571 89.4308 68.9284 90.7812 71.5856 89.7793C74.1992 88.7774 73.8943 86.5122 73.8943 86.5122C73.8943 86.5122 72.3697 85.4668 70.2788 86.4687C68.1878 87.427 68.0571 89.4308 68.0571 89.4308Z" fill="white"/>
<path d="M61.5224 91.4556C61.5224 91.4556 61.8274 93.2416 60.2156 93.8515C58.3425 94.5049 57.4277 91.02 57.4277 91.02C57.4277 91.02 59.4315 89.931 61.5224 91.4556Z" fill="#AE564E"/>
<path d="M73.8499 86.4135C73.8499 86.4135 74.0677 88.6352 72.6738 89.2015C70.8007 89.942 69.9294 86.5878 69.9294 86.5878C69.9294 86.5878 71.8897 85.1938 73.8499 86.4135Z" fill="#AE564E"/>
<path d="M61.4385 91.6309C61.3078 91.6745 61.1336 91.6309 61.0465 91.5002C61.0029 91.4567 60.001 90.3241 57.9972 90.9339C55.8627 91.5873 55.2093 93.0249 55.2093 93.112C55.1222 93.2862 54.9044 93.3733 54.7301 93.3298C54.5559 93.2427 54.4688 93.0249 54.5123 92.8506C54.5559 92.7635 55.2964 91.021 57.7794 90.2805C60.2624 89.54 61.5256 91.0211 61.5692 91.1082C61.6999 91.2824 61.6563 91.5002 61.5256 91.6309C61.5256 91.5873 61.4821 91.6309 61.4385 91.6309Z" fill="#994F49"/>
<path d="M68.102 89.3226C68.0585 89.3226 67.9713 89.3661 67.9278 89.3226C67.71 89.279 67.5793 89.1048 67.6228 88.9305C67.6228 88.8434 67.9278 86.8831 70.0187 85.9248C72.4146 84.8358 73.8956 85.9248 73.9392 85.9683C74.1134 86.099 74.1134 86.3169 73.9828 86.4911C73.8521 86.6654 73.6343 86.6653 73.46 86.5782C73.4165 86.5347 72.2403 85.707 70.2801 86.6218C68.5376 87.4059 68.3198 88.9741 68.2763 89.0612C68.3198 89.1483 68.2327 89.279 68.102 89.3226Z" fill="#994F49"/>
<path d="M121.593 171.309H121.549C121.331 171.266 121.157 171.048 121.201 170.83L123.945 153.057C124.293 150.836 124.642 148.527 124.685 146.262C124.773 141.034 123.117 135.851 120.024 131.669C119.894 131.495 119.937 131.233 120.112 131.103C120.286 130.972 120.547 131.015 120.678 131.19C123.858 135.546 125.557 140.904 125.47 146.305C125.426 148.658 125.078 150.966 124.729 153.232L121.985 171.004C121.941 171.179 121.767 171.309 121.593 171.309Z" fill="#12507F"/>
<path d="M85.4796 157.109C85.2617 157.109 85.0875 156.978 85.0875 156.761C84.1727 151.403 83.9985 145.957 84.4777 140.556C84.4777 140.338 84.6955 140.164 84.9133 140.164C85.1311 140.164 85.3053 140.382 85.3053 140.599C84.8262 145.957 85.0439 151.315 85.9152 156.63C85.9587 156.848 85.7845 157.065 85.5667 157.109C85.5231 157.109 85.5231 157.109 85.4796 157.109Z" fill="#12507F"/>
<path d="M71.018 96.7377C71.018 96.7377 66.7055 99.5691 62.6543 97.9573C62.6543 97.9573 63.9176 102.488 67.446 102.009C71.2794 101.486 71.018 96.7377 71.018 96.7377Z" fill="#994F49"/>
<path d="M70.1042 97.2168C70.1477 97.5217 70.1478 97.7831 70.1478 98.088C69.4508 98.6979 68.5795 98.8286 67.7083 99.0899C67.4034 99.1771 67.0549 99.2642 66.75 99.3077C65.8352 99.4384 64.8769 99.3077 63.9185 99.1335C63.875 98.8721 63.8314 98.5672 63.7878 98.2623C66.4015 98.785 68.8409 97.8267 70.1042 97.2168Z" fill="white"/>
<path d="M64.9197 101.402C65.0939 101.097 65.3988 100.836 65.7038 100.618C66.4443 100.052 67.3591 99.703 68.3174 99.703C68.9708 99.703 69.6243 99.8773 70.1905 100.226C69.6678 101.097 68.7966 101.794 67.4026 102.012C66.4007 102.142 65.5731 101.838 64.9197 101.402Z" fill="#FD4E4C"/>
<path d="M77.6391 146.391C77.2906 151.27 81.9952 154.276 86.3949 156.454C90.7946 158.632 94.9764 161.289 96.4575 165.95C94.4101 166.473 93.4082 165.122 91.5786 164.033C89.7491 162.944 86.8741 162.596 85.9593 164.512C85.6979 165.035 85.6544 165.645 85.4365 166.211C84.6525 168.128 81.9081 168.346 79.9479 167.692C77.9876 167.039 76.0709 165.819 73.98 165.994C71.5842 166.211 69.7982 168.215 68.6656 170.306C67.533 172.397 66.7924 174.749 65.3114 176.622C62.175 180.499 55.728 181.109 51.9382 177.842C48.4533 174.836 47.0158 169.261 42.5725 168.041C40.6994 167.518 38.3907 167.91 37.0403 166.473C36.5176 165.906 36.2126 165.122 36.1255 164.338C35.6028 160.156 39.3055 156.759 42.8339 154.537C46.3624 152.272 50.4571 149.876 51.3719 145.781L77.6391 146.391Z" fill="#FFB564"/>
<path d="M49.8045 171.089C49.6738 171.089 49.5431 171.045 49.456 170.914C49.3253 170.74 49.3688 170.479 49.5431 170.348C50.937 169.259 52.3746 167.952 52.2003 166.428C52.0696 165.164 50.937 164.162 48.759 163.291C47.0166 162.594 45.0128 161.81 44.3593 159.98C43.9237 158.761 44.1851 157.28 45.0999 155.929C46.1454 154.361 47.7571 153.316 49.3253 152.27C49.7173 152.009 50.1094 151.747 50.5014 151.486C52.8537 149.874 54.0734 148.132 54.1606 146.389C54.1606 146.172 54.3784 145.997 54.5962 145.997C54.814 145.997 54.9882 146.215 54.9882 146.433C54.9011 148.48 53.5507 150.397 50.9806 152.183C50.5886 152.444 50.1965 152.706 49.7609 153.011C48.2798 153.969 46.7552 154.971 45.7533 156.409C45.0128 157.541 44.7514 158.761 45.0999 159.719C45.6662 161.2 47.4522 161.941 49.0204 162.551C51.5034 163.553 52.8102 164.772 52.9844 166.384C53.2022 168.344 51.5905 169.825 50.0223 171.045C49.9787 171.045 49.8916 171.089 49.8045 171.089Z" fill="#D17742"/>
<path d="M72.892 161.115C72.7177 161.115 72.5871 161.028 72.4999 160.853C72.0643 159.852 71.3238 158.937 70.3655 158.327C69.9298 158.022 69.5814 157.891 69.1893 157.804C68.5795 157.674 67.926 157.891 67.2291 158.066C67.0548 158.109 66.8806 158.153 66.7499 158.196C64.2233 158.85 61.6533 158.414 59.9108 157.02C57.9941 155.495 56.9487 149.484 58.1684 147.262C58.2991 147.045 58.5169 147.001 58.7347 147.088C58.9525 147.219 58.996 147.437 58.9089 147.655C57.8634 149.528 58.8653 155.147 60.4335 156.367C61.9582 157.586 64.2669 157.978 66.5321 157.369C66.7063 157.325 66.837 157.281 67.0113 157.238C67.7518 157.02 68.5359 156.802 69.32 156.977C69.7992 157.064 70.2783 157.281 70.8011 157.63C71.8465 158.327 72.7178 159.372 73.1969 160.505C73.284 160.723 73.1969 160.941 72.9791 161.028C72.9791 161.115 72.9355 161.115 72.892 161.115Z" fill="#D17742"/>
<path d="M77.7702 144.61C77.7702 144.61 65.6602 147.354 51.0673 144.043L50.8931 146.962C50.8931 146.962 55.4234 148.879 64.2663 148.879C73.1092 148.879 77.7702 147.485 77.7702 147.485V144.61Z" fill="#FD5553"/>
<g opacity="0.24">
<path d="M109.293 114.972C109.504 114.96 109.838 114.855 110.05 114.844C110.035 112.969 110.029 109.654 110.029 109.654L97.8154 104.283C97.8154 104.283 98.1119 106.667 98.3137 109.666C101.09 113.183 105.038 115.59 109.293 114.972Z" fill="#994F49"/>
</g>
<path d="M120.997 102.92C120.997 102.92 124.776 105.682 123.509 108.692C123.509 108.692 123.447 107.841 123.073 107.509C123.073 107.509 123.364 109.439 121.848 110.311C121.848 110.311 122.492 108.111 120.54 107.01C120.54 107.01 119.855 108.36 118.381 108.007C118.381 108.007 118.651 108.464 119.544 108.526C119.544 108.526 117.883 109.439 116.056 108.339C116.056 108.339 114.167 109.771 111.405 108.505H93.0107C91.5366 103.958 85.848 81.6606 100.962 74.6433C100.962 74.6433 122.824 81.5568 121.973 91.0655C121.142 100.595 120.997 102.92 120.997 102.92Z" fill="#1B1A2E"/>
<path d="M105.616 110.385C99.3248 110.385 94.2383 105.298 94.2383 99.0078V85.0977C94.2383 78.807 99.3248 73.7205 105.616 73.7205C111.906 73.7205 116.993 78.807 116.993 85.0977V99.0078C116.993 105.278 111.906 110.385 105.616 110.385Z" fill="#FFCCA9"/>
<path d="M101.502 76.0317C101.502 76.0317 104.409 74.9729 108.706 78.4608C112.983 81.9694 115.952 88.1148 120.686 90.6892C120.686 90.6892 122.118 101.672 117.094 104.765C117.094 104.765 121.018 105.492 122.056 100.26C122.056 100.26 127.807 95.2359 117.862 77.5265C116.139 73.478 104.097 64.3015 91.5574 73.8933C91.5574 73.8933 85.412 77.2151 83.6265 88.8414C83.6265 88.8414 78.3116 104.786 91.1421 108.129C91.1421 108.129 94.8584 111.803 97.9726 109.146C97.9726 109.146 95.7719 108.461 95.0038 107.464C95.0038 107.464 99.2183 109.457 101.585 107.63C101.585 107.63 96.5193 106.842 95.1076 104.412C95.1076 104.412 97.3913 106.717 99.5713 104.288C99.5713 104.288 90.374 103.707 91.848 91.2498C91.848 91.2498 98.4294 94.364 99.2806 86.6407C100.07 79.1459 101.502 76.0317 101.502 76.0317Z" fill="#1B1A2E"/>
<path d="M122.012 100.246C122.22 100.1 122.407 99.9133 122.594 99.7265C122.781 99.5396 122.947 99.332 123.092 99.1452C123.403 98.7299 123.673 98.2939 123.881 97.8372C124.089 97.3804 124.255 96.8822 124.379 96.3839C124.483 95.8856 124.566 95.3666 124.608 94.8683C124.628 94.3493 124.649 93.8303 124.608 93.3112C124.608 93.1867 124.587 93.0621 124.566 92.9168L124.525 92.5223C124.483 92.2732 124.441 92.0033 124.379 91.7541C124.151 90.7368 123.756 89.761 123.32 88.8268C122.365 86.979 121.41 85.1105 120.476 83.2212C119.563 81.3319 118.691 79.4426 117.819 77.5326L117.86 77.5118C118.4 78.4046 118.898 79.3388 119.396 80.2523C119.895 81.1658 120.372 82.1001 120.85 83.0344C121.327 83.9686 121.763 84.9236 122.22 85.8579C122.448 86.3354 122.656 86.8129 122.884 87.2904C122.988 87.5188 123.113 87.7679 123.217 87.9963L123.528 88.723C123.922 89.6987 124.255 90.6953 124.525 91.7126C124.794 92.7299 124.961 93.7887 124.961 94.8476C124.94 95.9064 124.691 96.986 124.192 97.941C123.694 98.896 122.988 99.7265 122.054 100.266L122.012 100.246Z" fill="#1B1A2E"/>
<path d="M101.5 76.0379C101.002 77.8441 100.67 79.6711 100.358 81.5189C100.296 81.9756 100.192 82.4324 100.13 82.8891L100.026 83.5742C99.9844 83.8026 99.9636 84.031 99.9221 84.2594C99.7976 85.1936 99.7353 86.1279 99.7145 87.0621C99.6937 87.5189 99.6937 87.9964 99.6315 88.4739C99.5692 88.9514 99.4654 89.4082 99.32 89.8649C99.1539 90.3217 98.9256 90.7577 98.5934 91.1314C98.4273 91.3182 98.2405 91.4843 98.0328 91.6296C97.8252 91.775 97.5968 91.8788 97.3685 91.9618C96.9117 92.1279 96.4135 92.1902 95.936 92.2109C95.4584 92.2109 94.9809 92.1694 94.5034 92.0656C93.5692 91.8788 92.6764 91.5881 91.8044 91.2144L91.8252 91.1729C92.7387 91.4013 93.6314 91.6296 94.5657 91.7542C95.0224 91.8165 95.4792 91.8372 95.936 91.8165C96.3927 91.7957 96.8287 91.7127 97.2439 91.5673C97.6591 91.422 98.0328 91.1729 98.3235 90.8615C98.6349 90.55 98.8425 90.1556 99.0294 89.7403C99.1955 89.3251 99.32 88.8684 99.4031 88.4324C99.4446 88.204 99.4861 87.9756 99.5069 87.7473C99.5277 87.5189 99.5484 87.2905 99.5692 87.0414L99.7976 84.2386C99.8183 84.0102 99.8391 83.7611 99.8391 83.5327L99.9014 82.8268C99.9429 82.3493 99.9844 81.8926 100.047 81.4358C100.109 80.9791 100.192 80.5015 100.296 80.0448C100.379 79.5881 100.483 79.1313 100.607 78.6746C100.836 77.7611 101.106 76.8683 101.479 75.9963L101.5 76.0379Z" fill="#1B1A2E"/>
<path d="M116.989 87.788C117.3 88.0371 117.591 88.2862 117.902 88.5354C118.193 88.7845 118.504 89.0336 118.795 89.2828C119.086 89.5319 119.397 89.7603 119.709 90.0094C120.02 90.2378 120.331 90.4662 120.643 90.6946C120.269 90.5492 119.916 90.3624 119.584 90.1548C119.252 89.9471 118.92 89.7188 118.629 89.4696C118.318 89.2205 118.027 88.9506 117.757 88.6807C117.487 88.4108 117.238 88.1201 116.989 87.788Z" fill="#1F4068"/>
<path d="M101.479 75.997C102.226 75.7894 103.036 75.7894 103.804 75.8724C104.572 75.9762 105.341 76.1631 106.067 76.4538C106.441 76.5991 106.773 76.7652 107.126 76.9313C107.292 77.0143 107.458 77.1181 107.645 77.2219L107.894 77.3673L108.143 77.5126L108.642 77.8032C108.808 77.9071 108.974 78.0109 109.14 78.1147C109.223 78.1562 109.306 78.2185 109.389 78.2808L109.638 78.4468C109.804 78.5507 109.95 78.6752 110.116 78.779C110.739 79.2358 111.361 79.7133 111.943 80.2323C112.524 80.7514 113.085 81.2704 113.645 81.8102C114.766 82.8898 115.846 83.9901 117.008 85.0074L116.988 85.0282C115.721 84.1147 114.579 83.0559 113.458 81.997C112.898 81.4572 112.337 80.9174 111.777 80.3984C111.216 79.8794 110.635 79.3603 110.033 78.8621C108.849 77.8655 107.479 77.0974 106.005 76.6198C105.278 76.3707 104.552 76.1423 103.784 76.0385C103.036 75.914 102.247 75.8517 101.479 75.9762V75.997Z" fill="#1F4068"/>
<path d="M99.5297 104.313C98.8239 104.292 98.118 104.126 97.4328 103.877C96.7685 103.628 96.1041 103.295 95.5228 102.88C94.9415 102.444 94.4225 101.946 93.9865 101.385C93.5297 100.846 93.1352 100.243 92.7823 99.6206C92.6993 99.4545 92.6162 99.3092 92.5332 99.1431C92.4501 98.977 92.3878 98.8109 92.3256 98.6448C92.2633 98.4787 92.201 98.3126 92.1387 98.1466L92.0557 97.8974C92.0349 97.8144 92.0141 97.7313 91.9934 97.6275L91.848 97.1085L91.7442 96.5895L91.7027 96.3196C91.682 96.2365 91.6819 96.1327 91.6612 96.0497L91.5989 95.5099C91.5782 95.323 91.5781 95.1569 91.5574 94.9701L91.5366 94.4303C91.5366 94.0773 91.5366 93.7244 91.5574 93.3507C91.5781 92.9977 91.6197 92.6448 91.6404 92.2919C91.682 91.9389 91.7442 91.586 91.7858 91.233H91.8065C91.7235 92.6448 91.7027 94.0773 91.848 95.4683C91.9934 96.8594 92.3048 98.2504 92.8861 99.5376C93.1768 100.181 93.5505 100.783 94.028 101.323C94.4847 101.863 95.0453 102.299 95.6266 102.693C96.7893 103.461 98.118 104.022 99.509 104.271L99.5297 104.313Z" fill="#1F4068"/>
<path d="M116.51 104.312C117.153 104.395 117.817 104.395 118.44 104.27C119.063 104.146 119.665 103.897 120.164 103.523C120.413 103.336 120.641 103.108 120.849 102.879C120.911 102.817 120.952 102.755 120.994 102.692C121.035 102.63 121.098 102.568 121.139 102.506C121.222 102.36 121.305 102.236 121.388 102.09C121.679 101.53 121.887 100.907 122.053 100.263C122.011 100.907 121.845 101.571 121.575 102.173C121.305 102.775 120.89 103.336 120.35 103.73C120.08 103.938 119.79 104.104 119.478 104.229C119.167 104.353 118.835 104.436 118.503 104.478C117.817 104.54 117.132 104.499 116.51 104.312Z" fill="#1F4068"/>
<path d="M120.415 87.4091C120.664 88.9039 120.809 90.4402 120.872 91.9558C120.934 93.4921 120.892 95.0077 120.705 96.544C120.519 98.0596 120.186 99.5752 119.564 100.987C119.252 101.693 118.858 102.357 118.359 102.939C117.861 103.52 117.238 103.997 116.532 104.309C117.197 103.956 117.799 103.458 118.256 102.855C118.733 102.274 119.086 101.589 119.377 100.904C119.667 100.198 119.896 99.4714 120.062 98.7447C120.228 98.0181 120.353 97.2499 120.456 96.5025C120.643 94.9869 120.685 93.4714 120.685 91.9558C120.685 91.1876 120.643 90.4402 120.602 89.672C120.539 88.9246 120.477 88.1565 120.415 87.4091Z" fill="#1F4068"/>
<path d="M101.771 75.6643C101.979 75.4774 102.228 75.3321 102.477 75.249C102.747 75.1452 103.017 75.0829 103.287 75.0622C103.847 74.9999 104.408 75.0829 104.947 75.249C105.217 75.3321 105.467 75.4359 105.736 75.5605L105.84 75.602L105.923 75.6435L106.11 75.7473C106.235 75.8096 106.359 75.8719 106.463 75.9549C106.691 76.121 106.92 76.2663 107.127 76.4324C107.335 76.6193 107.543 76.7854 107.75 76.9722C107.522 76.8269 107.294 76.6816 107.065 76.5155C106.837 76.3701 106.588 76.2456 106.359 76.1003L106.006 75.9134L105.819 75.8304L105.736 75.7888L105.633 75.7473C105.383 75.6435 105.134 75.5397 104.885 75.4774C104.387 75.3113 103.847 75.2283 103.307 75.249C103.037 75.2698 102.768 75.2906 102.518 75.3736C102.269 75.4151 101.999 75.5189 101.771 75.6643Z" fill="#1F4068"/>
<path d="M101.085 74.8505C100.794 74.6222 100.503 74.4145 100.192 74.2069C99.8806 73.9993 99.5692 73.8332 99.2577 73.6464C98.6141 73.3142 97.9498 73.0443 97.2439 72.8574C96.8909 72.7744 96.538 72.6913 96.185 72.6706C95.8321 72.6291 95.4584 72.6291 95.1055 72.6498C95.0224 72.6498 94.9186 72.6498 94.8356 72.6706L94.5657 72.6913C94.3788 72.7121 94.2127 72.7329 94.0259 72.7952C93.6729 72.8574 93.32 72.982 92.967 73.1066C93.6106 72.7744 94.3373 72.5253 95.0639 72.463C95.8113 72.3799 96.5588 72.4422 97.2854 72.6291C98.0121 72.8159 98.6972 73.1066 99.32 73.4803C99.9844 73.8747 100.586 74.3315 101.085 74.8505Z" fill="#1F4068"/>
<path d="M92.3447 90.6295C92.8638 89.1139 93.362 87.5983 93.8395 86.0828C94.3378 84.5672 94.8361 83.0516 95.1683 81.4737C95.3344 80.6848 95.4797 79.8959 95.6665 79.1277C95.7496 78.7333 95.8534 78.3595 95.978 77.9651C96.0818 77.5706 96.2063 77.1969 96.3309 76.8232C96.6008 76.055 96.9122 75.3076 97.3897 74.6433C97.6389 74.3111 97.9295 74.0204 98.3032 73.8336C98.6769 73.6467 99.1129 73.6052 99.5074 73.6882V73.709C99.2998 73.6882 99.1129 73.6882 98.9261 73.7298C98.7392 73.7713 98.5524 73.8336 98.3863 73.9374C98.0541 74.1242 97.7842 74.4357 97.5766 74.7471C97.3482 75.0793 97.1821 75.4322 97.016 75.7851C96.8499 76.1381 96.7254 76.5118 96.58 76.8855C96.3101 77.6329 96.0818 78.4011 95.8742 79.1692C95.6665 79.9374 95.4382 80.7056 95.2513 81.4737L94.67 83.799C94.4831 84.5672 94.2755 85.3561 94.0471 86.1243C93.8188 86.8925 93.5489 87.6399 93.279 88.3873C93.1337 88.761 92.9883 89.1347 92.843 89.5084C92.6977 89.8821 92.5316 90.2558 92.3655 90.6087L92.3447 90.6295Z" fill="#1F4068"/>
<path d="M93.9006 76.3622C93.4854 76.9435 93.1117 77.5663 92.7795 78.1892L92.5304 78.6667C92.4474 78.8328 92.3851 78.9989 92.302 79.1442L92.0736 79.6217L91.866 80.12C91.3262 81.4487 90.8695 82.7982 90.5373 84.1892C90.4543 84.5422 90.392 84.8951 90.3089 85.2273C90.2674 85.3934 90.2259 85.5802 90.2051 85.7463L90.1221 86.2653C90.0598 86.6183 89.9975 86.9712 89.956 87.3242L89.8522 88.383L89.7899 88.9228L89.7691 89.4626L89.7069 90.5422C89.6861 90.729 89.6861 90.8951 89.6861 91.082V91.6218C89.6861 91.9747 89.6861 92.3484 89.6861 92.7014C89.6653 92.3484 89.6446 91.9955 89.6238 91.6218L89.6031 91.082C89.6031 90.8951 89.5823 90.729 89.5823 90.5422L89.6031 89.4626L89.6238 88.9228L89.6653 88.383L89.7484 87.3034C89.7899 86.9505 89.8522 86.5975 89.8937 86.2238L89.9767 85.684C89.9975 85.4972 90.039 85.3311 90.0806 85.1442C90.1636 84.7913 90.2259 84.4383 90.3089 84.0854C90.6619 82.6944 91.1186 81.3034 91.6999 79.9954C92.2813 78.7497 92.9871 77.4833 93.9006 76.3622Z" fill="#1F4068"/>
<path d="M101.479 75.3505C101.313 75.2883 101.147 75.309 100.981 75.3713C100.836 75.4336 100.711 75.5582 100.607 75.6827C100.4 75.9526 100.275 76.264 100.171 76.5962C100.068 76.9284 99.9846 77.2606 99.9223 77.6135C99.86 77.9457 99.8185 78.2986 99.7354 78.6516C99.6108 79.3367 99.4448 80.0218 99.2994 80.707C99.1541 81.3921 99.0088 82.0772 98.8634 82.7623C98.7181 83.4475 98.5313 84.1326 98.3237 84.7969C98.116 85.4613 97.8669 86.1257 97.5762 86.7693C96.9949 88.0565 96.2475 89.2814 95.3133 90.3402L95.2925 90.3195C96.1022 89.1776 96.7665 87.9319 97.3271 86.6655C97.8877 85.399 98.3444 84.0703 98.7389 82.7208C98.9257 82.0565 99.1126 81.3713 99.2371 80.6654C99.3617 79.9803 99.4447 79.2744 99.5486 78.5893C99.6524 77.9042 99.7354 77.1983 99.9846 76.5132C100.047 76.3471 100.109 76.181 100.192 76.0149C100.275 75.8488 100.379 75.7035 100.504 75.5581C100.628 75.4128 100.773 75.309 100.96 75.2467C101.126 75.1844 101.334 75.1844 101.5 75.2883L101.479 75.3505Z" fill="#1F4068"/>
<path d="M100.421 74.3077C100.483 74.1208 100.587 73.9547 100.691 73.7887C100.794 73.6226 100.94 73.4772 101.064 73.3319C101.355 73.062 101.687 72.8336 102.04 72.6675C102.414 72.5014 102.787 72.4184 103.182 72.3769C103.576 72.3354 103.971 72.3561 104.365 72.3976C104.76 72.4392 105.133 72.5222 105.528 72.626C105.902 72.7506 106.275 72.8752 106.628 73.0205C107.355 73.3319 108.019 73.7056 108.663 74.1416C107.978 73.7887 107.272 73.4772 106.545 73.2073C105.819 72.9374 105.092 72.7298 104.324 72.6468C103.576 72.543 102.808 72.6053 102.102 72.8544C101.438 73.1451 100.815 73.6226 100.421 74.3077Z" fill="#1F4068"/>
<path d="M109.412 74.6452C109.993 75.0189 110.533 75.4548 111.052 75.9116C111.571 76.3891 112.049 76.8874 112.485 77.4272C112.921 77.967 113.315 78.5483 113.689 79.1296C114.063 79.7109 114.436 80.2922 114.769 80.8943C114.852 81.0396 114.935 81.2057 115.018 81.3511C115.101 81.4964 115.163 81.6625 115.246 81.8078L115.474 82.2646C115.557 82.4099 115.62 82.576 115.703 82.7213C115.869 83.0327 116.014 83.3234 116.201 83.614C116.367 83.9047 116.554 84.1954 116.72 84.486C117.094 85.0673 117.468 85.6279 117.904 86.1677C118.339 86.7075 118.796 87.2058 119.336 87.6418L119.315 87.6625C118.713 87.3096 118.215 86.8113 117.758 86.2923C117.301 85.7732 116.886 85.2127 116.492 84.6314C116.118 84.05 115.786 83.4272 115.495 82.8044C115.35 82.4929 115.205 82.1815 115.08 81.8493L114.872 81.3718C114.81 81.2057 114.727 81.0604 114.665 80.8943C114.374 80.2715 114.042 79.6694 113.647 79.1088C113.544 78.9635 113.44 78.8389 113.336 78.6936C113.232 78.569 113.128 78.4237 113.025 78.2991C112.817 78.0292 112.589 77.7801 112.36 77.5102C111.467 76.4721 110.492 75.4964 109.433 74.6244L109.412 74.6452Z" fill="#1F4068"/>
<path d="M95.2917 72.9058C94.7727 73.0096 94.2744 73.1757 93.8384 73.4456C93.7139 73.5078 93.6101 73.5701 93.5063 73.6532C93.4025 73.7155 93.2987 73.7985 93.1948 73.8815L92.9042 74.1307C92.8004 74.2137 92.7173 74.3175 92.6343 74.4006C91.9077 75.1272 91.3056 75.9784 90.7865 76.8712L90.6827 77.0373L90.5997 77.2034L90.4128 77.5563L90.226 77.9092L90.0599 78.2622C89.9561 78.4906 89.8315 78.7189 89.7277 78.9681L89.4163 79.674C89.354 79.7985 89.3125 79.9023 89.2502 80.0269L89.1049 80.3798L88.8142 81.1065C88.6274 81.584 88.4405 82.0823 88.2537 82.5598C88.3159 82.3106 88.399 82.0615 88.482 81.8124C88.5651 81.5632 88.6274 81.3141 88.7104 81.065L88.9595 80.3176L89.0841 79.9439C89.1256 79.8193 89.1879 79.6947 89.2294 79.5702L89.5201 78.8435C89.6239 78.5944 89.7277 78.366 89.8523 78.1169L90.0184 77.7639L90.2052 77.411L90.3921 77.058L90.4751 76.8919L90.5789 76.7258C91.098 75.8123 91.7208 74.9404 92.5097 74.2345C92.8834 73.8608 93.3402 73.5701 93.8177 73.3417C94.2744 73.0926 94.7727 72.9473 95.2917 72.9058Z" fill="#1F4068"/>
<path d="M87.5275 84.1527C87.3406 84.8794 87.1122 85.606 86.8631 86.3119C86.6139 87.0178 86.344 87.7237 86.0326 88.4088C85.7212 89.0939 85.3683 89.7583 85.0569 90.4434C84.9738 90.6095 84.8907 90.7756 84.8077 90.9624C84.7247 91.1285 84.6416 91.2946 84.5793 91.4815C84.434 91.8344 84.3095 92.1873 84.2056 92.5403C83.998 93.2669 83.8527 93.9936 83.7489 94.7202C83.6658 95.4676 83.6451 96.215 83.6658 96.9625C83.6866 97.7099 83.7696 98.4573 83.8734 99.2047C83.9357 99.5784 83.9773 99.9521 84.0395 100.326C84.1018 100.699 84.1641 101.073 84.1641 101.447H84.1433C84.0811 101.073 83.998 100.72 83.915 100.347C83.8319 99.9728 83.7489 99.6199 83.6658 99.2462C83.5205 98.4988 83.4167 97.7514 83.3752 96.9832C83.3544 96.6095 83.3544 96.215 83.3752 95.8413C83.396 95.4676 83.4375 95.0732 83.479 94.6995C83.5828 93.9521 83.7697 93.2047 84.0188 92.4988C84.0811 92.3119 84.1434 92.1458 84.2264 91.959L84.3302 91.6891L84.4548 91.4399C84.6209 91.087 84.787 90.7548 84.953 90.4226C85.2852 89.7375 85.5551 89.0524 85.825 88.3465C86.0949 87.6406 86.3648 86.9555 86.6555 86.2496L87.4859 84.1527H87.5275Z" fill="#1F4068"/>
<path d="M92.2001 73.7101C91.6188 74.3122 91.0997 74.935 90.6015 75.5994C90.1032 76.243 89.6257 76.9281 89.1897 77.634C88.7537 78.3191 88.3385 79.0457 88.0063 79.7932C87.6741 80.5406 87.3835 81.3295 87.0928 82.0977C86.8229 82.8866 86.5322 83.6548 86.2624 84.4437C85.9717 85.2119 85.7018 86.0008 85.3904 86.769C85.079 87.5371 84.7676 88.3053 84.4354 89.0735C84.2693 89.4472 84.0824 89.8209 83.8956 90.1946C83.7087 90.5683 83.4803 90.9212 83.252 91.2534L83.2312 91.2327C83.4388 90.8797 83.6257 90.506 83.7918 90.1323C83.9579 89.7586 84.1239 89.3641 84.2693 88.9904L84.4976 88.4091L84.726 87.8278L85.162 86.6652L86.0547 84.3399C86.3454 83.5717 86.6568 82.8035 86.989 82.0354L87.944 79.7516C88.0271 79.5648 88.1101 79.3779 88.1932 79.1703L88.3177 78.8797C88.3593 78.7758 88.4008 78.6928 88.4423 78.589C88.6291 78.2153 88.816 77.8416 89.0236 77.4886C89.4388 76.762 89.9371 76.0976 90.4562 75.454C90.9752 74.8312 91.5358 74.2291 92.2001 73.7101Z" fill="#1F4068"/>
<path d="M90.5186 105.29C90.0618 105.082 89.6881 104.709 89.3767 104.314C89.2314 104.107 89.086 103.899 88.9615 103.691C88.8369 103.463 88.7331 103.255 88.6085 103.027C88.4009 102.57 88.2348 102.093 88.0895 101.615C87.9442 101.138 87.8404 100.639 87.7988 100.141C87.9649 100.619 88.1103 101.075 88.2763 101.553C88.4424 102.01 88.6293 102.487 88.8369 102.923C89.0445 103.38 89.2729 103.816 89.522 104.21C89.8127 104.605 90.1241 104.999 90.5186 105.29Z" fill="#1F4068"/>
<path d="M89.3144 101.032C89.1898 101.178 89.0238 101.261 88.8161 101.282C88.6085 101.302 88.4009 101.24 88.2556 101.115C88.1725 101.053 88.1103 100.97 88.048 100.908C88.0272 100.866 88.0064 100.825 87.9857 100.783C87.9649 100.742 87.9442 100.7 87.9234 100.659C87.8819 100.576 87.8611 100.493 87.8404 100.389C87.8196 100.306 87.8196 100.202 87.7988 100.119C87.8611 100.202 87.9027 100.264 87.9442 100.347C87.9857 100.43 88.048 100.493 88.0895 100.555C88.131 100.617 88.1933 100.679 88.2348 100.742C88.2971 100.804 88.3386 100.866 88.4009 100.908C88.5255 101.012 88.65 101.074 88.8161 101.074C88.9822 101.115 89.1483 101.095 89.3144 101.032Z" fill="#1F4068"/>
<path d="M90.1011 85.7112C89.5406 86.9361 89.0423 88.2026 88.5856 89.469C88.3572 90.0918 88.1288 90.7354 87.942 91.3998C87.7759 92.0434 87.6513 92.7285 87.589 93.3929C87.5267 94.0573 87.4852 94.7424 87.506 95.4067C87.5267 96.0711 87.589 96.7562 87.7136 97.3998C87.8381 98.0434 88.025 98.7078 88.2949 99.3099C88.5648 99.912 88.9177 100.493 89.333 101.033L89.3122 101.054C88.8347 100.556 88.4402 99.995 88.1288 99.3929C87.8174 98.7908 87.6098 98.1265 87.4644 97.4414C87.4437 97.2753 87.4022 97.1092 87.3814 96.9431L87.3191 96.424C87.2984 96.0919 87.2776 95.7389 87.2776 95.4067C87.2776 94.7216 87.3399 94.0365 87.4644 93.3721C87.589 92.7078 87.7136 92.0434 87.8797 91.379C88.0458 90.7147 88.1911 90.0503 88.3987 89.4067C88.6063 88.7631 88.8554 88.1195 89.1461 87.4967C89.4368 86.8738 89.7482 86.2717 90.1011 85.6904V85.7112Z" fill="#1F4068"/>
<path d="M94.98 107.46C94.7308 107.357 94.4817 107.211 94.2533 107.045C94.0249 106.9 93.7966 106.734 93.589 106.547C93.153 106.194 92.7585 105.799 92.4056 105.363C92.0319 104.948 91.7204 104.492 91.4298 104.014C91.1391 103.536 90.89 103.038 90.6616 102.519C90.4332 102 90.2672 101.481 90.1218 100.941C90.0595 100.671 89.9765 100.402 89.935 100.132L89.8519 99.7164L89.7896 99.3012C89.6235 98.2008 89.582 97.0797 89.6651 95.9794C89.6858 97.0797 89.7896 98.1801 89.9972 99.2804L90.0803 99.6957L90.1633 100.09C90.2256 100.36 90.3087 100.63 90.3709 100.879C90.537 101.398 90.7031 101.917 90.9107 102.436C91.326 103.453 91.8865 104.408 92.5716 105.26C92.9038 105.696 93.2775 106.09 93.6928 106.464C94.0665 106.838 94.5024 107.17 94.98 107.46Z" fill="#1F4068"/>
<path d="M120.101 85.3976C119.811 84.4011 119.582 83.4045 119.354 82.408L119.001 80.9132C118.877 80.4149 118.773 79.9166 118.648 79.4183C118.877 79.8751 119.043 80.3734 119.209 80.8716C119.375 81.3699 119.499 81.8682 119.603 82.3664C119.728 82.8647 119.832 83.3838 119.915 83.882C119.998 84.3803 120.06 84.8993 120.101 85.3976Z" fill="#1F4068"/>
<path d="M98.5938 73.2297C98.4692 73.0428 98.4277 72.8352 98.4277 72.6068C98.4277 72.3784 98.49 72.1501 98.6146 71.9632C98.7391 71.7764 98.9052 71.6103 99.0713 71.4649C99.1544 71.4027 99.2582 71.3404 99.3412 71.2781C99.445 71.2158 99.5281 71.1743 99.6319 71.112C100.026 70.9044 100.421 70.7591 100.836 70.6345C101.251 70.5307 101.687 70.4476 102.102 70.4476C101.687 70.5722 101.293 70.6968 100.878 70.8421C100.483 70.9874 100.089 71.1535 99.7357 71.3404C99.6526 71.3819 99.5488 71.4442 99.4658 71.4857L99.1959 71.6518C99.0298 71.7556 98.8845 71.9009 98.7599 72.067C98.6353 72.2331 98.5523 72.42 98.5315 72.6068C98.5108 72.8144 98.5315 73.022 98.5938 73.2297Z" fill="#1F4068"/>
<path d="M96.2086 72.5693C96.1256 72.4654 96.0841 72.3201 96.0633 72.1748C96.0426 72.0295 96.0633 71.9049 96.1048 71.7596C96.1879 71.4897 96.3747 71.2405 96.6239 71.1367C96.5823 71.2613 96.5201 71.3651 96.4785 71.4897C96.437 71.5935 96.3955 71.718 96.354 71.8218C96.2709 72.071 96.2502 72.2994 96.2086 72.5693Z" fill="#1F4068"/>
<path d="M85.1626 96.9C85.2249 97.3568 85.3079 97.8135 85.391 98.291C85.474 98.7478 85.5778 99.2045 85.6816 99.6613C85.8892 100.554 86.1591 101.468 86.5121 102.319C86.6782 102.755 86.8858 103.17 87.1349 103.544C87.3633 103.938 87.654 104.291 87.9861 104.602C88.3183 104.914 88.7128 105.163 89.1488 105.267C89.5848 105.391 90.0623 105.391 90.519 105.308C90.083 105.454 89.5848 105.495 89.1073 105.391C88.6297 105.288 88.1938 105.059 87.8408 104.748C87.4671 104.436 87.1764 104.063 86.9273 103.668C86.6782 103.274 86.4706 102.838 86.2837 102.402C85.9308 101.53 85.6816 100.616 85.4948 99.7028C85.3079 98.7685 85.2041 97.8343 85.1626 96.9Z" fill="#1F4068"/>
<path d="M118.897 104.264C118.918 104.555 118.98 104.825 119.063 105.095C119.146 105.365 119.25 105.614 119.395 105.842C119.416 105.904 119.458 105.967 119.499 106.008C119.541 106.071 119.582 106.112 119.624 106.174L119.748 106.34C119.79 106.382 119.852 106.444 119.894 106.486C119.977 106.59 120.101 106.673 120.205 106.776C120.309 106.859 120.433 106.942 120.537 107.046C120.392 107.005 120.267 106.942 120.143 106.88C120.018 106.797 119.894 106.735 119.769 106.652C119.52 106.486 119.333 106.237 119.188 105.987C119.146 105.925 119.105 105.863 119.084 105.801C119.063 105.738 119.022 105.655 119.001 105.593L118.939 105.385C118.918 105.323 118.897 105.24 118.897 105.178C118.814 104.846 118.814 104.555 118.897 104.264Z" fill="#1F4068"/>
<path d="M114.849 106.294L115.119 106.834C115.202 107.021 115.306 107.187 115.389 107.353C115.493 107.519 115.597 107.685 115.7 107.851C115.804 108.017 115.929 108.162 116.053 108.329C115.867 108.246 115.68 108.121 115.534 107.976C115.389 107.83 115.265 107.664 115.161 107.477C115.057 107.29 114.974 107.104 114.912 106.896C114.87 106.73 114.829 106.522 114.849 106.294Z" fill="#1F4068"/>
<path d="M93.1552 98.4906H93.7365C94.8992 98.4906 95.8335 97.5564 95.8335 96.3938V92.6567C95.8335 91.4941 94.8992 90.5598 93.7365 90.5598H93.1552C91.9926 90.5598 91.0583 91.4941 91.0583 92.6567V96.3938C91.0583 97.5564 91.9926 98.4906 93.1552 98.4906Z" fill="#FFC89F"/>
<path d="M94.0886 91.7967C93.881 91.8382 93.6941 91.8797 93.5073 91.942C93.3204 92.0251 93.1543 92.1081 93.009 92.2327C92.8637 92.3572 92.7183 92.4818 92.6145 92.6479C92.5107 92.7932 92.4069 92.9593 92.3446 93.1462C92.2823 93.333 92.2408 93.4991 92.2408 93.7067C92.2201 93.8936 92.2201 94.1012 92.2201 94.3088C92.1993 94.7033 92.1785 95.1185 92.1163 95.513C92.054 95.1185 92.0332 94.7033 92.0125 94.3088C91.9917 94.1012 91.9917 93.9143 91.9917 93.7067C91.9917 93.4991 92.0332 93.2707 92.0955 93.0839C92.2408 92.6687 92.5107 92.3157 92.8637 92.1081C93.0505 92.0043 93.2374 91.9005 93.445 91.859C93.6734 91.7759 93.881 91.7759 94.0886 91.7967Z" fill="#FF9A6C"/>
<path d="M93.3242 96.0876C93.3657 95.963 93.4073 95.8592 93.4488 95.7554L93.5734 95.444L93.6772 95.1326C93.7187 95.0288 93.7602 94.925 93.8017 94.8004C93.864 94.925 93.864 95.0496 93.864 95.1534C93.864 95.2779 93.8433 95.4025 93.8017 95.5063C93.7602 95.6309 93.6979 95.7347 93.6149 95.8177C93.5318 95.963 93.428 96.0461 93.3242 96.0876Z" fill="#FF9A6C"/>
<path d="M95.1029 97.9641C95.1029 98.7531 94.4593 99.3967 93.6703 99.3967C92.8814 99.3967 92.2378 98.7531 92.2378 97.9641C92.2378 97.1752 92.8814 96.5316 93.6703 96.5316C94.4593 96.5316 95.1029 97.1752 95.1029 97.9641Z" fill="#F9A21B"/>
<path d="M104.741 89.2492C104.607 89.3023 104.447 89.2884 104.324 89.2133C104.233 89.1408 102.158 87.7344 99.9542 89.3208C99.78 89.4673 99.4943 89.4103 99.3798 89.239C99.2334 89.0648 99.2903 88.779 99.4617 88.6646C102.148 86.7322 104.77 88.5411 104.799 88.5759C104.98 88.7207 105.022 88.9828 104.909 89.1669C104.877 89.1641 104.811 89.1906 104.741 89.2492Z" fill="#774B42"/>
<path d="M110.104 88.8103C110.04 88.8047 109.946 88.7644 109.888 88.6947C109.706 88.5499 109.697 88.2906 109.841 88.1093C110.45 87.4189 111.864 86.378 114.374 87.2405L114.435 87.2781C114.657 87.3295 114.801 87.5358 114.749 87.7574C114.698 87.9791 114.459 88.12 114.235 88.1007C114.203 88.0979 114.171 88.0951 114.077 88.0548C112.54 87.5345 111.294 87.75 110.438 88.6776C110.395 88.8031 110.229 88.8534 110.104 88.8103Z" fill="#774B42"/>
<path d="M111.525 99.6787C111.525 99.6787 107.071 101.136 103.884 98.7612C103.884 98.7612 103.933 103.061 107.096 103.464C110.644 103.899 111.525 99.6787 111.525 99.6787Z" fill="#994F49"/>
<path d="M110.634 99.8955C110.58 100.149 110.523 100.435 110.469 100.689C109.696 101.042 108.926 100.976 108.087 100.968C107.796 100.975 107.472 100.979 107.184 100.954C106.318 100.88 105.544 100.49 104.736 100.13C104.758 99.8731 104.78 99.6166 104.837 99.3308C106.974 100.387 109.354 100.14 110.634 99.8955Z" fill="white"/>
<path d="M105.064 102.323C105.311 102.086 105.616 101.919 105.948 101.818C106.748 101.532 107.63 101.414 108.45 101.646C109.019 101.792 109.571 102.131 109.987 102.554C109.319 103.175 108.409 103.613 107.13 103.47C106.173 103.323 105.533 102.88 105.064 102.323Z" fill="#FD4E4C"/>
<path d="M104.719 92.8771C104.719 92.8771 104.728 94.2668 102.542 94.1429C100.357 94.0189 99.5805 92.5307 99.5805 92.5307C99.5805 92.5307 100.562 91.2588 102.328 91.3789C104.063 91.4961 104.719 92.8771 104.719 92.8771Z" fill="white"/>
<path d="M110.027 92.7428C110.027 92.7428 110.344 93.933 112.518 93.8298C114.659 93.7238 114.968 92.0062 114.968 92.0062C114.968 92.0062 114.098 90.8652 112.333 91.1006C110.603 91.3067 110.027 92.7428 110.027 92.7428Z" fill="white"/>
<path d="M104.763 92.7032C104.763 92.7032 104.577 94.1084 103.217 94.1526C101.694 94.2149 101.838 91.4172 101.838 91.4172C101.838 91.4172 103.579 91.0829 104.763 92.7032Z" fill="#994F49"/>
<path d="M114.976 91.8948C114.976 91.8948 114.605 93.5747 113.467 93.6703C111.94 93.7647 112.071 91.1273 112.071 91.1273C112.071 91.1273 113.834 90.5365 114.976 91.8948Z" fill="#994F49"/>
<path d="M104.659 92.7902C104.53 92.7792 104.437 92.7388 104.384 92.605C104.355 92.5702 103.898 91.4972 102.287 91.4551C100.576 91.4367 99.7559 92.335 99.7183 92.3963C99.611 92.5163 99.448 92.5345 99.328 92.4273C99.2081 92.32 99.1899 92.157 99.2971 92.037C99.3347 91.9756 100.303 90.864 102.302 90.9072C104.301 90.9505 104.858 92.3552 104.887 92.39C104.94 92.5238 104.862 92.6786 104.726 92.7637C104.723 92.7957 104.691 92.793 104.659 92.7902Z" fill="#272C3A"/>
<path d="M110.098 92.6897C110.065 92.687 110.001 92.6814 109.972 92.6466C109.849 92.5714 109.767 92.4028 109.842 92.2801C109.88 92.2188 110.546 90.855 112.308 90.6517C114.332 90.4064 115.136 91.5739 115.165 91.6088C115.25 91.7453 115.204 91.9028 115.1 91.9907C114.963 92.0759 114.806 92.03 114.718 91.9255C114.689 91.8907 114.055 90.9962 112.389 91.2078C110.922 91.3719 110.376 92.4554 110.371 92.5195C110.295 92.6422 110.194 92.698 110.098 92.6897Z" fill="#272C3A"/>
</g>
<defs>
<filter id="filter0_d_1_28290" x="0" y="0" width="288.599" height="417.089" filterUnits="userSpaceOnUse" color-interpolation-filters="sRGB">
<feFlood flood-opacity="0" result="BackgroundImageFix"/>
<feColorMatrix in="SourceAlpha" type="matrix" values="0 0 0 0 0 0 0 0 0 0 0 0 0 0 0 0 0 0 127 0" result="hardAlpha"/>
<feOffset dx="6.38421" dy="8.51229"/>
<feGaussianBlur stdDeviation="2.28768"/>
<feComposite in2="hardAlpha" operator="out"/>
<feColorMatrix type="matrix" values="0 0 0 0 0 0 0 0 0 0 0 0 0 0 0 0 0 0 0.17 0"/>
<feBlend mode="normal" in2="BackgroundImageFix" result="effect1_dropShadow_1_28290"/>
<feBlend mode="normal" in="SourceGraphic" in2="effect1_dropShadow_1_28290" result="shape"/>
</filter>
</defs>
</svg>
