<svg width="323" height="418" viewBox="0 0 323 418" fill="none" xmlns="http://www.w3.org/2000/svg">
<g filter="url(#filter0_d_1_27544)">
<path d="M195.375 25.8617C187.637 34.6773 182.936 46.2356 182.936 58.8714H221.333L195.375 25.8617Z" stroke="#263238" stroke-width="0.979517" stroke-miterlimit="10" stroke-linecap="round" stroke-linejoin="round"/>
<path d="M267.174 21.9474L241.903 58.8752H283.434C283.336 44.2804 277.067 31.0569 267.174 21.9474Z" stroke="#263238" stroke-width="0.979517" stroke-miterlimit="10" stroke-linecap="round" stroke-linejoin="round"/>
<path d="M198.12 22.9283L226.232 58.8765H229.562V8.82324C217.416 9.70481 206.446 14.8962 198.12 22.9283Z" stroke="#263238" stroke-width="0.979517" stroke-miterlimit="10" stroke-linecap="round" stroke-linejoin="round"/>
<path d="M227.014 198.163H181.956V254.485H227.014V198.163Z" stroke="#263238" stroke-width="0.979517" stroke-miterlimit="10" stroke-linecap="round" stroke-linejoin="round"/>
<path d="M233.479 8.72412V58.8754H237.103L264.137 19.4008C255.714 12.7401 245.037 8.72412 233.479 8.72412Z" stroke="#263238" stroke-width="0.979517" stroke-miterlimit="10" stroke-linecap="round" stroke-linejoin="round"/>
<path d="M283.337 67.0085H238.279V123.331H283.337V67.0085Z" stroke="#263238" stroke-width="0.979517" stroke-miterlimit="10" stroke-linecap="round" stroke-linejoin="round"/>
<path d="M227.014 132.533H181.956V188.855H227.014V132.533Z" stroke="#263238" stroke-width="0.979517" stroke-miterlimit="10" stroke-linecap="round" stroke-linejoin="round"/>
<path d="M283.337 132.533H238.279V188.855H283.337V132.533Z" stroke="#263238" stroke-width="0.979517" stroke-miterlimit="10" stroke-linecap="round" stroke-linejoin="round"/>
<path d="M283.337 198.163H238.279V254.485H283.337V198.163Z" stroke="#263238" stroke-width="0.979517" stroke-miterlimit="10" stroke-linecap="round" stroke-linejoin="round"/>
<path d="M227.014 67.0085H181.956V123.331H227.014V67.0085Z" stroke="#263238" stroke-width="0.979517" stroke-miterlimit="10" stroke-linecap="round" stroke-linejoin="round"/>
<path d="M156 403.999C242.156 403.999 312 393.548 312 380.656C312 367.764 242.156 357.312 156 357.312C69.8436 357.312 0 367.764 0 380.656C0 393.548 69.8436 403.999 156 403.999Z" fill="#116EB6"/>
<path opacity="0.5" d="M156 403.999C242.156 403.999 312 393.548 312 380.656C312 367.764 242.156 357.312 156 357.312C69.8436 357.312 0 367.764 0 380.656C0 393.548 69.8436 403.999 156 403.999Z" fill="white"/>
<path d="M207.792 352.643C203.363 358.353 198.773 356.912 196.799 356.539C194.824 356.165 192.796 355.845 190.875 356.218C188.901 356.645 187.033 357.98 186.606 359.954C186.446 360.701 186.499 361.555 187.033 362.196C187.513 362.783 188.474 363.049 189.114 362.622C189.754 362.196 190.021 361.182 190.768 360.915C191.089 360.808 191.462 360.861 191.782 360.915C193.97 361.395 195.998 362.409 198.133 363.156C200.268 363.903 202.562 364.384 204.75 363.743C208.059 362.729 210.034 359.42 211.581 356.325L207.792 352.643Z" fill="#E38D49"/>
<path d="M230.74 366.559C231.647 369.281 234.156 371.255 236.824 372.269C239.546 373.23 242.481 373.336 245.363 373.23C244.189 376.378 242.534 379.954 239.226 380.648C238.425 380.808 237.464 380.861 237.091 381.555C236.771 382.195 237.091 382.996 237.678 383.423C238.265 383.85 238.959 383.956 239.652 384.01C240.613 384.116 241.52 384.17 242.481 384.01C244.509 383.636 246.11 382.142 247.444 380.594C250.006 377.552 251.873 373.71 251.713 369.707C251.553 366.345 250.006 363.197 247.924 360.582C245.843 357.967 243.175 355.832 240.613 353.751L230.74 366.559Z" fill="#E38D49"/>
<path d="M216.011 340.299C216.011 340.299 222.629 343.768 232.769 341.26C242.855 338.751 248.565 339.659 254.862 345.049C261.16 350.439 252.354 362.126 256.463 364.634C260.573 367.143 263.401 374.721 262.44 378.83C261.48 382.939 257.691 385.127 255.823 382.939C253.902 380.751 258.651 379.15 258.651 379.15C258.651 379.15 256.73 372.853 254.862 371.572C252.941 370.291 246.964 371.892 242.215 369.384C237.465 366.876 236.504 364.955 236.504 364.955C236.504 364.955 233.035 367.143 227.645 368.103C222.255 369.064 218.146 367.783 218.146 367.783C218.146 367.783 217.079 379.63 214.037 384.86C211.849 388.649 206.779 387.369 206.459 385.501C206.139 383.579 210.568 383.58 210.568 383.58C210.568 383.58 212.169 378.189 209.287 370.611C206.459 363.033 196.319 357.003 201.389 340.619L216.011 340.299Z" fill="#FFB564"/>
<path d="M217.558 340.946C215.477 340.413 215.957 340.306 215.957 340.306L201.442 340.626C201.121 341.747 200.855 342.761 200.641 343.775C201.762 344.415 203.683 345.162 206.832 345.323C211.901 345.696 215.691 344.148 217.558 340.946Z" fill="#E38D49"/>
<path d="M248.833 344.046C248.833 344.046 256.144 347.782 261.32 339.723C266.817 331.131 259.079 324.14 250.967 321.472C242.856 318.75 243.709 310.158 254.65 314.588C265.59 319.017 272.848 329.904 266.337 341.698C260.413 352.478 248.833 347.675 248.833 347.675V344.046Z" fill="#FFB564"/>
<path d="M216.546 316.457C218.254 314.109 220.442 312.081 223.004 310.694C224.551 309.84 226.473 309.199 228.02 310.053C228.234 315.817 225.299 323.875 220.656 329.639L216.546 316.457Z" fill="#FFB564"/>
<path d="M227.967 310.039C225.725 309.933 222.843 314.682 221.349 317.724L221.829 326.796C222.043 326.53 224.338 325.035 225.085 322.794C227.593 318.151 228.127 313.722 227.967 310.039Z" fill="#F9D6AE"/>
<path d="M195.893 323.115C194.559 315.698 195.893 307.105 198.935 302.036C200.696 302.036 202.137 303.53 203.098 305.024C204.646 307.532 205.659 310.361 206.033 313.296L195.893 323.115Z" fill="#FFB564"/>
<path d="M198.88 302.036C200.695 303.263 201.175 308.653 201.015 312.122L196.158 319.967C196.105 319.593 194.771 317.192 195.198 314.844C195.251 309.454 197.012 305.238 198.88 302.036Z" fill="#F9D6AE"/>
<path d="M212.064 311.121C203.685 308.506 197.388 310.054 193.706 316.885C190.771 322.381 184.847 337.057 202.992 342.074C219.855 346.77 223.324 335.456 224.498 327.665C225.512 320.674 223.218 314.59 212.064 311.121Z" fill="#FFB564"/>
<path d="M208.274 325.359C201.87 323.118 196.48 335.072 203.632 338.007C210.783 340.942 215.426 327.868 208.274 325.359Z" fill="#FFB865"/>
<path d="M206.418 330.864L205.504 334.211L206.07 334.365L206.984 331.019L206.418 330.864Z" fill="#202020"/>
<path d="M202.516 331.647C202.836 332.287 203.369 332.821 203.957 333.194C204.544 333.568 205.184 333.835 205.878 333.995C206.571 334.155 207.265 334.262 207.959 334.208C208.653 334.155 209.347 333.941 209.987 333.568C209.507 334.155 208.76 334.528 208.012 334.689C207.265 334.849 206.465 334.795 205.718 334.582C204.97 334.368 204.277 334.048 203.69 333.568C203.103 333.034 202.622 332.394 202.516 331.647Z" fill="#202020"/>
<path d="M207.205 329.148C207.205 329.148 205.924 327.227 204.697 327.867C203.363 328.614 205.444 330.909 206.778 331.229C208.006 331.496 210.834 330.269 210.034 329.148C209.393 328.187 207.205 329.148 207.205 329.148Z" fill="#DA5D46"/>
<path d="M205.18 328.237C204.38 328.45 205.981 330.318 206.461 329.891C206.942 329.517 205.874 328.023 205.18 328.237Z" fill="#ED9D7D"/>
<path d="M218.52 362.771C217.56 358.022 214.731 355.513 214.731 355.513C217.88 359.623 217.88 369.709 217.88 369.709L217.987 369.762C218.147 368.535 218.2 367.788 218.2 367.788C218.2 367.788 218.574 367.894 219.321 368.054C219.214 366.72 218.947 364.906 218.52 362.771Z" fill="#E38D49"/>
<path d="M239.708 368.433C237.2 364.964 233.411 361.175 239.068 349.808C239.068 349.808 232.45 355.785 235.919 366.565L239.708 368.433Z" fill="#E38D49"/>
<path d="M196.744 321.998C197.278 321.251 197.972 320.664 198.825 320.29C199.679 319.917 200.693 319.81 201.6 320.184C202.027 320.344 202.454 320.664 202.775 320.984C203.095 321.358 203.362 321.731 203.522 322.158C203.895 323.012 204.002 323.973 203.949 324.827C203.789 323.919 203.522 323.119 203.148 322.318C202.935 321.945 202.668 321.625 202.401 321.304C202.081 321.038 201.761 320.824 201.387 320.664C200.64 320.344 199.786 320.397 198.986 320.664C198.185 320.984 197.438 321.411 196.744 321.998Z" fill="#202020"/>
<path d="M211.849 326.693C212.276 325.893 212.863 325.146 213.663 324.666C214.464 324.132 215.478 323.918 216.385 324.132C216.865 324.239 217.292 324.452 217.719 324.719C218.093 325.039 218.413 325.359 218.68 325.786C219.16 326.587 219.427 327.494 219.533 328.348C219.267 327.494 218.84 326.693 218.359 326C218.093 325.679 217.772 325.359 217.452 325.146C217.132 324.932 216.758 324.772 216.331 324.666C215.531 324.505 214.677 324.666 213.93 325.039C213.129 325.466 212.436 326 211.849 326.693Z" fill="#202020"/>
<path d="M211.583 331.339C212.97 330.432 214.785 330.165 216.439 330.485C218.093 330.805 219.694 331.713 220.601 333.1C218.413 330.539 214.518 329.791 211.583 331.339Z" fill="white"/>
<path d="M212.116 332.414C213.61 332.148 215.158 332.414 216.492 333.108C217.826 333.802 219 334.869 219.641 336.257C218.04 333.695 215.105 332.201 212.116 332.414Z" fill="white"/>
<path d="M211.477 333.311C212.758 333.471 213.879 334.218 214.732 335.179C215.533 336.193 216.013 337.474 215.906 338.754C215.746 336.246 213.932 333.951 211.477 333.311Z" fill="white"/>
<path d="M202.086 329.264C200.432 326.329 196.749 324.834 193.547 325.795C195.095 325.155 196.909 325.261 198.457 325.848C200.058 326.489 201.446 327.716 202.086 329.264Z" fill="white"/>
<path d="M201.073 329.848C198.671 328.033 195.362 327.713 192.641 328.94C193.921 328.14 195.469 327.873 196.963 328.033C198.511 328.247 199.952 328.834 201.073 329.848Z" fill="white"/>
<path d="M201.072 330.928C198.67 330.127 195.895 331.034 194.401 333.116C194.988 331.995 196.109 331.194 197.336 330.767C198.563 330.394 199.951 330.394 201.072 330.928Z" fill="white"/>
<path d="M198.667 317.206C199.361 315.819 202.883 314.164 202.99 316.085C203.043 317.26 198.614 317.26 198.667 317.206Z" fill="#E38D49"/>
<path d="M219.747 322.485C219.693 320.938 217.132 317.949 216.278 319.657C215.744 320.671 219.747 322.485 219.747 322.485Z" fill="#E38D49"/>
<path d="M187.583 127.132L189.771 173.988L181.126 174.735C181.126 174.735 172.961 127.132 175.736 124.998C187.85 115.605 187.583 127.132 187.583 127.132Z" fill="#FFCCA9"/>
<path d="M182.883 172.184C175.999 179.709 189.021 188.194 190.568 196.413C190.728 197.373 191.422 198.601 192.276 198.174C192.489 198.067 192.596 197.907 192.703 197.693C193.824 195.986 193.824 193.638 192.703 191.93C196.759 194.011 200.121 197.427 202.149 201.536C202.576 202.336 203.269 203.564 204.07 203.137C205.831 202.283 202.789 195.132 199.801 192.624C203.59 194.225 205.618 202.016 206.685 202.016C208.072 201.963 207.752 199.508 207.379 198.174C206.525 195.078 204.924 192.89 202.682 189.849C205.564 191.983 207.699 198.761 208.606 198.387C210.954 197.533 209.086 193.264 207.806 191.129C206.205 188.568 204.07 186.38 201.508 184.779C197.559 182.27 193.183 180.296 190.782 176.24C189.768 174.586 189.127 163.966 189.127 163.966L182.883 172.184Z" fill="#FFCCA9"/>
<path d="M102.406 365.836C102.406 365.836 89.1713 370.533 86.5564 374.588C84.8486 377.203 85.5424 382.327 87.5703 382.967C92.9604 384.782 99.311 382.647 107.209 380.512C112.012 379.231 116.442 377.844 118.149 377.897C118.363 377.897 124.447 377.097 124.553 376.883C125.034 375.602 125.727 368.184 124.233 366.797C122.419 365.196 102.406 365.836 102.406 365.836Z" fill="black"/>
<path d="M105.185 290.872C105.185 290.872 114.791 358.274 111.482 360.462C108.173 362.704 100.595 366.706 96.1658 368.947C91.7364 371.189 87.3603 375.565 88.7478 377.006C91.5763 379.888 99.5279 377.966 105.345 374.871C109.561 372.63 124.237 372.63 124.77 370.442C125.304 368.2 123.009 287.777 123.009 287.777L105.185 290.872Z" fill="#FFCCA9"/>
<path d="M119.646 363.98C117.351 363.98 114.47 363.287 111.161 360.938C110.681 360.618 110.574 359.978 110.894 359.551C111.214 359.071 111.855 358.964 112.282 359.284C119.166 364.087 123.755 360.832 123.755 360.832C124.182 360.512 124.823 360.618 125.143 361.045C125.463 361.472 125.356 362.113 124.929 362.433C124.876 362.539 122.901 363.98 119.646 363.98Z" fill="black"/>
<path d="M124.82 371.552C125.14 370.218 124.82 360.825 124.82 360.825C124.82 360.825 120.444 362.48 119.109 366.215C117.775 369.898 117.455 373.58 117.455 373.58L124.82 371.552Z" fill="black"/>
<path d="M105.342 378.927C105.342 378.927 103.1 365.052 99.4715 366.279C95.4157 367.613 86.0232 375.031 85.8631 377.593C85.6496 380.955 105.342 378.927 105.342 378.927Z" fill="black"/>
<path d="M117.35 142.349L151.024 143.15C151.985 113.424 165.38 66.6751 165.38 66.6751C165.38 66.6751 144.407 60.1644 143.553 58.2432C141.899 54.4541 142.859 38.0172 142.859 38.0172L127.757 44.6347C127.757 44.6347 128.931 58.8302 126.849 59.7908C121.299 62.299 111.96 65.1808 111.96 65.1808C109.185 74.8402 104.862 83.539 103.101 93.4118C102.834 94.7993 102.621 96.2402 102.888 97.6278C103.261 99.3889 104.435 100.936 105.503 102.484C112.6 112.677 116.176 130.288 117.35 142.349Z" fill="#FFCCA9"/>
<path d="M147.128 60.1643C147.128 60.1643 144.993 76.8147 132.559 75.5339C120.125 74.2531 123.22 61.1249 123.22 61.1249L111.96 64.8606C111.96 64.8606 106.356 74.2531 103.581 81.7778C100.806 89.3559 101.286 91.2237 107.423 101.684C112.173 109.742 117.403 142.242 117.403 142.242L151.077 143.043L165.433 66.5683L147.128 60.1643Z" fill="#116EB6"/>
<path d="M90.0829 123.183L64.4136 166.036L72.4719 171.053C72.4719 171.053 96.1667 144.37 100.703 129.747C105.239 115.125 90.0829 123.183 90.0829 123.183Z" fill="#FFCCA9"/>
<path d="M71.1895 156.166L78.554 164.171L67.2937 175.698L56.3535 174.578L71.1895 156.166Z" fill="#FFCCA9"/>
<path d="M53.8994 185.664C53.3124 186.411 52.0849 187.212 51.5513 186.411C51.4445 186.251 51.3912 185.984 51.3912 185.771C51.2311 183.743 52.3518 181.661 54.1129 180.701C49.5233 180.647 44.9872 182.035 41.2515 184.703C40.5044 185.237 39.3303 185.931 38.7966 185.184C37.6226 183.583 43.7064 178.726 47.5488 177.926C43.4929 177.552 37.9961 183.476 37.0889 182.942C35.8615 182.248 37.3557 180.221 38.263 179.207C40.451 176.858 42.9592 175.684 46.3747 174.083C42.7991 174.564 37.3024 179.1 36.662 178.406C35.0076 176.538 39.1168 174.137 41.2515 172.856C43.8665 171.308 46.8016 170.401 49.8435 170.241C54.5398 169.921 59.6096 171.202 63.6121 168.693C64.0924 168.426 64.6261 168.053 65.1064 168.266C65.5333 168.426 71.0835 167.039 71.1902 167.466C73.6451 177.392 59.1827 179.207 53.8994 185.664Z" fill="#FFCCA9"/>
<path d="M112.335 64.7993C112.335 64.7993 105.397 65.7065 99.4737 94.8447C95.6313 113.843 89.4941 124.41 89.4941 124.41C89.4941 124.41 93.7635 134.976 101.929 135.083C101.929 135.083 123.168 97.5664 123.542 82.3569C123.809 67.0407 112.335 64.7993 112.335 64.7993Z" fill="#116EB6"/>
<path d="M194.945 381.047C194.945 381.047 199.001 390.44 190.249 391.134C181.496 391.827 178.134 383.075 174.772 379.713C171.41 376.351 170.343 372.402 172.211 368.986C174.078 365.571 182.831 368.293 182.831 368.293L194.945 381.047Z" fill="black"/>
<g opacity="0.49">
<mask id="mask0_1_27544" style="mask-type:luminance" maskUnits="userSpaceOnUse" x="124" y="43" width="17" height="12">
<path d="M124.557 54.7109C124.557 54.7109 133.736 56.2052 140.033 49.9613L140.514 43.3972L124.824 47.8266L124.557 54.7109Z" fill="white"/>
</mask>
<g mask="url(#mask0_1_27544)">
<path d="M136.67 56.6914L139.285 54.5568L138.912 57.0116L136.67 56.6914Z" fill="#C77D4F"/>
</g>
<mask id="mask1_1_27544" style="mask-type:luminance" maskUnits="userSpaceOnUse" x="124" y="43" width="17" height="12">
<path d="M124.557 54.7109C124.557 54.7109 133.736 56.2052 140.033 49.9613L140.514 43.3972L124.824 47.8266L124.557 54.7109Z" fill="white"/>
</mask>
<g mask="url(#mask1_1_27544)">
<path d="M132.027 42.0816L124.875 47.8452L125.943 41.121L132.027 42.0816Z" fill="#DE8B58"/>
</g>
</g>
<g opacity="0.24">
<path d="M129.091 51.8781C128.824 51.8781 128.397 51.6112 128.131 51.5579C128.024 49.2631 127.543 43.9264 127.543 43.9264L142.966 37.896C142.966 37.896 142.753 41.0446 142.646 44.7269C139.337 49.2097 134.481 52.3584 129.091 51.8781Z" fill="#994F49"/>
</g>
<path d="M165.219 66.5594C165.219 66.5594 169.328 67.3066 179.468 98.3126C185.499 116.724 188.007 127.984 188.007 127.984C188.007 127.984 183.631 131.827 175.412 131.934C175.412 131.934 167.354 105.037 152.304 82.3026C143.926 69.6013 165.219 66.5594 165.219 66.5594Z" fill="#116EB6"/>
<path d="M112.333 116.349C112.066 116.349 111.853 116.135 111.853 115.922L110.198 102.207C105.769 91.3733 107.103 86.1434 112.973 76.9644C113.133 76.7509 113.454 76.6442 113.667 76.8043C113.88 76.9644 113.987 77.2846 113.827 77.498C107.743 87.104 107.156 92.1205 111.159 101.887L111.212 101.993L112.867 115.762C112.92 116.029 112.706 116.296 112.44 116.349C112.386 116.349 112.333 116.349 112.333 116.349Z" fill="#49516B"/>
<path d="M151.83 295.056C151.83 295.056 172.269 366.247 172.269 369.022C172.269 371.797 174.51 375.159 177.285 377.934C180.061 380.71 184.223 384.445 186.945 385.833C192.442 388.554 193.883 383.324 195.003 381.136C196.124 378.895 185.611 369.076 182.302 364.059C178.993 359.043 172.162 296.924 172.162 296.924L151.83 295.056Z" fill="#FFCCA9"/>
<path d="M107.531 353.558C113.935 356.653 121.406 357.507 127.97 354.892C129.411 330.877 129.785 306.862 130.158 282.793C130.318 274.255 130.425 265.716 130.585 257.177C130.905 237.058 132.186 220.568 132.506 200.502C137.043 255.416 147.663 304.033 163.352 356.813C170.023 357.453 177.121 355.852 182.671 352.063C178.722 322.818 176.16 297.523 172.211 268.278C171.251 261.02 170.237 253.709 170.13 246.344C169.97 237.645 171.037 229 171.357 220.301C172.585 190.896 165.807 161.171 152.039 135.181C141.205 143.026 128.397 142.386 116.283 136.515C99.0989 168.162 96.6441 207.973 99.6326 243.782C102.621 279.591 106.944 317.642 107.531 353.558Z" fill="#1B1A2E"/>
<path d="M135.177 224.049C134.856 224.049 134.536 223.782 134.536 223.462L134.376 222.181C133.469 213.962 130.64 188.88 125.517 184.878C125.25 184.664 125.197 184.237 125.411 183.917C125.624 183.65 126.051 183.597 126.371 183.81C131.388 187.706 134.109 207.452 135.71 222.021L135.87 223.302C135.924 223.675 135.657 223.995 135.283 224.049C135.23 224.049 135.177 224.049 135.177 224.049Z" fill="#49516B"/>
<path d="M134.324 141.594C128.987 141.594 122.796 140.473 116.019 137.218C115.699 137.058 115.538 136.631 115.699 136.31C115.859 135.99 116.286 135.83 116.606 135.99C134.697 144.636 148.359 137.751 152.148 135.457C152.468 135.243 152.895 135.35 153.055 135.67C153.269 135.99 153.162 136.417 152.842 136.577C150.28 138.125 143.609 141.594 134.324 141.594Z" fill="#49516B"/>
<path d="M191.584 372.993C191.584 372.993 188.222 370.325 183.526 372.3C178.83 374.327 177.229 377.85 177.229 377.85C177.229 377.85 185.18 390.017 191.584 387.082C200.336 383.08 191.584 372.993 191.584 372.993Z" fill="black"/>
<path d="M172.749 374.691C172.268 374.691 171.788 374.317 171.735 373.784C171.255 369.674 172.108 366.526 174.19 364.444C177.338 361.349 182.035 361.883 182.248 361.936C182.782 361.989 183.209 362.523 183.102 363.057C183.049 363.59 182.515 364.017 181.981 363.911C181.928 363.911 177.979 363.484 175.577 365.885C173.923 367.486 173.336 370.101 173.709 373.57C173.763 374.104 173.389 374.637 172.802 374.691C172.856 374.691 172.802 374.691 172.749 374.691Z" fill="black"/>
<path d="M159.834 95.482C159.62 95.482 159.407 95.3219 159.354 95.1084C157.539 88.3842 157.646 81.2864 159.674 74.6156C159.727 74.3488 160.047 74.1887 160.314 74.2954C160.581 74.3488 160.741 74.669 160.634 74.9358C158.713 81.4465 158.606 88.3308 160.368 94.8949C160.421 95.1618 160.261 95.4286 159.994 95.5353C159.887 95.4819 159.887 95.482 159.834 95.482Z" fill="#49516B"/>
<path d="M205.298 201.211C205.138 201.211 205.031 201.104 204.978 200.997C203.644 196.995 201.029 193.472 197.613 190.964C197.453 190.857 197.453 190.644 197.56 190.484C197.666 190.324 197.88 190.324 198.04 190.43C201.562 192.992 204.231 196.674 205.618 200.784C205.671 200.944 205.565 201.157 205.405 201.211C205.351 201.211 205.298 201.211 205.298 201.211Z" fill="#D87B56"/>
<path d="M207.54 198.756C207.38 198.756 207.22 198.649 207.22 198.489C206.526 195.02 204.338 191.444 201.243 188.829C201.083 188.723 201.083 188.509 201.19 188.349C201.296 188.189 201.51 188.189 201.67 188.296C204.872 191.071 207.113 194.7 207.86 198.382C207.914 198.542 207.807 198.756 207.594 198.756H207.54Z" fill="#D87B56"/>
<path d="M114.007 40.7288C114.007 40.7288 109.377 44.1116 110.929 47.7997C110.929 47.7997 111.005 46.7568 111.463 46.3499C111.463 46.3499 111.107 48.7153 112.964 49.7836C112.964 49.7836 112.175 47.0875 114.566 45.7395C114.566 45.7395 115.406 47.3927 117.211 46.9603C117.211 46.9603 116.881 47.5199 115.787 47.5962C115.787 47.5962 117.822 48.7153 120.06 47.3673C120.06 47.3673 122.375 49.1223 125.757 47.5708H148.293C150.099 42.0006 157.068 14.6836 138.551 6.08667C138.551 6.08667 111.768 14.5564 112.811 26.2056C113.829 37.8801 114.007 40.7288 114.007 40.7288Z" fill="#1B1A2E"/>
<path d="M132.852 49.8929C140.559 49.8929 146.791 43.6614 146.791 35.9546V18.9133C146.791 11.2066 140.559 4.9751 132.852 4.9751C125.146 4.9751 118.914 11.2066 118.914 18.9133V35.9546C118.914 43.6359 125.146 49.8929 132.852 49.8929Z" fill="#FFCCA9"/>
<path d="M137.889 7.79651C137.889 7.79651 134.328 6.49933 129.063 10.7724C123.823 15.0708 120.186 22.5995 114.387 25.7535C114.387 25.7535 112.632 39.2084 118.787 42.9982C118.787 42.9982 113.98 43.8884 112.708 37.4789C112.708 37.4789 105.663 31.3237 117.846 9.62781C119.957 4.66803 134.71 -6.57414 150.072 5.17673C150.072 5.17673 157.601 9.24629 159.788 23.4898C159.788 23.4898 166.3 43.0237 150.581 47.1186C150.581 47.1186 146.028 51.6206 142.213 48.365C142.213 48.365 144.909 47.5256 145.85 46.3047C145.85 46.3047 140.687 48.7465 137.787 46.5082C137.787 46.5082 143.993 45.5417 145.723 42.5658C145.723 42.5658 142.925 45.3891 140.254 42.4132C140.254 42.4132 151.522 41.701 149.716 26.4402C149.716 26.4402 141.653 30.2554 140.61 20.7937C139.644 11.6117 137.889 7.79651 137.889 7.79651Z" fill="#1B1A2E"/>
<path d="M112.758 37.4557C112.504 37.2776 112.275 37.0487 112.046 36.8198C111.817 36.5909 111.614 36.3366 111.436 36.1076C111.054 35.5989 110.723 35.0648 110.469 34.5053C110.215 33.9457 110.011 33.3353 109.859 32.7248C109.731 32.1144 109.63 31.4785 109.579 30.8681C109.553 30.2322 109.528 29.5963 109.579 28.9605C109.579 28.8079 109.604 28.6553 109.63 28.4772L109.681 27.9939C109.731 27.6887 109.782 27.3581 109.859 27.0529C110.138 25.8066 110.622 24.6111 111.156 23.4666C112.326 21.2029 113.496 18.9137 114.64 16.5992C115.759 14.2846 116.828 11.97 117.896 9.63005L117.845 9.60461C117.184 10.6983 116.573 11.8429 115.963 12.962C115.352 14.0811 114.767 15.2257 114.182 16.3703C113.597 17.5148 113.063 18.6848 112.504 19.8294C112.224 20.4144 111.97 20.9994 111.69 21.5844C111.563 21.8642 111.41 22.1694 111.283 22.4492L110.901 23.3394C110.418 24.5348 110.011 25.7557 109.681 27.002C109.35 28.2483 109.146 29.5455 109.146 30.8426C109.172 32.1398 109.477 33.4624 110.088 34.6324C110.698 35.8024 111.563 36.8198 112.707 37.4811L112.758 37.4557Z" fill="#1B1A2E"/>
<path d="M137.89 7.80331C138.5 10.0161 138.907 12.2544 139.289 14.5181C139.365 15.0777 139.492 15.6372 139.569 16.1968L139.696 17.0361C139.747 17.3159 139.772 17.5957 139.823 17.8755C139.976 19.02 140.052 20.1646 140.077 21.3092C140.103 21.8687 140.103 22.4537 140.179 23.0387C140.255 23.6237 140.383 24.1833 140.561 24.7429C140.764 25.3024 141.044 25.8366 141.451 26.2944C141.654 26.5233 141.883 26.7268 142.138 26.9048C142.392 27.0829 142.672 27.21 142.952 27.3118C143.511 27.5153 144.122 27.5916 144.707 27.617C145.292 27.617 145.877 27.5661 146.462 27.4389C147.606 27.21 148.7 26.8539 149.768 26.3961L149.743 26.3453C148.624 26.625 147.53 26.9048 146.385 27.0574C145.826 27.1337 145.266 27.1592 144.707 27.1337C144.147 27.1083 143.613 27.0066 143.104 26.8285C142.595 26.6505 142.138 26.3453 141.782 25.9637C141.4 25.5822 141.146 25.099 140.917 24.5903C140.713 24.0816 140.561 23.522 140.459 22.9879C140.408 22.7081 140.357 22.4283 140.332 22.1485C140.306 21.8687 140.281 21.589 140.255 21.2837L139.976 17.85C139.95 17.5703 139.925 17.265 139.925 16.9853L139.849 16.1205C139.798 15.5355 139.747 14.9759 139.67 14.4163C139.594 13.8568 139.492 13.2718 139.365 12.7122C139.264 12.1527 139.136 11.5931 138.984 11.0335C138.704 9.9144 138.373 8.8207 137.915 7.75244L137.89 7.80331Z" fill="#1B1A2E"/>
<path d="M118.917 22.2092C118.536 22.5144 118.18 22.8197 117.798 23.1249C117.442 23.4301 117.061 23.7353 116.705 24.0405C116.349 24.3457 115.967 24.6255 115.586 24.9307C115.204 25.2105 114.822 25.4903 114.441 25.7701C114.899 25.5921 115.331 25.3631 115.738 25.1088C116.145 24.8544 116.552 24.5747 116.908 24.2694C117.29 23.9642 117.646 23.6336 117.976 23.3029C118.307 22.9723 118.612 22.6162 118.917 22.2092Z" fill="#1F4068"/>
<path d="M137.916 7.74303C137 7.48868 136.008 7.48868 135.067 7.59042C134.126 7.71759 133.185 7.9465 132.294 8.30259C131.837 8.48063 131.43 8.68411 130.997 8.88759C130.794 8.98933 130.59 9.1165 130.361 9.24368L130.056 9.42172L129.751 9.59976L129.141 9.95585C128.937 10.083 128.734 10.2102 128.53 10.3374C128.428 10.3882 128.327 10.4645 128.225 10.5408L127.92 10.7443C127.716 10.8715 127.538 11.0241 127.335 11.1513C126.572 11.7108 125.809 12.2958 125.096 12.9317C124.384 13.5676 123.698 14.2035 123.011 14.8648C121.637 16.1874 120.315 17.5354 118.89 18.7817L118.916 18.8071C120.467 17.688 121.866 16.3908 123.24 15.0937C123.926 14.4324 124.613 13.7711 125.3 13.1352C125.987 12.4993 126.699 11.8635 127.436 11.253C128.886 10.0322 130.565 9.09107 132.371 8.50607C133.261 8.20085 134.151 7.92107 135.092 7.79389C136.008 7.64129 136.974 7.56498 137.916 7.71759V7.74303Z" fill="#1F4068"/>
<path d="M140.304 42.4585C141.169 42.433 142.033 42.2296 142.873 41.9243C143.687 41.6191 144.501 41.2122 145.213 40.7035C145.925 40.1693 146.561 39.5589 147.095 38.8722C147.654 38.2109 148.138 37.4733 148.57 36.7102C148.672 36.5067 148.774 36.3287 148.875 36.1252C148.977 35.9217 149.053 35.7183 149.13 35.5148C149.206 35.3113 149.282 35.1078 149.359 34.9043L149.46 34.5991C149.486 34.4974 149.511 34.3957 149.537 34.2685L149.715 33.6326L149.842 32.9967L149.893 32.6661C149.918 32.5643 149.918 32.4372 149.944 32.3354L150.02 31.6741C150.045 31.4452 150.045 31.2417 150.071 31.0128L150.096 30.3515C150.096 29.9191 150.096 29.4867 150.071 29.0289C150.045 28.5965 149.994 28.1641 149.969 27.7317C149.918 27.2994 149.842 26.867 149.791 26.4346H149.766C149.867 28.1641 149.893 29.9191 149.715 31.6233C149.537 33.3274 149.155 35.0315 148.443 36.6085C148.087 37.397 147.629 38.1346 147.044 38.7959C146.484 39.4572 145.798 39.9913 145.086 40.4746C143.661 41.4156 142.033 42.1024 140.329 42.4076L140.304 42.4585Z" fill="#1F4068"/>
<path d="M119.506 42.4354C118.717 42.5371 117.903 42.5371 117.14 42.3845C116.377 42.2319 115.64 41.9267 115.029 41.4688C114.724 41.2399 114.444 40.9601 114.19 40.6804C114.114 40.6041 114.063 40.5278 114.012 40.4515C113.961 40.3751 113.885 40.2988 113.834 40.2225C113.732 40.0445 113.63 39.8919 113.529 39.7138C113.173 39.0271 112.918 38.2641 112.715 37.4756C112.766 38.2641 112.969 39.078 113.3 39.8156C113.63 40.5532 114.139 41.2399 114.8 41.7232C115.131 41.9775 115.487 42.181 115.869 42.3336C116.25 42.4862 116.657 42.588 117.064 42.6388C117.903 42.7151 118.743 42.6643 119.506 42.4354Z" fill="#1F4068"/>
<path d="M114.718 21.7319C114.413 23.5632 114.235 25.4454 114.158 27.3021C114.082 29.1843 114.133 31.0411 114.362 32.9232C114.591 34.78 114.998 36.6367 115.761 38.3663C116.142 39.2311 116.625 40.045 117.236 40.7571C117.846 41.4693 118.609 42.0543 119.474 42.4358C118.66 42.0034 117.923 41.393 117.363 40.6554C116.778 39.9432 116.346 39.1039 115.99 38.2645C115.633 37.3997 115.354 36.5095 115.15 35.6193C114.947 34.7291 114.794 33.788 114.667 32.8724C114.438 31.0156 114.387 29.1589 114.387 27.3021C114.387 26.3611 114.438 25.4454 114.489 24.5043C114.565 23.5887 114.642 22.6476 114.718 21.7319Z" fill="#1F4068"/>
<path d="M137.559 7.34839C137.305 7.11948 137 6.94143 136.694 6.8397C136.364 6.71252 136.033 6.63622 135.702 6.61078C135.016 6.53448 134.329 6.63622 133.668 6.8397C133.337 6.94143 133.032 7.06861 132.701 7.22122L132.574 7.27209L132.472 7.32296L132.243 7.45013C132.091 7.52643 131.938 7.60274 131.811 7.70448C131.531 7.90796 131.251 8.086 130.997 8.28948C130.743 8.51839 130.488 8.72187 130.234 8.95078C130.514 8.77274 130.793 8.5947 131.073 8.39122C131.353 8.21317 131.658 8.06056 131.938 7.88252L132.37 7.65361L132.599 7.55187L132.701 7.501L132.828 7.45013C133.133 7.32296 133.439 7.19578 133.744 7.11948C134.354 6.916 135.016 6.81426 135.677 6.8397C136.008 6.86513 136.338 6.89057 136.643 6.9923C136.949 7.04317 137.279 7.17035 137.559 7.34839Z" fill="#1F4068"/>
<path d="M138.399 6.34287C138.755 6.06309 139.111 5.80874 139.493 5.55439C139.874 5.30004 140.256 5.09657 140.637 4.86765C141.426 4.4607 142.24 4.13005 143.105 3.90113C143.537 3.79939 143.969 3.69765 144.402 3.67222C144.834 3.62135 145.292 3.62135 145.724 3.64678C145.826 3.64678 145.953 3.64679 146.055 3.67222L146.386 3.69765C146.615 3.72309 146.818 3.74852 147.047 3.82483C147.479 3.90113 147.912 4.05374 148.344 4.20635C147.556 3.79939 146.666 3.49418 145.775 3.41787C144.86 3.31613 143.944 3.39244 143.054 3.62135C142.164 3.85026 141.324 4.20635 140.561 4.66418C139.747 5.14744 139.01 5.707 138.399 6.34287Z" fill="#1F4068"/>
<path d="M149.11 25.6761C148.474 23.8193 147.864 21.9626 147.279 20.1059C146.668 18.2491 146.058 16.3924 145.651 14.4593C145.447 13.4928 145.269 12.5263 145.04 11.5852C144.939 11.102 144.811 10.6441 144.659 10.1609C144.532 9.6776 144.379 9.21978 144.226 8.76195C143.896 7.82087 143.514 6.90521 142.929 6.0913C142.624 5.68435 142.268 5.32826 141.81 5.09935C141.352 4.87043 140.818 4.81956 140.335 4.9213V4.94674C140.589 4.9213 140.818 4.9213 141.047 4.97217C141.276 5.02304 141.505 5.09935 141.708 5.22652C142.115 5.45543 142.446 5.83695 142.7 6.21848C142.98 6.62543 143.184 7.05782 143.387 7.49021C143.591 7.92261 143.743 8.38043 143.921 8.83826C144.252 9.75391 144.532 10.695 144.786 11.6361C145.04 12.5772 145.32 13.5183 145.549 14.4593L146.261 17.308C146.49 18.2491 146.744 19.2156 147.024 20.1567C147.304 21.0978 147.635 22.0135 147.965 22.9291C148.143 23.3869 148.321 23.8448 148.499 24.3026C148.677 24.7604 148.881 25.2182 149.084 25.6506L149.11 25.6761Z" fill="#1F4068"/>
<path d="M147.198 8.21436C147.707 8.92653 148.164 9.68957 148.571 10.4526L148.877 11.0376C148.978 11.2411 149.055 11.4446 149.156 11.6226L149.436 12.2076L149.69 12.818C150.352 14.4459 150.911 16.0991 151.318 17.8033C151.42 18.2357 151.496 18.668 151.598 19.075C151.649 19.2785 151.7 19.5074 151.725 19.7109L151.827 20.3467C151.903 20.7791 151.98 21.2115 152.03 21.6439L152.158 22.9411L152.234 23.6024L152.259 24.2637L152.336 25.5863C152.361 25.8152 152.361 26.0187 152.361 26.2476V26.9089C152.361 27.3413 152.361 27.7991 152.361 28.2315C152.387 27.7991 152.412 27.3667 152.437 26.9089L152.463 26.2476C152.463 26.0187 152.488 25.8152 152.488 25.5863L152.463 24.2637L152.437 23.6024L152.387 22.9411L152.285 21.6185C152.234 21.1861 152.158 20.7537 152.107 20.2959L152.005 19.6346C151.98 19.4057 151.929 19.2022 151.878 18.9733C151.776 18.5409 151.7 18.1085 151.598 17.6761C151.166 15.972 150.606 14.2678 149.894 12.6654C149.182 11.1394 148.317 9.58783 147.198 8.21436Z" fill="#1F4068"/>
<path d="M137.914 6.95964C138.117 6.88334 138.321 6.90877 138.524 6.98508C138.702 7.06138 138.855 7.21399 138.982 7.3666C139.236 7.69725 139.389 8.07877 139.516 8.48573C139.643 8.89269 139.745 9.29964 139.821 9.73203C139.898 10.139 139.948 10.5714 140.05 11.0038C140.203 11.8431 140.406 12.6825 140.584 13.5218C140.762 14.3612 140.94 15.2005 141.118 16.0399C141.296 16.8792 141.525 17.7185 141.78 18.5325C142.034 19.3464 142.339 20.1603 142.695 20.9488C143.408 22.5257 144.323 24.0264 145.468 25.3235L145.493 25.2981C144.501 23.8992 143.687 22.3731 143.001 20.8216C142.314 19.2701 141.754 17.6422 141.271 15.989C141.042 15.1751 140.813 14.3357 140.661 13.4709C140.508 12.6316 140.406 11.7668 140.279 10.9275C140.152 10.0881 140.05 9.22334 139.745 8.38399C139.669 8.18051 139.592 7.97703 139.491 7.77356C139.389 7.57008 139.262 7.39203 139.109 7.21399C138.956 7.03595 138.778 6.90877 138.549 6.83247C138.346 6.75617 138.092 6.75617 137.888 6.88334L137.914 6.95964Z" fill="#1F4068"/>
<path d="M139.217 5.68393C139.141 5.45502 139.014 5.25154 138.887 5.04806C138.759 4.84459 138.581 4.66654 138.429 4.4885C138.073 4.15785 137.666 3.87806 137.233 3.67459C136.776 3.47111 136.318 3.36937 135.834 3.3185C135.351 3.26763 134.868 3.29306 134.385 3.34393C133.901 3.3948 133.444 3.49654 132.96 3.62372C132.503 3.77633 132.045 3.92893 131.612 4.10698C130.722 4.4885 129.908 4.94632 129.12 5.48045C129.959 5.04806 130.824 4.66654 131.714 4.33589C132.604 4.00524 133.494 3.75089 134.436 3.64915C135.351 3.52198 136.292 3.59828 137.157 3.9035C137.971 4.25959 138.734 4.84459 139.217 5.68393Z" fill="#1F4068"/>
<path d="M128.198 6.09672C127.486 6.55455 126.824 7.08868 126.188 7.64824C125.553 8.23324 124.968 8.84368 124.433 9.50498C123.899 10.1663 123.416 10.8785 122.958 11.5906C122.5 12.3028 122.043 13.015 121.636 13.7526C121.534 13.9306 121.432 14.1341 121.33 14.3122C121.229 14.4902 121.152 14.6937 121.051 14.8717L120.771 15.4313C120.669 15.6093 120.593 15.8128 120.491 15.9908C120.288 16.3724 120.109 16.7285 119.881 17.0845C119.677 17.4406 119.448 17.7967 119.245 18.1528C118.787 18.865 118.329 19.5517 117.795 20.213C117.261 20.8743 116.701 21.4848 116.04 22.0189L116.065 22.0443C116.803 21.6119 117.413 21.0015 117.973 20.3656C118.533 19.7298 119.041 19.043 119.524 18.3308C119.982 17.6187 120.389 16.8556 120.745 16.0926C120.923 15.7111 121.101 15.3295 121.254 14.9226L121.508 14.3376C121.585 14.1341 121.686 13.9561 121.763 13.7526C122.119 12.9895 122.526 12.2519 123.009 11.5652C123.136 11.3872 123.263 11.2345 123.391 11.0565C123.518 10.9039 123.645 10.7259 123.772 10.5732C124.026 10.2426 124.306 9.93737 124.586 9.60672C125.68 8.33498 126.875 7.13955 128.172 6.07129L128.198 6.09672Z" fill="#1F4068"/>
<path d="M145.498 3.94751C146.134 4.07468 146.744 4.27816 147.278 4.60881C147.431 4.68512 147.558 4.76142 147.685 4.86316C147.812 4.93947 147.939 5.0412 148.067 5.14294L148.423 5.44816C148.55 5.5499 148.652 5.67707 148.753 5.77881C149.644 6.66903 150.381 7.71185 151.017 8.80555L151.144 9.00903L151.246 9.21251L151.475 9.6449L151.704 10.0773L151.907 10.5097C152.034 10.7895 152.187 11.0692 152.314 11.3745L152.696 12.2392C152.772 12.3919 152.823 12.519 152.899 12.6716L153.077 13.104L153.433 13.9942C153.662 14.5792 153.891 15.1897 154.12 15.7747C154.044 15.4695 153.942 15.1642 153.84 14.859C153.739 14.5538 153.662 14.2486 153.561 13.9434L153.255 13.0277L153.103 12.5699C153.052 12.4173 152.976 12.2647 152.925 12.1121L152.569 11.2219C152.441 10.9166 152.314 10.6369 152.162 10.3316L151.958 9.89924L151.729 9.46685L151.5 9.03446L151.399 8.83098L151.271 8.62751C150.636 7.50838 149.873 6.44012 148.906 5.57533C148.448 5.11751 147.889 4.76142 147.304 4.48164C146.744 4.17642 146.134 3.99838 145.498 3.94751Z" fill="#1F4068"/>
<path d="M155.008 17.7407C155.237 18.6309 155.517 19.5212 155.822 20.3859C156.127 21.2507 156.458 22.1155 156.84 22.9548C157.221 23.7942 157.653 24.6081 158.035 25.4475C158.137 25.6509 158.238 25.8544 158.34 26.0833C158.442 26.2868 158.544 26.4903 158.62 26.7192C158.798 27.1516 158.951 27.584 159.078 28.0164C159.332 28.9066 159.51 29.7968 159.637 30.687C159.739 31.6027 159.765 32.5183 159.739 33.434C159.714 34.3496 159.612 35.2653 159.485 36.1809C159.408 36.6388 159.358 37.0966 159.281 37.5544C159.205 38.0122 159.129 38.4701 159.129 38.9279H159.154C159.23 38.4701 159.332 38.0377 159.434 37.5798C159.536 37.122 159.637 36.6896 159.739 36.2318C159.917 35.3161 160.044 34.4005 160.095 33.4594C160.121 33.0016 160.121 32.5183 160.095 32.0605C160.07 31.6027 160.019 31.1194 159.968 30.6616C159.841 29.7459 159.612 28.8303 159.307 27.9655C159.23 27.7366 159.154 27.5331 159.052 27.3042L158.925 26.9735L158.773 26.6683C158.569 26.2359 158.366 25.829 158.162 25.422C157.755 24.5827 157.425 23.7433 157.094 22.8785C156.763 22.0138 156.433 21.1744 156.077 20.3096L155.059 17.7407H155.008Z" fill="#1F4068"/>
<path d="M149.287 4.94812C149.999 5.68573 150.635 6.44877 151.245 7.26268C151.856 8.05116 152.44 8.89051 152.975 9.75529C153.509 10.5946 154.017 11.4849 154.424 12.4005C154.831 13.3162 155.187 14.2827 155.544 15.2238C155.874 16.1903 156.23 17.1314 156.561 18.0979C156.917 19.039 157.248 20.0055 157.629 20.9466C158.011 21.8877 158.392 22.8288 158.799 23.7698C159.003 24.2277 159.232 24.6855 159.46 25.1433C159.689 25.6011 159.969 26.0335 160.249 26.4405L160.274 26.4151C160.02 25.9827 159.791 25.5248 159.588 25.067C159.384 24.6092 159.181 24.1259 159.003 23.6681L158.723 22.9559L158.443 22.2438L157.909 20.8194L156.815 17.9707C156.459 17.0296 156.078 16.0885 155.671 15.1475L154.501 12.3496C154.399 12.1207 154.297 11.8918 154.196 11.6375L154.043 11.2814C153.992 11.1542 153.941 11.0525 153.89 10.9253C153.661 10.4675 153.432 10.0096 153.178 9.57725C152.669 8.68703 152.059 7.87312 151.423 7.08464C150.787 6.3216 150.1 5.58399 149.287 4.94812Z" fill="#1F4068"/>
<path d="M151.346 43.6413C151.905 43.387 152.363 42.9291 152.745 42.4459C152.923 42.1915 153.101 41.9372 153.253 41.6828C153.406 41.4031 153.533 41.1487 153.686 40.8689C153.94 40.3094 154.144 39.7244 154.322 39.1394C154.5 38.5544 154.627 37.9439 154.678 37.3335C154.474 37.9185 154.296 38.4781 154.093 39.0631C153.889 39.6226 153.66 40.2076 153.406 40.7418C153.152 41.3013 152.872 41.8355 152.567 42.3187C152.211 42.802 151.829 43.2852 151.346 43.6413Z" fill="#1F4068"/>
<path d="M152.821 38.422C152.974 38.6 153.177 38.7018 153.431 38.7272C153.686 38.7526 153.94 38.6763 154.118 38.5237C154.22 38.4474 154.296 38.3457 154.372 38.2694C154.398 38.2185 154.423 38.1676 154.449 38.1168C154.474 38.0659 154.5 38.015 154.525 37.9642C154.576 37.8624 154.601 37.7607 154.627 37.6335C154.652 37.5318 154.652 37.4046 154.678 37.3029C154.601 37.4046 154.551 37.4809 154.5 37.5826C154.449 37.6844 154.373 37.7607 154.322 37.837C154.271 37.9133 154.194 37.9896 154.144 38.0659C154.067 38.1422 154.016 38.2185 153.94 38.2694C153.788 38.3965 153.635 38.4729 153.431 38.4729C153.228 38.5237 153.024 38.4983 152.821 38.422Z" fill="#1F4068"/>
<path d="M151.856 19.649C152.543 21.1496 153.153 22.7011 153.713 24.2527C153.993 25.0157 154.273 25.8042 154.501 26.6181C154.705 27.4066 154.858 28.2459 154.934 29.0598C155.01 29.8737 155.061 30.7131 155.036 31.527C155.01 32.3409 154.934 33.1803 154.781 33.9687C154.629 34.7572 154.4 35.5711 154.069 36.3087C153.738 37.0463 153.306 37.7585 152.797 38.4198L152.823 38.4453C153.408 37.8348 153.891 37.1481 154.273 36.4105C154.654 35.6729 154.908 34.859 155.087 34.0196C155.112 33.8161 155.163 33.6127 155.188 33.4092L155.265 32.7733C155.29 32.3664 155.315 31.934 155.315 31.527C155.315 30.6877 155.239 29.8483 155.087 29.0344C154.934 28.2205 154.781 27.4066 154.578 26.5927C154.374 25.7787 154.196 24.9648 153.942 24.1764C153.688 23.3879 153.382 22.5994 153.026 21.8364C152.67 21.0733 152.289 20.3357 151.856 19.6235V19.649Z" fill="#1F4068"/>
<path d="M145.88 46.2998C146.185 46.1726 146.491 45.9946 146.77 45.7911C147.05 45.6131 147.33 45.4096 147.584 45.1807C148.118 44.7483 148.602 44.265 149.034 43.7309C149.492 43.2222 149.873 42.6626 150.23 42.0776C150.586 41.4926 150.891 40.8822 151.171 40.2463C151.45 39.6105 151.654 38.9746 151.832 38.3133C151.908 37.9826 152.01 37.652 152.061 37.3213L152.163 36.8126L152.239 36.3039C152.442 34.9559 152.493 33.5824 152.392 32.2344C152.366 33.5824 152.239 34.9305 151.985 36.2785L151.883 36.7872L151.781 37.2705C151.705 37.6011 151.603 37.9318 151.527 38.237C151.323 38.8728 151.12 39.5087 150.865 40.1446C150.357 41.3909 149.67 42.5609 148.831 43.6037C148.424 44.1378 147.966 44.6211 147.457 45.0789C146.999 45.5368 146.465 45.9437 145.88 46.2998Z" fill="#1F4068"/>
<path d="M115.103 19.2616C115.459 18.0407 115.739 16.8199 116.019 15.599L116.451 13.7677C116.604 13.1573 116.731 12.5468 116.884 11.9364C116.604 12.496 116.401 13.1064 116.197 13.7168C115.994 14.3273 115.841 14.9377 115.714 15.5481C115.561 16.1586 115.434 16.7944 115.332 17.4049C115.231 18.0153 115.154 18.6512 115.103 19.2616Z" fill="#1F4068"/>
<path d="M141.45 4.36273C141.602 4.13381 141.653 3.87946 141.653 3.59968C141.653 3.3199 141.577 3.04012 141.424 2.81121C141.272 2.58229 141.068 2.37881 140.865 2.20077C140.763 2.12447 140.636 2.04816 140.534 1.97186C140.407 1.89555 140.305 1.84468 140.178 1.76838C139.695 1.51403 139.212 1.33599 138.703 1.18338C138.194 1.05621 137.66 0.954468 137.151 0.954468C137.66 1.10708 138.143 1.25968 138.652 1.43773C139.135 1.61577 139.619 1.81925 140.051 2.04816C140.153 2.09903 140.28 2.17534 140.382 2.22621L140.712 2.42968C140.916 2.55686 141.094 2.7349 141.246 2.93838C141.399 3.14186 141.501 3.37077 141.526 3.59968C141.552 3.85403 141.526 4.10838 141.45 4.36273Z" fill="#1F4068"/>
<path d="M144.376 3.54577C144.478 3.4186 144.529 3.24055 144.554 3.06251C144.579 2.88447 144.554 2.73186 144.503 2.55381C144.401 2.22316 144.172 1.91795 143.867 1.79077C143.918 1.94338 143.994 2.07055 144.045 2.22316C144.096 2.35034 144.147 2.50294 144.198 2.63012C144.3 2.93534 144.325 3.21512 144.376 3.54577Z" fill="#1F4068"/>
<path d="M157.906 33.353C157.83 33.9126 157.728 34.4722 157.626 35.0572C157.525 35.6167 157.398 36.1763 157.27 36.7358C157.016 37.8295 156.685 38.9487 156.253 39.9915C156.05 40.5256 155.795 41.0343 155.49 41.4922C155.21 41.9754 154.854 42.4078 154.447 42.7893C154.04 43.1708 153.557 43.4761 153.023 43.6032C152.489 43.7558 151.904 43.7558 151.344 43.6541C151.878 43.8322 152.489 43.883 153.074 43.7558C153.659 43.6287 154.193 43.3489 154.625 42.9674C155.083 42.5858 155.439 42.128 155.744 41.6448C156.05 41.1615 156.304 40.6274 156.533 40.0932C156.965 39.025 157.27 37.9059 157.499 36.7867C157.728 35.6422 157.855 34.4976 157.906 33.353Z" fill="#1F4068"/>
<path d="M116.579 42.3776C116.554 42.7337 116.478 43.0643 116.376 43.395C116.274 43.7256 116.147 44.0308 115.969 44.3106C115.944 44.3869 115.893 44.4632 115.842 44.5141C115.791 44.5904 115.74 44.6413 115.689 44.7176L115.537 44.921C115.486 44.9719 115.409 45.0482 115.359 45.0991C115.257 45.2263 115.104 45.328 114.977 45.4552C114.85 45.5569 114.697 45.6586 114.57 45.7858C114.748 45.735 114.901 45.6586 115.053 45.5823C115.206 45.4806 115.359 45.4043 115.511 45.3026C115.816 45.0991 116.045 44.7939 116.223 44.4886C116.274 44.4123 116.325 44.336 116.351 44.2597C116.376 44.1834 116.427 44.0817 116.452 44.0054L116.529 43.751C116.554 43.6747 116.579 43.573 116.579 43.4967C116.681 43.0897 116.681 42.7337 116.579 42.3776Z" fill="#1F4068"/>
<path d="M121.537 44.865L121.207 45.5263C121.105 45.7552 120.978 45.9587 120.876 46.1622C120.749 46.3656 120.622 46.5691 120.494 46.7726C120.367 46.9761 120.215 47.1541 120.062 47.3576C120.291 47.2559 120.52 47.1032 120.698 46.9252C120.876 46.7472 121.028 46.5437 121.156 46.3148C121.283 46.0859 121.385 45.8569 121.461 45.6026C121.512 45.3991 121.563 45.1448 121.537 44.865Z" fill="#1F4068"/>
<path d="M148.115 35.3301H147.403C145.979 35.3301 144.834 34.1855 144.834 32.7612V28.1829C144.834 26.7586 145.979 25.614 147.403 25.614H148.115C149.54 25.614 150.684 26.7586 150.684 28.1829V32.7612C150.684 34.1855 149.54 35.3301 148.115 35.3301Z" fill="#FFC89F"/>
<path d="M146.968 27.1491C147.223 27.2 147.451 27.2509 147.68 27.3272C147.909 27.4289 148.113 27.5307 148.291 27.6833C148.469 27.8359 148.647 27.9885 148.774 28.192C148.901 28.37 149.028 28.5735 149.105 28.8024C149.181 29.0313 149.232 29.2348 149.232 29.4891C149.257 29.7181 149.257 29.9724 149.257 30.2267C149.283 30.71 149.308 31.2187 149.385 31.702C149.461 31.2187 149.486 30.71 149.512 30.2267C149.537 29.9724 149.537 29.7435 149.537 29.4891C149.537 29.2348 149.486 28.955 149.41 28.7261C149.232 28.2174 148.901 27.785 148.469 27.5307C148.24 27.4035 148.011 27.2763 147.757 27.2254C147.477 27.1237 147.223 27.1237 146.968 27.1491Z" fill="#FF9A6C"/>
<path d="M147.908 32.365C147.857 32.2124 147.806 32.0853 147.756 31.9581L147.603 31.5766L147.476 31.195C147.425 31.0679 147.374 30.9407 147.323 30.7881C147.247 30.9407 147.247 31.0933 147.247 31.2205C147.247 31.3731 147.272 31.5257 147.323 31.6529C147.374 31.8055 147.45 31.9326 147.552 32.0344C147.654 32.2124 147.781 32.3142 147.908 32.365Z" fill="#FF9A6C"/>
<path d="M145.725 34.6506C145.725 35.6171 146.513 36.4056 147.48 36.4056C148.446 36.4056 149.235 35.6171 149.235 34.6506C149.235 33.6841 148.446 32.8956 147.48 32.8956C146.513 32.8956 145.725 33.6841 145.725 34.6506Z" fill="#F9A21B"/>
<path d="M133.923 23.9608C134.087 24.0258 134.283 24.0088 134.433 23.9167C134.545 23.828 137.087 22.105 139.787 24.0485C140 24.228 140.35 24.1582 140.491 23.9482C140.67 23.7349 140.6 23.3848 140.39 23.2446C137.1 20.8772 133.888 23.0932 133.852 23.1359C133.63 23.3134 133.578 23.6344 133.716 23.8599C133.756 23.8565 133.837 23.889 133.923 23.9608Z" fill="#774B42"/>
<path d="M127.349 23.4442C127.428 23.4375 127.542 23.388 127.614 23.3027C127.836 23.1252 127.848 22.8076 127.671 22.5855C126.925 21.7397 125.193 20.4645 122.118 21.5212L122.043 21.5672C121.771 21.6302 121.595 21.8828 121.658 22.1544C121.721 22.426 122.013 22.5987 122.288 22.5749C122.328 22.5716 122.367 22.5682 122.481 22.5187C124.365 21.8813 125.892 22.1454 126.94 23.2817C126.992 23.4355 127.196 23.4971 127.349 23.4442Z" fill="#774B42"/>
<path d="M130.315 28.4815C130.315 28.4815 131.017 31.1118 130.01 32.742C129 34.3329 127.646 33.7769 127.206 33.2609C126.766 32.7449 126.654 31.4487 127.821 30.7544C129.249 29.8794 129.756 29.796 130.315 28.4815Z" fill="#FFBE8C"/>
<path d="M125.612 36.7682C125.612 36.7682 131.069 38.5531 134.973 35.6442C134.973 35.6442 134.913 40.9124 131.038 41.4049C126.692 41.9382 125.612 36.7682 125.612 36.7682Z" fill="#994F49"/>
<path d="M126.7 37.0353C126.767 37.3462 126.836 37.6963 126.903 38.0071C127.85 38.4398 128.793 38.3585 129.821 38.349C130.178 38.3578 130.574 38.3632 130.928 38.3327C131.988 38.2412 132.936 37.7637 133.927 37.3221C133.9 37.0078 133.873 36.6936 133.803 36.3435C131.184 37.6378 128.269 37.3353 126.7 37.0353Z" fill="white"/>
<path d="M133.528 39.9969C133.226 39.7064 132.852 39.5012 132.446 39.378C131.466 39.0272 130.385 38.8831 129.381 39.1675C128.684 39.3464 128.007 39.7609 127.498 40.2797C128.316 41.0402 129.43 41.5772 130.998 41.4023C132.17 41.2221 132.954 40.6796 133.528 39.9969Z" fill="#FD4E4C"/>
<path d="M128.953 30.146C128.54 29.9442 127.99 29.9916 127.575 30.2253C127.12 30.4624 126.758 30.8498 126.602 31.3381C126.446 31.8264 126.494 32.3763 126.727 32.7914C126.925 33.2492 127.309 33.5722 127.794 33.6887C127.489 33.3589 127.337 32.9762 127.228 32.6295C127.155 32.2401 127.164 31.8832 127.254 31.5588C127.345 31.2344 127.596 30.9357 127.851 30.6763C128.148 30.4528 128.488 30.2652 128.953 30.146Z" fill="#D87B56"/>
<path d="M133.947 28.4159C133.947 28.4159 133.935 30.1185 136.613 29.9666C139.291 29.8148 140.241 27.9916 140.241 27.9916C140.241 27.9916 139.039 26.4334 136.875 26.5804C134.75 26.7241 133.947 28.4159 133.947 28.4159Z" fill="white"/>
<path d="M127.446 28.2572C127.446 28.2572 127.058 29.7153 124.395 29.5888C121.772 29.4589 121.393 27.3547 121.393 27.3547C121.393 27.3547 122.46 25.9569 124.621 26.2453C126.74 26.4977 127.446 28.2572 127.446 28.2572Z" fill="white"/>
<path d="M133.89 28.2215C133.89 28.2215 134.117 29.943 135.784 29.9971C137.65 30.0736 137.474 26.6461 137.474 26.6461C137.474 26.6461 135.341 26.2365 133.89 28.2215Z" fill="#994F49"/>
<path d="M121.503 27.3568C121.503 27.3568 121.957 29.4149 123.353 29.5319C125.222 29.6476 125.062 26.4166 125.062 26.4166C125.062 26.4166 122.903 25.6927 121.503 27.3568Z" fill="#994F49"/>
<path d="M134.016 28.3173C134.174 28.3038 134.288 28.2543 134.353 28.0904C134.389 28.0478 134.948 26.7332 136.922 26.6816C139.018 26.6592 140.023 27.7596 140.069 27.8348C140.2 27.9817 140.4 28.0041 140.547 27.8727C140.694 27.7413 140.716 27.5415 140.585 27.3946C140.539 27.3194 139.353 25.9575 136.904 26.0105C134.455 26.0635 133.773 27.7843 133.737 27.827C133.672 27.9909 133.767 28.1805 133.935 28.2848C133.938 28.3241 133.977 28.3207 134.016 28.3173Z" fill="#272C3A"/>
<path d="M127.362 28.1765C127.402 28.1731 127.48 28.1663 127.516 28.1237C127.666 28.0316 127.767 27.825 127.675 27.6747C127.629 27.5995 126.812 25.9288 124.654 25.6797C122.175 25.3791 121.19 26.8095 121.154 26.8522C121.05 27.0195 121.106 27.2125 121.234 27.3201C121.401 27.4244 121.594 27.3682 121.702 27.2402C121.738 27.1975 122.514 26.1017 124.554 26.361C126.353 26.562 127.021 27.8894 127.028 27.9679C127.12 28.1183 127.245 28.1867 127.362 28.1765Z" fill="#272C3A"/>
<path d="M53.4451 242.741C53.4451 242.741 53.4451 239.548 48.9618 235.065C44.4785 230.581 41.5575 228 41.5575 228C41.5575 228 39.3159 235.404 43.4596 239.888C47.6032 244.371 53.3771 248.514 53.3771 248.514V242.741H53.4451Z" fill="#C6FF00"/>
<path d="M46.9241 262.777C46.9241 262.777 46.9241 259.585 42.4408 255.101C37.9575 250.618 35.0366 248.037 35.0366 248.037C35.0366 248.037 32.7949 255.441 36.9386 259.924C41.0822 264.408 46.8561 268.551 46.8561 268.551V262.777H46.9241Z" fill="#C6FF00"/>
<path d="M53.1734 248.174C53.1734 248.174 53.513 244.982 58.4718 240.974C63.4306 236.966 66.5553 234.724 66.5553 234.724C66.5553 234.724 67.9818 242.265 63.3627 246.34C58.7435 250.348 52.562 253.88 52.562 253.88L53.1734 248.174Z" fill="#C6FF00"/>
<path d="M45.293 271.813C45.293 271.813 45.9723 268.688 51.2707 265.224C56.5692 261.76 59.9656 259.858 59.9656 259.858C59.9656 259.858 60.6449 267.534 55.6182 271.066C50.5915 274.598 44.0703 277.451 44.0703 277.451L45.293 271.813Z" fill="#C6FF00"/>
<path d="M46.7881 297.623C46.7881 297.623 46.7881 294.43 51.2714 289.947C55.7547 285.464 58.6756 282.883 58.6756 282.883C58.6756 282.883 60.9172 290.287 56.7736 294.77C52.6299 299.253 46.856 303.397 46.856 303.397V297.623H46.7881Z" fill="#C6FF00"/>
<path d="M46.6517 303.875C46.6517 303.875 47.1272 300.683 43.3232 295.656C39.5192 290.561 37.0058 287.64 37.0058 287.64C37.0058 287.64 33.7453 294.637 37.2096 299.664C40.674 304.69 45.8366 309.649 45.8366 309.649L46.6517 303.875Z" fill="#C6FF00"/>
<path d="M42.2373 322.559C42.2373 322.559 42.2373 319.367 46.7206 314.883C51.2039 310.4 54.1248 307.819 54.1248 307.819C54.1248 307.819 56.3665 315.223 52.2228 319.706C48.0792 324.19 42.3052 328.333 42.3052 328.333V322.559H42.2373Z" fill="#C6FF00"/>
<path d="M45.2264 339.467C45.2264 339.467 44.4113 336.342 47.6039 330.908C50.7966 325.406 52.9703 322.213 52.9703 322.213C52.9703 322.213 56.9781 328.802 54.1251 334.168C51.2042 339.535 46.7209 345.037 46.7209 345.037L45.2264 339.467Z" fill="#C6FF00"/>
<path d="M53.8536 241.924C53.5819 245.321 53.1744 248.921 52.6309 251.842C50.8648 261.012 46.4494 266.922 44.6833 275.209C42.9171 283.497 48.0118 294.161 46.6532 304.758C45.2946 315.355 41.151 321.333 42.3058 328.397C43.4606 335.462 49.71 354.686 49.71 354.686" stroke="#263238" stroke-width="0.339643" stroke-miterlimit="10" stroke-linecap="round" stroke-linejoin="round"/>
<path d="M53.1055 250.352L57.9284 246.616" stroke="#263238" stroke-width="0.339643" stroke-miterlimit="10" stroke-linecap="round" stroke-linejoin="round"/>
<path d="M53.3103 246.07L51.2725 242.47" stroke="#263238" stroke-width="0.339643" stroke-miterlimit="10" stroke-linecap="round" stroke-linejoin="round"/>
<path d="M44.8867 274.873C44.8867 274.873 48.9624 271.816 53.1061 268.827" stroke="#263238" stroke-width="0.339643" stroke-miterlimit="10" stroke-linecap="round" stroke-linejoin="round"/>
<path d="M46.924 268.557C46.924 268.557 43.5276 261.967 39.7236 257.552" stroke="#263238" stroke-width="0.339643" stroke-miterlimit="10" stroke-linecap="round" stroke-linejoin="round"/>
<path d="M46.9243 302.176C46.9243 302.176 50.049 295.995 55.5513 290.628" stroke="#263238" stroke-width="0.339643" stroke-miterlimit="10" stroke-linecap="round" stroke-linejoin="round"/>
<path d="M46.11 306.663C46.11 306.663 44.0722 301.84 41.6947 298.375C39.3172 294.911 38.9775 294.436 38.9775 294.436" stroke="#263238" stroke-width="0.339643" stroke-miterlimit="10" stroke-linecap="round" stroke-linejoin="round"/>
<path d="M42.2373 328.402C42.2373 328.402 43.8676 324.258 45.9054 320.998C47.9433 317.737 50.6604 314.816 50.6604 314.816" stroke="#263238" stroke-width="0.339643" stroke-miterlimit="10" stroke-linecap="round" stroke-linejoin="round"/>
<path d="M46.7214 345.038C46.7214 345.038 46.2459 341.234 47.9441 337.974C49.6424 334.713 51.5444 330.433 52.3595 328.735" stroke="#263238" stroke-width="0.339643" stroke-miterlimit="10" stroke-linecap="round" stroke-linejoin="round"/>
<path d="M24.0346 285.537C24.0346 285.537 23.695 283.499 26.0046 280.239C28.3141 276.91 29.8765 275.008 29.8765 275.008C29.8765 275.008 32.0502 279.356 29.9444 282.684C27.8386 285.945 24.646 289.206 24.646 289.206L24.0346 285.537Z" fill="#C6FF00"/>
<path d="M30.2841 297.424C30.2841 297.424 29.9445 295.386 32.2541 292.126C34.5637 288.797 36.126 286.895 36.126 286.895C36.126 286.895 38.2997 291.242 36.1939 294.571C34.0882 297.832 30.8955 301.092 30.8955 301.092L30.2841 297.424Z" fill="#C6FF00"/>
<path d="M24.8498 288.932C24.8498 288.932 24.3063 286.962 20.774 284.992C17.2417 283.022 15.0001 281.935 15.0001 281.935C15.0001 281.935 14.9322 286.826 18.2607 288.864C21.5892 290.902 25.8687 292.396 25.8687 292.396L24.8498 288.932Z" fill="#C6FF00"/>
<path d="M32.3204 302.927C32.3204 302.927 31.5732 301.025 27.8372 299.463C24.1011 297.9 21.7915 297.017 21.7915 297.017C21.7915 297.017 22.1991 301.908 25.7314 303.538C29.2637 305.169 33.679 306.255 33.679 306.255L32.3204 302.927Z" fill="#C6FF00"/>
<path d="M34.1581 319.233C34.1581 319.233 33.8184 317.195 30.4899 314.885C27.1614 312.576 25.1236 311.285 25.1236 311.285C25.1236 311.285 24.5122 316.176 27.6369 318.485C30.7616 320.863 34.8373 322.833 34.8373 322.833L34.1581 319.233Z" fill="#C6FF00"/>
<path d="M34.9035 323.173C34.9035 323.173 34.2921 321.203 36.1262 317.603C37.9603 314.003 39.183 311.897 39.183 311.897C39.183 311.897 41.9681 315.905 40.3378 319.437C38.7075 322.969 36.0583 326.637 36.0583 326.637L34.9035 323.173Z" fill="#C6FF00"/>
<path d="M40.5404 339.408C40.5404 339.408 40.7442 337.371 43.9369 334.857C47.1295 332.344 49.0994 330.917 49.0994 330.917C49.0994 330.917 49.9825 335.74 46.9936 338.254C44.0048 340.767 40.0649 343.009 40.0649 343.009L40.5404 339.408Z" fill="#C6FF00"/>
<path d="M39.7259 334.38C39.7259 334.38 39.3863 332.343 36.0578 330.033C32.7293 327.723 30.6914 326.433 30.6914 326.433C30.6914 326.433 30.0801 331.324 33.2048 333.633C36.3295 336.011 40.4052 337.981 40.4052 337.981L39.7259 334.38Z" fill="#C6FF00"/>
<path d="M39.6577 345.312C39.6577 345.312 39.8614 343.274 37.2122 340.217C34.6309 337.16 32.9327 335.326 32.9327 335.326C32.9327 335.326 31.0987 339.877 33.5441 342.934C35.9216 345.991 39.3859 348.98 39.3859 348.98L39.6577 345.312Z" fill="#C6FF00"/>
<path d="M23.6948 285.063C24.2383 287.169 24.8496 289.343 25.5289 291.177C27.6347 296.747 31.0311 299.94 33.069 304.966C35.1068 309.993 33.069 317.193 35.0389 323.715C37.0767 330.236 40.2694 333.496 40.3373 338.048C40.3373 342.599 38.5712 355.369 38.5712 355.369" stroke="#263238" stroke-width="0.339643" stroke-miterlimit="10" stroke-linecap="round" stroke-linejoin="round"/>
<path d="M25.0522 290.295L21.6558 288.461" stroke="#263238" stroke-width="0.339643" stroke-miterlimit="10" stroke-linecap="round" stroke-linejoin="round"/>
<path d="M24.4419 287.642L25.325 285.129" stroke="#263238" stroke-width="0.339643" stroke-miterlimit="10" stroke-linecap="round" stroke-linejoin="round"/>
<path d="M32.8638 304.76C32.8638 304.76 30.0108 303.265 27.0898 301.839" stroke="#263238" stroke-width="0.339643" stroke-miterlimit="10" stroke-linecap="round" stroke-linejoin="round"/>
<path d="M30.9629 301.026C30.9629 301.026 32.3894 296.543 34.2914 293.35" stroke="#263238" stroke-width="0.339643" stroke-miterlimit="10" stroke-linecap="round" stroke-linejoin="round"/>
<path d="M34.5633 322.086C34.5633 322.086 31.914 318.553 27.9062 315.768" stroke="#263238" stroke-width="0.339643" stroke-miterlimit="10" stroke-linecap="round" stroke-linejoin="round"/>
<path d="M35.5801 324.871C35.5801 324.871 36.3273 321.611 37.4141 319.165C38.501 316.72 38.7048 316.38 38.7048 316.38" stroke="#263238" stroke-width="0.339643" stroke-miterlimit="10" stroke-linecap="round" stroke-linejoin="round"/>
<path d="M40.2012 341.578C40.2012 341.578 42.5107 338.793 43.8693 337.774C45.2958 336.755 46.2468 335.668 46.2468 335.668" stroke="#263238" stroke-width="0.339643" stroke-miterlimit="10" stroke-linecap="round" stroke-linejoin="round"/>
<path d="M40.3372 338.049C40.3372 338.049 38.8428 335.671 37.2804 333.837C35.6501 332.003 33.6802 330.441 33.6802 330.441" stroke="#263238" stroke-width="0.339643" stroke-miterlimit="10" stroke-linecap="round" stroke-linejoin="round"/>
<path d="M39.3858 348.985C39.3858 348.985 39.25 346.54 37.8235 344.638C36.397 342.803 34.7667 340.29 34.0874 339.339" stroke="#263238" stroke-width="0.339643" stroke-miterlimit="10" stroke-linecap="round" stroke-linejoin="round"/>
<path d="M56.7052 377.515H31.5037C30.3489 377.515 29.4658 376.564 29.4658 375.477V353.197H58.811V375.409C58.743 376.564 57.86 377.515 56.7052 377.515Z" fill="#263238"/>
</g>
<defs>
<filter id="filter0_d_1_27544" x="0" y="0" width="322.96" height="417.087" filterUnits="userSpaceOnUse" color-interpolation-filters="sRGB">
<feFlood flood-opacity="0" result="BackgroundImageFix"/>
<feColorMatrix in="SourceAlpha" type="matrix" values="0 0 0 0 0 0 0 0 0 0 0 0 0 0 0 0 0 0 127 0" result="hardAlpha"/>
<feOffset dx="6.38421" dy="8.51229"/>
<feGaussianBlur stdDeviation="2.28768"/>
<feComposite in2="hardAlpha" operator="out"/>
<feColorMatrix type="matrix" values="0 0 0 0 0 0 0 0 0 0 0 0 0 0 0 0 0 0 0.17 0"/>
<feBlend mode="normal" in2="BackgroundImageFix" result="effect1_dropShadow_1_27544"/>
<feBlend mode="normal" in="SourceGraphic" in2="effect1_dropShadow_1_27544" result="shape"/>
</filter>
</defs>
</svg>
