<svg width="78" height="158" viewBox="0 0 78 158" fill="none" xmlns="http://www.w3.org/2000/svg">
<path d="M-14.4031 157.021C-11.526 158.971 -8.02332 156.136 -8.56499 152.702C-11.871 131.749 -5.39128 109.148 8.68483 94.0081C21.6224 80.0423 39.7592 72.7392 53.4223 59.5422C73.7355 40.0671 82.0785 7.77934 74.0983 -20.024C70.4709 -32.7084 63.8208 -44.1116 59.7097 -56.5398C56.2174 -67.1933 54.6702 -79.8098 59.0406 -90.3517C60.0119 -92.6946 59.0414 -95.5506 56.5975 -96.2287C23.7884 -105.332 -10.1511 -84.7198 -27.347 -55.0023C-46.8138 -23.2271 -55.7613 5.34496 -56.2449 42.3733C-57.8196 80.7519 -47.571 134.542 -14.4031 157.021Z" fill="#116EB6" fill-opacity="0.17"/>
</svg>
