<svg width="331" height="22" viewBox="0 0 331 22" fill="none" xmlns="http://www.w3.org/2000/svg">
<path d="M330.5 0.274414H139.928L119.438 20.8629H330.5V0.274414Z" fill="white"/>
<path d="M0 0V21.1034H94L114.333 0.390805L0 0Z" fill="white"/>
<g clip-path="url(#clip0_4_743)">
<path d="M35.8316 11.6732C34.143 11.6732 33.1654 10.6067 33.1654 8.92615V8.23131C33.1654 6.53058 34.143 5.47217 35.8316 5.47217C37.5243 5.47217 38.4938 6.53866 38.4938 8.23131V8.92211C38.4938 10.6067 37.5243 11.6732 35.8316 11.6732ZM35.8316 6.66389C35.1166 6.66389 34.6359 7.18906 34.6359 8.21515V8.93019C34.6359 9.96436 35.1166 10.4855 35.8316 10.4855C36.5426 10.4855 37.0234 9.96436 37.0234 8.93019V8.21515C37.0234 7.18906 36.5426 6.66389 35.8316 6.66389Z" fill="url(#paint0_linear_4_743)"/>
<path d="M44.3756 7.54534C44.3756 8.47045 43.7696 9.04409 43.305 9.23396L44.4967 11.5649H42.9011L41.8871 9.43594H41.0589V11.5649H39.645V5.58203H42.1739C43.5959 5.58203 44.3756 6.3617 44.3756 7.54534ZM41.9477 8.40177C42.5092 8.40177 42.893 8.12303 42.893 7.54938C42.893 6.97574 42.489 6.67276 41.9598 6.67276H41.063V8.40177H41.9477Z" fill="url(#paint1_linear_4_743)"/>
<path d="M44.9774 11.5649L46.9044 5.58203H48.6576L50.5765 11.5649H49.0454L48.6536 10.2035H46.8034L46.4115 11.5649H44.9774ZM47.7083 6.88283L47.074 9.14508H48.4031L47.777 6.88283H47.7083Z" fill="url(#paint2_linear_4_743)"/>
<path d="M51.9372 10.044C52.0504 10.6096 52.5917 10.9732 53.3713 10.9732C54.2035 10.9732 54.7166 10.5732 54.7166 9.95111C54.7166 9.47442 54.4136 9.19568 53.743 9.02601L52.7048 8.75939C51.808 8.52508 51.2909 7.97972 51.2909 7.17581C51.2909 6.15779 52.1635 5.43872 53.3835 5.43872C54.5671 5.43872 55.371 6.10124 55.4599 7.01422H54.6479C54.5388 6.48905 54.0662 6.15375 53.3673 6.15375C52.6119 6.15375 52.111 6.55369 52.111 7.13541C52.111 7.55554 52.4059 7.84641 52.9512 7.97972L53.9733 8.24634C55.0196 8.517 55.5326 9.00985 55.5326 9.88243C55.5326 10.9691 54.6681 11.6842 53.2865 11.6842C52.018 11.6842 51.2061 11.0055 51.1212 10.04H51.9372V10.044Z" fill="#9EC55B"/>
<path d="M60.5622 9.4707V5.58447H61.3742V9.50302C61.3742 10.8119 60.4613 11.6885 59.0918 11.6885C57.7142 11.6885 56.8093 10.8119 56.8093 9.50302V5.58447H57.6173V9.4707C57.6173 10.3958 58.1909 10.9573 59.0958 10.9573C59.9886 10.9573 60.5622 10.3958 60.5622 9.4707Z" fill="#9EC55B"/>
<path d="M67.0873 7.38216C67.0873 8.20222 66.6389 8.81626 65.9724 9.05057L67.1924 11.5673H66.2754L65.1765 9.20408H63.7667V11.5673H62.9628V5.58447H65.1442C66.336 5.58447 67.0873 6.28739 67.0873 7.38216ZM65.0069 8.50116C65.8108 8.50116 66.2511 8.13355 66.2511 7.42255C66.2511 6.69944 65.7987 6.29143 65.0352 6.29143H63.7586V8.50116H65.0069Z" fill="#9EC55B"/>
<path d="M72.1477 11.5673H68.5321V5.58447H72.1477V6.30759H69.332V8.16587H71.9901V8.86878H69.332V10.8442H72.1477V11.5673Z" fill="#9EC55B"/>
<path d="M33.2209 15.1607C33.0876 15.3909 32.9704 15.6091 32.8816 15.807C32.8654 15.8474 32.825 15.8474 32.8008 15.8151C32.7483 15.7424 32.7281 15.6091 32.825 15.3586C32.8533 15.2899 32.8937 15.2011 32.9462 15.1041C32.8493 15.0516 32.8129 14.9829 32.7967 14.9506C32.7725 14.894 32.7846 14.8738 32.8493 14.8819C32.9139 14.89 32.9785 14.8981 33.0512 14.9062C33.4027 14.2962 34.0248 13.4074 34.5015 13.0156C34.5742 12.959 34.6187 12.959 34.6631 13.0196C34.7075 13.0842 34.7197 13.0923 34.7681 13.2054C34.8126 13.3145 34.8085 13.4115 34.7681 13.5326C34.651 13.8881 34.5257 14.3446 34.4409 14.8375C34.5742 14.8819 34.6267 14.9708 34.6429 15.0677C34.651 15.1081 34.6348 15.1203 34.5944 15.1081C34.5419 15.096 34.4773 15.0839 34.4005 15.0799C34.3682 15.3142 34.344 15.5606 34.3318 15.7989C34.3318 15.8434 34.3036 15.8555 34.2632 15.8393C34.1743 15.7989 34.1016 15.6858 34.0975 15.4313C34.0975 15.3424 34.1016 15.2253 34.1137 15.092C33.7986 15.1122 33.435 15.1647 33.2209 15.1607ZM34.1501 14.8132C34.2187 14.3446 34.344 13.7791 34.4813 13.4317C34.142 13.8114 33.7299 14.3568 33.3906 14.89C33.6653 14.8698 33.94 14.8213 34.1501 14.8132Z" fill="url(#paint3_linear_4_743)"/>
<path d="M37.5193 14.8769C37.6324 15.1758 37.3456 15.5152 37.1557 15.6485C36.8366 15.8788 36.4609 15.8747 36.2185 15.7414C36.0165 15.6323 35.8428 15.3536 35.8307 14.986C35.8145 14.0326 36.6104 13.2206 37.1153 13.0267C37.3577 12.9338 37.5759 12.9136 37.7213 13.0388C37.8182 13.1237 37.9233 13.2529 37.9596 13.366C38 13.4953 37.9879 13.6205 37.9192 13.7619C37.8506 13.8993 37.79 14.077 37.7415 14.2063C37.7294 14.2427 37.697 14.2709 37.6445 14.2346C37.5395 14.1659 37.4708 14.0286 37.5355 13.8023C37.6082 13.564 37.7698 13.3095 37.6647 13.2004C37.5395 13.0671 36.8568 13.4307 36.4528 14.0972C36.0569 14.7517 36.1013 15.4182 36.3235 15.596C36.6104 15.8303 37.087 15.5273 37.4264 14.8607C37.4466 14.8203 37.4951 14.8203 37.5193 14.8769Z" fill="url(#paint4_linear_4_743)"/>
<path d="M42.0071 15.3974C41.8819 15.6439 41.5951 15.8782 41.3365 15.8741C40.9487 15.8701 40.8154 15.5631 40.9729 15.1995C41.1345 14.8238 41.5345 14.3269 41.4658 14.3027C41.4294 14.2906 41.2719 14.3471 40.9851 14.6339C40.6174 15.0016 40.3953 15.4298 40.2094 15.8459C40.1852 15.8984 40.1448 15.9145 40.1044 15.8741C40.0317 15.8014 39.9792 15.6318 40.1004 15.3126C40.2458 14.941 40.7265 14.3269 40.6376 14.2906C40.5932 14.2744 40.367 14.3956 40.0802 14.7067C39.8216 14.9894 39.6035 15.4015 39.4257 15.8257C39.4096 15.862 39.3853 15.8741 39.3409 15.8378C39.248 15.761 39.2237 15.6075 39.2964 15.3853C39.3409 15.2359 39.454 15.0096 39.5833 14.7551C39.458 14.84 39.3247 14.8804 39.1672 14.8682C39.0783 15.2561 38.7955 15.7206 38.4643 15.8297C38.3027 15.8822 38.0724 15.8782 37.8947 15.6358C37.7008 15.3772 37.7694 14.9814 37.9714 14.6259C38.1411 14.3269 38.4158 14.0603 38.6864 14.0441C38.8238 14.0361 38.8925 14.0765 38.9854 14.1976C39.0945 14.335 39.2278 14.3592 39.1995 14.6905C39.1995 14.7147 39.1995 14.739 39.1914 14.7632C39.4782 14.7592 39.7691 14.4279 39.9994 14.0643C40.0276 14.0199 40.0721 14.0199 40.0963 14.0643C40.169 14.1815 40.1529 14.3552 40.0882 14.5329C40.2902 14.3067 40.6174 14.0441 40.779 14.0482C40.9325 14.0522 41.0093 14.2906 40.9527 14.4885C41.1628 14.2865 41.4658 14.0765 41.6072 14.0805C41.7688 14.0845 41.8051 14.3512 41.7163 14.5653C41.6314 14.7672 41.4173 15.0621 41.3082 15.2843C41.183 15.5388 41.2396 15.7529 41.4052 15.7408C41.5829 15.7327 41.7849 15.4419 41.9586 15.1227C41.9829 15.0823 42.0112 15.0904 42.0354 15.1227C42.0596 15.147 42.0596 15.2884 42.0071 15.3974ZM38.5855 14.3754C38.4643 14.4804 38.339 14.6299 38.238 14.8036C38.0401 15.1389 37.9835 15.5469 38.1007 15.652C38.2219 15.761 38.4966 15.5954 38.7147 15.1914C38.7915 15.0541 38.844 14.9208 38.8763 14.8036C38.7188 14.7147 38.5935 14.5491 38.5855 14.3754ZM38.941 14.3754C38.9167 14.23 38.8238 14.2542 38.8076 14.3875C38.7955 14.4804 38.8238 14.6137 38.9167 14.6865C38.941 14.5572 38.9531 14.4562 38.941 14.3754Z" fill="url(#paint5_linear_4_743)"/>
<path d="M43.6926 15.1199C43.7209 15.0553 43.7694 15.0755 43.7775 15.1199C43.7855 15.1603 43.7936 15.2775 43.7209 15.4148C43.5512 15.7259 43.2442 15.8713 42.921 15.8955C42.6342 15.9117 42.4444 15.8713 42.2868 15.7299C42.1939 15.6451 42.1495 15.54 42.1333 15.431C41.9232 15.8188 41.693 16.2753 41.4789 16.7722C41.4627 16.8126 41.4304 16.8206 41.4021 16.7802C41.3334 16.6873 41.3132 16.5621 41.3981 16.2874C41.5314 15.8511 42.2868 14.4291 42.5696 14.0534C42.614 13.9969 42.6544 14.0049 42.6787 14.0575C42.7029 14.114 42.711 14.1827 42.7069 14.2594C42.9049 14.0898 43.1675 13.9645 43.3614 14.1665C43.5755 14.3968 43.4785 14.7967 43.3129 15.1643C43.1796 15.4592 43.014 15.6774 42.8403 15.7784C43.2765 15.7501 43.5472 15.4269 43.6926 15.1199ZM42.3757 15.637C42.5211 15.7541 42.812 15.4269 43.022 14.9947C43.1957 14.6351 43.2483 14.2635 43.1352 14.211C43.0261 14.1584 42.7473 14.3806 42.5373 14.728C42.4888 14.8088 42.4403 14.8896 42.3838 14.9826C42.2706 15.2653 42.2505 15.532 42.3757 15.637Z" fill="url(#paint6_linear_4_743)"/>
<path d="M44.0315 15.7245C44.2456 15.7407 44.5607 15.4175 44.7344 15.0741C44.7667 15.0175 44.8152 15.0095 44.8314 15.0741C44.8556 15.1468 44.8354 15.2438 44.7869 15.3528C44.7223 15.4862 44.3951 15.8618 44.0355 15.8497C43.7245 15.8416 43.5588 15.6235 43.6639 15.1387C43.8295 14.3591 44.3426 13.543 44.799 13.0704C44.8677 12.9977 44.9283 12.9896 44.993 13.0461C45.1222 13.1633 45.1505 13.3289 45.098 13.539C44.9606 14.0924 44.4557 14.6297 44.0557 14.8923C43.878 15.3326 43.8295 15.7083 44.0315 15.7245ZM44.9485 13.4501C44.892 13.4138 44.5567 13.9107 44.2496 14.4883C44.2092 14.5611 44.1729 14.6338 44.1406 14.7024C44.7546 14.2015 45.0051 13.4824 44.9485 13.4501Z" fill="url(#paint7_linear_4_743)"/>
<path d="M45.2637 15.7336C45.6353 15.7497 45.9625 15.3942 46.1564 15.0953C46.1807 15.0589 46.213 15.0589 46.2332 15.0993C46.2494 15.1357 46.2372 15.2609 46.1564 15.3781C45.9666 15.6528 45.6232 15.8588 45.2758 15.8628C44.7062 15.8709 44.5082 15.3094 44.7991 14.7317C45.0899 14.154 45.5505 13.9197 45.7727 14.049C45.8858 14.1177 45.9666 14.1823 46.0393 14.2833C46.1201 14.3924 46.0837 14.663 45.8939 14.8933C45.6757 15.164 45.3727 15.2811 45.0576 15.0226C44.9203 15.4387 45.0293 15.7214 45.2637 15.7336ZM45.6394 14.7034C45.7848 14.5136 45.8817 14.2833 45.8171 14.2308C45.7242 14.154 45.3485 14.4247 45.1384 14.8489C45.1263 14.8771 45.1101 14.9014 45.1021 14.9256C45.3243 15.067 45.506 14.8731 45.6394 14.7034Z" fill="url(#paint8_linear_4_743)"/>
<path d="M46.3504 13.9322C46.3059 13.8676 46.3342 13.8393 46.3989 13.8433C46.5241 13.8474 46.6493 13.8393 46.7705 13.8272C46.9079 13.5807 47.0371 13.3707 47.1099 13.2697C47.1503 13.2131 47.1947 13.2172 47.2189 13.2697C47.2674 13.3949 47.2674 13.5444 47.1624 13.7787C47.3361 13.7746 47.4048 13.8554 47.4411 13.912C47.4734 13.9645 47.4532 13.9968 47.3886 13.9968C47.2916 13.9847 47.1503 13.9968 47.0371 14.013C46.8634 14.3119 46.6049 14.7482 46.4352 15.128C46.2858 15.4552 46.3383 15.7339 46.5241 15.742C46.7261 15.7501 46.9806 15.4309 47.1462 15.0956C47.1745 15.0431 47.223 15.031 47.2391 15.0956C47.2634 15.1684 47.2391 15.2491 47.1947 15.3501C47.1381 15.4794 46.8392 15.8753 46.4797 15.8632C46.1848 15.8551 45.9464 15.5239 46.1605 15.0068C46.2534 14.7805 46.4433 14.4048 46.6372 14.0493C46.4918 14.0453 46.3867 13.9807 46.3504 13.9322Z" fill="url(#paint9_linear_4_743)"/>
<path d="M47.5658 15.7336C47.9374 15.7497 48.2647 15.3942 48.4586 15.0953C48.4828 15.0589 48.5151 15.0589 48.5353 15.0993C48.5515 15.1357 48.5394 15.2609 48.4586 15.3781C48.2687 15.6528 47.9253 15.8588 47.5779 15.8628C47.0083 15.8709 46.8103 15.3094 47.1012 14.7317C47.3921 14.154 47.8526 13.9197 48.0748 14.049C48.1879 14.1177 48.2687 14.1823 48.3414 14.2833C48.4222 14.3924 48.3858 14.663 48.196 14.8933C47.9778 15.164 47.6749 15.2811 47.3598 15.0226C47.2224 15.4387 47.3315 15.7214 47.5658 15.7336ZM47.9415 14.7034C48.0869 14.5136 48.1839 14.2833 48.1192 14.2308C48.0263 14.154 47.6506 14.4247 47.4405 14.8489C47.4284 14.8771 47.4123 14.9014 47.4042 14.9256C47.6264 15.067 47.8082 14.8731 47.9415 14.7034Z" fill="url(#paint10_linear_4_743)"/>
<path d="M50.0272 13.3548C50.011 13.3063 50.0151 13.278 50.0716 13.2699C50.3827 13.2295 50.6049 13.0518 50.8957 13.0033C51.1825 12.9589 51.4088 13.1084 51.5744 13.3992C51.9864 14.1183 51.1866 15.4272 49.9868 15.8271C49.8575 15.8715 49.7767 15.8594 49.7 15.7948C49.6474 15.7503 49.5747 15.6898 49.5101 15.6009C49.4253 15.4837 49.401 15.415 49.498 15.1242C49.6353 14.7041 50.011 14.0011 50.318 13.5406C50.1443 13.5366 50.0554 13.4235 50.0272 13.3548ZM50.4433 13.9729C50.217 14.3728 49.8535 14.9707 49.7242 15.3827C49.6676 15.5726 49.6959 15.6332 49.8333 15.5847C51.0573 15.1161 51.6229 13.8355 51.3603 13.4113C51.2027 13.1609 50.8755 13.3992 50.5604 13.5002C50.5806 13.6133 50.5523 13.7749 50.4433 13.9729Z" fill="url(#paint11_linear_4_743)"/>
<path d="M52.1592 15.7336C52.5308 15.7497 52.858 15.3942 53.0519 15.0953C53.0762 15.0589 53.1085 15.0589 53.1287 15.0993C53.1449 15.1357 53.1327 15.2609 53.0519 15.3781C52.8621 15.6528 52.5187 15.8588 52.1713 15.8628C51.6017 15.8709 51.4037 15.3094 51.6946 14.7317C51.9855 14.154 52.446 13.9197 52.6682 14.049C52.7813 14.1177 52.8621 14.1823 52.9348 14.2833C53.0156 14.3924 52.9792 14.663 52.7894 14.8933C52.5712 15.164 52.2682 15.2811 51.9531 15.0226C51.8117 15.4387 51.9208 15.7214 52.1592 15.7336ZM52.5308 14.7034C52.6762 14.5136 52.7732 14.2833 52.7086 14.2308C52.6157 14.154 52.24 14.4247 52.0299 14.8489C52.0178 14.8771 52.0016 14.9014 51.9935 14.9256C52.2198 15.067 52.4015 14.8731 52.5308 14.7034Z" fill="url(#paint12_linear_4_743)"/>
<path d="M54.3538 14.0324C54.5033 14.0566 54.6406 14.2748 54.5275 14.5091C54.4346 14.707 54.2124 15.0383 54.1114 15.2726C53.9943 15.5311 54.0225 15.7452 54.1841 15.7331C54.37 15.725 54.5881 15.4261 54.7578 15.115C54.782 15.0746 54.8103 15.0746 54.8345 15.111C54.8668 15.1595 54.8588 15.2645 54.7941 15.3938C54.6729 15.6443 54.3902 15.8745 54.1316 15.8745C53.7519 15.8745 53.659 15.5958 53.7923 15.2039C53.9417 14.7636 54.3336 14.2869 54.2528 14.2505C54.2084 14.2344 53.9458 14.3596 53.659 14.6707C53.3923 14.9575 53.1984 15.3897 53.0045 15.8099C52.9884 15.8503 52.9601 15.8664 52.9197 15.826C52.8308 15.7372 52.8025 15.5877 52.8753 15.3655C52.9641 15.0827 53.3115 14.4606 53.5943 14.0405C53.6266 13.992 53.663 13.996 53.6872 14.0405C53.7559 14.1536 53.7519 14.3071 53.6994 14.4687C53.9013 14.2586 54.2084 14.0122 54.3538 14.0324Z" fill="url(#paint13_linear_4_743)"/>
<path d="M54.9551 13.9322C54.9107 13.8676 54.939 13.8393 55.0036 13.8433C55.1288 13.8474 55.2541 13.8393 55.3753 13.8272C55.5126 13.5807 55.6419 13.3707 55.7146 13.2697C55.755 13.2131 55.7994 13.2172 55.8237 13.2697C55.8721 13.3949 55.8721 13.5444 55.7671 13.7787C55.9408 13.7746 56.0095 13.8554 56.0459 13.912C56.0782 13.9645 56.058 13.9968 55.9933 13.9968C55.8964 13.9847 55.755 13.9968 55.6419 14.013C55.4682 14.3119 55.2096 14.7482 55.04 15.128C54.8905 15.4552 54.943 15.7339 55.1288 15.742C55.3308 15.7501 55.5853 15.4309 55.751 15.0956C55.7792 15.0431 55.8277 15.031 55.8439 15.0956C55.8681 15.1684 55.8439 15.2491 55.7994 15.3501C55.7429 15.4794 55.4439 15.8753 55.0844 15.8632C54.7895 15.8551 54.5511 15.5239 54.7653 15.0068C54.8582 14.7805 55.048 14.4048 55.2419 14.0493C55.0965 14.0453 54.9915 13.9807 54.9551 13.9322Z" fill="url(#paint14_linear_4_743)"/>
<path d="M57.2612 14.0615C57.3016 14.005 57.3379 13.9929 57.3702 14.0333C57.4389 14.1141 57.4753 14.308 57.3662 14.5302C57.2692 14.7321 57.043 15.0674 56.9339 15.3058C56.8208 15.5563 56.8168 15.7502 56.9703 15.7421C57.1561 15.734 57.4026 15.427 57.5601 15.1159C57.5843 15.0755 57.6126 15.0715 57.6328 15.1119C57.649 15.1523 57.649 15.2654 57.5924 15.3906C57.4753 15.637 57.1925 15.8835 56.9461 15.8714C56.7037 15.8592 56.5785 15.7138 56.5785 15.5037C56.433 15.6896 56.231 15.8552 56.0169 15.8552C55.6008 15.8552 55.512 15.2856 55.8877 14.7402C56.2512 14.211 56.6067 14.009 56.8289 14.009C57.0228 14.009 57.1117 14.1585 57.1036 14.3322C57.1602 14.2272 57.2127 14.1343 57.2612 14.0615ZM56.9057 14.2433C56.7602 14.2312 56.433 14.5221 56.1866 14.922C55.9483 15.3098 55.8917 15.7017 56.0654 15.7057C56.2512 15.7098 56.4815 15.4229 56.7118 15.027C56.9945 14.5382 57.0349 14.2595 56.9057 14.2433Z" fill="url(#paint15_linear_4_743)"/>
<path d="M57.8873 15.7245C58.1014 15.7407 58.4165 15.4175 58.5902 15.0741C58.6226 15.0175 58.671 15.0095 58.6872 15.0741C58.7114 15.1468 58.6912 15.2438 58.6428 15.3528C58.5781 15.4862 58.2509 15.8618 57.8914 15.8497C57.5803 15.8416 57.4147 15.6235 57.5197 15.1387C57.6853 14.3591 58.1984 13.543 58.6549 13.0704C58.7236 12.9977 58.7842 12.9896 58.8488 13.0461C58.9781 13.1633 59.0063 13.3289 58.9538 13.539C58.8165 14.0924 58.3115 14.6297 57.9116 14.8923C57.7338 15.3326 57.6853 15.7083 57.8873 15.7245ZM58.8043 13.4501C58.7478 13.4138 58.4125 13.9107 58.1055 14.4883C58.0651 14.5611 58.0287 14.6338 57.9964 14.7024C58.6104 14.2015 58.8609 13.4824 58.8043 13.4501Z" fill="url(#paint16_linear_4_743)"/>
<path d="M59.7979 15.2855C59.9757 15.4309 60.2827 15.6612 60.5736 15.6612C60.6988 15.6612 60.7917 15.6289 60.8523 15.5804C60.9291 15.4956 60.9048 15.4027 60.8442 15.3461C60.6059 15.1441 59.8989 14.8654 59.8989 14.4048C59.8989 13.7908 60.5938 13.2656 60.9937 13.096C61.2078 13.0071 61.4259 12.9707 61.5714 13.1041C61.6845 13.2091 61.7653 13.3545 61.7976 13.4797C61.842 13.6575 61.733 13.8352 61.6683 13.9282C61.5512 14.0857 61.4219 14.316 61.3573 14.425C61.333 14.4654 61.3088 14.4897 61.2603 14.4372C61.1755 14.3523 61.123 14.2109 61.2159 14.0009C61.3088 13.7868 61.6481 13.4111 61.5391 13.302C61.3855 13.1444 60.2827 13.8312 60.2585 14.3927C60.2463 14.6836 60.82 14.9219 61.0704 15.1037C61.2401 15.2249 61.2199 15.4309 61.022 15.6612C60.7513 15.9723 59.9716 16.0571 59.3374 15.2936C59.2889 15.237 59.3051 15.2047 59.3455 15.1886C59.4949 15.1482 59.6767 15.1886 59.7979 15.2855Z" fill="url(#paint17_linear_4_743)"/>
<path d="M63.3622 15.7255C63.5723 15.7376 63.8874 15.4185 64.0571 15.0791C64.0854 15.0226 64.1338 15.0145 64.15 15.0791C64.1742 15.1518 64.15 15.2447 64.1056 15.3538C64.053 15.4831 63.7177 15.8628 63.3663 15.8467C63.0673 15.8345 62.8936 15.6285 62.9987 15.1478C63.0108 15.0832 63.0269 15.0306 63.0431 14.9741C63.0067 14.9781 62.9744 14.9781 62.9381 14.9781C62.8856 14.9781 62.829 14.9741 62.7805 14.966C62.6674 15.3296 62.4048 15.7335 62.0978 15.8265C61.9322 15.879 61.6979 15.8749 61.5282 15.6366C61.3343 15.37 61.403 14.9781 61.605 14.6267C61.7787 14.3196 62.0453 14.0651 62.316 14.0449C62.4493 14.0328 62.5301 14.0732 62.623 14.1944C62.732 14.3398 62.8573 14.3641 62.833 14.6873C62.829 14.7398 62.825 14.7963 62.8088 14.8569C62.8492 14.861 62.8896 14.865 62.934 14.865C62.9785 14.865 63.0269 14.865 63.0714 14.861C63.2855 14.1823 63.7258 13.5077 64.1258 13.0916C64.1904 13.0229 64.2591 13.0108 64.3197 13.0673C64.4409 13.1885 64.4732 13.3501 64.4166 13.5561C64.3479 13.8066 64.1662 14.1298 63.9965 14.3398C63.8107 14.5701 63.6248 14.76 63.3905 14.869C63.2128 15.3255 63.1603 15.7134 63.3622 15.7255ZM62.219 14.3802C62.1018 14.4732 61.9645 14.6267 61.8675 14.7963C61.6777 15.1316 61.6171 15.5518 61.7342 15.6487C61.8554 15.7537 62.1342 15.5922 62.3523 15.1882C62.421 15.063 62.4654 14.9498 62.5058 14.8408C62.3321 14.7236 62.219 14.5459 62.219 14.3802ZM62.5785 14.3681C62.5543 14.2227 62.4654 14.251 62.4452 14.3802C62.4291 14.4974 62.4614 14.6145 62.5422 14.7034C62.5785 14.5661 62.5907 14.4489 62.5785 14.3681ZM63.948 14.1863C64.146 13.8995 64.3237 13.5036 64.2671 13.4632C64.2187 13.4309 63.8753 13.9157 63.5723 14.4933C63.536 14.562 63.5036 14.6267 63.4794 14.6873C63.6854 14.5418 63.8551 14.3196 63.948 14.1863Z" fill="url(#paint18_linear_4_743)"/>
<path d="M64.1175 15.8515C63.7984 15.8273 63.7903 15.496 63.8873 15.2011C63.9842 14.9062 64.2145 14.4659 64.5053 14.0579C64.5417 14.0094 64.5861 14.0135 64.6225 14.0538C64.7195 14.2033 64.6993 14.4053 64.5377 14.6598C64.372 14.9264 64.2832 15.1042 64.1862 15.3183C64.0933 15.5364 64.1054 15.698 64.2104 15.7101C64.3842 15.7223 64.6306 15.4112 64.873 15.0193C65.1557 14.5629 65.285 14.2518 65.4304 14.0579C65.4749 13.9933 65.5072 13.9852 65.5436 14.0296C65.6122 14.1104 65.6486 14.3084 65.5395 14.5305C65.4426 14.7325 65.2163 15.0678 65.1113 15.2981C64.9942 15.5526 65.0144 15.7425 65.1759 15.7344C65.3658 15.7263 65.592 15.4274 65.7698 15.1163C65.794 15.0759 65.8344 15.0719 65.8506 15.1123C65.8667 15.1486 65.8748 15.2698 65.8102 15.395C65.6809 15.6455 65.4022 15.8758 65.1355 15.8758C64.8447 15.8758 64.7275 15.6899 64.7639 15.4314C64.6063 15.6415 64.368 15.8717 64.1175 15.8515Z" fill="url(#paint19_linear_4_743)"/>
<path d="M65.9667 13.9322C65.9223 13.8676 65.9506 13.8393 66.0152 13.8433C66.1404 13.8474 66.2657 13.8393 66.3869 13.8272C66.5242 13.5807 66.6535 13.3707 66.7262 13.2697C66.7666 13.2131 66.811 13.2172 66.8353 13.2697C66.8837 13.3949 66.8837 13.5444 66.7787 13.7787C66.9524 13.7746 67.0211 13.8554 67.0575 13.912C67.0898 13.9645 67.0696 13.9968 67.0049 13.9968C66.908 13.9847 66.7666 13.9968 66.6535 14.013C66.4798 14.3119 66.2212 14.7482 66.0516 15.128C65.9021 15.4552 65.9546 15.7339 66.1404 15.742C66.3424 15.7501 66.5969 15.4309 66.7625 15.0956C66.7908 15.0431 66.8393 15.031 66.8555 15.0956C66.8797 15.1684 66.8555 15.2491 66.811 15.3501C66.7545 15.4794 66.4555 15.8753 66.096 15.8632C65.8011 15.8551 65.5627 15.5239 65.7769 15.0068C65.8698 14.7805 66.0596 14.4048 66.2535 14.0493C66.1041 14.0453 66.0031 13.9807 65.9667 13.9322Z" fill="url(#paint20_linear_4_743)"/>
<path d="M66.6666 15.2036C66.7797 14.8764 67.0746 14.3472 67.2402 14.1129C67.2806 14.0604 67.3129 14.0442 67.3493 14.0846C67.418 14.1573 67.4543 14.3512 67.3452 14.5734C67.2523 14.7714 67.0625 15.0743 66.9695 15.3006C66.8605 15.5591 66.8726 15.7369 67.014 15.7288C67.216 15.7207 67.4624 15.4218 67.5957 15.1147C67.6199 15.0743 67.6482 15.0784 67.6684 15.1147C67.7048 15.1874 67.6927 15.2804 67.6361 15.3935C67.5028 15.6722 67.22 15.8621 66.9655 15.8621C66.6262 15.858 66.5413 15.5712 66.6666 15.2036ZM67.6684 14.0321C67.6119 14.0967 67.4826 14.0806 67.418 13.9634C67.3452 13.8422 67.3695 13.7089 67.4422 13.6321C67.5149 13.5554 67.6442 13.6079 67.7007 13.7291C67.7573 13.8503 67.725 13.9715 67.6684 14.0321Z" fill="url(#paint21_linear_4_743)"/>
<path d="M70.3508 15.8708C69.9791 15.8708 69.8822 15.592 70.0155 15.2123C70.169 14.772 70.5568 14.2953 70.4841 14.271C70.4316 14.2549 70.1771 14.368 69.8903 14.6831C69.6317 14.9659 69.4176 15.3981 69.2358 15.8182C69.2237 15.8506 69.1914 15.8748 69.151 15.8304C69.0702 15.7415 69.0379 15.5961 69.1146 15.3739C69.1631 15.2365 69.2641 15.0022 69.3974 14.7639C69.2762 14.8447 69.1389 14.8851 68.9813 14.877C68.8924 15.2567 68.6056 15.7213 68.2703 15.8304C68.1087 15.8829 67.8785 15.8788 67.7048 15.6405C67.5068 15.3739 67.5755 14.982 67.7775 14.6306C67.9512 14.3235 68.2219 14.069 68.4925 14.0488C68.6258 14.0367 68.7026 14.0771 68.7915 14.1983C68.9005 14.3437 69.0338 14.368 69.0056 14.6912C69.0056 14.7154 69.0056 14.7437 69.0015 14.772C69.2843 14.7679 69.5752 14.4407 69.8175 14.0731C69.8499 14.0246 69.8862 14.0246 69.9105 14.065C69.9791 14.1781 69.9791 14.3316 69.9266 14.4851C70.1286 14.2751 70.4235 14.0327 70.577 14.0488C70.7265 14.065 70.8638 14.2953 70.7507 14.5255C70.6538 14.7275 70.4397 15.0507 70.3346 15.285C70.2175 15.5395 70.2417 15.7415 70.4114 15.7375C70.5891 15.7334 70.8032 15.4426 70.977 15.1194C70.9931 15.083 71.0416 15.083 71.0537 15.1194C71.0779 15.1719 71.0779 15.2648 71.0093 15.4022C70.8921 15.6445 70.6174 15.8708 70.3508 15.8708ZM68.3956 14.368C68.2703 14.473 68.1451 14.6306 68.0441 14.7962C67.8462 15.1315 67.7856 15.5516 67.9068 15.6486C68.0279 15.7455 68.3067 15.592 68.5208 15.188C68.5975 15.0426 68.6501 14.9174 68.6864 14.8043C68.5289 14.7194 68.3996 14.5457 68.3956 14.368ZM68.747 14.368C68.7228 14.2226 68.6299 14.2508 68.6137 14.3801C68.6016 14.4771 68.6299 14.6104 68.7228 14.679C68.747 14.5579 68.7591 14.4488 68.747 14.368Z" fill="url(#paint22_linear_4_743)"/>
<path d="M71.6147 14.2827C71.639 14.109 71.6834 14.0241 71.7763 13.9353C71.8733 13.8464 71.9783 13.8262 72.0187 13.8666C72.0632 13.911 72.043 13.9595 71.9824 14.0645C71.9662 14.0928 71.95 14.1171 71.9339 14.1494C71.9016 14.5614 71.9864 14.9129 71.9743 15.2239C71.9662 15.3977 71.9339 15.5875 71.7723 15.6966C72.0712 15.5835 72.2611 15.3169 72.3742 15.0704C72.3985 15.022 72.4429 15.0341 72.4591 15.0704C72.4752 15.1108 72.4712 15.228 72.3944 15.3653C72.2247 15.6764 71.9177 15.8461 71.5986 15.8582C71.34 15.8663 71.0855 15.8016 70.9361 15.5229C70.827 15.3209 70.8432 15.026 70.9926 14.9008C71.0451 14.8563 71.0815 14.8725 71.0855 14.9452C71.0896 14.9816 71.0896 15.0179 71.0936 15.0543C71.2795 14.8038 71.4814 14.5129 71.6147 14.2827ZM71.1381 15.2967C71.2067 15.5552 71.336 15.741 71.4855 15.6966C71.6915 15.632 71.6228 14.929 71.6067 14.5695C71.4734 14.8078 71.3077 15.0543 71.1381 15.2967Z" fill="url(#paint23_linear_4_743)"/>
<path d="M24.6915 16.6513C24.6915 10.8946 27.9758 10.0907 28.5939 10.3614C29.208 10.6321 26.8487 12.5913 27.1356 12.5631C28.3394 12.4378 28.9333 11.6864 30.3876 8.75762C30.4805 8.59199 30.7875 8.63239 30.7633 9.07272C30.5855 12.3974 29.3211 13.3952 27.7092 14.2153C25.9681 15.1 25.5601 15.4919 24.6915 16.6513Z" fill="url(#paint24_linear_4_743)"/>
<path d="M24.4371 16.6513C24.4371 10.8946 21.1528 10.0907 20.5347 10.3614C19.9207 10.6321 22.2799 12.5913 21.993 12.5631C20.7892 12.4378 20.1954 11.6864 18.7451 8.75762C18.6522 8.59199 18.3452 8.63239 18.3694 9.07272C18.5471 12.3974 19.8116 13.3952 21.4234 14.2153C23.1646 15.1 23.5726 15.4919 24.4371 16.6513Z" fill="url(#paint25_linear_4_743)"/>
<path d="M28.2914 7.88144C28.2349 7.86932 28.1824 7.86124 28.1258 7.84912C28.0773 7.84104 28.0248 7.82488 27.9763 7.82084C27.7542 7.79257 27.532 7.78853 27.3219 7.82084C27.0876 7.8572 26.8896 7.92992 26.72 8.01475C26.6715 8.51972 26.5018 9.18224 26.2514 9.82052C26.2352 9.86495 26.215 9.90535 26.1989 9.94979C26.3645 9.99018 26.5503 10.0265 26.7563 10.0508C28.7883 10.281 29.6367 9.06508 29.8427 8.69747C29.3175 8.28137 28.7924 8.01071 28.2914 7.88144Z" fill="#9EC55B"/>
<path d="M22.4089 8.05625C22.2271 7.95526 22.0049 7.86638 21.7383 7.82195C21.5686 7.79367 21.3949 7.79367 21.2172 7.80579C21.1849 7.80983 21.1566 7.81387 21.1243 7.81791C21.0475 7.82599 20.9708 7.83407 20.894 7.85023C20.3567 7.96334 19.7912 8.24612 19.2216 8.69453C19.4276 9.06215 20.2759 10.2781 22.3079 10.0478C22.5382 10.0236 22.7402 9.98321 22.9179 9.93473C22.9058 9.90241 22.8896 9.8701 22.8775 9.83374C22.6271 9.2197 22.4614 8.5693 22.4089 8.05625Z" fill="#9EC55B"/>
<path d="M24.1492 6.67389C24.1816 6.69813 24.226 6.73448 24.2704 6.77084C24.2866 6.787 24.3068 6.79912 24.323 6.81528C24.3755 6.85568 24.4441 6.91223 24.5249 6.96475C24.5613 6.98899 24.6017 7.01727 24.6502 7.03746C24.8239 7.11826 25.0138 7.1627 25.2036 7.1627C25.2157 7.13038 25.2319 7.09806 25.2481 7.06574C25.1592 7.04958 25.0582 7.03342 24.9572 7.00111C24.836 6.96475 24.6906 6.89203 24.6906 6.87183C24.6906 6.85164 24.8481 6.75064 24.8845 6.7264C25.0703 6.61329 25.3127 6.46786 25.5308 6.43554C25.2804 5.74879 24.8522 5.01759 24.529 4.53687C24.1937 5.00951 23.7412 5.73263 23.4746 6.4113C23.4827 6.41938 23.4867 6.42342 23.4908 6.4315C23.4948 6.4315 23.4988 6.4315 23.5029 6.4315C23.6928 6.42746 23.9311 6.52038 24.1492 6.67389Z" fill="#9EC55B"/>
<path d="M26.7351 7.68066C26.8967 7.61198 27.0744 7.55543 27.2764 7.52715C27.5107 7.49079 27.8056 7.48271 28.1409 7.54331C28.5449 6.7596 28.4722 6.04861 28.4237 5.78198C27.434 5.80218 26.6422 6.04861 26.0968 6.48894C26.0807 6.50106 26.0645 6.51722 26.0483 6.52933C26.4685 6.72728 26.7149 7.20397 26.7351 7.68066Z" fill="#9EC55B"/>
<path d="M23.1278 6.50376C23.0712 6.45529 23.0107 6.40681 22.946 6.36641C22.4087 5.9988 21.6735 5.79681 20.7767 5.77661C20.7282 6.04323 20.6555 6.74615 21.0473 7.52178C21.3301 7.48542 21.5806 7.4935 21.7866 7.52582C22.0169 7.56218 22.2189 7.63085 22.3926 7.71165C22.4047 7.20264 22.6713 6.68959 23.1278 6.50376Z" fill="#9EC55B"/>
<path d="M26.7349 7.67957C26.7107 7.19884 26.4643 6.72619 26.0482 6.5242C25.9189 6.4636 25.7775 6.42725 25.6159 6.42725C25.5876 6.42725 25.5594 6.43129 25.5311 6.43533C25.3129 6.46764 25.0665 6.61711 24.8847 6.72619C24.8484 6.75043 24.6908 6.85142 24.6908 6.87162C24.6908 6.89182 24.8363 6.96453 24.9574 7.00089C25.0544 7.02917 25.1554 7.04937 25.2483 7.06552C25.4059 7.08976 25.527 7.09784 25.5311 7.09784C25.5311 7.09784 25.5594 7.09784 25.5594 7.10592C25.5594 7.114 25.5311 7.12208 25.5311 7.12208C25.5311 7.12208 25.3978 7.16248 25.2039 7.16248C25.014 7.16248 24.8282 7.12208 24.6504 7.03725C24.606 7.01705 24.5616 6.98877 24.5252 6.96453C24.4444 6.91201 24.3757 6.85546 24.3232 6.81506C24.307 6.80294 24.2909 6.78678 24.2707 6.77062C24.2263 6.73427 24.1818 6.69387 24.1495 6.67367C23.9314 6.52016 23.689 6.43129 23.5072 6.43129C23.5031 6.43129 23.4991 6.43129 23.4951 6.43129C23.3617 6.43129 23.2365 6.45956 23.1234 6.504C22.671 6.68983 22.4043 7.20288 22.3922 7.71188C22.3922 7.724 22.3922 7.74016 22.3922 7.75228C22.3922 7.84519 22.4003 7.95023 22.4124 8.05526C22.4649 8.56427 22.6306 9.21871 22.877 9.84083C22.8891 9.87718 22.9053 9.9095 22.9174 9.94182C23.0386 10.2327 23.1678 10.4953 23.285 10.6811C23.4749 10.98 23.5476 10.9881 23.5678 10.9841C23.592 10.98 23.592 10.9558 23.6041 10.9194C23.6768 10.7013 23.7455 10.3943 23.7617 10.3498C24.0525 9.6146 25.1594 9.69943 25.3776 10.3579C25.3937 10.4064 25.5109 10.8588 25.5311 10.9194C25.5472 10.9639 25.5472 10.976 25.5674 10.98C25.5957 10.9881 25.6967 10.9154 25.8462 10.673C25.9593 10.4912 26.0845 10.2367 26.2057 9.9499C26.2219 9.90546 26.2421 9.86506 26.2582 9.82063C26.5087 9.18235 26.6824 8.51983 26.7269 8.01486C26.7349 7.92195 26.743 7.82904 26.743 7.74824C26.739 7.72804 26.7349 7.7038 26.7349 7.67957Z" fill="white"/>
<path d="M23.5546 11.1358C23.4375 11.1358 23.3163 11.0227 23.1507 10.7601C23.0133 10.542 22.8638 10.235 22.7305 9.89562C22.4275 9.12807 22.2377 8.30396 22.2377 7.75052C22.2377 7.0274 22.7144 6.27601 23.5102 6.27601C23.7243 6.27601 23.9909 6.37297 24.2373 6.54667C24.2737 6.57091 24.3222 6.61131 24.3707 6.65171L24.4191 6.69211C24.4555 6.72038 24.4999 6.76078 24.5565 6.79714C24.5807 6.74866 24.6454 6.69211 24.8069 6.59515C25.0332 6.4578 25.3362 6.27197 25.6189 6.27197C26.4148 6.27197 26.8915 7.01932 26.8915 7.74648C26.8915 8.28376 26.7016 9.09979 26.3946 9.87542C26.2572 10.2188 26.1077 10.5299 25.9704 10.752C25.7401 11.1197 25.6149 11.1439 25.5301 11.1277C25.4291 11.1035 25.4008 11.0187 25.3887 10.9783C25.3725 10.9338 25.3402 10.8005 25.3038 10.6672C25.2715 10.546 25.2432 10.4289 25.2311 10.4046C25.1382 10.1218 24.8393 9.98853 24.5848 9.98449C24.3383 9.97641 24.0273 10.0855 23.898 10.4087C23.894 10.4248 23.8818 10.4733 23.8657 10.5339C23.8334 10.6551 23.7889 10.8288 23.7445 10.9702C23.7283 11.0187 23.7001 11.1156 23.5869 11.1358C23.5789 11.1318 23.5667 11.1358 23.5546 11.1358ZM23.5102 6.57899C22.9042 6.57899 22.5407 7.17687 22.5407 7.75052C22.5407 8.2676 22.7224 9.04727 23.0133 9.78251C23.1426 10.1097 23.284 10.3965 23.4092 10.5985C23.4456 10.6551 23.4738 10.6995 23.5021 10.7318C23.5304 10.6349 23.5546 10.5339 23.5748 10.4531C23.595 10.3683 23.6112 10.3077 23.6193 10.2915C23.7768 9.89966 24.1444 9.66535 24.5928 9.67747C25.0291 9.68959 25.3927 9.93602 25.5179 10.3036C25.526 10.3279 25.5583 10.4571 25.5947 10.5864C25.6068 10.6309 25.6189 10.6753 25.627 10.7157C25.6513 10.6834 25.6795 10.643 25.7118 10.5905C25.8411 10.3844 25.9825 10.0936 26.1118 9.76231C26.4026 9.019 26.5885 8.24741 26.5885 7.74648C26.5885 7.16879 26.2249 6.57495 25.6189 6.57495C25.4291 6.57495 25.1705 6.72846 24.9807 6.84562C24.9887 6.84966 24.9968 6.84966 25.0049 6.8537C25.2392 6.92237 25.5018 6.93853 25.5381 6.94257C25.6472 6.94661 25.7038 7.01528 25.7118 7.088C25.7159 7.11224 25.7199 7.22535 25.5745 7.26575C25.5664 7.26979 25.4129 7.31019 25.2069 7.31019C24.9928 7.31019 24.7867 7.26575 24.5888 7.17283C24.5363 7.1486 24.4878 7.11628 24.4474 7.09204C24.3585 7.03548 24.2858 6.97489 24.2333 6.93045L24.1969 6.90217C24.1404 6.8537 24.1 6.82138 24.0717 6.79714C23.8738 6.65979 23.6597 6.57899 23.5102 6.57899Z" fill="url(#paint26_linear_4_743)"/>
</g>
<path d="M121.5 0.671875L101.188 21.3438H113L133.5 0.671875H121.5Z" fill="#9EC55B"/>
<defs>
<linearGradient id="paint0_linear_4_743" x1="35.8296" y1="5.47217" x2="35.8296" y2="11.6732" gradientUnits="userSpaceOnUse">
<stop stop-color="#13588D"/>
</linearGradient>
<linearGradient id="paint1_linear_4_743" x1="42.0709" y1="5.58203" x2="42.0709" y2="11.5649" gradientUnits="userSpaceOnUse">
<stop stop-color="#13588D"/>
</linearGradient>
<linearGradient id="paint2_linear_4_743" x1="47.777" y1="5.58203" x2="47.777" y2="11.5649" gradientUnits="userSpaceOnUse">
<stop stop-color="#13588D"/>
</linearGradient>
<linearGradient id="paint3_linear_4_743" x1="33.7784" y1="12.9736" x2="33.7784" y2="15.8462" gradientUnits="userSpaceOnUse">
<stop stop-color="#13588D"/>
</linearGradient>
<linearGradient id="paint4_linear_4_743" x1="36.9066" y1="12.9509" x2="36.9066" y2="15.8334" gradientUnits="userSpaceOnUse">
<stop stop-color="#13588D"/>
</linearGradient>
<linearGradient id="paint5_linear_4_743" x1="39.9153" y1="14.031" x2="39.9153" y2="15.8968" gradientUnits="userSpaceOnUse">
<stop stop-color="#13588D"/>
</linearGradient>
<linearGradient id="paint6_linear_4_743" x1="42.5624" y1="14.0144" x2="42.5624" y2="16.8068" gradientUnits="userSpaceOnUse">
<stop stop-color="#13588D"/>
</linearGradient>
<linearGradient id="paint7_linear_4_743" x1="44.3776" y1="13.009" x2="44.3776" y2="15.85" gradientUnits="userSpaceOnUse">
<stop stop-color="#13588D"/>
</linearGradient>
<linearGradient id="paint8_linear_4_743" x1="45.4527" y1="14.0144" x2="45.4527" y2="15.8629" gradientUnits="userSpaceOnUse">
<stop stop-color="#13588D"/>
</linearGradient>
<linearGradient id="paint9_linear_4_743" x1="46.7673" y1="13.2288" x2="46.7673" y2="15.8635" gradientUnits="userSpaceOnUse">
<stop stop-color="#13588D"/>
</linearGradient>
<linearGradient id="paint10_linear_4_743" x1="47.7548" y1="14.0144" x2="47.7548" y2="15.8629" gradientUnits="userSpaceOnUse">
<stop stop-color="#13588D"/>
</linearGradient>
<linearGradient id="paint11_linear_4_743" x1="50.5595" y1="12.9956" x2="50.5595" y2="15.8535" gradientUnits="userSpaceOnUse">
<stop stop-color="#13588D"/>
</linearGradient>
<linearGradient id="paint12_linear_4_743" x1="52.3482" y1="14.0144" x2="52.3482" y2="15.8629" gradientUnits="userSpaceOnUse">
<stop stop-color="#13588D"/>
</linearGradient>
<linearGradient id="paint13_linear_4_743" x1="53.8434" y1="14.0056" x2="53.8434" y2="15.8745" gradientUnits="userSpaceOnUse">
<stop stop-color="#13588D"/>
</linearGradient>
<linearGradient id="paint14_linear_4_743" x1="55.372" y1="13.2288" x2="55.372" y2="15.8635" gradientUnits="userSpaceOnUse">
<stop stop-color="#13588D"/>
</linearGradient>
<linearGradient id="paint15_linear_4_743" x1="56.6459" y1="14.009" x2="56.6459" y2="15.8718" gradientUnits="userSpaceOnUse">
<stop stop-color="#13588D"/>
</linearGradient>
<linearGradient id="paint16_linear_4_743" x1="58.2335" y1="13.009" x2="58.2335" y2="15.85" gradientUnits="userSpaceOnUse">
<stop stop-color="#13588D"/>
</linearGradient>
<linearGradient id="paint17_linear_4_743" x1="60.5577" y1="13.0164" x2="60.5577" y2="15.8875" gradientUnits="userSpaceOnUse">
<stop stop-color="#13588D"/>
</linearGradient>
<linearGradient id="paint18_linear_4_743" x1="62.9284" y1="13.0315" x2="62.9284" y2="15.8537" gradientUnits="userSpaceOnUse">
<stop stop-color="#13588D"/>
</linearGradient>
<linearGradient id="paint19_linear_4_743" x1="64.8474" y1="14.0017" x2="64.8474" y2="15.8758" gradientUnits="userSpaceOnUse">
<stop stop-color="#13588D"/>
</linearGradient>
<linearGradient id="paint20_linear_4_743" x1="66.3836" y1="13.2288" x2="66.3836" y2="15.8635" gradientUnits="userSpaceOnUse">
<stop stop-color="#13588D"/>
</linearGradient>
<linearGradient id="paint21_linear_4_743" x1="67.171" y1="13.5962" x2="67.171" y2="15.8621" gradientUnits="userSpaceOnUse">
<stop stop-color="#13588D"/>
</linearGradient>
<linearGradient id="paint22_linear_4_743" x1="69.3275" y1="14.0356" x2="69.3275" y2="15.8708" gradientUnits="userSpaceOnUse">
<stop stop-color="#13588D"/>
</linearGradient>
<linearGradient id="paint23_linear_4_743" x1="71.6661" y1="13.8467" x2="71.6661" y2="15.8588" gradientUnits="userSpaceOnUse">
<stop stop-color="#13588D"/>
</linearGradient>
<linearGradient id="paint24_linear_4_743" x1="27.7281" y1="8.66772" x2="27.7281" y2="16.6513" gradientUnits="userSpaceOnUse">
<stop stop-color="#13588D"/>
</linearGradient>
<linearGradient id="paint25_linear_4_743" x1="21.4026" y1="8.66772" x2="21.4026" y2="16.6513" gradientUnits="userSpaceOnUse">
<stop stop-color="#13588D"/>
</linearGradient>
<linearGradient id="paint26_linear_4_743" x1="24.5646" y1="6.27197" x2="24.5646" y2="11.1358" gradientUnits="userSpaceOnUse">
<stop stop-color="#13588D"/>
</linearGradient>
<clipPath id="clip0_4_743">
<rect width="54.1042" height="12.2727" fill="white" transform="translate(18.3635 4.5354)"/>
</clipPath>
</defs>
</svg>
