<?xml version="1.0" standalone="no"?>
<!DOCTYPE svg PUBLIC "-//W3C//DTD SVG 20010904//EN"
 "http://www.w3.org/TR/2001/REC-SVG-20010904/DTD/svg10.dtd">
<svg version="1.0" xmlns="http://www.w3.org/2000/svg"
 width="55.000000pt" height="55.000000pt" viewBox="0 0 55.000000 55.000000"
 preserveAspectRatio="xMidYMid meet">

<g transform="translate(0.000000,55.000000) scale(0.100000,-0.100000)"
fill="#000000" stroke="none">
<path d="M207 490 c-13 -11 -28 -31 -31 -44 -3 -14 -16 -42 -28 -62 -33 -56
-39 -145 -12 -175 9 -10 28 -19 43 -21 18 -2 26 -9 26 -22 0 -23 -9 -27 -102
-55 -83 -25 -103 -41 -103 -82 l0 -29 131 0 131 0 -31 35 c-17 20 -31 40 -31
45 0 6 21 10 48 10 26 0 56 6 67 13 11 8 35 17 54 21 19 3 45 18 59 33 22 24
26 37 26 88 0 33 -2 67 -5 75 -6 21 44 26 61 6 27 -34 40 -19 40 49 l0 64 -41
-14 c-65 -23 -92 -20 -113 16 -39 65 -136 91 -189 49z m103 -70 c24 -24 26
-53 5 -70 -13 -10 -12 -17 7 -50 19 -32 21 -44 13 -76 -8 -31 -15 -40 -35 -42
-34 -4 -75 41 -84 91 -7 35 -6 37 20 37 23 0 25 -3 20 -25 -5 -20 -3 -25 11
-25 10 0 25 5 33 10 12 8 11 10 -8 10 -19 0 -22 5 -20 32 3 26 -2 35 -24 46
-47 22 -32 82 19 82 13 0 32 -9 43 -20z"/>
<path d="M246 231 c5 -5 27 -6 49 -1 l40 8 -49 1 c-30 1 -46 -3 -40 -8z"/>
<path d="M0 416 c0 -31 6 -34 13 -6 3 11 1 23 -4 26 -5 3 -9 -6 -9 -20z"/>
<path d="M16 366 c7 -19 48 -22 42 -3 -3 6 -14 13 -26 15 -16 3 -20 -1 -16
-12z"/>
<path d="M439 94 c22 -16 23 -30 5 -78 -5 -13 3 -16 50 -16 50 0 56 2 56 21 0
34 -18 56 -60 73 -55 22 -83 22 -51 0z"/>
</g>
</svg>
