<svg width="68" height="73" viewBox="0 0 68 73" fill="none" xmlns="http://www.w3.org/2000/svg">
<g id="Frame" clip-path="url(#clip0_1_7177)" filter="url(#filter0_d_1_7177)">
<g id="Group">
<g id="Group_2">
<path id="Vector" d="M29.5341 39.6255L29.4314 4.30403C29.3287 3.99599 29.3287 2.86652 30.1501 1.83974C30.9716 0.812953 32.4091 0.299561 34.36 0.299561C37.3376 0.299561 42.6769 0.299561 46.168 0.299561C47.0921 0.299561 47.8109 0.812953 48.0162 1.63438C48.3243 2.45581 48.0162 3.37992 47.2975 3.89331L40.11 9.02724L41.2394 11.5942L39.8019 12.2103L38.2618 8.51385L46.476 2.55849C46.6814 2.45581 46.6814 2.25045 46.5787 2.14777C46.5787 2.0451 46.476 1.83974 46.168 1.83974C42.5743 1.83974 37.3376 1.83974 34.36 1.83974C32.9225 1.83974 31.793 2.14777 31.3823 2.76385C30.9716 3.27724 31.0743 3.99599 31.0743 3.99599V4.20135L31.1769 39.6255H29.5341Z" fill="#1581D5"/>
</g>
<g id="Group_3">
<path id="Vector_2" d="M42.8824 17.3462L38.5699 19.1944L35.2842 11.6989L39.5967 9.85066C41.5476 9.02923 43.9092 9.85066 44.7306 11.9042L44.8333 12.2123C45.7574 14.1632 44.8333 16.5248 42.8824 17.3462Z" fill="#1581D5"/>
</g>
<g id="Group_4">
<path id="Vector_3" d="M57.5661 45.3745C57.5661 45.3745 58.6956 46.2986 58.6956 46.4013C58.6956 46.5039 59.4143 46.812 59.6197 46.9147C59.8251 47.0173 61.4679 47.7361 62.4947 45.9905C63.2135 44.6557 63.7269 44.1423 64.651 43.5263C65.5751 43.0129 66.4992 41.062 66.4992 41.062C66.4992 41.062 66.1911 40.0352 64.7536 41.2673C63.4188 42.4995 60.4411 43.5263 58.901 43.1155C57.3608 42.8075 56.2313 44.3477 57.4635 45.3745H57.5661Z" fill="#3C170A"/>
</g>
<g id="Group_5">
<path id="Vector_4" d="M23.5781 37.4712C23.5781 37.4712 24.5022 41.2703 25.0156 42.2971C25.529 43.3239 26.8638 44.6587 31.9978 44.1453C37.029 43.6319 43.9085 42.2971 43.9085 42.2971L57.6674 46.4042L59.4129 43.2212C59.4129 43.2212 51.9174 40.4489 49.0424 39.0114C46.0647 37.5739 44.6272 37.0605 42.9844 37.4712C41.3415 37.9846 37.2344 38.6007 33.9487 38.1899C30.6629 37.7792 24.3996 34.9042 23.5781 37.4712Z" fill="#1574B3"/>
</g>
<g id="Group_6">
<path id="Vector_5" d="M27.891 37.0607L25.2214 33.3643C23.7839 31.4134 21.7303 29.9759 19.3687 29.3598H19.1634C18.1366 29.0518 16.9044 29.0518 15.6723 29.2571C15.5696 29.5652 15.0562 29.9759 13.8241 30.6946C13.208 31.0027 12.7973 31.1053 12.4893 31.208L12.5919 31.3107L13.6187 33.2616C13.6187 33.2616 17.9312 34.2884 21.3196 37.5741C24.708 40.7571 24.5027 41.4759 24.8107 41.4759C28.4044 40.4491 27.891 37.0607 27.891 37.0607Z" fill="#DA3716"/>
</g>
<g id="Group_7">
<g id="Group_8">
<path id="Vector_6" d="M40.9312 64.3743L27.583 57.0841L33.025 53.3877L48.1187 61.0886L40.9312 64.3743Z" fill="#116EB6"/>
</g>
<g id="Group_9">
<path id="Vector_7" d="M23.168 50.9242L48.2215 47.6385L62.4939 50.2055C63.3153 50.3082 64.034 49.4867 63.6233 48.768L63.2126 48.0492C63.1099 47.7412 62.8019 47.5359 62.4939 47.4332L48.2215 44.1475C48.1189 44.1475 48.0162 44.1475 48.0162 44.1475L29.226 44.3528C27.1724 44.3528 25.2215 45.6876 24.5028 47.6385L23.168 50.9242Z" fill="#116EB6"/>
</g>
<g id="Group_10">
<path id="Vector_8" d="M19.8828 43.0166L23.1685 53.7979L23.6819 50.5121L21.8337 43.0166H19.8828Z" fill="#0B4E82"/>
</g>
<g id="Group_11">
<g id="Group_12">
<path id="Vector_9" d="M24.1953 40.0406C23.5792 37.4736 16.8025 31.5183 10.1283 33.4692C9.82031 33.5719 9.51228 33.7772 9.30692 34.0853C9.20424 34.1879 9.20424 34.2906 9.10156 34.3933C10.1283 34.3933 18.7533 38.2951 21.3203 42.2995C22.1417 43.6344 22.2444 44.5585 21.9364 45.1745C23.3739 44.1478 24.7087 42.0942 24.1953 40.0406Z" fill="#116EB6"/>
</g>
<g id="Group_13">
<path id="Vector_10" d="M21.423 42.2983C18.856 38.2939 10.231 34.3921 9.20424 34.3921C8.99888 34.9055 9.10156 35.5216 9.51228 35.9323C11.9766 38.6019 19.3694 46.0974 20.7042 45.7894C21.115 45.6867 21.5257 45.4814 21.9364 45.1733C22.3471 44.5573 22.2444 43.6332 21.423 42.2983Z" fill="#0B4E82"/>
</g>
</g>
<g id="Group_14">
<g id="Group_15">
<path id="Vector_11" d="M3.45346 27.8226C2.52935 26.7958 1.91328 26.4878 1.50257 26.5905C1.39989 27.2065 1.70792 28.2333 3.04275 29.6708C6.22578 33.2646 7.5606 34.2914 8.89542 34.4967C8.89542 34.4967 9.30614 34.4967 9.92221 34.2914C10.949 33.3673 5.81507 30.3896 3.45346 27.8226Z" fill="#0B4E82"/>
</g>
</g>
<g id="Group_16">
<path id="Vector_12" d="M40.212 69.3034H23.27C21.8325 69.3034 21.3191 67.4552 22.5513 66.7365C22.7566 66.6338 22.962 66.5311 23.1673 66.5311L40.212 65.1963V69.3034Z" fill="#116EB6"/>
</g>
<g id="Group_17">
<path id="Vector_13" d="M22.3467 52.2584L21.0119 56.3655C20.6012 57.5976 21.0119 58.8298 22.0387 59.5485L23.5788 60.678C24.4003 61.2941 25.6324 61.3967 26.5565 60.986L44.936 51.9503C47.2976 50.8209 46.9896 47.3298 44.5253 46.611H44.4226C44.0119 46.5083 43.4985 46.4057 42.9851 46.5084L24.503 50.3075C23.4762 50.5128 22.6547 51.2316 22.3467 52.2584Z" fill="#0B4E82"/>
</g>
<g id="Group_18">
<path id="Vector_14" d="M61.6726 69.3027H35.2842V66.7357C35.2842 63.2446 37.2351 60.1643 40.4181 58.6241H40.5208C42.5744 57.5973 44.936 57.4946 47.0922 58.1107L54.5878 60.4723C57.1547 61.2937 59.2083 63.1419 60.2351 65.6062L61.6726 69.3027Z" fill="#0B4E82"/>
</g>
</g>
<g id="Group_19">
<path id="Vector_15" d="M7.66295 22.7878C7.56027 22.7878 7.56027 22.7878 7.66295 22.7878C7.56027 22.8905 7.66295 22.8905 7.66295 22.9932C7.66295 22.9932 7.76563 22.8905 7.66295 22.7878Z" fill="#E6E7E8"/>
</g>
<g id="Group_20">
<path id="Vector_16" d="M26.8647 49.5847C26.8647 49.5847 28.713 47.5311 29.021 46.607C29.329 45.8883 29.9451 43.3213 30.2531 42.1919C30.3558 41.8838 30.5612 41.5758 30.9719 41.3704L31.9987 40.9597C31.9987 40.9597 31.0746 43.9374 30.5612 45.2722C30.1505 46.1963 29.329 47.9419 28.9183 48.866C28.713 49.2767 28.3022 49.482 27.8915 49.482H26.8647V49.5847Z" fill="#002A4C"/>
</g>
<g id="Group_21">
<path id="Vector_17" d="M30.458 40.0394C30.3554 40.9636 31.2795 41.5796 32.1009 41.1689C33.1277 40.6555 34.4625 40.1421 36.1054 40.0394C39.4938 39.7314 42.9848 39.6287 42.9848 39.6287C42.9848 39.6287 42.7795 37.6778 31.4848 39.0127C30.8688 39.0127 30.458 39.5261 30.458 40.0394Z" fill="#002A4C"/>
</g>
<g id="Group_22">
<g id="Group_23">
<path id="Vector_18" d="M15.6722 29.2568C15.5695 29.2568 15.4668 29.2568 15.3641 29.3595L14.6454 28.0247L10.4355 28.9488L10.5382 29.0514L12.4891 31.3104C12.7972 31.2077 13.2079 31.105 13.8239 30.797C15.1588 29.9756 15.5695 29.5648 15.6722 29.2568Z" fill="#FFC6A6"/>
</g>
</g>
<g id="Group_24">
<path id="Vector_19" d="M18.0338 27.2029L16.9044 26.1761C16.5963 25.6627 16.1856 25.1493 16.1856 25.1493L17.007 23.9172L14.132 22.8904C13.824 22.1717 13.6187 21.8636 13.0026 21.4529C12.7972 21.2475 12.4892 21.1449 12.2838 21.0422C12.1812 21.0422 12.1812 21.0422 12.0785 20.9395C10.641 20.4261 8.99811 20.7342 7.66329 21.9663C5.60972 23.9172 5.50704 26.6895 6.94454 28.3324C6.94454 28.435 7.04722 28.5377 7.1499 28.6404C7.56061 29.1538 7.97133 29.5645 8.38204 29.7699C8.69008 29.9752 9.10079 30.0779 9.40883 30.1806C10.0249 30.3859 15.4669 31.1047 18.0338 27.2029Z" fill="#FDDAC4"/>
</g>
<g id="Group_25">
<path id="Vector_20" d="M10.1273 30.3865C10.7434 30.3865 11.3595 28.641 11.5648 27.9222C11.7702 27.2035 11.4622 27.4088 11.1541 27.8196C10.7434 28.2303 9.30592 27.8196 9.20324 26.9981C9.10056 26.1767 9.92199 25.766 10.3327 25.9713C10.7434 26.1767 11.0515 25.766 10.9488 25.1499C10.8461 24.5338 9.71663 23.4044 10.4354 22.2749C10.8461 21.5562 11.6675 21.1455 12.1809 20.9401C11.8729 18.8865 8.68985 20.324 7.04699 21.5562C4.48003 23.6097 4.89074 29.9758 10.1273 30.3865Z" fill="#5A1800"/>
</g>
<g id="Group_26">
<path id="Vector_21" d="M34.0518 37.8805L37.3375 37.2644L40.9312 38.1885V38.8046H37.5428L34.1544 39.0099L34.0518 37.8805Z" fill="#FDDAC4"/>
</g>
<g id="Group_27">
<path id="Vector_22" d="M34.1538 37.5719L25.7342 36.6478L18.8547 31.6166C18.136 31.1032 17.2119 31.2058 16.6985 31.8219C16.0824 32.5407 16.1851 33.6701 16.9038 34.1835L24.7074 40.0362L34.8726 38.8041L34.1538 37.5719Z" fill="#FF6161"/>
</g>
<g id="Group_28">
<path id="Vector_23" d="M3.24847 25.6633C2.73507 25.458 1.60561 25.6633 1.50293 26.5875C1.91364 26.4848 2.42704 26.7928 3.45382 27.8196C5.81543 30.2839 11.052 33.3642 9.92257 34.2883C10.744 34.083 11.7708 33.6723 12.3869 32.9535C13.4136 31.7214 4.06989 25.9714 3.24847 25.6633Z" fill="#0B4E82"/>
</g>
</g>
</g>
<defs>
<filter id="filter0_d_1_7177" x="0.502441" y="0.300293" width="66.9956" height="72" filterUnits="userSpaceOnUse" color-interpolation-filters="sRGB">
<feFlood flood-opacity="0" result="BackgroundImageFix"/>
<feColorMatrix in="SourceAlpha" type="matrix" values="0 0 0 0 0 0 0 0 0 0 0 0 0 0 0 0 0 0 127 0" result="hardAlpha"/>
<feOffset dy="2"/>
<feGaussianBlur stdDeviation="0.5"/>
<feComposite in2="hardAlpha" operator="out"/>
<feColorMatrix type="matrix" values="0 0 0 0 0 0 0 0 0 0 0 0 0 0 0 0 0 0 0.25 0"/>
<feBlend mode="normal" in2="BackgroundImageFix" result="effect1_dropShadow_1_7177"/>
<feBlend mode="normal" in="SourceGraphic" in2="effect1_dropShadow_1_7177" result="shape"/>
</filter>
<clipPath id="clip0_1_7177">
<rect width="64.9955" height="69" fill="white" transform="translate(1.50244 0.300293)"/>
</clipPath>
</defs>
</svg>
