<svg width="229" height="150" viewBox="0 0 229 150" fill="none" xmlns="http://www.w3.org/2000/svg">
<rect x="0.5" width="228" height="150" rx="8" fill="#098B8C"/>
<path opacity="0.15" d="M138.364 119.714C138.364 121.071 123.941 122.203 106.182 122.203C88.4221 122.203 73.9995 121.071 73.9995 119.714C73.9995 118.357 88.4221 117.225 106.182 117.225C123.941 117.225 138.364 118.357 138.364 119.714Z" fill="#14192B"/>
<path d="M96.9067 61.3448C95.0403 56.5372 97.4158 51.051 102.223 49.1846C107.031 47.3181 112.517 49.6936 114.384 54.5011L125.073 81.8758C126.94 86.6833 124.564 92.1695 119.757 94.036C114.949 95.9024 109.463 93.527 107.596 88.7194L96.9067 61.3448Z" fill="white"/>
<path d="M102.166 74.8068L107.595 88.7204C109.462 93.5279 114.948 95.9599 119.756 94.0369C124.563 92.1705 126.995 86.6842 125.072 81.8767L119.643 67.9631L102.166 74.8068Z" fill="#FFB65A"/>
<path opacity="0.1" d="M122.357 88.3237C117.55 90.1901 112.064 87.8147 110.197 83.0071L99.5074 55.5759C98.9419 54.1619 98.7722 52.748 98.8853 51.334C96.3967 53.8791 95.4917 57.7817 96.9057 61.2884L107.595 88.663C109.462 93.4706 114.948 95.9026 119.756 93.9796C123.206 92.6222 125.412 89.4549 125.694 86.0048C124.789 87.0228 123.658 87.8147 122.357 88.3237Z" fill="black"/>
<path d="M138.137 67.2282C135.422 71.6398 129.653 73.0538 125.185 70.2824C120.773 67.5675 119.359 61.7985 122.131 57.3303L137.571 32.2746C140.286 27.863 146.055 26.449 150.524 29.2204C154.935 31.9352 156.349 37.7043 153.578 42.1725L138.137 67.2282Z" fill="white"/>
<path d="M145.772 54.8978L153.578 42.172C156.292 37.7604 154.935 31.9348 150.523 29.22C146.112 26.5051 140.286 27.8625 137.571 32.2742L129.766 45.0565L145.772 54.8978Z" fill="#FFB65A"/>
<path opacity="0.1" d="M130.444 70.677C126.032 67.9621 124.618 62.1931 127.39 57.7249L142.831 32.6692C144.245 30.4068 146.45 28.9363 148.826 28.4273C144.697 26.9002 140.003 28.4838 137.627 32.3299L122.13 57.3856C119.415 61.7972 120.772 67.6228 125.184 70.3376C127.333 71.6385 129.822 72.0344 132.084 71.5254C131.575 71.2991 130.953 71.0163 130.444 70.677Z" fill="black"/>
<path d="M89.5524 60.9482L97.1313 94.4878C97.1313 94.4878 98.3756 98.5035 95.6042 100.031C93.6812 101.049 84.7449 103.537 84.7449 107.61C84.7449 111.625 86.4982 111.625 90.5705 111.908C94.5862 112.134 130.445 111.908 130.445 111.908" stroke="#E1F5FF" stroke-width="1.51364" stroke-miterlimit="10" stroke-linecap="round" stroke-linejoin="round"/>
<path d="M91.3052 67.2273L133.951 69.9987C133.951 69.9987 141.247 69.2634 141.021 77.2948C140.794 85.3828 140.285 90.1338 140.285 90.1338C140.285 90.1338 139.267 95.1675 131.688 94.9413C124.336 94.7151 97.1308 94.4323 97.1308 94.4323" stroke="#E1F5FF" stroke-width="1.51364" stroke-miterlimit="10" stroke-linecap="round" stroke-linejoin="round"/>
<path d="M80.785 56.8772H88.5902C88.7033 56.8772 88.873 56.8772 88.9861 56.9338C89.382 57.0469 89.6648 57.3297 89.7779 57.7256L90.6828 61.4585L88.5336 62.0241L87.7983 59.083H80.785C80.1628 59.083 79.6538 58.574 79.6538 57.9518C79.7104 57.3862 80.1628 56.8772 80.785 56.8772Z" fill="#000D4F"/>
<path d="M135.082 70.1118L133.838 94.9979" stroke="#E1F5FF" stroke-width="1.00907" stroke-miterlimit="10" stroke-linecap="round" stroke-linejoin="round"/>
<path d="M128.635 69.7727L128.748 94.9981" stroke="#E1F5FF" stroke-width="1.00907" stroke-miterlimit="10" stroke-linecap="round" stroke-linejoin="round"/>
<path d="M122.979 69.4895L123.715 94.7149" stroke="#E1F5FF" stroke-width="1.00907" stroke-miterlimit="10" stroke-linecap="round" stroke-linejoin="round"/>
<path d="M116.757 69.2627L117.775 94.7143" stroke="#E1F5FF" stroke-width="1.00907" stroke-miterlimit="10" stroke-linecap="round" stroke-linejoin="round"/>
<path d="M110.706 68.6406L113.138 94.0923" stroke="#E1F5FF" stroke-width="1.00907" stroke-miterlimit="10" stroke-linecap="round" stroke-linejoin="round"/>
<path d="M104.542 68.2451L107.087 94.2058" stroke="#E1F5FF" stroke-width="1.00907" stroke-miterlimit="10" stroke-linecap="round" stroke-linejoin="round"/>
<path d="M98.0938 68.1326L101.148 94.0932" stroke="#E1F5FF" stroke-width="1.00907" stroke-miterlimit="10" stroke-linecap="round" stroke-linejoin="round"/>
<path d="M140.852 76.1635L92.0415 73.3921" stroke="#E1F5FF" stroke-width="1.00907" stroke-miterlimit="10" stroke-linecap="round" stroke-linejoin="round"/>
<path d="M141.247 82.7235L93.8503 81.2529" stroke="#E1F5FF" stroke-width="1.00907" stroke-miterlimit="10" stroke-linecap="round" stroke-linejoin="round"/>
<path d="M140.626 87.6445L95.4922 87.8142" stroke="#E1F5FF" stroke-width="1.00907" stroke-miterlimit="10" stroke-linecap="round" stroke-linejoin="round"/>
<path d="M127.674 118.809C129.017 118.809 130.106 117.721 130.106 116.377C130.106 115.034 129.017 113.945 127.674 113.945C126.331 113.945 125.242 115.034 125.242 116.377C125.242 117.721 126.331 118.809 127.674 118.809Z" fill="#BAB8F3" stroke="#000D4F" stroke-width="1.48507" stroke-miterlimit="10"/>
<path d="M126.994 115.868C126.994 116.546 127.503 117.055 128.182 117.055C128.861 117.055 129.37 116.546 129.37 115.868V112.7C129.37 112.021 128.861 111.512 128.182 111.512C127.503 111.512 126.994 112.021 126.994 112.7V115.868Z" fill="#E1F5FF"/>
<path d="M88.9875 118.809C90.3306 118.809 91.4195 117.721 91.4195 116.377C91.4195 115.034 90.3306 113.945 88.9875 113.945C87.6443 113.945 86.5554 115.034 86.5554 116.377C86.5554 117.721 87.6443 118.809 88.9875 118.809Z" fill="#BAB8F3" stroke="#000D4F" stroke-width="1.48507" stroke-miterlimit="10"/>
<path d="M88.2517 115.868C88.2517 116.546 88.7607 117.055 89.4395 117.055C90.1182 117.055 90.6272 116.546 90.6272 115.868V112.7C90.6272 112.021 90.1182 111.512 89.4395 111.512C88.7607 111.512 88.2517 112.021 88.2517 112.7V115.868Z" fill="#E1F5FF"/>
</svg>
