<svg width="330" height="299" viewBox="0 0 330 299" fill="none" xmlns="http://www.w3.org/2000/svg">
<path opacity="0.7" d="M1.36971 181.285C1.36971 181.285 9.36904 239.042 61.6949 271.92C114.021 304.798 181.171 299.514 235.625 296.652C290.079 293.79 328.388 258.123 329.709 210.861C331.03 163.672 288.245 154.939 260.21 104.741C232.176 54.5438 232.323 36.9306 181.391 10.0705C130.46 -16.7897 58.3925 12.1253 25.3677 72.5239C-7.58367 132.996 1.36971 181.285 1.36971 181.285Z" fill="#B8D3E9"/>
<path d="M265.981 227.531H261.704V290.519H265.981V227.531Z" fill="#0B2347"/>
<path d="M226.923 191.184H191.628V170.8C191.628 168.624 193.388 166.865 195.564 166.865H222.963C225.139 166.865 226.898 168.624 226.898 170.8V191.184H226.923Z" fill="#FEFEFE"/>
<path d="M226.923 191.183H191.628V174.049C191.628 172.216 193.388 170.725 195.564 170.725H222.963C225.139 170.725 226.898 172.216 226.898 174.049V191.183H226.923Z" fill="#A5DDEC"/>
<path d="M197.861 165.493H196.639V166.691H195.857V175.124H196.639V184.363H197.861V175.124H198.35V166.691H197.861V165.493Z" fill="#0B2347"/>
<path d="M209.472 165.493H208.274V184.338H209.472V165.493Z" fill="#0B2347"/>
<path d="M219.321 165.493L219.907 184.363H221.105L221.716 165.493H219.321Z" fill="#0B2347"/>
<path d="M201.552 168.818H202.456V184.363H203.678V168.818H204.265V164.491H201.552V168.818Z" fill="#0B2347"/>
<path d="M213.187 177.936H214.091V184.364H215.289V177.936H215.705V164.908H213.187V177.936Z" fill="#0B2347"/>
<path d="M173.32 185.688L235.867 185.713C236.112 188.866 233.741 191.75 230.881 193.094C228.022 194.438 224.771 194.561 221.593 194.683C210.106 195.074 198.618 195.465 187.106 195.856C184.686 195.929 182.193 196.003 179.895 195.221C175.789 193.803 173.1 190.039 173.32 185.688Z" fill="#CCD9E2"/>
<path d="M173.32 186.642C173.345 187.375 173.467 188.084 173.662 188.793H235.305C235.623 188.108 235.819 187.4 235.868 186.642H173.32Z" fill="#FEFEFE"/>
<path d="M261.068 217.583L240.292 196.734C239.363 195.805 238.068 195.268 236.748 195.268H205.633V193.263H236.748C238.606 193.263 240.414 194.021 241.71 195.317L262.486 216.166L261.068 217.583Z" fill="#0B2347"/>
<path d="M192.972 194.388V195.317C192.972 196.417 193.876 197.321 194.976 197.321H224.38C225.48 197.321 226.384 196.417 226.384 195.317V194.388H192.972Z" fill="#0B2347"/>
<path d="M269.721 210.154H258.747V233.423H269.721V210.154Z" fill="#0B2347"/>
<path d="M267.838 210.154H264.368V233.423H267.838V210.154Z" fill="#006BA2"/>
<mask id="mask0_1_8491" style="mask-type:luminance" maskUnits="userSpaceOnUse" x="39" y="12" width="283" height="286">
<path d="M321.891 12.4679H39.3652V297.756H321.891V12.4679Z" fill="white"/>
</mask>
<g mask="url(#mask0_1_8491)">
<path d="M168.786 87.5758C168.2 85.8893 167.515 84.154 166.831 81.9297C166.024 79.3144 165.927 76.4547 164.582 74.1083C162.407 70.2709 157.152 68.5844 152.166 66.7023C151.286 64.7958 150.724 62.7427 150.43 60.6896C149.917 56.9255 150.235 53.0881 150.528 49.2995C147.106 49.2507 143.66 49.1773 140.238 49.1285C140.165 53.7969 139.114 58.4653 137.183 62.7671C133.565 64.8447 129.923 66.9223 126.306 68.9999C124.668 69.9287 121.809 72.1773 120.489 73.5461C117.067 77.1146 116.871 82.5163 117.971 87.5514L168.786 87.5758Z" fill="#F4B19F"/>
<path d="M150.332 87.5766L168.762 87.6011C168.175 85.9146 167.491 84.1792 166.806 81.9549C166 79.3396 165.902 76.4799 164.558 74.1335C162.382 70.2961 157.127 68.6096 152.141 66.7275C151.261 64.821 150.699 62.7679 150.406 60.7148C149.893 56.9507 150.21 53.1133 150.504 49.3248C147.302 49.2759 144.075 49.2025 140.873 49.1537C140.165 51.8423 140.678 54.8487 141.46 57.244C144.784 67.2408 147.864 77.3598 150.332 87.5766Z" fill="#E59A8C"/>
<path d="M151.702 65.5787C151.091 64.0144 150.675 62.3524 150.455 60.6903C149.942 56.9262 150.26 53.0888 150.553 49.3003C147.645 49.2514 144.712 49.2025 141.778 49.1537C141.241 56.5107 145.518 62.6946 151.702 65.5787Z" fill="#542305"/>
<path d="M138.944 43.432C139.751 43.2364 140.435 42.6498 140.948 41.9654C141.437 41.2811 141.779 40.4989 142.121 39.7168C144.052 35.2683 146.35 30.9909 148.965 26.9091C147.67 24.2938 145.421 22.094 142.61 21.263C139.824 20.4564 136.524 21.2141 134.642 23.4139C132.931 25.4182 132.565 28.229 132.491 30.8687C132.393 34.3151 132.736 37.9081 134.52 40.8411C134.984 41.6233 135.571 42.3565 136.329 42.8454C137.111 43.4075 138.064 43.6519 138.944 43.432Z" fill="#0B2347"/>
<path d="M137.844 27.4721C137.697 26.8611 137.917 26.2011 138.406 25.81C138.895 25.419 139.603 25.3456 140.166 25.6145C140.117 25.199 140.386 24.7346 140.777 24.5879C141.168 24.4413 141.681 24.5879 141.925 24.9546C142.219 24.3435 142.928 24.0013 143.587 24.148C144.247 24.2946 144.736 24.9301 144.736 25.5901C142.341 25.9078 140.068 27.1055 138.455 28.8897C136.841 30.674 135.888 33.0693 135.815 35.4647C135.522 34.8047 135.204 34.1204 135.204 33.4115C135.179 32.7027 135.522 31.9206 136.206 31.6517C135.913 30.9918 136.01 30.1852 136.45 29.5986C136.23 29.1342 136.255 28.5476 136.548 28.132C136.817 27.6921 137.33 27.4232 137.844 27.4721Z" fill="#FFD53F"/>
<path d="M149.527 30.2599C152.142 29.3555 155.075 29.0133 157.641 30.0644C159.768 30.9443 161.43 32.7285 162.652 34.7084C163.947 36.8104 164.827 39.2546 164.534 41.6988C164.314 43.5564 163.459 45.2673 163.165 47.1005C162.921 48.7137 163.116 50.3757 162.872 51.9889C162.334 55.5574 159.719 58.4416 157.226 61.0569C156.37 61.9613 155.417 62.9145 154.195 63.0612C153.266 63.1834 152.362 62.8167 151.531 62.4257C146.52 60.0792 142.121 56.0707 140.068 50.9379C138.014 45.8051 138.552 39.499 142.072 35.2216C143.954 32.8996 146.642 31.2376 149.527 30.2599Z" fill="#F4B19F"/>
<path d="M143.196 49.838C147.669 46.2695 150.357 42.6765 154.83 40.8922C157.739 39.4501 161.234 40.3545 164.363 38.8146C164.045 37.3725 163.434 35.9793 162.652 34.7084C161.43 32.7285 159.792 30.9443 157.641 30.0644C155.099 29.0133 152.142 29.3555 149.526 30.2599C146.642 31.2376 143.954 32.8996 142.023 35.2705C138.527 39.5723 137.965 45.8539 140.018 50.9868C140.385 51.8911 140.801 52.7466 141.289 53.5532C141.485 52.0867 141.974 50.7912 143.196 49.838Z" fill="#E59A8C"/>
<path d="M164.875 35.6137C163.727 32.4852 161.16 30.1387 158.276 28.5744C155.71 27.2057 152.85 26.4235 150.015 25.8125C147.399 25.2503 144.564 24.8103 142.095 25.8614C139.431 26.9857 137.696 29.6254 136.694 32.3385C134.127 39.3534 135.912 47.737 140.947 53.2365C141.167 52.9921 141.362 52.7721 141.582 52.5277C141.484 51.11 142.071 49.5702 143 48.4703C144.515 46.7105 146.69 45.7083 148.621 44.4373C149.575 43.8018 150.528 42.9953 151.237 42.0909C152.654 40.2822 154.805 39.2312 157.103 39.4023C158.447 39.5 159.767 39.5489 161.111 39.5978C162.627 39.6467 164.362 39.5734 164.973 37.7891C165.193 37.0558 165.144 36.2981 164.875 35.6137Z" fill="#0B2347"/>
<path d="M142.316 27.5955C140.312 28.4999 138.87 30.553 138.674 32.7283C139.823 32.044 141.021 31.4573 142.243 30.9196C142.707 30.7241 143.269 30.553 143.661 30.8463C144.149 31.2129 143.978 32.0195 143.685 32.5572C143.392 33.095 143.001 33.7549 143.269 34.3171C144.369 34.3904 145.494 34.4882 146.594 34.5615C146.178 34.5126 145.982 35.0992 146.202 35.4658C146.422 35.808 146.838 35.9547 147.229 36.0769C147.62 36.1991 148.036 36.3702 148.207 36.7613C148.378 37.1279 148.207 37.5679 147.987 37.9345C148.818 38.13 149.258 39.2544 148.793 39.9632C150.993 38.8389 153.315 38.0078 155.735 37.4701C153.999 37.079 152.191 37.1035 150.48 37.5434C151.213 37.3723 151.164 36.1747 150.529 35.7592C149.893 35.3436 149.062 35.4903 148.329 35.6369C148.524 35.2214 148.696 34.757 148.598 34.2926C148.476 33.8527 147.889 33.5105 147.547 33.8038C147.547 33.4616 147.571 33.1194 147.571 32.8017C146.911 32.875 146.227 32.5328 145.909 31.9462C145.591 31.3596 145.665 30.6019 146.08 30.0886C145.469 30.0153 144.809 30.1375 144.272 30.4308C144.125 29.9908 143.978 29.5509 143.807 29.0865C143.269 29.1598 142.732 29.2087 142.194 29.282C142.218 28.7443 142.267 28.1821 142.316 27.5955Z" fill="#13A8B3"/>
<path d="M163.825 46.342C163.385 46.3176 162.945 46.3176 162.603 46.4153C162.212 46.5131 161.894 46.7331 161.65 47.0264L159.181 47.0997L159.01 47.0508C156.639 46.3909 154.195 46.0731 151.726 46.0731H151.482C151.091 46.0731 150.651 46.0976 150.333 46.3909C150.309 46.4153 150.284 46.4398 150.26 46.4642C148.28 46.1709 146.276 45.9754 144.296 45.8287L144.271 46.3664C146.178 46.4886 148.084 46.6842 149.991 46.953C149.918 47.2219 149.893 47.4908 149.893 47.7596C149.893 48.8106 149.942 49.8372 150.602 50.5949C151.017 51.0593 151.58 51.3037 151.971 51.4504C152.728 51.7193 153.511 51.8659 154.293 51.8659C155.173 51.8659 156.004 51.6704 156.737 51.3037C158.179 50.5705 159.132 49.1039 159.181 47.6374L161.332 47.5641C161.234 47.8574 161.185 48.1752 161.185 48.4196C161.161 48.9573 161.185 49.495 161.283 50.0083C161.332 50.2772 161.43 50.6438 161.625 50.9371C161.821 51.2304 162.139 51.4259 162.456 51.4259C162.481 51.4259 162.53 51.4259 162.554 51.4259C163.019 51.3771 163.336 50.9615 163.507 50.5949C163.679 50.2038 163.727 49.7883 163.752 49.4217L164.094 46.3664L163.825 46.342ZM156.493 50.8393C155.833 51.1815 155.099 51.3282 154.293 51.3282C153.584 51.3282 152.851 51.1815 152.166 50.9371C151.629 50.7416 151.262 50.5216 151.017 50.2283C150.48 49.6172 150.431 48.7129 150.431 47.7596C150.431 47.393 150.455 46.9775 150.675 46.782C150.871 46.6109 151.164 46.6109 151.482 46.5864H151.702C154.048 46.5864 156.395 46.9042 158.668 47.4908C158.668 48.8351 157.788 50.1794 156.493 50.8393ZM163.214 49.3728C163.165 49.715 163.141 50.0816 162.994 50.3749C162.872 50.6682 162.652 50.8638 162.456 50.8882H162.408C162.285 50.8882 162.139 50.7905 162.016 50.6438C161.87 50.4238 161.796 50.155 161.772 49.9105C161.674 49.4461 161.65 48.9329 161.674 48.444C161.699 48.1507 161.723 47.8085 161.894 47.5152C162.065 47.2219 162.359 47.0019 162.701 46.9286C162.872 46.8797 163.043 46.8553 163.263 46.8553C163.336 46.8553 163.385 46.8553 163.459 46.8553L163.214 49.3728Z" fill="#0B2347"/>
<path d="M144.003 47.5652C143.832 46.8319 143.588 46.1231 143.148 45.512C142.708 44.901 142.023 44.4366 141.29 44.4121C140.532 44.3877 139.775 44.901 139.652 45.6342C139.506 46.4897 140.19 47.2963 140.19 48.1518C140.19 48.9339 139.628 49.5939 139.433 50.3516C139.188 51.3048 139.579 52.3314 140.264 53.0402C140.948 53.749 141.877 54.1401 142.83 54.3601L144.003 47.5652Z" fill="#F4B19F"/>
<path d="M142.976 47.4673C142.78 46.8807 142.487 46.3185 142.096 45.8541C141.851 45.5364 141.46 45.2431 141.069 45.3897C140.825 45.4875 140.703 45.7564 140.703 46.0252C140.703 46.2941 140.8 46.5385 140.898 46.7829C141.143 47.3206 141.436 47.8339 141.778 48.3228C141.265 48.225 140.825 48.7383 140.776 49.2516C140.727 49.7649 140.947 50.2537 141.167 50.7425C141.387 51.2069 141.607 51.7202 141.534 52.2335C141.876 52.1113 142.047 51.6958 142.023 51.3292C141.998 50.9625 141.851 50.6203 141.803 50.2537C141.729 49.8871 141.803 49.4716 142.071 49.2516C142.267 49.1049 142.536 49.056 142.756 48.9094C143.171 48.6161 143.122 47.9561 142.976 47.4673Z" fill="#0B2347"/>
<path d="M158.057 55.9221L158.008 55.3844C158.912 55.2866 159.817 55.1155 160.696 54.8711C161.063 54.7733 161.405 54.6511 161.552 54.3822C161.699 54.0889 161.601 53.6978 161.479 53.3068L160.672 50.9359C160.403 50.1782 160.11 49.2983 160.183 48.4184C160.281 47.2207 161.063 46.0719 162.163 45.5831L162.383 46.0719C161.454 46.4874 160.794 47.4407 160.721 48.4672C160.672 49.2494 160.941 50.056 161.185 50.7892L161.992 53.1601C162.163 53.6245 162.31 54.1867 162.041 54.6511C161.796 55.091 161.332 55.2621 160.843 55.4088C159.914 55.6288 158.985 55.8243 158.057 55.9221Z" fill="#0B2347"/>
<path d="M158.472 57.4868C156.859 57.389 155.221 57.3157 153.608 57.2179C153.877 58.2689 154.854 59.1 155.954 59.1489C157.03 59.2222 158.105 58.5134 158.472 57.4868Z" fill="#FEFEFE"/>
<path d="M151.212 45.5572L151.065 45.0439C152.899 44.5062 154.805 44.2862 156.712 44.4084L156.687 44.9462C154.83 44.8239 152.996 45.0439 151.212 45.5572Z" fill="#0B2347"/>
<path d="M154.438 49.9325C154.78 49.9813 155.123 49.7614 155.318 49.4925C155.514 49.1992 155.587 48.857 155.636 48.5148C155.66 48.3437 155.66 48.1482 155.587 47.9771C155.514 47.806 155.367 47.6593 155.196 47.6593C154.952 47.6593 154.756 47.8793 154.634 48.0993C154.414 48.4659 154.243 48.8814 154.145 49.297C154.096 49.4436 154.072 49.6147 154.145 49.7614C154.169 49.8836 154.316 49.9325 154.438 49.9325Z" fill="#0B2347"/>
<path d="M163.316 45.1908L162.782 45.3686L162.952 45.8788L163.486 45.7009L163.316 45.1908Z" fill="#0B2347"/>
<path d="M161.821 49.3961C162.016 49.4206 162.212 49.2495 162.334 49.0051C162.456 48.7606 162.505 48.4673 162.505 48.174C162.505 48.0274 162.505 47.8563 162.481 47.7096C162.432 47.563 162.359 47.4408 162.261 47.4408C162.114 47.4408 162.016 47.6363 161.943 47.8318C161.821 48.1496 161.723 48.4918 161.65 48.8584C161.625 48.9806 161.601 49.1273 161.65 49.2495C161.674 49.3228 161.748 49.3717 161.821 49.3961Z" fill="#0B2347"/>
<path d="M196.822 303.255C188.487 299.589 180.984 293.869 175.166 286.781C173.993 241.759 172.844 196.761 171.671 151.739L145.323 151.714C142.707 160.318 142.585 169.508 145.029 178.332C147.816 188.377 153.828 197.812 156.273 207.931C159.083 219.492 157.079 231.249 157.177 242.957C157.324 259.259 164.534 273.9 166.025 291.474C165.829 293.478 165.658 295.507 165.463 297.511C165.365 298.465 165.292 299.491 165.756 300.371C166.538 301.862 168.494 302.302 170.131 302.18C171.769 302.058 173.431 301.593 175.044 302.033C176.877 302.522 178.246 304.062 179.859 305.088C183.648 307.533 188.414 307.093 192.765 306.555C193.767 306.433 194.793 306.31 195.624 305.773C196.48 305.259 197.091 304.257 196.822 303.255Z" fill="#F4B19F"/>
<path d="M189.074 299.1C183.843 295.776 179.126 291.596 175.191 286.781C174.018 241.759 172.869 196.761 171.696 151.739L145.347 151.714C142.732 160.318 142.609 169.508 145.054 178.332C147.84 188.377 153.853 197.812 156.297 207.931C159.108 219.492 157.104 231.249 157.201 242.957C157.348 259.259 164.558 273.9 166.049 291.474C165.927 292.77 165.805 294.065 165.683 295.336C172.453 299.418 181.399 301.08 189.074 299.1Z" fill="#E59A8C"/>
<path d="M189.074 299.1C181.424 301.079 172.454 299.417 165.683 295.311C165.61 296.044 165.561 296.753 165.488 297.486C165.39 298.44 165.317 299.466 165.781 300.346C166.563 301.837 168.519 302.277 170.156 302.155C171.794 302.033 173.456 301.568 175.069 302.008C176.902 302.497 178.271 304.037 179.884 305.064C183.673 307.508 188.439 307.068 192.79 306.53C193.792 306.408 194.818 306.286 195.649 305.748C196.48 305.235 197.091 304.208 196.823 303.23C194.134 302.082 191.543 300.688 189.074 299.1Z" fill="#0B2347"/>
<path d="M173.602 226.189C173.773 225.602 173.945 224.991 174.116 224.405C173.48 200.109 172.869 175.789 172.234 151.494L145.885 151.47C143.27 160.073 143.148 169.263 145.592 178.087C148.378 188.133 154.391 197.567 156.835 207.686C159.646 219.247 157.642 231.004 157.739 242.712C157.788 247.82 158.228 252.929 158.962 258.013C161.479 248.994 163.703 239.852 166.196 230.809C166.734 228.096 170.132 227.069 173.602 226.189Z" fill="#0B2347"/>
<path d="M160.967 305.551C156.298 303.449 151.85 300.785 148.208 297.168C146.473 295.432 144.908 293.477 143.686 291.375C148.037 242.833 152.388 194.315 156.738 145.773C149.21 147.753 140.851 147.069 134.301 143.989L131.025 148.022C126.357 157.53 124.695 167.894 126.308 177.768C127.946 187.912 132.907 197.42 134.203 207.612C135.669 219.271 131.514 231.076 131.025 242.931C130.488 256.032 133.445 269.206 133.738 288.369C133.054 290.764 132.419 293.184 131.856 295.603C131.343 297.877 130.952 300.516 132.443 302.325C134.081 304.28 137.063 304.207 139.409 305.209C141.34 306.04 142.831 307.653 144.615 308.778C148.99 311.564 154.563 311.271 159.745 310.88C160.6 310.806 161.48 310.733 162.262 310.366C163.044 310 163.704 309.267 163.729 308.387C163.753 306.969 162.238 306.113 160.967 305.551Z" fill="#F4B19F"/>
<path d="M149.259 229.145C151.752 201.355 154.245 173.564 156.738 145.773C149.21 147.753 140.851 147.069 134.301 143.989L131.025 148.022C126.357 157.53 124.695 167.894 126.308 177.768C127.946 187.912 132.907 197.42 134.203 207.612C135.669 219.271 131.514 231.076 131.025 242.931C130.683 251.241 131.734 259.576 132.638 269.45C134.301 260.358 135.669 251.143 137.136 242.124C138.114 236.82 142.538 229.39 149.259 229.145Z" fill="#E59A8C"/>
<path d="M208.262 75.1126L202.713 83.0074C204.767 84.4006 207.211 85.1583 209.117 86.6737C209.411 86.1359 211.513 83.6429 212.099 83.4962C212.71 83.3495 213.272 83.7406 213.859 83.985C215.032 84.4739 216.352 84.2539 217.452 83.6429C217.623 83.6917 217.819 83.7406 217.99 83.7895C218.307 83.8628 218.625 83.9606 218.943 83.9362C219.261 83.9117 219.603 83.7162 219.701 83.4229C219.847 82.9829 219.578 82.3963 219.921 82.103C220.287 81.7608 220.947 82.1763 221.363 81.883C221.705 81.6386 221.632 81.1253 221.485 80.7342C221.338 80.3432 221.216 79.8543 221.509 79.561C221.705 79.3655 222.047 79.341 222.291 79.2433C222.731 79.0477 222.976 78.4611 222.805 77.9967C222.683 77.7034 222.438 77.4834 222.243 77.239C222.414 76.9702 222.56 76.6769 222.731 76.408C226.789 75.4303 232.068 77.019 232.704 74.4526C224.662 72.6684 216.205 72.9372 208.262 75.1126Z" fill="#E59A8C"/>
<path d="M219.97 77.1422C219.358 76.7023 218.723 76.0668 217.965 76.189C217.281 76.2868 216.89 76.9711 216.328 77.3866C214.519 78.7554 211.488 77.1178 209.826 78.6576C208.531 79.8553 208.848 82.3728 207.284 83.1794C206.477 83.7416 205.231 83.3994 204.669 82.5928C204.082 81.7862 204.058 80.6863 204.375 79.7331C204.693 78.7798 205.304 77.9733 205.915 77.1911C206.697 76.2134 207.504 75.2602 208.506 74.5269C211.268 72.4982 215.13 72.4493 217.892 70.3962C219.798 73.0848 222.243 75.3824 225.029 77.1422C223.587 78.1688 221.46 78.1688 219.97 77.1422Z" fill="#F4B19F"/>
<path d="M157.226 97.0361C155.49 93.5409 153.975 89.8502 153.633 85.9639C153.29 82.0776 154.219 77.9224 156.834 75.0383C158.961 72.6918 162.774 71.3964 165.316 73.3029C166.367 74.085 167.002 75.2827 167.613 76.4559C172.184 85.1573 176.388 94.0298 180.201 103.073C187.363 94.4942 194.915 86.2572 202.834 78.3624C206.305 80.7088 209.8 83.0553 213.271 85.4262C203.103 97.4028 196.651 108.597 185.823 119.963C184.845 120.989 179.615 122.554 178.197 122.456C177.121 122.407 176.241 121.674 175.435 120.94C167.956 114.194 161.723 106.055 157.226 97.0361Z" fill="#EAE6DC"/>
<path d="M180.201 103.024C176.388 93.9802 172.184 85.1077 167.613 76.4063C167.002 75.2576 166.366 74.0599 165.315 73.2533C163.629 71.9823 161.356 72.129 159.425 73.0822C170.473 82.7368 175.85 97.0843 180.298 110.992C182.425 109.403 182.963 107.277 183.5 104.612C184.038 103.537 185.627 103.024 186.164 102.486C192.568 94.2735 199.828 87.6253 207.062 81.1725C205.669 80.2193 204.252 79.2661 202.858 78.3128C194.939 86.2076 187.387 94.469 180.201 103.024Z" fill="#FEFEFE"/>
<path d="M211.389 87.0892C207.797 85.0361 204.252 82.763 200.879 80.3432L201.197 79.9032C204.57 82.2986 208.09 84.5717 211.658 86.6248L211.389 87.0892Z" fill="#2D3538"/>
<path d="M130.878 232.226C156.468 239.143 162.163 229.341 180.373 228.779C178.466 197.64 176.584 166.599 167.858 136.413C155.54 137.415 139.555 136.584 127.578 133.822C123.569 141.594 122.518 150.369 122.812 158.924C123.105 167.478 124.718 175.96 125.794 184.466C127.993 201.306 132.735 215.312 130.878 232.226Z" fill="#0B2347"/>
<path d="M170.474 94.3222C169.741 89.2626 168.323 86.8184 166.832 81.93C166.27 80.0969 166.05 78.1415 165.488 76.3083L118.632 76.2595C116.53 80.7079 117.386 86.5496 119.121 91.4136C122.177 100.017 128.678 106.91 128.483 116.076C128.36 122.797 125.281 129.03 123.276 135.434C122.445 138.073 121.81 140.738 121.321 143.451L170.279 143.5C170.156 143.06 170.01 142.644 169.888 142.204C166.686 131.816 163.63 120.646 166.661 110.21C168.177 104.954 171.256 99.7972 170.474 94.3222Z" fill="#13A8B3"/>
<path d="M169.887 142.229C166.685 131.842 163.63 120.672 166.66 110.235C168.2 104.931 171.28 99.798 170.498 94.323C169.765 89.2635 168.347 86.8193 166.856 81.9309C166.294 80.0977 166.074 78.1423 165.512 76.3092L151.091 76.2847C151.091 82.8841 153.291 88.5058 154.855 95.4473C157.715 111.628 156.273 127.833 156.444 143.476L170.302 143.5C170.156 143.085 170.009 142.645 169.887 142.229Z" fill="#178E8E"/>
<path d="M163.111 77.3012L136.921 78.6844L136.945 79.1238L163.134 77.7405L163.111 77.3012Z" fill="#EAE6DC"/>
<path d="M132.98 64.9915C130.585 66.3359 128.189 67.6557 125.794 69C124.132 69.9288 121.175 72.1775 119.83 73.5463C115.406 78.0681 116.237 85.4985 118.388 91.4623C121.541 100.066 128.189 106.959 127.994 116.124C127.872 122.846 124.694 129.079 122.641 135.483C118.388 148.706 118.804 163.004 120.661 176.765C131.171 175.959 141.706 175.323 152.24 174.883C151.752 160.927 148.427 146.946 149.674 132.867C154.269 81.1722 148.574 83.6653 132.98 64.9915Z" fill="#FEFEFE"/>
<path d="M136.695 92.88C138.504 120.206 136.499 148.828 142.194 175.348C145.567 175.176 148.916 175.005 152.289 174.859C151.8 160.902 148.476 146.921 149.722 132.843C154.269 81.1966 148.574 83.6653 133.004 64.9915C131.391 65.8959 129.802 66.7758 128.189 67.6802C128.213 67.9246 128.213 68.169 128.213 68.389C130.853 76.8948 136.157 84.3497 136.695 92.88Z" fill="#EAE6DC"/>
<path d="M149.698 132.843C154.244 81.1966 148.549 83.6653 132.98 64.9915C132.222 65.4071 131.464 65.847 130.707 66.2625C130.853 67.3624 131.293 68.5112 131.929 69.4645C135.644 80.1212 141.485 90.2158 141.485 102.461C141.485 104.05 147.327 105.125 146.814 107.252C145.738 110.967 140.41 114.169 142.023 118.96C147.498 137.633 148.427 156.307 149.356 174.981C150.334 174.932 151.336 174.883 152.313 174.834C151.776 160.902 148.476 146.921 149.698 132.843Z" fill="#FEFEFE"/>
<path d="M128.995 154.205L128.824 153.691C134.593 151.883 140.336 149.805 145.934 147.532L146.129 148.021C140.532 150.294 134.764 152.371 128.995 154.205Z" fill="#2D3538"/>
<path d="M146.423 106.275C145.079 104.955 143.148 104.271 141.266 104.442L140.997 104.466L140.972 104.197C139.824 91.0721 136.084 77.8978 130.169 66.1167L130.633 65.8723C136.548 77.6289 140.288 90.7543 141.486 103.88C143.441 103.782 145.396 104.515 146.79 105.884L146.423 106.275Z" fill="#2D3538"/>
<path d="M170.499 142.23C167.223 131.842 164.095 120.672 167.175 110.235C168.739 104.931 171.916 99.7983 171.11 94.3233C170.376 89.2638 168.91 86.8196 167.37 81.9312C166.564 79.3159 166.441 76.4562 165.073 74.1097C163.093 70.7123 158.644 69.0013 154.098 67.3393C153.878 78.1915 161.308 87.6751 160.771 98.1607C160.771 101.46 158.571 104.76 158.571 107.522C158.547 130.082 161.822 152.202 163.728 174.444C167.419 174.347 171.11 174.249 174.8 174.176C177.245 163.568 173.774 152.593 170.499 142.23Z" fill="#FEFEFE"/>
<path d="M167.003 105.152C170.205 92.9065 160.649 83.3252 158.522 71.6175C158.522 70.6887 158.522 69.9309 158.644 69.1488C157.202 68.4889 155.662 67.9267 154.098 67.3645C153.878 78.2168 161.308 87.7003 160.771 98.186C160.771 101.486 158.571 104.785 158.571 107.547C158.547 130.107 161.822 152.227 163.728 174.47C165.904 174.396 168.054 174.348 170.23 174.299C167.517 151.372 161.382 128.396 167.003 105.152Z" fill="#EAE6DC"/>
<path d="M166.49 101.412C165.415 100.874 164.901 99.8228 163.288 99.8228C163.288 97.1586 166.49 96.1076 166.49 95.5699C165.439 86.5263 158.522 79.6092 157.471 70.0279C157.471 69.5391 157.373 69.0747 157.349 68.5858C156.298 68.1459 155.198 67.7548 154.098 67.3393C153.878 78.1915 161.308 87.6751 160.771 98.1607C160.771 101.46 158.571 104.76 158.571 107.522C158.547 130.082 161.822 152.202 163.728 174.444C164.901 174.42 166.099 174.371 167.272 174.347C167.175 169.434 166.832 164.448 165.928 159.413C162.726 139.737 159.549 120.036 166.49 101.412Z" fill="#FEFEFE"/>
<path d="M167.181 145.206L167.035 145.724L172.751 147.337L172.897 146.82L167.181 145.206Z" fill="#2D3538"/>
<path d="M163.532 100.311L163.019 100.14C163.655 98.3316 164.877 96.7184 166.441 95.6185L166.759 96.0585C165.292 97.085 164.143 98.6004 163.532 100.311Z" fill="#2D3538"/>
<path d="M132.271 80.6619C131.391 78.1443 129.876 75.7979 127.627 74.3802C125.379 72.987 122.323 72.6937 120.075 74.1114C116.97 76.0423 116.311 80.1486 115.748 83.766C113.915 95.8893 110.224 107.695 104.798 118.694C110.298 120.136 115.651 122.262 120.637 125C123.374 118.107 126.136 111.214 128.874 104.322C130.389 100.533 131.905 96.7203 132.711 92.7362C133.542 88.7277 133.616 84.4993 132.271 80.6619Z" fill="#FEFEFE"/>
<path d="M132.27 80.6618C132.148 80.2952 132.001 79.9286 131.83 79.562C129.753 95.0827 122.542 109.552 111.959 120.991C114.941 122.116 117.825 123.46 120.636 124.975C123.373 118.083 126.135 111.19 128.873 104.297C130.388 100.509 131.904 96.6958 132.71 92.7118C133.541 88.7277 133.615 84.4993 132.27 80.6618Z" fill="#EAE6DC"/>
<path d="M111.348 100.412C108.879 94.5944 106.704 88.6794 104.822 82.6422C104.846 82.6177 104.846 82.5933 104.871 82.5688C104.895 82.2511 105.799 79.9047 105.799 79.5625C105.848 77.9249 105.726 76.2872 106.044 74.6985C106.215 73.8919 106.484 73.1342 106.753 72.3521C106.875 72.0099 106.997 71.6677 106.997 71.3011C106.997 70.9344 106.826 70.5678 106.508 70.3967C106.117 70.2012 105.604 70.3723 105.262 70.6656C104.602 71.2522 104.333 72.1321 104.04 72.9631C103.722 73.7941 103.257 74.6496 102.402 74.9185C101.962 75.0651 101.547 75.0162 101.107 74.894C101.082 74.8696 101.058 74.8207 101.009 74.7718C99.3223 72.7676 97.2692 71.1055 95.3382 69.3457C93.9695 67.6836 92.6252 66.046 91.2564 64.3839C91.012 64.0906 90.6698 63.7973 90.3521 63.944C89.741 64.2128 90.3032 65.4349 89.6921 65.6794C89.3744 65.8016 89.0322 65.4838 88.69 65.4349C88.2745 65.3861 87.8834 65.7527 87.7856 66.1438C87.6634 66.5348 87.7367 66.9748 87.8345 67.3903C87.3946 67.1948 86.8568 67.537 86.6613 68.0014C86.4658 68.4413 86.4902 68.9546 86.4413 69.4435C86.4169 69.7856 86.3191 70.1523 86.368 70.4945C86.4169 70.9833 86.7102 71.4233 86.9546 71.8388C87.9323 73.5008 88.6167 75.3096 89.4721 77.0205C89.6921 77.4849 89.961 77.9493 90.2298 78.3893C90.5965 79.7825 91.0609 81.1268 91.8675 82.3C92.9185 83.8154 94.4828 84.9397 96.1937 85.6241C96.2182 85.6485 96.267 85.6486 96.2915 85.6486C98.5401 91.6369 100.202 97.8207 101.278 104.102C104.553 102.685 107.926 101.414 111.348 100.412Z" fill="#F4B19F"/>
<path d="M91.4272 76.6032C94.7758 77.361 97.7577 79.7074 99.2487 82.8115C99.1998 80.6117 99.6887 78.412 100.642 76.4322C99.6887 75.2101 98.7354 74.0124 97.7822 72.7903C96.2179 74.0124 94.5314 75.0634 92.7227 75.8944L91.4272 76.6032Z" fill="#E59A8C"/>
<path d="M112.644 129.081C115.675 129.887 118.974 127.957 120.417 125.195C121.883 122.433 121.761 119.035 120.832 116.053C119.928 113.047 118.29 110.334 116.775 107.596C113.133 101.021 110.077 94.1287 107.633 87.0161C103.698 88.6781 99.543 89.7291 95.29 90.1202C98.1009 101.51 100.985 113.071 106.704 123.313C108.122 125.781 109.906 128.348 112.644 129.081Z" fill="#EAE6DC"/>
<path d="M120.856 116.053C119.952 113.047 118.314 110.334 116.799 107.596C113.157 101.021 110.102 94.1286 107.657 87.0159C106.509 87.5048 105.335 87.9203 104.138 88.3114C107.12 95.0818 111.813 100.972 115.381 107.23C117.899 112.02 120.441 117.544 121.223 123.044C121.785 120.77 121.54 118.302 120.856 116.053Z" fill="#FEFEFE"/>
<path d="M95.6314 93.2002L95.5581 92.6624C100.104 92.0025 104.602 90.8537 108.928 89.265L109.123 89.7538C104.748 91.3914 100.227 92.5402 95.6314 93.2002Z" fill="#2D3538"/>
</g>
<mask id="mask1_1_8491" style="mask-type:luminance" maskUnits="userSpaceOnUse" x="39" y="12" width="283" height="286">
<path d="M321.891 12.4679H39.3652V297.756H321.891V12.4679Z" fill="white"/>
</mask>
<g mask="url(#mask1_1_8491)">
<path d="M69.8462 195.833C65.3978 188.183 61.5115 180.166 58.2607 171.929C57.0386 168.849 55.8898 165.672 55.5476 162.372C55.2054 159.072 55.7187 155.577 57.6007 152.84C59.8983 149.491 64.0046 147.658 68.062 147.536C72.1193 147.389 76.1034 148.782 79.6231 150.811C86.9068 154.99 92.3085 161.712 97.5147 168.263C105.385 178.162 113.304 188.085 119.757 198.962C121.077 201.186 122.372 203.508 122.886 206.074C123.399 208.616 123.008 211.476 121.297 213.431C119.048 216.022 115.211 216.413 111.789 216.585C101.768 217.049 91.062 216.853 82.7272 211.281C77.1544 207.492 73.2437 201.675 69.8462 195.833Z" fill="#0B2347"/>
<path d="M53.3719 107.622C56.916 106.351 60.7779 108.428 63.7354 110.75C72.2412 117.399 78.5717 126.735 81.5781 137.099C82.1158 138.908 82.5069 141.01 81.4314 142.598C80.3071 144.26 78.034 144.603 76.0297 144.774C71.068 145.14 66.0818 145.263 61.1201 145.091C59.0425 145.018 56.8183 144.847 55.1562 143.6C53.2008 142.109 52.5164 139.519 51.9787 137.123C50.9766 132.577 50.0234 128.031 49.0946 123.46C48.4835 120.527 47.8969 117.521 48.3368 114.563C48.8012 111.581 50.5611 108.648 53.3719 107.622Z" fill="#0B2347"/>
<path d="M266.188 225.483C275.207 227.707 284.398 229.98 292.317 234.82C293.783 235.7 295.323 236.702 297.034 236.555C299.161 236.36 300.7 234.355 301.409 232.327C302.118 230.298 302.289 228.098 303.12 226.143C304.171 223.699 306.175 221.841 307.715 219.666C310.379 215.902 311.577 211.16 310.991 206.589C309.671 206.589 308.571 207.518 307.593 208.422C305.002 210.793 302.485 213.237 299.6 215.242C296.741 217.246 293.466 218.835 289.995 219.226C286.475 219.617 282.931 218.81 279.485 217.979C274.156 216.708 269.048 213.971 264.233 211.38C263.206 215.486 260.982 220.057 258.807 223.234L266.188 225.483Z" fill="#F4BB91"/>
<path d="M232.873 193.144C226.836 189.943 220.701 186.692 214.028 185.299C202.125 182.805 189.928 186.423 178.001 188.794C166.073 191.189 152.703 192.093 142.706 185.152C135.814 191.458 128.945 197.74 122.053 204.046C124.253 206.172 129.605 215.436 129.605 215.436C131.878 223.159 135.423 224.284 143.415 225.237C151.408 226.215 159.4 223.99 167.075 221.571C175.532 218.906 183.916 215.949 192.177 212.723C196.748 210.938 201.49 209.056 206.353 209.496C210.044 209.838 213.466 211.5 216.815 213.016C233.949 220.837 252.231 226.19 270.881 228.854C272.543 224.553 274.205 220.275 275.867 215.973C261.519 208.396 247.196 200.77 232.873 193.144Z" fill="#0B2347"/>
<path d="M263.574 228.855C272.544 231.275 281.661 233.768 289.507 238.778C290.949 239.707 292.464 240.734 294.175 240.612C296.326 240.465 297.891 238.51 298.648 236.481C299.406 234.477 299.601 232.277 300.506 230.321C301.606 227.902 303.659 226.093 305.248 223.942C307.985 220.251 309.281 215.51 308.816 210.939C307.496 210.914 306.372 211.819 305.37 212.699C302.73 215.021 300.139 217.392 297.231 219.347C294.322 221.302 291.022 222.793 287.527 223.111C284.007 223.429 280.488 222.524 277.041 221.62C271.737 220.227 266.702 217.392 261.936 214.679C260.836 218.76 258.49 223.282 256.241 226.411L263.574 228.855Z" fill="#FFC89F"/>
<path d="M230.993 195.787C225.029 192.438 218.967 189.065 212.319 187.525C200.464 184.763 188.194 188.087 176.218 190.214C164.241 192.34 150.847 192.951 141.021 185.79C134.006 191.925 126.967 198.084 119.952 204.219C122.103 206.394 127.236 215.78 127.236 215.78C129.338 223.553 132.858 224.75 140.826 225.899C148.794 227.048 156.835 225.019 164.559 222.746C173.065 220.253 181.522 217.491 189.856 214.46C194.452 212.774 199.242 210.99 204.106 211.552C207.773 211.967 211.17 213.703 214.494 215.316C231.457 223.504 249.593 229.272 268.193 232.376C269.953 228.123 271.713 223.871 273.473 219.618C259.321 211.674 245.144 203.73 230.993 195.787Z" fill="#1B1A2E"/>
<path d="M152.557 198.352C171.72 194.637 189.269 189.846 207.894 189.846C211.61 189.846 215.349 191.973 219.064 193.561C234.487 202.067 247.808 212.186 263.769 218.566C266.678 219.69 269.611 220.741 272.568 221.768C272.861 221.034 273.179 220.326 273.472 219.592C259.32 211.649 245.168 203.705 231.017 195.761C225.053 192.413 218.991 189.04 212.343 187.5C200.488 184.738 188.218 188.062 176.242 190.188C164.265 192.315 150.871 192.926 141.045 185.764C139.114 187.451 137.183 189.137 135.252 190.824C139.921 195.468 145.616 199.574 152.557 198.352Z" fill="#0F5C98"/>
<path d="M87.1992 100.952C89.4234 101.025 91.6721 101.123 93.7741 101.832C95.8761 102.541 97.856 103.983 98.6625 106.036C99.298 107.649 99.1758 109.482 98.7848 111.169C97.9782 114.517 96.145 117.524 95.1673 120.799C94.1896 124.099 96.0961 132.311 98.5892 134.682C95.0696 138.055 87.8836 135.195 83.1907 133.9C78.4978 132.605 74.5871 128.694 73.3161 124.001C72.2407 120.041 72.925 115.74 74.7582 112.049C76.5669 108.382 79.4266 105.278 82.6285 102.712L87.1992 100.952Z" fill="#1B1A2E"/>
<path d="M93.4561 136.319C92.9917 133.899 92.9428 131.431 92.9673 128.962C88.8855 128.718 84.8281 128.449 80.844 127.544C82.2617 134.437 81.5773 141.745 78.9131 148.247C84.8036 145.509 91.403 144.336 97.8801 144.874C95.4359 142.674 94.0672 139.521 93.4561 136.319Z" fill="#FFC89F"/>
<path d="M97.856 144.849C95.4362 142.649 94.0674 139.496 93.4564 136.294C92.992 133.874 92.9431 131.406 92.9676 128.937C89.7412 128.741 86.5148 128.546 83.3618 128.008C84.5839 134.363 87.8836 140.327 92.5032 144.8C94.2874 144.702 96.0717 144.702 97.856 144.849Z" fill="#F4BB91"/>
<path d="M93.1142 133.68C92.9675 132.115 92.9675 130.551 92.9919 128.962C89.4967 128.742 86.0015 128.522 82.5552 127.887C84.3394 132.482 88.4702 133.704 93.1142 133.68Z" fill="#1B1A2E"/>
<path d="M98.7371 117.256C97.8083 115.985 96.4395 115.057 95.7063 113.663C95.2174 112.759 95.0463 111.708 94.7286 110.73C93.702 107.675 91.1112 105.231 88.007 104.375C87.176 104.131 86.2961 104.033 85.4406 104.033C81.7254 103.569 77.7902 104.815 75.126 107.48C71.7775 110.779 70.6043 116.083 72.2419 120.507C73.8551 124.907 78.2057 128.182 82.8986 128.524C83.143 128.549 83.3875 128.549 83.6319 128.549C84.4874 128.989 85.3673 129.38 86.2716 129.697C90.2312 131.139 94.5086 131.628 98.6882 131.188C99.4459 131.115 100.033 130.48 100.057 129.722C100.081 127.815 100.375 125.884 100.424 123.978C100.472 121.607 100.13 119.138 98.7371 117.256Z" fill="#FFC89F"/>
<path d="M86.5649 115.349C87.0049 111.878 88.4959 108.407 88.7403 104.643C88.4959 104.545 88.2514 104.472 88.007 104.399C87.176 104.154 86.2961 104.056 85.4406 104.056C81.7254 103.592 77.7902 104.839 75.126 107.503C71.7775 110.803 70.6043 116.106 72.2419 120.53C73.8551 124.93 78.2057 128.205 82.8986 128.547C83.143 128.572 83.3875 128.572 83.6319 128.572C84.4874 129.012 85.3673 129.403 86.2716 129.721C88.7158 130.601 91.2823 131.114 93.8487 131.285C89.3513 126.959 86.2472 121.508 86.5649 115.349Z" fill="#F4BB91"/>
<path d="M94.5806 126.224L94.5073 125.687C96.1938 125.467 97.7826 124.831 99.1513 123.805L99.4691 124.22C98.0514 125.32 96.3405 126.004 94.5806 126.224Z" fill="#2D3538"/>
<path d="M96.488 121.898L96.0724 121.556L97.8078 119.381C97.9789 119.185 98.1011 119.014 98.1256 118.819C98.15 118.525 97.8812 118.257 97.5634 117.988L95.7303 116.423C95.217 115.983 94.6304 115.495 94.2637 114.859C93.8238 114.101 93.7993 113.246 94.1415 112.635L94.6059 112.904C94.2882 113.466 94.4593 114.15 94.7281 114.615C95.0459 115.177 95.5592 115.617 96.0724 116.057L97.9056 117.621C98.3211 117.963 98.6877 118.379 98.6389 118.892C98.6144 119.234 98.3944 119.528 98.2233 119.723L96.488 121.898Z" fill="#2D3538"/>
<path d="M87.2481 117.058L86.7349 116.887C87.297 115.201 88.2503 113.661 89.5457 112.439L89.9123 112.83C88.6902 114.003 87.7859 115.47 87.2481 117.058Z" fill="#2D3538"/>
<path d="M90.7681 118.403C90.6215 117.988 90.4504 117.597 90.206 117.206C90.0838 116.986 89.8638 116.766 89.6194 116.815C89.3016 116.888 89.2772 117.328 89.3749 117.621C89.5216 118.061 89.8149 118.452 90.1815 118.745C90.3526 118.868 90.6215 118.965 90.7437 118.819C90.8415 118.697 90.817 118.525 90.7681 118.403Z" fill="#2D3538"/>
<path d="M94.5312 112.095L94.1401 111.728C94.3601 111.484 94.5312 111.19 94.6045 110.848L95.1178 110.97C95.0445 111.386 94.8245 111.777 94.5312 112.095Z" fill="#2D3538"/>
<path d="M95.9978 114.931C95.9244 114.589 95.7778 114.247 95.6311 113.905C95.5334 113.734 95.3867 113.514 95.1912 113.538C94.9223 113.563 94.8734 113.929 94.9468 114.174C95.0445 114.54 95.2401 114.882 95.5089 115.151C95.6311 115.273 95.8511 115.371 95.9733 115.249C96.0467 115.176 96.0222 115.053 95.9978 114.931Z" fill="#2D3538"/>
<path d="M89.0557 131.822C89.2268 131.822 89.3979 131.798 89.5689 131.773C89.3979 131.773 89.2268 131.773 89.0557 131.822Z" fill="#1B1A2E"/>
<path d="M84.4359 130.699C83.6049 128.499 83.7515 126.006 83.9226 123.635C84.1426 120.458 84.3626 117.305 84.607 114.128C85.5113 113.077 86.2935 111.903 86.929 110.608C88.6155 107.162 89.0066 102.884 87.5156 99.3401C83.7515 100.464 79.7919 100.66 76.1011 102.029C73.3147 103.055 70.6017 105.035 69.2085 107.724H69.184V107.748C68.7441 108.604 68.4263 109.532 68.3041 110.535C68.0108 112.783 68.6219 115.056 69.0129 117.329C68.8663 118.625 68.7196 119.92 68.5974 121.216C68.2063 125.713 68.4019 130.577 70.8705 134.243C72.4837 136.614 74.9768 138.276 77.6899 138.716C80.3785 139.181 83.2382 138.423 85.438 136.688C86.5868 135.783 87.7111 134.561 89.0799 134.268C87.0756 134.439 85.1936 132.728 84.4359 130.699Z" fill="#1B1A2E"/>
<path d="M86.6864 161.102C88.0062 163.595 90.9393 164.646 93.6279 165.526C106.533 169.657 119.61 173.837 133.151 174.57C136.45 174.741 140.361 174.423 142.145 171.612C143.465 169.559 143.05 166.748 141.706 164.72C140.361 162.691 138.21 161.322 136.01 160.271C128.751 156.752 120.441 155.994 113.01 152.89C108.929 151.203 105.042 148.783 100.667 148.27C96.781 147.83 92.748 149.028 89.7416 151.496C86.9064 153.794 84.9999 157.9 86.6864 161.102Z" fill="#0F5C98"/>
<path d="M96.341 141.622C90.5237 143.382 84.291 143.749 78.3271 142.649C75.6385 150.959 74.6119 160.345 78.4005 168.215C81.4068 174.399 87.0041 178.896 92.6991 182.734C98.3941 186.596 104.456 190.091 109.075 195.199C113.793 200.405 116.726 206.931 119.39 213.409C120.05 215.022 121.321 216.953 123.007 216.464C123.569 216.293 124.009 215.853 124.425 215.437C132.882 207.005 147.083 195.566 158.57 192.217C155.809 187.598 149.38 188.038 145.201 184.64C139.97 180.363 132.931 178.359 128.702 173.079C124.132 167.335 123.838 158.781 118.51 153.721C112.302 147.855 101.205 148.637 96.341 141.622Z" fill="#116EB6"/>
<path d="M147.424 186.62C144.442 186.962 142.682 182.293 139.725 182.66C138.65 182.807 137.794 183.613 136.939 184.322C135.888 185.226 134.739 186.009 133.541 186.693C128.091 180.705 128.066 179.874 124.522 172.81C116.236 157.705 91.6963 153.403 76.4445 150.225C75.4423 156.385 75.7112 162.666 78.3998 168.215C81.4062 174.399 87.0034 178.896 92.6984 182.733C98.3934 186.595 104.455 190.09 109.075 195.199C113.792 200.405 116.725 206.931 119.389 213.408C119.854 214.557 120.636 215.877 121.662 216.341C121.98 216.023 122.298 215.706 122.616 215.388C128.286 209.595 134.25 203.705 140.874 198.89C140.727 198.523 140.605 198.181 140.458 197.814C143.856 194.93 146.373 190.97 147.424 186.62Z" fill="#0F5C98"/>
<path d="M136.865 180.46C136.303 181.976 134.91 182.978 133.688 184.029C132.441 185.056 131.195 186.327 131.073 187.94C130.95 189.48 131.928 190.922 131.83 192.462C131.806 192.853 131.708 193.268 131.733 193.659C131.733 194.05 131.855 194.49 132.172 194.735C132.466 194.955 132.881 194.979 133.248 194.979C135.081 195.028 136.914 195.052 138.723 195.101C140.092 195.126 141.534 195.15 142.731 194.49C144.247 193.659 145.078 191.948 145.518 190.262C146.202 187.72 146.251 185.031 145.689 182.465C145.64 182.245 145.567 182 145.396 181.854C145.225 181.707 145.005 181.683 144.809 181.658C143 181.414 141.192 181.194 139.407 180.949L136.865 180.46Z" fill="#0B2347"/>
<path d="M122.396 215.438L121.932 214.973C131.88 205.026 143.05 196.324 155.1 189.065L155.442 189.651C143.416 196.862 132.32 205.539 122.396 215.438Z" fill="#2D3538"/>
<path d="M81.1373 146.338C79.8419 146.338 78.522 146.289 77.2266 146.167L77.2754 145.629C83.9237 146.216 90.743 145.263 97.0002 142.916L97.1957 143.405C92.0874 145.361 86.5879 146.338 81.1373 146.338Z" fill="#2D3538"/>
<path d="M135.179 162.984C132.832 164.084 132.172 167.14 132.441 169.73C132.979 174.814 135.838 179.556 135.521 184.64C139.187 185.349 142.976 185.276 146.617 184.445C147.375 181.34 148.157 178.187 148.108 174.986C148.084 171.784 147.155 168.484 144.955 166.162C143.562 164.72 141.753 163.718 139.871 163.082C138.356 162.618 136.645 162.325 135.179 162.984Z" fill="#0F5C98"/>
<path d="M144.98 166.187C144.466 165.625 143.855 165.16 143.22 164.745C145.371 171.417 142.975 178.383 141.044 185.129C142.926 185.105 144.784 184.885 146.617 184.469C147.375 181.365 148.157 178.212 148.108 175.01C148.084 171.808 147.179 168.509 144.98 166.187Z" fill="#116EB6"/>
<path d="M143.489 164.941C142.389 164.159 141.167 163.548 139.871 163.108C138.356 162.595 136.621 162.301 135.179 162.986C132.832 164.085 132.172 167.141 132.441 169.732C132.783 172.982 134.079 176.111 134.885 179.264C136.621 173.716 138.869 168.485 143.489 164.941Z" fill="#0B2347"/>
<path d="M143.88 173.812C140.458 174.057 137.28 176.379 136.034 179.58C135.545 180.803 135.398 182.318 136.278 183.296C136.816 183.907 137.647 184.151 138.454 184.322C139.822 184.591 141.24 184.664 142.633 184.493C143.562 184.396 144.491 184.176 145.248 183.638C146.495 182.733 147.008 181.071 146.886 179.532C146.788 178.016 144.491 175.23 143.88 173.812Z" fill="#0B2347"/>
<path d="M145.664 180.094C144.491 179.972 143.489 179.288 142.438 178.75C141.387 178.237 140.116 177.87 139.065 178.408C138.185 178.848 137.721 179.801 137.207 180.656C136.205 182.294 134.861 183.712 133.248 184.787C132.343 185.398 131.243 186.058 131.17 187.158C131.121 188.014 131.781 188.796 131.757 189.651C131.732 190.164 131.488 190.678 131.366 191.167C131.268 191.46 131.195 191.753 131.195 192.071C131.17 192.658 131.463 193.293 132.026 193.464C132.612 193.635 133.223 193.22 133.81 193.391C134.348 193.537 134.641 194.1 135.105 194.417C135.496 194.711 136.01 194.833 136.498 194.735C136.938 194.637 137.329 194.393 137.769 194.393C138.454 194.368 139.138 194.906 139.774 194.637C140.238 194.442 140.483 193.831 140.971 193.733C141.411 193.635 141.827 193.977 142.267 193.929C142.609 193.88 142.878 193.562 143.073 193.269C143.44 192.731 143.758 192.144 144.002 191.558C144.173 191.24 144.32 190.922 144.442 190.604C145.762 187.207 146.178 183.59 145.664 180.094Z" fill="#FFC89F"/>
<path d="M141.925 190.873C141.68 190.727 141.509 190.507 141.387 190.262C141.02 190.531 140.531 190.604 140.018 190.311C139.7 190.115 139.407 189.895 139.114 189.676C138.918 189.529 138.747 189.333 138.625 189.113C138.283 189.407 137.843 189.553 137.427 189.382C136.743 189.138 136.132 188.796 135.545 188.356C135.472 188.307 135.399 188.233 135.325 188.16C134.812 188.6 134.005 188.6 133.517 188.111L133.468 188.062C133.199 187.793 133.077 187.427 133.077 187.085C132.465 186.962 131.854 186.865 131.219 186.791C131.195 186.889 131.17 186.987 131.17 187.109C131.121 187.965 131.781 188.747 131.757 189.602C131.732 190.115 131.488 190.629 131.366 191.118C131.268 191.411 131.195 191.704 131.195 192.022C131.17 192.609 131.463 193.244 132.026 193.415C132.612 193.586 133.223 193.171 133.81 193.342C134.348 193.488 134.641 194.051 135.105 194.368C135.496 194.662 136.01 194.784 136.498 194.686C136.938 194.588 137.329 194.344 137.769 194.344C138.454 194.32 139.138 194.857 139.774 194.588C140.238 194.393 140.483 193.782 140.971 193.684C141.411 193.586 141.827 193.928 142.267 193.88C142.609 193.831 142.878 193.513 143.073 193.22C143.367 192.804 143.587 192.364 143.807 191.9C143.147 191.655 142.536 191.264 141.925 190.873Z" fill="#F4BB91"/>
<path d="M163.679 128.934C163.605 128.616 163.239 128.47 162.921 128.494C162.603 128.519 162.334 128.714 162.066 128.885C157.617 131.721 152.655 133.749 147.474 134.8C144.687 134.434 149.014 133.212 149.625 132.136C150.187 131.134 150.162 129.814 149.625 128.788C147.205 131.525 143.27 132.454 140.654 134.996C139.897 135.729 139.261 136.634 139.017 137.66C138.772 138.638 138.895 139.689 138.87 140.691C138.821 141.717 138.577 142.817 137.77 143.428L136.328 146.41L142.023 148.757C142.634 145.75 144.834 143.184 147.351 141.351C150.113 139.371 153.291 138.076 156.273 136.414C159.23 134.751 162.115 132.601 163.557 129.521C163.654 129.35 163.728 129.13 163.679 128.934Z" fill="#FFC89F"/>
<path d="M77.7646 160.318C77.9602 163.765 80.2822 166.698 82.7997 169.044C89.3746 175.081 97.9049 178.503 106.411 181.192C112.081 182.976 117.85 184.516 123.447 186.545C127.969 188.182 132.93 185.64 134.348 181.045C138.014 169.215 142.072 157.508 146.496 145.922C140.556 143.209 142.927 144.284 136.988 141.571C131.562 151.495 128.189 161.443 120.807 169.998C113.523 165.158 103.136 159.732 95.8518 154.892C93.3831 153.255 90.7923 151.568 87.8592 151.226C85.2928 150.908 82.6042 151.715 80.6732 153.426C78.7179 155.137 77.5935 157.752 77.7646 160.318Z" fill="#116EB6"/>
<path d="M144.81 145.163C138.992 157.36 136.89 171.39 126.478 180.8C124.889 182.926 121.15 180.8 117.972 180.262C115.308 179.187 112.644 177.598 109.98 176.547C100.52 173.883 91.3058 171.316 82.2378 168.53C82.4333 168.701 82.6044 168.896 82.8 169.068C89.3749 175.105 97.9052 178.527 106.411 181.215C112.082 183 117.85 184.539 123.447 186.568C127.969 188.206 132.931 185.664 134.348 181.069C138.015 169.239 142.072 157.531 146.496 145.945C145.836 145.628 145.274 145.383 144.81 145.163Z" fill="#0F5C98"/>
<path d="M126.428 187.326C124.62 187.326 122.689 186.813 120.758 186.202L101.498 180.287L101.644 179.773L120.905 185.688C123.862 186.593 126.697 187.326 129.215 186.25C132.172 184.979 133.59 181.68 134.788 178.38L135.277 178.551C134.054 181.949 132.588 185.371 129.435 186.715C128.457 187.179 127.455 187.326 126.428 187.326Z" fill="#2D3538"/>
<path d="M124.694 230.639C130.585 235.234 139.408 234.672 146.936 232.961C164.804 228.879 181.229 219.738 199.536 218.002C217.452 216.316 235.221 221.962 251.548 228.879C267.876 235.796 283.641 244.106 301.044 248.384C303.488 248.97 306.372 249.41 308.279 247.919C310.209 246.404 310.063 243.495 308.67 241.564C307.276 239.633 304.979 238.411 302.755 237.263C288.114 229.734 273.473 222.182 258.832 214.654C249.593 209.887 240.305 205.121 230.357 201.748C220.409 198.375 209.679 196.444 199.12 197.618C176.096 200.135 156.811 216.829 133.64 217.856C129.362 218.051 124.205 218.076 122.005 221.4C119.977 224.357 121.785 228.366 124.694 230.639Z" fill="#006BA2"/>
<path d="M49.7561 110.432C47.6297 111.678 47.8008 113.561 47.9963 115.296L50.9294 141.938C51.3449 145.702 54.6446 148.464 58.4086 148.195L73.025 147.217C75.4448 147.046 77.3024 144.969 77.1313 142.524C76.5935 134.19 73.4894 126.026 68.3077 119.451C64.6414 114.783 59.7285 110.823 53.838 109.772C52.4692 109.552 51.0027 109.723 49.7561 110.432Z" fill="#006BA2"/>
<path d="M50.1224 117.692C48.4848 118.645 48.607 120.112 48.7537 121.456L51.0268 142.036C51.3445 144.945 53.8865 147.072 56.8196 146.876L68.1118 146.118C69.9938 145.996 71.4115 144.383 71.2893 142.501C70.8738 136.073 68.4784 129.767 64.4944 124.683C61.6591 121.09 57.8706 118.01 53.3243 117.203C52.2245 116.983 51.0757 117.13 50.1224 117.692Z" fill="#0B2347"/>
<path d="M49.2181 121.212C47.7027 122.091 47.8249 123.436 47.9471 124.682L50.0492 143.723C50.3425 146.411 52.7133 148.391 55.402 148.196L65.8632 147.487C67.5986 147.365 68.9184 145.874 68.7962 144.138C68.4052 138.174 66.2054 132.357 62.4902 127.664C59.8749 124.34 56.3552 121.505 52.1512 120.747C51.1491 120.6 50.098 120.698 49.2181 121.212Z" fill="#CCD9E2"/>
<path d="M49.3642 126.05C49.9997 124.902 51.344 124.242 52.6639 124.242C53.9837 124.266 55.2303 124.902 56.1591 125.83C57.4789 127.175 58.1389 129.032 58.7011 130.841C60.3631 136.072 61.7563 141.4 62.9051 146.753C59.4343 146.508 55.9147 146.753 52.5172 147.486C51.4173 141.816 50.3174 136.169 49.1931 130.499C48.8753 129.008 48.6065 127.37 49.3642 126.05Z" fill="#AEC3CE"/>
<path d="M74.4418 145.604C74.2707 146.093 74.0507 146.509 73.7819 146.9C74.0263 146.851 74.2707 146.802 74.5151 146.729C74.6862 146.411 74.8329 146.093 74.9551 145.751C75.4928 144.114 75.395 142.354 75.1995 140.838C74.0263 130.89 68.649 121.431 60.4854 114.856C58.9455 113.61 56.8435 112.094 54.3748 111.41C52.2239 110.799 50.0486 110.97 48.3132 111.826C48.2399 112.046 48.1666 112.29 48.1177 112.534C49.7797 111.557 52.004 111.312 54.2282 111.923C56.5991 112.583 58.6278 114.074 60.1432 115.272C68.2091 121.749 73.4886 131.086 74.6618 140.887C74.8329 142.378 74.9306 144.065 74.4418 145.604Z" fill="#13A8B3"/>
<path d="M53.6661 158.119C52.8351 162.421 55.0349 166.673 57.1858 170.486C64.054 182.781 70.9222 195.075 77.7905 207.369C79.3548 210.18 81.139 213.187 84.1454 214.335C86.1497 215.118 88.3494 214.947 90.5004 214.751C97.7108 214.115 104.897 213.48 112.107 212.845C116.751 212.429 119.318 207.247 116.824 203.312L98.224 173.933C94.6311 168.262 91.0136 162.543 86.1985 157.85C81.4079 153.157 75.2729 149.515 68.6002 148.977C62.1964 148.489 54.8638 151.862 53.6661 158.119Z" fill="#006BA2"/>
<path d="M55.0103 161.907C54.3259 165.818 56.1346 169.655 57.8455 173.126C63.3939 184.272 68.9667 195.417 74.515 206.538C75.786 209.08 77.2281 211.793 79.6479 212.869C81.261 213.578 83.0698 213.407 84.7807 213.235C90.5979 212.649 96.4396 212.087 102.257 211.5C106.021 211.133 108.074 206.441 106.07 202.872L91.0134 176.255C88.1048 171.122 85.1718 165.94 81.2855 161.687C77.3992 157.434 72.4375 154.135 67.0358 153.646C61.9029 153.157 55.9879 156.212 55.0103 161.907Z" fill="#0B2347"/>
<path d="M54.9864 164.962C54.3509 168.628 56.0374 172.245 57.675 175.496C62.9056 185.982 68.1362 196.468 73.3668 206.929C74.5645 209.324 75.9332 211.891 78.2064 212.868C79.7218 213.528 81.4083 213.381 83.0459 213.21C88.5209 212.673 93.9959 212.135 99.471 211.573C103.015 211.231 104.946 206.807 103.064 203.458L88.912 178.429C86.1745 173.59 83.4125 168.726 79.7707 164.717C76.1288 160.709 71.4603 157.605 66.3764 157.165C61.488 156.749 55.9152 159.609 54.9864 164.962Z" fill="#CCD9E2"/>
<path d="M76.4464 185.054C73.5134 180.679 65.6919 182.537 63.981 188.183C67.1095 194.44 70.2137 200.697 73.3423 206.954C74.5399 209.35 75.9087 211.916 78.1818 212.894C79.6972 213.554 81.3837 213.407 83.0213 213.236C85.8322 212.967 88.6186 212.674 91.4294 212.405C87.0054 203.117 82.337 193.878 76.4464 185.054Z" fill="#2D3538"/>
<path d="M68.5029 157.557C67.794 157.386 67.0608 157.264 66.3275 157.19C61.488 156.75 55.9152 159.635 54.9864 164.963C54.3509 168.629 56.0374 172.247 57.675 175.498C62.9056 185.983 68.1362 196.469 73.3668 206.93C74.5645 209.325 75.9332 211.892 78.2064 212.87C79.7218 213.529 81.4083 213.383 83.0459 213.212C84.9279 213.016 86.81 212.845 88.692 212.65C83.5347 202.653 77.5709 193.145 72.7558 182.879C69.725 175.766 66.1809 165.427 68.5029 157.557Z" fill="#AEC3CE"/>
<path d="M109.736 198.473C102.55 184.834 93.8244 169.264 81.0901 157.361C78.1082 154.575 74.0508 151.202 69.2113 149.906C65.6183 148.953 60.9743 149.295 57.699 151.862C57.6013 152.179 57.5279 152.473 57.4302 152.79C60.5832 149.882 65.3983 149.466 69.0646 150.42C73.8064 151.666 77.766 154.99 80.7235 157.752C93.3845 169.607 102.086 185.103 109.272 198.717C111.056 202.115 112.547 205.219 112.4 208.543C112.327 210.009 111.789 211.549 110.909 212.796C111.129 212.771 111.349 212.771 111.569 212.747C112.376 211.476 112.889 210.009 112.938 208.567C113.06 205.096 111.569 201.943 109.736 198.473Z" fill="#13A8B3"/>
<path d="M91.0871 229.002C88.5451 224.7 86.0765 220.349 83.7056 215.95C83.9745 214.532 84.5122 213.114 84.61 211.672C84.7322 209.668 84.0233 207.713 83.339 205.831C81.5791 201.064 79.7949 196.274 78.035 191.508C77.3018 189.503 76.5196 187.45 75.1998 185.788C73.8554 184.126 71.8267 182.855 69.7003 182.977C67.8182 183.099 66.034 184.542 65.7162 186.35C64.543 188.477 65.4718 191.508 66.4984 193.903C74.1487 211.574 81.7991 229.222 89.4495 246.893C90.5005 249.289 91.5515 251.733 93.2869 253.688C97.9064 258.894 107.17 258.919 111.814 253.713C102.819 247.651 96.611 238.314 91.0871 229.002Z" fill="#FEFEFE"/>
<path d="M111.814 253.688C102.819 247.65 96.6106 238.314 91.0866 229.001C88.5447 224.699 86.076 220.349 83.7051 215.949C83.9007 214.996 84.194 214.043 84.3895 213.089C83.2652 215.265 82.0186 217.147 82.2875 218.589C85.3672 233.083 91.6977 248.628 103.968 257.525C106.974 257.207 109.809 255.936 111.814 253.688Z" fill="#2D3538"/>
<path d="M67.8422 185.128C67.2312 186.301 67.6467 187.743 68.0867 189.014C71.0686 197.471 74.5149 205.757 78.3768 213.847C78.7923 214.703 79.3056 215.656 80.2344 215.827C81.4809 216.072 82.5075 214.752 82.8741 213.53C83.9007 210.132 82.7275 206.49 81.5542 203.142C80.1366 199.06 78.6945 194.978 77.2769 190.896C76.7392 189.332 76.177 187.743 75.2237 186.375C74.2705 185.006 72.8529 183.881 71.2152 183.661C69.9198 183.466 68.4533 183.979 67.8422 185.128Z" fill="#CCD9E2"/>
<path d="M74.6687 188.012C74.9789 186.699 74.1654 185.382 72.8517 185.072C71.538 184.762 70.2215 185.575 69.9113 186.889C69.6011 188.203 70.4146 189.519 71.7283 189.829C73.042 190.139 74.3585 189.326 74.6687 188.012Z" fill="#2D3538"/>
<path d="M83.1185 209.252C83.1185 210.157 82.3852 210.89 81.4809 210.89C80.5765 210.89 79.8433 210.157 79.8433 209.252C79.8433 208.348 80.5765 207.615 81.4809 207.615C82.3852 207.615 83.1185 208.348 83.1185 209.252Z" fill="#2D3538"/>
<path d="M239.669 305.698C232.483 301.005 197.653 297.828 189.245 295.261C183.355 293.477 177.146 291.864 172.454 288.173C166.636 283.603 164.046 276.392 164.021 269.451C163.997 262.509 166.221 255.739 168.714 249.164C146.618 251.388 124.547 253.637 102.451 255.861L97.0987 257.865C94.6056 263.536 96.5854 269.964 99.0051 275.659C101.425 281.354 104.309 287.269 103.478 293.33C102.867 297.828 100.276 301.91 97.5631 305.723C93.579 311.369 89.0572 317.259 88.9839 323.956C91.5014 324.03 94.019 324.103 96.5365 324.176L255.923 324.201C252.917 316.697 246.831 310.391 239.669 305.698Z" fill="#CCD9E2"/>
<path d="M153.609 280.84C157.862 280.693 161.748 279.593 165.39 277.931C164.485 275.193 164.021 272.309 164.021 269.474C163.997 262.532 166.221 255.762 168.714 249.187C146.618 251.411 124.547 253.66 102.451 255.884L97.0987 257.888C94.6056 263.559 96.5854 269.987 99.0051 275.682C99.4451 276.733 99.9095 277.784 100.374 278.86C118.192 280.522 135.693 281.304 153.609 280.84Z" fill="#AEC3CE"/>
<path d="M239.669 305.698C232.483 301.005 197.653 297.828 189.245 295.261C183.355 293.477 177.146 291.864 172.454 288.173C169.032 285.484 166.71 281.842 165.39 277.907C161.748 279.594 157.886 280.694 153.609 280.816C135.693 281.28 118.168 280.498 100.349 278.836C102.354 283.553 104.138 288.368 103.478 293.33C102.867 297.828 100.276 301.909 97.5631 305.722C93.579 311.368 89.0572 317.259 88.9839 323.956C91.5014 324.029 94.019 324.103 96.5365 324.176L255.923 324.201C252.917 316.697 246.831 310.391 239.669 305.698Z" fill="#CCD9E2"/>
<path d="M239.669 305.698C232.483 301.005 197.653 297.827 189.245 295.261C183.355 293.477 177.147 291.864 172.454 288.173C166.636 283.602 164.046 276.392 164.021 269.45C163.997 266.737 164.339 264.024 164.901 261.36C156.591 263.486 148.134 265.099 139.604 265.979C141.754 276.758 146.105 286.511 155.76 293.575C176.511 308.484 202.591 303.156 227.057 306.358C238.203 307.873 244.509 315.646 250.595 324.2H255.899C252.917 316.697 246.831 310.391 239.669 305.698Z" fill="#FEFEFE"/>
<path d="M116.457 266.468C132.955 267.617 149.136 265.392 164.901 261.36C165.781 257.229 167.199 253.147 168.714 249.138C146.619 251.363 124.547 253.611 102.452 255.836L97.0989 257.84C97.0256 258.011 96.9522 258.206 96.8789 258.378C100.081 266.468 109.784 265.955 116.457 266.468Z" fill="#2D3538"/>
<path d="M169.716 286C167.565 288.835 164.168 291.059 160.013 292.183C155.344 293.454 150.407 293.357 145.641 293.234L103.796 292.355C103.772 292.526 103.747 292.697 103.723 292.892L145.616 293.772C146.912 293.797 148.232 293.821 149.576 293.821C153.12 293.821 156.689 293.626 160.135 292.697C164.339 291.548 167.81 289.324 170.034 286.464C169.936 286.317 169.838 286.146 169.716 286Z" fill="#2D3538"/>
<path d="M163.924 270.577C162.873 271.212 161.797 271.701 160.746 272.043C157.007 273.192 153.047 273.045 149.21 272.923L103.21 271.31C101.279 271.237 99.1033 271.163 97.2946 270.234C97.1235 270.137 96.9279 270.014 96.7568 269.892C96.8546 270.161 96.9524 270.43 97.0501 270.699C98.9566 271.676 101.205 271.774 103.185 271.823L149.185 273.436C150.432 273.485 151.703 273.534 152.998 273.534C155.662 273.534 158.326 273.339 160.917 272.532C161.993 272.19 162.995 271.75 163.899 271.212C163.924 271.017 163.924 270.797 163.924 270.577Z" fill="#2D3538"/>
<path d="M301.46 247.798C301.46 243.326 296.4 240.466 291.976 238.51C280.342 233.353 268.683 228.196 257.049 223.039C244.95 217.686 232.729 212.284 219.701 209.204C206.674 206.125 192.57 205.514 179.909 209.644C172.039 212.211 165 216.513 157.545 219.983C150.09 223.43 141.731 226.094 133.445 224.994C130.17 224.554 126.992 223.552 123.815 222.55H102.061C97.9307 225.141 94.9243 229.369 93.6778 233.842C91.8935 240.368 93.3112 247.285 95.8287 253.616C96.6842 255.791 97.7352 257.966 98.9817 260.044C150.261 263.71 161.382 253.42 193.573 247.334C226.985 240.735 258.686 249.143 290.632 255.767C292.343 255.644 294.005 255.327 295.594 254.74C298.747 253.567 301.46 250.878 301.46 247.798Z" fill="#CCD9E2"/>
<path d="M301.46 247.798C301.46 243.326 296.4 240.466 291.976 238.51C280.342 233.353 268.683 228.196 257.049 223.039C244.95 217.686 232.729 212.284 219.701 209.204C206.674 206.125 192.571 205.514 179.91 209.644C172.039 212.211 165 216.513 157.545 219.983C150.09 223.43 141.731 226.094 133.445 224.994C130.17 224.554 126.992 223.552 123.815 222.55H110.592C118.584 229.931 126.308 239.513 138.725 236.653C164.267 230.273 188.22 220.179 214.813 223.894C240.893 227.609 263.77 239.855 288.261 248.898C291.854 250.267 295.521 251.465 299.236 252.467C300.58 251.196 301.46 249.558 301.46 247.798Z" fill="#0B2347"/>
<path d="M292.098 255.618C265.628 246.55 237.959 239.926 209.557 242.566C195.601 243.861 181.816 247.43 168.446 250.876C163.851 252.074 159.085 253.296 154.392 254.42C138.627 258.184 118.022 261.924 98.6637 257.451L98.5415 257.964C118.022 262.462 138.675 258.698 154.514 254.934C159.207 253.809 163.973 252.587 168.593 251.39C181.913 247.943 195.699 244.375 209.606 243.104C237.544 240.513 264.821 246.917 290.925 255.789C291.341 255.716 291.732 255.667 292.098 255.618Z" fill="#2D3538"/>
<path d="M298.869 252.614C287.454 250.121 276.529 245.403 265.97 240.808C259.541 238.022 252.893 235.138 246.172 232.767C215.424 221.963 190.077 221.939 158.669 232.718C157.642 233.06 156.64 233.427 155.614 233.793C147.45 236.677 138.993 239.659 130.781 237.533C126.234 236.335 122.226 233.647 118.34 231.031C116.751 229.956 115.138 228.856 113.476 227.878C111.056 226.436 106.021 223.87 100.79 223.894C100.619 224.065 100.448 224.261 100.277 224.432C105.556 224.236 110.763 226.876 113.207 228.343C114.844 229.32 116.482 230.42 118.046 231.471C121.957 234.111 126.014 236.849 130.658 238.046C139.018 240.222 147.548 237.215 155.809 234.307C156.836 233.94 157.862 233.573 158.865 233.231C190.15 222.501 215.399 222.501 246.001 233.28C252.698 235.626 259.321 238.511 265.75 241.297C276.235 245.843 287.063 250.536 298.38 253.054C298.527 252.907 298.698 252.76 298.869 252.614Z" fill="#FEFEFE"/>
<path d="M106.109 233.701C107.556 233.102 108.243 231.443 107.643 229.997C107.044 228.55 105.386 227.863 103.939 228.462C102.492 229.061 101.805 230.72 102.404 232.167C103.004 233.613 104.662 234.3 106.109 233.701Z" fill="#2D3538"/>
<path d="M105.018 236.042C102.28 236.042 100.056 233.817 100.056 231.08C100.056 228.342 102.28 226.118 105.018 226.118C107.755 226.118 109.98 228.342 109.98 231.08C109.98 233.817 107.755 236.042 105.018 236.042ZM105.018 226.656C102.574 226.656 100.594 228.636 100.594 231.08C100.594 233.524 102.574 235.504 105.018 235.504C107.462 235.504 109.442 233.524 109.442 231.08C109.442 228.636 107.462 226.656 105.018 226.656Z" fill="#FEFEFE"/>
<path d="M56.0618 178.553C56.2573 178.626 56.4773 178.651 56.6728 178.675C59.2881 178.92 61.048 176.035 59.8503 173.689C56.6239 167.432 55.4018 160.173 54.8885 153.084C54.2775 144.359 54.6441 135.535 53.0798 126.956C52.3466 126.027 50.88 125.954 49.9024 126.589C48.9002 127.225 48.3625 128.373 48.167 129.522C47.9714 130.671 48.0936 131.869 48.167 133.042C48.6314 140.961 46.7004 148.88 47.1404 156.824C47.5559 163.766 49.829 170.609 53.6909 176.402C54.3264 177.282 55.0352 178.235 56.0618 178.553Z" fill="#0B2347"/>
<path d="M51.9801 167.481C53.0311 171.465 54.6931 175.131 56.5507 178.651C56.5996 178.651 56.6485 178.675 56.6974 178.675C59.3127 178.92 61.0725 176.035 59.8748 173.689C56.6485 167.432 55.4264 160.173 54.9131 153.084C54.302 144.359 54.6687 135.535 53.1044 126.956C52.3711 126.027 50.9046 125.954 49.9269 126.589C49.7069 126.711 49.5358 126.882 49.3647 127.054C53.7643 139.739 47.996 154.062 51.9801 167.481Z" fill="#13A8B3"/>
<path d="M51.8573 129.448C52.5188 129.448 53.055 128.912 53.055 128.251C53.055 127.589 52.5188 127.053 51.8573 127.053C51.1959 127.053 50.6597 127.589 50.6597 128.251C50.6597 128.912 51.1959 129.448 51.8573 129.448Z" fill="#0B2347"/>
<path d="M124.695 230.639C130.585 235.234 139.409 234.672 146.937 232.961C164.804 228.879 181.229 219.737 199.536 218.002C217.452 216.316 235.222 221.962 251.549 228.879C267.876 235.796 283.641 244.106 301.044 248.384C303.488 248.97 306.373 249.41 308.279 247.919C310.21 246.404 310.063 243.495 308.67 241.564C307.277 239.633 304.979 238.411 302.755 237.262C288.114 229.734 273.473 222.182 258.833 214.654C249.594 209.887 240.306 205.121 230.358 201.748C220.41 198.375 209.68 196.444 199.121 197.617C176.096 200.135 156.811 216.829 133.64 217.855C129.363 218.051 124.206 218.075 122.006 221.4C119.977 224.357 121.786 228.366 124.695 230.639Z" fill="#006BA2"/>
<path d="M230.333 201.748C220.385 198.375 209.655 196.444 199.096 197.617C176.072 200.135 156.787 216.829 133.616 217.855C130.83 217.978 127.677 218.051 125.208 218.98C128.508 219.444 131.807 218.955 135.083 218.955C161.92 214.482 185.189 197.471 213.835 202.848C244.265 209.496 270.614 224.699 298.136 234.892C285.035 228.146 271.934 221.4 258.808 214.654C249.569 209.887 240.281 205.097 230.333 201.748Z" fill="#A5DDEC"/>
<path d="M307.546 239.926C306.471 239.413 305.395 238.997 304.393 238.606L252.283 218.295C235.735 211.842 216.964 204.534 197.874 206.001C187.291 206.807 177.001 210.351 167.053 213.749C156.763 217.268 146.106 220.935 135.156 221.546C131.001 221.79 126.821 221.57 122.837 221.277C122.715 221.448 122.617 221.619 122.495 221.79C126.577 222.108 130.903 222.328 135.181 222.083C146.204 221.472 156.885 217.806 167.224 214.262C177.123 210.865 187.389 207.369 197.899 206.538C216.866 205.072 235.564 212.355 252.063 218.784L304.173 239.095C305.371 239.56 306.715 240.097 308.011 240.733C307.864 240.464 307.717 240.195 307.546 239.926Z" fill="#13A8B3"/>
<path d="M82.1402 148.001C81.9691 147.854 81.7003 148.196 81.8469 148.392C81.9936 148.587 82.2624 148.587 82.5069 148.587L82.1402 148.001Z" fill="#F4B19F"/>
</g>
<path d="M306.616 297.708H97.6606V299.003H306.616V297.708Z" fill="#0B2347"/>
<path d="M297.23 298.124H246.782L256.143 290.694H287.893L297.23 298.124Z" fill="#0B2347"/>
<path d="M261.496 33.244H256.705V50.0846H261.496V33.244Z" fill="#006BA2"/>
<path d="M269.61 20.8517H259.222V65.3608H269.61V20.8517Z" fill="#0B2347"/>
<path d="M266.995 55.7301H261.813V295.434H266.995V55.7301Z" fill="#0B2347"/>
<path d="M252.428 17.847L232.361 22.0511V70.0309L253.601 74.4793H258.318V17.847H252.428Z" fill="#0B2347"/>
<path d="M249.764 21.5602L233.901 24.8843V67.218L249.764 70.5422V21.5602Z" fill="#13A8B3"/>
<path d="M233.901 24.8843V49.0331C236.125 51.2818 238.765 52.2106 242.113 50.2308C244.802 48.7154 247.344 47.0533 249.788 45.269V21.5602L233.901 24.8843Z" fill="#A5DDEC"/>
</svg>
