<svg width="331" height="331" viewBox="0 0 331 331" fill="none" xmlns="http://www.w3.org/2000/svg">
<path d="M19.9255 193.235C19.9255 193.235 27.1413 245.335 74.3419 274.992C121.543 304.65 182.116 299.884 231.236 297.302C280.356 294.72 314.913 262.547 316.104 219.914C317.296 177.347 278.701 169.47 253.413 124.189C228.125 78.9081 228.257 63.02 182.314 38.7908C136.371 14.5616 71.3629 40.6444 41.5729 95.127C11.8491 149.676 19.9255 193.235 19.9255 193.235Z" fill="#116EB6"/>
<path opacity="0.7" d="M19.9255 193.235C19.9255 193.235 27.1413 245.335 74.3419 274.992C121.543 304.65 182.116 299.884 231.236 297.302C280.356 294.72 314.913 262.547 316.104 219.914C317.296 177.347 278.701 169.47 253.413 124.189C228.125 78.9081 228.257 63.02 182.314 38.7908C136.371 14.5616 71.3629 40.6444 41.5729 95.127C11.8491 149.676 19.9255 193.235 19.9255 193.235Z" fill="white"/>
<path d="M224.284 45.1438C219.054 51.1018 215.876 58.9134 215.876 67.4532H241.827L224.284 45.1438Z" stroke="#263238" stroke-width="0.662" stroke-miterlimit="10" stroke-linecap="round" stroke-linejoin="round"/>
<path d="M272.809 42.4976L255.729 67.455H283.798C283.732 57.5912 279.495 48.6542 272.809 42.4976Z" stroke="#263238" stroke-width="0.662" stroke-miterlimit="10" stroke-linecap="round" stroke-linejoin="round"/>
<path d="M226.138 43.158L245.138 67.4534H247.388V33.6252C239.18 34.221 231.765 37.7296 226.138 43.158Z" stroke="#263238" stroke-width="0.662" stroke-miterlimit="10" stroke-linecap="round" stroke-linejoin="round"/>
<path d="M245.666 161.59H215.214V199.655H245.666V161.59Z" stroke="#263238" stroke-width="0.662" stroke-miterlimit="10" stroke-linecap="round" stroke-linejoin="round"/>
<path d="M250.035 33.5601V67.4545H252.485L270.756 40.7759C265.063 36.2743 257.847 33.5601 250.035 33.5601Z" stroke="#263238" stroke-width="0.662" stroke-miterlimit="10" stroke-linecap="round" stroke-linejoin="round"/>
<path d="M283.732 72.9497H253.28V111.015H283.732V72.9497Z" stroke="#263238" stroke-width="0.662" stroke-miterlimit="10" stroke-linecap="round" stroke-linejoin="round"/>
<path d="M245.666 117.236H215.214V155.301H245.666V117.236Z" stroke="#263238" stroke-width="0.662" stroke-miterlimit="10" stroke-linecap="round" stroke-linejoin="round"/>
<path d="M283.732 117.236H253.28V155.301H283.732V117.236Z" stroke="#263238" stroke-width="0.662" stroke-miterlimit="10" stroke-linecap="round" stroke-linejoin="round"/>
<path d="M283.732 161.59H253.28V199.655H283.732V161.59Z" stroke="#263238" stroke-width="0.662" stroke-miterlimit="10" stroke-linecap="round" stroke-linejoin="round"/>
<path d="M245.666 72.9497H215.214V111.015H245.666V72.9497Z" stroke="#263238" stroke-width="0.662" stroke-miterlimit="10" stroke-linecap="round" stroke-linejoin="round"/>
<path d="M169.274 301.342C254.498 301.342 323.586 289.161 323.586 274.134C323.586 259.107 254.498 246.926 169.274 246.926C84.0498 246.926 14.9619 259.107 14.9619 274.134C14.9619 289.161 84.0498 301.342 169.274 301.342Z" fill="#116EB6"/>
<path opacity="0.5" d="M169.274 301.342C254.498 301.342 323.586 289.161 323.586 274.134C323.586 259.107 254.498 246.926 169.274 246.926C84.0498 246.926 14.9619 259.107 14.9619 274.134C14.9619 289.161 84.0498 301.342 169.274 301.342Z" fill="white"/>
<path d="M298.826 131.538C298.826 131.538 298.826 128.427 294.457 124.058C290.087 119.689 287.241 117.173 287.241 117.173C287.241 117.173 285.056 124.389 289.094 128.758C293.133 133.127 298.76 137.165 298.76 137.165V131.538H298.826Z" fill="#C6FF00"/>
<path d="M292.471 151.066C292.471 151.066 292.471 147.954 288.102 143.585C283.733 139.216 280.886 136.7 280.886 136.7C280.886 136.7 278.701 143.916 282.74 148.285C286.778 152.654 292.405 156.693 292.405 156.693V151.066H292.471Z" fill="#C6FF00"/>
<path d="M298.562 136.835C298.562 136.835 298.893 133.724 303.725 129.818C308.558 125.912 311.603 123.727 311.603 123.727C311.603 123.727 312.993 131.075 308.492 135.047C303.99 138.953 297.966 142.396 297.966 142.396L298.562 136.835Z" fill="#C6FF00"/>
<path d="M290.882 159.872C290.882 159.872 291.544 156.827 296.708 153.451C301.871 150.075 305.181 148.221 305.181 148.221C305.181 148.221 305.843 155.702 300.944 159.144C296.046 162.587 289.69 165.367 289.69 165.367L290.882 159.872Z" fill="#C6FF00"/>
<path d="M292.339 185.028C292.339 185.028 292.339 181.916 296.708 177.547C301.077 173.178 303.924 170.662 303.924 170.662C303.924 170.662 306.108 177.878 302.07 182.247C298.032 186.617 292.405 190.655 292.405 190.655V185.028H292.339Z" fill="#C6FF00"/>
<path d="M292.206 191.118C292.206 191.118 292.669 188.007 288.962 183.108C285.255 178.143 282.805 175.296 282.805 175.296C282.805 175.296 279.628 182.115 283.004 187.014C286.38 191.913 291.411 196.745 291.411 196.745L292.206 191.118Z" fill="#C6FF00"/>
<path d="M287.903 209.324C287.903 209.324 287.903 206.213 292.272 201.843C296.641 197.474 299.488 194.959 299.488 194.959C299.488 194.959 301.672 202.174 297.634 206.544C293.596 210.913 287.969 214.951 287.969 214.951V209.324H287.903Z" fill="#C6FF00"/>
<path d="M290.816 225.806C290.816 225.806 290.021 222.76 293.133 217.464C296.244 212.102 298.363 208.991 298.363 208.991C298.363 208.991 302.268 215.412 299.488 220.642C296.641 225.872 292.272 231.234 292.272 231.234L290.816 225.806Z" fill="#C6FF00"/>
<path d="M299.224 130.744C298.959 134.054 298.562 137.563 298.033 140.409C296.311 149.346 292.008 155.105 290.287 163.182C288.566 171.258 293.531 181.652 292.207 191.979C290.883 202.306 286.845 208.132 287.97 215.016C289.096 221.901 295.186 240.636 295.186 240.636" stroke="#263238" stroke-width="0.331" stroke-miterlimit="10" stroke-linecap="round" stroke-linejoin="round"/>
<path d="M298.496 138.954L303.196 135.313" stroke="#263238" stroke-width="0.331" stroke-miterlimit="10" stroke-linecap="round" stroke-linejoin="round"/>
<path d="M298.694 134.783L296.708 131.275" stroke="#263238" stroke-width="0.331" stroke-miterlimit="10" stroke-linecap="round" stroke-linejoin="round"/>
<path d="M290.485 162.85C290.485 162.85 294.457 159.871 298.496 156.958" stroke="#263238" stroke-width="0.331" stroke-miterlimit="10" stroke-linecap="round" stroke-linejoin="round"/>
<path d="M292.471 156.694C292.471 156.694 289.161 150.273 285.454 145.97" stroke="#263238" stroke-width="0.331" stroke-miterlimit="10" stroke-linecap="round" stroke-linejoin="round"/>
<path d="M292.471 189.464C292.471 189.464 295.516 183.44 300.878 178.21" stroke="#263238" stroke-width="0.331" stroke-miterlimit="10" stroke-linecap="round" stroke-linejoin="round"/>
<path d="M291.677 193.833C291.677 193.833 289.691 189.133 287.374 185.757C285.057 182.381 284.726 181.917 284.726 181.917" stroke="#263238" stroke-width="0.331" stroke-miterlimit="10" stroke-linecap="round" stroke-linejoin="round"/>
<path d="M287.903 215.018C287.903 215.018 289.492 210.979 291.478 207.802C293.464 204.624 296.112 201.778 296.112 201.778" stroke="#263238" stroke-width="0.331" stroke-miterlimit="10" stroke-linecap="round" stroke-linejoin="round"/>
<path d="M292.273 231.235C292.273 231.235 291.809 227.527 293.464 224.35C295.119 221.172 296.973 217.002 297.767 215.347" stroke="#263238" stroke-width="0.331" stroke-miterlimit="10" stroke-linecap="round" stroke-linejoin="round"/>
<path d="M270.163 173.242C270.163 173.242 269.832 171.256 272.082 168.079C274.333 164.835 275.856 162.981 275.856 162.981C275.856 162.981 277.974 167.218 275.922 170.462C273.87 173.64 270.758 176.817 270.758 176.817L270.163 173.242Z" fill="#C6FF00"/>
<path d="M276.252 184.826C276.252 184.826 275.921 182.84 278.172 179.662C280.423 176.419 281.945 174.565 281.945 174.565C281.945 174.565 284.064 178.802 282.011 182.046C279.959 185.223 276.848 188.401 276.848 188.401L276.252 184.826Z" fill="#C6FF00"/>
<path d="M270.957 176.552C270.957 176.552 270.427 174.632 266.985 172.712C263.542 170.793 261.358 169.733 261.358 169.733C261.358 169.733 261.291 174.5 264.535 176.486C267.779 178.472 271.95 179.928 271.95 179.928L270.957 176.552Z" fill="#C6FF00"/>
<path d="M278.238 190.188C278.238 190.188 277.509 188.335 273.868 186.812C270.227 185.289 267.977 184.429 267.977 184.429C267.977 184.429 268.374 189.195 271.816 190.784C275.259 192.373 279.562 193.432 279.562 193.432L278.238 190.188Z" fill="#C6FF00"/>
<path d="M280.027 206.078C280.027 206.078 279.696 204.092 276.452 201.842C273.208 199.591 271.222 198.333 271.222 198.333C271.222 198.333 270.627 203.099 273.672 205.35C276.717 207.667 280.689 209.587 280.689 209.587L280.027 206.078Z" fill="#C6FF00"/>
<path d="M280.755 209.918C280.755 209.918 280.159 207.998 281.946 204.49C283.734 200.981 284.925 198.929 284.925 198.929C284.925 198.929 287.639 202.835 286.051 206.277C284.462 209.719 281.88 213.294 281.88 213.294L280.755 209.918Z" fill="#C6FF00"/>
<path d="M286.249 225.74C286.249 225.74 286.447 223.754 289.559 221.304C292.67 218.855 294.59 217.465 294.59 217.465C294.59 217.465 295.45 222.165 292.538 224.614C289.625 227.064 285.785 229.248 285.785 229.248L286.249 225.74Z" fill="#C6FF00"/>
<path d="M285.455 220.839C285.455 220.839 285.124 218.853 281.88 216.602C278.636 214.351 276.65 213.094 276.65 213.094C276.65 213.094 276.054 217.86 279.1 220.111C282.145 222.428 286.117 224.348 286.117 224.348L285.455 220.839Z" fill="#C6FF00"/>
<path d="M285.387 231.497C285.387 231.497 285.586 229.511 283.004 226.532C280.488 223.553 278.833 221.766 278.833 221.766C278.833 221.766 277.046 226.201 279.429 229.18C281.746 232.159 285.122 235.072 285.122 235.072L285.387 231.497Z" fill="#C6FF00"/>
<path d="M269.832 172.781C270.361 174.833 270.957 176.951 271.619 178.739C273.671 184.167 276.981 187.279 278.967 192.177C280.953 197.076 278.967 204.093 280.887 210.449C282.873 216.804 285.984 219.981 286.051 224.417C286.051 228.852 284.329 241.298 284.329 241.298" stroke="#263238" stroke-width="0.331" stroke-miterlimit="10" stroke-linecap="round" stroke-linejoin="round"/>
<path d="M271.155 177.878L267.845 176.09" stroke="#263238" stroke-width="0.331" stroke-miterlimit="10" stroke-linecap="round" stroke-linejoin="round"/>
<path d="M270.56 175.295L271.421 172.846" stroke="#263238" stroke-width="0.331" stroke-miterlimit="10" stroke-linecap="round" stroke-linejoin="round"/>
<path d="M278.768 191.978C278.768 191.978 275.988 190.521 273.141 189.131" stroke="#263238" stroke-width="0.331" stroke-miterlimit="10" stroke-linecap="round" stroke-linejoin="round"/>
<path d="M276.915 188.335C276.915 188.335 278.305 183.966 280.159 180.855" stroke="#263238" stroke-width="0.331" stroke-miterlimit="10" stroke-linecap="round" stroke-linejoin="round"/>
<path d="M280.424 208.859C280.424 208.859 277.842 205.417 273.936 202.702" stroke="#263238" stroke-width="0.331" stroke-miterlimit="10" stroke-linecap="round" stroke-linejoin="round"/>
<path d="M281.415 211.573C281.415 211.573 282.143 208.396 283.202 206.013C284.262 203.629 284.46 203.298 284.46 203.298" stroke="#263238" stroke-width="0.331" stroke-miterlimit="10" stroke-linecap="round" stroke-linejoin="round"/>
<path d="M285.917 227.859C285.917 227.859 288.168 225.145 289.492 224.152C290.882 223.159 291.809 222.099 291.809 222.099" stroke="#263238" stroke-width="0.331" stroke-miterlimit="10" stroke-linecap="round" stroke-linejoin="round"/>
<path d="M286.05 224.414C286.05 224.414 284.594 222.097 283.071 220.31C281.482 218.522 279.562 217 279.562 217" stroke="#263238" stroke-width="0.331" stroke-miterlimit="10" stroke-linecap="round" stroke-linejoin="round"/>
<path d="M285.124 235.075C285.124 235.075 284.992 232.692 283.601 230.838C282.211 229.051 280.622 226.601 279.96 225.674" stroke="#263238" stroke-width="0.331" stroke-miterlimit="10" stroke-linecap="round" stroke-linejoin="round"/>
<path d="M302.003 262.881H277.443C276.318 262.881 275.457 261.954 275.457 260.895V239.181H304.055V260.829C303.989 261.954 303.129 262.881 302.003 262.881Z" fill="#263238"/>
<path d="M240.372 216.672C240.372 216.672 243.814 208 241.63 189.993C240.637 182.116 241.365 165.897 230.574 165.367C219.056 164.837 214.355 165.963 202.837 166.095C161.197 166.559 130.546 170.729 105.192 168.28C84.802 166.294 67.1928 163.05 59.9108 170.332C52.6288 177.614 53.2908 193.039 53.8866 196.018C54.5486 198.997 59.2488 219.519 59.2488 219.519L239.313 218.724L240.372 216.672Z" fill="#999999" stroke="#263238" stroke-width="0.662" stroke-miterlimit="10" stroke-linecap="round" stroke-linejoin="round"/>
<path d="M61.5665 211.509C61.5665 211.509 58.1241 197.607 52.4309 193.833C46.7377 190.06 39.3233 194.164 33.1667 200.122C27.0101 206.147 25.2889 213.23 27.8045 225.08C30.3201 236.93 37.7345 254.406 39.9191 262.284C42.1037 270.162 42.1037 274.266 49.5181 276.782C56.9325 279.298 64.0159 279.496 68.5837 273.141C73.1515 266.852 71.8937 237.79 68.2527 226.933C64.6779 216.077 61.5665 211.509 61.5665 211.509Z" fill="#B2B2B2" stroke="#263238" stroke-width="0.662" stroke-miterlimit="10" stroke-linecap="round" stroke-linejoin="round"/>
<path d="M60.904 272.678C57.7264 266.654 48.2598 223.955 48.4584 218.063C48.5908 212.238 43.8906 202.44 38.065 201.646C33.2324 200.984 29.3928 205.618 28.2012 207.206C26.3476 211.84 26.2152 217.467 27.804 224.948C30.3196 236.798 29.9886 254.672 32.2394 262.55C34.424 270.427 34.424 274.532 41.8384 277.047C46.7372 278.702 59.1828 278.967 63.1548 277.445C62.6252 276.054 61.8308 274.399 60.904 272.678Z" fill="#8A8A8A" stroke="#263238" stroke-width="0.662" stroke-miterlimit="10" stroke-linecap="round" stroke-linejoin="round"/>
<path d="M230.84 211.243C230.84 211.243 234.481 197.341 240.506 193.568C246.53 189.795 254.341 193.899 260.829 199.857C267.317 205.881 269.17 212.965 266.522 224.814C263.874 236.664 255.996 254.141 253.679 262.019C251.362 269.897 251.362 274.001 243.485 276.517C235.673 279.032 228.126 279.231 223.294 272.876C218.461 266.587 219.785 237.525 223.625 226.668C227.53 215.811 230.84 211.243 230.84 211.243Z" fill="#B2B2B2" stroke="#263238" stroke-width="0.662" stroke-miterlimit="10" stroke-linecap="round" stroke-linejoin="round"/>
<path d="M231.502 273.339C234.812 267.248 244.808 224.02 244.675 218.062C244.477 212.17 249.508 202.24 255.665 201.445C260.762 200.783 264.8 205.417 266.058 207.072C268.044 211.773 268.176 217.466 266.455 225.079C263.807 237.061 259.703 254.803 257.386 262.747C255.069 270.757 255.069 274.861 247.191 277.443C242.027 279.098 233.289 279.76 229.052 278.171C229.714 276.649 230.575 274.994 231.502 273.339Z" fill="#8A8A8A" stroke="#263238" stroke-width="0.662" stroke-miterlimit="10" stroke-linecap="round" stroke-linejoin="round"/>
<path d="M244.741 238.122C244.741 238.122 240.769 262.616 238.254 270.825C235.738 279.034 236.532 279.034 232.229 279.365C227.993 279.696 66.3984 279.232 61.301 278.438C56.2698 277.643 53.5556 273.87 52.1654 268.508C50.7752 263.146 49.3188 238.784 49.3188 238.784L237.856 238.122H244.741Z" fill="#999999" stroke="#263238" stroke-width="0.662" stroke-miterlimit="10" stroke-linecap="round" stroke-linejoin="round"/>
<path d="M49.3865 242.688C49.3865 242.688 50.3133 245.402 53.6233 245.998C56.9333 246.594 142.398 247.521 145.112 247.521C147.826 247.521 217.535 247.521 228.722 246.594C239.91 245.667 245.603 244.211 244.743 238.12C243.882 232.03 244.147 236.863 244.147 236.863L47.5991 239.312L49.3865 242.688Z" fill="#263238"/>
<path d="M62.0291 210.715C62.0291 210.715 49.9145 218.923 46.4059 222.697C42.9635 226.47 44.8171 229.449 45.1481 232.296C45.4791 235.142 46.8693 241.431 50.9737 243.682C55.0781 245.867 106.052 244.94 135.71 245.867C165.367 246.794 229.118 245.668 237.062 243.815C244.94 241.895 246.793 232.163 247.323 226.603C247.786 221.108 242.159 213.363 238.982 212.436C235.804 211.509 209.589 211.377 180.395 211.972C151.2 212.634 137.828 215.15 104.529 214.488C71.2309 213.892 69.5759 209.258 62.0291 210.715Z" fill="#B2B2B2"/>
<mask id="mask0_1_7307" style="mask-type:luminance" maskUnits="userSpaceOnUse" x="44" y="210" width="204" height="37">
<path d="M62.0291 210.72C62.0291 210.72 49.9145 218.928 46.4059 222.702C42.9635 226.475 44.8171 229.454 45.1481 232.301C45.4791 235.147 46.8693 241.436 50.9737 243.687C55.0781 245.872 106.052 244.945 135.71 245.872C165.367 246.799 229.118 245.673 237.062 243.82C244.94 241.9 246.793 232.168 247.323 226.608C247.786 221.113 242.159 213.368 238.982 212.441C235.804 211.514 209.589 211.382 180.395 211.977C151.2 212.639 137.828 215.155 104.529 214.493C71.2309 213.897 69.5759 209.263 62.0291 210.72Z" fill="white"/>
</mask>
<g mask="url(#mask0_1_7307)">
<path d="M45.1492 232.301C45.4802 235.147 46.8704 241.436 50.9748 243.687C55.0792 245.872 106.053 244.945 135.711 245.872C165.368 246.798 229.119 245.673 237.063 243.819C244.941 241.9 249.707 234.353 250.171 228.858C250.237 228.13 250.104 227.269 249.906 226.409C248.78 227.534 246.662 226.343 244.146 225.945C238.519 225.151 179.403 228.792 135.115 228.792C87.0538 228.792 71.3644 228.792 47.5986 224.224C44.0238 223.562 46.4732 222.702 46.4732 222.702C42.9646 226.475 44.8182 229.454 45.1492 232.301Z" fill="#999999"/>
</g>
<path d="M62.0291 210.715C62.0291 210.715 49.9145 218.923 46.4059 222.697C42.9635 226.47 44.8171 229.449 45.1481 232.296C45.4791 235.142 46.8693 241.431 50.9737 243.682C55.0781 245.867 106.052 244.94 135.71 245.867C165.367 246.794 229.118 245.668 237.062 243.815C244.94 241.895 246.793 232.163 247.323 226.603C247.786 221.108 242.159 213.363 238.982 212.436C235.804 211.509 209.589 211.377 180.395 211.972C151.2 212.634 137.828 215.15 104.529 214.488C71.2309 213.892 69.5759 209.258 62.0291 210.715Z" stroke="#263238" stroke-width="0.662" stroke-miterlimit="10" stroke-linecap="round" stroke-linejoin="round"/>
<path d="M147.892 168.876L147.627 213.561C147.627 213.561 145.641 225.742 145.906 227.463C146.17 229.184 146.17 245.8 146.17 245.8" stroke="#263238" stroke-width="0.662" stroke-miterlimit="10" stroke-linecap="round" stroke-linejoin="round"/>
<path d="M241.716 264.642C238.86 268.325 235.899 267.395 234.626 267.154C233.352 266.913 232.044 266.707 230.805 266.948C229.531 267.223 228.327 268.084 228.051 269.357C227.948 269.839 227.982 270.39 228.327 270.803C228.636 271.182 229.256 271.354 229.669 271.078C230.082 270.803 230.254 270.149 230.736 269.977C230.943 269.908 231.184 269.942 231.39 269.977C232.801 270.287 234.109 270.941 235.486 271.423C236.863 271.904 238.343 272.214 239.754 271.801C241.889 271.147 243.162 269.013 244.16 267.017L241.716 264.642Z" fill="#E38D49"/>
<path d="M256.518 273.615C257.103 275.371 258.721 276.644 260.442 277.298C262.197 277.918 264.09 277.987 265.949 277.918C265.192 279.949 264.125 282.255 261.991 282.703C261.474 282.806 260.855 282.84 260.614 283.288C260.407 283.701 260.614 284.217 260.992 284.492C261.371 284.768 261.818 284.837 262.266 284.871C262.885 284.94 263.471 284.974 264.09 284.871C265.398 284.63 266.431 283.666 267.291 282.668C268.944 280.706 270.148 278.228 270.045 275.646C269.942 273.478 268.944 271.447 267.601 269.76C266.259 268.074 264.538 266.697 262.886 265.354L256.518 273.615Z" fill="#E38D49"/>
<path d="M247.018 256.678C247.018 256.678 251.286 258.916 257.826 257.298C264.331 255.68 268.015 256.265 272.076 259.742C276.138 263.218 270.458 270.757 273.109 272.374C275.759 273.992 277.584 278.88 276.964 281.53C276.345 284.181 273.901 285.592 272.696 284.181C271.457 282.77 274.52 281.737 274.52 281.737C274.52 281.737 273.281 277.675 272.076 276.849C270.837 276.023 266.982 277.056 263.918 275.438C260.855 273.82 260.235 272.581 260.235 272.581C260.235 272.581 257.998 273.992 254.521 274.612C251.045 275.231 248.394 274.405 248.394 274.405C248.394 274.405 247.706 282.047 245.744 285.42C244.333 287.864 241.063 287.038 240.856 285.833C240.65 284.594 243.507 284.594 243.507 284.594C243.507 284.594 244.539 281.117 242.681 276.23C240.856 271.342 234.316 267.452 237.586 256.885L247.018 256.678Z" fill="#FFB564"/>
<path d="M248.016 257.096C246.673 256.752 246.983 256.683 246.983 256.683L237.62 256.89C237.414 257.613 237.242 258.267 237.104 258.921C237.827 259.334 239.066 259.816 241.097 259.919C244.367 260.16 246.811 259.162 248.016 257.096Z" fill="#E38D49"/>
<path d="M268.187 259.096C268.187 259.096 272.903 261.505 276.242 256.308C279.787 250.766 274.796 246.257 269.564 244.536C264.332 242.78 264.883 237.238 271.939 240.095C278.996 242.952 283.677 249.974 279.478 257.581C275.657 264.534 268.187 261.437 268.187 261.437V259.096Z" fill="#FFB564"/>
<path d="M247.363 241.301C248.464 239.786 249.876 238.478 251.528 237.583C252.526 237.032 253.765 236.619 254.763 237.17C254.901 240.887 253.008 246.085 250.013 249.803L247.363 241.301Z" fill="#FFB564"/>
<path d="M254.729 237.162C253.283 237.094 251.424 240.157 250.46 242.119L250.77 247.971C250.908 247.799 252.388 246.835 252.87 245.389C254.488 242.394 254.832 239.537 254.729 237.162Z" fill="#F9D6AE"/>
<path d="M234.042 245.596C233.181 240.811 234.042 235.27 236.004 232C237.14 232 238.069 232.963 238.688 233.927C239.687 235.545 240.341 237.369 240.582 239.263L234.042 245.596Z" fill="#FFB564"/>
<path d="M235.968 232C237.138 232.791 237.448 236.268 237.345 238.505L234.212 243.565C234.178 243.324 233.317 241.775 233.593 240.261C233.627 236.784 234.763 234.065 235.968 232Z" fill="#F9D6AE"/>
<path d="M244.472 237.858C239.068 236.171 235.006 237.169 232.631 241.575C230.738 245.12 226.917 254.586 238.62 257.822C249.497 260.851 251.735 253.554 252.492 248.528C253.146 244.019 251.666 240.095 244.472 237.858Z" fill="#FFB564"/>
<path d="M242.028 247.043C237.897 245.597 234.421 253.307 239.033 255.2C243.646 257.094 246.64 248.66 242.028 247.043Z" fill="#FFB865"/>
<path d="M240.83 250.593L240.24 252.752L240.605 252.851L241.195 250.693L240.83 250.593Z" fill="#202020"/>
<path d="M238.312 251.098C238.519 251.511 238.863 251.856 239.242 252.097C239.621 252.338 240.034 252.51 240.481 252.613C240.929 252.716 241.376 252.785 241.823 252.751C242.271 252.716 242.718 252.579 243.131 252.338C242.822 252.716 242.34 252.957 241.858 253.06C241.376 253.164 240.86 253.129 240.378 252.992C239.896 252.854 239.448 252.647 239.07 252.338C238.691 251.993 238.381 251.58 238.312 251.098Z" fill="#202020"/>
<path d="M241.337 249.486C241.337 249.486 240.511 248.247 239.719 248.66C238.859 249.142 240.201 250.622 241.062 250.829C241.853 251.001 243.678 250.209 243.161 249.486C242.748 248.867 241.337 249.486 241.337 249.486Z" fill="#DA5D46"/>
<path d="M240.031 248.901C239.515 249.038 240.548 250.243 240.857 249.968C241.167 249.727 240.479 248.763 240.031 248.901Z" fill="#ED9D7D"/>
<path d="M248.636 271.173C248.017 268.109 246.192 266.491 246.192 266.491C248.223 269.142 248.223 275.647 248.223 275.647L248.292 275.682C248.395 274.89 248.43 274.408 248.43 274.408C248.43 274.408 248.671 274.477 249.153 274.58C249.084 273.72 248.912 272.549 248.636 271.173Z" fill="#E38D49"/>
<path d="M262.302 274.824C260.684 272.587 258.24 270.143 261.889 262.811C261.889 262.811 257.621 266.666 259.858 273.619L262.302 274.824Z" fill="#E38D49"/>
<path d="M234.59 244.875C234.935 244.394 235.382 244.015 235.933 243.774C236.483 243.533 237.137 243.464 237.723 243.705C237.998 243.808 238.273 244.015 238.48 244.221C238.686 244.462 238.859 244.703 238.962 244.979C239.203 245.529 239.272 246.149 239.237 246.7C239.134 246.115 238.962 245.598 238.721 245.082C238.583 244.841 238.411 244.634 238.239 244.428C238.032 244.256 237.826 244.118 237.585 244.015C237.103 243.808 236.552 243.843 236.036 244.015C235.52 244.221 235.038 244.497 234.59 244.875Z" fill="#202020"/>
<path d="M244.333 247.905C244.608 247.388 244.987 246.907 245.503 246.597C246.019 246.253 246.673 246.115 247.258 246.253C247.568 246.321 247.843 246.459 248.119 246.631C248.36 246.838 248.566 247.044 248.738 247.32C249.048 247.836 249.22 248.421 249.289 248.972C249.117 248.421 248.842 247.905 248.532 247.457C248.36 247.251 248.153 247.044 247.947 246.907C247.74 246.769 247.499 246.666 247.224 246.597C246.708 246.494 246.157 246.597 245.675 246.838C245.159 247.113 244.711 247.457 244.333 247.905Z" fill="#202020"/>
<path d="M244.162 250.898C245.057 250.313 246.227 250.141 247.294 250.347C248.361 250.554 249.394 251.139 249.979 252.034C248.568 250.382 246.055 249.9 244.162 250.898Z" fill="white"/>
<path d="M244.505 251.594C245.469 251.422 246.467 251.594 247.328 252.042C248.188 252.489 248.946 253.178 249.359 254.073C248.326 252.42 246.433 251.457 244.505 251.594Z" fill="white"/>
<path d="M244.093 252.172C244.919 252.276 245.642 252.758 246.193 253.377C246.709 254.031 247.019 254.857 246.95 255.683C246.847 254.066 245.677 252.586 244.093 252.172Z" fill="white"/>
<path d="M238.036 249.561C236.969 247.668 234.594 246.704 232.528 247.324C233.527 246.91 234.697 246.979 235.695 247.358C236.728 247.771 237.623 248.563 238.036 249.561Z" fill="white"/>
<path d="M237.382 249.938C235.833 248.767 233.699 248.561 231.944 249.353C232.77 248.836 233.768 248.664 234.732 248.767C235.73 248.905 236.66 249.284 237.382 249.938Z" fill="white"/>
<path d="M237.382 250.635C235.833 250.118 234.043 250.704 233.079 252.046C233.458 251.323 234.181 250.807 234.972 250.531C235.764 250.291 236.659 250.291 237.382 250.635Z" fill="white"/>
<path d="M235.83 241.784C236.278 240.889 238.55 239.822 238.619 241.061C238.653 241.819 235.796 241.819 235.83 241.784Z" fill="#E38D49"/>
<path d="M249.427 245.189C249.393 244.191 247.741 242.263 247.19 243.365C246.846 244.019 249.427 245.189 249.427 245.189Z" fill="#E38D49"/>
<path opacity="0.3" d="M38.2667 198.27C38.2667 198.27 46.6741 202.242 48.3291 206.545C49.9841 210.848 50.3151 215.482 53.2941 217.137C56.2731 218.792 61.5691 221.771 67.8581 223.095C74.1471 224.419 79.1121 224.088 79.1121 224.088C79.1121 224.088 90.6971 224.75 99.3031 224.75C107.909 224.75 121.149 222.102 121.149 222.102C121.149 222.102 130.748 223.095 136.706 211.179C142.664 199.263 164.841 182.713 166.496 170.135C166.496 170.135 139.685 183.044 135.713 188.671C131.741 194.298 104.93 208.862 91.0281 208.862C77.1261 208.862 60.9071 198.27 51.9701 192.312C43.0331 186.354 37.8033 192.312 38.2667 198.27Z" fill="black"/>
<path d="M68.3207 210.054C68.3207 210.054 62.8923 199.198 58.8541 193.24C54.8159 187.282 51.2411 184.435 46.8057 182.118C42.4365 179.801 39.9209 179.007 37.7363 177.947C35.5517 176.888 34.8897 177.418 34.6249 181.986C34.3601 186.487 33.3009 194.431 38.2659 198.271C43.1647 202.177 45.3493 202.044 48.3283 203.434C51.3073 204.825 52.8299 208.73 55.3455 213.762C57.7949 218.793 65.4079 218.793 68.3869 218.528C71.3659 218.329 70.1081 213.033 68.3207 210.054Z" fill="white" stroke="#263238" stroke-width="0.662" stroke-miterlimit="10" stroke-linecap="round" stroke-linejoin="round"/>
<path d="M119.627 194.3C119.627 194.3 125.982 174.969 128.431 173.116C130.815 171.196 152.925 164.841 161.399 162.921C169.873 161.001 180.862 152.726 182.12 151.535C183.311 150.343 186.092 148.953 185.231 152.395C184.37 155.838 183.51 157.559 181.789 159.611C180.067 161.663 181.127 163.384 180.067 165.304C179.008 167.224 177.155 167.224 174.176 165.503C171.197 163.782 170.005 163.782 166.563 166.363C163.12 168.945 156.699 175.168 149.814 177.22C142.929 179.273 140.678 179.603 140.678 179.603C140.678 179.603 137.567 194.234 133.463 200.655C129.292 207.01 127.769 209.989 121.017 208.731C114.265 207.54 117.244 197.146 117.575 196.153C117.906 195.16 119.627 194.3 119.627 194.3Z" fill="#263238" stroke="#263238" stroke-width="0.662" stroke-miterlimit="10" stroke-linecap="round" stroke-linejoin="round"/>
<path d="M180.001 165.304C181.06 163.384 180.001 161.663 181.722 159.611C183.444 157.559 184.304 155.838 185.165 152.395C186.025 148.953 183.245 150.343 182.053 151.535C181.06 152.528 173.58 158.155 166.298 161.266C167.092 162.391 167.887 163.715 168.416 165.106C170.535 163.848 171.792 164.113 174.109 165.503C177.088 167.224 179.008 167.224 180.001 165.304Z" fill="white" stroke="#263238" stroke-width="0.662" stroke-miterlimit="10" stroke-linecap="round" stroke-linejoin="round"/>
<path d="M182.121 151.535C181.989 151.667 181.856 151.799 181.591 151.998C182.253 152.726 183.246 153.587 184.835 153.852C184.968 153.388 185.1 152.925 185.232 152.395C186.027 148.953 183.313 150.343 182.121 151.535Z" fill="#A8A8A8" stroke="#263238" stroke-width="0.662" stroke-miterlimit="10" stroke-linecap="round" stroke-linejoin="round"/>
<path d="M106.519 219.984C106.519 219.984 124.657 223.294 131.344 220.844C138.096 218.461 140.81 210.981 142.73 205.685C144.65 200.322 144.981 190.326 146.04 187.413C147.099 184.501 147.43 183.64 147.43 183.64C147.43 183.64 155.374 179.999 160.008 177.616C164.642 175.233 168.482 165.898 171.196 163.846C173.976 161.794 174.307 164.508 175.83 162.986C177.353 161.463 180.133 155.24 180.663 151.268C181.192 147.296 178.743 145.045 177.75 145.045C176.691 145.045 176.889 147.098 175.168 149.679C173.447 152.261 170.865 157.425 168.283 159.146C165.701 160.867 153.454 167.951 148.82 170.532C144.186 173.114 138.096 174.504 135.051 179.867C131.939 185.229 126.776 196.417 126.114 197.608C125.452 198.8 124.393 200.19 124.393 200.19C124.393 200.19 122.34 201.051 118.699 202.11C115.058 203.169 110.755 202.639 108.703 204.692C106.519 206.744 106.519 219.984 106.519 219.984Z" fill="#263238" stroke="#263238" stroke-width="0.662" stroke-miterlimit="10" stroke-linecap="round" stroke-linejoin="round"/>
<path d="M127.306 195.292C127.306 195.292 136.177 176.756 137.633 176.425C139.09 176.094 157.957 165.767 157.957 165.767" stroke="white" stroke-width="0.662" stroke-miterlimit="10" stroke-linecap="round" stroke-linejoin="round"/>
<path d="M118.766 205.552C118.766 205.552 121.149 210.385 121.678 213.297" stroke="white" stroke-width="0.662" stroke-miterlimit="10" stroke-linecap="round" stroke-linejoin="round"/>
<path d="M120.156 206.017C120.156 206.017 121.877 206.547 123.466 210.519" stroke="white" stroke-width="0.662" stroke-miterlimit="10" stroke-linecap="round" stroke-linejoin="round"/>
<path d="M123.929 211.71C123.929 211.71 124.26 213.101 124.591 213.961" stroke="white" stroke-width="0.662" stroke-miterlimit="10" stroke-linecap="round" stroke-linejoin="round"/>
<path d="M177.751 144.98C176.691 144.98 176.89 147.032 175.169 149.614C173.448 152.196 170.866 157.36 168.284 159.081C167.754 159.412 166.828 160.008 165.702 160.67C167.026 161.265 168.35 162.722 169.343 165.899C170.005 164.906 170.667 164.178 171.263 163.715C174.043 161.663 174.374 164.377 175.897 162.854C177.42 161.332 180.2 155.109 180.73 151.137C181.259 147.231 178.81 144.98 177.751 144.98Z" fill="white" stroke="#263238" stroke-width="0.662" stroke-miterlimit="10" stroke-linecap="round" stroke-linejoin="round"/>
<path d="M177.75 144.98C176.889 144.98 176.889 146.304 175.962 148.224C177.022 148.621 179.008 149.482 180.729 150.806C181.06 147.099 178.809 144.98 177.75 144.98Z" fill="#A8A8A8" stroke="#263238" stroke-width="0.662" stroke-miterlimit="10" stroke-linecap="round" stroke-linejoin="round"/>
<path d="M57.8627 161.067C59.7084 160.782 61.5781 160.514 63.4217 160.772C65.2653 161.03 67.1219 161.912 68.1057 163.481C68.8801 164.712 69.0638 166.243 69.003 167.695C68.8574 170.582 67.812 173.345 67.514 176.198C67.2197 179.071 70.0664 185.549 72.4904 187.117C70.1111 190.445 63.7409 189.202 59.6695 188.862C55.5981 188.521 51.766 185.903 49.9896 182.23C48.4882 179.131 48.385 175.477 49.3242 172.149C50.2469 168.844 52.1237 165.841 54.3662 163.227L57.8627 161.067Z" fill="#1B1A2E"/>
<path d="M68.5104 189.265C67.7519 187.341 67.3286 185.313 66.9656 183.273C63.5613 183.705 60.1734 184.113 56.7473 183.985C58.986 189.45 59.5557 195.583 58.3673 201.359C62.8006 198.187 68.0612 196.195 73.4865 195.633C71.1294 194.199 69.5113 191.811 68.5104 189.265Z" fill="#FFC89F"/>
<path d="M73.462 195.618C71.125 194.18 69.5069 191.792 68.5061 189.246C67.7476 187.322 67.3242 185.294 66.9612 183.254C64.27 183.593 61.5788 183.933 58.895 183.979C60.8891 189.03 64.5358 193.437 69.0398 196.409C70.4962 196.051 71.9677 195.774 73.462 195.618Z" fill="#F4BB91"/>
<path d="M67.8196 187.137C67.4559 185.87 67.2131 184.58 66.9868 183.266C64.07 183.627 61.1533 183.988 58.2124 183.999C60.397 187.511 63.9933 187.878 67.8196 187.137Z" fill="#1B1A2E"/>
<path d="M69.9051 172.725C68.9419 171.821 67.6689 171.267 66.848 170.232C66.3045 169.562 66.0003 168.722 65.5865 167.965C64.2658 165.604 61.7497 163.99 59.0569 163.766C58.3336 163.694 57.5927 163.75 56.8872 163.883C53.7511 164.076 50.6991 165.715 48.9153 168.325C46.6657 171.566 46.5212 176.123 48.5583 179.517C50.5714 182.895 54.6678 184.921 58.5912 184.475C58.7966 184.458 58.9982 184.42 59.1997 184.382C59.9735 184.612 60.7599 184.798 61.5551 184.919C65.0445 185.494 68.648 185.234 72.0267 184.222C72.6402 184.044 73.0254 183.429 72.928 182.8C72.6523 181.224 72.5946 179.586 72.339 178.006C72.0115 176.044 71.3462 174.061 69.9051 172.725Z" fill="#FFC89F"/>
<path d="M67.6919 181.226C67.6919 181.226 68.6657 182.302 70.7545 180.585L67.6919 181.226Z" fill="#FFC89F"/>
<path d="M67.6919 181.226C67.6919 181.226 68.6657 182.302 70.7545 180.585" stroke="#263238" stroke-width="0.662" stroke-miterlimit="10" stroke-linecap="round" stroke-linejoin="round"/>
<path d="M59.5702 173.04C59.3945 170.109 60.0855 167.016 59.703 163.873C59.4862 163.831 59.2733 163.808 59.0603 163.786C58.337 163.713 57.5962 163.769 56.8906 163.902C53.7545 164.095 50.7025 165.734 48.9187 168.344C46.6691 171.585 46.5246 176.142 48.5617 179.536C50.5748 182.914 54.6712 184.94 58.5946 184.494C58.8 184.477 59.0016 184.439 59.2032 184.401C59.977 184.631 60.7633 184.817 61.5585 184.939C63.7108 185.285 65.9071 185.31 68.0502 185.053C63.6698 182.183 60.2639 178.169 59.5702 173.04Z" fill="#F4BB91"/>
<path d="M68.7733 176.9L68.3775 176.682L69.4712 174.619C69.582 174.431 69.6562 174.271 69.646 174.106C69.6207 173.86 69.3572 173.68 69.0534 173.508L67.2988 172.502C66.8072 172.219 66.2476 171.907 65.8466 171.44C65.3662 170.883 65.2133 170.181 65.4007 169.624L65.8254 169.774C65.6506 170.287 65.8979 170.825 66.1917 171.166C66.541 171.58 67.0326 171.864 67.5241 172.147L69.2787 173.152C69.6745 173.37 70.0414 173.656 70.0807 174.087C70.1136 174.373 69.9777 174.649 69.867 174.837L68.7733 176.9Z" fill="#2D3538"/>
<path d="M60.4014 174.341L59.9515 174.279C60.1535 172.801 60.7007 171.383 61.5794 170.174L61.9425 170.44C61.1166 171.597 60.5983 172.947 60.4014 174.341Z" fill="#2D3538"/>
<path d="M63.5122 174.903C63.3267 174.583 63.125 174.287 62.8627 174.003C62.7278 173.84 62.5122 173.693 62.3182 173.771C62.0675 173.881 62.1157 174.247 62.2418 174.474C62.431 174.814 62.7336 175.091 63.0815 175.276C63.2416 175.351 63.4785 175.389 63.5565 175.25C63.6182 175.134 63.5715 174.996 63.5122 174.903Z" fill="#2D3538"/>
<path d="M65.6395 169.124L65.2601 168.882C65.4036 168.647 65.4992 168.378 65.5065 168.085L65.9488 168.106C65.9528 168.46 65.8321 168.816 65.6395 169.124Z" fill="#2D3538"/>
<path d="M67.2903 171.236C67.1767 170.965 67.0027 170.706 66.8286 170.446C66.7214 170.32 66.5663 170.162 66.4089 170.212C66.1909 170.274 66.2075 170.584 66.3059 170.774C66.4434 171.061 66.6578 171.313 66.9213 171.493C67.041 171.575 67.2376 171.622 67.3194 171.502C67.3685 171.43 67.3294 171.333 67.2903 171.236Z" fill="#2D3538"/>
<path d="M64.1834 186.244C64.3245 186.217 64.4618 186.17 64.5991 186.124C64.458 186.15 64.3169 186.177 64.1834 186.244Z" fill="#1B1A2E"/>
<path d="M60.1989 186.034C59.1722 184.349 58.9063 182.27 58.6795 180.288C58.3678 177.634 58.06 174.999 57.7685 172.341C58.3512 171.333 58.8142 170.244 59.1373 169.078C59.9934 165.974 59.6522 162.385 57.8726 159.694C54.9427 161.205 51.7075 161.981 48.876 163.682C46.7373 164.961 44.807 167.015 44.0752 169.449L44.055 169.452L44.0588 169.473C43.8287 170.246 43.7108 171.062 43.7655 171.907C43.8726 173.807 44.7293 175.587 45.4045 177.401C45.4846 178.492 45.5647 179.583 45.6649 180.671C46.0403 184.44 46.9563 188.422 49.5612 191.062C51.2595 192.767 53.5735 193.751 55.8794 193.693C58.1688 193.659 60.4097 192.59 61.9546 190.817C62.7617 189.893 63.4994 188.711 64.5827 188.257C62.9563 188.709 61.1386 187.59 60.1989 186.034Z" fill="#1B1A2E"/>
<path d="M95.7273 189.862C95.7273 189.862 93.6089 190.988 92.6821 192.113C91.7553 193.238 89.3721 197.608 89.3721 197.608L93.0793 201.513L95.7935 192.179L97.1837 191.186L95.7273 189.862Z" fill="#C6FF00" stroke="#263238" stroke-width="0.662" stroke-miterlimit="10" stroke-linecap="round" stroke-linejoin="round"/>
<path d="M62.0975 193.372C62.0975 193.372 71.2993 191.584 76.9925 191.452C82.6857 191.319 84.4731 190.525 86.4591 192.379C88.3789 194.166 93.5425 199.727 94.4693 200.654C95.3961 201.58 111.681 199.727 111.681 199.727C111.681 199.727 113.204 203.633 112.211 210.054C111.152 216.542 107.18 220.116 107.18 220.116C107.18 220.116 96.3229 221.705 89.0409 221.176C75.2051 220.116 70.1077 215.085 66.5991 210.848C63.0905 206.612 60.3101 197.344 60.1777 195.689C59.9791 194.034 62.0975 193.372 62.0975 193.372Z" fill="#116EB6" stroke="#263238" stroke-width="0.662" stroke-miterlimit="10" stroke-linecap="round" stroke-linejoin="round"/>
<path d="M96.7205 192.777C96.7205 192.777 89.9681 193.637 89.3061 195.557C88.6441 197.477 92.0865 210.717 93.0795 211.445C94.1387 212.107 96.7205 210.386 96.7205 210.386C96.7205 210.386 102.745 211.247 111.549 210.717C120.354 210.187 123.267 206.083 124.326 205.884C125.385 205.686 128.099 205.024 127.967 204.163C127.768 203.303 125.186 195.028 121.413 192.115C117.64 189.202 111.748 188.474 106.386 190.195C101.023 191.916 96.7205 192.777 96.7205 192.777Z" fill="white" stroke="#263238" stroke-width="0.662" stroke-miterlimit="10" stroke-linecap="round" stroke-linejoin="round"/>
<path d="M94.0054 192.577L95.4618 199.264L116.315 196.616L112.144 190.525L94.0054 192.577Z" fill="white" stroke="#263238" stroke-width="0.662" stroke-miterlimit="10" stroke-linecap="round" stroke-linejoin="round"/>
<path d="M105.59 192.973L105.921 193.966L107.245 193.768L106.914 192.841L105.59 192.973Z" fill="#263238"/>
<path d="M107.377 194.1L106.053 194.232L106.517 195.424L107.774 195.225L107.377 194.1Z" fill="#263238"/>
<path d="M99.5659 196.349L100.625 196.217L100.228 195.091L99.2349 195.224L99.5659 196.349Z" fill="#263238"/>
<path d="M107.245 192.774L107.576 193.701L108.833 193.502L108.502 192.575L107.245 192.774Z" fill="#263238"/>
<path d="M100.161 193.7L100.492 194.693L101.949 194.495L101.618 193.502L100.161 193.7Z" fill="#263238"/>
<path d="M103.802 193.24L104.199 194.166L105.59 193.968L105.259 193.041L103.802 193.24Z" fill="#263238"/>
<path d="M101.949 193.505L102.28 194.432L103.802 194.233L103.471 193.306L101.949 193.505Z" fill="#263238"/>
<path d="M106.185 195.423L105.722 194.298L104.266 194.496L104.729 195.622L106.185 195.423Z" fill="#263238"/>
<path d="M108.237 195.49L108.436 196.086L109.694 195.887L109.495 195.292L108.237 195.49Z" fill="#263238"/>
<path d="M110.555 193.637L109.297 193.769L109.695 194.961L111.019 194.762L110.555 193.637Z" fill="#263238"/>
<path d="M107.708 194.033L108.105 195.159L109.363 195.026L108.966 193.835L107.708 194.033Z" fill="#263238"/>
<path d="M111.747 195.687L113.336 195.422L113.005 194.826L111.482 195.025L111.747 195.687Z" fill="#263238"/>
<path d="M101.089 196.482L101.221 196.945L102.744 196.746L102.611 196.283L101.089 196.482Z" fill="#263238"/>
<path d="M102.082 194.826L100.559 195.025L100.956 196.15L102.479 195.951L102.082 194.826Z" fill="#263238"/>
<path d="M103.934 194.561L102.412 194.759L102.809 195.885L104.398 195.686L103.934 194.561Z" fill="#263238"/>
<path d="M104.861 195.953L105.06 196.483L106.516 196.284L106.318 195.755L104.861 195.953Z" fill="#263238"/>
<path d="M108.7 192.246L109.892 192.048L109.693 191.717L108.568 191.849L108.7 192.246Z" fill="#263238"/>
<path d="M101.883 193.173L103.34 192.974L103.207 192.643L101.751 192.842L101.883 193.173Z" fill="#263238"/>
<path d="M105.457 192.708L106.781 192.509L106.649 192.112L105.325 192.311L105.457 192.708Z" fill="#263238"/>
<path d="M103.67 192.907L105.127 192.709L104.994 192.378L103.538 192.576L103.67 192.907Z" fill="#263238"/>
<path d="M100.096 193.435L101.552 193.237L101.42 192.906L99.9634 193.104L100.096 193.435Z" fill="#263238"/>
<path d="M99.6984 193.436L99.6322 193.171L98.6392 193.304L98.7054 193.568L99.6984 193.436Z" fill="#263238"/>
<path d="M100.89 196.946L100.757 196.548L99.6982 196.681L99.8306 197.144L100.89 196.946Z" fill="#263238"/>
<path d="M110.224 192.047L111.415 191.848L111.217 191.451L110.025 191.65L110.224 192.047Z" fill="#263238"/>
<path d="M99.1017 194.892L100.161 194.76L99.8299 193.767L98.8369 193.899L99.1017 194.892Z" fill="#263238"/>
<path d="M111.151 195.091L109.827 195.29L110.026 195.886L111.416 195.687L111.151 195.091Z" fill="#263238"/>
<path d="M107.113 192.444L108.371 192.245L108.238 191.914L106.98 192.113L107.113 192.444Z" fill="#263238"/>
<path d="M104.53 196.02L102.941 196.219L103.074 196.682L104.729 196.484L104.53 196.02Z" fill="#263238"/>
<path d="M107.907 195.555L106.649 195.687L106.848 196.217L108.105 196.084L107.907 195.555Z" fill="#263238"/>
<path d="M108.833 192.576L109.164 193.503L110.422 193.304L110.025 192.378L108.833 192.576Z" fill="#263238"/>
<path d="M112.276 193.371L110.886 193.57L111.35 194.695L112.872 194.497L112.276 193.371Z" fill="#263238"/>
<path d="M110.754 193.239L112.078 193.107L111.614 192.18L110.356 192.378L110.754 193.239Z" fill="#263238"/>
<path d="M116.315 196.616L117.441 177.484L112.939 174.836L112.145 190.525L116.315 196.616Z" fill="white" stroke="#263238" stroke-width="0.662" stroke-miterlimit="10" stroke-linecap="round" stroke-linejoin="round"/>
<path d="M113.667 176.691L113.071 190.328L115.322 193.638L116.182 178.412L113.667 176.691Z" fill="#C6FF00" stroke="#263238" stroke-width="0.331" stroke-miterlimit="10" stroke-linecap="round" stroke-linejoin="round"/>
<path d="M104.4 187.614C104.4 187.614 105.129 187.283 106.055 188.011C106.982 188.739 108.902 190.328 108.637 190.725C108.372 191.123 108.041 191.123 107.578 190.659C107.115 190.196 104.4 187.614 104.4 187.614Z" fill="#FFC89F" stroke="#263238" stroke-width="0.662" stroke-miterlimit="10" stroke-linecap="round" stroke-linejoin="round"/>
<path d="M102.348 187.613C102.348 187.613 103.804 187.083 104.4 187.613C104.929 188.142 108.57 191.055 108.306 191.585C108.041 192.114 107.577 191.651 106.982 191.651C106.452 191.651 102.348 187.613 102.348 187.613Z" fill="#FFC89F" stroke="#263238" stroke-width="0.662" stroke-miterlimit="10" stroke-linecap="round" stroke-linejoin="round"/>
<path d="M94.9332 191.586C94.9332 191.586 93.9402 190.857 96.0586 189.533C98.177 188.209 100.759 187.15 101.686 187.216C102.612 187.283 106.982 191.652 106.982 191.652C106.982 191.652 107.18 192.181 106.584 192.38C106.055 192.579 102.48 189.997 101.884 189.997C101.288 189.997 99.1038 191.321 98.4418 191.453C97.846 191.652 96.3234 192.777 94.9332 191.586Z" fill="#FFC89F" stroke="#263238" stroke-width="0.662" stroke-miterlimit="10" stroke-linecap="round" stroke-linejoin="round"/>
<path d="M98.6404 190.195C98.6404 190.195 103.539 192.048 103.804 192.048C104.069 192.048 103.738 192.777 102.877 192.909C102.017 192.975 100.031 191.916 99.2362 192.247C98.508 192.644 96.9854 192.512 95.9262 192.446C94.867 192.379 94.8008 191.122 94.8008 191.122" fill="#FFC89F"/>
<path d="M98.6404 190.195C98.6404 190.195 103.539 192.048 103.804 192.048C104.069 192.048 103.738 192.777 102.877 192.909C102.017 192.975 100.031 191.916 99.2362 192.247C98.508 192.644 96.9854 192.512 95.9262 192.446C94.867 192.379 94.8008 191.122 94.8008 191.122" stroke="#263238" stroke-width="0.662" stroke-miterlimit="10" stroke-linecap="round" stroke-linejoin="round"/>
<path d="M68.9154 193.903C68.9154 193.903 64.6786 190.924 60.3756 192.248C56.1388 193.572 57.1318 199.331 60.2432 205.421C63.3546 211.512 75.8664 223.428 77.9848 224.686C80.037 226.01 82.023 224.686 83.5456 222.236C85.0682 219.787 88.5768 205.157 89.636 202.84C90.6952 200.523 91.1586 199.066 91.1586 199.066C91.1586 199.066 93.2108 198.537 94.4024 197.676C95.594 196.749 97.3814 195.359 97.3814 195.359C97.3814 195.359 102.015 193.439 102.413 193.174C102.81 192.91 102.28 192.512 101.751 192.512C101.221 192.512 98.5068 192.512 95.925 192.512C93.3432 192.512 89.967 195.359 88.8416 196.683C87.65 198.007 79.5074 212.968 79.5074 212.968L69.0478 198.603" fill="#116EB6"/>
<path d="M68.9154 193.903C68.9154 193.903 64.6786 190.924 60.3756 192.248C56.1388 193.572 57.1318 199.331 60.2432 205.421C63.3546 211.512 75.8664 223.428 77.9848 224.686C80.037 226.01 82.023 224.686 83.5456 222.236C85.0682 219.787 88.5768 205.157 89.636 202.84C90.6952 200.523 91.1586 199.066 91.1586 199.066C91.1586 199.066 93.2108 198.537 94.4024 197.676C95.594 196.749 97.3814 195.359 97.3814 195.359C97.3814 195.359 102.015 193.439 102.413 193.174C102.81 192.91 102.28 192.512 101.751 192.512C101.221 192.512 98.5068 192.512 95.925 192.512C93.3432 192.512 89.967 195.359 88.8416 196.683C87.65 198.007 79.5074 212.968 79.5074 212.968L69.0478 198.603" stroke="#263238" stroke-width="0.662" stroke-miterlimit="10" stroke-linecap="round" stroke-linejoin="round"/>
<path d="M97.3802 195.293C97.3802 195.293 102.014 193.373 102.411 193.108C102.809 192.843 102.279 192.446 101.749 192.446C101.22 192.446 98.5056 192.446 95.9238 192.446C93.342 192.446 89.9658 195.293 88.8404 196.617C88.4432 197.08 87.1854 199.199 85.729 201.714L89.5024 203.104C89.5686 202.972 89.5686 202.906 89.6348 202.84C90.694 200.523 91.1574 199.066 91.1574 199.066C91.1574 199.066 93.2096 198.537 94.4012 197.676C95.5928 196.749 97.3802 195.293 97.3802 195.293Z" fill="#FFC89F" stroke="#263238" stroke-width="0.662" stroke-miterlimit="10" stroke-linecap="round" stroke-linejoin="round"/>
<path d="M231.368 107.442H30.3848C28.7298 107.442 27.4058 106.118 27.4058 104.463V84.0076C27.4058 82.3526 28.7298 81.0286 30.3848 81.0286H231.434C233.089 81.0286 234.413 82.3526 234.413 84.0076V104.463C234.347 106.118 233.023 107.442 231.368 107.442Z" fill="white" stroke="#263238" stroke-width="0.662" stroke-miterlimit="10" stroke-linecap="round" stroke-linejoin="round"/>
<path d="M231.367 107.442H204.887V81.0286H231.367C233.022 81.0286 234.346 82.3526 234.346 84.0076V104.463C234.346 106.118 233.022 107.442 231.367 107.442Z" fill="#263238" stroke="#263238" stroke-width="0.662" stroke-miterlimit="10" stroke-linecap="round" stroke-linejoin="round"/>
<path d="M228.125 101.485L221.703 94.4678C221.637 94.4016 221.505 94.3354 221.438 94.2692C222.233 93.1438 222.696 91.8198 222.696 90.3634C222.696 86.7224 219.717 83.6772 216.01 83.6772C212.369 83.6772 209.324 86.6562 209.324 90.3634C209.324 94.0044 212.303 97.0496 216.01 97.0496C217.202 97.0496 218.261 96.7186 219.254 96.189C219.32 96.3214 219.386 96.3876 219.452 96.52L225.874 103.537C226.139 103.868 226.602 104.001 226.999 104.001C227.33 104.001 227.727 103.868 227.992 103.603C228.654 103.074 228.654 102.147 228.125 101.485ZM210.846 90.3634C210.846 87.5168 213.163 85.1998 216.01 85.1998C218.857 85.1998 221.174 87.5168 221.174 90.3634C221.174 93.21 218.857 95.527 216.01 95.527C213.163 95.527 210.846 93.21 210.846 90.3634Z" fill="white"/>
<path d="M114.657 108.104V164.374" stroke="#263238" stroke-width="0.662" stroke-miterlimit="10" stroke-linecap="round" stroke-linejoin="round"/>
<path d="M37.3048 94.0787V97.384H35.7192V89.761H37.2602V92.6755H37.3272C37.4562 92.338 37.6647 92.0737 37.9525 91.8826C38.2404 91.6891 38.6014 91.5923 39.0357 91.5923C39.4327 91.5923 39.7789 91.6792 40.0742 91.8529C40.3719 92.0241 40.6027 92.271 40.7665 92.5936C40.9327 92.9137 41.0146 93.2971 41.0121 93.7437V97.384H39.4265V94.0266C39.429 93.6743 39.3396 93.4001 39.1585 93.204C38.9798 93.008 38.7292 92.91 38.4066 92.91C38.1907 92.91 37.9997 92.9559 37.8334 93.0477C37.6696 93.1395 37.5406 93.2735 37.4463 93.4497C37.3545 93.6234 37.3073 93.8331 37.3048 94.0787ZM45.301 91.6668V92.8579H41.858V91.6668H45.301ZM42.6397 90.297H44.2253V95.6272C44.2253 95.7736 44.2476 95.8877 44.2923 95.9696C44.337 96.049 44.399 96.1048 44.4784 96.1371C44.5603 96.1694 44.6546 96.1855 44.7613 96.1855C44.8358 96.1855 44.9102 96.1793 44.9846 96.1669C45.0591 96.152 45.1162 96.1408 45.1559 96.1334L45.4052 97.3133C45.3258 97.3381 45.2142 97.3667 45.0703 97.3989C44.9263 97.4337 44.7514 97.4548 44.5454 97.4622C44.1633 97.4771 43.8283 97.4262 43.5404 97.3096C43.2551 97.193 43.033 97.0118 42.8742 96.7662C42.7153 96.5205 42.6372 96.2103 42.6397 95.8356V90.297ZM49.375 91.6668V92.8579H45.9319V91.6668H49.375ZM46.7136 90.297H48.2992V95.6272C48.2992 95.7736 48.3216 95.8877 48.3662 95.9696C48.4109 96.049 48.4729 96.1048 48.5524 96.1371C48.6342 96.1694 48.7285 96.1855 48.8352 96.1855C48.9097 96.1855 48.9841 96.1793 49.0586 96.1669C49.133 96.152 49.1901 96.1408 49.2298 96.1334L49.4792 97.3133C49.3998 97.3381 49.2881 97.3667 49.1442 97.3989C49.0003 97.4337 48.8253 97.4548 48.6194 97.4622C48.2372 97.4771 47.9022 97.4262 47.6144 97.3096C47.329 97.193 47.1069 97.0118 46.9481 96.7662C46.7893 96.5205 46.7111 96.2103 46.7136 95.8356V90.297ZM50.4079 99.528V91.6668H51.9712V92.6271H52.0419C52.1114 92.4732 52.2119 92.3169 52.3434 92.1581C52.4774 91.9968 52.6511 91.8628 52.8645 91.7561C53.0804 91.6469 53.3484 91.5923 53.6685 91.5923C54.0854 91.5923 54.47 91.7015 54.8224 91.9199C55.1747 92.1358 55.4564 92.4621 55.6673 92.8988C55.8782 93.3331 55.9837 93.8777 55.9837 94.5328C55.9837 95.1706 55.8807 95.7091 55.6747 96.1483C55.4713 96.585 55.1933 96.9163 54.841 97.1421C54.4911 97.3654 54.099 97.4771 53.6648 97.4771C53.3571 97.4771 53.0953 97.4262 52.8794 97.3245C52.666 97.2227 52.491 97.0949 52.3546 96.9411C52.2181 96.7848 52.1139 96.6272 52.0419 96.4684H51.9935V99.528H50.4079ZM51.96 94.5254C51.96 94.8654 52.0072 95.1619 52.1015 95.415C52.1957 95.6681 52.3322 95.8654 52.5109 96.0068C52.6896 96.1458 52.9067 96.2153 53.1623 96.2153C53.4203 96.2153 53.6387 96.1445 53.8174 96.0031C53.996 95.8592 54.1313 95.6607 54.2231 95.4076C54.3174 95.152 54.3645 94.8579 54.3645 94.5254C54.3645 94.1954 54.3186 93.905 54.2268 93.6544C54.135 93.4038 53.9998 93.2077 53.8211 93.0663C53.6424 92.9249 53.4228 92.8541 53.1623 92.8541C52.9042 92.8541 52.6858 92.9224 52.5072 93.0589C52.331 93.1953 52.1957 93.3889 52.1015 93.6395C52.0072 93.8901 51.96 94.1854 51.96 94.5254ZM61.7977 93.2971L60.3461 93.3864C60.3213 93.2623 60.2679 93.1507 60.186 93.0514C60.1041 92.9497 59.9962 92.869 59.8622 92.8095C59.7307 92.7474 59.5731 92.7164 59.3895 92.7164C59.1438 92.7164 58.9366 92.7685 58.7679 92.8727C58.5991 92.9745 58.5148 93.111 58.5148 93.2822C58.5148 93.4187 58.5694 93.5341 58.6786 93.6284C58.7877 93.7226 58.9751 93.7983 59.2406 93.8554L60.2754 94.0638C60.8312 94.178 61.2456 94.3616 61.5186 94.6147C61.7915 94.8678 61.928 95.2004 61.928 95.6123C61.928 95.987 61.8176 96.3158 61.5967 96.5987C61.3784 96.8815 61.0781 97.1024 60.696 97.2612C60.3163 97.4175 59.8783 97.4957 59.382 97.4957C58.6252 97.4957 58.0222 97.3381 57.5731 97.023C57.1264 96.7054 56.8646 96.2736 56.7877 95.7277L58.3473 95.6458C58.3944 95.8765 58.5086 96.0527 58.6897 96.1743C58.8709 96.2934 59.1029 96.353 59.3858 96.353C59.6637 96.353 59.887 96.2996 60.0558 96.1929C60.227 96.0838 60.3138 95.9435 60.3163 95.7723C60.3138 95.6284 60.253 95.5105 60.1339 95.4187C60.0148 95.3244 59.8312 95.2525 59.583 95.2028L58.5929 95.0056C58.0346 94.8939 57.619 94.7003 57.346 94.4249C57.0755 94.1495 56.9403 93.7983 56.9403 93.3715C56.9403 93.0043 57.0396 92.6879 57.2381 92.4224C57.4391 92.1568 57.7207 91.9521 58.083 91.8082C58.4478 91.6643 58.8746 91.5923 59.3634 91.5923C60.0855 91.5923 60.6538 91.7449 61.0682 92.0501C61.4851 92.3554 61.7283 92.771 61.7977 93.2971ZM63.8533 97.4808C63.6077 97.4808 63.3967 97.394 63.2205 97.2203C63.0468 97.0441 62.96 96.8332 62.96 96.5875C62.96 96.3443 63.0468 96.1359 63.2205 95.9622C63.3967 95.7885 63.6077 95.7016 63.8533 95.7016C64.0915 95.7016 64.3 95.7885 64.4786 95.9622C64.6573 96.1359 64.7466 96.3443 64.7466 96.5875C64.7466 96.7513 64.7045 96.9014 64.6201 97.0379C64.5382 97.1719 64.4303 97.2798 64.2963 97.3617C64.1623 97.4411 64.0146 97.4808 63.8533 97.4808ZM63.8533 93.4757C63.6077 93.4757 63.3967 93.3889 63.2205 93.2152C63.0468 93.0415 62.96 92.8306 62.96 92.5824C62.96 92.3392 63.0468 92.132 63.2205 91.9608C63.3967 91.7871 63.6077 91.7003 63.8533 91.7003C64.0915 91.7003 64.3 91.7871 64.4786 91.9608C64.6573 92.132 64.7466 92.3392 64.7466 92.5824C64.7466 92.7487 64.7045 92.9 64.6201 93.0365C64.5382 93.1705 64.4303 93.2772 64.2963 93.3566C64.1623 93.436 64.0146 93.4757 63.8533 93.4757ZM69.3687 89.4037L66.912 98.5305H65.546L68.0026 89.4037H69.3687ZM73.4528 89.4037L70.9962 98.5305H69.6301L72.0868 89.4037H73.4528ZM75.3446 97.384L73.7888 91.6668H75.393L76.2789 95.5081H76.331L77.2541 91.6668H78.8286L79.7666 95.4857H79.815L80.686 91.6668H82.2865L80.7343 97.384H79.0556L78.073 93.7884H78.0023L77.0196 97.384H75.3446ZM84.2602 97.384L82.7043 91.6668H84.3086L85.1944 95.5081H85.2466L86.1697 91.6668H87.7441L88.6821 95.4857H88.7305L89.6015 91.6668H91.2021L89.6499 97.384H87.9712L86.9885 93.7884H86.9178L85.9352 97.384H84.2602ZM93.1757 97.384L91.6199 91.6668H93.2241L94.11 95.5081H94.1621L95.0852 91.6668H96.6597L97.5977 95.4857H97.6461L98.5171 91.6668H100.118L98.5655 97.384H96.8868L95.9041 93.7884H95.8334L94.8507 97.384H93.1757ZM101.112 97.4808C100.867 97.4808 100.656 97.394 100.48 97.2203C100.306 97.0441 100.219 96.8332 100.219 96.5875C100.219 96.3443 100.306 96.1359 100.48 95.9622C100.656 95.7885 100.867 95.7016 101.112 95.7016C101.351 95.7016 101.559 95.7885 101.738 95.9622C101.916 96.1359 102.006 96.3443 102.006 96.5875C102.006 96.7513 101.964 96.9014 101.879 97.0379C101.797 97.1719 101.689 97.2798 101.555 97.3617C101.421 97.4411 101.274 97.4808 101.112 97.4808ZM105.891 97.4957C105.313 97.4957 104.813 97.3729 104.391 97.1272C103.971 96.8791 103.647 96.5341 103.419 96.0924C103.191 95.6483 103.077 95.1334 103.077 94.5477C103.077 93.9571 103.191 93.441 103.419 92.9993C103.647 92.5551 103.971 92.2102 104.391 91.9645C104.813 91.7164 105.313 91.5923 105.891 91.5923C106.469 91.5923 106.968 91.7164 107.387 91.9645C107.809 92.2102 108.134 92.5551 108.362 92.9993C108.591 93.441 108.705 93.9571 108.705 94.5477C108.705 95.1334 108.591 95.6483 108.362 96.0924C108.134 96.5341 107.809 96.8791 107.387 97.1272C106.968 97.3729 106.469 97.4957 105.891 97.4957ZM105.898 96.2674C106.161 96.2674 106.381 96.1929 106.557 96.044C106.733 95.8927 106.866 95.6867 106.955 95.4262C107.047 95.1656 107.093 94.8691 107.093 94.5366C107.093 94.204 107.047 93.9075 106.955 93.647C106.866 93.3864 106.733 93.1804 106.557 93.0291C106.381 92.8777 106.161 92.802 105.898 92.802C105.633 92.802 105.409 92.8777 105.228 93.0291C105.05 93.1804 104.914 93.3864 104.822 93.647C104.733 93.9075 104.688 94.204 104.688 94.5366C104.688 94.8691 104.733 95.1656 104.822 95.4262C104.914 95.6867 105.05 95.8927 105.228 96.044C105.409 96.1929 105.633 96.2674 105.898 96.2674ZM109.736 97.384V91.6668H111.273V92.6643H111.333C111.437 92.3095 111.612 92.0415 111.857 91.8603C112.103 91.6767 112.386 91.5849 112.706 91.5849C112.785 91.5849 112.871 91.5898 112.963 91.5998C113.055 91.6097 113.135 91.6233 113.205 91.6407V93.0477C113.13 93.0254 113.027 93.0055 112.896 92.9881C112.764 92.9708 112.644 92.9621 112.535 92.9621C112.302 92.9621 112.093 93.0129 111.909 93.1147C111.728 93.2139 111.584 93.3529 111.478 93.5316C111.373 93.7102 111.321 93.9162 111.321 94.1495V97.384H109.736ZM115.491 97.492C115.126 97.492 114.801 97.4287 114.516 97.3021C114.231 97.1731 114.005 96.9833 113.839 96.7327C113.675 96.4795 113.593 96.1644 113.593 95.7872C113.593 95.4696 113.651 95.2028 113.768 94.9869C113.884 94.7711 114.043 94.5974 114.244 94.4658C114.445 94.3343 114.674 94.2351 114.929 94.1681C115.187 94.1011 115.458 94.0539 115.741 94.0266C116.073 93.9919 116.341 93.9596 116.545 93.9298C116.748 93.8976 116.896 93.8504 116.987 93.7884C117.079 93.7264 117.125 93.6346 117.125 93.513V93.4906C117.125 93.2549 117.051 93.0725 116.902 92.9435C116.755 92.8144 116.547 92.7499 116.277 92.7499C115.991 92.7499 115.764 92.8132 115.595 92.9397C115.427 93.0638 115.315 93.2202 115.26 93.4087L113.794 93.2896C113.868 92.9422 114.015 92.642 114.233 92.3889C114.451 92.1333 114.733 91.9372 115.078 91.8008C115.425 91.6618 115.827 91.5923 116.284 91.5923C116.602 91.5923 116.906 91.6295 117.196 91.704C117.489 91.7784 117.748 91.8938 117.974 92.0501C118.202 92.2065 118.382 92.4075 118.514 92.6531C118.645 92.8963 118.711 93.1879 118.711 93.5279V97.384H117.207V96.5912H117.162C117.071 96.7699 116.948 96.9274 116.794 97.0639C116.64 97.1979 116.455 97.3034 116.239 97.3803C116.023 97.4548 115.774 97.492 115.491 97.492ZM115.945 96.3977C116.179 96.3977 116.384 96.3517 116.563 96.2599C116.742 96.1656 116.882 96.0391 116.984 95.8803C117.085 95.7215 117.136 95.5416 117.136 95.3406V94.7338C117.087 94.7661 117.018 94.7959 116.932 94.8232C116.847 94.848 116.752 94.8716 116.645 94.8939C116.538 94.9137 116.432 94.9324 116.325 94.9497C116.218 94.9646 116.121 94.9783 116.035 94.9907C115.848 95.018 115.686 95.0614 115.547 95.1209C115.408 95.1805 115.3 95.2611 115.223 95.3629C115.146 95.4621 115.108 95.5862 115.108 95.7351C115.108 95.951 115.186 96.116 115.342 96.2302C115.501 96.3418 115.702 96.3977 115.945 96.3977ZM124.698 93.2971L123.246 93.3864C123.222 93.2623 123.168 93.1507 123.086 93.0514C123.004 92.9497 122.896 92.869 122.762 92.8095C122.631 92.7474 122.473 92.7164 122.29 92.7164C122.044 92.7164 121.837 92.7685 121.668 92.8727C121.499 92.9745 121.415 93.111 121.415 93.2822C121.415 93.4187 121.47 93.5341 121.579 93.6284C121.688 93.7226 121.875 93.7983 122.141 93.8554L123.176 94.0638C123.731 94.178 124.146 94.3616 124.419 94.6147C124.692 94.8678 124.828 95.2004 124.828 95.6123C124.828 95.987 124.718 96.3158 124.497 96.5987C124.279 96.8815 123.978 97.1024 123.596 97.2612C123.217 97.4175 122.779 97.4957 122.282 97.4957C121.525 97.4957 120.922 97.3381 120.473 97.023C120.027 96.7054 119.765 96.2736 119.688 95.7277L121.248 95.6458C121.295 95.8765 121.409 96.0527 121.59 96.1743C121.771 96.2934 122.003 96.353 122.286 96.353C122.564 96.353 122.787 96.2996 122.956 96.1929C123.127 96.0838 123.214 95.9435 123.217 95.7723C123.214 95.6284 123.153 95.5105 123.034 95.4187C122.915 95.3244 122.731 95.2525 122.483 95.2028L121.493 95.0056C120.935 94.8939 120.519 94.7003 120.246 94.4249C119.976 94.1495 119.841 93.7983 119.841 93.3715C119.841 93.0043 119.94 92.6879 120.138 92.4224C120.339 92.1568 120.621 91.9521 120.983 91.8082C121.348 91.6643 121.775 91.5923 122.264 91.5923C122.986 91.5923 123.554 91.7449 123.968 92.0501C124.385 92.3554 124.628 92.771 124.698 93.2971ZM129.493 94.9497V91.6668H131.079V97.384H129.556V96.3455H129.497C129.368 96.6805 129.153 96.9498 128.853 97.1533C128.555 97.3567 128.192 97.4585 127.762 97.4585C127.38 97.4585 127.044 97.3716 126.754 97.1979C126.463 97.0242 126.236 96.7773 126.072 96.4572C125.911 96.1371 125.829 95.7537 125.827 95.3071V91.6668H127.412V95.0242C127.415 95.3616 127.505 95.6284 127.684 95.8244C127.863 96.0205 128.102 96.1185 128.402 96.1185C128.594 96.1185 128.772 96.0751 128.938 95.9882C129.105 95.8989 129.239 95.7674 129.34 95.5937C129.445 95.42 129.496 95.2053 129.493 94.9497ZM132.347 97.384V91.6668H133.884V92.6643H133.944C134.048 92.3095 134.223 92.0415 134.469 91.8603C134.714 91.6767 134.997 91.5849 135.317 91.5849C135.397 91.5849 135.482 91.5898 135.574 91.5998C135.666 91.6097 135.747 91.6233 135.816 91.6407V93.0477C135.742 93.0254 135.639 93.0055 135.507 92.9881C135.376 92.9708 135.255 92.9621 135.146 92.9621C134.913 92.9621 134.704 93.0129 134.521 93.1147C134.34 93.2139 134.196 93.3529 134.089 93.5316C133.985 93.7102 133.933 93.9162 133.933 94.1495V97.384H132.347ZM138.975 97.4957C138.387 97.4957 137.881 97.3766 137.457 97.1384C137.035 96.8977 136.71 96.5577 136.481 96.1185C136.253 95.6768 136.139 95.1544 136.139 94.5515C136.139 93.9633 136.253 93.4472 136.481 93.003C136.71 92.5588 137.031 92.2127 137.446 91.9645C137.862 91.7164 138.351 91.5923 138.912 91.5923C139.289 91.5923 139.64 91.6531 139.965 91.7747C140.293 91.8938 140.578 92.0737 140.822 92.3144C141.067 92.5551 141.258 92.8579 141.395 93.2226C141.531 93.5849 141.599 94.0093 141.599 94.4956V94.9311H136.772V93.9485H140.107C140.107 93.7202 140.057 93.5179 139.958 93.3417C139.859 93.1656 139.721 93.0278 139.545 92.9286C139.371 92.8268 139.169 92.776 138.938 92.776C138.697 92.776 138.484 92.8318 138.298 92.9435C138.114 93.0527 137.97 93.2003 137.866 93.3864C137.762 93.57 137.709 93.7748 137.706 94.0006V94.9348C137.706 95.2177 137.758 95.4621 137.862 95.6681C137.969 95.8741 138.119 96.0329 138.313 96.1445C138.506 96.2562 138.736 96.312 139.001 96.312C139.178 96.312 139.339 96.2872 139.485 96.2376C139.632 96.188 139.757 96.1135 139.861 96.0143C139.965 95.915 140.045 95.7934 140.099 95.6495L141.566 95.7463C141.492 96.0986 141.339 96.4063 141.108 96.6694C140.88 96.9299 140.585 97.1334 140.222 97.2798C139.862 97.4237 139.447 97.4957 138.975 97.4957ZM143.561 97.4808C143.315 97.4808 143.104 97.394 142.928 97.2203C142.755 97.0441 142.668 96.8332 142.668 96.5875C142.668 96.3443 142.755 96.1359 142.928 95.9622C143.104 95.7885 143.315 95.7016 143.561 95.7016C143.799 95.7016 144.008 95.7885 144.186 95.9622C144.365 96.1359 144.454 96.3443 144.454 96.5875C144.454 96.7513 144.412 96.9014 144.328 97.0379C144.246 97.1719 144.138 97.2798 144.004 97.3617C143.87 97.4411 143.722 97.4808 143.561 97.4808ZM148.339 97.4957C147.754 97.4957 147.25 97.3716 146.828 97.1235C146.409 96.8729 146.086 96.5254 145.86 96.0813C145.637 95.6371 145.525 95.1259 145.525 94.5477C145.525 93.9621 145.638 93.4484 145.864 93.0067C146.092 92.5626 146.416 92.2164 146.836 91.9683C147.255 91.7176 147.754 91.5923 148.332 91.5923C148.831 91.5923 149.267 91.6829 149.642 91.864C150.017 92.0452 150.313 92.2995 150.532 92.6271C150.75 92.9546 150.871 93.3393 150.893 93.781H149.397C149.354 93.4956 149.243 93.2661 149.062 93.0924C148.883 92.9162 148.648 92.8281 148.358 92.8281C148.112 92.8281 147.898 92.8951 147.714 93.0291C147.533 93.1606 147.392 93.3529 147.29 93.606C147.188 93.8591 147.137 94.1656 147.137 94.5254C147.137 94.8902 147.187 95.2004 147.286 95.4559C147.388 95.7115 147.53 95.9063 147.714 96.0403C147.898 96.1743 148.112 96.2413 148.358 96.2413C148.539 96.2413 148.702 96.2041 148.846 96.1297C148.992 96.0552 149.112 95.9473 149.207 95.8058C149.303 95.6619 149.367 95.4894 149.397 95.2884H150.893C150.868 95.7252 150.749 96.1098 150.536 96.4423C150.325 96.7724 150.033 97.0304 149.661 97.2165C149.289 97.4026 148.848 97.4957 148.339 97.4957ZM154.491 97.4957C153.913 97.4957 153.413 97.3729 152.991 97.1272C152.572 96.8791 152.248 96.5341 152.02 96.0924C151.791 95.6483 151.677 95.1334 151.677 94.5477C151.677 93.9571 151.791 93.441 152.02 92.9993C152.248 92.5551 152.572 92.2102 152.991 91.9645C153.413 91.7164 153.913 91.5923 154.491 91.5923C155.069 91.5923 155.568 91.7164 155.988 91.9645C156.409 92.2102 156.734 92.5551 156.963 92.9993C157.191 93.441 157.305 93.9571 157.305 94.5477C157.305 95.1334 157.191 95.6483 156.963 96.0924C156.734 96.5341 156.409 96.8791 155.988 97.1272C155.568 97.3729 155.069 97.4957 154.491 97.4957ZM154.499 96.2674C154.762 96.2674 154.981 96.1929 155.158 96.044C155.334 95.8927 155.466 95.6867 155.556 95.4262C155.648 95.1656 155.694 94.8691 155.694 94.5366C155.694 94.204 155.648 93.9075 155.556 93.647C155.466 93.3864 155.334 93.1804 155.158 93.0291C154.981 92.8777 154.762 92.802 154.499 92.802C154.233 92.802 154.01 92.8777 153.829 93.0291C153.65 93.1804 153.515 93.3864 153.423 93.647C153.334 93.9075 153.289 94.204 153.289 94.5366C153.289 94.8691 153.334 95.1656 153.423 95.4262C153.515 95.6867 153.65 95.8927 153.829 96.044C154.01 96.1929 154.233 96.2674 154.499 96.2674ZM158.336 97.384V91.6668H159.847V92.6755H159.914C160.034 92.3405 160.232 92.0762 160.51 91.8826C160.788 91.6891 161.12 91.5923 161.508 91.5923C161.9 91.5923 162.233 91.6903 162.509 91.8864C162.784 92.0799 162.968 92.343 163.06 92.6755H163.119C163.236 92.3479 163.447 92.0861 163.752 91.8901C164.06 91.6916 164.423 91.5923 164.843 91.5923C165.376 91.5923 165.809 91.7623 166.142 92.1023C166.477 92.4397 166.644 92.9187 166.644 93.539V97.384H165.062V93.8517C165.062 93.5341 164.978 93.2958 164.809 93.137C164.64 92.9782 164.429 92.8988 164.176 92.8988C163.889 92.8988 163.664 92.9906 163.503 93.1742C163.341 93.3554 163.261 93.5949 163.261 93.8926V97.384H161.723V93.8182C161.723 93.5378 161.643 93.3144 161.482 93.1482C161.323 92.9819 161.113 92.8988 160.852 92.8988C160.676 92.8988 160.517 92.9435 160.376 93.0328C160.237 93.1197 160.127 93.2425 160.045 93.4013C159.963 93.5576 159.922 93.7413 159.922 93.9522V97.384H158.336Z" fill="black"/>
</svg>
