<svg width="328" height="263" viewBox="0 0 328 263" fill="none" xmlns="http://www.w3.org/2000/svg">
<g clip-path="url(#clip0_1_7558)">
<rect width="328" height="262.951" fill="white"/>
<path d="M277.807 63.8055C263.865 51.0656 246.378 42.2918 227.749 39.0467C215.61 36.9435 202.149 36.4026 190.37 40.6092C177.871 45.1162 171.381 58.6374 157.919 61.3416C149.506 63.0243 143.076 59.1182 135.504 56.4139C127.632 53.6496 119.399 51.7266 111.046 51.4261C96.924 50.8853 82.862 55.212 72.7061 65.3078C65.1343 72.8196 60.5071 82.675 58.8244 93.1314C57.0817 104.008 56.4808 113.924 46.2648 120.534C39.5943 124.861 31.3615 125.943 24.4506 129.849C12.4318 136.7 7.74451 150.882 8.40554 164.102C9.36705 181.83 19.1624 197.935 31.9624 209.774C46.8056 223.595 66.0357 233.391 85.9869 237.057C98.9071 239.46 112.008 239.58 122.825 230.927C126.25 228.163 129.315 224.677 133.581 223.535C137.848 222.394 142.415 223.896 146.321 225.999C161.465 234.352 175.888 242.645 193.074 246.251C210.802 249.977 230.693 248.354 244.094 234.893C250.464 228.463 254.491 220.23 256.113 210.856C258.637 196.193 268.613 183.693 282.254 177.804C293.311 173.056 301.965 169.811 306.652 157.732C310.919 146.795 310.919 134.236 309.236 122.818C305.991 100.343 294.633 79.0694 277.807 63.8055Z" fill="#B8D3E9"/>
<path d="M121.683 192.165L125.649 192.946L135.504 189.16C143.076 181.348 137.908 158.152 135.504 147.034L126.25 109.776C124.868 99.0794 125.288 96.0747 118.978 93.3705C117.656 93.3705 116.875 94.5724 116.875 95.8944C116.995 132.732 114.351 128.465 113.87 153.465C113.81 158.212 114.772 163.68 116.875 168.909C119.76 176.18 122.404 184.533 121.683 192.165Z" fill="#FFC89F"/>
<path d="M116.455 98.3567C116.635 101.542 117.537 102.623 117.537 102.623C118.558 102.623 119.339 100.76 119.099 98.1163C118.859 95.4721 118.017 93.3688 117.296 93.489C116.575 93.489 116.275 95.7125 116.455 98.3567Z" fill="#E44C37"/>
<path d="M115.553 129.187C115.433 129.187 115.313 129.127 115.253 128.947C115.193 128.766 115.313 128.646 115.433 128.586C117.536 128.045 120.06 127.745 120.06 127.745C120.241 127.745 120.361 127.865 120.361 127.985C120.361 128.166 120.241 128.286 120.12 128.286C120.12 128.286 117.596 128.586 115.553 129.127C115.613 129.187 115.613 129.187 115.553 129.187Z" fill="#A65137"/>
<path d="M115.373 131.713C115.253 131.713 115.132 131.593 115.072 131.473C115.072 131.292 115.132 131.172 115.313 131.112C117.716 130.751 120.12 130.691 120.18 130.691C120.361 130.691 120.481 130.811 120.481 130.992C120.481 131.172 120.361 131.292 120.18 131.292C120.18 131.292 117.776 131.352 115.373 131.713Z" fill="#A65137"/>
<path d="M138.21 189.099C137.969 189.039 137.909 188.919 137.909 188.739C137.909 188.618 140.553 174.556 137.849 160.975C137.789 160.795 137.909 160.675 138.09 160.615C138.27 160.554 138.39 160.675 138.45 160.855C141.154 174.556 138.51 188.739 138.51 188.859C138.51 188.979 138.39 189.099 138.21 189.099Z" fill="#A65137"/>
<path d="M187.846 100.761C184.962 102.023 183.64 102.203 185.683 106.049C186.464 107.491 188.327 107.191 190.671 105.929C193.014 104.667 194.276 102.504 193.495 101.061C192.714 99.6191 190.25 99.6792 187.846 100.761Z" fill="#E44C37"/>
<path d="M168.736 107.493L173.003 117.769L188.627 110.197C191.752 108.695 193.194 105.209 191.992 102.325C191.391 100.882 189.649 100.101 188.086 100.642L168.736 107.493Z" fill="#FFC89F"/>
<path d="M172.282 129.908L177.871 136.999L188.808 128.526L184.902 119.993L172.282 129.908Z" fill="#FFC89F"/>
<path d="M187.065 166.503L178.351 176.539L173.183 171.251L181.416 162.237L187.065 166.503Z" fill="#FFC89F"/>
<path d="M189.949 150.698L178.531 159.953L173.964 153.222L184.601 145.05L189.949 150.698Z" fill="#FFC89F"/>
<path d="M176.85 143.787L174.266 174.375C172.523 179.844 168.617 184.05 163.689 186.334C163.389 186.454 163.148 186.574 162.848 186.695C158.942 188.317 156.237 191.863 155.697 196.069V196.129L154.675 204.963L152.632 223.412L151.37 234.589C149.146 231.705 141.815 228.58 132.801 226.837C132.38 226.777 131.959 226.657 131.539 226.597C126.912 225.756 122.645 225.515 119.159 225.696C115.914 225.876 113.45 226.477 112.188 227.438L112.97 224.434L118.979 202.018L123.005 186.995C123.546 185.072 123.967 183.089 124.327 181.106L132.921 135.434L176.85 143.787Z" fill="#FFC89F"/>
<path d="M141.273 179.065C141.213 179.065 141.213 179.065 141.153 179.065C140.973 179.005 140.913 178.825 140.973 178.705C141.033 178.464 149.025 157.071 162.366 145.112C162.486 144.992 162.667 144.992 162.787 145.112C162.907 145.232 162.907 145.413 162.787 145.533C149.506 157.371 141.634 178.645 141.514 178.885C141.514 179.005 141.393 179.065 141.273 179.065Z" fill="#A65137"/>
<path d="M91.0342 307.065L142.174 316.8L149.446 252.079L149.746 249.615C148.063 246.61 140.131 243.064 130.215 241.141C119.098 238.978 109.543 239.699 108.221 242.584L108.041 243.185L91.0342 307.065Z" fill="#FFC89F"/>
<path d="M107.441 241.982C107.381 242.343 107.622 242.643 107.982 242.643C108.343 242.703 108.643 242.463 108.643 242.102C108.643 242.042 108.643 241.982 108.643 241.982C108.643 241.922 108.643 241.922 108.643 241.862C111.047 239.518 119.941 239.098 130.157 241.081C139.351 242.884 146.863 246.008 149.207 248.893C149.387 249.253 149.447 249.554 149.387 249.794C149.327 250.155 149.507 250.455 149.868 250.515C149.928 250.515 149.928 250.515 149.988 250.515C150.288 250.515 150.529 250.335 150.589 250.035C150.709 249.434 150.589 248.833 150.228 248.172C150.108 247.992 150.048 247.871 149.928 247.691L151.009 238.076C151.61 237.655 151.971 237.175 152.091 236.634C152.211 235.973 151.971 235.312 151.43 234.591C149.207 231.706 141.875 228.581 132.861 226.838C123.366 225.036 115.073 225.336 112.309 227.439C111.768 227.86 111.468 228.281 111.347 228.822C111.287 229.242 111.347 229.723 111.588 230.144L109.004 239.819C108.403 240.179 107.982 240.66 107.742 241.201C107.682 241.381 107.622 241.561 107.562 241.742C107.501 241.862 107.501 241.922 107.441 241.982Z" fill="#142736"/>
<path d="M155.757 196.13C156.238 191.923 159.002 188.377 162.908 186.755C163.209 186.635 163.449 186.514 163.749 186.394C163.749 186.394 161.826 186.995 155.937 187.536C151.19 187.897 154.855 191.442 155.757 196.13Z" fill="#142736"/>
<path d="M154.795 205.023L152.751 223.472C147.103 225.455 139.711 226.597 131.658 226.657H131.358C127.091 226.657 123.065 226.356 119.339 225.755C117.176 225.395 115.072 224.974 113.209 224.493L119.219 202.078C123.005 201.477 127.091 201.117 131.418 201.117C140.492 201.057 148.845 202.559 154.795 205.023Z" fill="#142736"/>
<path d="M164.53 335.068C144.759 400.871 101.551 446.001 67.9586 435.906C34.3661 425.87 23.1285 364.334 42.8994 298.591C54.4975 259.95 74.2084 228.461 95.3014 211.034C100.289 206.947 105.337 203.642 110.385 201.178C117.596 200.698 126.67 201.419 136.346 203.402C144.158 205.024 151.309 207.308 157.138 209.892C161.405 215 164.89 221.37 167.594 228.822C177.089 255.083 176.789 294.264 164.53 335.068Z" fill="#116EB6"/>
<path d="M272.578 266.081L236.762 282.787L222.58 260.613L216.931 251.779L213.025 245.649C209.9 240.721 204.552 237.536 198.722 237.176C194.997 236.936 191.511 235.674 188.506 233.69C185.502 231.707 182.978 228.943 181.295 225.638L171.019 205.627C169.397 202.502 170.598 198.656 173.663 196.973L181.295 192.766L184.48 196.973L220.296 196.192L214.707 185.195L217.712 183.632C221.017 181.95 225.044 183.272 226.726 186.577L227.027 187.178C229.971 193.007 232.555 199.076 234.659 205.266L238.204 216.203C240.067 222.032 242.952 227.501 246.677 232.308L248.36 234.472L255.211 243.426L272.578 266.081Z" fill="#FFC89F"/>
<path d="M192.292 187.897L180.994 204.903L172.161 198.173L187.184 178.462C188.266 177.08 190.369 177.02 191.511 178.342L191.811 178.702C193.975 181.346 194.215 185.072 192.292 187.897Z" fill="#FFC89F"/>
<path d="M351.122 344.382C376.241 408.262 370.172 470.52 337.541 483.32C304.91 496.18 258.096 454.775 232.917 390.835C218.134 353.276 214.168 316.319 219.997 289.637C221.379 283.327 223.302 277.618 225.766 272.57C231.114 267.763 238.746 262.655 247.58 258.268C254.731 254.722 261.762 252.078 267.892 250.516C274.382 251.898 281.052 254.782 287.783 258.929C311.52 273.712 335.497 304.72 351.122 344.382Z" fill="#116EB6"/>
<path d="M174.565 174.134C174.385 174.134 174.265 174.014 174.265 173.834C174.265 173.293 176.668 171.009 179.012 170.408C179.192 170.348 179.313 170.469 179.373 170.589C179.433 170.769 179.313 170.889 179.192 170.949C176.969 171.55 175.046 173.473 174.866 173.834C174.805 174.074 174.685 174.134 174.565 174.134Z" fill="#A65137"/>
<path d="M177.21 175.457C177.15 175.457 177.09 175.457 177.03 175.397C176.91 175.337 176.85 175.097 176.97 174.977C177.03 174.916 178.292 172.993 179.734 172.753C179.914 172.693 180.035 172.813 180.095 172.993C180.095 173.174 180.035 173.294 179.854 173.354C178.652 173.594 177.451 175.337 177.451 175.337C177.39 175.397 177.27 175.457 177.21 175.457Z" fill="#A65137"/>
<path d="M221.859 202.804L212.004 212.238L182.858 178.646L184 177.865C187.005 175.821 190.851 175.821 193.916 177.744L202.088 183.033C204.011 184.295 205.814 185.737 207.377 187.419L221.859 202.804Z" fill="#FFC89F"/>
<path d="M227.328 200.58L218.374 206.469L204.433 185.256L205.574 184.475C209.901 181.65 215.67 182.852 218.495 187.119L227.328 200.58Z" fill="#FFC89F"/>
<path d="M194.817 215.661C193.255 218.366 188.988 218.366 188.748 214.52C188.507 210.614 187.846 202.561 187.426 201.84C189.83 206.407 192.534 211.515 194.817 215.661Z" fill="#142736"/>
<path d="M213.025 195.408C212.904 195.408 212.784 195.348 212.784 195.228C209.058 187.235 203.169 184.17 203.109 184.11C202.989 184.05 202.929 183.87 202.989 183.69C203.049 183.569 203.229 183.509 203.41 183.569C203.47 183.629 209.539 186.754 213.325 194.927C213.385 195.047 213.325 195.228 213.205 195.348C213.145 195.348 213.085 195.408 213.025 195.408Z" fill="#A65137"/>
<path d="M220.779 191.501C220.658 191.501 220.538 191.441 220.538 191.321C217.714 185.191 214.048 184.47 213.988 184.47C213.808 184.47 213.748 184.29 213.748 184.109C213.748 183.929 213.928 183.869 214.108 183.869C214.288 183.869 218.134 184.65 221.079 191.08C221.139 191.2 221.079 191.381 220.959 191.441C220.899 191.501 220.839 191.501 220.779 191.501Z" fill="#A65137"/>
<path d="M186.944 201.118C186.884 201.118 186.824 201.118 186.824 201.058C183.94 199.435 180.034 200.096 177.87 200.457C177.089 200.577 176.668 200.637 176.428 200.637C176.248 200.637 176.127 200.457 176.188 200.277C176.188 200.096 176.368 199.976 176.548 200.036C176.728 200.036 177.209 199.976 177.81 199.856C179.973 199.496 184.06 198.834 187.125 200.517C187.245 200.577 187.305 200.758 187.245 200.938C187.125 201.058 187.065 201.118 186.944 201.118Z" fill="#A65137"/>
<path d="M255.272 243.484C250.765 244.385 244.635 246.369 237.304 250.335C230.633 253.88 225.826 257.546 222.58 260.611L216.932 251.777C221.319 247.871 226.787 244.205 232.376 241.2C237.544 238.436 243.073 236.092 248.361 234.59L255.272 243.484Z" fill="#123A59"/>
<path d="M258.697 241.14L258.938 243.664C259.058 244.805 258.397 245.827 257.315 246.248L242.952 251.716C241.51 252.257 239.828 251.776 238.866 250.574L232.616 242.341C232.075 241.68 231.775 240.839 231.715 239.938L231.595 237.354L234.239 238.375L250.284 232.486L257.435 241.981L258.697 241.14Z" fill="#136BB0"/>
<path d="M238.927 247.571L231.836 238.136C231.114 237.235 231.535 235.852 232.617 235.492L248.001 229.843C249.203 229.422 250.525 229.783 251.306 230.805L258.397 240.239C259.118 241.141 258.698 242.523 257.616 242.883L242.232 248.532C241.03 249.013 239.648 248.592 238.927 247.571Z" fill="#142736"/>
<path d="M251.005 241.143C251.546 241.203 252.087 241.143 252.507 240.902C253.829 240.301 254.13 238.859 253.228 237.657C252.688 236.936 251.786 236.516 250.945 236.395C251.245 235.734 251.125 234.953 250.584 234.232C249.683 233.03 247.88 232.549 246.558 233.15C246.077 233.391 245.777 233.691 245.536 234.052L245.416 234.412C245.416 234.472 245.356 234.532 245.356 234.653L244.154 239.58L250.344 241.083C250.404 241.083 250.464 241.143 250.584 241.143H251.005Z" fill="#EB5757"/>
<path d="M60.5067 125.881C59.8456 125.881 59.3048 125.52 58.8841 125.22C58.3433 124.859 58.0428 124.679 57.6823 124.799C57.3818 124.919 57.0212 124.799 56.901 124.499C56.7808 124.198 56.901 123.838 57.2015 123.718C58.163 123.297 58.9442 123.838 59.5452 124.198C60.086 124.559 60.3865 124.739 60.7471 124.619C61.0475 124.499 61.1677 124.198 61.2879 123.477C61.4081 122.816 61.5884 121.855 62.5499 121.494C63.5114 121.073 64.2926 121.614 64.8935 121.975C65.4344 122.335 65.7349 122.516 66.0954 122.396C66.456 122.275 66.5161 121.975 66.6363 121.254C66.7565 120.593 66.9367 119.631 67.8982 119.271C68.8597 118.85 69.641 119.391 70.2419 119.751C70.7828 120.112 71.0832 120.292 71.4438 120.172C71.8044 120.052 71.8645 119.751 71.9846 119.03C72.1048 118.369 72.2851 117.408 73.2466 117.047C73.5471 116.927 73.9076 117.047 74.0278 117.348C74.148 117.648 74.0278 118.009 73.7274 118.129C73.3668 118.249 73.3067 118.55 73.1865 119.271C73.0663 119.932 72.886 120.893 71.9245 121.254C70.963 121.674 70.1818 121.134 69.5809 120.773C69.04 120.412 68.7396 120.232 68.379 120.352C68.0184 120.473 67.9583 120.773 67.8381 121.494C67.718 122.155 67.5377 123.117 66.5762 123.477C65.6147 123.898 64.8334 123.357 64.2325 122.996C63.6917 122.636 63.3912 122.456 63.0306 122.576C62.7302 122.696 62.61 122.996 62.4898 123.718C62.3696 124.379 62.1893 125.34 61.2278 125.701C60.9874 125.821 60.7471 125.881 60.5067 125.881Z" fill="#B4CFF7"/>
<path d="M308.035 213.738C307.914 213.738 307.734 213.678 307.614 213.558C307.374 213.318 307.374 212.957 307.554 212.717C308.275 211.935 309.176 212.116 309.897 212.176C310.559 212.296 310.919 212.296 311.159 212.056C311.4 211.815 311.34 211.455 311.159 210.794C310.979 210.133 310.739 209.231 311.46 208.45C312.181 207.669 313.082 207.849 313.804 207.909C314.465 208.029 314.825 208.029 315.066 207.789C315.306 207.549 315.246 207.188 315.066 206.527C314.885 205.866 314.645 204.965 315.366 204.183C316.087 203.402 316.989 203.582 317.71 203.642C318.371 203.763 318.731 203.763 318.972 203.522C319.212 203.282 319.152 202.921 318.972 202.26C318.791 201.599 318.551 200.698 319.272 199.917C319.512 199.676 319.873 199.676 320.113 199.857C320.354 200.097 320.354 200.457 320.174 200.698C319.933 200.938 319.993 201.299 320.174 201.96C320.354 202.621 320.594 203.522 319.873 204.304C319.152 205.085 318.251 204.904 317.529 204.844C316.868 204.724 316.508 204.724 316.267 204.965C316.027 205.205 316.087 205.565 316.267 206.227C316.448 206.888 316.688 207.789 315.967 208.57C315.246 209.351 314.344 209.171 313.623 209.111C312.962 208.991 312.602 208.991 312.361 209.231C312.121 209.472 312.181 209.832 312.361 210.493C312.542 211.154 312.782 212.056 312.061 212.837C311.34 213.618 310.438 213.438 309.717 213.378C309.056 213.257 308.696 213.258 308.455 213.498C308.335 213.678 308.215 213.738 308.035 213.738Z" fill="#B4CFF7"/>
<path d="M42.5999 239.277C42.3595 239.277 42.1792 239.156 42.059 238.976C41.6383 238.195 41.9989 237.474 42.2393 236.933C42.4797 236.452 42.5999 236.272 42.4797 236.031C42.3595 235.791 42.1191 235.791 41.6384 235.731C41.0374 235.671 40.2562 235.611 39.8355 234.83C39.4149 234.048 39.7754 233.327 40.0158 232.786C40.2562 232.306 40.3764 232.125 40.2562 231.885C40.136 231.645 39.8956 231.645 39.4149 231.585C38.8139 231.524 38.0327 231.464 37.612 230.683C37.4318 230.383 37.552 230.022 37.8524 229.842C38.1529 229.662 38.5135 229.782 38.6937 230.082C38.8139 230.323 39.0543 230.323 39.5351 230.383C40.136 230.443 40.9172 230.503 41.3379 231.284C41.7585 232.065 41.398 232.786 41.1576 233.327C40.9172 233.808 40.797 233.988 40.9172 234.229C41.0374 234.469 41.2778 234.469 41.7585 234.529C42.3595 234.589 43.1407 234.649 43.5614 235.431C43.982 236.212 43.6214 236.933 43.3811 237.474C43.1407 237.954 43.0205 238.135 43.1407 238.375C43.321 238.676 43.2008 239.036 42.9003 239.216C42.7801 239.216 42.72 239.277 42.5999 239.277Z" fill="#B4CFF7"/>
<path d="M324.141 146.493C323.84 146.493 323.54 146.252 323.54 145.892C323.54 145.651 323.359 145.531 322.939 145.231C322.458 144.93 321.737 144.51 321.737 143.548C321.737 142.587 322.398 142.166 322.879 141.866C323.299 141.565 323.48 141.445 323.48 141.205C323.48 140.964 323.299 140.844 322.879 140.544C322.398 140.243 321.677 139.822 321.677 138.861C321.677 137.959 322.338 137.479 322.819 137.178C323.239 136.878 323.419 136.758 323.419 136.517C323.419 136.157 323.66 135.916 324.02 135.916C324.321 135.916 324.621 136.157 324.621 136.517C324.621 137.419 323.96 137.899 323.48 138.2C323.059 138.5 322.879 138.62 322.879 138.861C322.879 139.101 323.059 139.221 323.48 139.522C323.96 139.822 324.681 140.243 324.681 141.205C324.681 142.106 324.02 142.587 323.54 142.887C323.119 143.188 322.939 143.308 322.939 143.548C322.939 143.789 323.119 143.909 323.54 144.209C324.02 144.51 324.681 144.93 324.742 145.892C324.742 146.192 324.441 146.433 324.141 146.493Z" fill="#B4CFF7"/>
<path d="M206.895 170.65C206.414 170.65 205.934 170.41 205.573 170.23C205.092 169.989 204.912 169.869 204.672 169.989C204.371 170.17 204.011 170.049 203.89 169.749C203.71 169.448 203.83 169.088 204.131 168.968C204.912 168.547 205.633 168.968 206.174 169.208C206.655 169.449 206.835 169.569 207.075 169.448C207.316 169.328 207.316 169.088 207.376 168.607C207.436 168.006 207.496 167.225 208.337 166.804C209.119 166.384 209.84 166.804 210.381 167.045C210.861 167.285 211.042 167.405 211.282 167.285C211.522 167.165 211.522 166.925 211.582 166.444C211.643 165.843 211.703 165.062 212.544 164.641C212.844 164.461 213.205 164.581 213.325 164.881C213.505 165.182 213.385 165.542 213.085 165.663C212.844 165.783 212.844 166.023 212.784 166.504C212.724 167.105 212.664 167.886 211.823 168.307C211.042 168.727 210.32 168.307 209.78 168.066C209.299 167.826 209.119 167.706 208.878 167.826C208.638 167.946 208.638 168.187 208.578 168.667C208.518 169.268 208.458 170.049 207.616 170.47C207.316 170.59 207.075 170.65 206.895 170.65Z" fill="#B4CFF7"/>
<path d="M300.463 68.13C300.282 68.13 300.102 68.0699 299.862 68.0098C299.02 67.6493 298.84 66.868 298.72 66.3272C298.6 65.7863 298.54 65.6061 298.299 65.4859C298.059 65.4258 297.879 65.4859 297.458 65.7864C296.977 66.1469 296.316 66.5676 295.475 66.2671C294.634 65.9065 294.453 65.1253 294.333 64.5845C294.213 64.0436 294.153 63.8633 293.912 63.7432C293.612 63.623 293.432 63.2624 293.552 62.9619C293.672 62.6615 294.033 62.4812 294.333 62.6014C295.174 62.9619 295.355 63.7432 295.475 64.284C295.595 64.8248 295.655 65.0051 295.895 65.1253C296.136 65.1854 296.316 65.1253 296.737 64.8248C297.218 64.4643 297.879 64.0436 298.72 64.3441C299.561 64.7047 299.741 65.4859 299.862 66.0267C299.982 66.5676 300.042 66.7479 300.282 66.868C300.523 66.9882 300.703 66.868 301.124 66.5676C301.604 66.207 302.265 65.7864 303.107 66.0868C303.407 66.207 303.588 66.5676 303.467 66.868C303.347 67.1685 302.987 67.3488 302.686 67.2286C302.446 67.1685 302.265 67.2286 301.845 67.5291C301.484 67.7695 301.064 68.13 300.463 68.13Z" fill="#B4CFF7"/>
<path d="M107.681 70.7767C107.501 70.7767 107.321 70.7167 107.08 70.6566C106.239 70.296 106.059 69.5148 105.939 68.9739C105.818 68.4331 105.758 68.2528 105.518 68.1326C105.278 68.0725 105.097 68.1326 104.677 68.4331C104.196 68.7936 103.535 69.2143 102.694 68.9138C101.852 68.5533 101.672 67.772 101.552 67.2312C101.432 66.6904 101.372 66.5101 101.131 66.3899C100.831 66.2697 100.65 65.9091 100.771 65.6087C100.891 65.3082 101.251 65.1279 101.552 65.2481C102.393 65.6087 102.573 66.3899 102.694 66.9307C102.814 67.4716 102.874 67.6519 103.114 67.772C103.355 67.8321 103.535 67.772 103.956 67.4716C104.436 67.111 105.097 66.6904 105.939 66.9908C106.78 67.3514 106.96 68.1326 107.08 68.6735C107.201 69.2143 107.261 69.3946 107.501 69.5148C107.741 69.5749 107.922 69.5148 108.342 69.2143C108.823 68.8537 109.484 68.4331 110.326 68.7335C110.626 68.8537 110.806 69.2143 110.686 69.5148C110.566 69.8152 110.205 69.9955 109.905 69.8753C109.664 69.7551 109.484 69.8753 109.064 70.1758C108.703 70.4763 108.282 70.7767 107.681 70.7767Z" fill="#B4CFF7"/>
<path d="M85.9862 193.728H85.9261C85.6256 193.668 85.3853 193.367 85.3853 193.067C85.5054 192.165 86.2266 191.805 86.7674 191.564C87.2482 191.324 87.4285 191.204 87.4885 190.964C87.5486 190.723 87.3684 190.543 86.9477 190.242C86.527 189.882 85.866 189.341 85.9862 188.44C86.1064 187.538 86.8275 187.178 87.3683 186.937C87.8491 186.697 88.0294 186.577 88.0895 186.336C88.1496 186.096 87.9693 185.916 87.5486 185.615C87.128 185.255 86.527 184.714 86.5871 183.812C86.6472 183.512 86.9477 183.271 87.2482 183.271C87.5486 183.332 87.789 183.632 87.789 183.933C87.7289 184.173 87.9092 184.353 88.3299 184.714C88.7505 185.074 89.3515 185.615 89.2313 186.517C89.1111 187.418 88.3899 187.779 87.8491 188.019C87.3684 188.259 87.1881 188.379 87.128 188.62C87.0679 188.86 87.2482 189.041 87.6688 189.341C88.0895 189.702 88.6904 190.242 88.6303 191.144C88.5101 192.045 87.789 192.406 87.2482 192.646C86.7674 192.887 86.5871 193.007 86.527 193.247C86.527 193.487 86.2867 193.728 85.9862 193.728Z" fill="#B4CFF7"/>
<path d="M18.8028 116.807C18.6826 116.807 18.5024 116.807 18.3221 116.747C17.4207 116.506 17.2404 115.725 17.0601 115.124C16.8798 114.644 16.8197 114.403 16.5794 114.343C16.339 114.283 16.1587 114.403 15.738 114.764C15.2573 115.124 14.6564 115.665 13.815 115.365C12.9136 115.124 12.7333 114.343 12.5531 113.742C12.3728 113.261 12.3127 113.021 12.0723 112.961C11.7718 112.841 11.5916 112.54 11.6517 112.24C11.7718 111.939 12.0723 111.759 12.3728 111.819C13.2742 112.06 13.4545 112.841 13.6348 113.442C13.815 113.922 13.8751 114.163 14.1155 114.223C14.3559 114.283 14.5362 114.163 14.9568 113.802C15.4376 113.442 16.0385 112.901 16.8798 113.201C17.7812 113.442 17.9615 114.223 18.1418 114.824C18.3221 115.305 18.3822 115.545 18.6226 115.605C18.8629 115.665 19.0432 115.545 19.4639 115.184C19.9446 114.824 20.5456 114.283 21.3869 114.583C21.6874 114.704 21.8676 115.004 21.8075 115.305C21.6874 115.605 21.3869 115.785 21.0864 115.725C20.846 115.665 20.6658 115.785 20.2451 116.146C19.9446 116.386 19.4639 116.807 18.8028 116.807Z" fill="#B4CFF7"/>
<path d="M270.234 230.805C269.393 230.805 268.912 230.204 268.612 229.723C268.311 229.302 268.131 229.122 267.89 229.122C267.53 229.122 267.29 228.882 267.29 228.521C267.29 228.161 267.53 227.92 267.89 227.92C268.792 227.86 269.273 228.521 269.633 229.002C269.934 229.423 270.114 229.603 270.354 229.603C270.595 229.603 270.715 229.423 271.015 228.942C271.316 228.461 271.737 227.74 272.638 227.68C273.539 227.62 274.02 228.281 274.381 228.762C274.681 229.182 274.861 229.362 275.102 229.362C275.342 229.362 275.462 229.182 275.763 228.701C276.063 228.221 276.484 227.5 277.385 227.439C277.746 227.439 277.986 227.68 277.986 228.04C277.986 228.401 277.746 228.641 277.385 228.641C277.145 228.641 277.025 228.822 276.724 229.302C276.424 229.783 276.003 230.504 275.102 230.564C274.2 230.624 273.72 229.963 273.359 229.483C273.059 229.062 272.878 228.882 272.638 228.882C272.398 228.882 272.277 229.062 271.977 229.543C271.676 230.023 271.256 230.745 270.354 230.805C270.294 230.805 270.294 230.805 270.234 230.805Z" fill="#B4CFF7"/>
<path d="M102.753 119.99C102.753 120.712 102.152 121.312 101.431 121.312C100.71 121.312 100.109 120.712 100.109 119.99C100.109 119.269 100.71 118.668 101.431 118.668C102.152 118.668 102.753 119.269 102.753 119.99Z" fill="white"/>
<path d="M29.1368 62.9631C29.1368 63.6842 28.5359 64.2851 27.8147 64.2851C27.0936 64.2851 26.4927 63.6842 26.4927 62.9631C26.4927 62.2419 27.0936 61.641 27.8147 61.641C28.5359 61.641 29.1368 62.2419 29.1368 62.9631Z" fill="#CFDFF7"/>
<path d="M47.1659 53.1667C47.1659 54.9695 45.7237 56.4118 43.9209 56.4118C42.118 56.4118 40.6758 54.9695 40.6758 53.1667C40.6758 51.3639 42.118 49.9216 43.9209 49.9216C45.6636 49.9216 47.1659 51.3639 47.1659 53.1667Z" fill="#CFDFF7"/>
<path d="M237.484 97.9957C237.484 98.7168 236.883 99.3177 236.162 99.3177C235.441 99.3177 234.84 98.7168 234.84 97.9957C234.84 97.2745 235.441 96.6736 236.162 96.6736C236.883 96.6736 237.484 97.2745 237.484 97.9957Z" fill="white"/>
<path d="M192.955 59.2369C192.955 59.958 192.354 60.5589 191.633 60.5589C190.911 60.5589 190.311 59.958 190.311 59.2369C190.311 58.5157 190.911 57.9148 191.633 57.9148C192.354 57.9148 192.955 58.5157 192.955 59.2369Z" fill="white"/>
<path d="M102.753 180.205C102.753 180.926 102.152 181.527 101.431 181.527C100.71 181.527 100.109 180.926 100.109 180.205C100.109 179.484 100.71 178.883 101.431 178.883C102.152 178.883 102.753 179.424 102.753 180.205Z" fill="white"/>
<path d="M295.414 200.816C295.414 202.679 293.912 204.241 291.989 204.241C290.126 204.241 288.563 202.739 288.563 200.816C288.563 198.953 290.066 197.391 291.989 197.391C293.912 197.391 295.414 198.953 295.414 200.816Z" fill="#CFDFF7"/>
<path d="M14.2945 220.467C14.2945 222.09 12.9724 223.412 11.3499 223.412C9.72734 223.412 8.40527 222.09 8.40527 220.467C8.40527 218.845 9.72734 217.522 11.3499 217.522C12.9724 217.583 14.2945 218.845 14.2945 220.467Z" fill="#CFDFF7"/>
<path d="M21.3255 250.213C22.0556 250.213 22.6476 249.621 22.6476 248.891C22.6476 248.161 22.0556 247.569 21.3255 247.569C20.5953 247.569 20.0034 248.161 20.0034 248.891C20.0034 249.621 20.5953 250.213 21.3255 250.213Z" fill="#CFDFF7"/>
<path d="M265.727 145.351C265.727 146.072 265.126 146.673 264.405 146.673C263.683 146.673 263.083 146.072 263.083 145.351C263.083 144.63 263.683 144.029 264.405 144.029C265.126 144.029 265.727 144.57 265.727 145.351Z" fill="white"/>
<path d="M311.46 77.384C311.46 78.1051 310.859 78.706 310.137 78.706C309.416 78.706 308.815 78.1051 308.815 77.384C308.815 76.6628 309.416 76.0619 310.137 76.0619C310.859 76.0619 311.46 76.6628 311.46 77.384Z" fill="#CFDFF7"/>
<path d="M49.8102 206.769C49.8102 207.49 49.2092 208.091 48.4881 208.091C47.767 208.091 47.166 207.49 47.166 206.769C47.166 206.047 47.767 205.447 48.4881 205.447C49.2092 205.447 49.8102 206.047 49.8102 206.769Z" fill="white"/>
<path d="M79.9778 210.314C79.9778 210.674 79.6774 210.975 79.3168 210.975C78.9562 210.975 78.6558 210.674 78.6558 210.314C78.6558 209.953 78.9562 209.653 79.3168 209.653C79.6774 209.653 79.9778 209.953 79.9778 210.314Z" fill="white"/>
<path d="M299.922 231.225C299.922 231.586 299.621 231.886 299.261 231.886C298.9 231.886 298.6 231.586 298.6 231.225C298.6 230.865 298.9 230.564 299.261 230.564C299.621 230.564 299.922 230.865 299.922 231.225Z" fill="#CFDFF7"/>
<path d="M280.931 49.9206C280.931 50.2811 280.631 50.5816 280.27 50.5816C279.91 50.5816 279.609 50.2811 279.609 49.9206C279.609 49.56 279.91 49.2595 280.27 49.2595C280.631 49.2595 280.931 49.4999 280.931 49.9206Z" fill="#CFDFF7"/>
<path d="M146.081 56.8322C146.081 57.1927 145.78 57.4932 145.42 57.4932C145.059 57.4932 144.759 57.1927 144.759 56.8322C144.759 56.4716 145.059 56.1711 145.42 56.1711C145.78 56.1711 146.081 56.4716 146.081 56.8322Z" fill="#CFDFF7"/>
<path d="M269.634 215.3C269.634 215.66 269.334 215.961 268.973 215.961C268.612 215.961 268.312 215.66 268.312 215.3C268.312 214.939 268.612 214.639 268.973 214.639C269.334 214.578 269.634 214.879 269.634 215.3Z" fill="#CFDFF7"/>
<path d="M300.582 122.335C300.582 122.695 300.281 122.996 299.921 122.996C299.56 122.996 299.26 122.695 299.26 122.335C299.26 121.974 299.56 121.674 299.921 121.674C300.281 121.674 300.582 121.974 300.582 122.335Z" fill="white"/>
<path d="M85.5673 141.086C85.9324 141.086 86.2283 140.79 86.2283 140.425C86.2283 140.06 85.9324 139.764 85.5673 139.764C85.2022 139.764 84.9062 140.06 84.9062 140.425C84.9062 140.79 85.2022 141.086 85.5673 141.086Z" fill="white"/>
<path d="M201.669 97.458C201.669 97.8186 201.369 98.1191 201.008 98.1191C200.648 98.1191 200.347 97.8186 200.347 97.458C200.347 97.0975 200.648 96.797 201.008 96.797C201.369 96.797 201.669 97.0975 201.669 97.458Z" fill="white"/>
<path d="M68.6199 139.7C68.6199 140.061 68.3195 140.361 67.9589 140.361C67.5983 140.361 67.2979 140.061 67.2979 139.7C67.2979 139.34 67.5983 139.039 67.9589 139.039C68.3195 139.039 68.6199 139.34 68.6199 139.7Z" fill="white"/>
<path d="M241.57 239.758L241.149 239.938L241.089 239.878C240.788 239.578 240.488 239.338 240.127 239.217C239.767 239.097 239.346 239.157 238.925 239.277C239.286 239.338 239.586 239.518 239.827 239.818C240.067 240.119 240.127 240.359 240.067 240.66C239.947 240.96 239.767 241.14 239.406 241.321C239.046 241.501 238.625 241.561 238.264 241.441C237.904 241.381 237.543 241.14 237.303 240.84C237.062 240.539 237.002 240.179 237.123 239.878C237.243 239.578 237.543 239.277 237.964 239.097L238.144 239.037C238.865 238.737 239.466 238.616 240.067 238.737C240.668 238.857 241.149 239.157 241.57 239.638V239.758ZM239.406 239.938C239.286 239.818 239.106 239.698 238.925 239.578C238.745 239.518 238.565 239.458 238.324 239.458L238.144 239.518C237.844 239.638 237.603 239.818 237.543 240.059C237.423 240.239 237.483 240.479 237.603 240.66C237.784 240.84 237.964 240.96 238.204 241.02C238.445 241.08 238.685 241.02 238.986 240.9C239.226 240.78 239.406 240.66 239.466 240.479C239.586 240.299 239.586 240.119 239.406 239.938Z" fill="white"/>
<path d="M239.706 243.787L239.346 243.366L242.531 241.984L241.509 241.263L241.93 241.083L243.432 242.044L243.492 242.104L239.706 243.787Z" fill="white"/>
<path d="M179.613 178.522H130.276C128.278 178.522 126.67 176.914 126.67 174.917V73.1775C126.67 71.18 128.278 69.5718 130.276 69.5718H179.613C181.61 69.5718 183.219 71.18 183.219 73.1775V174.917C183.219 176.914 181.61 178.522 179.613 178.522Z" fill="#222222" stroke="black" stroke-width="0.60094"/>
<path d="M126.13 95.1121H126.43C126.731 95.1121 126.971 94.8718 126.971 94.5713V86.8192C126.971 86.5187 126.731 86.2783 126.43 86.2783H126.13C125.829 86.2783 125.589 86.5187 125.589 86.8192V94.6314C125.649 94.8718 125.889 95.1121 126.13 95.1121Z" fill="black"/>
<path d="M126.13 104.488H126.43C126.731 104.488 126.971 104.248 126.971 103.948V96.1954C126.971 95.8949 126.731 95.6545 126.43 95.6545H126.13C125.829 95.6545 125.589 95.8949 125.589 96.1954V103.948C125.649 104.248 125.889 104.488 126.13 104.488Z" fill="black"/>
<path d="M183.338 94.7534H183.639C183.939 94.7534 184.18 94.5131 184.18 94.2126V87.1816C184.18 86.8811 183.939 86.6407 183.639 86.6407H183.338C183.038 86.6407 182.797 86.8811 182.797 87.1816V94.2126C182.797 94.5131 183.038 94.7534 183.338 94.7534Z" fill="black"/>
<path d="M132.739 175.458H176.728C178.711 175.458 180.274 173.835 180.274 171.912V75.8222C180.274 73.8391 178.651 72.2766 176.728 72.2766H132.739C130.756 72.2766 129.194 73.8992 129.194 75.8222V171.912C129.194 173.896 130.816 175.458 132.739 175.458Z" fill="white"/>
<path d="M129.194 159.411H180.274V172.632C180.274 174.292 178.929 175.637 177.269 175.637H132.199C130.539 175.637 129.194 174.292 129.194 172.632V159.411Z" fill="#116EB6"/>
<path d="M133.01 159.413H178.756C179.701 156.38 176.369 139.971 176.469 130.871C176.618 114.711 179.402 96.5121 176.916 90.7441C175.971 88.606 164.783 85.5231 155.883 85.5231C146.982 85.5231 135.794 88.606 134.85 90.7441C132.363 96.5121 135.148 114.711 135.297 130.871C135.396 139.971 132.065 156.38 133.01 159.413Z" fill="#67A0AB"/>
<path d="M163.041 88.859L161.251 81.4501C161.251 81.4501 158.218 82.3451 156.03 82.3451C153.793 82.3451 150.809 81.4501 150.809 81.4501L149.019 88.859C149.019 88.859 152.301 93.1849 156.03 93.1849C159.809 93.2347 163.041 88.859 163.041 88.859Z" fill="#FFC4A8"/>
<path d="M133.705 135.498C133.705 139.228 133.655 145.841 132.511 153.548C132.213 155.388 131.965 157.377 131.716 159.416H154.44L154.639 153.25C154.639 153.25 154.838 140.371 154.589 135.101C154.49 132.963 152.898 117.399 150.611 110.04C147.478 99.9955 150.313 89.5037 148.622 85.8241C143.152 85.1777 133.009 89.5037 131.666 92.5369C130.97 94.1778 131.368 108.25 132.511 113.719C134.65 124.161 133.705 136.94 133.705 135.498Z" fill="#E6F0F0"/>
<path d="M142.953 87.6637C137.981 87.8626 133.655 89.0063 130.771 93.6306C127.887 98.2549 126.693 108.647 126.395 113.57C126.097 118.493 124.108 123.664 123.163 127.145C121.621 133.161 127.688 141.614 133.605 141.366C137.583 141.217 145.539 87.5643 142.953 87.6637Z" fill="#E6F0F0"/>
<path d="M135.793 99.7473C135.793 99.7473 137.136 104.571 137.285 107.057C137.434 109.543 136.44 128.786 136.44 128.786" stroke="#D0D2D4" stroke-width="0.497241" stroke-miterlimit="10"/>
<path d="M155.533 136.693C155.335 129.732 150.064 103.974 149.268 91.8915C149.02 87.8639 150.312 84.9301 149.964 84.8307C149.964 84.8307 142.058 87.8141 141.163 89.9523C140.517 91.5434 144.246 100.593 144.246 100.593C144.246 100.593 141.312 104.124 141.163 105.665C141.014 107.207 148.323 124.262 149.218 126.897C150.163 129.732 153.147 141.466 154.589 155.389C154.589 155.439 155.782 146.19 155.533 136.693Z" fill="#D0D2D4"/>
<path d="M120.18 122.617L127.738 144.645L148.721 141.761L142.456 119.534L120.18 122.617Z" fill="#B87E2C"/>
<path d="M125.699 121.774L126.445 124.011L137.683 122.321L137.086 119.934H134.451C134.451 119.934 134.301 118.741 130.97 119.089C127.887 119.387 127.788 121.127 127.788 121.127L125.699 121.774Z" fill="#1E3142"/>
<path d="M121.92 128.092L122.666 129.435C122.666 129.435 126.097 129.733 127.191 129.584C128.931 129.435 128.931 131.125 128.335 131.622C128.335 131.622 130.672 131.125 131.417 132.12C132.163 133.164 131.268 133.81 131.268 133.81C131.268 133.81 132.312 134.308 132.312 135.004C132.312 135.7 131.865 136.694 131.865 136.694C131.865 136.694 133.009 136.893 132.561 137.987C132.163 139.081 128.384 142.512 125.451 140.971C122.517 139.429 121.97 136.893 121.97 135.153C121.97 134.407 121.174 132.12 121.075 131.075C120.926 129.832 121.274 128.589 121.92 128.092Z" fill="#FFC4A8"/>
<path d="M123.362 132.519C123.362 132.519 126.146 132.867 127.738 132.022" stroke="#DC8C7A" stroke-width="0.497241" stroke-miterlimit="10"/>
<path d="M123.362 135.599C123.362 135.599 127.738 136.295 130.373 134.555" stroke="#DC8C7A" stroke-width="0.497241" stroke-miterlimit="10"/>
<path d="M124.107 138.682C124.107 138.682 129.328 139.179 131.815 136.792" stroke="#DC8C7A" stroke-width="0.497241" stroke-miterlimit="10"/>
<path d="M157.275 159.415H179.999C179.75 157.377 179.452 155.388 179.203 153.548C178.059 145.841 178.01 139.227 178.01 135.498C178.01 136.89 177.015 124.161 179.203 113.769C180.347 108.249 180.744 94.1774 180.048 92.5862C178.706 89.553 168.562 85.227 163.092 85.8735C161.402 89.553 164.236 99.9951 161.103 110.089C158.816 117.448 157.225 133.012 157.126 135.15C156.877 140.371 157.076 153.299 157.076 153.299L157.275 159.415Z" fill="#E6F0F0"/>
<path d="M194.387 63.902C194.387 63.902 191.046 73.9762 190.182 76.6957C189.474 78.983 188.71 84.0763 188.71 84.0763C188.71 84.0763 185.689 86.0946 180.156 88.3019C177.51 89.3623 172.415 90.121 169.842 91.3076C167.27 92.4941 164.776 93.9167 164.502 95.947C164.27 97.9517 166.859 102.697 168.884 105.174C170.91 107.651 174.14 109.696 177.568 109.077C180.996 108.458 188.881 100.782 191.222 98.9971C193.971 96.9133 199.841 89.9795 199.841 89.9795C199.841 89.9795 203.785 66.9288 202.686 65.5432C202.183 64.8796 200.501 64.2929 198.725 64.045C196.93 63.8649 194.387 63.902 194.387 63.902Z" fill="#E6F0F0"/>
<path d="M194.727 63.6421C194.727 63.6421 193.597 64.495 193.963 65.9094C194.328 67.3238 196.243 68.8444 198.386 68.832C201.165 68.8506 202.014 66.8822 202.014 66.8822L201.972 63.6291L194.727 63.6421Z" fill="#67A0AB"/>
<path d="M193.602 62.6794C193.303 60.7015 193.513 59.3704 193.713 57.5722C193.914 55.774 194.576 53.8275 194.645 52.6551C194.782 50.3103 196.09 47.8482 197.504 45.903C198.098 45.129 199.79 45.7678 199.557 46.7014C199.293 47.953 198.878 48.8963 198.447 50.0879C198.046 51.1405 197.893 52.3724 197.909 53.4854C198.315 53.2575 199.183 52.8814 199.853 52.7633C200.55 52.685 201.349 53.4812 201.349 53.4812C201.349 53.4812 201.966 53.1047 202.465 53.2844C202.937 53.4243 203.775 54.5486 203.775 54.5486C203.775 54.5486 204.333 54.4501 205.053 54.7693C205.774 55.0885 206.089 56.818 205.968 57.732C205.847 58.646 205.865 60.7625 204.41 61.3761C203.907 61.5541 203.418 61.6626 202.916 61.6618C202.559 65.0496 200.989 67.223 197.84 67.3767C194.705 67.4608 193.936 65.1641 193.602 62.6794Z" fill="#FFC4A8"/>
<path d="M195.614 58.7288C195.614 58.7288 196.365 57.1985 197.551 56.4792C199.14 55.5332 200.223 55.2979 200.281 56.3751C200.311 57.4127 199.092 58.626 199.077 60.0489C199.019 61.5014 197.748 62.4577 197.748 62.4577" stroke="#DC8C7A" stroke-width="0.497241" stroke-miterlimit="10"/>
<path d="M201.424 53.7543C201.424 53.7543 203.203 57.1503 201.531 59.1555C200.504 60.4694 199.324 59.3001 199.324 59.3001" stroke="#DC8C7A" stroke-width="0.497241" stroke-miterlimit="10"/>
<path d="M203.869 54.836C203.869 54.836 205.058 58.454 203.118 60.2341C201.876 61.4045 200.924 60.0235 200.924 60.0235" stroke="#DC8C7A" stroke-width="0.497241" stroke-miterlimit="10"/>
<path d="M202.623 60.8767C202.623 60.8767 203.054 62.23 204.498 61.5064" stroke="#DC8C7A" stroke-width="0.497241" stroke-miterlimit="10"/>
<path d="M177.015 108.497H167.269V112.972H177.015V108.497Z" fill="white"/>
<path d="M156.181 136.693C156.379 129.732 161.65 103.975 162.446 91.8918C162.694 87.8641 161.402 84.9304 161.75 84.8309C161.75 84.8309 169.656 87.8144 170.551 89.9525C171.197 91.5437 167.468 100.593 167.468 100.593C167.468 100.593 170.402 104.124 170.551 105.665C170.7 107.207 163.391 124.262 162.496 126.897C161.551 129.732 158.567 141.467 157.125 155.389C157.125 155.439 155.932 146.19 156.181 136.693Z" fill="#D0D2D4"/>
<path d="M165.181 124.557C164.485 124.507 163.639 124.258 162.645 123.612C159.562 121.673 160.109 113.269 160.109 112.921C160.109 112.722 160.308 112.573 160.457 112.623C160.656 112.623 160.805 112.822 160.755 112.971C160.755 113.07 160.208 121.325 162.943 123.015C165.28 124.457 166.374 123.761 167.567 122.767C167.717 122.667 167.915 122.667 168.065 122.816C168.214 122.966 168.164 123.164 168.015 123.314C167.269 124.01 166.374 124.606 165.181 124.557Z" fill="#BFBFBF"/>
<path d="M167.817 122.269C167.817 122.269 167.27 122.816 167.32 123.014C167.369 123.213 167.568 123.661 167.916 123.611C168.264 123.512 168.811 122.816 168.712 122.617C168.563 122.368 168.364 121.821 167.817 122.269Z" fill="#1E3142"/>
<path d="M162.249 124.36C162.945 124.41 163.79 124.211 164.884 123.714C168.166 122.173 168.564 113.719 168.614 113.371C168.614 113.172 168.465 113.023 168.266 113.023C168.067 113.023 167.918 113.172 167.918 113.371C167.918 113.471 167.52 121.725 164.586 123.117C162.1 124.311 161.105 123.515 160.011 122.322C159.862 122.173 159.663 122.173 159.514 122.322C159.365 122.471 159.365 122.67 159.514 122.819C160.21 123.615 161.006 124.311 162.249 124.36Z" fill="#BFBFBF"/>
<path d="M159.863 121.823C159.863 121.823 160.36 122.419 160.261 122.618C160.211 122.817 159.912 123.265 159.614 123.165C159.316 123.066 158.819 122.27 158.968 122.071C159.067 121.872 159.366 121.325 159.863 121.823Z" fill="#1E3142"/>
<path fill-rule="evenodd" clip-rule="evenodd" d="M164.934 86.9159C163.84 84.728 162.448 83.9325 161.801 83.6838C161.901 83.9822 161.95 84.2805 162.05 84.6286C162.448 84.9767 163.094 85.5734 163.89 86.6673C165.829 89.3027 164.785 105.314 164.785 105.314L165.531 105.712C166.028 103.573 166.376 89.8496 164.934 86.9159Z" fill="#1E3142"/>
<path d="M167.77 114.362C167.77 113.815 167.819 113.218 167.819 112.671C167.968 108.694 167.869 106.058 165.035 105.66C164.438 105.561 163.941 105.71 163.493 106.108C161.355 107.848 160.908 113.417 160.908 113.467L159.963 113.417C159.963 113.169 160.46 107.351 162.897 105.412C163.593 104.865 164.339 104.666 165.184 104.765C169.062 105.312 168.913 109.241 168.764 112.721C168.764 113.268 168.714 113.815 168.714 114.362H167.77Z" fill="#1E3142"/>
<path d="M150.066 84.4816C149.022 85.128 147.729 86.1722 146.685 87.7634C144.795 90.5479 144.994 99.3988 144.994 99.3988L145.79 99.3491C145.79 99.3491 145.74 91.791 147.083 88.7578C147.729 87.2164 148.922 86.1225 149.967 85.4263C150.016 85.0783 150.016 84.7799 150.066 84.4816Z" fill="#1E3142"/>
<path fill-rule="evenodd" clip-rule="evenodd" d="M148.129 101.491C148.029 102.884 146.836 103.977 145.443 103.928C144.051 103.828 142.957 102.635 143.007 101.243C143.106 99.8504 144.3 98.7565 145.692 98.8062C147.134 98.8559 148.228 100.099 148.129 101.491Z" fill="#BFBFBF"/>
<path fill-rule="evenodd" clip-rule="evenodd" d="M146.985 101.441C146.935 102.237 146.288 102.834 145.493 102.784C144.697 102.734 144.101 102.088 144.15 101.292C144.2 100.497 144.846 99.8999 145.642 99.9497C146.438 99.9994 147.034 100.646 146.985 101.441Z" fill="#D1D1D1"/>
<path fill-rule="evenodd" clip-rule="evenodd" d="M146.439 101.391C146.389 101.888 145.991 102.236 145.543 102.187C145.046 102.137 144.698 101.739 144.748 101.292C144.798 100.794 145.195 100.446 145.643 100.496C146.09 100.496 146.488 100.944 146.439 101.391Z" fill="#BDBDBD"/>
<path d="M166.721 71.7554C166.721 78.8659 162.743 84.6339 156.08 84.6339C149.417 84.6339 145.389 78.8659 145.389 71.7554C145.389 64.5951 148.174 58.8271 156.03 58.8271C163.936 58.8271 166.721 64.5951 166.721 71.7554Z" fill="#FFC4A8"/>
<path d="M153.497 68.3722C152.851 67.8253 151.906 67.8253 151.111 67.875C150.564 67.9247 150.066 68.0242 149.519 68.2231C149.271 68.3225 149.022 68.4717 148.823 68.6208C148.624 68.77 148.475 69.0186 148.227 69.1678C148.077 69.317 148.276 69.5159 148.426 69.4164C148.624 69.317 148.873 69.317 149.122 69.317C149.37 69.2673 149.569 69.2673 149.818 69.2175C150.216 69.1678 150.713 69.0684 151.111 69.0186C151.508 68.9689 151.906 68.9689 152.304 68.9689C152.403 68.9689 152.453 68.9689 152.553 68.9689C152.602 68.9689 152.652 68.9689 152.652 68.9689C152.602 68.9689 152.602 68.9689 152.652 68.9689C152.702 68.9689 152.801 69.0186 152.851 69.0186C152.901 69.0186 152.901 69.0186 152.95 69.0684C152.901 69.0684 152.901 69.0684 152.95 69.0684C153.348 69.317 153.895 68.7203 153.497 68.3722Z" fill="#924F2D"/>
<path d="M159.163 69.0728C159.262 69.0231 159.113 69.0728 159.213 69.0231C159.262 69.0231 159.312 68.9733 159.411 68.9733C159.411 68.9733 159.561 68.9733 159.461 68.9733C159.511 68.9733 159.511 68.9733 159.561 68.9733C159.66 68.9733 159.71 68.9733 159.809 68.9733C160.207 68.9733 160.605 68.9733 161.003 68.9733C161.351 69.0231 161.848 69.0728 162.246 69.1722C162.494 69.222 162.693 69.222 162.942 69.2717C163.191 69.3214 163.439 69.2717 163.638 69.3711C163.787 69.4209 163.986 69.222 163.837 69.1225C163.638 68.9733 163.489 68.7745 163.29 68.5756C163.041 68.3767 162.842 68.2772 162.544 68.1778C162.047 67.9789 161.5 67.8794 160.953 67.8297C160.157 67.78 159.213 67.78 158.566 68.3269C158.218 68.7247 158.715 69.3214 159.163 69.0728Z" fill="#924F2D"/>
<path d="M142.605 71.405C142.008 73.6923 143.699 76.5763 145.936 77.0238C148.174 77.4713 147.776 74.0901 146.881 72.3C145.936 70.5596 143.202 69.1176 142.605 71.405Z" fill="#FFC4A8"/>
<path d="M167.963 70.2623C165.725 70.7098 164.034 73.5938 164.631 75.8811C165.228 78.1684 167.963 76.7762 168.858 74.9861C169.802 73.196 170.2 69.8148 167.963 70.2623Z" fill="#FFC4A8"/>
<path d="M155.932 71.6547C155.932 71.6547 155.982 71.7541 156.032 71.953C156.081 72.1519 156.181 72.4005 156.231 72.6989C156.28 72.9972 156.33 73.395 156.33 73.8425C156.33 74.0414 156.28 74.29 156.181 74.5884C156.181 74.6381 156.081 74.837 156.032 74.9365C155.982 75.0359 155.882 75.1353 155.833 75.2348C155.684 75.4337 155.634 75.5331 155.584 75.5829C155.584 75.6326 155.534 75.6326 155.534 75.6823C155.534 75.732 155.534 75.7818 155.485 75.7818C155.435 75.7818 155.485 75.8812 155.485 75.9807C155.534 76.0801 155.584 76.2293 155.684 76.3287C155.833 76.5773 155.982 76.7762 156.081 76.9751C156.181 77.1243 156.231 77.2735 156.231 77.2735C156.231 77.2735 156.081 77.3232 155.882 77.2735C155.684 77.2735 155.385 77.2238 155.037 77.0746C154.888 77.0249 154.689 76.9254 154.49 76.7265C154.291 76.5773 154.142 76.3287 154.043 75.9309C153.993 75.732 153.993 75.5829 154.043 75.4337C154.043 75.2845 154.092 75.0856 154.142 74.9365C154.291 74.6381 154.44 74.4392 154.59 74.29L154.739 74.0911C154.789 74.0414 154.838 74.0414 154.888 73.8922C154.938 73.8425 154.987 73.6933 155.087 73.5442C155.186 73.1961 155.335 72.848 155.435 72.5994C155.534 72.3011 155.634 72.0525 155.733 71.9033C155.833 71.7541 155.932 71.6547 155.932 71.6547Z" fill="#DC8C7A"/>
<path d="M152.351 72.4022C152.351 72.9492 151.904 73.4464 151.307 73.4464C150.76 73.4464 150.263 72.9989 150.263 72.4022C150.263 71.8553 150.71 71.358 151.307 71.358C151.854 71.358 152.351 71.8553 152.351 72.4022Z" fill="#362C31"/>
<path d="M159.909 72.4474C159.909 72.9944 160.356 73.4916 160.953 73.4916C161.5 73.4916 161.997 73.0441 161.997 72.4474C161.997 71.9004 161.55 71.4032 160.953 71.4032C160.356 71.4032 159.909 71.8507 159.909 72.4474Z" fill="#362C31"/>
<path d="M150.957 76.2825C148.869 76.2825 147.228 74.5919 147.228 72.5035C147.228 70.4151 148.919 68.7742 151.007 68.7742C153.095 68.7742 154.736 70.4648 154.736 72.5532C154.687 74.6416 152.996 76.2825 150.957 76.2825ZM150.957 69.8184C149.466 69.8184 148.272 71.0118 148.272 72.5035C148.272 73.9952 149.466 75.1886 150.957 75.1886C152.449 75.1886 153.642 73.9952 153.642 72.5035C153.642 71.0615 152.449 69.8681 150.957 69.8184Z" fill="#3582A6"/>
<path d="M161.251 76.3296C159.262 76.3296 157.622 74.639 157.622 72.5506C157.622 70.4622 159.262 68.8213 161.251 68.8213C163.24 68.8213 164.881 70.5119 164.881 72.6003C164.881 74.639 163.24 76.3296 161.251 76.3296ZM161.251 69.8655C159.809 69.8655 158.666 71.0589 158.666 72.5506C158.666 74.0423 159.809 75.2357 161.251 75.2357C162.693 75.2357 163.837 74.0423 163.837 72.5506C163.837 71.0589 162.693 69.8655 161.251 69.8655Z" fill="#3582A6"/>
<path d="M158.466 71.6077C157.77 71.2099 156.925 71.011 156.079 71.011C155.184 71.0607 154.389 71.3093 153.742 71.8066" stroke="#3582A6" stroke-width="0.800458" stroke-miterlimit="10"/>
<path d="M144.891 69.8154C144.891 69.8154 146.333 71.0088 147.526 72.1525" stroke="#3582A6" stroke-width="0.800458" stroke-miterlimit="10"/>
<path d="M167.217 69.8154C167.217 69.8154 165.775 71.0088 164.582 72.1525" stroke="#3582A6" stroke-width="0.800458" stroke-miterlimit="10"/>
<path d="M159.71 78.9152C160.208 79.9594 157.97 81.7495 155.832 81.65C153.694 81.5506 151.953 79.86 152.301 79.0147C152.649 78.1694 154.34 78.5672 155.981 78.5672C157.721 78.5672 159.213 77.871 159.71 78.9152Z" fill="white"/>
<path d="M161.748 82.8927C160.157 83.9866 158.268 84.633 156.08 84.633C154.041 84.633 152.301 84.0861 150.809 83.191" stroke="#DC8C7A" stroke-width="0.497241" stroke-miterlimit="10"/>
<path d="M166.424 61.3618C165.479 60.1685 164.932 59.721 164.037 59.0745C163.092 58.3287 162.048 58.1795 161.202 58.1795C161.004 57.2347 160.556 56.3397 159.76 55.8425C157.473 54.5496 153.744 54.4502 151.407 55.9916C149.368 57.3342 148.771 59.0745 148.771 59.0745C148.771 59.0745 145.788 60.1187 144.545 62.8536C143.749 64.6934 143.153 67.8757 144.644 69.5663C144.644 69.5663 147.18 70.4614 150.015 67.6271C152.749 64.8923 152.799 65.5884 155.335 65.0912C156.727 64.7928 159.114 63.3508 159.114 63.3508C159.114 63.3508 160.407 65.1906 161.551 65.6381C163.788 66.5331 165.33 68.7707 165.28 70.2127C165.28 71.6547 165.23 73.8923 166.225 73.047C167.219 72.2017 167.319 70.5608 167.965 69.1188C168.611 67.6768 168.064 63.4503 166.424 61.3618Z" fill="#924F2D"/>
<path d="M160.953 58.5784C160.953 58.5784 161.202 61.6613 159.511 62.7055" stroke="#BA8240" stroke-width="0.497241" stroke-miterlimit="10"/>
<path d="M162.048 62.7551C162.048 62.7551 164.286 63.6999 165.231 64.8933C166.175 66.0866 166.076 67.9762 166.076 67.9762" stroke="#BA8240" stroke-width="0.497241" stroke-miterlimit="10"/>
<path d="M162.843 61.2114C162.843 61.2114 166.224 62.007 166.522 64.4932" stroke="#BA8240" stroke-width="0.497241" stroke-miterlimit="10"/>
<path d="M158.914 60.07C158.914 60.07 154.538 59.9705 153.395 62.0589C152.301 64.1473 151.605 64.5949 149.964 64.7938C148.323 64.9926 147.279 65.8877 146.831 67.6777" stroke="#BA8240" stroke-width="0.497241" stroke-miterlimit="10"/>
<path d="M157.323 58.3774C157.323 58.3774 152.947 57.4824 152.152 59.2228C151.406 60.9631 150.461 61.9079 149.218 61.709C148.025 61.5101 146.931 62.4051 146.434 63.3001" stroke="#BA8240" stroke-width="0.497241" stroke-miterlimit="10"/>
<path d="M145.538 63.7484C145.538 63.7484 143.699 67.1296 144.445 70.6601C145.19 74.1905 145.538 74.638 145.986 74.0413C146.434 73.4446 146.732 69.765 146.732 68.0744C146.782 66.3341 145.538 63.7484 145.538 63.7484Z" fill="#924F2D"/>
<path d="M205.877 198.895L193.678 208.09L159.004 156.709C157.922 155.087 157.622 153.044 158.283 151.241C158.643 150.219 159.545 149.558 160.566 149.438L161.167 149.378C162.85 149.258 164.412 149.919 165.494 151.181L205.877 198.895Z" fill="#FFC89F"/>
<path d="M163.57 150.819C165.433 153.404 166.395 154.245 163.029 156.348C161.767 157.129 160.265 155.927 158.883 153.644C157.501 151.36 157.441 148.896 158.763 148.115C160.025 147.334 162.008 148.656 163.57 150.819Z" fill="#E44C37"/>
<path d="M195.661 217.465C195.541 217.465 195.481 217.405 195.421 217.345C195.12 216.864 194.88 216.383 194.579 215.843C192.656 212.357 190.193 207.67 187.188 201.961V201.901C185.265 194.87 173.667 179.185 173.546 179.065C173.426 178.945 173.486 178.765 173.607 178.644C173.727 178.524 173.907 178.584 174.027 178.704C174.508 179.366 185.806 194.569 187.789 201.72C190.733 207.429 193.257 212.057 195.12 215.542C195.421 216.083 195.661 216.564 195.962 217.044C196.022 217.165 195.962 217.345 195.841 217.465C195.781 217.465 195.721 217.465 195.661 217.465Z" fill="#A65137"/>
<path d="M204.193 200.398C204.073 200.398 203.953 200.338 203.893 200.218C201.669 194.509 172.283 159.714 172.043 159.534C171.923 159.474 171.863 159.294 171.983 159.113C172.043 158.993 172.283 158.933 172.404 159.053C172.644 159.173 202.09 194.028 204.434 200.037C204.494 200.218 204.434 200.338 204.253 200.398C204.314 200.398 204.253 200.398 204.193 200.398Z" fill="#A65137"/>
<path d="M173.664 158.811C174.145 157.549 175.467 156.828 176.849 157.309L185.383 160.975C187.847 162.056 188.688 165.061 186.885 166.624L184.301 168.907L176.188 164.821C173.965 163.679 172.883 161.035 173.664 158.811Z" fill="#FFC89F"/>
<path d="M178.893 158.33C181.537 159.652 182.678 159.953 181.296 162.477C180.755 163.438 179.073 163.018 176.909 161.756C174.746 160.554 173.424 158.751 173.965 157.789C174.566 156.888 176.669 157.248 178.893 158.33Z" fill="#E44C37"/>
<path d="M176.848 136.696C177.689 135.253 179.732 134.352 181.956 136.335L188.626 142.825C190.85 144.989 193.133 148.053 190.369 150.577L186.463 153.642L178.651 144.688C175.165 140.061 176.848 136.696 176.848 136.696Z" fill="#FFC89F"/>
<path d="M182.738 136.933C184.721 139.157 185.682 139.818 183.279 141.801C182.377 142.522 180.935 141.5 179.433 139.577C177.87 137.654 177.389 135.491 178.291 134.77C179.192 133.989 181.055 135.07 182.738 136.933Z" fill="#E44C37"/>
<path d="M185.021 152.378L179.913 146.549C179.793 146.429 179.793 146.249 179.913 146.129C180.034 146.008 180.214 146.008 180.334 146.129L185.442 151.958L185.021 152.378Z" fill="#A65137"/>
<path d="M185.682 130.867L187.846 129.304C191.331 126.78 192.112 121.913 189.588 118.367L183.94 110.495C183.038 108.932 180.815 108.692 179.613 110.014C177.389 112.478 176.969 116.084 178.651 118.968L185.682 130.867Z" fill="#FFC89F"/>
<path d="M185.08 111.758C186.823 114.403 187.725 115.304 184.96 116.987C183.878 117.588 182.556 116.326 181.234 113.982C179.912 111.698 179.732 109.295 180.754 108.694C181.835 108.093 183.638 109.595 185.08 111.758Z" fill="#E44C37"/>
<path d="M185.683 127.803C185.563 127.803 185.503 127.743 185.442 127.623C185.382 127.563 185.262 127.503 185.082 127.443C184.301 127.022 182.618 126.181 180.815 123.116C180.755 122.996 180.755 122.816 180.935 122.695C181.056 122.635 181.236 122.635 181.356 122.816C183.099 125.76 184.601 126.541 185.382 126.902C185.683 127.082 185.923 127.142 185.983 127.383C186.043 127.503 185.983 127.683 185.803 127.743C185.743 127.803 185.743 127.803 185.683 127.803Z" fill="#A65137"/>
<path d="M88.7501 51.8497H140.251C145.839 51.8497 150.346 47.2825 150.346 41.7539V28.2928C150.346 22.7041 145.779 18.197 140.251 18.197H88.7501C83.1613 18.197 78.6543 22.7642 78.6543 28.2928V41.6938C78.6543 47.2825 83.2214 51.8497 88.7501 51.8497Z" fill="#116EB6"/>
<path d="M120.42 51.67H88.2097C83.0416 51.67 78.7749 47.4634 78.7749 42.2352V26.5507H79.6162V42.2352C79.6162 46.9225 83.4622 50.7686 88.1496 50.7686H120.36V51.67H120.42Z" fill="#9EC55B"/>
<path d="M138.809 65.552V51.49H124.687L138.809 65.552Z" fill="#116EB6"/>
<path d="M89.2105 30.1986C89.7261 30.3638 90.0567 30.7605 90.0567 31.3422C90.0567 32.142 89.4221 32.6047 88.2058 32.6047H85.8128V27.9775H88.0736C89.2304 27.9775 89.8253 28.4601 89.8253 29.1806C89.8253 29.6433 89.5873 30.0003 89.2105 30.1986ZM87.9413 28.784H86.8771V29.8747H87.9413C88.4636 29.8747 88.7478 29.6896 88.7478 29.326C88.7478 28.9624 88.4636 28.784 87.9413 28.784ZM88.1264 31.7983C88.6817 31.7983 88.9792 31.6264 88.9792 31.2298C88.9792 30.8398 88.6817 30.6547 88.1264 30.6547H86.8771V31.7983H88.1264ZM94.2783 30.8398C94.2783 30.9191 94.2651 31.0315 94.2585 31.1174H91.5681C91.6673 31.5603 92.044 31.8313 92.5861 31.8313C92.9629 31.8313 93.2339 31.719 93.4785 31.4876L94.0271 32.0825C93.6966 32.4593 93.2009 32.6576 92.5597 32.6576C91.3301 32.6576 90.5303 31.8842 90.5303 30.8266C90.5303 29.7623 91.3434 28.9955 92.4274 28.9955C93.4719 28.9955 94.2783 29.6962 94.2783 30.8398ZM92.4341 29.7755C91.9647 29.7755 91.6276 30.0598 91.5549 30.5159H93.3066C93.2339 30.0664 92.8968 29.7755 92.4341 29.7755ZM96.1614 32.6576C95.5598 32.6576 94.9517 32.4924 94.6211 32.2742L94.9649 31.5339C95.2822 31.7388 95.7647 31.8776 96.201 31.8776C96.677 31.8776 96.8554 31.752 96.8554 31.5537C96.8554 30.972 94.7071 31.5669 94.7071 30.1457C94.7071 29.4714 95.3152 28.9955 96.3531 28.9955C96.8422 28.9955 97.3843 29.1079 97.7214 29.3062L97.3777 30.0399C97.0273 29.8416 96.677 29.7755 96.3531 29.7755C95.8903 29.7755 95.692 29.9209 95.692 30.106C95.692 30.7142 97.8404 30.1259 97.8404 31.5273C97.8404 32.1883 97.2256 32.6576 96.1614 32.6576ZM100.493 31.7057L100.77 32.4329C100.559 32.5849 100.248 32.6576 99.9309 32.6576C99.0914 32.6576 98.6022 32.2279 98.6022 31.3818V29.9209H98.0536V29.1277H98.6022V28.2617H99.6334V29.1277H100.519V29.9209H99.6334V31.3686C99.6334 31.6727 99.7987 31.8379 100.076 31.8379C100.228 31.8379 100.38 31.7917 100.493 31.7057ZM103.294 32.6047V27.9775H105.396C106.91 27.9775 107.948 28.8897 107.948 30.2911C107.948 31.6925 106.91 32.6047 105.396 32.6047H103.294ZM104.365 31.7256H105.343C106.262 31.7256 106.864 31.1769 106.864 30.2911C106.864 29.4053 106.262 28.8567 105.343 28.8567H104.365V31.7256ZM112.166 30.8398C112.166 30.9191 112.153 31.0315 112.146 31.1174H109.456C109.555 31.5603 109.932 31.8313 110.474 31.8313C110.851 31.8313 111.122 31.719 111.366 31.4876L111.915 32.0825C111.585 32.4593 111.089 32.6576 110.448 32.6576C109.218 32.6576 108.418 31.8842 108.418 30.8266C108.418 29.7623 109.231 28.9955 110.315 28.9955C111.36 28.9955 112.166 29.6962 112.166 30.8398ZM110.322 29.7755C109.853 29.7755 109.516 30.0598 109.443 30.5159H111.195C111.122 30.0664 110.785 29.7755 110.322 29.7755ZM115.014 28.9955C115.854 28.9955 116.489 29.4847 116.489 30.5688V32.6047H115.457V30.7274C115.457 30.1523 115.193 29.8879 114.737 29.8879C114.241 29.8879 113.884 30.192 113.884 30.8464V32.6047H112.853V29.0484H113.838V29.4648C114.115 29.1607 114.532 28.9955 115.014 28.9955ZM119.439 31.7057L119.717 32.4329C119.506 32.5849 119.195 32.6576 118.878 32.6576C118.038 32.6576 117.549 32.2279 117.549 31.3818V29.9209H117V29.1277H117.549V28.2617H118.58V29.1277H119.466V29.9209H118.58V31.3686C118.58 31.6727 118.745 31.8379 119.023 31.8379C119.175 31.8379 119.327 31.7917 119.439 31.7057ZM121.73 28.9955C122.814 28.9955 123.442 29.4979 123.442 30.5754V32.6047H122.477V32.1618C122.286 32.4858 121.915 32.6576 121.393 32.6576C120.56 32.6576 120.065 32.1949 120.065 31.5801C120.065 30.9522 120.507 30.5159 121.592 30.5159H122.411C122.411 30.073 122.147 29.8152 121.592 29.8152C121.215 29.8152 120.825 29.9408 120.567 30.1457L120.197 29.4252C120.587 29.1475 121.162 28.9955 121.73 28.9955ZM121.651 31.9635C121.995 31.9635 122.292 31.8049 122.411 31.481V31.1174H121.704C121.221 31.1174 121.069 31.2959 121.069 31.5339C121.069 31.7917 121.287 31.9635 121.651 31.9635ZM124.376 32.6047V27.6999H125.407V32.6047H124.376ZM130.312 27.9775C131.548 27.9775 132.321 28.6187 132.321 29.6565C132.321 30.6877 131.548 31.3289 130.312 31.3289H129.38V32.6047H128.309V27.9775H130.312ZM130.252 30.4564C130.907 30.4564 131.237 30.1589 131.237 29.6565C131.237 29.1475 130.907 28.8501 130.252 28.8501H129.38V30.4564H130.252ZM133.078 32.6047V27.6999H134.109V32.6047H133.078ZM136.5 28.9955C137.584 28.9955 138.212 29.4979 138.212 30.5754V32.6047H137.247V32.1618C137.056 32.4858 136.685 32.6576 136.163 32.6576C135.33 32.6576 134.835 32.1949 134.835 31.5801C134.835 30.9522 135.277 30.5159 136.362 30.5159H137.181C137.181 30.073 136.917 29.8152 136.362 29.8152C135.985 29.8152 135.595 29.9408 135.337 30.1457L134.967 29.4252C135.357 29.1475 135.932 28.9955 136.5 28.9955ZM136.421 31.9635C136.765 31.9635 137.062 31.8049 137.181 31.481V31.1174H136.474C135.991 31.1174 135.839 31.2959 135.839 31.5339C135.839 31.7917 136.057 31.9635 136.421 31.9635ZM141.307 28.9955C142.147 28.9955 142.781 29.4847 142.781 30.5688V32.6047H141.75V30.7274C141.75 30.1523 141.486 29.8879 141.03 29.8879C140.534 29.8879 140.177 30.192 140.177 30.8464V32.6047H139.146V29.0484H140.131V29.4648C140.408 29.1607 140.825 28.9955 141.307 28.9955ZM87.1745 36.9955C88.2586 36.9955 88.8866 37.4979 88.8866 38.5754V40.6047H87.9215V40.1618C87.7298 40.4858 87.3596 40.6576 86.8374 40.6576C86.0045 40.6576 85.5087 40.1949 85.5087 39.5801C85.5087 38.9522 85.9516 38.5159 87.0357 38.5159H87.8554C87.8554 38.073 87.591 37.8152 87.0357 37.8152C86.6589 37.8152 86.2689 37.9408 86.0111 38.1457L85.6409 37.4252C86.031 37.1475 86.6061 36.9955 87.1745 36.9955ZM87.0952 39.9635C87.439 39.9635 87.7364 39.8049 87.8554 39.481V39.1174H87.1481C86.6656 39.1174 86.5135 39.2959 86.5135 39.5339C86.5135 39.7917 86.7317 39.9635 87.0952 39.9635ZM91.8361 39.7057L92.1137 40.4329C91.9022 40.5849 91.5915 40.6576 91.2742 40.6576C90.4347 40.6576 89.9455 40.2279 89.9455 39.3818V37.9209H89.3969V37.1277H89.9455V36.2617H90.9767V37.1277H91.8625V37.9209H90.9767V39.3686C90.9767 39.6727 91.142 39.8379 91.4196 39.8379C91.5717 39.8379 91.7237 39.7917 91.8361 39.7057ZM96.8783 40.6841C95.4174 40.6841 94.3465 39.6661 94.3465 38.2911C94.3465 36.9162 95.4174 35.8982 96.8783 35.8982C98.3325 35.8982 99.41 36.9096 99.41 38.2911C99.41 39.6727 98.3325 40.6841 96.8783 40.6841ZM96.8783 39.7718C97.7046 39.7718 98.3259 39.1703 98.3259 38.2911C98.3259 37.4119 97.7046 36.8104 96.8783 36.8104C96.052 36.8104 95.4306 37.4119 95.4306 38.2911C95.4306 39.1703 96.052 39.7718 96.8783 39.7718ZM104.313 40.6047H103.163L102.271 39.3157H102.218H101.286V40.6047H100.215V35.9775H102.218C103.454 35.9775 104.227 36.6187 104.227 37.6565C104.227 38.3506 103.877 38.8596 103.275 39.1174L104.313 40.6047ZM103.143 37.6565C103.143 37.1475 102.813 36.8501 102.158 36.8501H101.286V38.463H102.158C102.813 38.463 103.143 38.1589 103.143 37.6565ZM108.533 40.6047L108.123 39.6132H105.975L105.565 40.6047H104.468L106.53 35.9775H107.588L109.657 40.6047H108.533ZM106.319 38.8001H107.786L107.052 37.0285L106.319 38.8001ZM111.657 40.6841C110.923 40.6841 110.183 40.4659 109.773 40.1486L110.137 39.3422C110.527 39.6264 111.109 39.8247 111.664 39.8247C112.298 39.8247 112.556 39.6132 112.556 39.3289C112.556 38.463 109.866 39.0579 109.866 37.3392C109.866 36.5526 110.5 35.8982 111.816 35.8982C112.398 35.8982 112.992 36.037 113.422 36.308L113.092 37.1211C112.662 36.8765 112.219 36.7575 111.809 36.7575C111.175 36.7575 110.93 36.9955 110.93 37.2863C110.93 38.1391 113.62 37.5508 113.62 39.2496C113.62 40.023 112.979 40.6841 111.657 40.6841ZM116.408 40.6841C115.093 40.6841 114.313 39.9305 114.313 38.5688V35.9775H115.383V38.5291C115.383 39.4083 115.767 39.7718 116.415 39.7718C117.069 39.7718 117.446 39.4083 117.446 38.5291V35.9775H118.503V38.5688C118.503 39.9305 117.723 40.6841 116.408 40.6841ZM123.66 40.6047H122.51L121.618 39.3157H121.565H120.633V40.6047H119.562V35.9775H121.565C122.801 35.9775 123.574 36.6187 123.574 37.6565C123.574 38.3506 123.224 38.8596 122.622 39.1174L123.66 40.6047ZM122.49 37.6565C122.49 37.1475 122.16 36.8501 121.505 36.8501H120.633V38.463H121.505C122.16 38.463 122.49 38.1589 122.49 37.6565ZM125.487 39.7454H128.005V40.6047H124.423V35.9775H127.92V36.8368H125.487V37.8416H127.635V38.6745H125.487V39.7454Z" fill="white"/>
<path d="M249.628 91.6228C249.693 89.4834 248.706 88.5948 248.278 86.5213C247.488 82.7692 249.628 81.0906 250.845 80.7944C252.557 80.3995 253.544 81.6831 255.256 81.6502C256.638 81.6173 258.086 80.4653 259.37 80.9261C260.39 81.2881 261.509 82.4401 261.641 83.6249C261.805 84.7769 261.542 85.9618 261.246 87.0808C260.95 88.1998 260.423 89.3189 260.324 90.5037C260.226 91.7544 260.489 93.038 260.324 94.2887C259.962 97.4813 259.337 99.2586 258.514 99.1598C257.527 99.1598 257.329 98.0079 257.198 97.1192C256.934 95.0128 256.638 93.433 256.079 92.9064C255.716 92.5443 255.19 92.3469 254.729 92.5443C252.952 93.3013 252.919 96.823 252.754 97.6788C252.623 98.337 252.425 99.3244 251.8 99.3573C250.023 99.4561 249.562 93.8609 249.628 91.6228Z" fill="white"/>
<path d="M251.766 99.5214C251.502 99.5214 251.239 99.3898 251.009 99.1923C249.791 98.0074 249.429 93.6958 249.495 91.6552C249.527 90.4045 249.198 89.6146 248.836 88.6931C248.573 88.0677 248.31 87.4424 248.145 86.5866C247.717 84.4802 248.211 83.0979 248.705 82.3409C249.33 81.3864 250.186 80.8598 250.811 80.7281C251.798 80.4977 252.588 80.794 253.312 81.1231C253.905 81.3535 254.497 81.6168 255.221 81.5839C255.781 81.5839 256.34 81.3864 256.9 81.1889C257.723 80.8927 258.579 80.5965 259.401 80.8927C260.422 81.2547 261.606 82.4396 261.771 83.6903C261.936 84.8752 261.672 86.0929 261.343 87.212C261.244 87.574 261.113 87.9361 261.014 88.2981C260.751 89.0551 260.487 89.8121 260.455 90.602C260.422 91.1615 260.455 91.754 260.487 92.3135C260.52 93.0047 260.553 93.6958 260.487 94.387C260.191 97.0859 259.698 98.7315 259.072 99.2252C258.908 99.3568 258.743 99.4227 258.546 99.3898C257.394 99.3898 257.229 97.9416 257.13 97.2504C256.933 95.506 256.637 93.6629 256.044 93.1034C255.682 92.7414 255.188 92.6097 254.826 92.7743C253.411 93.3667 253.148 95.9668 253.016 97.2175C252.983 97.4808 252.983 97.6783 252.95 97.8099C252.786 98.6657 252.555 99.5543 251.897 99.5872C251.798 99.5214 251.798 99.5214 251.766 99.5214ZM249.626 91.6223H249.758C249.692 93.63 250.054 97.8428 251.206 98.9619C251.403 99.1594 251.601 99.2581 251.831 99.2252C252.325 99.1923 252.555 98.3695 252.654 97.6454C252.687 97.5137 252.687 97.3162 252.72 97.0529C252.852 95.6706 253.115 93.0705 254.695 92.4122C255.156 92.2147 255.748 92.3793 256.176 92.8072C256.67 93.3009 257.032 94.5516 257.328 97.1188C257.459 98.1391 257.69 99.0606 258.513 99.0606C258.513 99.0606 258.513 99.0606 258.546 99.0606C258.677 99.0606 258.776 99.0277 258.908 98.9619C259.467 98.534 259.928 96.8555 260.224 94.2883C260.29 93.63 260.257 92.9059 260.224 92.2477C260.191 91.6881 260.158 91.0957 260.191 90.5033C260.257 89.6804 260.52 88.8905 260.784 88.1335C260.915 87.7715 261.014 87.4095 261.113 87.0474C261.409 85.9613 261.672 84.7764 261.508 83.6245C261.343 82.4725 260.257 81.3864 259.303 81.0244C258.578 80.761 257.789 81.0244 256.966 81.3206C256.373 81.518 255.781 81.7484 255.221 81.7484C254.431 81.7484 253.806 81.5181 253.214 81.2547C252.457 80.9585 251.766 80.6623 250.844 80.8927C249.495 81.2218 247.651 82.9991 248.376 86.455C248.54 87.2778 248.803 87.9032 249.067 88.5285C249.429 89.4501 249.791 90.3058 249.758 91.5894L249.626 91.6223Z" fill="black"/>
<path d="M255.715 82.8369C255.386 82.8369 255.089 82.804 254.826 82.7711C254.267 82.7053 253.773 82.6394 253.345 82.3103C253.312 82.3103 253.312 82.2774 253.345 82.2445C253.345 82.2116 253.378 82.2116 253.411 82.2445C253.806 82.5407 254.299 82.6065 254.826 82.6724C255.353 82.7382 255.978 82.804 256.538 82.6394C256.867 82.5407 257.196 82.3432 257.525 82.1458C257.558 82.1458 257.558 82.1458 257.591 82.1458C257.591 82.1787 257.591 82.1787 257.591 82.2116C257.295 82.4091 256.965 82.6065 256.603 82.7053C256.274 82.8369 255.978 82.8369 255.715 82.8369Z" fill="black"/>
<path d="M255.189 77.3103C255.123 77.3103 255.057 77.2445 255.057 77.1786C255.123 76.1913 255.123 75.2039 255.057 74.2165C255.057 74.1507 255.09 74.0848 255.189 74.0848C255.255 74.0848 255.32 74.1177 255.32 74.2165C255.386 75.2039 255.386 76.2242 255.32 77.2116C255.32 77.2774 255.255 77.3103 255.189 77.3103Z" fill="black"/>
<path d="M261.113 77.9311C261.08 77.9311 261.047 77.9311 261.014 77.8982C260.981 77.8324 260.981 77.7665 261.047 77.7336C261.64 77.2399 262.199 76.7133 262.693 76.1209C262.726 76.0551 262.825 76.0551 262.857 76.1209C262.923 76.1538 262.923 76.2526 262.857 76.2855C262.364 76.8779 261.771 77.4374 261.179 77.9311C261.179 77.8982 261.146 77.9311 261.113 77.9311Z" fill="black"/>
<path d="M264.569 82.7701C264.503 82.7701 264.47 82.7372 264.438 82.6713C264.438 82.6055 264.47 82.5397 264.536 82.5397L266.577 82.2106C266.643 82.2106 266.708 82.2435 266.708 82.3093C266.708 82.3751 266.676 82.441 266.61 82.441L264.569 82.7701Z" fill="black"/>
<path d="M265.491 88.9249C265.458 88.9249 265.458 88.9249 265.425 88.9249L264.075 88.2666C264.009 88.2337 263.977 88.1679 264.009 88.1021C264.042 88.0362 264.108 88.0033 264.174 88.0362L265.523 88.6945C265.589 88.7274 265.622 88.7932 265.589 88.8591C265.589 88.892 265.523 88.9249 265.491 88.9249Z" fill="black"/>
<path d="M249.002 77.902C248.97 77.902 248.937 77.902 248.937 77.8691C248.311 77.3754 247.752 76.8159 247.258 76.2234C247.225 76.1576 247.225 76.0918 247.258 76.0589C247.324 76.026 247.39 76.026 247.423 76.0589C247.916 76.6513 248.476 77.1779 249.068 77.6716C249.134 77.7045 249.134 77.8032 249.101 77.8362C249.068 77.8691 249.035 77.902 249.002 77.902Z" fill="black"/>
<path d="M245.544 82.7382L243.471 82.3761C243.405 82.3761 243.372 82.3103 243.372 82.2445C243.372 82.1787 243.438 82.1458 243.504 82.1458L245.544 82.4749C245.61 82.4749 245.643 82.5407 245.643 82.6065C245.676 82.7053 245.61 82.7382 245.544 82.7382Z" fill="black"/>
<path d="M244.524 88.9249C244.491 88.9249 244.425 88.892 244.425 88.8591C244.392 88.7932 244.425 88.7274 244.491 88.6945L245.84 88.0362C245.906 88.0033 245.972 88.0362 246.005 88.1021C246.038 88.1679 246.005 88.2337 245.939 88.2666L244.59 88.9249C244.557 88.9249 244.557 88.9249 244.524 88.9249Z" fill="black"/>
<path d="M73.5519 109.652C73.6177 107.512 72.6303 106.624 72.2025 104.55C71.4126 100.798 73.5519 99.1196 74.7697 98.8234C76.4812 98.4284 77.4685 99.712 79.18 99.6791C80.5624 99.6462 82.0105 98.4942 83.2941 98.955C84.3144 99.3171 85.4335 100.469 85.5651 101.654C85.7297 102.806 85.4664 103.991 85.1702 105.11C84.8739 106.229 84.3473 107.348 84.2486 108.533C84.1499 109.783 84.4132 111.067 84.2486 112.318C83.8866 115.51 83.2612 117.288 82.4384 117.189C81.451 117.189 81.2535 116.037 81.1219 115.148C80.8586 113.042 80.5624 111.462 80.0028 110.935C79.6408 110.573 79.1142 110.376 78.6534 110.573C76.8761 111.33 76.8432 114.852 76.6786 115.708C76.547 116.366 76.3495 117.353 75.7242 117.386C73.9469 117.485 73.4861 111.89 73.5519 109.652Z" fill="white"/>
<path d="M75.6898 117.55C75.4265 117.55 75.1632 117.419 74.9329 117.221C73.7151 116.036 73.353 111.725 73.4189 109.684C73.4518 108.433 73.1226 107.644 72.7606 106.722C72.4973 106.097 72.234 105.471 72.0694 104.616C71.6416 102.509 72.1353 101.127 72.6289 100.37C73.2543 99.4153 74.11 98.8887 74.7354 98.7571C75.7228 98.5267 76.5127 98.8229 77.2368 99.152C77.8292 99.3824 78.4216 99.6457 79.1457 99.6128C79.7052 99.6128 80.2647 99.4153 80.8243 99.2178C81.6471 98.9216 82.5028 98.6254 83.3256 98.9216C84.3459 99.2837 85.5308 100.469 85.6954 101.719C85.8599 102.904 85.5966 104.122 85.2675 105.241C85.1688 105.603 85.0371 105.965 84.9384 106.327C84.6751 107.084 84.4118 107.841 84.3788 108.631C84.3459 109.19 84.3789 109.783 84.4118 110.342C84.4447 111.034 84.4776 111.725 84.4118 112.416C84.1155 115.115 83.6219 116.76 82.9965 117.254C82.8319 117.386 82.6674 117.452 82.4699 117.419C81.318 117.419 81.1534 115.971 81.0546 115.279C80.8572 113.535 80.561 111.692 79.9685 111.132C79.6065 110.77 79.1128 110.639 78.7507 110.803C77.3355 111.396 77.0722 113.996 76.9405 115.246C76.9076 115.51 76.9076 115.707 76.8747 115.839C76.7101 116.695 76.4798 117.583 75.8215 117.616C75.7228 117.55 75.7228 117.55 75.6898 117.55ZM73.5505 109.651H73.6822C73.6163 111.659 73.9784 115.872 75.1303 116.991C75.3278 117.188 75.5253 117.287 75.7557 117.254C76.2494 117.221 76.4798 116.398 76.5785 115.674C76.6114 115.543 76.6114 115.345 76.6443 115.082C76.776 113.7 77.0393 111.099 78.6191 110.441C79.0799 110.244 79.6723 110.408 80.1002 110.836C80.5939 111.33 80.9559 112.58 81.2521 115.148C81.3838 116.168 81.6142 117.09 82.437 117.09C82.437 117.09 82.437 117.09 82.4699 117.09C82.6016 117.09 82.7003 117.057 82.8319 116.991C83.3915 116.563 83.8522 114.884 84.1485 112.317C84.2143 111.659 84.1814 110.935 84.1485 110.277C84.1156 109.717 84.0826 109.125 84.1155 108.532C84.1814 107.709 84.4447 106.919 84.708 106.162C84.8396 105.8 84.9384 105.438 85.0371 105.076C85.3333 103.99 85.5966 102.805 85.4321 101.653C85.2675 100.501 84.1814 99.4153 83.2269 99.0533C82.5028 98.79 81.7129 99.0533 80.8901 99.3495C80.2976 99.547 79.7052 99.7774 79.1457 99.7774C78.3558 99.7774 77.7304 99.547 77.138 99.2837C76.381 98.9875 75.6898 98.6912 74.7683 98.9216C73.4189 99.2508 71.5757 101.028 72.2998 104.484C72.4644 105.307 72.7277 105.932 72.991 106.557C73.353 107.479 73.7151 108.335 73.6822 109.618L73.5505 109.651Z" fill="black"/>
<path d="M79.64 100.864C79.3109 100.864 79.0147 100.831 78.7514 100.798C78.1919 100.732 77.6982 100.666 77.2703 100.337C77.2374 100.337 77.2374 100.304 77.2703 100.271C77.2703 100.239 77.3032 100.239 77.3361 100.271C77.7311 100.568 78.2248 100.634 78.7514 100.699C79.278 100.765 79.9033 100.831 80.4628 100.666C80.792 100.568 81.1211 100.37 81.4502 100.173C81.4831 100.173 81.4832 100.173 81.5161 100.173C81.5161 100.206 81.5161 100.206 81.5161 100.239C81.2198 100.436 80.8907 100.634 80.5287 100.732C80.1995 100.864 79.9033 100.864 79.64 100.864Z" fill="black"/>
<path d="M79.1121 95.3353C79.0463 95.3353 78.9805 95.2695 78.9805 95.2037C79.0463 94.2163 79.0463 93.2289 78.9805 92.2415C78.9805 92.1757 79.0134 92.1099 79.1121 92.1099C79.1779 92.1099 79.2438 92.1428 79.2438 92.2415C79.3096 93.2289 79.3096 94.2492 79.2438 95.2366C79.2438 95.3024 79.1779 95.3353 79.1121 95.3353Z" fill="black"/>
<path d="M85.0364 95.9621C85.0035 95.9621 84.9705 95.9621 84.9376 95.9292C84.9047 95.8634 84.9047 95.7976 84.9705 95.7646C85.563 95.2709 86.1225 94.7443 86.6162 94.1519C86.6491 94.0861 86.7478 94.0861 86.7808 94.1519C86.8466 94.1848 86.8466 94.2836 86.7808 94.3165C86.2871 94.9089 85.6946 95.4684 85.1022 95.9621C85.1022 95.9292 85.0693 95.9621 85.0364 95.9621Z" fill="black"/>
<path d="M88.492 100.799C88.4262 100.799 88.3933 100.766 88.3604 100.7C88.3604 100.634 88.3933 100.569 88.4591 100.569L90.4997 100.24C90.5655 100.24 90.6313 100.272 90.6313 100.338C90.6313 100.404 90.5984 100.47 90.5326 100.47L88.492 100.799Z" fill="black"/>
<path d="M89.4159 106.954C89.383 106.954 89.383 106.954 89.35 106.954L88.0006 106.296C87.9348 106.263 87.9019 106.197 87.9348 106.131C87.9677 106.065 88.0335 106.032 88.0994 106.065L89.4488 106.723C89.5146 106.756 89.5475 106.822 89.5146 106.888C89.5146 106.921 89.4488 106.954 89.4159 106.954Z" fill="black"/>
<path d="M72.9248 95.9251C72.8919 95.9251 72.859 95.9251 72.859 95.8921C72.2337 95.3985 71.6741 94.8389 71.1804 94.2465C71.1475 94.1807 71.1475 94.1148 71.1804 94.0819C71.2463 94.049 71.3121 94.049 71.345 94.0819C71.8387 94.6744 72.3982 95.201 72.9907 95.6947C73.0565 95.7276 73.0565 95.8263 73.0236 95.8592C72.9907 95.8921 72.9577 95.9251 72.9248 95.9251Z" fill="black"/>
<path d="M69.4701 100.765L67.3966 100.403C67.3308 100.403 67.2979 100.337 67.2979 100.271C67.2979 100.206 67.3637 100.173 67.4295 100.173L69.4701 100.502C69.5359 100.502 69.5688 100.568 69.5688 100.634C69.6018 100.732 69.5359 100.765 69.4701 100.765Z" fill="black"/>
<path d="M68.449 106.954C68.4161 106.954 68.3503 106.921 68.3503 106.888C68.3174 106.822 68.3503 106.756 68.4161 106.723L69.7656 106.065C69.8314 106.032 69.8972 106.065 69.9301 106.131C69.963 106.197 69.9301 106.263 69.8643 106.296L68.5149 106.954C68.482 106.954 68.482 106.954 68.449 106.954Z" fill="black"/>
<path d="M64.5377 172.751C64.6036 170.612 63.6162 169.723 63.1883 167.65C62.3984 163.898 64.5377 162.219 65.7555 161.923C67.467 161.528 68.4544 162.812 70.1659 162.779C71.5482 162.746 72.9964 161.594 74.28 162.055C75.3003 162.417 76.4193 163.569 76.551 164.753C76.7155 165.905 76.4522 167.09 76.156 168.209C75.8598 169.328 75.3332 170.447 75.2344 171.632C75.1357 172.883 75.399 174.167 75.2344 175.417C74.8724 178.61 74.2471 180.387 73.4242 180.288C72.4368 180.288 72.2394 179.136 72.1077 178.248C71.8444 176.141 71.5482 174.562 70.9887 174.035C70.6266 173.673 70.1 173.475 69.6392 173.673C67.8619 174.43 67.829 177.952 67.6645 178.807C67.5328 179.466 67.3353 180.453 66.71 180.486C64.9327 180.585 64.4719 174.989 64.5377 172.751Z" fill="white"/>
<path d="M66.6757 180.652C66.4124 180.652 66.1491 180.52 65.9187 180.323C64.7009 179.138 64.3389 174.826 64.4047 172.786C64.4376 171.535 64.1085 170.745 63.7464 169.824C63.4831 169.198 63.2198 168.573 63.0553 167.717C62.6274 165.611 63.1211 164.228 63.6148 163.471C64.2401 162.517 65.0959 161.99 65.7212 161.859C66.7086 161.628 67.4985 161.924 68.2226 162.254C68.815 162.484 69.4075 162.747 70.1315 162.714C70.6911 162.714 71.2506 162.517 71.8101 162.319C72.6329 162.023 73.4887 161.727 74.3115 162.023C75.3318 162.385 76.5166 163.57 76.6812 164.821C76.8458 166.006 76.5825 167.223 76.2533 168.342C76.1546 168.705 76.023 169.067 75.9242 169.429C75.6609 170.186 75.3976 170.943 75.3647 171.733C75.3318 172.292 75.3647 172.884 75.3976 173.444C75.4305 174.135 75.4634 174.826 75.3976 175.517C75.1014 178.216 74.6077 179.862 73.9824 180.356C73.8178 180.487 73.6532 180.553 73.4557 180.52C72.3038 180.52 72.1392 179.072 72.0405 178.381C71.843 176.637 71.5468 174.793 70.9544 174.234C70.5923 173.872 70.0986 173.74 69.7366 173.905C68.3213 174.497 68.058 177.097 67.9264 178.348C67.8935 178.611 67.8935 178.809 67.8605 178.94C67.696 179.796 67.4656 180.685 66.8073 180.718C66.7086 180.652 66.7086 180.652 66.6757 180.652ZM64.5363 172.753H64.668C64.6022 174.76 64.9642 178.973 66.1162 180.092C66.3136 180.29 66.5111 180.389 66.7415 180.356C67.2352 180.323 67.4656 179.5 67.5643 178.776C67.5972 178.644 67.5972 178.447 67.6302 178.183C67.7618 176.801 68.0251 174.201 69.6049 173.543C70.0657 173.345 70.6581 173.51 71.086 173.938C71.5797 174.431 71.9417 175.682 72.238 178.249C72.3696 179.27 72.6 180.191 73.4228 180.191C73.4228 180.191 73.4228 180.191 73.4557 180.191C73.5874 180.191 73.6861 180.158 73.8178 180.092C74.3773 179.665 74.8381 177.986 75.1343 175.419C75.2001 174.76 75.1672 174.036 75.1343 173.378C75.1014 172.819 75.0685 172.226 75.1014 171.634C75.1672 170.811 75.4305 170.021 75.6938 169.264C75.8255 168.902 75.9242 168.54 76.0229 168.178C76.3192 167.092 76.5825 165.907 76.4179 164.755C76.2533 163.603 75.1672 162.517 74.2127 162.155C73.4887 161.892 72.6987 162.155 71.8759 162.451C71.2835 162.649 70.6911 162.879 70.1315 162.879C69.3416 162.879 68.7163 162.649 68.1238 162.385C67.3669 162.089 66.6757 161.793 65.7541 162.023C64.4047 162.352 62.5616 164.13 63.2857 167.585C63.4502 168.408 63.7135 169.034 63.9768 169.659C64.3389 170.581 64.7009 171.436 64.668 172.72L64.5363 172.753Z" fill="black"/>
<path d="M70.6268 163.961C70.2977 163.961 70.0015 163.929 69.7382 163.896C69.1787 163.83 68.685 163.764 68.2571 163.435C68.2242 163.435 68.2242 163.402 68.2571 163.369C68.2571 163.336 68.29 163.336 68.3229 163.369C68.7179 163.665 69.2116 163.731 69.7382 163.797C70.2648 163.863 70.8901 163.929 71.4497 163.764C71.7788 163.665 72.1079 163.468 72.437 163.27C72.47 163.27 72.47 163.27 72.5029 163.27C72.5029 163.303 72.5029 163.303 72.5029 163.336C72.2067 163.534 71.8775 163.731 71.5155 163.83C71.1864 163.961 70.8901 163.961 70.6268 163.961Z" fill="black"/>
<path d="M70.1004 158.433C70.0346 158.433 69.9688 158.367 69.9688 158.301C70.0346 157.314 70.0346 156.326 69.9688 155.339C69.9688 155.273 70.0017 155.207 70.1004 155.207C70.1662 155.207 70.232 155.24 70.232 155.339C70.2979 156.326 70.2979 157.347 70.232 158.334C70.232 158.4 70.1662 158.433 70.1004 158.433Z" fill="black"/>
<path d="M76.0237 159.06C75.9908 159.06 75.9579 159.06 75.9249 159.027C75.892 158.961 75.892 158.895 75.9579 158.862C76.5503 158.368 77.1098 157.842 77.6035 157.249C77.6364 157.184 77.7352 157.184 77.7681 157.249C77.8339 157.282 77.8339 157.381 77.7681 157.414C77.2744 158.006 76.6819 158.566 76.0895 159.06C76.0895 159.027 76.0566 159.06 76.0237 159.06Z" fill="black"/>
<path d="M79.4798 163.899C79.414 163.899 79.3811 163.866 79.3481 163.8C79.3481 163.734 79.3811 163.668 79.4469 163.668L81.4875 163.339C81.5533 163.339 81.6191 163.372 81.6191 163.438C81.6191 163.504 81.5862 163.57 81.5204 163.57L79.4798 163.899Z" fill="black"/>
<path d="M80.4027 170.053C80.3698 170.053 80.3698 170.053 80.3369 170.053L78.9874 169.395C78.9216 169.362 78.8887 169.296 78.9216 169.231C78.9545 169.165 79.0203 169.132 79.0862 169.165L80.4356 169.823C80.5014 169.856 80.5343 169.922 80.5014 169.988C80.5014 170.021 80.4356 170.053 80.4027 170.053Z" fill="black"/>
<path d="M63.9126 159.028C63.8797 159.028 63.8468 159.028 63.8468 158.996C63.2215 158.502 62.6619 157.942 62.1682 157.35C62.1353 157.284 62.1353 157.218 62.1682 157.185C62.2341 157.152 62.2999 157.152 62.3328 157.185C62.8265 157.778 63.386 158.304 63.9784 158.798C64.0443 158.831 64.0443 158.93 64.0114 158.963C63.9785 158.996 63.9455 159.028 63.9126 159.028Z" fill="black"/>
<path d="M60.4555 163.863L58.3819 163.501C58.3161 163.501 58.2832 163.435 58.2832 163.369C58.2832 163.303 58.349 163.27 58.4149 163.27L60.4555 163.599C60.5213 163.599 60.5542 163.665 60.5542 163.731C60.5871 163.83 60.5213 163.863 60.4555 163.863Z" fill="black"/>
<path d="M59.4344 170.053C59.4015 170.053 59.3357 170.021 59.3357 169.988C59.3028 169.922 59.3357 169.856 59.4015 169.823L60.7509 169.165C60.8167 169.132 60.8826 169.165 60.9155 169.231C60.9484 169.296 60.9155 169.362 60.8497 169.395L59.5002 170.053C59.4673 170.053 59.4673 170.053 59.4344 170.053Z" fill="black"/>
<path d="M226.791 163.737C226.856 161.598 225.869 160.709 225.441 158.636C224.651 154.884 226.791 153.205 228.008 152.909C229.72 152.514 230.707 153.798 232.419 153.765C233.801 153.732 235.249 152.58 236.533 153.041C237.553 153.403 238.672 154.555 238.804 155.739C238.968 156.891 238.705 158.076 238.409 159.195C238.113 160.314 237.586 161.433 237.487 162.618C237.389 163.869 237.652 165.153 237.487 166.403C237.125 169.596 236.5 171.373 235.677 171.274C234.69 171.274 234.492 170.122 234.361 169.234C234.097 167.127 233.801 165.547 233.242 165.021C232.88 164.659 232.353 164.461 231.892 164.659C230.115 165.416 230.082 168.938 229.917 169.793C229.786 170.452 229.588 171.439 228.963 171.472C227.186 171.571 226.725 165.975 226.791 163.737Z" fill="white"/>
<path d="M228.929 171.636C228.665 171.636 228.402 171.504 228.172 171.307C226.954 170.122 226.592 165.81 226.658 163.77C226.691 162.519 226.361 161.729 225.999 160.808C225.736 160.182 225.473 159.557 225.308 158.701C224.88 156.595 225.374 155.212 225.868 154.455C226.493 153.501 227.349 152.974 227.974 152.843C228.962 152.612 229.751 152.908 230.476 153.238C231.068 153.468 231.66 153.731 232.384 153.698C232.944 153.698 233.504 153.501 234.063 153.303C234.886 153.007 235.742 152.711 236.564 153.007C237.585 153.369 238.77 154.554 238.934 155.805C239.099 156.99 238.835 158.207 238.506 159.326C238.408 159.689 238.276 160.051 238.177 160.413C237.914 161.17 237.651 161.927 237.618 162.717C237.585 163.276 237.618 163.868 237.651 164.428C237.683 165.119 237.716 165.81 237.651 166.501C237.354 169.2 236.861 170.846 236.235 171.34C236.071 171.471 235.906 171.537 235.709 171.504C234.557 171.504 234.392 170.056 234.293 169.365C234.096 167.621 233.8 165.777 233.207 165.218C232.845 164.856 232.352 164.724 231.99 164.889C230.574 165.481 230.311 168.081 230.179 169.332C230.146 169.595 230.146 169.793 230.113 169.924C229.949 170.78 229.719 171.669 229.06 171.702C228.962 171.636 228.962 171.636 228.929 171.636ZM226.789 163.737H226.921C226.855 165.745 227.217 169.957 228.369 171.076C228.567 171.274 228.764 171.373 228.994 171.34C229.488 171.307 229.719 170.484 229.817 169.76C229.85 169.628 229.85 169.431 229.883 169.167C230.015 167.785 230.278 165.185 231.858 164.527C232.319 164.329 232.911 164.494 233.339 164.922C233.833 165.415 234.195 166.666 234.491 169.233C234.623 170.254 234.853 171.175 235.676 171.175C235.676 171.175 235.676 171.175 235.709 171.175C235.84 171.175 235.939 171.142 236.071 171.076C236.63 170.649 237.091 168.97 237.387 166.403C237.453 165.744 237.42 165.02 237.387 164.362C237.354 163.803 237.321 163.21 237.354 162.618C237.42 161.795 237.683 161.005 237.947 160.248C238.078 159.886 238.177 159.524 238.276 159.162C238.572 158.076 238.835 156.891 238.671 155.739C238.506 154.587 237.42 153.501 236.466 153.139C235.742 152.876 234.952 153.139 234.129 153.435C233.536 153.633 232.944 153.863 232.384 153.863C231.595 153.863 230.969 153.633 230.377 153.369C229.62 153.073 228.929 152.777 228.007 153.007C226.658 153.336 224.815 155.114 225.539 158.569C225.703 159.392 225.966 160.018 226.23 160.643C226.592 161.565 226.954 162.42 226.921 163.704L226.789 163.737Z" fill="black"/>
<path d="M232.878 154.949C232.549 154.949 232.253 154.916 231.99 154.884C231.43 154.818 230.936 154.752 230.509 154.423C230.476 154.423 230.476 154.39 230.509 154.357C230.509 154.324 230.541 154.324 230.574 154.357C230.969 154.653 231.463 154.719 231.99 154.785C232.516 154.851 233.142 154.916 233.701 154.752C234.03 154.653 234.359 154.456 234.689 154.258C234.721 154.258 234.721 154.258 234.754 154.258C234.754 154.291 234.754 154.291 234.754 154.324C234.458 154.521 234.129 154.719 233.767 154.818C233.438 154.949 233.142 154.949 232.878 154.949Z" fill="black"/>
<path d="M232.352 149.421C232.286 149.421 232.22 149.355 232.22 149.289C232.286 148.302 232.286 147.314 232.22 146.327C232.22 146.261 232.253 146.195 232.352 146.195C232.418 146.195 232.484 146.228 232.484 146.327C232.549 147.314 232.549 148.335 232.484 149.322C232.484 149.388 232.418 149.421 232.352 149.421Z" fill="black"/>
<path d="M238.278 150.046C238.245 150.046 238.212 150.046 238.179 150.013C238.146 149.947 238.146 149.881 238.212 149.848C238.805 149.354 239.364 148.828 239.858 148.235C239.891 148.17 239.99 148.17 240.022 148.235C240.088 148.268 240.088 148.367 240.022 148.4C239.529 148.992 238.936 149.552 238.344 150.046C238.344 150.013 238.311 150.046 238.278 150.046Z" fill="black"/>
<path d="M241.732 154.881C241.666 154.881 241.633 154.848 241.601 154.782C241.601 154.716 241.633 154.65 241.699 154.65L243.74 154.321C243.806 154.321 243.872 154.354 243.872 154.42C243.872 154.486 243.839 154.552 243.773 154.552L241.732 154.881Z" fill="black"/>
<path d="M242.654 161.037C242.621 161.037 242.621 161.037 242.588 161.037L241.238 160.379C241.173 160.346 241.14 160.28 241.173 160.215C241.205 160.149 241.271 160.116 241.337 160.149L242.687 160.807C242.752 160.84 242.785 160.906 242.752 160.972C242.752 161.005 242.687 161.037 242.654 161.037Z" fill="black"/>
<path d="M226.164 150.015C226.131 150.015 226.098 150.015 226.098 149.982C225.473 149.488 224.913 148.928 224.42 148.336C224.387 148.27 224.387 148.204 224.42 148.171C224.486 148.139 224.551 148.139 224.584 148.171C225.078 148.764 225.637 149.29 226.23 149.784C226.296 149.817 226.296 149.916 226.263 149.949C226.23 149.982 226.197 150.015 226.164 150.015Z" fill="black"/>
<path d="M222.708 154.851L220.634 154.489C220.569 154.489 220.536 154.423 220.536 154.357C220.536 154.291 220.601 154.258 220.667 154.258L222.708 154.587C222.774 154.587 222.807 154.653 222.807 154.719C222.84 154.818 222.774 154.851 222.708 154.851Z" fill="black"/>
<path d="M221.688 161.037C221.655 161.037 221.589 161.005 221.589 160.972C221.556 160.906 221.589 160.84 221.655 160.807L223.004 160.149C223.07 160.116 223.136 160.149 223.169 160.215C223.202 160.28 223.169 160.346 223.103 160.379L221.754 161.037C221.721 161.037 221.721 161.037 221.688 161.037Z" fill="black"/>
</g>
<defs>
<clipPath id="clip0_1_7558">
<rect width="328" height="262.951" fill="white"/>
</clipPath>
</defs>
</svg>
