<svg width="59" height="70" viewBox="0 0 59 70" fill="none" xmlns="http://www.w3.org/2000/svg">
<path d="M57.9167 10.6836C57.9167 10.6836 59.751 22.5542 56.9128 35.86C58.995 24.9542 56.6525 11.3542 56.6525 11.3542C56.6525 11.3542 43.7133 4.49534 29.51 1.88357C25.5191 2.62475 21.5283 3.63651 17.8473 4.71886C8.57672 7.44828 1.31391 10.5895 1.09082 10.6836C10.1755 5.06004 29.4976 0.189453 29.4976 0.189453C29.4976 0.189453 48.8444 5.07181 57.9167 10.6836Z" fill="#9EC55B"/>
<path d="M56.6406 11.3554C56.6406 11.3554 58.983 24.9436 56.9009 35.8612C56.8885 35.9083 56.8885 35.9436 56.8761 35.9789C56.653 37.0142 56.4051 38.0612 56.12 39.1201C56.0457 39.4142 55.9589 39.6965 55.8722 39.9907C55.8722 39.9907 55.8722 39.9907 55.8722 40.0024C50.0842 59.9201 29.498 67.0848 29.498 67.0848C29.498 67.0848 8.98615 59.9318 3.14864 40.0848C3.13624 40.0495 3.12385 40.0142 3.11145 39.9789C-1.13964 25.1083 1.07886 10.6848 1.07886 10.6848C1.07886 10.6848 1.07886 10.6848 1.09125 10.6848C1.31434 10.5906 8.57715 7.44947 17.8354 4.72006C21.5164 3.63771 25.5072 2.61418 29.498 1.88477C43.7138 4.5083 56.6406 11.3554 56.6406 11.3554ZM41.5449 57.8612C59.1441 42.2259 54.6452 13.0495 54.6452 13.0495C46.6139 8.073 29.498 3.75535 29.498 3.75535C29.498 3.75535 12.3821 8.073 4.35084 13.0495C4.35084 13.0495 1.69855 30.3201 8.478 45.4142C10.5106 49.9318 13.3984 54.2612 17.4512 57.8612L17.4636 57.873C20.686 60.7318 24.6396 63.1318 29.4856 64.8259C34.3564 63.1318 38.3101 60.7318 41.5449 57.8612C41.5325 57.873 41.5325 57.873 41.5449 57.8612Z" fill="#88AA4E"/>
<path d="M54.6461 13.0488C54.6461 13.0488 59.1327 42.2253 41.5458 57.8606C53.9396 46.2135 53.9892 23.5077 53.6422 16.0018C54.3115 14.1665 54.6461 13.0488 54.6461 13.0488Z" fill="#223C5F"/>
<path d="M55.8718 39.9883C52.5255 51.6942 45.1388 63.6942 29.4977 69.1295C13.8938 63.7059 6.51945 51.7648 3.14832 40.0824C8.97344 59.9295 29.4977 67.0706 29.4977 67.0706C29.4977 67.0706 50.0963 59.9059 55.8718 39.9883Z" fill="#9EC55B"/>
<path d="M54.6461 13.048C54.6461 13.048 54.3114 14.1657 53.6422 16.001C53.5678 14.4363 53.481 13.5304 53.481 13.5304C44.5946 8.47155 29.5113 5.48332 29.5113 5.48332C29.5113 5.48332 14.7502 8.87155 5.86377 13.9304C5.86377 13.9304 3.88075 31.448 9.68109 45.9657C9.28448 45.7892 8.88788 45.601 8.49127 45.401C1.69943 30.3186 4.36411 13.048 4.36411 13.048C12.3953 8.07155 29.5113 3.75391 29.5113 3.75391C29.5113 3.75391 46.6148 8.07155 54.6461 13.048Z" fill="#0B4E82"/>
<path d="M53.6288 16C53.9759 23.5059 53.9263 46.2118 41.5324 57.8588C41.5324 57.8588 41.5324 57.8588 41.52 57.8706C38.2976 60.7294 34.344 63.1294 29.4856 64.8235C24.6272 63.1294 20.6735 60.7294 17.4635 57.8706L17.4511 57.8588C13.9437 54.5647 11.4401 50.4118 9.68018 45.9647C35.9304 57.6824 49.9355 26.0588 53.6288 16Z" fill="#0B4E82"/>
<path d="M28.3085 8.32948C27.949 8.3883 16.1996 10.4236 7.30084 16.0118C7.30084 16.0118 6.21018 34.5648 9.75483 41.306C9.75483 41.306 7.31324 28.553 9.75483 17.8942C9.75483 17.8942 10.1886 14.3648 28.3085 8.32948ZM53.468 13.5295C53.468 13.5295 53.5548 14.4354 53.6291 16.0001C49.9234 26.0589 35.9307 57.6707 9.68047 45.9648C3.88013 31.4471 5.86315 13.9295 5.86315 13.9295C14.7496 8.87066 29.4983 5.48242 29.4983 5.48242C29.4983 5.48242 44.594 8.48242 53.468 13.5295Z" fill="#116EB6"/>
<path d="M7.30037 16.0124C16.1868 10.4242 27.9362 8.3889 28.308 8.33008C10.1881 14.3654 9.75436 17.8948 9.75436 17.8948C7.31277 28.5654 9.75436 41.3065 9.75436 41.3065C6.20971 34.5654 7.30037 16.0124 7.30037 16.0124Z" fill="#0C5893"/>
<path d="M9.67962 45.967C11.4519 50.4023 13.9555 54.567 17.4506 57.8611C13.3978 54.2611 10.51 49.9317 8.47742 45.4141C8.89881 45.6023 9.29541 45.7905 9.67962 45.967Z" fill="#223C5F"/>
<path d="M19.6775 35.3935C19.8046 31.2601 17.8969 29.5432 17.0702 25.537C15.544 18.2876 19.6775 15.0445 22.0303 14.4722C25.337 13.7091 27.2448 16.1891 30.5515 16.1255C33.2223 16.0619 36.0203 13.8363 38.5003 14.7265C40.4716 15.426 42.6337 17.6517 42.8881 19.941C43.206 22.1666 42.6973 24.4559 42.125 26.618C41.5527 28.7801 40.5352 30.9422 40.3445 33.2314C40.1537 35.6479 40.6624 38.1279 40.3445 40.5444C39.645 46.7127 38.4367 50.1466 36.847 49.9558C34.9392 49.9558 34.5577 47.7301 34.3033 46.0132C33.7946 41.9434 33.2223 38.891 32.1412 37.8736C31.4418 37.1741 30.4243 36.7925 29.534 37.1741C26.1001 38.6367 26.0365 45.4409 25.7186 47.0942C25.4642 48.366 25.0827 50.2738 23.8744 50.3374C20.4405 50.5281 19.5503 39.7177 19.6775 35.3935Z" fill="white"/>
<path d="M23.8105 50.6578C23.3018 50.6578 22.7931 50.4034 22.3479 50.0219C19.9951 47.7326 19.2956 39.4022 19.4227 35.4596C19.4863 33.0431 18.8504 31.517 18.1509 29.7364C17.6422 28.5282 17.1335 27.32 16.8155 25.6666C15.9888 21.5968 16.9427 18.926 17.8966 17.4634C19.1048 15.6193 20.7581 14.6018 21.9664 14.3475C23.8741 13.9023 25.4003 14.4746 26.7993 15.1105C27.9439 15.5557 29.0885 16.0644 30.4875 16.0008C31.5686 16.0008 32.6496 15.6193 33.7307 15.2377C35.3204 14.6654 36.9738 14.0931 38.5636 14.6654C40.5349 15.3649 42.8241 17.6542 43.1421 20.0706C43.46 22.3599 42.9513 24.7127 42.3154 26.8748C42.1246 27.5743 41.8703 28.2738 41.6795 28.9733C41.1708 30.4359 40.662 31.8985 40.5985 33.4247C40.5349 34.5057 40.5985 35.6504 40.6621 36.7314C40.7256 38.0668 40.7892 39.4022 40.6621 40.7376C40.0897 45.9521 39.1359 49.1316 37.9277 50.0855C37.6097 50.3398 37.2917 50.467 36.9102 50.4034C34.6845 50.4034 34.3666 47.6054 34.1758 46.27C33.7942 42.8997 33.2219 39.3386 32.0773 38.2576C31.3778 37.5581 30.4239 37.3037 29.7244 37.6217C26.99 38.7663 26.4813 43.79 26.2269 46.2064C26.1633 46.7152 26.1634 47.0967 26.0998 47.3511C25.7818 49.0044 25.3367 50.7214 24.0649 50.785C23.8741 50.6578 23.8741 50.6578 23.8105 50.6578ZM19.6771 35.396H19.9315C19.8043 39.275 20.5038 47.4146 22.7294 49.5767C23.111 49.9583 23.4925 50.1491 23.9377 50.0855C24.8915 50.0219 25.3367 48.4321 25.5275 47.0331C25.591 46.7787 25.591 46.3972 25.6546 45.8885C25.909 43.2177 26.4177 38.194 29.4701 36.9222C30.3603 36.5406 31.505 36.8586 32.3317 37.6853C33.2855 38.6391 33.985 41.0556 34.5573 46.0157C34.8117 47.987 35.2568 49.7675 36.8466 49.7675C36.8466 49.7675 36.8466 49.7675 36.9102 49.7675C37.1646 49.7675 37.3553 49.7039 37.6097 49.5767C38.6907 48.7501 39.581 45.5069 40.1533 40.5468C40.2805 39.275 40.2169 37.876 40.1533 36.6042C40.0897 35.5232 40.0261 34.3785 40.0897 33.2339C40.2169 31.6441 40.7256 30.118 41.2344 28.6554C41.4887 27.9559 41.6795 27.2564 41.8703 26.5569C42.4426 24.4584 42.9513 22.1691 42.6334 19.9434C42.3154 17.7178 40.2169 15.6193 38.3728 14.9198C36.9738 14.411 35.4476 14.9198 33.8578 15.4921C32.7132 15.8736 31.5686 16.3188 30.4875 16.3188C28.9613 16.3188 27.7531 15.8736 26.6085 15.3649C25.1459 14.7926 23.8105 14.2203 22.03 14.6654C19.4227 15.3013 15.8617 18.7352 17.2607 25.4122C17.5786 27.002 18.0873 28.2102 18.596 29.4185C19.2955 31.199 19.995 32.8524 19.9315 35.3324L19.6771 35.396Z" fill="#003350"/>
<path d="M30.7144 18.7192C30.0785 18.7192 29.5061 18.6556 28.9974 18.592C27.9164 18.4648 26.9625 18.3377 26.1358 17.7017C26.0722 17.7017 26.0722 17.6382 26.1358 17.5746C26.1358 17.511 26.1994 17.511 26.263 17.5746C27.0261 18.1469 27.98 18.2741 28.9974 18.4012C30.0149 18.5284 31.2231 18.6556 32.3041 18.3377C32.94 18.1469 33.576 17.7653 34.2119 17.3838C34.2755 17.3838 34.2755 17.3838 34.3391 17.3838C34.3391 17.4474 34.3391 17.4474 34.3391 17.511C33.7667 17.8925 33.1308 18.2741 32.4313 18.4648C31.7954 18.7192 31.2231 18.7192 30.7144 18.7192Z" fill="#003350"/>
</svg>
