<svg width="68" height="71" viewBox="0 0 68 71" fill="none" xmlns="http://www.w3.org/2000/svg">
<g id="Group 48446" filter="url(#filter0_d_1_7251)">
<g id="Group 48445">
<g id="Group">
<path id="Vector" d="M48.2235 32.5792L65.2376 55.0823L53.0575 55.7601L53.0952 55.7331L49.131 67.2682L32.1102 44.7613L48.2235 32.5792Z" fill="#0B4E82"/>
<path id="Vector_2" d="M36.1024 45.0811L18.7695 67.3471L14.9603 55.7579L14.9981 55.7849L2.82999 54.9361L20.1615 32.6754L36.1024 45.0811Z" fill="#0B4E82"/>
<path id="Vector_3" d="M57.4586 24.802C57.4586 26.0233 55.9688 27.1105 55.7854 28.2781C55.5975 29.4771 56.6757 30.9714 56.3088 32.0988C55.9375 33.2485 54.1837 33.8212 53.6379 34.886C53.0921 35.9597 53.6514 37.7134 52.949 38.6798C52.2421 39.6506 50.3989 39.655 49.5489 40.5051C48.6988 41.3551 48.6944 43.1983 47.7235 43.9052C46.7572 44.6076 44.999 44.0483 43.9297 44.5941C42.8694 45.1355 42.2923 46.8892 41.1426 47.265C40.0107 47.6318 38.5209 46.5537 37.3219 46.7416C36.1542 46.925 35.0671 48.4148 33.8458 48.4148C32.6244 48.4148 31.5373 46.925 30.3696 46.7416C29.1706 46.5537 27.6763 47.6318 26.5489 47.265C25.3992 46.8937 24.8265 45.1399 23.7618 44.5941C22.688 44.0483 20.9343 44.6076 19.9679 43.9052C18.9971 43.1983 18.9927 41.3551 18.1426 40.5051C17.2926 39.655 15.4494 39.6506 14.7425 38.6798C14.0401 37.7134 14.5994 35.9552 14.0536 34.886C13.5122 33.8257 11.7585 33.2485 11.3827 32.0988C11.0158 30.9669 12.094 29.4771 11.9061 28.2781C11.7227 27.1105 10.2329 26.0233 10.2329 24.802C10.2329 23.5806 11.7227 22.4935 11.9061 21.3258C12.094 20.1269 11.0158 18.6326 11.3827 17.5052C11.754 16.3554 13.5077 15.7828 14.0536 14.718C14.5994 13.6443 14.0401 11.8906 14.7425 10.9242C15.4494 9.95341 17.2926 9.94893 18.1426 9.09891C18.9927 8.24888 18.9971 6.40567 19.9679 5.69881C20.9343 4.99642 22.6925 5.55565 23.7618 5.00985C24.822 4.46851 25.3992 2.71478 26.5489 2.33898C27.6808 1.97213 29.1706 3.05032 30.3696 2.86242C31.5373 2.67899 32.6244 1.18921 33.8458 1.18921C35.0671 1.18921 36.1542 2.67899 37.3219 2.86242C38.5209 3.05032 40.0152 1.97213 41.1426 2.33898C42.2923 2.71031 42.865 4.46404 43.9297 5.00985C45.0035 5.55565 46.7572 4.99642 47.7235 5.69881C48.6944 6.40567 48.6988 8.24888 49.5489 9.09891C50.3989 9.94893 52.2421 9.95341 52.949 10.9242C53.6514 11.8906 53.0921 13.6488 53.6379 14.718C54.1793 15.7783 55.933 16.3554 56.3088 17.5052C56.6757 18.6371 55.5975 20.1269 55.7854 21.3258C55.9688 22.4935 57.4586 23.5851 57.4586 24.802Z" fill="#116EB6"/>
<path id="Vector_4" d="M33.8419 42.4423C43.5844 42.4423 51.4822 34.5445 51.4822 24.8021C51.4822 15.0597 43.5844 7.16187 33.8419 7.16187C24.0995 7.16187 16.2017 15.0597 16.2017 24.8021C16.2017 34.5445 24.0995 42.4423 33.8419 42.4423Z" fill="white"/>
</g>
</g>
<g id="Vector_5" filter="url(#filter1_d_1_7251)">
<path d="M37.5627 16.8172C36.728 15.916 35.5621 15.4197 34.2753 15.4197C32.9816 15.4197 31.8119 15.913 30.981 16.8086C30.1411 17.7141 29.7319 18.9447 29.828 20.2736C30.0185 22.8953 32.0135 25.028 34.2753 25.028C36.5371 25.028 38.5287 22.8957 38.7221 20.2745C38.8195 18.9576 38.4077 17.7295 37.5627 16.8172ZM41.8247 34.6363H26.7259C26.5283 34.6389 26.3325 34.5974 26.153 34.5148C25.9734 34.4322 25.8145 34.3106 25.6878 34.1589C25.409 33.8256 25.2967 33.3705 25.3799 32.9103C25.7419 30.902 26.8717 29.2149 28.6476 28.0306C30.2252 26.9793 32.2237 26.4006 34.2753 26.4006C36.3269 26.4006 38.3254 26.9797 39.903 28.0306C41.6788 29.2145 42.8087 30.9015 43.1707 32.9098C43.2539 33.3701 43.1415 33.8252 42.8627 34.1585C42.7361 34.3103 42.5772 34.4319 42.3977 34.5146C42.2181 34.5973 42.0224 34.6388 41.8247 34.6363Z" fill="#84A54C"/>
</g>
</g>
<defs>
<filter id="filter0_d_1_7251" x="1.00449" y="0.324455" width="66.0589" height="69.8091" filterUnits="userSpaceOnUse" color-interpolation-filters="sRGB">
<feFlood flood-opacity="0" result="BackgroundImageFix"/>
<feColorMatrix in="SourceAlpha" type="matrix" values="0 0 0 0 0 0 0 0 0 0 0 0 0 0 0 0 0 0 127 0" result="hardAlpha"/>
<feOffset dy="0.960838"/>
<feGaussianBlur stdDeviation="0.912796"/>
<feComposite in2="hardAlpha" operator="out"/>
<feColorMatrix type="matrix" values="0 0 0 0 0 0 0 0 0 0 0 0 0 0 0 0 0 0 0.25 0"/>
<feBlend mode="normal" in2="BackgroundImageFix" result="effect1_dropShadow_1_7251"/>
<feBlend mode="normal" in="SourceGraphic" in2="effect1_dropShadow_1_7251" result="shape"/>
</filter>
<filter id="filter1_d_1_7251" x="24.0079" y="15.0353" width="20.5351" height="21.9071" filterUnits="userSpaceOnUse" color-interpolation-filters="sRGB">
<feFlood flood-opacity="0" result="BackgroundImageFix"/>
<feColorMatrix in="SourceAlpha" type="matrix" values="0 0 0 0 0 0 0 0 0 0 0 0 0 0 0 0 0 0 127 0" result="hardAlpha"/>
<feOffset dy="0.960838"/>
<feGaussianBlur stdDeviation="0.672587"/>
<feComposite in2="hardAlpha" operator="out"/>
<feColorMatrix type="matrix" values="0 0 0 0 0 0 0 0 0 0 0 0 0 0 0 0 0 0 0.25 0"/>
<feBlend mode="normal" in2="BackgroundImageFix" result="effect1_dropShadow_1_7251"/>
<feBlend mode="normal" in="SourceGraphic" in2="effect1_dropShadow_1_7251" result="shape"/>
</filter>
</defs>
</svg>
