<svg width="105" height="71" viewBox="0 0 105 71" fill="none" xmlns="http://www.w3.org/2000/svg">
<path d="M100.356 40.061L104.528 42.7315L92.5947 47.822L100.356 40.061Z" fill="#0B4E82"/>
<path d="M94.2617 24.04L103.608 28.9636L89.7554 46.8222L94.2617 24.04Z" fill="#9EC55B"/>
<path d="M91.258 53.6673H22.8279L6.97217 33.5557H75.4857L91.258 53.6673Z" fill="#0B4E82"/>
<g filter="url(#filter0_d_1_7135)">
<path d="M99.521 50.4944H38.0174L22.1616 68.6867H83.7487L99.521 50.4944Z" fill="#9EC55B"/>
</g>
<path d="M43.6732 17.5378C43.6581 17.6198 43.5911 17.5226 43.6063 17.4406C47.8575 12.7936 52.0266 8.13143 57.4419 3.61421L58.8411 5.22994C54.0672 9.95029 48.6758 13.8779 43.6732 17.5378Z" fill="#0B4E82"/>
<path d="M59.8689 24.5156L59.8433 22.8137C58.1199 22.4959 56.2084 22.7374 54.4094 22.83C51.498 22.972 48.6018 23.032 45.7119 23.5174C45.6299 23.5023 45.6968 23.5995 45.6968 23.5995C48.5692 24.1291 51.5172 24.2484 54.4501 24.4498C56.1369 24.5063 58.0396 24.7722 59.8689 24.5156Z" fill="#0B4E82"/>
<path d="M45.5554 1.3398L44.0567 0.724007C43.1126 2.16223 42.6156 3.93745 41.9846 5.51826C40.9929 8.13569 39.919 10.738 39.3224 13.5132C39.3224 13.5132 39.3894 13.6104 39.4045 13.5283C40.9405 11.1809 42.1785 8.60889 43.4013 6.11892C44.2785 4.5835 45.1556 3.04808 45.5554 1.3398Z" fill="#0B4E82"/>
<path d="M39.1664 45.5414C39.1678 45.8589 39.0897 46.1503 38.9321 46.4156C38.7745 46.6809 38.5637 46.8935 38.2998 47.0534C38.0359 47.2134 37.7452 47.294 37.4277 47.2954L33.8952 47.3109C33.7276 47.3116 33.5818 47.2549 33.4579 47.1408C33.3427 47.0178 33.2847 46.8725 33.284 46.7049L33.2501 38.9785C33.2494 38.8021 33.3061 38.6564 33.4202 38.5412C33.5432 38.426 33.6885 38.368 33.8561 38.3673L37.3885 38.3518C37.706 38.3504 37.9974 38.4286 38.2627 38.5862C38.528 38.7438 38.7406 38.9545 38.9006 39.2184C39.0605 39.4823 39.1412 39.7775 39.1426 40.1038L39.1664 45.5414ZM37.592 45.5483L37.5682 40.1107C37.5677 39.9872 37.5101 39.9257 37.3954 39.9262L35.014 39.9366C34.8993 39.9371 34.8422 39.9947 34.8427 40.1094L34.8667 45.5734C34.8672 45.6881 34.9247 45.7452 35.0394 45.7447L37.4208 45.7342C37.4649 45.7341 37.5045 45.7162 37.5397 45.6808C37.5748 45.6366 37.5922 45.5924 37.592 45.5483ZM45.9897 46.6493C45.9905 46.8169 45.9294 46.9627 45.8064 47.0867C45.6923 47.2019 45.5558 47.2598 45.3971 47.2605L40.8459 47.2804C40.6871 47.2811 40.5458 47.2244 40.4218 47.1103C40.3066 46.9873 40.2486 46.842 40.2479 46.6745L40.2141 38.9481C40.2133 38.7717 40.27 38.6259 40.3841 38.5107C40.5071 38.3955 40.648 38.3376 40.8067 38.3369L45.3579 38.317C45.5167 38.3163 45.6536 38.373 45.7688 38.4872C45.8928 38.6013 45.9552 38.7465 45.9559 38.9229L45.9575 39.2802C45.9582 39.4477 45.8971 39.5935 45.7742 39.7176C45.66 39.8327 45.5236 39.8907 45.3648 39.8913L41.9514 39.9063C41.8456 39.9067 41.7929 39.9643 41.7934 40.079L41.8011 41.8386C41.8017 41.9621 41.8548 42.0236 41.9607 42.0231L44.8978 42.0103C45.0742 42.0095 45.22 42.0662 45.3351 42.1803C45.4503 42.2945 45.5082 42.4354 45.509 42.6029L45.5106 42.9734C45.5113 43.141 45.4546 43.2868 45.3405 43.4107C45.2264 43.5259 45.0811 43.5839 44.9047 43.5846L41.9676 43.5975C41.8617 43.598 41.8091 43.6511 41.8095 43.7569L41.8173 45.543C41.8178 45.6577 41.871 45.7148 41.9768 45.7143L45.3902 45.6994C45.549 45.6987 45.6859 45.7554 45.8011 45.8696C45.9251 45.9837 45.9875 46.129 45.9882 46.3054L45.9897 46.6493ZM53.1032 46.6182C53.1039 46.7858 53.0428 46.9316 52.9199 47.0556C52.8057 47.1708 52.6649 47.2287 52.4973 47.2295L52.1136 47.2311C51.8755 47.2322 51.6986 47.1315 51.5831 46.9292L48.7437 42.0596C48.7259 42.0244 48.6994 42.0157 48.6642 42.0335C48.629 42.0424 48.6114 42.0602 48.6115 42.0866L48.6314 46.6378C48.6322 46.8054 48.5711 46.9512 48.4481 47.0752C48.334 47.1903 48.1975 47.2483 48.0387 47.249L47.6683 47.2506C47.5007 47.2513 47.3549 47.1946 47.2309 47.0805C47.1157 46.9575 47.0578 46.8123 47.057 46.6447L47.0232 38.9183C47.0225 38.7419 47.0791 38.5961 47.1933 38.4809C47.3163 38.3657 47.4616 38.3078 47.6292 38.307L48.0128 38.3053C48.251 38.3043 48.4278 38.405 48.5434 38.6073L51.3827 43.4769C51.4094 43.5121 51.4359 43.5252 51.4623 43.5163C51.4975 43.5073 51.5151 43.4851 51.5149 43.4499L51.495 38.8987C51.4942 38.7223 51.5509 38.5765 51.6651 38.4614C51.7881 38.3462 51.9334 38.2882 52.1009 38.2875L52.4581 38.2859C52.6257 38.2852 52.7671 38.3419 52.8823 38.456C53.0062 38.5702 53.0686 38.7154 53.0694 38.8918L53.1032 46.6182ZM60.0441 39.2185C60.0448 39.3861 59.9881 39.5319 59.874 39.6559C59.7598 39.771 59.6145 39.829 59.4381 39.8298L58.049 39.8358C57.9343 39.8363 57.8772 39.8939 57.8777 40.0086L57.9066 46.5972C57.9073 46.7648 57.8462 46.9106 57.7233 47.0346C57.6091 47.1498 57.4682 47.2077 57.3007 47.2084L56.9567 47.2099C56.7891 47.2107 56.6433 47.154 56.5193 47.0399C56.4041 46.9169 56.3462 46.7716 56.3454 46.604L56.3166 40.0154C56.3161 39.9008 56.2585 39.8437 56.1438 39.8442L54.7414 39.8503C54.5739 39.851 54.4281 39.7944 54.3041 39.6802C54.1889 39.5573 54.1309 39.412 54.1302 39.2444L54.1286 38.8872C54.1279 38.7108 54.1846 38.565 54.2987 38.4498C54.4217 38.3346 54.567 38.2767 54.7346 38.2759L59.4313 38.2554C59.6077 38.2546 59.7534 38.3113 59.8686 38.4255C59.9838 38.5396 60.0417 38.6849 60.0425 38.8613L60.0441 39.2185ZM66.6609 46.3737C66.7147 46.5763 66.6847 46.7616 66.5707 46.9297C66.4568 47.089 66.2939 47.1691 66.0823 47.17L65.6986 47.1717C65.5751 47.1722 65.4559 47.1331 65.3409 47.0542C65.2347 46.9753 65.1593 46.8786 65.1147 46.7641L64.6053 45.2448C64.5695 45.1303 64.4943 45.0733 64.3796 45.0738L62.1172 45.0837C62.0026 45.0842 61.9279 45.1419 61.8931 45.2567L61.397 46.7804C61.3534 46.8952 61.2789 46.9926 61.1734 47.0724C61.0679 47.1523 60.949 47.1925 60.8167 47.1931L60.433 47.1947C60.2213 47.1957 60.0578 47.117 59.9424 46.9587C59.8182 46.7829 59.7909 46.5978 59.8606 46.4034L62.3934 38.6526C62.437 38.5289 62.5071 38.4316 62.6038 38.3606C62.7093 38.2807 62.8238 38.2405 62.9473 38.24L63.4897 38.2376C63.6132 38.2371 63.728 38.2763 63.8342 38.3552C63.9404 38.4253 64.0113 38.522 64.0472 38.6453L66.6609 46.3737ZM63.9751 43.3424L63.3047 41.3211C63.2604 41.2596 63.2119 41.2598 63.1592 41.3217L62.5066 43.3488C62.4891 43.393 62.4937 43.4327 62.5203 43.4679C62.5469 43.503 62.5823 43.5205 62.6264 43.5203L63.8568 43.5149C63.9009 43.5147 63.9361 43.4969 63.9624 43.4616C63.9887 43.4262 63.9929 43.3864 63.9751 43.3424ZM73.4836 46.529C73.4843 46.6966 73.4232 46.8424 73.3003 46.9664C73.1861 47.0816 73.0497 47.1395 72.8909 47.1402L68.3398 47.1601C68.181 47.1608 68.0396 47.1041 67.9156 46.99C67.8004 46.867 67.7425 46.7217 67.7417 46.5542L67.7079 38.8278C67.7071 38.6514 67.7638 38.5056 67.878 38.3904C68.001 38.2752 68.1418 38.2173 68.3006 38.2166L68.6711 38.2149C68.8386 38.2142 68.98 38.2709 69.0952 38.3851C69.2192 38.4992 69.2815 38.6445 69.2823 38.8209L69.3112 45.4227C69.3117 45.5374 69.3649 45.5945 69.4707 45.594L72.8841 45.5791C73.0428 45.5784 73.1798 45.6351 73.295 45.7493C73.419 45.8634 73.4813 46.0086 73.4821 46.185L73.4836 46.529Z" fill="white"/>
<path d="M47.8821 62.2315C47.8835 62.549 47.8054 62.8404 47.6478 63.1057C47.4902 63.371 47.2794 63.5836 47.0155 63.7435C46.7516 63.9035 46.4609 63.9841 46.1434 63.9855L43.6032 63.9966C43.2857 63.998 42.9899 63.9199 42.7157 63.7624C42.4504 63.6048 42.2378 63.394 42.0779 63.1301C41.918 62.8662 41.8373 62.5755 41.8359 62.2579L41.8121 56.8204C41.8107 56.494 41.8888 56.1982 42.0464 55.9329C42.204 55.6676 42.4148 55.455 42.6787 55.2951C42.9514 55.1351 43.2465 55.0544 43.5641 55.0531L46.1042 55.0419C46.4218 55.0405 46.7132 55.1187 46.9785 55.2763C47.2438 55.4339 47.4564 55.6446 47.6163 55.9085C47.7762 56.1724 47.8569 56.4676 47.8583 56.7939L47.8821 62.2315ZM46.3077 62.2384L46.2839 56.8008C46.2834 56.6773 46.2258 56.6158 46.1111 56.6163L43.5709 56.6274C43.5268 56.6276 43.4828 56.6455 43.4389 56.6809C43.4037 56.7164 43.3863 56.7606 43.3865 56.8135L43.4103 62.2511C43.4105 62.2952 43.4284 62.3392 43.4638 62.3831C43.5081 62.4182 43.5523 62.4357 43.5964 62.4355L46.1365 62.4244C46.1806 62.4242 46.2203 62.4063 46.2554 62.3709C46.2905 62.3267 46.3079 62.2825 46.3077 62.2384ZM54.6692 55.9703C54.6699 56.1379 54.6088 56.2837 54.4859 56.4077C54.3717 56.5228 54.2353 56.5808 54.0765 56.5815L50.6631 56.5964C50.5573 56.5969 50.5046 56.6544 50.5051 56.7691L50.5128 58.5287C50.5134 58.6522 50.5665 58.7137 50.6724 58.7132L53.6095 58.7004C53.7859 58.6996 53.9317 58.7563 54.0468 58.8705C54.162 58.9846 54.2199 59.1255 54.2207 59.2931L54.2223 59.6635C54.223 59.8311 54.1663 59.9769 54.0522 60.1009C53.938 60.216 53.7928 60.274 53.6164 60.2748L50.6793 60.2876C50.5734 60.2881 50.5207 60.3412 50.5212 60.4471L50.5339 63.3577C50.5347 63.5253 50.4736 63.6711 50.3506 63.7951C50.2365 63.9103 50.0956 63.9682 49.928 63.9689L49.5576 63.9706C49.3988 63.9713 49.2574 63.9146 49.1335 63.8004C49.0183 63.6774 48.9603 63.5322 48.9596 63.3646L48.9257 55.6382C48.925 55.4618 48.9817 55.316 49.0958 55.2008C49.2188 55.0856 49.3597 55.0277 49.5184 55.027L54.0696 55.0071C54.2284 55.0064 54.3653 55.0631 54.4805 55.1773C54.6045 55.2914 54.6668 55.4367 54.6676 55.6131L54.6692 55.9703ZM61.4651 55.9405C61.4659 56.1081 61.4048 56.2539 61.2818 56.3779C61.1677 56.4931 61.0312 56.551 60.8724 56.5517L57.4591 56.5667C57.3532 56.5671 57.3006 56.6247 57.3011 56.7394L57.3088 58.499C57.3093 58.6224 57.3625 58.684 57.4683 58.6835L60.4054 58.6706C60.5818 58.6699 60.7276 58.7266 60.8428 58.8407C60.9579 58.9549 61.0159 59.0957 61.0166 59.2633L61.0182 59.6338C61.019 59.8014 60.9623 59.9471 60.8482 60.0711C60.734 60.1863 60.5887 60.2442 60.4123 60.245L57.4752 60.2579C57.3694 60.2583 57.3167 60.3115 57.3172 60.4173L57.3299 63.328C57.3306 63.4955 57.2695 63.6413 57.1466 63.7654C57.0324 63.8805 56.8916 63.9385 56.724 63.9392L56.3535 63.9408C56.1948 63.9415 56.0534 63.8848 55.9294 63.7707C55.8142 63.6477 55.7562 63.5024 55.7555 63.3348L55.7217 55.6085C55.7209 55.432 55.7776 55.2863 55.8918 55.1711C56.0148 55.0559 56.1556 54.998 56.3144 54.9973L60.8655 54.9773C61.0243 54.9766 61.1613 55.0334 61.2764 55.1475C61.4004 55.2617 61.4628 55.4069 61.4636 55.5833L61.4651 55.9405ZM68.2933 63.28C68.2941 63.4476 68.233 63.5934 68.11 63.7174C67.9959 63.8326 67.8594 63.8905 67.7006 63.8912L63.1495 63.9111C62.9907 63.9118 62.8493 63.8551 62.7254 63.741C62.6102 63.618 62.5522 63.4727 62.5515 63.3051L62.5176 55.5787C62.5169 55.4023 62.5736 55.2565 62.6877 55.1414C62.8107 55.0262 62.9516 54.9682 63.1103 54.9675L67.6615 54.9476C67.8203 54.9469 67.9572 55.0036 68.0724 55.1178C68.1964 55.2319 68.2587 55.3772 68.2595 55.5536L68.2611 55.9108C68.2618 56.0784 68.2007 56.2242 68.0778 56.3482C67.9636 56.4634 67.8271 56.5213 67.6684 56.522L64.255 56.5369C64.1492 56.5374 64.0965 56.595 64.097 56.7096L64.1047 58.4692C64.1052 58.5927 64.1584 58.6542 64.2643 58.6537L67.2014 58.6409C67.3778 58.6401 67.5235 58.6968 67.6387 58.811C67.7539 58.9251 67.8118 59.066 67.8126 59.2336L67.8142 59.604C67.8149 59.7716 67.7582 59.9174 67.6441 60.0414C67.5299 60.1565 67.3847 60.2145 67.2083 60.2153L64.2712 60.2281C64.1653 60.2286 64.1126 60.2817 64.1131 60.3876L64.1209 62.1737C64.1214 62.2883 64.1746 62.3454 64.2804 62.345L67.6938 62.33C67.8526 62.3293 67.9895 62.3861 68.1047 62.5002C68.2287 62.6143 68.2911 62.7596 68.2918 62.936L68.2933 63.28ZM75.3397 63.0242C75.4288 63.2267 75.4163 63.412 75.3024 63.5801C75.1709 63.7659 75.0037 63.8592 74.8009 63.8601L74.404 63.8618C74.2893 63.8623 74.1745 63.8276 74.0595 63.7575C73.9534 63.6874 73.878 63.5995 73.8335 63.4939L72.5768 60.5225C72.5322 60.4169 72.4526 60.3643 72.338 60.3648L71.1076 60.3702C70.9929 60.3707 70.9358 60.4283 70.9363 60.543L70.9482 63.2684C70.949 63.4359 70.8879 63.5817 70.7649 63.7058C70.6508 63.8209 70.5099 63.8789 70.3423 63.8796L69.9719 63.8812C69.8043 63.882 69.6629 63.8253 69.5478 63.7111C69.4414 63.5881 69.3878 63.4428 69.3871 63.2752L69.3533 55.5488C69.3525 55.3724 69.4048 55.2266 69.5101 55.1115C69.6243 54.9963 69.7652 54.9384 69.9327 54.9377L73.5181 54.922C73.8356 54.9206 74.127 54.9987 74.3923 55.1563C74.6576 55.3139 74.8702 55.5247 75.0302 55.7886C75.1901 56.0525 75.2708 56.3476 75.2722 56.6739L75.2806 58.6055C75.2821 58.9495 75.1909 59.263 75.0069 59.5461C74.8317 59.8203 74.5989 60.033 74.3085 60.1842C74.2733 60.1932 74.2469 60.2242 74.2295 60.2772C74.2121 60.3213 74.2167 60.3654 74.2433 60.4094L75.3397 63.0242ZM73.7062 58.6124L73.6978 56.6808C73.6973 56.5573 73.6397 56.4959 73.525 56.4964L71.0906 56.507C70.976 56.5075 70.9189 56.5651 70.9194 56.6798L70.9279 58.6246C70.9284 58.7392 70.986 58.7963 71.1007 58.7958L73.535 58.7852C73.6497 58.7847 73.7068 58.7271 73.7062 58.6124ZM82.5337 62.0799C82.5351 62.3974 82.457 62.6888 82.2994 62.9541C82.1418 63.2194 81.931 63.432 81.6671 63.5919C81.4032 63.7518 81.1125 63.8325 80.795 63.8339L78.2548 63.845C77.9372 63.8464 77.6414 63.7683 77.3673 63.6107C77.102 63.4531 76.8894 63.2424 76.7295 62.9785C76.5696 62.7146 76.4889 62.4238 76.4875 62.1063L76.4858 61.7094C76.485 61.5418 76.5418 61.4005 76.6559 61.2853C76.7789 61.1613 76.9241 61.0989 77.0917 61.0982L77.4621 61.0965C77.6209 61.0958 77.7579 61.157 77.8731 61.28C77.9971 61.3941 78.0594 61.5349 78.0602 61.7025L78.0619 62.0994C78.0621 62.1435 78.0799 62.1875 78.1154 62.2315C78.1597 62.2666 78.2038 62.284 78.2479 62.2838L80.7881 62.2727C80.8322 62.2725 80.8718 62.2547 80.907 62.2193C80.942 62.175 80.9595 62.1308 80.9593 62.0867L80.954 60.8828C80.9536 60.7858 80.9092 60.7242 80.8209 60.6982L77.6405 59.5213C77.2871 59.3994 77.0039 59.1845 76.7909 58.8768C76.5779 58.569 76.4706 58.2299 76.4689 57.8594L76.4637 56.6687C76.4623 56.3424 76.5404 56.0466 76.698 55.7813C76.8556 55.516 77.0663 55.3034 77.3302 55.1434C77.603 54.9835 77.8981 54.9028 78.2156 54.9014L80.7558 54.8903C81.0733 54.8889 81.3647 54.967 81.63 55.1246C81.8953 55.2822 82.1079 55.493 82.2679 55.7569C82.4278 56.0208 82.5085 56.3159 82.5099 56.6423L82.5115 56.9995C82.5122 57.1671 82.4511 57.3085 82.3281 57.4237C82.2139 57.5388 82.0731 57.5968 81.9055 57.5975L81.5483 57.5991C81.3807 57.5998 81.2349 57.5431 81.1109 57.429C80.9957 57.3148 80.9378 57.174 80.9371 57.0064L80.9355 56.6492C80.935 56.5257 80.8774 56.4642 80.7627 56.4647L78.2225 56.4758C78.1784 56.476 78.1344 56.4938 78.0904 56.5293C78.0553 56.5647 78.0379 56.6089 78.0381 56.6618L78.0433 57.8526C78.0438 57.9584 78.0882 58.0243 78.1765 58.0504L81.3702 59.2272C81.7147 59.3492 81.9935 59.564 82.2065 59.8718C82.4195 60.1796 82.5268 60.5143 82.5284 60.8759L82.5337 62.0799Z" fill="#0B4E82"/>
<path d="M29.6884 44.4217C31.0131 45.2292 31.0371 46.7273 29.8645 47.4816L25.5174 50.33C24.3448 51.0843 23.6568 50.7825 22.4011 48.8722C17.1295 40.808 12.0104 32.9991 12.0104 32.9991C11.0569 32.0268 11.2528 30.588 12.1491 29.6067L14.9571 26.3829C15.7855 25.4378 17.5955 25.4689 18.2348 26.9733C18.2307 26.9614 23.4096 40.6152 29.6884 44.4217Z" fill="#EEEEEE"/>
<path d="M24.1765 38.5721C20.281 32.6176 18.2321 26.9619 18.2321 26.9619C17.5928 25.4574 15.7868 25.4383 14.9544 26.3714L12.1464 29.5952C11.2501 30.5765 11.0542 32.0153 12.0077 32.9876C12.0077 32.9876 14.6718 37.1435 18.206 42.4596C20.0207 41.2761 22.0866 39.9281 24.1765 38.5721Z" fill="#CACCCC"/>
<path d="M29.622 6.09578C27.1448 17.8726 19.5822 23.9618 19.5822 23.9618C14.3377 27.3919 10.3053 29.9079 7.62547 31.7689C7.61349 31.7729 7.61349 31.7729 7.60555 31.7889L13.2944 40.4992C13.3064 40.4952 13.3064 40.4952 13.3183 40.4912C15.9266 38.7742 19.2967 36.5876 25.2751 32.6841C25.2751 32.6841 35.6188 29.7116 45.7342 30.9348C46.8332 31.0717 48.1475 29.51 46.968 27.7073L33.0388 6.3862C31.8633 4.5955 29.8468 5.02045 29.622 6.09578Z" fill="#EEEEEE"/>
<path d="M41.5575 24.5406C31.4421 23.3174 23.678 30.2342 23.678 30.2342C17.6996 34.1378 14.3455 36.3322 11.7213 38.0413C11.7093 38.0453 11.7093 38.0453 11.6973 38.0494L13.294 40.4982C13.306 40.4941 13.306 40.4941 13.318 40.4901C15.9263 38.7731 19.2964 36.5865 25.2747 32.683C25.2747 32.683 35.6185 29.7105 45.7338 30.9337C46.8329 31.0706 48.1471 29.5089 46.9677 27.7062L42.7913 21.3131C43.9708 23.1157 42.6566 24.6774 41.5575 24.5406Z" fill="#CACCCC"/>
<path d="M25.5476 33.0994C25.7683 33.4384 25.6696 33.8981 25.3306 34.1188L14.6103 41.1235C14.2713 41.3441 13.3518 41.1469 12.8799 40.9723C9.15661 39.612 6.96378 35.391 6.84237 31.8595C6.82529 31.452 7.2465 30.6039 7.5855 30.3832L18.3059 23.3785C18.6449 23.1578 19.1046 23.2565 19.3253 23.5955L25.5476 33.0994Z" fill="#0B4E82"/>
<path d="M22.6181 29.9798L11.8977 36.9845C11.5587 37.2051 10.6393 37.0078 10.1674 36.8333C9.16758 36.4765 8.27905 35.8955 7.52204 35.1904C8.44775 37.7049 10.2959 40.0292 12.8794 40.9731C13.3472 41.1356 14.2707 41.3449 14.6097 41.1242L25.3301 34.1195C25.6691 33.8989 25.7677 33.4391 25.5471 33.1001L22.8351 28.9604C23.0557 29.2994 22.9691 29.7551 22.6181 29.9798Z" fill="#002A4C"/>
<path d="M29.7013 4.95222C29.3602 5.88005 28.5852 7.38037 29.0586 8.11422L44.0148 30.9827C44.777 32.1393 46.531 32.1625 47.498 32.2238C48.3811 32.2734 49.2412 31.1843 48.0657 29.3936C47.1029 27.918 33.266 6.75245 32.3031 5.2768C31.1236 3.47412 30.0067 4.11638 29.7013 4.95222Z" fill="#0B4E82"/>
<path d="M31.2983 4.26587C35.1658 10.1764 42.3871 21.2238 43.1855 22.4482C44.365 24.2509 43.5009 25.3279 42.6178 25.2784C41.9225 25.2323 40.7958 25.2114 39.9516 24.7622L44.0196 30.9918C44.7818 32.1484 46.5358 32.1716 47.5029 32.2329C48.3859 32.2825 49.246 31.1934 48.0705 29.4027C47.1077 27.9271 33.2708 6.76158 32.3079 5.28593C31.9549 4.75152 31.6224 4.43679 31.2983 4.26587Z" fill="#002A4C"/>
<defs>
<filter id="filter0_d_1_7135" x="21.6616" y="50.4944" width="78.3594" height="19.6924" filterUnits="userSpaceOnUse" color-interpolation-filters="sRGB">
<feFlood flood-opacity="0" result="BackgroundImageFix"/>
<feColorMatrix in="SourceAlpha" type="matrix" values="0 0 0 0 0 0 0 0 0 0 0 0 0 0 0 0 0 0 127 0" result="hardAlpha"/>
<feOffset dy="1"/>
<feGaussianBlur stdDeviation="0.25"/>
<feComposite in2="hardAlpha" operator="out"/>
<feColorMatrix type="matrix" values="0 0 0 0 0 0 0 0 0 0 0 0 0 0 0 0 0 0 0.09 0"/>
<feBlend mode="normal" in2="BackgroundImageFix" result="effect1_dropShadow_1_7135"/>
<feBlend mode="normal" in="SourceGraphic" in2="effect1_dropShadow_1_7135" result="shape"/>
</filter>
</defs>
</svg>
