<svg width="49" height="49" viewBox="0 0 49 49" fill="none" xmlns="http://www.w3.org/2000/svg">
<g clip-path="url(#clip0_1033_3420)">
<path d="M48.7127 24.2541C48.7127 37.5348 37.9286 48.3189 24.6479 48.3189C22.0125 48.3189 19.4465 47.9028 17.0886 47.1053C9.14788 44.4699 3.04498 37.8469 1.20717 29.5941C0.791061 27.8603 0.583008 26.0919 0.583008 24.2541C0.583008 10.9733 11.3671 0.189209 24.6479 0.189209C37.9286 0.189209 48.7127 10.9733 48.7127 24.2541Z" fill="#F05586"/>
<g filter="url(#filter0_d_1033_3420)">
<path d="M35.7045 14.8225C35.2727 10.916 32.8976 9.88566 30.1339 10.8301C27.4134 11.7745 26.2907 12.8048 24.2179 12.8048C22.1452 12.8048 21.0656 11.7745 18.3019 10.8301C15.5814 9.88566 13.1632 10.916 12.7314 14.8225C12.2996 18.729 12.9905 21.3905 16.186 24.9536C17.0928 25.9839 16.4019 28.1733 16.661 30.9636C16.9201 33.8828 18.0428 37.0595 18.9497 37.1453C19.6406 37.1883 19.5974 35.0848 19.6406 34.7843C19.727 33.3676 19.7701 31.951 20.0724 30.5343C20.4179 28.7743 21.1952 26.1127 22.9225 25.2112C23.2679 25.0395 23.7429 24.8678 24.1748 24.8678C26.2475 24.8678 27.2839 27.1859 27.8453 28.8601C28.3203 30.2768 28.5362 31.6505 28.6226 33.1101C28.7089 34.2262 28.6657 35.4282 28.968 36.5014C29.0112 36.6731 29.1839 37.1453 29.443 37.1024C30.393 37.0166 31.5158 33.8398 31.7749 30.9207C32.034 28.1303 31.3431 25.941 32.2499 24.9107C35.4454 21.3476 36.1363 18.729 35.7045 14.8225Z" fill="white"/>
</g>
</g>
<defs>
<filter id="filter0_d_1033_3420" x="9.1774" y="10.5027" width="30.0811" height="33.5189" filterUnits="userSpaceOnUse" color-interpolation-filters="sRGB">
<feFlood flood-opacity="0" result="BackgroundImageFix"/>
<feColorMatrix in="SourceAlpha" type="matrix" values="0 0 0 0 0 0 0 0 0 0 0 0 0 0 0 0 0 0 127 0" result="hardAlpha"/>
<feOffset dy="3.43784"/>
<feGaussianBlur stdDeviation="1.71892"/>
<feComposite in2="hardAlpha" operator="out"/>
<feColorMatrix type="matrix" values="0 0 0 0 0 0 0 0 0 0 0 0 0 0 0 0 0 0 0.25 0"/>
<feBlend mode="normal" in2="BackgroundImageFix" result="effect1_dropShadow_1033_3420"/>
<feBlend mode="normal" in="SourceGraphic" in2="effect1_dropShadow_1033_3420" result="shape"/>
</filter>
<clipPath id="clip0_1033_3420">
<rect width="48.1297" height="48.1297" fill="white" transform="translate(0.583252 0.189209)"/>
</clipPath>
</defs>
</svg>
