<svg width="18" height="20" viewBox="0 0 18 20" fill="none" xmlns="http://www.w3.org/2000/svg">
<path id="Path 0" fill-rule="evenodd" clip-rule="evenodd" d="M8.61214 0.000601088C9.05454 -0.00420762 9.3671 0.0198359 9.59792 0.0727316C9.78546 0.11601 10.1076 0.202567 10.3192 0.269889C10.5308 0.332402 10.9155 0.500706 11.18 0.63535C11.4397 0.774802 11.8292 1.02486 12.0407 1.19797C12.2571 1.37108 12.5601 1.66441 12.7188 1.84714C12.8775 2.02987 13.0746 2.29435 13.1564 2.42419C13.2429 2.55883 13.3872 2.8185 13.4834 3.00123C13.5747 3.18396 13.6997 3.47729 13.7526 3.65041C13.8103 3.82352 13.8921 4.11685 13.9306 4.29958C13.9738 4.48231 14.0171 4.87182 14.0315 5.16515C14.0508 5.55465 14.0364 5.82875 13.9738 6.19902C13.9306 6.47793 13.8392 6.86743 13.7719 7.06459C13.7094 7.26174 13.5411 7.63682 13.4064 7.9013C13.267 8.16097 13.0169 8.55048 12.8438 8.76206C12.6707 8.97845 12.3822 9.2814 12.1946 9.44009C12.0071 9.59877 11.7378 9.80074 11.5935 9.89691C11.4493 9.98828 11.1319 10.1566 10.8963 10.2672C10.6606 10.3826 10.2904 10.5172 10.0788 10.5701C9.86721 10.623 9.54503 10.6903 9.35749 10.7192C9.16995 10.7432 8.85738 10.7673 8.66022 10.7673C8.46307 10.7673 8.14569 10.7432 7.96296 10.7192C7.78023 10.6903 7.45324 10.623 7.24166 10.5701C7.03007 10.5172 6.65019 10.373 6.40013 10.2576C6.15008 10.1373 5.79424 9.93538 5.6067 9.81517C5.42397 9.69014 5.08736 9.40643 4.86135 9.18042C4.63534 8.95441 4.35163 8.6178 4.2266 8.43507C4.10638 8.24753 3.90442 7.89168 3.7842 7.64163C3.66879 7.39158 3.52453 7.01169 3.47163 6.80011C3.41874 6.58853 3.35142 6.26153 3.32256 6.0788C3.29852 5.89607 3.27448 5.56908 3.27448 5.3575C3.27448 5.14591 3.30814 4.77564 3.34661 4.54002C3.38508 4.30439 3.47163 3.93412 3.53896 3.72254C3.61109 3.51095 3.76977 3.14549 3.88999 2.90506C4.01502 2.66462 4.20256 2.35206 4.31316 2.2078C4.41895 2.06354 4.62572 1.81829 4.76998 1.6596C4.91425 1.50573 5.20277 1.24606 5.41435 1.08737C5.62593 0.928681 6.03467 0.683437 6.328 0.543985C6.62133 0.404532 7.03969 0.245845 7.2657 0.188141C7.49171 0.130436 7.73695 0.067923 7.8187 0.0438795C7.90045 0.0246447 8.25629 0.00540979 8.61214 0.000601088ZM7.31379 1.78463C7.14067 1.84714 6.8762 1.97217 6.72232 2.06354C6.56844 2.1549 6.31839 2.33763 6.16932 2.46266C6.02025 2.58768 5.80866 2.79927 5.70287 2.9291C5.59708 3.05894 5.43358 3.28975 5.34222 3.44363C5.25085 3.59751 5.12583 3.86199 5.06331 4.0351C5.0008 4.20822 4.91905 4.50636 4.88058 4.6987C4.84211 4.88624 4.81326 5.17477 4.81326 5.33345C4.81326 5.49214 4.83731 5.78066 4.86616 5.97301C4.89501 6.16055 4.98638 6.50197 5.06812 6.72798C5.14987 6.95399 5.32298 7.29541 5.44801 7.48775C5.57304 7.67529 5.81347 7.96862 5.97697 8.12731C6.14527 8.29081 6.45303 8.53124 6.66461 8.65627C6.8762 8.7861 7.2128 8.94479 7.40996 9.01211C7.60712 9.07463 7.92449 9.15637 8.10722 9.18523C8.30438 9.21889 8.62656 9.2285 8.87662 9.21408C9.11224 9.19965 9.42962 9.15156 9.57388 9.1131C9.71814 9.07463 9.95857 8.99769 10.1028 8.94479C10.2471 8.8919 10.5308 8.74282 10.728 8.61299C10.9251 8.48315 11.2185 8.25234 11.3723 8.09365C11.531 7.93977 11.757 7.65606 11.8821 7.47333C12.0023 7.2906 12.1706 6.95399 12.2523 6.72798C12.3341 6.50197 12.4302 6.13651 12.4591 5.9105C12.4976 5.67487 12.5072 5.33826 12.4928 5.11706C12.4735 4.90548 12.4302 4.61215 12.3918 4.46789C12.3533 4.32363 12.2764 4.08319 12.2235 3.93893C12.1706 3.79467 12.0167 3.50615 11.8821 3.30418C11.7522 3.09741 11.5214 2.80888 11.3771 2.66462C11.2329 2.52036 10.954 2.29435 10.7616 2.16933C10.5741 2.0443 10.2327 1.87119 10.0067 1.78944C9.78065 1.70769 9.43923 1.61633 9.24689 1.58747C9.05935 1.55862 8.7564 1.53458 8.57367 1.53939C8.39575 1.53939 8.11203 1.57305 7.93892 1.60671C7.76581 1.64037 7.4869 1.72212 7.31379 1.78463ZM14.0604 9.90172C14.1325 9.90172 14.2624 9.93057 14.3441 9.96904C14.4307 10.0027 14.6567 10.1951 14.8442 10.3874C15.0318 10.5846 15.3203 10.926 15.4838 11.152C15.6521 11.378 15.9021 11.7675 16.0464 12.0176C16.1858 12.2676 16.3878 12.6908 16.4936 12.9552C16.5994 13.2197 16.7388 13.6189 16.8014 13.8449C16.8687 14.0709 16.9649 14.5229 17.0226 14.8547C17.0755 15.1865 17.1235 15.6722 17.1235 15.9366C17.1235 16.2829 17.0995 16.5041 17.0322 16.7301C16.9793 16.9032 16.8494 17.1725 16.7485 17.3312C16.6475 17.4899 16.4311 17.7399 16.2772 17.889C16.1233 18.0332 15.854 18.2496 15.6809 18.365C15.5078 18.4804 15.152 18.6776 14.8875 18.8074C14.623 18.9325 14.1133 19.1296 13.7575 19.2498C13.4016 19.3653 12.8582 19.5143 12.5553 19.5816C12.2523 19.649 11.6897 19.7499 11.305 19.8028C10.9203 19.8557 10.425 19.9183 10.199 19.9471C9.973 19.976 9.28055 20 8.66022 20C8.0399 20 7.34745 19.976 7.12144 19.9471C6.89543 19.9183 6.40013 19.8557 6.01544 19.8028C5.63074 19.7499 5.06812 19.649 4.76518 19.5816C4.46223 19.5143 3.91884 19.3653 3.563 19.2498C3.20716 19.1296 2.71667 18.9421 2.48104 18.8315C2.24061 18.7161 1.88476 18.5189 1.68761 18.3891C1.49045 18.2641 1.19712 18.038 1.04324 17.889C0.88936 17.7399 0.677778 17.4899 0.571986 17.3312C0.471003 17.1725 0.341168 16.9032 0.283464 16.7301C0.196907 16.456 0.18729 16.3406 0.211333 15.7924C0.22576 15.451 0.273846 14.9605 0.317125 14.7104C0.365212 14.4604 0.451768 14.0709 0.51909 13.8449C0.581603 13.6189 0.721056 13.2197 0.826847 12.9552C0.932639 12.6908 1.1346 12.2676 1.27406 12.0176C1.41832 11.7675 1.66837 11.378 1.83667 11.152C2.00017 10.926 2.27908 10.5942 2.45219 10.4163C2.6253 10.2335 2.82727 10.0556 2.8994 10.0171C2.97634 9.97866 3.12541 9.94981 3.23601 9.94981C3.37065 9.94981 3.50049 9.98347 3.60628 10.0556C3.69764 10.1181 3.81305 10.2191 3.86114 10.2864C3.91403 10.3537 3.96693 10.5028 3.98136 10.623C4.00059 10.7769 3.98136 10.8875 3.92365 11.0077C3.87557 11.0991 3.70726 11.3203 3.54376 11.4934C3.38027 11.6665 3.11579 12.0031 2.9571 12.2388C2.79361 12.4744 2.57241 12.8398 2.46661 13.0514C2.36082 13.263 2.20694 13.6333 2.1252 13.8689C2.03864 14.1045 1.92804 14.5085 1.87995 14.7585C1.82706 15.0086 1.76935 15.4413 1.75493 15.7203C1.72607 16.1578 1.73088 16.2492 1.81263 16.4127C1.86072 16.5185 2.02421 16.7108 2.16848 16.8455C2.32235 16.9849 2.63973 17.1965 2.91382 17.336C3.1783 17.4754 3.6207 17.663 3.89961 17.7543C4.17851 17.8457 4.57764 17.9659 4.78922 18.0236C5.0008 18.0765 5.43358 18.1631 5.75096 18.216C6.06833 18.2737 6.52035 18.3362 6.76079 18.365C6.99641 18.3939 7.62635 18.4276 8.15531 18.442C8.73236 18.4612 9.42481 18.4516 9.88644 18.4179C10.3096 18.3891 10.9492 18.317 11.305 18.2641C11.6609 18.2112 12.2379 18.0909 12.5793 18.0044C12.9207 17.9178 13.3872 17.7736 13.6132 17.6918C13.8392 17.6101 14.2143 17.437 14.4547 17.3167C14.7288 17.1725 14.9981 16.9849 15.1904 16.8022C15.3732 16.6291 15.5126 16.4464 15.5463 16.3454C15.5799 16.2396 15.5848 16.004 15.5655 15.6962C15.5463 15.4317 15.4934 15.0086 15.4405 14.7585C15.3924 14.5085 15.2818 14.1045 15.1953 13.8689C15.1135 13.6333 14.9644 13.2726 14.8635 13.0755C14.7625 12.8783 14.5509 12.5177 14.3922 12.282C14.2335 12.0464 13.9402 11.6713 13.7382 11.4501C13.4785 11.1712 13.3583 10.9981 13.3247 10.8635C13.2958 10.7577 13.291 10.6134 13.3054 10.5365C13.3247 10.4643 13.3728 10.3393 13.4208 10.2624C13.4689 10.1854 13.5988 10.07 13.7142 10.0123C13.8296 9.94981 13.9835 9.90172 14.0556 9.90172H14.0604Z" fill="#324969"/>
</svg>
