<svg width="20" height="20" viewBox="0 0 20 20" fill="none" xmlns="http://www.w3.org/2000/svg">
<path id="Vector" d="M9.52381 7.61905H11.4286V4.7619H14.2857V2.85714H11.4286V0H9.52381V2.85714H6.66667V4.7619H9.52381V7.61905ZM5.71429 16.1905C4.66667 16.1905 3.81905 17.0476 3.81905 18.0952C3.81905 19.1429 4.66667 20 5.71429 20C6.76191 20 7.61905 19.1429 7.61905 18.0952C7.61905 17.0476 6.76191 16.1905 5.71429 16.1905ZM15.2381 16.1905C14.1905 16.1905 13.3429 17.0476 13.3429 18.0952C13.3429 19.1429 14.1905 20 15.2381 20C16.2857 20 17.1429 19.1429 17.1429 18.0952C17.1429 17.0476 16.2857 16.1905 15.2381 16.1905ZM5.87619 13.0952L5.90476 12.981L6.76191 11.4286H13.8571C14.5714 11.4286 15.2 11.0381 15.5238 10.4476L19.2 3.77143L17.5429 2.85714H17.5333L16.4857 4.7619L13.8571 9.52381H7.17143L7.04762 9.26667L4.91429 4.7619L4.00952 2.85714L3.11429 0.952381H0V2.85714H1.90476L5.33333 10.0857L4.04762 12.419C3.89524 12.6857 3.80952 13 3.80952 13.3333C3.80952 14.381 4.66667 15.2381 5.71429 15.2381H17.1429V13.3333H6.11429C5.99048 13.3333 5.87619 13.2286 5.87619 13.0952Z" fill="#324969"/>
</svg>
